<svg width="513" height="512" viewBox="0 0 513 512" fill="none" xmlns="http://www.w3.org/2000/svg">
<rect width="512" height="512" fill="white"/>
<g clip-path="url(#clip0_3_115)">
<rect width="512.334" height="384" transform="translate(0 64)" fill="white"/>
<path d="M98.8779 404.638L5.19476 350.53C4.42434 350.085 3.78457 349.445 3.33976 348.674C2.89494 347.903 2.66076 347.029 2.66073 346.139V213.547C2.66076 212.657 2.89494 211.782 3.33976 211.012C3.78457 210.241 4.42434 209.601 5.19476 209.156L92.259 158.871V111.025C92.259 110.135 92.4932 109.261 92.938 108.49C93.3828 107.72 94.0226 107.08 94.793 106.635L161.399 68.1651C162.169 67.7201 163.043 67.4858 163.933 67.4858C164.822 67.4858 165.696 67.7201 166.467 68.1651C166.467 68.1651 186.123 79.5183 207.891 92.0859C224.249 82.6428 240.629 73.1769 250.984 67.1954C251.755 66.7497 252.629 66.515 253.518 66.515C254.408 66.515 255.282 66.7497 256.052 67.1954L352.158 122.702C352.929 123.149 353.569 123.791 354.013 124.563C354.458 125.335 354.692 126.211 354.692 127.103C354.692 173.442 354.692 212.828 354.692 259.671C354.692 260.562 354.458 261.438 354.014 262.211C353.569 262.983 352.929 263.626 352.158 264.073L106.37 406.036C105.599 406.481 104.725 406.715 103.836 406.715C102.946 406.715 102.072 406.481 101.302 406.036L98.8779 404.638Z" fill="white"/>
<path d="M194.697 289.588L261.642 250.929C262.411 250.483 263.284 250.249 264.172 250.249C265.06 250.249 265.933 250.483 266.702 250.929L309.838 275.843C310.224 276.065 310.544 276.384 310.767 276.769C310.989 277.154 311.106 277.591 311.106 278.036V287.527C311.105 287.972 310.988 288.409 310.766 288.795C310.544 289.18 310.224 289.5 309.838 289.723L241.951 328.913C241.182 329.358 240.31 329.593 239.422 329.593C238.534 329.593 237.662 329.358 236.894 328.913L194.691 304.539C194.305 304.317 193.985 303.998 193.763 303.613C193.54 303.228 193.423 302.792 193.424 302.347V291.784C193.424 291.338 193.543 290.9 193.766 290.515C193.99 290.13 194.311 289.81 194.697 289.588Z" fill="white"/>
<path d="M231.18 325.618V378.456L236.358 381.452C237.321 382.008 238.413 382.301 239.525 382.301C240.638 382.301 241.73 382.008 242.693 381.452L248.379 378.164V325.202" fill="white"/>
<path d="M293.893 298.917V342.23L299.073 345.225C300.036 345.781 301.128 346.074 302.24 346.074C303.352 346.074 304.445 345.781 305.408 345.225L311.094 341.937V288.986" fill="white"/>
<path d="M138.358 404.141C136.195 404.524 134.006 404.751 131.81 404.819C129.377 404.775 126.953 404.521 124.564 404.059H124.548C124.548 408.854 124.578 415.18 124.578 419.015C124.578 421.225 127.709 423.072 131.533 423.072C135.357 423.072 138.427 421.22 138.427 419.015C138.427 415.213 138.395 408.933 138.395 404.15L138.358 404.141Z" fill="white"/>
<path d="M380.856 262.628C378.692 263.011 376.504 263.237 374.308 263.305C371.875 263.261 369.451 263.006 367.062 262.544H367.047C367.047 267.339 367.076 273.666 367.076 277.501C367.076 279.709 370.207 281.557 374.032 281.557C377.857 281.557 380.924 279.705 380.924 277.501C380.924 273.698 380.893 267.419 380.893 262.636L380.856 262.628Z" fill="white"/>
<path d="M419.924 387.241C418.65 387.279 417.41 386.825 416.462 385.973C414.45 383.801 415.086 380.891 415.732 378.808C418.045 376.786 420.329 374.731 422.584 372.644C423.279 372.467 424.01 372.484 424.696 372.692C425.383 372.9 426 373.292 426.48 373.826C426.929 374.444 427.241 375.151 427.395 375.899C427.549 376.647 427.542 377.42 427.374 378.166C427.029 379.654 426.429 381.071 425.601 382.355C424.772 383.984 423.573 385.396 422.1 386.478C421.676 386.75 421.218 386.964 420.737 387.112C420.473 387.19 420.2 387.234 419.924 387.241Z" fill="white"/>
<path d="M406.39 365.116L397.304 383.155C397.193 383.429 397.015 383.672 396.786 383.859C396.418 384.055 395.988 384.1 395.588 383.986C393.244 383.597 391.131 382.346 389.662 380.479C389.378 380.09 389.196 379.637 389.131 379.161C389.118 378.769 389.173 378.379 389.293 378.006C391.712 368.953 394.256 363.335 396.001 354.505C402.609 355.791 410.005 355.497 416.573 354.837C417.479 360.982 419.811 366.829 423.383 371.909C420.333 374.753 417.228 377.536 414.068 380.258C411.614 377.254 407.416 370.227 406.436 365.407" fill="white"/>
<path d="M377.284 338.53C377.493 337.914 377.831 337.35 378.277 336.876C378.723 336.403 379.265 336.031 379.868 335.786C381.747 335.134 383.782 335.076 385.696 335.62C386.319 337.434 387.529 340.817 388.514 342.879C388.176 345.465 385.45 346.782 383.066 346.959C382.057 347.075 381.036 346.918 380.108 346.505C379.181 346.092 378.381 345.438 377.792 344.61C376.887 343.149 376.581 341.393 376.938 339.711C377.022 339.309 377.137 338.914 377.284 338.53Z" fill="white"/>
<path d="M408.293 299.451C405.985 298.867 403.558 298.961 401.302 299.722C399.474 300.22 397.812 301.195 396.487 302.549C395.665 303.501 395.015 304.588 394.565 305.763C393.164 308.921 392.968 312.484 394.014 315.777C394.638 317.357 395.645 318.758 396.942 319.854C398.24 320.95 399.789 321.707 401.451 322.058C404.234 322.823 407.192 322.63 409.852 321.51C412.23 320.449 414.115 318.521 415.121 316.118C416.044 313.621 416.328 310.933 415.946 308.299C415.8 306.154 414.841 304.146 413.264 302.686C412.148 301.468 410.799 300.487 409.297 299.801C408.969 299.664 408.634 299.547 408.293 299.451Z" fill="white"/>
<path d="M408.293 299.451C405.985 298.867 403.558 298.961 401.302 299.722C399.474 300.22 397.812 301.195 396.487 302.549C396.141 302.934 395.83 303.349 395.557 303.79C397.73 304.826 401.883 306.562 403.46 309.681C404.813 312.357 404.709 318.327 403.982 322.445C405.986 322.671 408.015 322.349 409.852 321.515C412.23 320.454 414.115 318.526 415.121 316.123C416.044 313.626 416.328 310.939 415.946 308.304C415.8 306.16 414.84 304.151 413.264 302.691C412.148 301.473 410.799 300.492 409.297 299.806C408.97 299.667 408.634 299.549 408.293 299.451Z" fill="white"/>
<path d="M503.385 445.019C502.665 445.174 501.919 445.156 501.207 444.966C500.495 444.777 499.838 444.422 499.29 443.93C498.497 443.09 498.013 442.005 497.917 440.854C497.821 439.702 498.119 438.552 498.762 437.592C500.394 435.245 502.279 433.084 504.384 431.149C505.684 429.972 507.846 430.999 508.889 432.29C509.319 432.883 509.618 433.56 509.765 434.277C509.913 434.994 509.906 435.735 509.746 436.449C509.411 437.873 508.834 439.228 508.039 440.456C507.245 442.017 506.096 443.37 504.685 444.407C504.282 444.669 503.844 444.875 503.385 445.019Z" fill="white"/>
<path d="M474.4 385.212C473.231 384.737 471.933 384.688 470.732 385.075C469.425 385.451 468.274 386.24 467.451 387.323C466.611 388.311 466.196 389.593 466.3 390.886C466.306 391.941 466.723 392.952 467.462 393.704C467.89 394.077 468.39 394.36 468.931 394.535C469.471 394.71 470.042 394.775 470.608 394.725L471.764 394.604C473.448 393.878 475.193 393.125 475.976 392.778C476.237 392.678 476.481 392.538 476.699 392.363C476.967 392.083 477.175 391.751 477.309 391.387L477.748 390.411V390.284C477.754 389.358 477.524 388.445 477.078 387.632C476.633 386.819 475.988 386.133 475.204 385.639C474.949 385.473 474.68 385.33 474.4 385.212Z" fill="white"/>
<path d="M496.864 379.804C499.981 377.191 501.082 372.521 501.443 369.977C501.729 367.389 501.064 364.785 499.572 362.651C498.08 360.517 495.863 358.999 493.334 358.381C491.386 357.86 489.339 357.834 487.379 358.303C485.418 358.773 483.605 359.723 482.103 361.069C480.828 362.226 479.804 363.634 479.095 365.204C478.386 366.774 478.008 368.473 477.984 370.195C477.934 372.138 478.457 374.052 479.487 375.699C480.007 376.514 480.689 377.214 481.491 377.754C482.293 378.294 483.198 378.662 484.149 378.836" fill="white"/>
<path d="M478.497 425.372C477.278 424.983 476.072 424.533 474.881 424.022C476.63 420.402 478.379 416.782 480.128 413.162C484.309 413.769 488.519 414.161 492.741 414.337C492.922 414.341 493.102 414.307 493.269 414.237C493.436 414.167 493.586 414.062 493.709 413.929C493.832 413.796 493.926 413.638 493.983 413.467C494.041 413.295 494.062 413.113 494.044 412.933L501.41 412.172C501.942 415.392 503.67 422.153 504.151 424.281C504.225 424.609 501.58 425.605 501.287 425.69C493.828 427.855 485.893 427.745 478.497 425.372Z" fill="white"/>
<path d="M502.306 366.365C501.906 364.118 500.802 362.057 499.152 360.481C497.503 358.905 495.394 357.895 493.133 357.599C491.367 357.2 489.536 357.191 487.766 357.573C485.997 357.954 484.332 358.717 482.887 359.808C481.129 361.133 479.824 362.972 479.154 365.071C481.575 365.493 485.249 368.897 486.215 370.901C487.38 373.32 486.848 376.167 486.476 378.826C486.334 379.424 486.385 380.051 486.621 380.618C486.978 381.074 487.463 381.412 488.015 381.587C490.098 382.631 492.043 382.203 497.851 380.559C499.221 380.08 500.479 379.325 501.546 378.34C502.119 377.478 502.485 376.495 502.614 375.467C503.165 372.446 503.06 369.342 502.306 366.365Z" fill="white"/>
<path d="M381.847 383.346C381.742 382.662 381.773 381.965 381.939 381.294C382.105 380.622 382.402 379.99 382.812 379.434C383.665 378.675 384.727 378.19 385.859 378.043C386.991 377.896 388.141 378.093 389.16 378.609C389.127 378.791 389.117 378.975 389.131 379.159C389.196 379.636 389.378 380.089 389.662 380.477C391.131 382.345 393.244 383.596 395.588 383.985C395.988 384.099 396.418 384.054 396.786 383.858L396.819 383.834C398.038 385.619 397.37 387.406 395.992 388.746C395.407 389.256 394.721 389.636 393.978 389.86C393.235 390.085 392.453 390.148 391.684 390.046C390.146 389.831 388.656 389.349 387.284 388.623C385.564 387.93 384.03 386.845 382.805 385.454C382.492 385.048 382.236 384.602 382.044 384.127C381.947 383.876 381.88 383.613 381.847 383.346Z" fill="white"/>
<path d="M469.153 442.267C468.738 441.605 468.485 440.856 468.412 440.078C468.34 439.301 468.451 438.517 468.736 437.79C469.363 436.761 470.37 436.02 471.538 435.726C472.706 435.431 473.943 435.608 474.983 436.217C477.416 437.64 480.126 438.526 482.931 438.815C484.478 439.641 483.85 441.731 482.986 443.145C482.575 443.751 482.039 444.261 481.414 444.643C480.789 445.024 480.09 445.268 479.364 445.357C477.911 445.527 476.439 445.446 475.014 445.115C473.277 444.895 471.616 444.272 470.164 443.294C469.781 443 469.441 442.654 469.153 442.267Z" fill="white"/>
<path d="M495.959 433.332C494.341 431.881 492.818 430.327 491.398 428.682C491.398 428.682 491.041 428.057 490.567 427.235C494.194 427.223 497.801 426.702 501.283 425.688C501.397 425.655 501.865 425.485 502.391 425.269L503.005 426.169C503.848 427.511 504.809 428.775 505.877 429.945L504.373 431.144C502.68 432.737 501.105 434.452 499.661 436.275L499.425 436.084C498.16 435.313 496.996 434.389 495.959 433.332Z" fill="white"/>
<path d="M475.407 436.5L475.366 436.474L475.564 435.356C476.188 431.999 477.034 428.687 478.098 425.442L478.167 425.266C481.501 426.362 484.966 427.008 488.471 427.186L488.455 427.235C487.459 429.402 483.018 439.784 483.123 438.834C480.425 438.56 477.805 437.767 475.407 436.5Z" fill="white"/>
<path d="M116.387 316.632C116.387 316.632 116.387 303.759 116.387 289.507C116.387 287.796 116.387 286.066 116.387 284.336L146.847 266.741V299.041L116.387 316.632Z" fill="#FFB64B"/>
<path d="M162.965 289.729C162.965 289.729 162.965 276.856 162.965 262.604C162.965 260.894 162.965 259.162 162.965 257.432L193.43 239.836V272.136C185.964 276.449 174.68 282.965 162.965 289.729Z" fill="#FFB64B"/>
<path d="M116.387 380.797C116.387 380.797 116.387 367.925 116.387 353.672C116.387 351.961 116.387 350.231 116.387 348.5L146.847 330.907V363.207L116.387 380.797Z" fill="#FFB64B"/>
<path d="M220.309 256.611V215.216L238.227 204.867C238.227 208.828 238.227 245.202 238.227 246.265L220.309 256.611Z" fill="#FFB64B"/>
<path d="M162.965 353.895C162.965 353.895 162.965 341.022 162.965 326.77C162.965 325.059 162.965 323.328 162.965 321.598L193.43 304.003V336.302C185.964 340.614 174.68 347.131 162.965 353.895Z" fill="#FFB64B"/>
<path d="M265.104 230.738V198.439L295.569 180.842C295.569 182.573 295.569 184.304 295.569 186.015C295.569 200.268 295.569 213.14 295.569 213.14C283.851 219.906 272.567 226.429 265.104 230.738Z" fill="#FFB64B"/>
<path d="M311.686 203.835V171.536L342.152 153.94C342.152 155.67 342.152 157.402 342.152 159.113C342.152 173.366 342.152 186.238 342.152 186.238C330.429 193.006 319.145 199.525 311.686 203.835Z" fill="#FFB64B"/>
<path d="M295.566 267.589C295.566 262.772 295.566 256.62 295.566 250.181C295.566 248.47 295.566 246.739 295.566 245.008L276.017 256.299L295.566 267.589Z" fill="#FFB64B"/>
<path d="M311.686 268.001V235.702L342.152 218.105C342.152 219.836 342.152 221.566 342.152 223.278C342.152 237.531 342.152 250.403 342.152 250.403C330.429 257.171 319.145 263.691 311.686 268.001Z" fill="#FFB64B"/>
<path d="M135.781 356.926C134.644 356.046 133.248 355.569 131.811 355.569C130.375 355.569 128.978 356.046 127.842 356.926C122.347 361.228 118.096 366.915 115.524 373.403C114.719 375.36 114.112 377.392 113.711 379.47C113.386 381.456 113.18 383.459 113.093 385.469C112.868 389.008 112.662 392.677 113.939 395.99C115.078 398.877 117.229 401.252 119.99 402.669C122.724 404.071 128.752 404.814 131.814 404.814C134.124 404.814 140.904 404.071 143.636 402.669C146.398 401.252 148.549 398.878 149.688 395.99C150.965 392.68 150.76 389.011 150.535 385.469C150.448 383.459 150.242 381.455 149.916 379.47C149.515 377.392 148.908 375.36 148.104 373.403C145.531 366.914 141.278 361.227 135.781 356.926Z" fill="#FFB64B"/>
<path d="M378.275 215.411C377.138 214.532 375.742 214.056 374.305 214.056C372.869 214.056 371.473 214.532 370.336 215.411C364.841 219.716 360.59 225.405 358.018 231.895C357.214 233.852 356.607 235.884 356.206 237.962C355.881 239.947 355.674 241.951 355.587 243.961C355.362 247.501 355.157 251.171 356.434 254.482C357.573 257.37 359.724 259.744 362.484 261.163C365.218 262.557 371.246 263.306 374.308 263.306C376.618 263.306 383.398 262.563 386.132 261.163C388.892 259.744 391.043 257.369 392.183 254.482C393.46 251.173 393.254 247.51 393.029 243.961C392.942 241.951 392.736 239.948 392.411 237.962C392.01 235.884 391.402 233.852 390.598 231.895C388.026 225.403 383.773 219.714 378.275 215.411Z" fill="#FFB64B"/>
<path d="M416.713 327.852C415.699 324.443 414.841 322.782 411.742 321.274L401.187 322.497C399.547 322.98 398.089 323.942 396.999 325.259C396.096 326.273 394.508 328.708 393.332 330.005C391.548 332.188 389.116 333.748 386.388 334.457C386.257 334.497 386.136 334.563 386.032 334.651C385.928 334.739 385.842 334.847 385.781 334.968C385.719 335.09 385.683 335.223 385.674 335.359C385.664 335.495 385.683 335.632 385.728 335.76C386.645 338.6 387.78 341.365 389.125 344.03C391.311 343.667 393.425 342.95 395.381 341.907C395.349 342.909 395.333 343.495 395.333 343.495C395.273 345.523 395.314 352.335 395.333 354.366C396.827 354.68 398.335 354.917 399.854 355.075C405.565 355.567 411.311 355.472 417.003 354.791C417.99 347.206 419.007 335.88 416.908 328.524C416.848 328.292 416.777 328.069 416.713 327.852Z" fill="#FFB64B"/>
<path d="M480.02 386.289C479.006 387.927 478.1 389.63 477.309 391.387C477.175 391.751 476.967 392.083 476.699 392.363C476.481 392.538 476.237 392.678 475.976 392.778C474.504 393.43 469.631 395.515 468.157 396.168C469.104 400.929 473.272 405.057 477.571 405.619C478.425 405.761 479.301 405.702 480.129 405.449C480.905 405.131 481.624 404.687 482.257 404.136C483.552 403.159 484.797 402.118 485.987 401.015C489.281 401.126 491.126 401.541 494.659 401.913C494.965 405.594 494.776 409.3 494.098 412.931C496.717 412.655 499.335 412.382 501.954 412.114C502.941 404.528 503.734 395.063 501.633 387.707C500.445 383.544 498.411 379.131 494.43 377.429L484.127 382.149C482.771 382.789 481.622 383.796 480.811 385.057C480.541 385.464 480.278 385.874 480.02 386.289Z" fill="#FFB64B"/>
<path d="M231.18 325.618L202.389 308.989V350.58C208.942 346.797 219.241 340.848 231.18 333.952V325.618Z" fill="#FFB64B"/>
<path d="M267.633 250.334V125.14C267.626 124.697 267.504 124.263 267.279 123.881C267.053 123.5 266.733 123.183 266.349 122.962C265.964 122.741 265.529 122.624 265.086 122.622C264.643 122.621 264.207 122.734 263.82 122.951C249.18 131.402 234.541 139.856 219.903 148.316L206.409 156.114L198.826 160.496L195.132 162.63C193.956 163.31 191.964 164.045 191.248 165.259C190.571 166.419 190.902 168.508 190.902 169.79V355.754C190.902 359.017 195.971 359.022 195.971 355.754V166.543L194.716 168.732C214.243 157.447 233.771 146.166 253.3 134.889L266.379 127.337L262.565 125.148V250.342C262.565 253.604 267.633 253.609 267.633 250.342V250.334Z" fill="#211715"/>
<path d="M192.152 215.117L151.119 238.82L111.866 261.488L106.671 264.49L104.201 265.917C103.207 266.313 102.328 266.952 101.646 267.777C101.307 268.592 101.188 269.482 101.3 270.359V395.59C101.3 398.853 106.368 398.858 106.368 395.59V269.054L105.114 271.243L188.66 222.988L194.71 219.495C197.533 217.864 194.985 213.481 192.152 215.117Z" fill="#211715"/>
<path d="M192.147 237.651L159.904 256.274L117.608 280.703L102.798 289.256C99.9739 290.887 102.523 295.271 105.356 293.634L137.598 275.012L179.895 250.58L194.705 242.027C197.529 240.395 194.98 236.012 192.147 237.649V237.651Z" fill="#211715"/>
<path d="M118.921 316.632V284.338C118.921 281.075 113.853 281.07 113.853 284.338V316.632C113.853 319.894 118.921 319.9 118.921 316.632Z" fill="#211715"/>
<path d="M238.783 327.02H238.77C238.104 327.047 237.469 327.31 236.979 327.762C236.528 328.254 236.265 328.888 236.236 329.555L236.328 330.229C236.444 330.652 236.668 331.037 236.979 331.347L237.492 331.744C237.88 331.971 238.321 332.091 238.77 332.09H238.783C239.45 332.072 240.084 331.8 240.556 331.328C241.027 330.856 241.3 330.221 241.317 329.555L241.227 328.88C241.11 328.458 240.886 328.073 240.576 327.762L240.063 327.366C239.675 327.138 239.233 327.019 238.783 327.02Z" fill="#211715"/>
<path d="M209.173 94.2724C217.271 89.5977 225.368 84.921 233.465 80.2421L243.9 74.215L248.208 71.7218C249.592 70.7873 251.042 69.9553 252.547 69.2324C253.975 68.6746 255.186 69.6291 256.356 70.3047L261.492 73.2707L303.922 97.7758L345.164 121.596L349.852 124.305C350.161 124.483 350.486 124.649 350.782 124.843C352.648 126.048 352.154 128.284 352.154 130.247V255.338C352.154 256.947 352.647 259.386 351.881 260.843C351.513 261.444 350.971 261.918 350.327 262.202C349.239 262.845 348.137 263.47 347.041 264.103L321.85 278.657L309.799 285.617C306.975 287.248 309.524 291.631 312.357 289.995C320.938 285.04 329.518 280.083 338.098 275.126L350.695 267.849C352.567 266.768 354.543 265.849 355.831 264.046C357.183 262.155 357.225 260.052 357.225 257.818V130.247C357.418 128.24 357.226 126.215 356.658 124.28C356.018 122.708 354.884 121.387 353.429 120.514C352.669 120.036 351.868 119.611 351.09 119.163L313.029 97.1801L267.117 70.6647C263.899 68.8052 260.707 66.8862 257.456 65.0875C256.52 64.5409 255.481 64.1927 254.405 64.0647C253.328 63.9367 252.237 64.0316 251.198 64.3435C249.656 64.9621 248.184 65.744 246.807 66.6757L241.551 69.7178C234.055 74.0502 226.558 78.3822 219.059 82.7138L206.615 89.8994C203.791 91.5294 206.34 95.9125 209.173 94.2774V94.2724Z" fill="#211715"/>
<path d="M115.314 397.942C113.513 398.979 111.714 400.019 109.917 401.06C108.261 402.017 106.31 403.616 104.459 404.093C104.097 404.173 103.723 404.18 103.359 404.115C102.994 404.05 102.646 403.913 102.334 403.713C101.373 403.188 100.434 402.615 99.4848 402.065L86.2838 394.437L44.2188 370.142L10.1526 350.468C8.34963 349.426 5.30373 348.369 5.19603 345.984C5.07947 343.381 5.19603 340.744 5.19603 338.14V215.477C5.19603 214.843 5.15295 214.198 5.19603 213.568C5.30246 212.032 6.27806 211.455 7.42344 210.794L18.4224 204.442L59.7271 180.59L91.8586 162.034L93.5501 161.058C93.931 160.834 94.2469 160.514 94.4668 160.13C94.6868 159.746 94.8031 159.312 94.8044 158.869V119.074C94.8044 116.424 94.6296 113.706 94.8044 111.059C94.9438 108.964 97.2523 108.144 98.85 107.225L108.527 101.635L137.623 84.8242L160.389 71.6736C161.921 70.7863 163.451 69.4897 165.266 70.4061C166.59 71.0715 167.855 71.9018 169.138 72.642L190.065 84.7304L219.611 101.796L247.522 117.919L263.093 126.919L263.82 127.338C266.65 128.973 269.205 124.593 266.379 122.96L255.102 116.452L228.658 101.164L198.199 83.5694L174.436 69.8433L168.554 66.4451C167.275 65.6013 165.79 65.1245 164.26 65.0664C162.73 65.0083 161.213 65.3711 159.875 66.1155C153.757 69.529 147.737 73.1275 141.67 76.636L111.57 94.0189C105.623 97.4551 99.6191 100.806 93.7237 104.329C92.5384 105.007 91.5482 105.98 90.8488 107.153C90.1494 108.326 89.7645 109.66 89.7313 111.025C89.7034 111.75 89.7313 112.483 89.7313 113.209V158.869L90.9869 156.68L66.7071 170.702L23.1927 195.832L8.0012 204.606C4.28758 206.75 0.312954 208.508 0.126703 213.568C-0.162177 221.508 0.126703 229.51 0.126703 237.452V344.296C0.126703 344.904 0.103896 345.518 0.126703 346.126C0.17582 347.551 0.598821 348.937 1.35321 350.147C2.1076 351.356 3.1668 352.345 4.42442 353.015C13.6432 358.416 22.9317 363.704 32.1847 369.048L75.9652 394.334C83.9474 398.947 91.8371 403.861 99.9764 408.202C101.067 408.816 102.288 409.161 103.538 409.207C104.788 409.254 106.031 409.001 107.164 408.47C110.847 406.72 114.337 404.356 117.87 402.32C120.695 400.691 118.147 396.308 115.314 397.942Z" fill="#211715"/>
<path d="M151.397 382.964C165.841 374.625 180.281 366.285 194.716 357.943C195.097 357.719 195.413 357.399 195.633 357.015C195.853 356.631 195.969 356.197 195.971 355.754V355.742L194.716 357.931C207.302 350.674 219.883 343.411 232.461 336.142C235.285 334.511 232.736 330.129 229.902 331.764C217.322 339.031 204.74 346.294 192.158 353.553C191.777 353.777 191.461 354.097 191.24 354.481C191.02 354.865 190.904 355.299 190.903 355.742V355.754L192.158 353.565C177.714 361.904 163.274 370.244 148.839 378.586C146.015 380.218 148.564 384.6 151.397 382.964Z" fill="#211715"/>
<path d="M102.982 118.485L129.77 133.957L172.143 158.431L181.916 164.075C184.745 165.709 187.3 161.33 184.474 159.697L157.685 144.226L115.312 119.752L105.542 114.108C102.713 112.473 100.158 116.852 102.984 118.485H102.982Z" fill="#211715"/>
<path d="M99.8624 167.993L123.534 181.667L161.418 203.552L170.083 208.556C172.912 210.19 175.468 205.811 172.641 204.178L148.974 190.499L111.091 168.614L102.42 163.615C99.5912 161.981 97.0356 166.36 99.8624 167.993Z" fill="#211715"/>
<path d="M94.589 260.787L67.5535 245.171L24.4952 220.303L14.6594 214.62C11.8289 212.986 9.27455 217.366 12.1013 218.998L39.1368 234.609L82.1951 259.479L92.0309 265.16C94.8614 266.794 97.4157 262.415 94.589 260.782V260.787Z" fill="#211715"/>
<path d="M340.768 129.278L277.818 165.637L263.824 173.72C261.001 175.35 263.551 179.733 266.382 178.098L326.946 143.114L343.329 133.652C346.152 132.021 343.603 127.637 340.771 129.274L340.768 129.278Z" fill="#211715"/>
<path d="M134.152 307.834V275.541C134.152 272.279 129.084 272.274 129.084 275.541V307.834C129.084 311.097 134.152 311.103 134.152 307.834Z" fill="#211715"/>
<path d="M192.147 269.95L157.475 289.977L117.901 312.833L102.556 321.696C99.7319 323.327 102.281 327.71 105.114 326.074L136.925 307.695L177.301 284.372L194.705 274.321C197.529 272.69 194.98 268.306 192.147 269.943V269.95Z" fill="#211715"/>
<path d="M149.381 299.038V266.745C149.381 263.482 144.313 263.477 144.313 266.745V299.038C144.313 302.3 149.381 302.305 149.381 299.038Z" fill="#211715"/>
<path d="M105.118 357.94L177.751 315.984L194.71 306.189C197.533 304.559 194.985 300.176 192.152 301.812L120.287 343.32L102.56 353.558C99.7369 355.189 102.286 359.572 105.118 357.936V357.94Z" fill="#211715"/>
<path d="M165.499 289.729V257.435C165.499 254.173 160.431 254.167 160.431 257.435V289.729C160.431 292.991 165.499 292.997 165.499 289.729Z" fill="#211715"/>
<path d="M219.813 192.432C217.696 191.136 217.063 188.35 216.899 186.029C216.723 183.016 217.122 179.997 218.075 177.133C219.889 171.257 223.456 166.076 228.297 162.285C230.688 160.494 233.957 158.563 237.075 159.056C239.714 159.474 240.941 161.909 241.43 164.298C242.683 170.423 240.239 177.387 236.941 182.472C235.02 185.47 232.522 188.055 229.592 190.077C226.978 191.845 222.977 194.133 219.812 192.435C216.941 190.888 214.378 195.264 217.254 196.813C224.962 200.964 234.224 194.074 238.948 188.26C244.087 181.933 247.518 173.328 246.633 165.064C246.229 161.294 244.796 157.561 241.502 155.415C237.945 153.101 233.481 153.841 229.835 155.489C222.394 158.852 217.008 166.039 214.029 173.446C211.218 180.439 209.659 192.157 217.254 196.81C220.044 198.519 222.593 194.136 219.813 192.432Z" fill="#211715"/>
<path d="M118.923 371.434V348.504C118.923 345.242 113.855 345.236 113.855 348.504V371.434C113.855 374.696 118.923 374.701 118.923 371.434Z" fill="#211715"/>
<path d="M180.73 280.932V248.638C180.73 245.376 175.662 245.37 175.662 248.638V280.932C175.662 284.195 180.73 284.2 180.73 280.932Z" fill="#211715"/>
<path d="M232.668 176.722V167.014C232.668 166.342 232.401 165.697 231.926 165.222C231.451 164.747 230.806 164.479 230.134 164.479C229.462 164.479 228.818 164.747 228.343 165.222C227.867 165.697 227.6 166.342 227.6 167.014V176.722C227.6 177.395 227.867 178.04 228.343 178.515C228.818 178.99 229.462 179.258 230.134 179.258C230.806 179.258 231.451 178.99 231.926 178.515C232.401 178.04 232.668 177.395 232.668 176.722Z" fill="#211715"/>
<path d="M226.416 181.801L231.42 178.912C231.986 178.57 232.402 178.026 232.585 177.39C232.761 176.731 232.67 176.029 232.331 175.436C231.993 174.866 231.447 174.45 230.808 174.275C230.149 174.107 229.45 174.197 228.856 174.528L223.851 177.418C223.285 177.76 222.869 178.304 222.687 178.939C222.512 179.599 222.603 180.3 222.94 180.893C223.277 181.463 223.822 181.881 224.461 182.058C225.12 182.226 225.819 182.135 226.413 181.804L226.416 181.801Z" fill="#211715"/>
<path d="M134.153 355.577V339.708C134.153 339.035 133.886 338.39 133.411 337.915C132.935 337.44 132.291 337.172 131.619 337.172C130.947 337.172 130.302 337.44 129.827 337.915C129.352 338.39 129.085 339.035 129.085 339.708V355.577C129.085 356.249 129.352 356.894 129.827 357.369C130.302 357.845 130.947 358.112 131.619 358.112C132.291 358.112 132.935 357.845 133.411 357.369C133.886 356.894 134.153 356.249 134.153 355.577Z" fill="#211715"/>
<path d="M112.019 380.399C108.865 382.222 105.71 384.043 102.555 385.862C101.974 386.201 101.553 386.757 101.382 387.408C101.212 388.058 101.306 388.75 101.646 389.331C101.985 389.911 102.541 390.333 103.191 390.504C103.841 390.674 104.533 390.579 105.113 390.24C108.268 388.419 111.423 386.598 114.577 384.777C115.158 384.438 115.58 383.882 115.75 383.231C115.921 382.581 115.826 381.889 115.487 381.308C115.147 380.728 114.591 380.306 113.941 380.135C113.291 379.965 112.6 380.06 112.019 380.399Z" fill="#211715"/>
<path d="M144.859 367.285C161.514 357.761 178.097 348.107 194.704 338.5C197.525 336.867 194.977 332.484 192.145 334.122C175.539 343.729 158.956 353.388 142.301 362.907C139.469 364.526 142.02 368.909 144.859 367.285Z" fill="#211715"/>
<path d="M149.381 363.204V330.91C149.381 327.648 144.313 327.642 144.313 330.91V363.204C144.313 366.466 149.381 366.471 149.381 363.204Z" fill="#211715"/>
<path d="M222.843 256.611V215.216L221.587 217.405L239.505 207.056L235.693 204.867C235.693 216.967 235.693 229.069 235.693 241.171V246.265L236.947 244.076L219.03 254.423C216.206 256.054 218.755 260.438 221.588 258.801L239.505 248.454C239.886 248.23 240.202 247.91 240.422 247.526C240.642 247.142 240.759 246.708 240.761 246.265C240.761 234.66 240.761 223.055 240.761 211.451C240.761 209.254 240.761 207.059 240.761 204.867C240.753 204.423 240.631 203.99 240.406 203.608C240.18 203.226 239.86 202.909 239.475 202.688C239.091 202.468 238.656 202.351 238.213 202.349C237.769 202.347 237.333 202.46 236.947 202.678L223.39 210.51C221.949 211.341 220.404 212.092 219.03 213.027C217.696 213.937 217.776 215.255 217.776 216.676V256.612C217.775 259.874 222.843 259.879 222.843 256.611Z" fill="#211715"/>
<path d="M165.499 353.895V321.601C165.499 318.338 160.431 318.333 160.431 321.601V353.895C160.431 357.158 165.499 357.163 165.499 353.895Z" fill="#211715"/>
<path d="M180.73 345.097V312.804C180.73 309.542 175.662 309.537 175.662 312.804V345.097C175.662 348.36 180.73 348.366 180.73 345.097Z" fill="#211715"/>
<path d="M204.928 350.57V308.995C204.928 305.733 199.86 305.728 199.86 308.995V350.57C199.86 353.833 204.928 353.838 204.928 350.57Z" fill="#211715"/>
<path d="M266.382 200.628L298.625 182.007L340.922 157.578L355.732 149.023C358.556 147.392 356.007 143.01 353.174 144.645L320.935 163.266L278.636 187.695L263.824 196.25C261.001 197.881 263.551 202.264 266.382 200.628Z" fill="#211715"/>
<path d="M282.869 221.934V189.645C282.869 186.382 277.801 186.377 277.801 189.645V221.934C277.801 225.197 282.869 225.202 282.869 221.934Z" fill="#211715"/>
<path d="M266.382 232.928L301.056 212.902L340.629 190.044L355.974 181.182C358.798 179.55 356.249 175.167 353.416 176.804L321.604 195.183L281.229 218.505L263.824 228.558C261.001 230.188 263.551 234.571 266.382 232.936V232.928Z" fill="#211715"/>
<path d="M298.1 213.141V180.848C298.1 177.586 293.032 177.581 293.032 180.848V213.141C293.032 216.404 298.1 216.409 298.1 213.141Z" fill="#211715"/>
<path d="M314.22 203.832V171.538C314.22 168.276 309.152 168.271 309.152 171.538V203.832C309.152 207.095 314.22 207.1 314.22 203.832Z" fill="#211715"/>
<path d="M353.411 208.674C332.81 220.553 312.219 232.446 291.637 244.353C286.003 247.603 280.371 250.856 274.742 254.113C271.923 255.752 274.472 260.135 277.3 258.491C298.019 246.448 318.772 234.463 339.56 222.535C345.032 219.376 350.503 216.215 355.972 213.052C358.796 211.424 356.247 207.04 353.414 208.674H353.411Z" fill="#211715"/>
<path d="M329.447 195.036V162.74C329.447 159.478 324.379 159.473 324.379 162.74V195.034C324.379 198.296 329.447 198.303 329.447 195.036Z" fill="#211715"/>
<path d="M282.862 258.789V253.807C282.854 253.137 282.589 252.495 282.121 252.015C281.886 251.779 281.607 251.593 281.299 251.465C280.992 251.338 280.662 251.272 280.329 251.272C279.996 251.272 279.667 251.338 279.359 251.465C279.052 251.593 278.772 251.779 278.537 252.015C278.07 252.496 277.805 253.137 277.794 253.807V258.789C277.803 259.459 278.068 260.101 278.537 260.581C278.772 260.816 279.052 261.003 279.359 261.131C279.667 261.258 279.996 261.324 280.329 261.324C280.662 261.324 280.992 261.258 281.299 261.131C281.607 261.003 281.886 260.816 282.121 260.581C282.587 260.1 282.852 259.459 282.862 258.789Z" fill="#211715"/>
<path d="M344.678 186.238V153.945C344.678 150.682 339.61 150.677 339.61 153.945V186.238C339.61 189.5 344.678 189.506 344.678 186.238Z" fill="#211715"/>
<path d="M353.411 240.971C339.076 249.248 324.742 257.525 310.409 265.802C310.027 266.026 309.711 266.346 309.491 266.73C309.271 267.114 309.154 267.548 309.153 267.991V268.003L310.409 265.814C307.837 267.292 305.269 268.775 302.705 270.263C299.881 271.895 302.43 276.278 305.263 274.641C307.83 273.158 310.398 271.675 312.967 270.192C313.348 269.968 313.664 269.648 313.884 269.264C314.104 268.88 314.22 268.446 314.221 268.003V267.991L312.967 270.18C327.307 261.914 341.641 253.637 355.969 245.349C358.793 243.719 356.244 239.336 353.411 240.971Z" fill="#211715"/>
<path d="M298.105 267.585V245.011C298.105 241.748 293.037 241.743 293.037 245.011V267.585C293.037 270.848 298.105 270.853 298.105 267.585Z" fill="#211715"/>
<path d="M314.22 267.998V235.704C314.22 232.442 309.152 232.437 309.152 235.704V267.998C309.152 271.26 314.22 271.266 314.22 267.998Z" fill="#211715"/>
<path d="M329.447 259.199V226.908C329.447 223.645 324.379 223.64 324.379 226.908V259.199C324.379 262.462 329.447 262.467 329.447 259.199Z" fill="#211715"/>
<path d="M344.678 250.404V218.111C344.678 214.848 339.61 214.843 339.61 218.111V250.404C339.61 253.666 344.678 253.672 344.678 250.404Z" fill="#211715"/>
<path d="M228.646 325.618V374.917C228.552 376.208 228.567 377.504 228.69 378.793C228.951 380.273 230.161 380.796 231.323 381.467C233.744 382.862 236.149 384.617 239.024 384.812C242.147 385.025 244.654 383.251 247.22 381.77C248.016 381.31 248.857 380.889 249.627 380.376C251.577 379.084 250.924 375.961 250.924 373.928V325.202C250.924 321.939 245.855 321.934 245.855 325.202V378.16L247.11 375.971L243.869 377.846C242.736 378.685 241.466 379.322 240.116 379.728C238.532 379.974 237.263 379.04 235.971 378.294L232.462 376.265L233.717 378.455V325.618C233.717 322.355 228.649 322.35 228.649 325.618H228.646Z" fill="#211715"/>
<path d="M291.359 298.917V340.078C291.359 341.997 291.232 343.57 293.023 344.655C294.036 345.274 295.09 345.851 296.123 346.448C298.933 348.073 301.866 349.313 305.153 348.114C307.248 347.191 309.261 346.091 311.17 344.826C312.272 344.192 313.341 343.685 313.588 342.276C313.79 340.034 313.805 337.78 313.633 335.536V288.986C313.633 285.724 308.565 285.718 308.565 288.986V341.945L309.821 339.756L306.58 341.629C305.446 342.469 304.176 343.106 302.826 343.513C301.243 343.757 299.973 342.824 298.681 342.077L295.173 340.048L296.427 342.237V298.917C296.427 295.656 291.359 295.65 291.359 298.917Z" fill="#211715"/>
<path d="M195.977 291.775L229.312 272.521L252.203 259.299C255.742 257.255 259.24 254.893 262.92 253.11C265.074 252.066 267.79 254.471 269.611 255.518L277.309 259.965L294.353 269.81L307.165 277.21C307.511 277.409 308.397 277.738 308.565 278.018C308.734 278.298 308.565 279.236 308.565 279.562V286.085C308.565 286.383 308.727 287.243 308.565 287.509C308.291 287.957 306.866 288.489 306.362 288.777L303.081 290.678L290.679 297.842L267.814 311.049L250.168 321.241L243.798 324.917C242.133 325.879 240.144 327.655 238.174 326.718C236.419 325.885 234.753 324.742 233.07 323.771L226.169 319.785L210.762 310.885L198.057 303.547C197.413 303.263 196.801 302.91 196.233 302.494C195.891 302.162 195.964 302.256 195.964 301.641V295.376C195.964 294.968 195.655 291.995 195.977 291.77C198.626 289.909 196.097 285.512 193.419 287.392C191.08 289.039 190.896 291.162 190.896 293.729V300.633C190.896 303.136 191.174 305.317 193.542 306.797C195.037 307.733 196.607 308.572 198.135 309.45L228.851 327.196L234.703 330.575C236.059 331.485 237.649 331.982 239.282 332.008C240.914 332.033 242.519 331.585 243.903 330.718C248.332 328.159 252.761 325.6 257.19 323.043L302.916 296.632L309.467 292.848C311.505 291.672 313.348 290.515 313.594 287.959C313.764 286.198 313.633 284.377 313.633 282.61C313.789 280.71 313.746 278.798 313.506 276.907C312.935 274.295 310.421 273.241 308.336 272.037L275.965 253.339C273.481 251.905 271.011 250.446 268.514 249.03C267.292 248.254 265.885 247.822 264.439 247.777C262.993 247.733 261.561 248.078 260.294 248.776C258.945 249.503 257.634 250.313 256.306 251.079L235.693 262.985L194.242 286.926L193.421 287.4C190.595 289.03 193.144 293.414 195.977 291.775Z" fill="#211715"/>
<path d="M297.03 280.494L242.948 311.731L238.147 314.504H240.705L216.153 300.324L212.656 298.304C209.827 296.67 207.271 301.049 210.098 302.682L234.651 316.859L238.148 318.879C238.537 319.103 238.978 319.221 239.427 319.221C239.876 319.221 240.317 319.103 240.706 318.879L282.951 294.48L299.59 284.869C302.413 283.238 299.863 278.856 297.032 280.491L297.03 280.494Z" fill="#211715"/>
<path d="M135.865 404.141C135.865 407.366 135.872 410.592 135.886 413.819C135.886 415.229 135.89 416.639 135.896 418.05C135.896 418.366 135.877 418.691 135.896 419.007C135.908 419.207 135.781 419.372 135.92 418.892C135.854 419.121 135.82 419 135.927 418.949C136.117 418.858 135.948 418.911 135.841 419.084C135.694 419.318 135.922 419.009 135.941 418.985C135.851 419.098 135.74 419.19 135.649 419.301C135.261 419.771 135.832 419.206 135.545 419.412C134.555 420.096 133.388 420.479 132.185 420.515C131.805 420.535 131.425 420.536 131.045 420.521C130.748 420.51 130.452 420.483 130.158 420.44C129.816 420.38 129.478 420.302 129.144 420.204C128.962 420.151 128.783 420.092 128.605 420.031C128.247 419.904 128.526 420.013 128.341 419.918C128.078 419.785 127.827 419.635 127.581 419.481C127.495 419.427 127.231 419.174 127.534 419.451C127.426 419.353 127.325 419.244 127.216 419.145C127.175 419.108 126.98 418.835 127.148 419.078C127.33 419.34 127.098 418.982 127.07 418.911C126.956 418.628 127.135 419.074 127.135 419.074C127.156 418.44 127.069 419.654 127.106 419.007C127.18 417.679 127.106 416.324 127.106 414.994C127.096 411.348 127.088 407.702 127.082 404.055C127.082 400.792 122.014 400.787 122.014 404.055C122.014 407.751 122.022 411.447 122.038 415.142C121.917 416.78 121.96 418.426 122.164 420.056C122.386 420.884 122.772 421.659 123.3 422.334C123.827 423.009 124.486 423.571 125.236 423.985C126.956 424.947 128.874 425.502 130.842 425.606C132.81 425.71 134.776 425.361 136.588 424.586C138.178 423.986 139.509 422.852 140.356 421.378C140.946 419.809 141.152 418.121 140.957 416.456C140.948 412.349 140.93 408.243 140.929 404.136C140.929 400.875 135.861 400.868 135.861 404.136L135.865 404.141Z" fill="#211715"/>
<path d="M137.059 354.737C136.012 353.992 134.819 353.477 133.559 353.225C132.299 352.973 131 352.991 129.747 353.276C127.213 353.862 125.194 355.702 123.348 357.435C119.673 360.908 116.663 365.022 114.466 369.576C113.27 371.986 112.322 374.511 111.637 377.113C110.989 380.047 110.616 383.034 110.523 386.037C110.194 391.535 110.553 396.925 114.246 401.311C117.264 404.894 121.525 406.212 125.998 406.851C129.849 407.405 133.761 407.391 137.608 406.81C141.949 406.187 146.008 405.036 149.063 401.674C152.893 397.459 153.444 392.061 153.138 386.598C153.059 383.215 152.626 379.85 151.844 376.557C149.438 368.102 144.447 360.612 137.573 355.136C137.087 354.68 136.446 354.426 135.78 354.426C135.114 354.426 134.474 354.68 133.988 355.136C133.517 355.613 133.253 356.257 133.253 356.928C133.253 357.599 133.517 358.243 133.988 358.72C140.997 364.071 145.811 371.799 147.524 380.451C147.88 382.861 148.081 385.292 148.127 387.728C148.32 390.014 148.114 392.316 147.517 394.532C146.976 396.18 146.016 397.659 144.731 398.825C143.447 399.991 141.882 400.803 140.19 401.183C137.298 401.933 134.319 402.302 131.331 402.28C127.998 402.334 124.684 401.773 121.554 400.626C119.757 399.763 118.238 398.413 117.168 396.73C116.098 395.047 115.521 393.099 115.501 391.104C115.158 386.286 115.663 381.444 116.994 376.8C118.457 372.163 120.825 367.862 123.962 364.147C126.451 361.214 130.376 356.179 134.5 359.117C135.082 359.451 135.771 359.543 136.42 359.372C137.069 359.202 137.625 358.784 137.968 358.207C138.294 357.623 138.381 356.936 138.212 356.289C138.042 355.642 137.629 355.086 137.059 354.737Z" fill="#211715"/>
<path d="M378.359 262.628C378.359 265.853 378.366 269.079 378.38 272.305C378.38 273.715 378.384 275.125 378.39 276.535C378.39 276.852 378.373 277.178 378.39 277.493C378.402 277.692 378.275 277.857 378.414 277.378C378.349 277.606 378.314 277.487 378.414 277.435C378.604 277.344 378.436 277.397 378.328 277.569C378.181 277.805 378.409 277.495 378.428 277.472C378.338 277.583 378.228 277.676 378.137 277.786C377.749 278.256 378.319 277.691 378.033 277.898C377.043 278.582 375.876 278.965 374.673 279.001C374.294 279.021 373.914 279.021 373.533 279.001C373.236 278.99 372.94 278.963 372.646 278.919C372.304 278.859 371.965 278.781 371.632 278.684C371.45 278.632 371.272 278.571 371.092 278.51C370.735 278.383 371.014 278.492 370.829 278.397C370.565 278.264 370.316 278.115 370.069 277.96C369.982 277.908 369.719 277.653 370.023 277.931C369.914 277.832 369.813 277.723 369.704 277.624C369.663 277.589 369.468 277.315 369.635 277.557C369.818 277.82 369.586 277.462 369.558 277.391C369.444 277.107 369.623 277.554 369.623 277.554C369.644 276.921 369.558 278.134 369.593 277.487C369.668 276.159 369.593 274.804 369.593 273.474C369.585 269.827 369.577 266.18 369.569 262.534C369.569 259.273 364.501 259.266 364.501 262.534C364.501 266.23 364.509 269.926 364.525 273.622C364.405 275.26 364.448 276.906 364.652 278.535C364.873 279.363 365.259 280.138 365.787 280.813C366.314 281.488 366.973 282.05 367.722 282.465C369.443 283.426 371.36 283.981 373.329 284.085C375.297 284.189 377.262 283.84 379.075 283.065C380.664 282.465 381.995 281.332 382.843 279.859C383.432 278.289 383.638 276.602 383.444 274.937C383.436 270.83 383.417 266.723 383.415 262.616C383.415 259.354 378.347 259.349 378.347 262.616L378.359 262.628Z" fill="#211715"/>
<path d="M379.553 213.222C378.506 212.478 377.313 211.963 376.053 211.711C374.793 211.46 373.494 211.478 372.242 211.763C369.707 212.349 367.688 214.188 365.842 215.921C362.167 219.393 359.158 223.507 356.96 228.061C355.764 230.472 354.816 232.998 354.131 235.6C353.484 238.533 353.111 241.52 353.017 244.523C352.688 250.022 353.047 255.412 356.74 259.796C359.758 263.38 364.019 264.699 368.492 265.338C372.344 265.891 376.257 265.877 380.105 265.296C384.445 264.674 388.505 263.521 391.56 260.161C395.39 255.945 395.942 250.547 395.634 245.084C395.556 241.701 395.123 238.335 394.342 235.043C391.936 226.587 386.945 219.097 380.069 213.621C379.584 213.165 378.943 212.911 378.278 212.911C377.612 212.911 376.971 213.165 376.486 213.621C376.014 214.099 375.75 214.743 375.75 215.414C375.75 216.085 376.014 216.729 376.486 217.206C383.494 222.557 388.307 230.285 390.02 238.937C390.377 241.347 390.579 243.777 390.623 246.213C390.816 248.5 390.61 250.802 390.014 253.017C389.473 254.666 388.513 256.145 387.228 257.311C385.944 258.477 384.379 259.289 382.687 259.668C379.794 260.42 376.816 260.789 373.828 260.766C370.495 260.82 367.18 260.259 364.05 259.112C362.253 258.248 360.734 256.899 359.664 255.216C358.595 253.533 358.017 251.584 357.998 249.59C357.654 244.772 358.16 239.931 359.492 235.287C360.953 230.649 363.322 226.348 366.46 222.634C368.95 219.699 372.874 214.666 376.998 217.603C377.58 217.937 378.269 218.029 378.918 217.859C379.567 217.689 380.122 217.27 380.466 216.694C380.792 216.109 380.879 215.422 380.708 214.774C380.538 214.127 380.124 213.571 379.553 213.222Z" fill="#211715"/>
<path d="M393.515 354.071C392.412 359.046 391.039 363.956 389.403 368.782C388.611 371.251 387.841 373.725 387.149 376.226C386.714 377.376 386.555 378.611 386.687 379.834C386.992 381.115 387.664 382.279 388.62 383.184C390.261 384.766 392.307 385.863 394.532 386.352C395.212 386.579 395.937 386.634 396.643 386.512C397.349 386.391 398.013 386.096 398.578 385.654C399.418 384.686 400.079 383.575 400.53 382.375L408.578 366.404C410.042 363.498 405.672 360.927 404.202 363.845L399.529 373.122L397.322 377.504L396.154 379.822C395.867 380.62 395.477 381.378 394.995 382.076L396.112 381.423C395.525 381.665 394.3 380.998 393.735 380.692C393.237 380.436 392.773 380.118 392.353 379.747C392.19 379.593 392.034 379.431 391.888 379.261C391.831 379.196 391.548 378.555 391.623 378.931C391.689 379.263 391.784 378.513 391.811 378.41C391.908 378.044 392.009 377.679 392.112 377.314C392.307 376.612 392.508 375.911 392.714 375.213C393.124 373.827 393.554 372.446 393.992 371.069C395.739 365.937 397.211 360.716 398.402 355.427C399.053 352.242 394.17 350.881 393.515 354.08V354.071Z" fill="#211715"/>
<path d="M413.862 353.369C414.347 360.467 417.409 367.28 421.196 373.188L421.592 370.115C418.539 372.956 415.434 375.739 412.277 378.465H415.861C414.37 376.498 413.041 374.414 411.888 372.232C410.535 369.887 409.522 367.361 408.88 364.731C408.192 361.543 403.305 362.893 403.992 366.08C405.231 371.82 408.62 377.514 412.277 382.051C412.757 382.516 413.4 382.777 414.069 382.777C414.738 382.777 415.381 382.516 415.861 382.051C419.017 379.325 422.122 376.543 425.176 373.703C425.569 373.304 425.82 372.788 425.891 372.233C425.962 371.678 425.85 371.115 425.571 370.63C423.43 367.454 421.709 364.013 420.45 360.395C419.701 358.112 419.192 355.758 418.93 353.37C418.914 352.703 418.642 352.067 418.17 351.595C417.699 351.123 417.063 350.851 416.396 350.835C415.725 350.841 415.084 351.11 414.61 351.584C414.136 352.058 413.867 352.698 413.862 353.369Z" fill="#211715"/>
<path d="M422.93 345.986C421.995 346.264 419.72 347.57 418.749 347.328C417.426 347.001 417.343 344.591 417.237 343.539C416.951 340.713 416.849 337.871 416.933 335.032C416.967 333.912 416.795 333.03 417.939 332.623C419.154 332.414 420.4 332.46 421.596 332.76C421.755 332.768 421.908 332.829 422.028 332.935C422.111 333.049 422.158 333.185 422.164 333.326C422.724 337.308 423.124 341.308 423.364 345.326C423.394 345.492 423.361 345.663 423.272 345.806C423.178 345.898 423.059 345.96 422.93 345.986Z" fill="#211715"/>
<path d="M422.258 343.54C421.782 343.694 421.318 343.907 420.865 344.106L420.287 344.359C419.682 344.632 420.584 344.257 420.097 344.444C419.698 344.596 419.3 344.721 418.893 344.844C418.431 344.984 419.451 344.844 418.991 344.822C419.269 344.817 419.542 344.894 419.777 345.043L419.662 344.974C419.846 345.092 420.416 345.789 420.032 345.245C419.771 344.875 420.159 345.735 420.054 345.268C420.012 345.081 419.951 344.897 419.913 344.707C419.858 344.444 419.938 343.987 419.886 344.648C419.868 343.756 419.783 342.866 419.633 341.987C419.443 339.51 419.434 337.043 419.475 334.558C419.504 334.356 419.51 334.151 419.494 333.948C419.43 334.328 419.42 334.428 419.466 334.238C419.511 334.048 419.477 334.135 419.339 334.503C419.224 334.698 419.061 334.862 418.865 334.977C418.553 335.086 418.526 335.099 418.784 335.016C419.282 334.904 418.296 334.967 418.892 335.005C419.106 335.018 419.323 335.005 419.538 335.019C419.656 335.027 420.587 335.156 419.955 335.053L420.559 335.149L420.92 335.207C421.191 335.265 421.133 335.238 420.748 335.125L419.838 334.217C419.568 333.71 419.78 334.432 419.799 334.57C419.756 334.26 419.829 334.805 419.841 334.892C419.907 335.414 419.973 335.937 420.036 336.46C420.155 337.459 420.264 338.458 420.363 339.458C420.462 340.457 420.551 341.459 420.63 342.462C420.666 342.939 420.701 343.417 420.735 343.894C420.756 344.181 420.775 344.467 420.794 344.755L420.811 345.041C420.811 345.602 420.902 345.431 421.082 344.527L421.992 343.618L422.254 343.543C421.606 343.722 421.056 344.151 420.724 344.735C420.392 345.32 420.306 346.013 420.484 346.661C420.663 347.309 421.092 347.86 421.676 348.192C422.261 348.524 422.953 348.611 423.601 348.432C424.261 348.249 424.843 347.854 425.258 347.309C425.673 346.764 425.898 346.098 425.898 345.413C425.898 344.482 425.781 343.533 425.708 342.605C425.568 340.793 425.394 338.982 425.186 337.174C425.083 336.27 424.972 335.367 424.853 334.465C424.667 333.059 424.641 331.597 423.306 330.747C422.689 330.409 422.004 330.21 421.302 330.164C420.44 329.997 419.563 329.924 418.685 329.945C417.736 329.924 416.809 330.226 416.054 330.802C415.3 331.378 414.763 332.193 414.532 333.114C414.311 334.785 414.261 336.474 414.38 338.156C414.414 339.975 414.536 341.788 414.707 343.598C414.749 344.834 414.98 346.056 415.392 347.223C415.727 348.147 416.389 348.917 417.253 349.386C418.117 349.854 419.123 349.99 420.08 349.765C420.882 349.572 421.66 349.292 422.401 348.93C422.688 348.803 422.974 348.683 423.259 348.55C423.789 348.31 422.846 348.69 423.178 348.581C423.321 348.533 423.459 348.472 423.604 348.426C423.925 348.337 424.225 348.186 424.488 347.982C424.75 347.777 424.97 347.523 425.134 347.233C425.299 346.944 425.404 346.625 425.446 346.294C425.487 345.964 425.462 345.628 425.374 345.307C425.285 344.986 425.135 344.686 424.93 344.423C424.726 344.161 424.471 343.941 424.182 343.776C423.893 343.612 423.574 343.506 423.243 343.465C422.913 343.424 422.578 343.448 422.257 343.537L422.258 343.54Z" fill="#211715"/>
<path d="M409.664 323.099C410.632 323.406 411.514 323.935 412.241 324.645C412.967 325.354 413.516 326.225 413.845 327.186C414.762 329.877 415.311 332.679 415.477 335.517C415.766 341.959 415.429 348.414 414.47 354.791L417.004 352.256C410.052 352.963 402.896 353.337 396.008 351.923L397.868 354.366C397.835 350.745 397.774 347.116 397.868 343.495C397.952 340.231 392.884 340.232 392.8 343.495C392.706 347.116 392.767 350.745 392.8 354.366C392.806 354.92 392.99 355.457 393.325 355.898C393.66 356.338 394.128 356.659 394.66 356.812C402.039 358.117 409.573 358.29 417.004 357.326C417.668 357.3 418.297 357.024 418.767 356.555C419.236 356.085 419.512 355.455 419.538 354.791C420.648 347.781 420.93 340.665 420.379 333.589C420.101 330.364 419.329 327.2 418.091 324.209C416.917 321.69 414.815 319.722 412.223 318.719C411.639 318.4 410.954 318.317 410.31 318.486C409.665 318.655 409.11 319.064 408.757 319.629C408.422 320.21 408.33 320.9 408.5 321.549C408.67 322.198 409.089 322.754 409.665 323.097L409.664 323.099Z" fill="#211715"/>
<path d="M408.966 297.007C403.363 295.519 396.213 297.605 393.198 302.79C390.378 307.638 389.641 314.636 393.071 319.374C396.452 324.043 402.508 325.76 408.045 324.754C410.665 324.221 413.061 322.906 414.918 320.982C416.931 318.8 418.174 316.018 418.457 313.063C418.87 309.847 418.674 306.022 416.906 303.207C415.059 300.28 412.253 298.088 408.966 297.007C405.844 296.04 404.507 300.936 407.618 301.896C409.472 302.552 411.085 303.755 412.244 305.345C413.31 307.058 413.771 309.078 413.555 311.084C413.463 314.774 411.824 318.123 408.218 319.469C406.517 320.057 404.691 320.188 402.922 319.849C401.154 319.511 399.505 318.714 398.141 317.54C395.234 314.733 395.462 310.268 396.874 306.751C397.219 305.801 397.76 304.934 398.46 304.206C399.16 303.478 400.005 302.905 400.941 302.523C403.036 301.589 405.38 301.367 407.614 301.89C410.775 302.734 412.121 297.845 408.966 297.007Z" fill="#211715"/>
<path d="M394.703 306.18C396.134 306.812 397.515 307.551 398.834 308.392C399.003 308.506 399.172 308.625 399.34 308.746C399.481 308.85 399.475 308.842 399.319 308.724L399.51 308.88C399.854 309.17 400.181 309.48 400.49 309.807C400.625 309.955 400.765 310.104 400.885 310.265C400.675 309.984 400.898 310.315 400.976 310.439C401.083 310.609 401.165 310.793 401.271 310.96C401.563 311.42 401.145 310.486 401.311 311.047C401.531 311.758 401.7 312.484 401.817 313.219C401.743 312.712 401.848 313.528 401.85 313.55C401.871 313.769 401.888 313.987 401.904 314.206C401.935 314.66 401.954 315.115 401.963 315.569C401.985 316.556 401.963 317.544 401.899 318.53C401.869 318.995 401.831 319.46 401.786 319.924C401.759 320.195 401.728 320.466 401.696 320.738C401.687 320.863 401.669 320.987 401.643 321.109C401.486 321.757 401.582 322.44 401.912 323.02C402.242 323.599 402.78 324.031 403.416 324.227C404.065 324.401 404.756 324.312 405.34 323.98C405.923 323.648 406.353 323.099 406.535 322.453C406.896 320.175 407.063 317.872 407.035 315.566C407.073 313.512 406.767 311.466 406.129 309.514C404.643 305.584 400.869 303.489 397.26 301.8C396.676 301.479 395.991 301.394 395.346 301.563C394.701 301.732 394.146 302.142 393.793 302.708C393.46 303.29 393.368 303.98 393.538 304.629C393.708 305.278 394.127 305.834 394.703 306.178V306.18Z" fill="#211715"/>
<path d="M400.512 320.052C397.492 320.559 395.244 323.297 393.544 325.615C392.1 327.928 390.125 329.862 387.781 331.256C387.686 331.304 386.936 331.624 387.419 331.433C387.139 331.545 386.857 331.645 386.57 331.741C385.763 331.926 385.004 332.281 384.345 332.783C382.851 334.157 383.078 335.878 383.697 337.6C384.511 340.275 385.597 342.86 386.939 345.314C387.232 345.785 387.667 346.152 388.181 346.361C388.695 346.57 389.262 346.611 389.801 346.479C394.347 345.537 398.56 343.402 402.009 340.293C402.479 339.815 402.743 339.171 402.743 338.501C402.743 337.83 402.479 337.186 402.009 336.709C401.527 336.246 400.885 335.988 400.217 335.988C399.549 335.988 398.907 336.246 398.426 336.709C395.601 339.205 392.154 340.891 388.45 341.589L391.313 342.753C390.256 340.856 389.404 338.852 388.77 336.774C388.635 336.231 388.447 335.702 388.208 335.196C387.984 334.474 387.673 335.023 387.276 336.844C387.419 336.8 387.561 336.755 387.703 336.709C387.916 336.639 388.129 336.568 388.336 336.492C389.428 336.116 390.473 335.615 391.449 334.999C393.809 333.318 395.844 331.222 397.453 328.813C398.517 327.361 399.959 325.264 401.858 324.95C402.504 324.768 403.052 324.338 403.384 323.755C403.716 323.171 403.805 322.48 403.632 321.832C403.44 321.191 403.009 320.649 402.428 320.319C401.848 319.988 401.162 319.895 400.514 320.057L400.512 320.052Z" fill="#211715"/>
<path d="M385.867 343.028C385.889 342.974 386.15 342.494 385.937 342.846C385.899 342.911 385.866 342.98 385.826 343.046C385.776 343.132 385.707 343.212 385.663 343.3C385.552 343.521 385.8 343.089 385.829 343.088C385.767 343.088 385.467 343.468 385.408 343.525C385.35 343.582 385.291 343.623 385.235 343.675C385.019 343.876 385.756 343.331 385.315 343.603C385.16 343.698 385.009 343.798 384.848 343.885C384.741 343.945 384.402 344.037 384.354 344.13C384.374 344.091 384.941 343.912 384.519 344.053L384.295 344.131C384.093 344.198 383.89 344.258 383.685 344.306C383.507 344.349 383.327 344.383 383.147 344.419C382.717 344.504 383.314 344.385 383.36 344.394C383.257 344.393 383.156 344.402 383.056 344.423C382.845 344.438 382.635 344.445 382.422 344.444C382.335 344.444 382.247 344.444 382.16 344.444C382.072 344.444 381.567 344.373 381.99 344.444C382.393 344.511 381.797 344.402 381.681 344.375C381.5 344.33 381.322 344.277 381.146 344.215C380.57 344.012 381.473 344.414 381.103 344.193C380.924 344.087 380.743 343.985 380.565 343.879C380.192 343.655 380.691 343.944 380.698 343.998C380.623 343.923 380.542 343.854 380.456 343.793C380.315 343.666 380.181 343.539 380.051 343.399C379.996 343.339 379.942 343.272 379.887 343.216C379.683 342.997 379.926 343.089 379.968 343.343C379.945 343.205 379.746 343.002 379.679 342.875C379.643 342.78 379.598 342.689 379.546 342.603C379.565 342.613 379.722 343.092 379.651 342.833C379.599 342.641 379.524 342.453 379.471 342.26C379.418 342.068 379.384 341.846 379.336 341.639C379.254 341.291 379.365 342.118 379.352 341.755C379.352 341.595 379.325 341.435 379.322 341.275C379.314 341.048 379.319 340.821 379.336 340.595C379.334 340.496 379.342 340.398 379.362 340.302C379.362 340.302 379.262 340.798 379.37 340.396C379.427 340.179 379.474 339.961 379.54 339.747C379.567 339.659 379.598 339.573 379.624 339.486C379.793 338.934 379.455 339.806 379.595 339.526C379.764 339.19 379.955 338.892 380.148 338.565C380.31 338.297 379.784 338.923 380.021 338.737C380.072 338.688 380.119 338.635 380.163 338.579C380.244 338.494 380.77 338.041 380.416 338.326C380.063 338.611 380.532 338.28 380.642 338.209C381.078 337.927 380.084 338.382 380.642 338.209C381.174 338.015 381.727 337.882 382.289 337.813C382.205 337.813 381.734 337.862 382.21 337.834C382.337 337.826 382.474 337.815 382.606 337.809C382.859 337.796 383.125 337.795 383.385 337.809C383.512 337.809 383.638 337.818 383.765 337.826C383.855 337.826 384.385 337.911 383.982 337.837C383.628 337.769 383.935 337.829 384.002 337.837C384.173 337.868 384.343 337.9 384.509 337.938C385.157 338.117 385.849 338.03 386.434 337.698C387.018 337.366 387.447 336.816 387.626 336.167C387.804 335.519 387.718 334.826 387.386 334.241C387.054 333.657 386.504 333.228 385.856 333.049C384.563 332.749 383.229 332.664 381.909 332.796C380.511 332.881 379.149 333.27 377.918 333.936C376.865 334.695 375.993 335.677 375.362 336.811C374.732 337.946 374.359 339.205 374.271 340.5C374.182 341.795 374.38 343.094 374.851 344.303C375.321 345.513 376.052 346.604 376.992 347.499C378.532 348.695 380.403 349.385 382.351 349.476C384.298 349.566 386.226 349.053 387.87 348.006C389.191 347.134 390.199 345.862 390.748 344.377C390.924 343.728 390.836 343.036 390.504 342.451C390.171 341.867 389.621 341.438 388.974 341.258C388.326 341.098 387.642 341.194 387.062 341.524C386.482 341.854 386.051 342.394 385.857 343.032L385.867 343.028Z" fill="#211715"/>
<path d="M394.906 385.572C394.821 385.354 394.824 385.383 394.915 385.66C394.979 385.962 394.982 385.965 394.922 385.671C394.909 385.972 394.922 385.972 394.96 385.671C394.932 385.818 394.895 385.963 394.848 386.105C394.974 385.629 394.674 386.402 394.594 386.532C394.831 386.162 394.277 386.871 394.203 386.953C393.982 387.146 393.973 387.16 394.18 386.993C394.054 387.08 393.923 387.16 393.788 387.233C393.524 387.36 393.516 387.373 393.766 387.266C393.621 387.321 393.475 387.369 393.326 387.411C393.102 387.476 392.875 387.525 392.644 387.558C393.208 387.481 392.264 387.543 392.154 387.54C390.993 387.401 389.865 387.067 388.815 386.552C387.693 386.071 386.627 385.469 385.635 384.757C386.005 385.043 385.303 384.444 385.239 384.376C385.174 384.309 384.605 383.631 384.848 383.975C384.672 383.729 384.548 383.468 384.396 383.204C384.305 383.015 384.319 383.05 384.438 383.31C384.404 383.206 384.374 383.101 384.35 382.994C384.301 382.72 384.303 382.768 384.362 383.137C384.35 383.01 384.343 382.883 384.34 382.757C384.339 382.491 384.351 382.225 384.376 381.961C384.321 382.631 384.426 381.791 384.466 381.646C384.526 381.422 384.881 380.849 384.538 381.372C384.928 380.779 384.32 381.478 384.609 381.222C385.135 380.758 384.208 381.424 384.789 381.061C384.891 380.997 385.691 380.602 385.135 380.824C385.398 380.718 385.669 380.664 385.937 380.579C386.229 380.527 386.208 380.523 385.876 380.569C386.01 380.554 386.147 380.542 386.283 380.536C386.552 380.524 386.816 380.546 387.085 380.554C386.417 380.536 387.187 380.578 387.361 380.622C387.509 380.659 388.282 380.944 387.614 380.659C388.199 380.979 388.884 381.064 389.528 380.895C390.173 380.726 390.729 380.316 391.081 379.75C391.413 379.168 391.504 378.478 391.334 377.83C391.164 377.181 390.747 376.625 390.172 376.281C388.886 375.671 387.466 375.4 386.046 375.492C384.626 375.584 383.252 376.037 382.056 376.808C380.835 377.632 379.956 378.873 379.584 380.299C379.208 381.644 379.176 383.062 379.489 384.423C380.229 387.372 383.006 389.338 385.579 390.599C388.435 391.993 391.708 393.273 394.901 392.227C396.66 391.661 398.153 390.474 399.102 388.888C399.629 388.005 399.923 387.002 399.956 385.974C399.989 384.947 399.76 383.927 399.291 383.013C398.95 382.434 398.394 382.014 397.745 381.844C397.096 381.673 396.406 381.766 395.824 382.102C395.258 382.454 394.847 383.01 394.678 383.656C394.509 384.301 394.594 384.987 394.915 385.572H394.906Z" fill="#211715"/>
<path d="M422.813 375.178C422.86 375.167 423.377 375.065 423.377 375.065C423.377 375.106 422.882 375.091 423.188 375.103C423.315 375.103 423.449 375.091 423.578 375.091C423.708 375.091 424.237 375.186 423.924 375.101C423.589 375.009 423.917 375.11 423.97 375.126C424.097 375.165 424.223 375.207 424.35 375.239C423.951 375.136 424.213 375.207 424.446 375.33C424.381 375.296 424.032 374.993 424.41 375.311C424.431 375.33 424.687 375.58 424.496 375.377C424.344 375.215 424.666 375.686 424.733 375.774C424.889 375.979 424.733 375.753 424.711 375.682C424.764 375.823 424.811 375.968 424.852 376.113C424.899 376.283 424.971 376.781 424.928 376.338C424.955 376.605 424.964 376.874 424.957 377.143C424.957 377.257 424.88 377.85 424.927 377.608C424.986 377.304 424.894 377.718 424.887 377.746C424.844 377.909 424.809 378.074 424.761 378.237C424.692 378.48 424.609 378.719 424.524 378.958C424.351 379.433 424.443 379.159 424.488 379.055C424.438 379.171 424.382 379.286 424.327 379.401C424.088 379.898 423.82 380.382 423.546 380.862C423.285 381.313 423.016 381.762 422.73 382.199C422.599 382.399 422.465 382.597 422.327 382.792C422.257 382.888 422.189 382.987 422.115 383.081C422.277 382.872 422.18 382.997 422.066 383.124C421.882 383.329 421.701 383.536 421.503 383.73C421.419 383.812 421.332 383.891 421.25 383.972C421.237 383.985 420.947 384.245 421.145 384.076C421.342 383.907 421.044 384.151 421.025 384.163C420.925 384.231 420.825 384.29 420.723 384.36C420.62 384.43 420.506 384.487 420.396 384.545C420.285 384.603 420.059 384.672 420.31 384.591C420.183 384.636 420.042 384.668 419.913 384.717C419.728 384.781 419.709 384.66 419.913 384.726C420.137 384.799 420.059 384.726 419.895 384.71C419.804 384.71 419.708 384.71 419.617 384.71C419.521 384.719 419.425 384.712 419.331 384.691C419.331 384.691 419.822 384.796 419.524 384.709C419.278 384.638 419.01 384.559 418.764 384.506C418.495 384.449 418.882 384.569 418.916 384.586C418.831 384.545 418.744 384.507 418.662 384.459C418.581 384.411 418.064 384.17 418.386 384.322C418.633 384.439 418.461 384.398 418.386 384.305C418.327 384.234 418.263 384.167 418.195 384.104C417.99 383.929 418.195 384.104 418.234 384.169C418.132 384.016 418.034 383.863 417.945 383.703C417.895 383.608 417.849 383.512 417.8 383.417C417.902 383.616 417.897 383.693 417.828 383.438C417.764 383.208 417.713 382.975 417.656 382.743C417.587 382.457 417.678 382.882 417.679 382.912C417.679 382.778 417.659 382.642 417.654 382.508C417.647 382.239 417.653 381.969 417.674 381.701C417.674 381.601 417.694 381.5 417.702 381.4C417.727 381.033 417.613 381.838 417.693 381.481C417.744 381.258 417.777 381.031 417.826 380.807C417.935 380.325 418.071 379.851 418.214 379.38C418.386 378.731 418.296 378.041 417.965 377.458C417.633 376.875 417.085 376.445 416.44 376.262C415.792 376.097 415.105 376.19 414.524 376.521C413.943 376.852 413.512 377.395 413.322 378.036C412.341 380.6 412.376 383.441 413.418 385.98C414.114 387.315 415.218 388.393 416.57 389.057C417.921 389.721 419.449 389.935 420.93 389.67C424.017 389.163 426.185 386.368 427.681 383.853C429.293 381.148 430.583 378.077 429.774 374.885C429.569 374.004 429.178 373.177 428.627 372.46C428.076 371.743 427.378 371.152 426.58 370.726C424.981 369.996 423.179 369.844 421.48 370.297C420.835 370.48 420.287 370.909 419.955 371.493C419.623 372.077 419.534 372.767 419.706 373.416C419.897 374.057 420.327 374.6 420.908 374.93C421.489 375.261 422.175 375.354 422.823 375.191L422.813 375.178Z" fill="#211715"/>
<path d="M496.037 381.713C499.147 385.844 500.135 391.193 500.362 396.252C500.504 401.555 500.187 406.86 499.416 412.109L501.95 409.574C499.683 409.813 497.414 410.044 495.146 410.283C494.48 410.302 493.846 410.575 493.375 411.047C492.904 411.518 492.631 412.152 492.612 412.819C492.616 413.489 492.885 414.132 493.359 414.606C493.833 415.08 494.475 415.349 495.146 415.354C497.414 415.114 499.683 414.883 501.95 414.644C502.613 414.617 503.243 414.342 503.712 413.872C504.182 413.402 504.457 412.773 504.484 412.109C505.326 406.503 505.623 400.83 505.371 395.167C505.007 389.637 503.815 383.672 500.413 379.154C500.06 378.589 499.504 378.18 498.86 378.011C498.216 377.842 497.531 377.925 496.946 378.244C496.369 378.587 495.951 379.143 495.78 379.792C495.61 380.441 495.702 381.132 496.037 381.713Z" fill="#211715"/>
<path d="M494.756 402.986C494.739 402.689 494.618 402.407 494.414 402.19C494.21 401.973 493.936 401.835 493.641 401.8C490.751 401.461 488.964 401.117 486.016 401.014L485.969 401.022C484.803 402.136 483.53 403.142 482.256 404.136C481.624 404.687 480.905 405.131 480.129 405.449C479.301 405.702 478.425 405.761 477.571 405.619C475.657 405.318 473.868 404.479 472.412 403.201L471.551 403.339C471.356 404.46 470.857 407.41 470.348 410.183C470.289 410.505 470.356 410.837 470.536 411.11C470.716 411.383 470.994 411.576 471.313 411.649C478.376 413.098 485.54 413.998 492.741 414.34C493.042 414.349 493.336 414.251 493.571 414.063C493.805 413.875 493.966 413.609 494.023 413.314C494.68 409.913 494.925 406.446 494.756 402.986Z" fill="#211715"/>
<path d="M486.016 403.549C488.142 403.634 490.237 403.905 492.351 404.175L493.198 404.282C492.972 404.223 492.765 404.107 492.599 403.943C492.432 403.78 492.311 403.575 492.248 403.35C492.105 403.528 492.289 404.629 492.289 404.883C492.289 405.979 492.249 407.075 492.171 408.169C492.099 409.168 492.005 410.167 491.849 411.156C491.793 411.517 491.679 411.916 491.655 412.28C491.418 413.057 491.781 412.898 492.746 411.802C492.556 411.802 492.366 411.792 492.176 411.784C490.417 411.723 488.663 411.586 486.911 411.42C483.232 411.073 479.569 410.587 475.923 409.963C475.078 409.817 474.233 409.661 473.389 409.495C473.016 409.391 472.638 409.312 472.255 409.259C471.533 409.04 471.739 409.425 472.872 410.415C472.925 410.123 472.978 409.83 473.03 409.537C473.361 407.696 473.675 405.853 473.994 404.012C474.154 403.364 474.059 402.679 473.729 402.099C473.399 401.519 472.859 401.087 472.22 400.894C471.572 400.721 470.882 400.81 470.299 401.142C469.715 401.474 469.286 402.022 469.104 402.668C468.784 404.51 468.47 406.353 468.139 408.192C467.71 409.466 467.733 410.849 468.203 412.109C468.476 412.626 468.86 413.077 469.326 413.43C469.793 413.783 470.331 414.03 470.903 414.152C474.595 414.979 478.333 415.584 482.098 415.962C484.049 416.208 486.006 416.422 487.966 416.596C489.645 416.818 491.34 416.902 493.034 416.849C495.893 416.619 496.505 414.094 496.835 411.725C497.166 409.461 497.336 407.176 497.342 404.888C497.474 403.612 497.274 402.323 496.763 401.147C496.399 400.582 495.904 400.114 495.319 399.783C494.735 399.452 494.079 399.267 493.407 399.246C490.943 398.937 488.49 398.585 486.006 398.485C482.744 398.359 482.751 403.429 486.006 403.555L486.016 403.549Z" fill="#211715"/>
<path d="M483.202 382.674C483.966 382.835 484.687 383.157 485.316 383.62C485.945 384.083 486.468 384.676 486.849 385.358C487.898 386.777 488.52 388.466 488.642 390.227C488.962 393.991 488.988 397.774 488.721 401.543C488.721 402.215 488.988 402.86 489.463 403.335C489.938 403.811 490.583 404.078 491.255 404.078C491.927 404.078 492.571 403.811 493.047 403.335C493.522 402.86 493.789 402.215 493.789 401.543C494.151 397.231 494.059 392.893 493.515 388.6C493.14 386.199 492.156 383.935 490.657 382.024C489.163 380.063 487.097 378.13 484.549 377.785C483.901 377.63 483.218 377.726 482.639 378.056C482.06 378.386 481.629 378.923 481.432 379.56C481.258 380.209 481.346 380.9 481.678 381.484C482.01 382.068 482.559 382.497 483.205 382.679L483.202 382.674Z" fill="#211715"/>
<path d="M477.093 413.634L472.693 422.743C472.508 423.081 472.4 423.455 472.378 423.84C472.356 424.224 472.42 424.609 472.565 424.966C472.71 425.322 472.932 425.642 473.216 425.902C473.501 426.162 473.839 426.355 474.207 426.467C482.768 430.076 493.202 431.068 502.121 428.078C503.476 427.731 504.743 427.103 505.839 426.234C507.19 424.93 506.497 423.165 506.121 421.608C505.315 418.275 504.448 414.943 503.864 411.562C503.682 410.916 503.253 410.368 502.67 410.035C502.086 409.703 501.396 409.614 500.747 409.788C500.107 409.979 499.565 410.41 499.234 410.991C498.904 411.572 498.81 412.258 498.973 412.906C499.674 416.962 500.788 420.937 501.704 424.948V423.599L501.684 423.674L502.335 422.554C502.842 422.018 502.259 422.554 501.976 422.698C501.74 422.814 501.498 422.916 501.25 423.006C500.384 423.319 499.497 423.573 498.596 423.766C496.128 424.342 493.605 424.651 491.071 424.689C485.737 424.745 480.45 423.683 475.55 421.572L477.064 425.296L481.466 416.193C482.879 413.267 478.51 410.693 477.09 413.634H477.093Z" fill="#211715"/>
<path d="M471.341 440.988C471.24 440.844 471.171 440.664 471.066 440.525C470.987 440.356 471.017 440.427 471.157 440.738C471.117 440.625 471.08 440.51 471.047 440.395C470.997 440.215 470.961 440.031 470.92 439.847C470.794 439.254 470.92 440.371 470.92 439.764C470.92 439.58 470.92 439.383 470.92 439.203C470.943 438.914 470.931 438.961 470.884 439.348C470.896 439.265 470.913 439.182 470.934 439.101C471.166 438.521 470.639 439.415 470.934 439.069C471.035 438.95 471.411 438.542 470.986 438.968C471.113 438.841 471.249 438.704 471.375 438.572C471.743 438.192 471.012 438.758 471.439 438.53C471.627 438.441 471.809 438.339 471.985 438.227C472.154 438.147 472.087 438.175 471.785 438.312C471.895 438.272 472.005 438.235 472.117 438.203C472.283 438.152 472.452 438.113 472.623 438.085C472.623 438.104 472.018 438.126 472.623 438.103C472.789 438.103 472.954 438.103 473.119 438.111C473.607 438.111 472.574 437.929 473.158 438.131C473.256 438.165 473.747 438.372 473.368 438.174C472.962 437.961 473.528 438.278 473.596 438.322C473.866 438.496 474.124 438.686 474.405 438.845C475.292 439.326 476.218 439.731 477.173 440.056C479.039 440.712 480.976 441.147 482.943 441.351L481.665 441.004C482.045 441.229 481.56 440.857 481.481 440.78C481.359 440.603 481.356 440.603 481.47 440.78L481.343 440.461C481.485 440.926 481.385 440.066 481.353 440.334C481.365 440.474 481.365 440.615 481.353 440.755C481.337 440.755 481.506 440.129 481.337 440.691C481.292 440.838 481.244 440.985 481.21 441.134C481.083 441.582 481.366 440.88 481.218 441.134C481.139 441.261 481.082 441.413 481.008 441.548C480.923 441.678 480.844 441.811 480.772 441.949C480.664 442.202 481.112 441.632 480.722 442.006C480.675 442.051 480.269 442.456 480.521 442.223C480.773 441.989 480.298 442.37 480.267 442.386C480.119 442.477 479.957 442.546 479.809 442.64C479.515 442.814 480.328 442.489 479.734 442.662C479.403 442.771 479.064 442.856 478.72 442.916C478.994 442.877 478.682 442.916 478.58 442.916C478.306 442.925 478.036 442.934 477.762 442.926C477.58 442.926 477.397 442.91 477.216 442.896C477.226 442.896 476.41 442.808 476.799 442.861C476.005 442.752 475.209 442.593 474.43 442.405C474.05 442.311 473.659 442.206 473.281 442.081C473.092 442.019 472.901 441.954 472.722 441.88C473.139 442.043 472.652 441.838 472.573 441.798C472.397 441.708 472.224 441.614 472.057 441.511C472.009 441.482 471.511 441.131 471.73 441.305C471.949 441.479 471.487 441.072 471.446 441.03C471.279 440.856 471.121 440.673 470.974 440.481C470.498 440.006 469.854 439.739 469.182 439.739C468.51 439.739 467.866 440.006 467.391 440.481C466.933 440.966 466.678 441.607 466.678 442.274C466.678 442.941 466.933 443.582 467.391 444.067C468.755 445.626 470.577 446.714 472.597 447.174C474.571 447.774 476.631 448.044 478.694 447.975C480.788 447.908 482.782 447.06 484.284 445.598C485.56 444.231 486.314 442.459 486.414 440.591C486.441 439.712 486.213 438.844 485.757 438.092C485.408 437.535 484.935 437.066 484.374 436.724C484.139 436.571 483.882 436.453 483.613 436.374C483.33 436.331 483.045 436.294 482.759 436.264C482.474 436.233 482.51 436.239 482.868 436.279C482.171 436.227 481.483 436.088 480.82 435.865C479.972 435.656 479.136 435.4 478.317 435.098C478.154 435.037 477.993 434.971 477.83 434.909C477.449 434.766 478.36 435.17 477.788 434.889C477.484 434.739 477.178 434.597 476.883 434.427C476.252 434.003 475.578 433.645 474.874 433.359C473.37 432.875 471.747 432.92 470.273 433.486C469.269 433.816 468.36 434.384 467.622 435.14C466.883 435.897 466.338 436.82 466.032 437.832C465.581 439.786 465.92 441.84 466.974 443.546C467.142 443.833 467.365 444.085 467.63 444.286C467.895 444.487 468.197 444.635 468.519 444.719C468.841 444.803 469.176 444.824 469.506 444.778C469.836 444.733 470.154 444.623 470.441 444.455C470.728 444.287 470.98 444.064 471.181 443.799C471.382 443.534 471.529 443.231 471.614 442.909C471.698 442.587 471.718 442.252 471.673 441.922C471.628 441.592 471.518 441.274 471.35 440.987L471.341 440.988Z" fill="#211715"/>
<path d="M502.705 442.569C502.728 442.569 502.386 442.655 502.383 442.645C502.356 442.538 502.954 442.623 502.527 442.6C502.401 442.593 502.274 442.593 502.147 442.589C501.6 442.571 502.251 442.579 502.245 442.603C501.956 442.543 501.671 442.464 501.392 442.367C501.054 442.268 501.758 442.583 501.471 442.394C501.419 442.361 501.079 442.235 501.073 442.166C501.073 442.166 501.44 442.528 501.183 442.247L500.902 441.945C501.155 442.224 500.915 441.963 500.869 441.887C500.79 441.76 500.717 441.633 500.638 441.5C500.399 441.105 500.589 441.406 500.628 441.519C500.583 441.392 500.537 441.266 500.501 441.127C500.454 441.001 500.424 440.869 500.412 440.734C500.451 441.082 500.458 441.111 500.432 440.822V440.627C500.432 440.5 500.439 440.373 500.441 440.246C500.441 439.715 500.466 440.34 500.418 440.352C500.45 440.344 500.578 439.681 500.598 439.617C500.625 439.493 500.667 439.374 500.725 439.262C500.494 439.504 500.571 439.575 500.689 439.355C500.816 439.116 500.942 438.875 501.087 438.644C501.309 438.278 501.557 437.927 501.828 437.596C501.409 438.09 501.91 437.502 502.018 437.372C502.234 437.109 502.451 436.852 502.672 436.596C503.45 435.696 504.259 434.825 505.1 433.982C505.282 433.799 505.466 433.617 505.652 433.437C505.749 433.341 506.032 432.959 506.173 432.942C506.159 432.942 505.679 433.268 506.105 433.033C506.033 433.072 505.575 433.221 505.99 433.122L505.661 433.17H505.836C506.066 433.186 506.073 433.184 505.856 433.162C505.639 433.141 505.646 433.139 505.877 433.188C505.99 433.231 506.121 433.267 506.235 433.304C506.132 433.271 505.781 433.051 506.152 433.288C506.313 433.389 506.871 433.821 506.44 433.43C506.626 433.6 506.802 433.769 506.978 433.948C506.9 433.868 506.714 433.51 506.952 433.927C506.984 433.982 507.271 434.502 507.124 434.2C506.963 433.871 507.215 434.502 507.217 434.51C507.256 434.65 507.281 434.792 507.316 434.934C507.29 434.83 507.29 434.427 507.305 434.915C507.305 435.064 507.318 435.208 507.317 435.356C507.316 435.505 507.304 435.65 507.296 435.797C507.289 435.945 507.17 436.211 507.296 435.778C507.194 436.127 507.136 436.486 507.022 436.833C506.971 436.988 506.909 437.137 506.857 437.291C506.773 437.544 506.984 437.069 506.777 437.467C506.592 437.831 506.415 438.194 506.216 438.551C505.857 439.197 505.48 439.835 505.068 440.452C504.982 440.579 504.896 440.705 504.807 440.832C504.7 440.98 504.489 441.228 504.719 440.959C504.481 441.25 504.228 441.529 503.959 441.793C503.85 441.897 503.731 441.991 503.625 442.096C503.966 441.761 503.498 442.186 503.412 442.239C503.276 442.325 503.137 442.4 502.998 442.479C502.548 442.732 503.251 442.41 502.71 442.588C502.062 442.766 501.511 443.195 501.18 443.78C500.848 444.365 500.762 445.058 500.941 445.706C501.119 446.355 501.548 446.905 502.133 447.237C502.717 447.569 503.41 447.655 504.058 447.476C507.859 446.209 510.226 442.428 511.66 438.875C513.122 435.25 512.294 430.684 508.542 428.834C507.643 428.315 506.609 428.078 505.574 428.153C504.539 428.228 503.551 428.611 502.735 429.253C501.629 430.221 500.597 431.27 499.649 432.393C497.587 434.693 495.449 437.198 495.371 440.453C495.353 441.515 495.567 442.567 495.999 443.537C496.431 444.507 497.071 445.37 497.872 446.066C498.726 446.762 499.728 447.251 500.801 447.496C501.875 447.741 502.99 447.734 504.061 447.476C504.709 447.298 505.259 446.869 505.591 446.284C505.923 445.699 506.009 445.006 505.83 444.358C505.651 443.709 505.222 443.159 504.638 442.827C504.053 442.495 503.36 442.409 502.712 442.588L502.705 442.569Z" fill="#211715"/>
<path d="M484.418 441.089C485.07 440.656 485.564 440.023 485.827 439.286C486.207 438.502 486.568 437.706 486.927 436.91C487.838 434.89 488.723 432.854 489.615 430.826C489.955 430.053 490.292 429.279 490.644 428.512C490.967 427.927 491.053 427.241 490.884 426.595C490.715 425.949 490.304 425.393 489.736 425.043C489.153 424.711 488.465 424.621 487.816 424.791C487.168 424.961 486.613 425.378 486.268 425.953C484.707 429.353 483.294 432.823 481.698 436.208C481.547 436.528 481.396 436.842 481.233 437.16C481.181 437.261 481.12 437.359 481.069 437.46C481.048 437.488 481.03 437.518 481.014 437.549C481.219 437.201 481.511 436.911 481.86 436.708C481.283 437.05 480.864 437.606 480.694 438.255C480.524 438.904 480.616 439.594 480.951 440.176C481.302 440.744 481.857 441.156 482.503 441.325C483.148 441.494 483.834 441.409 484.418 441.086V441.089Z" fill="#211715"/>
<path d="M475.655 424.767C474.565 428.005 473.718 431.319 473.121 434.682C472.96 435.342 473.051 436.038 473.375 436.635C473.626 437.066 473.999 437.413 474.447 437.632C474.894 437.852 475.397 437.935 475.891 437.87C476.386 437.805 476.85 437.596 477.226 437.269C477.602 436.941 477.873 436.51 478.006 436.029C478.603 432.667 479.45 429.353 480.54 426.116C480.714 425.467 480.625 424.776 480.293 424.192C479.961 423.608 479.412 423.179 478.766 422.997C478.118 422.835 477.432 422.929 476.851 423.259C476.271 423.589 475.84 424.131 475.648 424.771L475.655 424.767Z" fill="#211715"/>
<path d="M489.61 430.474C491.248 432.382 493.027 434.164 494.932 435.806C495.732 436.507 496.555 437.182 497.405 437.819C497.833 438.238 498.384 438.507 498.977 438.589C499.57 438.671 500.174 438.56 500.699 438.273C501.257 437.925 501.671 437.387 501.865 436.758C502.04 436.099 501.949 435.397 501.611 434.805C501.267 434.23 500.711 433.813 500.064 433.643C499.416 433.473 498.727 433.563 498.145 433.895L498.75 433.641H498.743L499.417 433.551H499.408L500.081 433.641C500.061 433.638 500.042 433.633 500.024 433.625L500.629 433.878C500.316 433.711 500.022 433.509 499.754 433.275L500.267 433.672C497.683 431.658 495.313 429.384 493.195 426.884C492.719 426.409 492.075 426.142 491.403 426.142C490.731 426.142 490.087 426.409 489.611 426.884C489.152 427.368 488.896 428.009 488.896 428.677C488.896 429.344 489.152 429.985 489.611 430.469L489.61 430.474Z" fill="#211715"/>
<path d="M507.209 427.631C506.91 427.286 506.619 426.935 506.339 426.574L506.735 427.081C506.189 426.372 505.692 425.627 505.196 424.883C504.851 424.322 504.312 423.908 503.682 423.718C503.354 423.612 503.004 423.597 502.668 423.674C502.333 423.688 502.007 423.792 501.725 423.974C501.145 424.313 500.724 424.869 500.553 425.52C500.383 426.17 500.478 426.862 500.817 427.442C501.671 428.756 502.607 430.015 503.622 431.209C504.106 431.668 504.747 431.924 505.414 431.924C506.08 431.924 506.722 431.668 507.205 431.209C507.679 430.733 507.946 430.089 507.948 429.417L507.858 428.742C507.741 428.319 507.516 427.934 507.205 427.624L507.209 427.631Z" fill="#211715"/>
<path d="M476.973 363.792C475.3 367.16 475.01 371.05 476.165 374.629C476.697 376.279 477.651 377.76 478.932 378.927C480.213 380.094 481.776 380.905 483.468 381.281C484.116 381.443 484.801 381.349 485.382 381.019C485.962 380.688 486.393 380.147 486.585 379.507C486.755 378.858 486.665 378.169 486.333 377.586C486.002 377.003 485.455 376.573 484.811 376.388C484.541 376.344 484.273 376.283 484.01 376.207C483.883 376.168 483.757 376.113 483.621 376.08C484.113 376.22 483.705 376.116 483.569 376.047C483.324 375.924 483.086 375.785 482.857 375.633C482.811 375.603 482.453 375.341 482.695 375.529C482.937 375.717 482.592 375.434 482.552 375.402C482.319 375.194 482.11 374.968 481.894 374.741C481.717 374.553 481.767 374.589 481.894 374.77C481.813 374.658 481.732 374.547 481.656 374.431C481.488 374.174 481.335 373.907 481.197 373.633C481.128 373.496 481.06 373.357 481 373.216C481.144 373.552 481.024 373.242 480.964 373.069C480.865 372.777 480.781 372.482 480.711 372.182C480.675 372.031 480.644 371.88 480.614 371.728C480.604 371.678 480.527 371.203 480.568 371.492C480.608 371.781 480.552 371.303 480.549 371.252C480.536 371.098 480.526 370.944 480.519 370.79C480.504 370.427 480.504 370.066 480.519 369.704C480.528 369.535 480.542 369.368 480.555 369.197C480.568 369.025 480.604 368.843 480.555 369.118C480.609 368.785 480.674 368.454 480.753 368.125C480.842 367.758 480.949 367.393 481.071 367.035C481.125 366.876 481.19 366.72 481.243 366.56C481.385 366.137 481.01 367.067 481.333 366.355C481.656 365.77 481.742 365.084 481.573 364.438C481.404 363.792 480.992 363.236 480.424 362.885C479.842 362.554 479.153 362.463 478.505 362.634C477.857 362.804 477.301 363.221 476.957 363.796L476.973 363.792Z" fill="#211715"/>
<path d="M504.749 365.691C504.18 363.044 502.835 360.628 500.885 358.751C498.936 356.874 496.471 355.621 493.807 355.154C490.087 354.347 486.201 354.919 482.871 356.763C479.992 358.513 477.813 361.212 476.71 364.396C476.534 365.045 476.622 365.737 476.954 366.321C477.287 366.905 477.836 367.334 478.483 367.514C479.033 367.601 479.555 367.819 480.004 368.148C480.653 368.543 481.261 369.002 481.819 369.517C482.911 370.311 483.739 371.415 484.195 372.686C484.509 374.613 484.442 376.583 483.996 378.484C483.758 379.579 483.921 380.724 484.456 381.709C484.991 382.694 485.862 383.454 486.91 383.85C489.571 385.071 492.243 384.649 495.004 383.958C498.331 383.127 502.742 382.086 504.308 378.623C506.081 374.694 505.674 369.759 504.76 365.694C504.047 362.513 499.159 363.859 499.873 367.043C500.276 368.783 500.463 370.566 500.431 372.351C500.42 372.858 500.349 373.841 500.323 374.041C500.282 374.335 500.059 375.381 499.914 375.933C499.85 376.222 499.741 376.498 499.591 376.752C499.546 376.793 499.498 376.83 499.449 376.865C498.839 377.325 498.177 377.711 497.477 378.015C497.756 377.888 497.277 378.086 497.187 378.114C496.689 378.271 496.181 378.397 495.679 378.537C494.847 378.766 494.013 378.992 493.174 379.192C492.201 379.474 491.192 379.616 490.178 379.613C489.568 379.631 490.411 379.731 490.032 379.613C489.843 379.552 489.632 379.502 489.439 379.456C488.959 379.339 489.511 379.503 489.386 379.442C489.216 379.323 489.027 379.232 488.827 379.173C488.274 379.142 489.155 379.448 488.946 379.591C489.143 378.815 489.244 378.017 489.247 377.216C489.396 376.209 489.469 375.192 489.465 374.174C489.479 372.322 488.973 370.503 488.004 368.924C486.211 366.225 483.1 363.315 479.838 362.633L481.612 365.751C483.48 361.054 488.327 359.05 493.238 360.211C495.237 360.585 497.032 361.674 498.288 363.275C498.087 363.008 498.344 363.371 498.415 363.474C498.521 363.647 498.634 363.817 498.737 363.993C498.863 364.199 498.966 364.41 499.075 364.627C499.103 364.68 499.362 365.246 499.236 364.954C499.109 364.663 499.337 365.218 499.362 365.275C499.435 365.478 499.506 365.68 499.57 365.887C499.697 366.267 499.795 366.661 499.888 367.053C500.622 370.211 505.51 368.868 504.749 365.691Z" fill="#211715"/>
<path d="M482.848 379.962C480.991 380.893 479.442 382.342 478.39 384.134C477.69 385.204 477.039 386.303 476.437 387.43C476.136 387.994 475.847 388.564 475.57 389.14C475.444 389.393 475.328 389.653 475.209 389.912C475.159 390.018 474.729 390.789 475.197 390.336C474.681 390.673 474.118 390.929 473.525 391.097C472.754 391.435 471.981 391.769 471.207 392.099C469.764 392.723 468.317 393.34 466.879 393.975C466.4 394.261 466.027 394.695 465.816 395.212C465.606 395.728 465.57 396.3 465.714 396.839C466.254 399.243 467.376 401.477 468.982 403.345C470.587 405.213 472.627 406.658 474.922 407.552C476.167 408.077 477.519 408.298 478.867 408.197C480.214 408.095 481.518 407.674 482.671 406.968C485.049 405.386 487.22 403.512 489.133 401.39C489.593 400.908 489.85 400.266 489.85 399.598C489.85 398.931 489.593 398.289 489.133 397.806C488.654 397.336 488.011 397.073 487.34 397.073C486.67 397.073 486.027 397.336 485.548 397.806C484.023 399.497 482.319 401.019 480.466 402.344C479.87 402.791 479.159 403.059 478.416 403.117C477.673 403.174 476.929 403.019 476.271 402.668C474.828 402.004 473.562 401.009 472.577 399.762C471.592 398.515 470.915 397.053 470.602 395.495L469.438 398.359C470.832 397.744 472.226 397.146 473.627 396.542C475.045 396.033 476.425 395.424 477.756 394.718C478.771 393.954 479.534 392.904 479.948 391.703C480.5 390.551 481.103 389.424 481.755 388.322C482.08 387.774 482.418 387.231 482.768 386.695C482.895 386.498 483.022 386.302 483.162 386.11C483.37 385.819 482.92 386.396 483.209 386.052C483.793 385.311 484.548 384.724 485.41 384.341C485.987 383.999 486.406 383.443 486.576 382.793C486.746 382.144 486.653 381.454 486.319 380.873C485.968 380.305 485.413 379.893 484.767 379.724C484.122 379.555 483.436 379.64 482.852 379.963L482.848 379.962Z" fill="#211715"/>
<path d="M470.608 392.189C470.429 392.206 470.25 392.211 470.072 392.203C469.973 392.203 469.874 392.196 469.775 392.181C470.197 392.241 470.267 392.246 469.984 392.193C469.87 392.158 469.404 392.108 469.351 392.001C469.688 392.148 469.731 392.16 469.477 392.037C469.373 391.981 469.271 391.919 469.172 391.852C469.438 392.074 469.466 392.093 469.253 391.911C469.181 391.846 469.113 391.776 469.05 391.703C469.281 392.016 469.318 392.06 469.161 391.83C469.098 391.734 469.034 391.637 468.987 391.535C468.86 391.288 468.878 391.329 469.02 391.655C468.976 391.541 468.936 391.425 468.902 391.307C468.868 391.189 468.838 391.069 468.813 390.947C468.853 391.315 468.861 391.355 468.836 391.068C468.844 390.829 468.836 390.59 468.849 390.35C468.854 390.24 468.862 390.13 468.872 390.02C468.901 389.737 468.889 389.807 468.837 390.226C468.896 390.037 468.939 389.843 468.964 389.647C468.992 389.553 469.022 389.461 469.058 389.369C468.889 389.744 468.864 389.81 468.983 389.566C469.093 389.383 469.2 389.201 469.313 389.019C469.47 388.804 469.445 388.835 469.238 389.112C469.315 389.018 469.394 388.926 469.475 388.834C469.627 388.663 469.785 388.496 469.95 388.337C470.03 388.261 470.111 388.188 470.193 388.116C470.402 387.942 470.357 387.973 470.058 388.209C470.184 388.283 470.945 387.521 471.178 387.563C470.833 387.708 470.791 387.729 471.051 387.629C471.165 387.588 471.28 387.552 471.397 387.516C471.596 387.457 471.798 387.416 472 387.365C472.275 387.318 472.212 387.325 471.811 387.382C471.923 387.37 472.034 387.361 472.147 387.355C472.379 387.344 472.608 387.355 472.84 387.365C473.122 387.393 473.077 387.386 472.703 387.345C472.83 387.369 472.945 387.396 473.064 387.427C473.183 387.459 473.309 387.498 473.429 387.54C473.691 387.639 473.672 387.631 473.371 387.515C473.577 387.515 473.884 387.817 474.056 387.92C474.278 388.081 474.241 388.047 473.946 387.829C474.032 387.899 474.116 387.972 474.2 388.048C474.363 388.198 474.506 388.363 474.657 388.524C474.826 388.734 474.795 388.692 474.563 388.397C474.626 388.486 474.69 388.577 474.744 388.67C474.859 388.856 474.963 389.049 475.056 389.248C474.913 388.894 474.89 388.844 474.988 389.102C475.024 389.207 475.059 389.312 475.089 389.42C475.165 389.634 475.213 389.857 475.232 390.083C475.183 389.693 475.172 389.641 475.198 389.927C475.198 390.045 475.208 390.163 475.208 390.281C475.208 390.953 475.475 391.598 475.95 392.073C476.425 392.549 477.07 392.816 477.742 392.816C478.414 392.816 479.059 392.549 479.534 392.073C480.009 391.598 480.276 390.953 480.276 390.281C480.279 389.066 480.005 387.866 479.473 386.773C478.941 385.681 478.166 384.725 477.207 383.979C476.249 383.232 475.133 382.715 473.943 382.467C472.754 382.22 471.524 382.247 470.348 382.549C468.125 383.146 466.199 384.539 464.935 386.463C464.32 387.423 463.928 388.51 463.788 389.642C463.648 390.775 463.764 391.924 464.127 393.006C464.6 394.414 465.561 395.607 466.836 396.37C467.976 397.03 469.286 397.338 470.601 397.257C471.273 397.257 471.918 396.99 472.393 396.515C472.868 396.039 473.135 395.394 473.135 394.722C473.135 394.05 472.868 393.405 472.393 392.929C471.918 392.454 471.273 392.187 470.601 392.187L470.608 392.189Z" fill="#211715"/>
</g>
<defs>
<clipPath id="clip0_3_115">
<rect width="512.334" height="384" fill="white" transform="translate(0 64)"/>
</clipPath>
</defs>
</svg>
