<svg width="156" height="101" viewBox="0 0 156 101" fill="none" xmlns="http://www.w3.org/2000/svg">
<path d="M139.251 40.6945C138.01 40.9991 135.456 42.1705 134.612 42.8265C134.167 43.178 134.566 43.5997 142.812 51.8466C147.592 56.626 151.575 60.4917 151.715 60.4449C152.09 60.3277 153.449 57.9146 153.871 56.6494C154.433 54.8454 154.527 51.542 154.058 49.738C153.004 45.6146 150.075 42.4517 146.069 41.046C144.312 40.4368 140.938 40.2494 139.251 40.6945Z" fill="#CFECE8" stroke="black" stroke-width="1.5"/>
<path d="M131.471 46.2026C130.558 47.6318 129.761 49.7169 129.48 51.3803C129.339 52.2003 129.41 52.2706 135.993 58.8541L142.647 65.5078L144.146 65.2267C145.88 64.8752 148.668 63.6101 149.418 62.8135L149.933 62.2512L141.194 53.5123L132.432 44.75L131.471 46.2026Z" fill="#CFECE8" stroke="black" stroke-width="1.5"/>
<path d="M117.179 68.0627L105.441 81.0188L109.635 85.2125L113.829 89.4062L126.855 77.5982L139.882 65.7902L134.563 60.4719C131.635 57.5199 129.151 55.1301 129.057 55.1301C128.987 55.1301 123.622 60.9639 117.179 68.0627ZM130.744 64.1502L131.541 64.9702L129.807 66.7273L128.073 68.4845L127.3 67.7347C126.879 67.313 126.527 66.8679 126.527 66.7507C126.527 66.493 129.573 63.3302 129.807 63.3302C129.877 63.3302 130.299 63.705 130.744 64.1502Z" fill="white" stroke="black" stroke-width="1.5"/>
<path d="M106.054 86.3802C104.765 88.0905 104.391 89.262 104.391 91.6751C104.391 93.7134 104.461 94.0414 105.14 95.4471C106.054 97.298 107.53 98.7271 109.381 99.594C110.506 100.133 111.044 100.227 112.825 100.227C115.918 100.227 116.925 99.6877 120.65 96.0328C122.267 94.4631 123.86 93.0105 124.141 92.87C124.961 92.4248 126.671 92.5185 127.538 93.0105C128.499 93.5728 129.342 94.838 129.342 95.6814V96.3608H130.982H132.622V95.658C132.622 94.674 131.849 92.7763 131.029 91.722C129.412 89.6837 126.132 88.7934 123.462 89.6837C122.407 90.0351 121.728 90.574 119.127 93.1277C115.754 96.4077 114.723 97.0403 112.802 97.0637C111.185 97.0637 109.334 96.1031 108.397 94.7677C107.835 93.9711 107.671 93.4557 107.6 92.2608C107.483 90.4334 107.6 89.918 108.397 88.7465L109.006 87.8562L107.835 86.7082L106.687 85.5602L106.054 86.3802Z" fill="#CFECE8" stroke="black" stroke-width="1.5"/>
<path d="M19.7721 44.6929C19.5313 44.741 16.1116 48.6905 12.1381 53.4347L4.9375 62.0561L20.8317 75.4218C37.5207 89.4617 38.0746 89.8711 41.2775 90.6417C43.5413 91.1715 59.1465 91.1715 60.9286 90.6417C63.0237 90.0156 64.0352 88.2094 63.4331 86.1624C62.9756 84.5971 61.8196 83.7301 59.2669 82.9595C55.7509 81.924 52.5239 80.6476 51.6329 79.9733C51.1753 79.6361 50.501 78.8414 50.0916 78.1912C49.7063 77.5651 49.2728 77.0353 49.1524 77.0353C49.0561 77.0353 47.7075 77.4206 46.1903 77.8781C44.6731 78.3357 43.2763 78.6488 43.0596 78.5765C42.578 78.3839 42.3131 77.3002 42.6261 76.8185C42.7706 76.6018 44.1192 76.072 45.6364 75.6144L48.4059 74.7956L47.7075 73.2062C47.2981 72.3392 46.9609 71.5927 46.9368 71.5686C46.9128 71.5445 45.6605 71.9058 44.1674 72.3633C41.9518 73.0617 41.3257 73.1821 40.8681 72.9654C40.2179 72.6764 40.0734 71.7372 40.6032 71.2074C40.7959 71.0388 42.0241 70.5572 43.3727 70.1718C45.5642 69.5216 45.805 69.4012 45.6846 68.9677C45.516 68.4379 44.4082 66.1983 44.3119 66.1983C44.2878 66.1983 43.2282 66.5354 41.9759 66.9207C40.7236 67.3061 39.4714 67.6432 39.1824 67.6432C38.0987 67.6432 37.7134 66.2224 38.6767 65.6203C38.9656 65.4517 40.0253 65.0664 41.0126 64.7774C42 64.4884 42.9392 64.1995 43.1078 64.1513C43.469 64.0309 41.5184 59.4071 40.6514 58.2993C39.8085 57.2397 38.8693 57.2638 37.2799 58.3716C33.9084 60.7798 27.9601 60.8761 24.6127 58.5401C22.2044 56.9026 21.482 53.9404 22.4693 49.6538C22.951 47.4623 22.9751 47.2215 22.6379 46.4027C22.1322 45.1986 20.8317 44.428 19.7721 44.6929Z" fill="white" stroke="black" stroke-width="1.5"/>
<path d="M2.86696 65.4796L2 66.4428L2.91512 67.2376C6.14214 70.1033 32.6807 92.4998 33.6199 93.1259C35.2334 94.2578 37.449 95.2451 39.6886 95.8713C41.5189 96.3529 42.1932 96.4011 52.5244 96.4974L63.4096 96.5938V95.1247V93.6557H52.7412C42.8675 93.6557 41.9042 93.6076 40.1944 93.1741C36.7024 92.283 35.98 91.7532 19.4355 77.7133C10.8863 70.4405 3.85433 64.5163 3.80616 64.5163C3.78208 64.5163 3.3486 64.9497 2.86696 65.4796Z" fill="white" stroke="black" stroke-width="1.5"/>
<path d="M78.59 1.55658C77.1973 2.73322 78.1098 5.0625 79.9348 5.0625C81.0154 5.0625 81.9039 4.15 81.9039 3.02138C81.9039 1.22039 79.9588 0.355919 78.59 1.55658Z" fill="#CFECE8" stroke="black" stroke-width="1.5"/>
<path d="M81.9508 6.86719C81.0383 7.77969 81.5665 9.14844 82.8392 9.14844C84.184 9.14844 84.8083 7.39548 83.7277 6.65107C82.9833 6.12278 82.6471 6.1708 81.9508 6.86719Z" fill="#CFECE8" stroke="black" stroke-width="1.5"/>
<path d="M78.1336 10.2014C77.8215 10.6577 77.7974 10.8978 77.9895 11.282C78.5899 12.3626 80.1747 12.0745 80.1747 10.8738C80.1747 9.5771 78.83 9.14486 78.1336 10.2014Z" fill="#CFECE8" stroke="black" stroke-width="1.5"/>
<path d="M74.6768 13.9494C72.3955 14.5017 71.0988 17.0951 72.1074 19.0402L72.4676 19.7126H71.339C68.4574 19.7126 66.8245 22.33 68.1692 24.8034L68.6495 25.7159L67.9291 26.0761C66.1281 27.0126 65.888 29.7261 67.4728 31.3109L68.1692 32.0073L66.8965 33.4001C64.087 36.4978 62.6702 40.0037 62.4541 44.23C62.31 47.5198 62.7903 49.7771 64.2551 52.8507C65.1916 54.8198 65.6478 55.4442 67.5449 57.3172C69.3219 59.0701 70.1383 59.6945 71.7712 60.4869C74.7488 61.9517 76.4057 62.3359 79.8156 62.3359C84.8104 62.3119 88.2202 60.8951 91.8462 57.2932C93.6712 55.4922 94.2235 54.7718 95.112 52.9708C95.6883 51.7701 96.3127 50.1132 96.5048 49.2488C96.6729 48.3843 96.889 47.5919 96.985 47.4958C97.0811 47.3997 98.5459 47.4718 100.251 47.6879C101.956 47.88 103.541 48.0481 103.781 48.0481C104.165 48.0481 104.189 47.5198 104.189 40.2438V32.4395H102.436H100.707L97.9456 27.2287C96.4327 24.3711 94.8238 21.6816 94.4156 21.2494C93.3831 20.1928 91.6781 19.7126 89.0367 19.7126H86.9475L87.3077 18.9682C87.788 18.0316 87.5959 16.2787 86.9715 15.4142C85.8909 13.9734 85.2906 13.8293 80.1758 13.7813C77.6064 13.7573 75.133 13.8293 74.6768 13.9494ZM84.8344 17.1191C85.0265 17.4313 85.0265 17.6714 84.8344 17.9596C84.5942 18.3438 84.0419 18.3918 79.8156 18.4639C74.9409 18.5359 74.4127 18.4399 74.4127 17.5754C74.4127 16.6629 74.8209 16.5909 79.7916 16.6389C84.0419 16.7109 84.5942 16.7589 84.8344 17.1191ZM83.9699 20.2168C84.0419 20.8172 84.0179 20.8412 82.361 20.8172C81.0163 20.7932 80.56 20.8892 80.0077 21.2974C78.9031 22.1139 78.2548 23.2665 78.2548 24.4432C78.2548 26.5083 78.4469 26.7244 85.5308 32.1994C92.8788 37.8665 92.9748 37.9866 93.8633 41.4685C95.8084 49.0567 91.462 56.7889 83.8979 59.1662C81.5446 59.9106 77.8465 59.9106 75.4932 59.1662C67.9531 56.7889 63.5827 49.0326 65.5278 41.4445C66.5603 37.3863 69.4659 33.8563 73.308 31.9593L75.3732 30.9267V25.3557C75.3732 22.306 75.4452 19.7126 75.5413 19.6165C75.6373 19.5445 77.5584 19.4964 79.7916 19.5205L83.8979 19.5925L83.9699 20.2168ZM83.2255 22.8823C83.6577 23.1945 84.0179 23.6027 84.0179 23.8188C84.0179 24.227 82.1689 26.9165 81.8808 26.9165C81.7847 26.9165 81.2564 26.5323 80.7041 26.052C79.8877 25.3557 79.6956 25.0435 79.6956 24.3711C79.6956 22.5701 81.5926 21.7777 83.2255 22.8823Z" fill="white" stroke="black" stroke-width="1.5"/>
<path d="M68.962 44.1095L67.4492 44.4696V45.6223C67.4492 49.2243 69.8505 53.4025 73.1163 55.4677C76.9584 57.917 82.4334 57.917 86.2755 55.4677C88.7969 53.8828 90.838 51.0493 91.6065 48.0716C91.7986 47.2312 91.9427 46.5348 91.8946 46.4868C91.8466 46.4387 91.2223 46.5588 90.5019 46.7509C89.5894 47.015 88.4367 47.0871 86.7798 47.015C84.5946 46.919 83.9703 46.7749 79.9361 45.4062C75.7818 43.9894 75.3255 43.8933 72.9722 43.8213C71.2433 43.7733 69.9706 43.8453 68.962 44.1095Z" fill="#CFECE8" stroke="black" stroke-width="1.5"/>
</svg>
