<svg width="512" height="512" viewBox="0 0 512 512" fill="none" xmlns="http://www.w3.org/2000/svg">
<rect width="512" height="512" fill="white"/>
<g clip-path="url(#clip0_2_4)">
<path d="M457.029 225.768C452.956 226.769 444.574 230.62 441.803 232.776C440.343 233.932 441.653 235.318 468.716 262.426C484.405 278.137 497.477 290.844 497.936 290.69C499.167 290.305 503.627 282.373 505.013 278.214C506.857 272.284 507.166 261.425 505.626 255.495C502.167 241.941 492.554 231.544 479.406 226.923C473.639 224.921 462.566 224.305 457.029 225.768Z" fill="#CFECE8" stroke="black" stroke-width="6"/>
<path d="M431.495 243.874C428.498 248.572 425.882 255.426 424.96 260.894C424.497 263.589 424.73 263.82 446.336 285.461L468.175 307.333L473.095 306.409C478.786 305.253 487.936 301.095 490.398 298.476L492.088 296.628L463.406 267.902L434.649 239.099L431.495 243.874Z" fill="#CFECE8" stroke="black" stroke-width="6"/>
<path d="M384.587 315.731L346.063 358.319L359.828 372.104L373.593 385.89L416.345 347.075L459.1 308.261L441.643 290.779C432.033 281.075 423.88 273.22 423.572 273.22C423.342 273.22 405.734 292.396 384.587 315.731ZM429.108 302.87L431.724 305.565L426.033 311.341L420.342 317.117L417.805 314.653C416.423 313.266 415.268 311.803 415.268 311.418C415.268 310.571 425.265 300.175 426.033 300.175C426.263 300.175 427.648 301.407 429.108 302.87Z" fill="white" stroke="black" stroke-width="6"/>
<path d="M348.075 375.943C343.844 381.565 342.617 385.416 342.617 393.348C342.617 400.048 342.846 401.126 345.075 405.747C348.075 411.831 352.919 416.529 358.994 419.378C362.686 421.15 364.452 421.459 370.297 421.459C380.449 421.459 383.754 419.686 395.979 407.672C401.287 402.512 406.515 397.738 407.437 397.276C410.128 395.812 415.741 396.12 418.586 397.738C421.74 399.586 424.507 403.745 424.507 406.517V408.75H429.89H435.272V406.44C435.272 403.206 432.735 396.968 430.044 393.502C424.737 386.802 413.972 383.875 405.209 386.802C401.746 387.957 399.517 389.728 390.981 398.123C379.911 408.905 376.527 410.984 370.222 411.061C364.915 411.061 358.84 407.903 355.764 403.514C353.92 400.895 353.382 399.201 353.149 395.273C352.765 389.266 353.149 387.572 355.764 383.721L357.763 380.795L353.92 377.021L350.152 373.247L348.075 375.943Z" fill="#CFECE8" stroke="black" stroke-width="6"/>
<path d="M64.8931 238.911C64.1027 239.069 52.8791 252.052 39.8379 267.647L16.2051 295.986L68.3707 339.921C123.145 386.072 124.963 387.418 135.475 389.951C142.905 391.692 194.122 391.692 199.971 389.951C206.847 387.893 210.167 381.956 208.191 375.227C206.689 370.082 202.895 367.232 194.517 364.699C182.977 361.295 172.386 357.099 169.462 354.883C167.96 353.774 165.747 351.162 164.403 349.025C163.139 346.966 161.716 345.225 161.321 345.225C161.005 345.225 156.578 346.491 151.599 347.995C146.619 349.5 142.035 350.529 141.324 350.291C139.743 349.658 138.874 346.096 139.901 344.512C140.375 343.8 144.801 342.058 149.781 340.554L158.871 337.863L156.578 332.638C155.235 329.788 154.128 327.334 154.049 327.255C153.97 327.176 149.86 328.364 144.96 329.867C137.688 332.163 135.633 332.559 134.131 331.847C131.997 330.897 131.523 327.809 133.262 326.068C133.894 325.514 137.925 323.931 142.351 322.664C149.544 320.526 150.334 320.131 149.939 318.706C149.386 316.964 145.75 309.602 145.434 309.602C145.355 309.602 141.877 310.71 137.767 311.977C133.657 313.244 129.547 314.352 128.599 314.352C125.042 314.352 123.777 309.682 126.939 307.702C127.887 307.148 131.365 305.882 134.605 304.932C137.846 303.982 140.929 303.032 141.482 302.874C142.667 302.478 136.266 287.279 133.42 283.637C130.654 280.154 127.571 280.233 122.355 283.875C111.289 291.791 91.7665 292.108 80.7802 284.429C72.876 279.046 70.505 269.309 73.7454 255.218C75.3264 248.015 75.4055 247.223 74.2988 244.532C72.639 240.574 68.3707 238.041 64.8931 238.911Z" fill="white" stroke="black" stroke-width="6"/>
<path d="M9.40949 307.24L6.56409 310.406L9.56756 313.019C20.1588 322.439 107.26 396.059 110.342 398.117C115.638 401.838 122.91 405.083 130.26 407.141C136.267 408.724 138.48 408.883 172.388 409.199L208.114 409.516V404.687V399.858H173.099C140.693 399.858 137.532 399.7 131.92 398.275C120.459 395.346 118.088 393.605 63.7883 347.454C35.7294 323.547 12.6501 304.073 12.492 304.073C12.413 304.073 10.9903 305.498 9.40949 307.24Z" fill="white" stroke="black" stroke-width="6"/>
<path d="M257.936 97.1167C253.366 100.984 256.36 108.641 262.35 108.641C265.897 108.641 268.813 105.642 268.813 101.932C268.813 96.0116 262.429 93.17 257.936 97.1167Z" fill="#CFECE8" stroke="black" stroke-width="6"/>
<path d="M268.967 114.573C265.972 117.573 267.705 122.072 271.883 122.072C276.296 122.072 278.345 116.31 274.799 113.863C272.355 112.126 271.252 112.284 268.967 114.573Z" fill="#CFECE8" stroke="black" stroke-width="6"/>
<path d="M256.439 125.533C255.414 127.033 255.335 127.822 255.966 129.085C257.936 132.637 263.138 131.69 263.138 127.744C263.138 123.481 258.724 122.06 256.439 125.533Z" fill="#CFECE8" stroke="black" stroke-width="6"/>
<path d="M245.093 137.853C237.606 139.669 233.35 148.194 236.66 154.588L237.842 156.798H234.138C224.681 156.798 219.321 165.402 223.735 173.532L225.311 176.531L222.947 177.715C217.036 180.794 216.248 189.713 221.449 194.923L223.735 197.212L219.558 201.79C210.337 211.973 205.687 223.497 204.978 237.39C204.505 248.204 206.081 255.624 210.889 265.727C213.962 272.2 215.459 274.252 221.686 280.409C227.518 286.171 230.198 288.223 235.557 290.828C245.329 295.643 250.767 296.906 261.959 296.906C278.352 296.827 289.543 292.17 301.444 280.33C307.434 274.41 309.246 272.042 312.162 266.122C314.054 262.175 316.103 256.729 316.734 253.887C317.285 251.045 317.995 248.441 318.31 248.125C318.625 247.809 323.433 248.046 329.029 248.756C334.625 249.388 339.827 249.94 340.615 249.94C341.875 249.94 341.954 248.204 341.954 224.287V198.633H336.2H330.526L321.463 181.504C316.497 172.111 311.217 163.27 309.877 161.849C306.488 158.376 300.892 156.798 292.223 156.798H285.366L286.548 154.351C288.125 151.272 287.494 145.51 285.445 142.668C281.898 137.932 279.928 137.459 263.141 137.301C254.708 137.222 246.59 137.459 245.093 137.853ZM278.431 148.273C279.061 149.299 279.061 150.088 278.431 151.035C277.643 152.298 275.83 152.456 261.959 152.693C245.96 152.93 244.226 152.614 244.226 149.773C244.226 146.773 245.566 146.536 261.88 146.694C275.83 146.931 277.643 147.089 278.431 148.273ZM275.594 158.455C275.83 160.429 275.751 160.508 270.313 160.429C265.9 160.35 264.402 160.665 262.589 162.007C258.964 164.691 256.836 168.48 256.836 172.348C256.836 179.136 257.467 179.847 280.716 197.844C304.833 216.472 305.148 216.867 308.064 228.312C314.448 253.256 300.183 278.672 275.357 286.487C267.634 288.934 255.496 288.934 247.773 286.487C223.026 278.672 208.682 253.176 215.066 228.233C218.454 214.894 227.991 203.29 240.601 197.054L247.379 193.66V175.347C247.379 165.323 247.615 156.798 247.93 156.482C248.246 156.245 254.551 156.087 261.88 156.166L275.357 156.403L275.594 158.455ZM273.15 167.217C274.569 168.243 275.751 169.585 275.751 170.295C275.751 171.637 269.683 180.478 268.737 180.478C268.422 180.478 266.688 179.215 264.875 177.636C262.196 175.347 261.565 174.321 261.565 172.111C261.565 166.191 267.791 163.586 273.15 167.217Z" fill="white" stroke="black" stroke-width="6"/>
<path d="M226.337 236.994L221.372 238.177V241.966C221.372 253.807 229.253 267.541 239.971 274.329C252.581 282.381 270.551 282.381 283.161 274.329C291.436 269.12 298.135 259.806 300.657 250.018C301.288 247.255 301.761 244.966 301.603 244.808C301.445 244.65 299.396 245.045 297.032 245.676C294.037 246.544 290.254 246.781 284.816 246.544C277.644 246.229 275.595 245.755 262.354 241.256C248.72 236.599 247.222 236.283 239.499 236.046C233.824 235.888 229.647 236.125 226.337 236.994Z" fill="#CFECE8" stroke="black" stroke-width="6"/>
</g>
<defs>
<clipPath id="clip0_2_4">
<rect width="512" height="332" fill="white" transform="translate(0 92)"/>
</clipPath>
</defs>
</svg>
