<svg width="512" height="512" viewBox="0 0 512 512" fill="none" xmlns="http://www.w3.org/2000/svg">
<rect width="512" height="512" fill="white"/>
<g clip-path="url(#clip0_1_72)">
<rect width="512" height="295" transform="translate(0 108)" fill="white"/>
<path d="M170.904 183.271C171.596 182.63 172.408 182.133 173.292 181.809C174.177 181.484 175.117 181.339 176.058 181.381C177.255 181.341 178.441 181.627 179.489 182.21C180.536 182.792 181.406 183.649 182.006 184.689C184.025 188.197 183.939 194.661 182.585 198.664C181.625 201.496 180.051 205.831 176.261 208.938C175.426 209.634 174.457 210.149 173.414 210.45C172.371 210.752 171.277 210.834 170.201 210.69L169.62 210.592C169.049 212.525 168.353 214.419 167.536 216.262C165.958 220.555 157.057 235.876 145.905 241.273V244.537C145.055 245.231 127.615 259.004 126.293 259.943H123.222C121.9 259.004 104.466 245.227 103.611 244.537V240.621C98.8221 237.936 94.6036 234.338 91.1922 230.031C86.4713 224.321 82.9671 217.702 80.8955 210.583C79.75 210.827 78.5643 210.805 77.4284 210.521C76.2924 210.236 75.2361 209.696 74.3397 208.942C70.5489 205.834 68.9759 201.5 68.0169 198.667C66.6611 194.666 66.5762 188.201 68.5947 184.693C69.194 183.653 70.0639 182.796 71.1115 182.214C72.159 181.631 73.3449 181.344 74.5424 181.385C75.4835 181.342 76.4236 181.488 77.3082 181.812C78.1929 182.137 79.0045 182.634 79.6962 183.274C79.6962 183.274 75.9322 144.934 122.595 144.934C169.257 144.934 170.904 183.271 170.904 183.271Z" fill="white"/>
<path d="M146.757 285.275C149.781 274.353 152.557 263.328 154.947 252.693C156.849 253.909 159.212 255.567 161.631 257.451C182.846 265.777 201.435 271.93 210.984 286.476C216.291 294.555 219.457 305.219 221.605 319.118C224.307 339.887 229.267 385.24 230.611 400.188H65.2713C65.2398 396.338 65.1681 389.66 65.0698 381.541L61.5668 383.887C58.2851 386.555 54.8159 388.982 51.1863 391.151C45.6246 394.096 40.9357 396.543 32.1768 395.193C24.7107 394.042 18.7133 387.618 16.7809 380.303C16.0168 376.919 15.6192 373.462 15.595 369.992C15.0245 356.657 15.4396 350.047 14.0729 337.231L26.1709 294.322L51.6961 275.011C61.3896 267.625 74.1637 262.211 87.6066 257.654C90.1155 255.686 92.5832 253.958 94.5496 252.693C99.0953 272.913 105.033 294.536 111.422 314.197C116.155 328.764 117.714 333.708 123.771 348.682H125.725C131.781 333.708 133.339 328.764 138.074 314.197C141.104 304.877 144.032 295.118 146.757 285.275Z" fill="white"/>
<path d="M123.772 348.679C117.715 333.708 116.161 328.764 111.428 314.197C105.561 296.147 100.075 276.441 95.6991 257.687C95.534 256.751 95.578 255.789 95.8279 254.872C96.0779 253.955 96.5276 253.105 97.1447 252.383C99.1135 250.098 101.595 246.789 103.607 244.538C104.463 245.231 121.897 259.004 123.219 259.943H126.289C127.611 259.004 145.045 245.227 145.901 244.538C147.913 246.792 150.392 250.098 152.363 252.383C152.98 253.105 153.43 253.955 153.68 254.872C153.929 255.789 153.974 256.751 153.809 257.687C149.432 276.441 143.947 296.147 138.08 314.197C133.347 328.764 131.787 333.708 125.731 348.682L123.772 348.679Z" fill="white"/>
<path d="M33.6589 285.095C34.7768 284.474 35.6156 283.445 36.6934 282.757C37.8742 282.109 39.2018 281.778 40.5477 281.796C41.8936 281.814 43.2122 282.179 44.3756 282.858C46.6857 284.243 48.6847 286.092 50.2468 288.289C51.5351 289.979 52.3078 292.006 52.4717 294.127C52.5193 294.803 52.4004 295.48 52.1252 296.1C51.85 296.719 51.4271 297.261 50.8938 297.678C50.1427 298.283 49.2692 298.717 48.334 298.95C47.3987 299.183 46.4241 299.209 45.4777 299.027L46.8773 301.865C47.7107 302.271 48.4748 302.807 49.141 303.452C49.9171 304.32 50.4303 305.391 50.6203 306.541C50.8104 307.691 50.6694 308.871 50.214 309.943C49.1237 312.373 47.9112 314.746 46.5811 317.054L43.3657 315.678C41.9565 318.156 41.136 320.896 41.7162 323.137C44.7349 335.868 43.5441 341.952 39.2145 345.038C35.7692 347.427 31.8494 349.041 27.7234 349.771C26.5824 349.893 21.3521 350.257 20.3616 349.676C18.4135 348.535 16.4774 347.876 15.1423 345.906C14.1079 344.233 13.4348 342.361 13.1662 340.411C12.7656 338.091 11.4134 332.314 10.338 328.533C8.92516 323.505 6.99836 318.637 4.58819 314.005C2.85875 311.214 2.13326 307.914 2.532 304.654C2.86833 302.727 3.54007 300.875 4.51658 299.181C8.30609 294.394 11.5858 290.208 15.4409 286.214C16.3718 285.286 17.3515 284.408 18.3758 283.584C20.0535 282.228 22.1918 281.58 24.3381 281.776C25.3917 281.957 26.3857 282.391 27.2339 283.043C28.0822 283.695 28.7593 284.543 29.2066 285.516L33.6589 285.095Z" fill="white"/>
<path d="M434.234 193.786C434.908 193.162 435.699 192.677 436.561 192.361C437.422 192.045 438.338 191.903 439.255 191.943C440.421 191.905 441.576 192.185 442.596 192.753C443.616 193.321 444.463 194.155 445.046 195.167C447.014 198.586 446.93 204.886 445.61 208.788C444.675 211.548 443.142 215.772 439.448 218.8C438.635 219.477 437.691 219.977 436.675 220.27C435.659 220.563 434.593 220.642 433.546 220.502L433.138 220.434C432.439 222.479 431.56 224.296 431.27 225.193C429.802 229.182 421.785 243.038 411.583 248.71V251.569C410.784 252.218 394.484 265.094 393.248 265.971H390.378C389.142 265.094 372.843 252.218 372.049 251.569V250.139C366.446 247.354 361.519 243.374 357.615 238.477C353.221 233.163 349.921 227.03 347.904 220.432C346.809 220.638 345.681 220.598 344.603 220.315C343.525 220.033 342.523 219.514 341.669 218.796C337.975 215.768 336.443 211.544 335.509 208.785C334.188 204.893 334.104 198.587 336.072 195.164C336.656 194.152 337.502 193.317 338.522 192.75C339.542 192.182 340.696 191.902 341.862 191.94C342.779 191.899 343.695 192.041 344.557 192.357C345.418 192.674 346.209 193.158 346.883 193.782C346.883 193.782 341.687 157.027 390.039 157.027C439.399 157.027 434.234 193.786 434.234 193.786Z" fill="white"/>
<path d="M375.552 306.365C376.691 309.595 377.807 312.783 378.874 315.911C383.302 328.891 385.772 334.445 390.897 347.03H392.726C397.851 334.445 400.321 328.891 404.743 315.911C410.249 299.771 417.079 282.008 421.45 265.223C419.984 264.604 418.882 264.135 418.882 264.135C419.104 263.225 419.106 262.276 418.886 261.366C418.666 260.456 418.231 259.612 417.618 258.905C415.777 256.77 413.457 253.676 411.576 251.571C410.777 252.219 394.477 265.096 393.241 265.972H390.37C389.135 265.096 372.836 252.219 372.042 251.571C370.16 253.679 367.841 256.77 366 258.905C365.386 259.612 364.951 260.456 364.731 261.366C364.512 262.276 364.513 263.225 364.736 264.135L362.136 265.096C365.66 278.664 370.8 292.88 375.552 306.365Z" fill="white"/>
<path d="M296.036 400.568C299.001 377.641 303.997 338.136 307.703 319.994C309.267 312.273 312.852 299.162 317.95 291.401C325.914 279.278 339.003 273.172 354.364 265.74C356.439 263.887 358.683 262.233 361.068 260.802C365.316 278.859 372.879 298.348 378.872 315.913C383.3 328.893 385.77 334.447 390.895 347.032H392.724C397.849 334.447 400.319 328.893 404.741 315.913C410.733 298.348 418.294 278.859 422.546 260.802C424.333 261.861 426.035 263.057 427.637 264.38C431.084 265.391 433.741 266.166 433.741 266.166C440.852 268.708 447.594 272.184 453.792 276.503L472.551 289.733L492.165 332.895C493.633 340.854 495.343 348.008 498.203 361.093C499.066 364.466 499.565 367.923 499.69 371.403C499.69 378.998 495.526 386.806 488.563 389.807C483.128 392.149 475.392 392.239 469.082 390.769C464.751 389.757 457.597 387.485 452.401 383.944L448.291 381.889C448.216 390.394 448.199 398.329 448.185 400.565L296.036 400.568Z" fill="white"/>
<path d="M509.071 298.901C509.284 299.556 509.446 300.226 509.557 300.905C509.958 304.18 509.23 307.493 507.493 310.295C505.074 314.944 503.14 319.83 501.721 324.876C500.641 328.671 499.284 334.469 498.882 336.794C498.613 338.751 497.938 340.63 496.899 342.309C495.564 344.287 493.622 344.95 491.665 346.094C490.67 346.677 485.421 346.312 484.275 346.189C480.135 345.457 476.201 343.837 472.744 341.439C468.399 338.341 467.203 332.236 470.234 319.458C470.83 317.155 469.951 314.326 468.474 311.796L465.351 313.355C464.018 311.04 462.802 308.659 461.71 306.22C461.252 305.144 461.111 303.96 461.301 302.806C461.492 301.652 462.007 300.576 462.786 299.705C463.455 299.057 464.222 298.52 465.058 298.112L466.463 295.264C465.513 295.446 464.535 295.42 463.596 295.186C462.657 294.952 461.78 294.517 461.026 293.91C460.49 293.492 460.066 292.948 459.79 292.326C459.513 291.704 459.394 291.024 459.442 290.346C459.606 288.217 460.381 286.181 461.676 284.485C463.243 282.28 465.249 280.424 467.567 279.034C468.735 278.353 470.059 277.987 471.41 277.969C472.761 277.951 474.093 278.283 475.279 278.933C476.36 279.624 477.201 280.656 478.323 281.28L482.793 281.703C483.243 280.727 483.923 279.875 484.774 279.222C485.626 278.568 486.624 278.131 487.681 277.95C489.835 277.754 491.981 278.405 493.664 279.765C494.693 280.591 495.676 281.472 496.61 282.404C500.477 286.417 503.772 290.614 507.572 295.417C508.233 296.502 508.738 297.675 509.071 298.901Z" fill="white"/>
<path d="M114.809 111.329C106.778 112.713 99.1836 115.97 92.6403 120.838C85.8528 125.765 80.2879 132.192 76.3759 139.619C72.464 147.046 70.3099 155.276 70.0804 163.671C69.9086 169.77 70.6616 175.861 72.3138 181.734C73.0365 181.519 73.7841 181.401 74.5375 181.381C75.4786 181.339 76.4187 181.484 77.3034 181.809C78.188 182.133 78.9997 182.63 79.6914 183.271L86.9803 177.139C92.4509 171.031 102.106 161.826 108.879 158.265C109.674 157.848 110.699 158.414 111.016 159.743C111.28 160.783 111.351 161.862 111.225 162.928C111.171 163.23 111.201 163.541 111.313 163.826C111.425 164.112 111.613 164.36 111.858 164.545C112.102 164.729 112.393 164.842 112.697 164.871C113.002 164.9 113.309 164.844 113.583 164.709C118.42 162.016 127.037 156.598 133.149 154.018C136.212 153.823 139.285 154.202 142.21 155.134C145.269 156.401 148.091 158.179 150.556 160.392C156.057 165.135 161.33 171.641 163.665 177.528L170.898 183.271C171.59 182.63 172.401 182.133 173.286 181.809C174.171 181.484 175.111 181.339 176.052 181.381C176.736 181.4 177.415 181.499 178.075 181.675C179.734 175.826 180.469 169.753 180.252 163.676C179.34 142.062 168.468 128.636 157.964 121.038C148.478 114.013 136.958 110.293 125.163 110.444C121.693 110.436 118.228 110.732 114.809 111.329Z" fill="#15A9D0"/>
<path d="M118.508 335.179C119.906 338.97 121.531 343.137 123.772 348.679H125.726C131.301 334.894 133.065 329.609 137.004 317.492C135.094 301.084 132.567 281.572 132.567 280.997C132.606 279.961 132.764 278.932 133.037 277.932C133.154 277.474 133.259 277.016 133.353 276.558C133.858 274.279 133.95 273.112 134.536 270.698L134.571 270.577C131.759 266.777 128.358 262.272 126.285 259.935H123.214C121.159 262.246 117.796 266.701 114.997 270.48L115.26 271.216C115.866 272.736 116.346 274.304 116.697 275.902C117.331 277.648 117.714 279.476 117.833 281.33C117.849 282.296 115.19 300.797 112.726 318.203C114.955 325.062 116.496 329.733 118.508 335.179Z" fill="#15A9D0"/>
<path d="M341.93 154.838C345.722 146.318 351.697 138.954 359.248 133.496C367.33 127.875 376.766 124.526 386.576 123.796C396.386 123.066 406.212 124.981 415.034 129.344C426.454 115.443 443.887 122.716 446.04 133.965C447.446 141.311 447.873 145.848 451.23 152.486C454.684 159.318 457.573 160.175 463.582 163.002C458.986 169.804 453.022 175.644 443.247 174.08C443.454 180.193 442.662 186.298 440.902 192.155C440.361 192.035 439.81 191.966 439.257 191.948C437.46 191.87 435.703 192.492 434.355 193.685C427.072 192.179 419.471 184.868 415.108 179.285C410.936 173.95 408.325 167.541 406.126 160.304C399.439 167.844 388.111 174.028 375.495 180.954C368.605 184.195 361.509 186.977 354.254 189.282L346.888 193.791C346.214 193.166 345.423 192.682 344.561 192.366C343.7 192.05 342.784 191.908 341.867 191.948C341.253 191.966 340.643 192.048 340.046 192.191C338.27 186.324 337.45 180.208 337.618 174.079C337.788 169.681 338.481 165.32 339.682 161.087C340.293 158.957 341.044 156.869 341.93 154.838Z" fill="#15A9D0"/>
<path d="M382.34 230.524C385.019 231.913 388.003 232.607 391.019 232.541C394.16 232.671 397.255 231.75 399.817 229.924C400.273 229.468 400.528 228.849 400.528 228.204C400.528 227.559 400.273 226.941 399.817 226.485C399.353 226.046 398.739 225.802 398.1 225.802C397.462 225.802 396.848 226.046 396.384 226.485C397.131 225.901 396.594 226.317 396.402 226.441C396.229 226.552 396.053 226.655 395.871 226.749C395.777 226.797 395.681 226.842 395.587 226.89C395.377 226.998 395.223 226.929 395.724 226.841C395.476 226.914 395.233 227.003 394.996 227.107C394.327 227.317 393.642 227.474 392.948 227.576C393.313 227.519 393.001 227.566 392.806 227.585C392.612 227.605 392.403 227.622 392.2 227.635C391.714 227.667 391.229 227.679 390.743 227.677C390.308 227.677 389.874 227.661 389.441 227.629C389.242 227.616 389.042 227.6 388.843 227.579C388.78 227.573 388.054 227.458 388.608 227.555C387.963 227.449 387.324 227.307 386.695 227.129C386.427 227.049 386.166 226.953 385.901 226.863C385.294 226.656 386.307 227.067 385.762 226.809C385.434 226.655 385.111 226.493 384.79 226.323C384.235 225.998 383.572 225.907 382.949 226.07C382.327 226.234 381.794 226.639 381.469 227.196C381.145 227.753 381.054 228.417 381.217 229.041C381.381 229.665 381.785 230.198 382.341 230.524H382.34Z" fill="#211715"/>
<path d="M389.694 210.158C390.089 211.587 390.406 213.038 390.642 214.502L390.555 213.855C390.583 214.053 390.589 214.255 390.572 214.454L390.658 213.807C390.645 213.899 390.623 213.99 390.592 214.077L390.835 213.496C390.81 213.557 390.778 213.615 390.741 213.67L391.121 213.178C391.078 213.229 391.031 213.276 390.978 213.317L391.464 212.937C391.354 213.005 391.239 213.066 391.121 213.119L391.701 212.876C391.515 212.956 391.321 213.013 391.122 213.046L391.767 212.959C391.587 212.98 391.404 212.98 391.224 212.959L391.869 213.046C391.664 213.017 391.464 212.967 391.263 212.939C390.948 212.838 390.613 212.823 390.291 212.897C389.971 212.91 389.659 213.01 389.39 213.185C389.114 213.346 388.873 213.56 388.681 213.814C388.488 214.069 388.347 214.359 388.266 214.668C388.185 214.977 388.166 215.299 388.209 215.615C388.252 215.932 388.357 216.236 388.518 216.512C388.672 216.788 388.881 217.029 389.132 217.222C389.382 217.414 389.669 217.553 389.975 217.631C390.46 217.696 390.929 217.818 391.422 217.84C392.171 217.844 392.911 217.667 393.577 217.323C394.003 217.128 394.379 216.839 394.68 216.48C394.98 216.12 395.197 215.698 395.314 215.244C395.468 214.512 395.46 213.755 395.292 213.027C395.057 211.628 394.734 210.242 394.375 208.869C394.193 208.259 393.781 207.746 393.226 207.437C392.671 207.129 392.017 207.051 391.405 207.219C390.793 207.388 390.271 207.79 389.952 208.339C389.632 208.888 389.539 209.541 389.694 210.158Z" fill="#211715"/>
<path d="M366.971 197.8C366.242 200.157 366.719 205.584 371.175 206.041C377.066 206.006 377.38 199.449 375.397 196.368C373.773 193.844 368.998 192.795 366.971 197.8Z" fill="#211715"/>
<path d="M414.142 197.8C414.87 200.157 414.394 205.584 409.938 206.041C404.048 206.005 403.733 199.449 405.717 196.368C407.339 193.844 412.113 192.795 414.142 197.8Z" fill="#211715"/>
<path d="M431.692 216.128C431.258 218.566 430.511 220.937 429.468 223.182C429.226 223.771 429 224.367 428.768 224.961C429.031 224.284 428.721 225.061 428.66 225.19C428.539 225.439 428.424 225.689 428.296 225.939C426.872 228.767 425.224 231.476 423.368 234.041C419.045 240.112 413.154 246.697 405.612 248.462C402.57 249.174 403.858 253.865 406.902 253.153C413.548 251.599 419.084 246.797 423.449 241.751C427.223 237.511 430.387 232.763 432.846 227.644C434.502 224.425 435.687 220.985 436.366 217.428C436.516 216.806 436.423 216.151 436.107 215.595C435.792 215.039 435.277 214.624 434.667 214.435C434.046 214.268 433.384 214.353 432.825 214.672C432.266 214.991 431.855 215.517 431.681 216.138L431.692 216.128Z" fill="#211715"/>
<path d="M344.529 217.247C346.56 226.025 350.693 234.176 356.572 240.996C362.418 247.753 370.177 253.485 379.185 254.846C379.806 254.996 380.46 254.904 381.015 254.588C381.57 254.271 381.983 253.755 382.171 253.143C382.337 252.521 382.252 251.858 381.934 251.298C381.616 250.738 381.091 250.326 380.472 250.151C372.192 248.901 365.37 243.764 360.001 237.553C354.712 231.335 351.009 223.923 349.213 215.954C348.504 212.906 343.821 214.197 344.531 217.247H344.529Z" fill="#211715"/>
<path d="M348.596 192.066C347.148 190.77 345.354 189.925 343.434 189.635C341.514 189.345 339.551 189.623 337.786 190.434C336.527 191.069 335.425 191.977 334.56 193.092C333.695 194.207 333.088 195.501 332.785 196.88C332.003 200.228 331.923 203.702 332.548 207.082C333.173 210.463 334.492 213.677 336.419 216.522C338.91 220.236 342.806 223.557 347.568 222.938C348.205 222.919 348.812 222.656 349.263 222.204C349.714 221.752 349.976 221.145 349.995 220.506C349.992 219.862 349.735 219.246 349.28 218.79C348.826 218.335 348.211 218.078 347.568 218.074C343.817 218.56 341.274 215.475 339.645 212.466C338.246 209.965 337.367 207.206 337.06 204.355C336.826 201.628 336.817 198.224 338.485 195.892C338.283 196.174 339.009 195.338 339.085 195.278C339.575 194.912 340.138 194.656 340.737 194.529C341.499 194.322 342.299 194.304 343.07 194.475C343.84 194.645 344.558 195.001 345.162 195.51C347.488 197.589 350.933 194.16 348.596 192.071V192.066Z" fill="#211715"/>
<path d="M435.951 195.505C436.527 195.018 437.209 194.671 437.941 194.493C438.674 194.315 439.438 194.311 440.173 194.48C440.845 194.595 441.481 194.867 442.029 195.273C441.85 195.134 442.463 195.701 442.393 195.638C442.46 195.706 442.886 196.258 442.625 195.892C444.288 198.222 444.283 201.629 444.05 204.355C443.607 209.534 439.974 218.91 433.542 218.074C432.899 218.077 432.283 218.334 431.829 218.79C431.374 219.245 431.117 219.862 431.114 220.506C431.129 221.146 431.39 221.756 431.842 222.209C432.294 222.662 432.903 222.923 433.542 222.938C441.364 223.956 446.107 215.414 448.057 209.095C449.783 203.5 449.837 194.605 444.346 190.991C442.521 189.869 440.383 189.368 438.251 189.563C436.119 189.757 434.106 190.637 432.514 192.071C430.177 194.159 433.621 197.59 435.948 195.51L435.951 195.505Z" fill="#211715"/>
<path d="M110.91 348.1C100.046 329.229 89.3047 310.277 79.2847 290.94C78.4774 289.703 77.7993 288.386 77.2613 287.01C77.1314 286.498 77.112 286.631 77.6424 286.063C78.1522 285.518 78.6677 284.977 79.1888 284.441C81.3397 282.231 83.5731 280.107 85.8199 277.995C86.0784 277.73 86.2737 277.41 86.391 277.059C86.5084 276.707 86.5448 276.334 86.4975 275.966C86.4502 275.599 86.3204 275.246 86.1179 274.936C85.9154 274.626 85.6455 274.366 85.3283 274.175L81.1309 271.769L79.0323 270.568L77.9823 269.969C77.4159 269.588 77.301 269.545 77.6376 269.84L77.969 271.067C78.3202 270.351 78.7546 269.68 79.2629 269.066C79.7642 268.38 80.3015 267.721 80.8724 267.092C82.4051 265.397 84.0421 263.798 85.7737 262.307C88.9221 259.563 92.2647 257.052 95.7755 254.793L92.2094 253.34C98.1434 279.698 105.586 305.693 114.501 331.194C116.638 337.305 119.007 343.329 121.432 349.329C121.619 349.941 122.033 350.458 122.588 350.774C123.143 351.091 123.797 351.183 124.418 351.032C125.037 350.858 125.562 350.446 125.88 349.886C126.198 349.326 126.284 348.663 126.117 348.04C116.722 324.29 108.848 299.964 102.543 275.209C100.525 267.521 98.6413 259.8 96.891 252.046C96.789 251.689 96.6073 251.359 96.3596 251.083C96.1118 250.806 95.8045 250.59 95.4609 250.45C95.1174 250.31 94.7465 250.25 94.3765 250.275C94.0064 250.299 93.6468 250.408 93.3248 250.593C87.7907 254.058 82.696 258.183 78.1522 262.876C77.0875 264.007 76.0951 265.204 75.1808 266.46C74.1422 267.644 73.4353 269.083 73.1319 270.63C72.9875 272.915 74.8822 273.792 76.5816 274.765L82.8776 278.366L82.386 274.546C80.2764 276.529 78.1777 278.524 76.1482 280.591C74.3275 282.447 71.8004 284.467 72.3005 287.374C72.658 288.715 73.2131 289.994 73.9476 291.17C74.6265 292.488 75.3079 293.804 75.9917 295.117C77.2953 297.617 78.6107 300.111 79.9378 302.6C85.4484 312.937 91.1351 323.181 96.9044 333.376C100.153 339.115 103.424 344.84 106.718 350.552C108.279 353.263 112.476 350.816 110.91 348.096V348.1Z" fill="#211715"/>
<path d="M131.898 276.794C127.354 276.794 122.811 276.699 118.266 276.698C117.622 276.698 117.005 276.954 116.55 277.41C116.094 277.866 115.839 278.485 115.839 279.13C115.839 279.775 116.094 280.394 116.55 280.85C117.005 281.306 117.622 281.562 118.266 281.562C122.811 281.562 127.354 281.657 131.898 281.658C132.542 281.658 133.16 281.402 133.615 280.946C134.07 280.49 134.326 279.871 134.326 279.226C134.326 278.581 134.07 277.962 133.615 277.506C133.16 277.05 132.542 276.794 131.898 276.794Z" fill="#211715"/>
<path d="M132.195 270.055C131.663 272.3 131.326 274.583 130.808 276.83C130.368 278.315 130.155 279.858 130.177 281.407C130.374 283.862 130.772 286.318 131.075 288.761C132.27 298.354 133.464 307.948 134.582 317.551C134.601 318.19 134.863 318.798 135.314 319.25C135.765 319.702 136.372 319.965 137.01 319.983C137.652 319.98 138.268 319.722 138.722 319.267C139.177 318.811 139.434 318.195 139.437 317.551C138.333 308.065 137.155 298.598 135.977 289.127C135.665 286.627 135.325 284.127 135.057 281.622C135.002 280.44 135.149 279.257 135.49 278.124C136.007 275.876 136.34 273.593 136.876 271.349C137.597 268.309 132.917 267.006 132.195 270.055Z" fill="#211715"/>
<path d="M115.19 318.001C116.543 308.458 117.917 298.917 119.234 289.369C119.577 286.877 120.023 284.368 120.22 281.859C120.281 280.354 120.095 278.848 119.669 277.403C119.105 274.875 118.333 272.398 117.363 269.997C117.035 269.443 116.503 269.04 115.881 268.877C115.259 268.714 114.598 268.802 114.041 269.123C113.497 269.46 113.103 269.993 112.941 270.613C112.779 271.233 112.861 271.892 113.171 272.452C113.608 273.632 113.959 274.843 114.219 276.074C114.539 277.222 114.931 278.346 115.182 279.513C115.385 280.414 115.433 281.343 115.323 282.26C115.046 284.678 114.735 286.766 114.393 289.235C113.123 298.397 111.808 307.553 110.509 316.711C110.359 317.332 110.452 317.988 110.768 318.544C111.083 319.099 111.598 319.514 112.208 319.703C112.829 319.87 113.491 319.785 114.05 319.466C114.609 319.147 115.02 318.62 115.194 318L115.19 318.001Z" fill="#211715"/>
<path d="M61.5401 310.316C61.8132 322.022 61.9819 333.73 62.1543 345.437C62.3525 358.814 62.5301 372.192 62.6871 385.57C62.7446 390.444 62.796 395.318 62.8413 400.192C62.8668 403.32 67.722 403.328 67.6965 400.192C67.6127 389.886 67.4744 379.582 67.3409 369.276C67.1612 355.507 66.9589 341.739 66.734 327.972C66.6344 322.087 66.5312 316.204 66.3941 310.32C66.32 307.194 61.4648 307.183 61.5389 310.32L61.5401 310.316Z" fill="#211715"/>
<path d="M187.291 400.188C187.346 389.777 187.433 379.366 187.552 368.954C187.686 355.29 187.843 341.626 188.024 327.962C188.105 322.08 188.19 316.198 188.31 310.316C188.373 307.185 183.518 307.185 183.455 310.316C183.212 321.955 183.091 333.596 182.95 345.236C182.795 358.558 182.661 371.88 182.546 385.201C182.503 390.197 182.466 395.193 182.435 400.188C182.418 403.319 187.274 403.322 187.291 400.188Z" fill="#211715"/>
<path d="M12.3444 345.305C12.7401 351.482 12.7838 357.671 12.9513 363.857C13.1492 371.003 12.9173 378.626 16.0405 385.227C17.3089 387.95 19.1107 390.389 21.3387 392.4C23.5667 394.411 26.1755 395.953 29.01 396.934C34.8896 398.699 41.1993 398.355 46.853 395.961C52.7812 393.291 58.309 389.806 63.277 385.606C63.7292 385.149 63.9828 384.531 63.9828 383.887C63.9828 383.243 63.7292 382.625 63.277 382.167C62.8146 381.725 62.1999 381.478 61.5607 381.478C60.9215 381.478 60.3068 381.725 59.8444 382.167C51.9546 388.451 42.5792 394.937 31.9656 392.695C29.4881 392.087 27.1766 390.934 25.1981 389.32C23.2197 387.707 21.6237 385.673 20.5255 383.366C17.6039 377.656 18.002 370.623 17.8223 364.383C17.6391 358.024 17.6026 351.661 17.196 345.31C16.997 342.202 12.1405 342.178 12.3408 345.31L12.3444 345.305Z" fill="#211715"/>
<path d="M455.027 274.403C448.618 270.026 441.685 266.471 434.393 263.822C433.771 263.657 433.11 263.743 432.552 264.062C431.993 264.38 431.582 264.906 431.406 265.525C431.248 266.147 431.337 266.806 431.653 267.364C431.97 267.922 432.49 268.336 433.105 268.518C439.991 271.054 446.533 274.445 452.577 278.612C452.852 278.775 453.157 278.882 453.474 278.927C453.79 278.972 454.113 278.954 454.422 278.873C454.732 278.793 455.023 278.652 455.278 278.458C455.533 278.265 455.747 278.023 455.909 277.746C456.07 277.47 456.175 277.164 456.219 276.846C456.262 276.529 456.242 276.206 456.16 275.896C456.078 275.586 455.936 275.296 455.741 275.041C455.547 274.786 455.304 274.573 455.027 274.413V274.403Z" fill="#211715"/>
<path d="M449.043 315.606C449.017 327.07 447.572 338.457 447.018 349.902C446.458 361.456 445.939 372.969 445.851 384.535C445.811 389.886 445.797 395.224 445.767 400.569C445.75 403.701 450.606 403.704 450.623 400.569C450.744 378.716 450.999 356.875 452.875 335.087C453.434 328.602 453.883 322.123 453.899 315.611C453.906 312.481 449.051 312.476 449.043 315.611V315.606Z" fill="#211715"/>
<path d="M330.851 315.606C330.879 327.07 332.324 338.457 332.877 349.902C333.438 361.456 333.956 372.969 334.045 384.535C334.085 389.886 334.098 395.224 334.127 400.569C334.144 403.698 339 403.705 338.983 400.569C338.861 378.716 338.606 356.875 336.731 335.087C336.173 328.602 335.722 322.123 335.707 315.611C335.699 312.481 330.844 312.476 330.851 315.611V315.606Z" fill="#211715"/>
<path d="M492.214 345.136C493.391 350.577 494.611 356.009 495.803 361.446C497.062 367.184 498.109 372.86 495.924 378.509C495.116 380.725 493.828 382.734 492.152 384.392C490.477 386.049 488.455 387.314 486.233 388.096C480.862 389.675 475.167 389.787 469.739 388.419C464.023 387.211 458.57 384.984 453.641 381.842C451.035 380.098 448.602 384.311 451.191 386.043C456.181 389.217 461.671 391.522 467.428 392.862C473.554 394.522 479.996 394.631 486.175 393.179C488.928 392.473 491.504 391.202 493.741 389.446C495.978 387.69 497.827 385.487 499.17 382.978C502.223 377.347 502.569 371.216 501.486 365.001C500.255 357.902 498.424 350.885 496.9 343.84C496.237 340.782 491.559 342.076 492.219 345.132L492.214 345.136Z" fill="#211715"/>
<path d="M298.463 400.568C301.064 380.432 303.598 360.281 306.678 340.211C307.97 331.791 309.235 323.306 311.321 315.036C313.826 305.104 317.147 294.848 324.309 287.253C332.816 278.242 344.66 273.12 355.618 267.814C358.43 266.452 355.971 262.256 353.167 263.613C342.919 268.575 332.254 273.396 323.689 281.077C319.74 284.576 316.444 288.751 313.955 293.407C311.427 298.41 309.401 303.653 307.909 309.059C305.603 317.539 303.838 326.157 302.624 334.862C300.964 345.321 299.502 355.823 298.085 366.322C296.545 377.729 295.079 389.145 293.604 400.562C293.608 401.206 293.864 401.823 294.319 402.278C294.774 402.733 295.389 402.991 296.032 402.994C296.671 402.978 297.279 402.717 297.731 402.264C298.183 401.811 298.444 401.202 298.46 400.562L298.463 400.568Z" fill="#211715"/>
<path d="M485.12 282.35C485.717 280.727 487.991 280.161 489.473 280.436C492.061 280.923 494.085 283.263 495.804 285.098C497.76 287.188 499.612 289.374 501.419 291.595C502.969 293.5 505.085 295.503 506.086 297.765C506.958 299.63 507.34 301.687 507.197 303.742C506.983 306.277 505.732 308.282 504.614 310.485C502.584 314.578 500.925 318.845 499.656 323.235C498.396 327.442 497.36 331.713 496.554 336.03C496.126 338.361 495.557 340.894 493.471 342.295C492.958 342.624 492.429 342.926 491.886 343.201C491.609 343.35 491.333 343.494 491.058 343.645C490.953 343.704 490.073 344.132 490.573 343.932C491.017 343.758 490.014 343.943 490.451 343.932C489.928 343.952 489.409 343.989 488.884 343.992C485.3 344.095 481.739 343.382 478.47 341.906C477.31 341.381 476.186 340.781 475.104 340.111C474.681 339.847 474.254 339.578 473.86 339.277C473.906 339.312 473.606 339.063 473.356 338.821C472.593 338.072 472.014 337.156 471.664 336.145C470.266 331.865 471.104 326.957 472.009 322.596C472.633 319.582 473.184 317.011 472.13 314.007C471.086 311.146 469.462 308.532 467.361 306.33C465.23 304.031 461.802 307.478 463.928 309.769C465.872 311.707 467.239 314.15 467.876 316.823C468.002 318.06 467.872 319.31 467.492 320.494C467.145 322.084 466.844 323.684 466.612 325.296C465.989 329.636 465.63 334.333 467.382 338.47C469.116 342.566 472.949 344.794 476.883 346.487C480.874 348.211 485.201 349.016 489.543 348.843C494.936 348.679 499.41 344.428 500.788 339.367C501.395 337.109 501.732 334.756 502.267 332.476C502.864 329.928 503.5 327.387 504.227 324.874C505.492 320.234 507.284 315.755 509.568 311.525C511.049 309.044 511.877 306.227 511.974 303.337C512.071 300.448 511.433 297.581 510.121 295.006C509.302 293.645 508.351 292.37 507.28 291.198C506.077 289.684 504.868 288.175 503.638 286.687C501.464 283.93 499.068 281.354 496.477 278.987C493.806 276.67 490.666 275.012 487.009 275.608C485.539 275.879 484.162 276.522 483.01 277.476C481.858 278.43 480.969 279.663 480.426 281.059C479.344 284.001 484.034 285.27 485.108 282.353L485.12 282.35Z" fill="#211715"/>
<path d="M494.725 293.511C492.317 290.81 489.835 288.172 487.332 285.561C486.525 284.65 485.643 283.81 484.695 283.047C483.515 282.19 482.101 281.716 480.643 281.691C479.185 281.665 477.755 282.089 476.546 282.905C475.23 283.815 474.208 285.089 473.603 286.572C472.998 288.054 472.838 289.681 473.141 291.254C473.316 291.874 473.728 292.399 474.286 292.718C474.845 293.036 475.506 293.122 476.127 292.957C476.741 292.774 477.261 292.361 477.578 291.803C477.894 291.246 477.984 290.587 477.826 289.965C477.772 289.678 477.771 289.666 477.826 289.927C477.817 289.77 477.816 289.613 477.826 289.457C477.852 289.164 477.847 289.14 477.813 289.385C477.841 289.224 477.875 289.064 477.916 288.904C478.012 288.445 478.214 288.014 478.507 287.648C478.386 287.789 478.416 287.749 478.611 287.526C478.729 287.395 478.853 287.27 478.982 287.151C479.402 286.757 478.853 287.182 479.346 286.892C479.703 286.633 480.14 286.509 480.579 286.543C481.065 286.51 480.493 286.448 480.968 286.584C481.212 286.626 481.446 286.715 481.656 286.847C481.917 287.011 482.309 287.346 481.952 287.017C481.996 287.057 482.043 287.096 482.084 287.139C482.485 287.569 482.92 287.972 483.329 288.395C486.04 291.192 488.714 294.045 491.309 296.955C491.535 297.181 491.802 297.36 492.097 297.483C492.391 297.605 492.707 297.668 493.026 297.668C493.345 297.668 493.66 297.605 493.955 297.483C494.25 297.361 494.517 297.182 494.743 296.956C494.968 296.73 495.147 296.462 495.269 296.167C495.391 295.872 495.454 295.556 495.454 295.236C495.454 294.917 495.391 294.6 495.269 294.305C495.147 294.01 494.969 293.742 494.743 293.516L494.725 293.511Z" fill="#211715"/>
<path d="M484.819 296.664C482.6 294.466 480.214 292.444 477.683 290.617C476.619 289.7 475.399 288.983 474.082 288.501C472.924 288.225 471.715 288.254 470.571 288.584C469.428 288.914 468.389 289.535 467.555 290.386C466.722 291.237 466.122 292.289 465.813 293.441C465.505 294.592 465.499 295.804 465.795 296.959C466.392 298.53 467.289 299.97 468.436 301.196C468.947 301.834 469.493 302.443 470.071 303.02C471.728 304.689 473.453 306.291 475.169 307.898C475.395 308.124 475.662 308.304 475.957 308.426C476.251 308.548 476.567 308.611 476.886 308.611C477.205 308.611 477.52 308.548 477.815 308.426C478.11 308.304 478.377 308.125 478.603 307.899C478.828 307.673 479.007 307.405 479.129 307.11C479.251 306.815 479.314 306.499 479.314 306.179C479.314 305.86 479.251 305.543 479.129 305.248C479.007 304.953 478.829 304.685 478.603 304.459C477.311 303.243 476.018 302.037 474.747 300.803C474.107 300.183 473.47 299.56 472.857 298.913C472.358 298.388 471.765 297.649 471.433 297.211C471.113 296.779 470.82 296.328 470.556 295.86C470.36 295.495 470.714 296.115 470.516 295.779C470.466 295.695 470.478 295.586 470.434 295.501C470.597 295.819 470.442 295.856 470.451 295.597C470.451 295.433 470.466 295.261 470.461 295.098C470.453 294.747 470.355 295.47 470.461 295.124C470.491 295.023 470.504 294.913 470.529 294.811C470.562 294.684 470.858 293.941 470.635 294.393C470.737 294.187 470.886 293.989 470.975 293.785C471.074 293.553 470.92 293.874 470.875 293.906C470.885 293.898 471.284 293.509 471.079 293.688C470.874 293.866 471.216 293.596 471.273 293.566C471.365 293.508 471.46 293.456 471.553 293.402C471.939 293.176 471.675 293.341 471.562 293.381C471.694 293.331 471.83 293.286 471.966 293.249C472.067 293.221 472.176 293.208 472.274 293.176C472.607 293.065 471.902 293.16 472.247 293.176C472.344 293.176 472.455 293.176 472.554 293.166C473.085 293.135 472.355 293.058 472.603 293.15C472.725 293.199 472.852 293.232 472.982 293.25C473.225 293.269 472.911 293.232 472.85 293.188C473.061 293.337 473.293 293.466 473.508 293.615C474.015 293.967 474.526 294.316 475.03 294.674C475.309 294.872 475.587 295.07 475.862 295.273C476.002 295.377 476.142 295.48 476.28 295.586C476.326 295.62 476.598 295.829 476.409 295.684C477.001 296.155 477.563 296.657 478.13 297.162C479.222 298.129 480.344 299.081 481.39 300.106C481.848 300.55 482.461 300.795 483.098 300.789C483.734 300.784 484.343 300.528 484.793 300.077C485.243 299.626 485.499 299.016 485.504 298.378C485.51 297.74 485.265 297.126 484.823 296.667L484.819 296.664Z" fill="#211715"/>
<path d="M470.331 296.484C468.841 295.596 467.09 295.255 465.376 295.517C463.927 295.844 462.593 296.559 461.515 297.584C460.552 298.435 459.806 299.504 459.337 300.702C458.868 301.9 458.691 303.192 458.819 304.472C459.131 306.396 459.793 308.245 460.774 309.927C461.486 311.536 462.313 313.093 463.247 314.584C463.408 314.859 463.622 315.101 463.876 315.294C464.13 315.487 464.419 315.628 464.728 315.709C465.036 315.79 465.358 315.81 465.674 315.766C465.989 315.723 466.294 315.618 466.569 315.456C466.844 315.295 467.085 315.081 467.278 314.827C467.471 314.572 467.612 314.282 467.692 313.973C467.773 313.664 467.793 313.342 467.749 313.025C467.706 312.709 467.601 312.404 467.44 312.128C466.666 310.906 465.977 309.632 465.376 308.316C465.037 307.628 464.702 306.939 464.374 306.248C464.252 306.005 464.141 305.756 464.025 305.509L463.854 305.137C463.784 304.984 463.836 304.857 463.89 305.213C463.862 305.029 463.768 304.82 463.72 304.638C463.688 304.507 463.661 304.373 463.638 304.239C463.672 304.511 463.68 304.555 463.663 304.373C463.663 304.13 463.633 303.886 463.641 303.643C463.641 303.568 463.707 302.874 463.627 303.448C463.656 303.24 463.697 303.033 463.749 302.829C463.775 302.724 464.068 301.906 463.841 302.427C463.924 302.24 464.018 302.058 464.123 301.882C464.197 301.76 464.555 301.381 464.21 301.72C464.375 301.559 464.528 301.391 464.702 301.234C464.766 301.178 465.338 300.713 464.989 300.978C465.171 300.84 465.361 300.707 465.554 300.584C465.747 300.462 466.106 300.293 465.685 300.463C465.792 300.42 466.695 300.231 466.255 300.273C466.49 300.247 466.726 300.247 466.96 300.273C466.475 300.21 467.22 300.376 467.253 300.386C467.522 300.485 467.567 300.498 467.388 300.429C467.554 300.51 467.716 300.595 467.873 300.683C468.429 301.008 469.091 301.099 469.714 300.935C470.337 300.772 470.869 300.367 471.194 299.81C471.519 299.253 471.61 298.589 471.446 297.965C471.283 297.341 470.879 296.808 470.323 296.482L470.331 296.484Z" fill="#211715"/>
<path d="M479.534 279.18C478.449 278.537 477.522 277.454 476.361 276.756C475.004 275.969 473.466 275.547 471.898 275.533C468.799 275.591 465.827 276.782 463.544 278.883C461.303 280.689 459.485 282.966 458.216 285.551C456.932 288.488 456.296 291.954 458.406 294.664C459.456 295.892 460.817 296.814 462.346 297.332C463.875 297.85 465.515 297.946 467.094 297.61C467.713 297.435 468.239 297.023 468.557 296.463C468.875 295.902 468.96 295.239 468.793 294.617C468.61 294.002 468.198 293.482 467.641 293.165C467.085 292.848 466.428 292.758 465.807 292.914C464.849 293.07 463.867 292.876 463.041 292.366C462.863 292.262 462.691 292.148 462.524 292.027C463.057 292.412 462.384 291.863 462.281 291.753C462.046 291.519 461.895 291.213 461.851 290.884C461.841 289.788 462.077 288.703 462.542 287.71C463.115 286.535 463.869 285.457 464.776 284.516C466.463 282.597 468.469 280.746 471.053 280.413C471.99 280.287 472.943 280.449 473.787 280.875C474.918 281.505 475.89 282.665 477.087 283.376C479.782 284.974 482.228 280.771 479.538 279.175L479.534 279.18Z" fill="#211715"/>
<path d="M31.5457 284.87C29.396 279.033 22.05 277.885 17.3441 281.336C12.2461 285.072 8.3158 290.506 4.4219 295.415C3.52641 296.409 2.72091 297.482 2.01492 298.619C1.43055 299.765 0.961719 300.966 0.615401 302.204C-0.175324 304.945 -0.203446 307.849 0.534076 310.604C1.22716 313.273 2.77719 315.53 3.9206 318.004C4.99118 320.324 5.89668 322.725 6.73057 325.14C8.31932 329.884 9.59854 334.726 10.5601 339.635C11.0942 342.237 11.5312 344.881 13.0545 347.133C14.7611 349.442 17.1337 351.17 19.8518 352.084C21.7154 352.512 23.6398 352.606 25.5361 352.363C27.4371 352.304 29.3245 352.021 31.1597 351.521C35.5427 350.24 40.6868 348.072 43.407 344.202C46.0155 340.49 46.0774 335.507 45.6088 331.171C45.4292 329.529 45.1864 327.895 44.8806 326.269C44.4476 324.724 44.1431 323.145 43.9702 321.55C43.9192 318.58 46.0774 315.557 48 313.483C50.1254 311.193 46.6988 307.745 44.5662 310.044C41.1056 313.775 38.2641 318.844 39.456 324.067C40.438 328.377 41.4758 333.134 40.8276 337.535C40.6729 338.849 40.2396 340.115 39.5568 341.247C38.8738 342.275 37.9471 343.118 36.8597 343.7C33.565 345.857 29.7851 347.157 25.8626 347.481C24.9547 347.533 24.0419 347.568 23.134 347.565C22.5244 347.601 21.9126 347.56 21.3133 347.443C21.9966 347.648 21.363 347.443 21.1919 347.337C20.9212 347.179 20.6396 347.038 20.3628 346.89C19.8276 346.603 19.2838 346.324 18.7679 346.001C17.7317 345.345 16.9281 344.379 16.4714 343.24C15.783 341.239 15.2872 339.176 14.9905 337.08C14.4662 334.68 13.8892 332.291 13.2596 329.916C12.0865 325.525 10.5898 321.227 8.7819 317.059C7.03523 312.998 3.92667 309.082 5.05066 304.395C5.64864 302.089 6.7919 299.962 8.38377 298.192C10.4642 295.575 12.5678 292.974 14.7975 290.482C16.6292 288.434 18.791 285.617 21.4237 284.586C23.1315 283.914 26.0884 284.06 26.864 286.167C27.9358 289.08 32.6296 287.82 31.5457 284.873V284.87Z" fill="#211715"/>
<path d="M20.7294 300.716C23.316 297.815 25.9803 294.977 28.6823 292.186C29.0901 291.765 29.5222 291.362 29.9216 290.934C29.9616 290.892 30.009 290.853 30.0527 290.813C29.6958 291.143 30.0842 290.813 30.3464 290.645C30.5546 290.513 30.787 290.425 31.0298 290.384L31.2871 290.33C31.0727 290.361 31.1152 290.366 31.4146 290.343C31.5852 290.342 31.7558 290.35 31.9256 290.367C31.7014 290.349 31.7374 290.367 32.0336 290.423C32.3091 290.526 32.3565 290.533 32.1781 290.445C32.3359 290.518 32.4898 290.6 32.6393 290.688C32.9585 290.854 32.7182 290.688 32.9974 290.946C33.126 291.064 33.2474 291.189 33.3615 291.321C33.5557 291.543 33.5897 291.584 33.4635 291.443C33.7548 291.807 33.9561 292.235 34.051 292.693C34.0922 292.851 34.1262 293.01 34.1529 293.171C34.1197 292.927 34.1153 292.951 34.1396 293.24C34.1396 293.397 34.1396 293.553 34.1396 293.709C34.1893 293.446 34.1881 293.458 34.1396 293.744C33.9862 294.365 34.077 295.022 34.3932 295.579C34.7094 296.136 35.2269 296.55 35.8389 296.735C36.46 296.901 37.1212 296.815 37.6798 296.496C38.2384 296.178 38.6496 295.652 38.8249 295.033C39.095 293.678 39.0178 292.277 38.6005 290.96C38.1831 289.643 37.4393 288.454 36.4385 287.503C35.349 286.473 33.968 285.804 32.4847 285.591C31.0014 285.377 29.4884 285.628 28.1531 286.309C26.9934 287.001 25.9574 287.883 25.0882 288.918C23.8169 290.236 22.5582 291.567 21.312 292.909C19.9635 294.352 18.6186 295.799 17.3065 297.273C16.8645 297.736 16.6178 298.352 16.6178 298.993C16.6178 299.634 16.8645 300.25 17.3065 300.713C17.7647 301.164 18.3809 301.416 19.0228 301.416C19.6647 301.416 20.2809 301.164 20.7391 300.713L20.7294 300.716Z" fill="#211715"/>
<path d="M30.5989 303.856C31.4753 302.996 32.4026 302.19 33.3251 301.38C33.841 300.927 34.3496 300.465 34.8715 300.019C35.0973 299.824 35.3279 299.636 35.5621 299.45C35.476 299.518 35.2903 299.653 35.6835 299.352C35.8219 299.248 35.9603 299.144 36.0999 299.042C36.6024 298.671 37.1134 298.313 37.6256 297.956C38.1174 297.684 38.5834 297.367 39.0179 297.01C39.1672 296.854 38.9645 297.031 38.8746 297.056C38.996 297.021 39.1271 296.986 39.2485 296.947C39.433 296.888 39.5993 296.982 39.1914 296.947C39.2897 296.955 39.3941 296.947 39.4937 296.947C39.5726 296.947 40.0023 296.988 39.683 296.947C39.3832 296.907 39.7267 296.961 39.7704 296.974C39.9039 297.01 40.0423 297.053 40.177 297.087C40.591 297.19 40.0824 296.992 40.2875 297.128C40.4926 297.264 40.7305 297.371 40.932 297.521C40.4963 297.189 41.2561 297.864 40.9818 297.58C40.7572 297.347 41.0146 297.638 41.0607 297.72C41.1068 297.803 41.1578 297.893 41.2064 297.981C41.4224 298.371 41.2452 298.066 41.2064 297.97C41.2658 298.137 41.3205 298.305 41.3678 298.477C41.4042 298.613 41.4236 298.757 41.4637 298.892C41.5426 299.158 41.4552 298.809 41.4528 298.763C41.4625 299.029 41.4698 299.283 41.4528 299.551C41.4528 299.484 41.5741 299.152 41.4613 299.346C41.4285 299.404 41.2913 299.807 41.3921 299.579C41.4928 299.35 41.3095 299.721 41.3059 299.726C41.1991 299.908 41.0959 300.091 40.9806 300.267C40.6998 300.701 40.39 301.116 40.0532 301.509C39.8457 301.771 39.6418 302.035 39.4184 302.285C38.8819 302.883 38.3054 303.447 37.7324 304.01C36.2929 305.425 34.8193 306.808 33.3457 308.184C32.8956 308.643 32.6434 309.261 32.6434 309.904C32.6434 310.547 32.8956 311.165 33.3457 311.624C33.8074 312.068 34.4226 312.316 35.0627 312.316C35.7027 312.316 36.318 312.068 36.7796 311.624C38.2969 310.202 39.8141 308.781 41.2974 307.321C43.0122 305.78 44.4688 303.973 45.6113 301.97C46.1309 300.902 46.3652 299.717 46.2913 298.531C46.2174 297.345 45.8379 296.199 45.1898 295.204C44.5416 294.209 43.647 293.4 42.5934 292.855C41.5397 292.31 40.363 292.048 39.1781 292.094C37.7046 292.245 36.3079 292.827 35.1616 293.767C32.3091 295.757 29.6292 297.985 27.1505 300.426C26.7082 300.885 26.4636 301.499 26.4691 302.137C26.4746 302.775 26.7299 303.385 27.18 303.836C27.6301 304.287 28.239 304.543 28.8755 304.548C29.512 304.554 30.1253 304.309 30.5831 303.866L30.5989 303.856Z" fill="#211715"/>
<path d="M44.0527 304.437C44.213 304.346 44.3744 304.262 44.5383 304.183C44.3574 304.254 44.4023 304.24 44.6706 304.142C44.7701 304.114 45.4401 303.971 44.9595 304.03C45.1929 304.004 45.4284 304.002 45.6622 304.024C45.2107 303.985 45.9997 304.145 46.1053 304.17C46.3092 304.24 46.2712 304.224 45.9912 304.121C46.1126 304.187 46.2339 304.258 46.3553 304.335C46.5483 304.457 46.7365 304.589 46.9173 304.728C46.5677 304.46 47.0557 304.85 47.1249 304.913C47.3244 305.085 47.5137 305.268 47.6917 305.462C47.4138 305.16 47.6723 305.444 47.7767 305.622C47.8809 305.797 47.9746 305.978 48.0571 306.164C47.8325 305.658 48.0911 306.348 48.1226 306.462C48.1873 306.698 48.2376 306.938 48.2731 307.18C48.2112 306.743 48.2549 307.18 48.2598 307.371C48.2646 307.562 48.2489 307.788 48.2477 307.997C48.2193 308.282 48.2242 308.271 48.2622 307.964C48.2404 308.098 48.2137 308.23 48.1821 308.363C48.1372 308.553 48.0401 308.746 48.0134 308.936C48.0547 308.652 48.1348 308.673 48.0486 308.858C48 308.964 47.9515 309.07 47.9017 309.175C47.7795 309.439 47.6582 309.702 47.5376 309.965C47.2139 310.655 46.8805 311.345 46.5374 312.032C45.9407 313.343 45.2553 314.612 44.4861 315.83C44.1649 316.388 44.0762 317.051 44.2391 317.674C44.402 318.297 44.8034 318.83 45.3564 319.159C45.9161 319.469 46.5733 319.551 47.1918 319.388C47.8103 319.226 48.3427 318.831 48.6786 318.286C49.6099 316.8 50.4333 315.25 51.1426 313.646C52.1209 311.969 52.7814 310.125 53.0907 308.207C53.2188 306.93 53.0415 305.641 52.5735 304.447C52.1056 303.252 51.3604 302.186 50.3997 301.337C49.326 300.313 47.9956 299.598 46.5495 299.27C44.8393 299.009 43.0917 299.35 41.6045 300.235C41.0531 300.565 40.6529 301.098 40.4902 301.721C40.3274 302.343 40.415 303.005 40.7342 303.563C41.0684 304.11 41.6005 304.506 42.2195 304.668C42.8384 304.831 43.4961 304.748 44.0552 304.436L44.0527 304.437Z" fill="#211715"/>
<path d="M34.8836 287.196C36.0792 286.487 37.0478 285.331 38.173 284.704C39.0132 284.284 39.9587 284.125 40.8896 284.245C43.4604 284.571 45.4571 286.416 47.1394 288.33C48.0044 289.232 48.7316 290.256 49.2976 291.371C49.8008 292.398 50.0589 293.528 50.0514 294.671C50.0368 294.759 49.7855 295.367 49.9215 295.096C49.9118 295.117 49.4809 295.714 49.7115 295.441C49.6156 295.553 48.84 296.2 49.3862 295.806C49.2199 295.928 49.0488 296.04 48.8716 296.143C48.4886 296.402 48.0512 296.568 47.5934 296.629C47.1105 296.738 46.612 296.757 46.1223 296.685C45.5015 296.534 44.8463 296.625 44.2909 296.942C43.7355 297.258 43.322 297.776 43.1351 298.388C42.9693 299.01 43.0546 299.673 43.3726 300.233C43.6906 300.793 44.2157 301.205 44.8344 301.38C46.2364 301.663 47.6848 301.617 49.0662 301.246C50.4476 300.875 51.7245 300.189 52.797 299.241C55.2246 296.974 55.2538 293.646 54.2244 290.681C53.1368 287.901 51.4097 285.418 49.1835 283.433C47.0153 281.219 44.1639 279.805 41.0923 279.42C39.383 279.253 37.661 279.562 36.1156 280.312C34.7137 280.98 33.6674 282.274 32.4342 283.006C29.7468 284.599 32.1914 288.806 34.8836 287.207V287.196Z" fill="#211715"/>
<path d="M395.068 347.677C399.157 337.641 403.287 327.648 406.805 317.394C410.896 305.476 415.278 293.649 419.149 281.651C421.298 274.988 423.275 268.265 424.896 261.449L421.33 262.903C424.532 264.844 427.482 267.175 430.113 269.842C432.662 272.346 435.445 275.214 436.868 278.555L436.536 277.326L436.555 277.718L436.886 276.49C437.188 275.944 436.83 276.411 436.485 276.625C436.2 276.801 435.916 276.98 435.636 277.164C434.896 277.638 434.166 278.124 433.437 278.614C432.07 279.531 430.71 280.459 429.325 281.351C428.968 281.572 428.673 281.881 428.469 282.249C428.265 282.617 428.157 283.03 428.157 283.451C428.157 283.872 428.265 284.286 428.469 284.653C428.673 285.021 428.968 285.33 429.325 285.551C431.251 286.969 433.298 288.239 435.165 289.736C435.675 290.146 437.302 291.216 437.433 291.794C437.322 291.308 437.103 292.044 436.994 292.245C436.67 292.851 436.343 293.456 436.012 294.06C433.66 298.377 431.249 302.661 428.778 306.911C423.624 315.81 418.284 324.6 412.877 333.344C409.903 338.152 406.909 342.947 403.895 347.73C402.226 350.388 406.425 352.832 408.087 350.186C413.938 340.87 419.758 331.532 425.434 322.108C428.31 317.332 431.143 312.53 433.93 307.701C436.524 303.193 439.238 298.686 441.551 294.023C443.129 290.849 441.405 288.644 438.986 286.616C436.703 284.701 434.172 283.114 431.776 281.351V285.551C433.385 284.515 434.961 283.429 436.553 282.369C437.978 281.62 439.321 280.723 440.559 279.693C442.999 277.121 439.443 273.185 437.824 271.129C433.946 266.156 429.187 261.942 423.784 258.699C423.462 258.515 423.102 258.407 422.732 258.383C422.361 258.359 421.991 258.42 421.647 258.561C421.304 258.701 420.997 258.918 420.749 259.195C420.502 259.471 420.32 259.801 420.218 260.158C417.14 272.361 413.426 284.394 409.091 296.207C405.185 307.341 401.501 318.585 397.213 329.577C395.014 335.211 392.672 340.787 390.39 346.388C390.223 347.01 390.308 347.673 390.626 348.233C390.944 348.793 391.47 349.205 392.089 349.379C392.71 349.535 393.367 349.445 393.923 349.128C394.479 348.811 394.892 348.291 395.075 347.677H395.068Z" fill="#211715"/>
<path d="M393.24 346.384C389.15 336.348 385.021 326.355 381.502 316.101C377.412 304.183 373.031 292.355 369.159 280.358C367.009 273.694 365.032 266.972 363.412 260.157C363.31 259.799 363.128 259.47 362.88 259.193C362.633 258.917 362.326 258.7 361.982 258.559C361.639 258.419 361.268 258.358 360.898 258.382C360.528 258.406 360.168 258.514 359.846 258.697C354.442 261.94 349.682 266.154 345.805 271.128C344.227 273.127 340.829 276.859 342.881 279.445C343.874 280.698 345.754 281.485 347.075 282.364C348.669 283.424 350.243 284.51 351.853 285.547V281.346C349.724 282.912 347.501 284.345 345.419 285.981C343.505 287.486 341.212 289.264 341.414 291.961C341.635 293.183 342.11 294.346 342.807 295.373C343.468 296.597 344.135 297.816 344.808 299.031C346.059 301.302 347.327 303.559 348.613 305.803C354.111 315.436 359.853 324.93 365.68 334.367C368.945 339.652 372.232 344.922 375.541 350.177C377.202 352.821 381.405 350.383 379.734 347.722C368.972 330.586 358.243 313.394 348.493 295.653C347.867 294.518 347.248 293.379 346.634 292.237C346.483 292.029 346.36 291.801 346.27 291.56C346.281 291.654 346.007 292.108 346.373 291.614C346.769 291.157 347.21 290.742 347.69 290.376C349.748 288.581 352.109 287.158 354.303 285.543C354.66 285.321 354.955 285.012 355.159 284.645C355.364 284.277 355.471 283.863 355.471 283.443C355.471 283.022 355.364 282.608 355.159 282.24C354.955 281.873 354.66 281.564 354.303 281.342C352.918 280.451 351.559 279.518 350.191 278.606C349.533 278.163 348.875 277.723 348.209 277.294C347.923 277.109 347.638 276.929 347.351 276.746C347.143 276.615 346.933 276.486 346.723 276.36C346.437 276.158 346.442 276.198 346.74 276.481L347.073 277.71L347.09 277.318L346.758 278.546C348.181 275.205 350.964 272.337 353.513 269.834C356.144 267.166 359.094 264.835 362.296 262.894L358.73 261.441C361.808 273.644 365.522 285.677 369.857 297.49C373.763 308.624 377.447 319.868 381.735 330.861C383.934 336.494 386.276 342.07 388.558 347.671C388.746 348.282 389.159 348.799 389.714 349.115C390.269 349.432 390.924 349.524 391.544 349.373C392.164 349.199 392.689 348.788 393.008 348.227C393.326 347.667 393.411 347.004 393.243 346.381L393.24 346.384Z" fill="#211715"/>
<path d="M101.886 242.817C100.262 244.657 98.7566 246.595 97.2139 248.502C95.7233 250.345 94.0786 252.014 93.4414 254.37C92.5565 257.638 93.9791 259.834 95.6372 262.414C97.5877 265.454 99.6755 268.4 101.909 271.236C103.968 274.084 106.467 276.584 109.313 278.642C109.873 278.953 110.53 279.035 111.148 278.873C111.767 278.71 112.299 278.315 112.634 277.769C116.669 272.368 120.469 266.728 124.93 261.662C125.184 261.395 125.376 261.075 125.49 260.724C125.605 260.373 125.64 260.001 125.593 259.635C125.546 259.269 125.418 258.918 125.218 258.608C125.018 258.298 124.752 258.036 124.438 257.842C124.29 257.735 124.145 257.625 123.999 257.514C123.853 257.403 123.038 256.773 123.573 257.188C122.823 256.607 122.074 256.023 121.327 255.438C119.156 253.735 116.988 252.033 114.823 250.33C111.652 247.831 108.46 245.355 105.318 242.818C104.854 242.379 104.24 242.134 103.602 242.134C102.964 242.134 102.35 242.379 101.886 242.818C101.435 243.276 101.182 243.894 101.182 244.538C101.182 245.182 101.435 245.8 101.886 246.258C105.11 248.862 108.387 251.404 111.642 253.969C115.071 256.669 118.44 259.495 121.988 262.044L121.496 258.223C116.762 263.598 112.724 269.584 108.442 275.315L111.763 274.443C109.448 272.686 107.403 270.598 105.694 268.247C103.764 265.833 101.994 263.283 100.303 260.695C99.6901 259.759 99.0892 258.815 98.5114 257.856C97.9859 256.979 97.8863 257.004 98.015 256.1C98.2748 254.287 99.8661 252.908 100.956 251.556C102.391 249.774 103.801 247.973 105.315 246.258C107.382 243.92 103.96 240.466 101.886 242.817Z" fill="#211715"/>
<path d="M142.779 350.555C154.326 330.502 165.902 310.385 176.303 289.703C176.744 289.022 177.032 288.253 177.15 287.45C177.267 286.646 177.209 285.827 176.982 285.048C176.297 283.646 175.326 282.403 174.133 281.399C171.863 279.044 169.494 276.789 167.111 274.55L166.619 278.37L172.654 274.92C174.419 273.909 176.503 273.016 176.365 270.629C176.08 269.144 175.41 267.76 174.423 266.616C173.48 265.303 172.45 264.055 171.341 262.88C166.797 258.186 161.703 254.062 156.169 250.596C155.847 250.412 155.487 250.303 155.117 250.278C154.747 250.254 154.376 250.313 154.032 250.453C153.689 250.594 153.382 250.81 153.134 251.087C152.886 251.363 152.704 251.692 152.602 252.05C146.668 278.408 139.225 304.403 130.311 329.905C128.173 336.015 125.805 342.039 123.38 348.04C123.214 348.663 123.299 349.326 123.617 349.886C123.935 350.446 124.46 350.858 125.079 351.032C125.7 351.188 126.357 351.097 126.913 350.78C127.469 350.463 127.882 349.944 128.065 349.329C137.459 325.58 145.331 301.255 151.636 276.502C153.654 268.814 155.537 261.094 157.288 253.34L153.722 254.793C157.232 257.052 160.575 259.563 163.723 262.307C165.401 263.754 166.991 265.3 168.485 266.937C169.107 267.614 169.69 268.325 170.234 269.066C170.742 269.68 171.177 270.351 171.528 271.067L171.859 269.84C172.197 269.545 172.082 269.588 171.515 269.969L170.465 270.568L168.366 271.769L164.169 274.169C163.852 274.36 163.582 274.62 163.379 274.93C163.177 275.24 163.047 275.592 163 275.96C162.952 276.328 162.989 276.701 163.106 277.053C163.223 277.404 163.419 277.724 163.677 277.989C165.65 279.844 167.615 281.71 169.52 283.634C170.37 284.493 171.254 285.345 172.045 286.262C172.736 287.063 172.373 286.432 172.235 287.004C171.97 287.691 171.633 288.348 171.229 288.964C168.782 293.722 166.289 298.455 163.752 303.164C158.521 312.901 153.143 322.558 147.693 332.173C144.677 337.493 141.642 342.803 138.589 348.105C137.024 350.822 141.218 353.275 142.78 350.56L142.779 350.555Z" fill="#211715"/>
<path d="M144.179 246.257C145.693 247.972 147.104 249.773 148.539 251.555C149.631 252.906 151.22 254.287 151.48 256.098C151.601 256.963 151.503 256.987 150.982 257.854C150.407 258.814 149.803 259.758 149.192 260.694C147.501 263.282 145.731 265.831 143.8 268.245C142.091 270.597 140.046 272.685 137.731 274.442L141.053 275.314C136.771 269.583 132.731 263.597 127.997 258.222L127.512 262.043C131.057 259.495 134.43 256.668 137.858 253.968C141.114 251.403 144.39 248.86 147.615 246.257C148.066 245.799 148.319 245.181 148.319 244.537C148.319 243.893 148.066 243.275 147.615 242.817C147.152 242.374 146.537 242.128 145.898 242.128C145.258 242.128 144.644 242.374 144.181 242.817C141.041 245.354 137.849 247.83 134.677 250.329C132.545 252.007 130.411 253.684 128.274 255.359C127.493 255.969 126.711 256.578 125.927 257.183C126.445 256.783 125.65 257.395 125.502 257.509C125.354 257.623 125.21 257.73 125.062 257.837C124.749 258.031 124.482 258.293 124.283 258.603C124.083 258.913 123.955 259.264 123.908 259.63C123.86 259.996 123.896 260.368 124.01 260.719C124.125 261.07 124.316 261.39 124.571 261.657C129.03 266.723 132.825 272.36 136.867 277.764C137.2 278.312 137.732 278.709 138.351 278.872C138.971 279.035 139.629 278.951 140.188 278.638C142.982 276.619 145.44 274.17 147.47 271.382C149.749 268.501 151.874 265.499 153.86 262.409C155.479 259.888 156.865 257.78 156.108 254.583C155.542 252.198 153.931 250.53 152.439 248.689C150.841 246.721 149.289 244.714 147.611 242.812C145.536 240.467 142.115 243.918 144.179 246.257Z" fill="#211715"/>
<path d="M233.039 400.188C231.218 380.039 228.891 359.923 226.552 339.829C225.272 328.836 224.29 317.701 221.73 306.916C218.945 295.183 214.161 283.833 204.751 275.918C193.441 266.407 178.869 261.557 165.302 256.286C164.681 256.119 164.02 256.205 163.461 256.523C162.902 256.842 162.491 257.368 162.316 257.988C162.16 258.61 162.25 259.269 162.566 259.826C162.883 260.384 163.402 260.797 164.016 260.98C175.903 265.601 188.413 269.871 198.838 277.421C203.313 280.608 207.092 284.678 209.941 289.38C212.798 294.38 214.949 299.753 216.333 305.344C219.138 315.848 220.164 326.7 221.431 337.469C222.74 348.619 223.994 359.775 225.194 370.936C226.249 380.681 227.312 390.429 228.193 400.192C228.21 400.832 228.471 401.441 228.923 401.893C229.375 402.346 229.982 402.608 230.621 402.624C231.263 402.619 231.878 402.362 232.332 401.907C232.787 401.451 233.044 400.835 233.049 400.192L233.039 400.188Z" fill="#211715"/>
<path d="M52.922 277.111C63.4324 269.162 75.8812 264.207 88.2584 259.997C91.2019 258.996 89.9383 254.297 86.9681 255.307C74.2232 259.64 61.2961 264.725 50.4714 272.911C49.9304 273.25 49.5391 273.783 49.3774 274.402C49.2157 275.021 49.2957 275.678 49.601 276.239C49.9292 276.793 50.4616 277.194 51.0831 277.358C51.7046 277.521 52.3652 277.432 52.922 277.111Z" fill="#211715"/>
<path d="M116.777 221.955C119.556 223.394 122.651 224.113 125.778 224.044C129.028 224.18 132.23 223.231 134.882 221.345C135.336 220.888 135.591 220.27 135.591 219.625C135.591 218.98 135.336 218.362 134.882 217.905C134.417 217.467 133.803 217.223 133.165 217.223C132.527 217.223 131.913 217.467 131.448 217.905C132.19 217.326 131.636 217.754 131.448 217.876C131.26 217.997 131.084 218.098 130.895 218.197C130.796 218.249 130.696 218.294 130.598 218.345C130.317 218.49 130.391 218.289 130.72 218.304C130.455 218.364 130.198 218.457 129.956 218.582C129.258 218.801 128.544 218.963 127.82 219.069C128.184 219.013 127.813 219.069 127.644 219.082C127.434 219.103 127.224 219.121 127.014 219.134C126.509 219.167 126.002 219.179 125.496 219.177C125.042 219.177 124.588 219.161 124.136 219.128C123.929 219.114 123.721 219.097 123.513 219.076C123.467 219.076 122.716 218.954 123.24 219.047C122.567 218.937 121.901 218.789 121.245 218.603C120.964 218.519 120.693 218.419 120.417 218.324C119.81 218.115 120.799 218.519 120.246 218.259C119.904 218.097 119.567 217.928 119.232 217.751C118.957 217.59 118.652 217.484 118.336 217.441C118.02 217.397 117.698 217.416 117.39 217.497C117.081 217.578 116.791 217.719 116.537 217.912C116.282 218.105 116.068 218.347 115.907 218.623C115.746 218.899 115.641 219.204 115.597 219.521C115.553 219.838 115.573 220.16 115.653 220.469C115.734 220.779 115.875 221.069 116.068 221.324C116.26 221.579 116.501 221.793 116.777 221.955Z" fill="#211715"/>
<path d="M124.498 200.767C124.91 202.256 125.24 203.767 125.486 205.293L125.4 204.646C125.429 204.853 125.435 205.063 125.417 205.271L125.503 204.624C125.489 204.72 125.467 204.815 125.435 204.906L125.678 204.325C125.65 204.388 125.618 204.449 125.579 204.506L125.958 204.014C125.914 204.067 125.865 204.116 125.811 204.16L126.297 203.779C126.18 203.851 126.058 203.914 125.933 203.969L126.513 203.725C126.318 203.808 126.114 203.867 125.906 203.902L126.55 203.814C126.363 203.837 126.173 203.837 125.985 203.814L126.629 203.901C126.416 203.87 126.207 203.819 125.992 203.79C125.678 203.689 125.343 203.674 125.021 203.746C124.7 203.76 124.388 203.86 124.118 204.036C123.562 204.361 123.158 204.895 122.995 205.519C122.832 206.143 122.923 206.806 123.248 207.363C123.401 207.638 123.609 207.879 123.858 208.071C124.108 208.263 124.393 208.403 124.698 208.481C125.195 208.548 125.675 208.674 126.18 208.696C126.944 208.7 127.697 208.52 128.376 208.171C128.808 207.973 129.19 207.681 129.495 207.317C129.801 206.953 130.021 206.525 130.14 206.064C130.296 205.319 130.288 204.55 130.118 203.808C129.875 202.349 129.535 200.902 129.16 199.47C128.986 198.86 128.587 198.338 128.045 198.011C127.628 197.766 127.148 197.652 126.666 197.682C126.183 197.713 125.721 197.887 125.339 198.182C124.956 198.477 124.669 198.879 124.516 199.338C124.363 199.797 124.35 200.292 124.478 200.758L124.498 200.767Z" fill="#211715"/>
<path d="M100.597 187.902C99.8418 190.361 100.335 196.017 104.983 196.499C111.129 196.463 111.455 189.624 109.387 186.405C107.693 183.779 102.714 182.685 100.597 187.902Z" fill="#211715"/>
<path d="M149.995 187.902C150.75 190.36 150.259 196.016 145.608 196.498C139.464 196.46 139.136 189.622 141.205 186.404C142.899 183.779 147.878 182.685 149.995 187.902Z" fill="#211715"/>
<path d="M81.4077 181.551C79.9318 180.231 78.1036 179.37 76.147 179.074C74.1904 178.778 72.1902 179.061 70.3912 179.886C69.1081 180.533 67.9848 181.458 67.103 182.594C66.2212 183.73 65.603 185.048 65.2932 186.454C63.4834 193.117 65.207 200.887 69.0159 206.564C71.5649 210.358 75.5377 213.75 80.4039 213.118C81.0413 213.098 81.6472 212.835 82.0982 212.383C82.5492 211.931 82.8114 211.324 82.8315 210.686C82.828 210.042 82.5711 209.425 82.1166 208.97C81.6621 208.514 81.0466 208.257 80.4039 208.253C73.7631 209.117 70.0124 199.457 69.5548 194.109C69.3121 191.305 69.3121 187.785 71.026 185.392C70.7832 185.731 71.2578 185.133 71.2687 185.117C71.361 185.028 71.5904 184.792 71.6596 184.738C72.1679 184.359 72.7516 184.094 73.3711 183.962C74.164 183.747 74.9969 183.728 75.7986 183.907C76.6004 184.085 77.3471 184.455 77.975 184.986C80.2995 187.064 83.7455 183.636 81.4077 181.546V181.551Z" fill="#211715"/>
<path d="M172.617 184.99C173.216 184.482 173.926 184.121 174.689 183.936C175.452 183.75 176.248 183.745 177.013 183.921C177.708 184.041 178.365 184.322 178.932 184.742C179.056 184.876 179.186 185.002 179.323 185.122C179.387 185.184 179.82 185.743 179.566 185.397C181.283 187.789 181.277 191.311 181.037 194.114C180.579 199.465 176.83 209.122 170.188 208.258C169.545 208.261 168.93 208.519 168.475 208.974C168.02 209.43 167.764 210.046 167.76 210.69C167.776 211.331 168.037 211.94 168.488 212.393C168.94 212.846 169.549 213.107 170.188 213.123C178.187 214.163 183.033 205.422 185.024 198.962C186.787 193.246 186.854 184.146 181.245 180.454C179.385 179.309 177.205 178.797 175.031 178.994C172.856 179.191 170.804 180.087 169.179 181.549C166.843 183.637 170.286 187.068 172.612 184.988L172.617 184.99Z" fill="#211715"/>
<path d="M168.132 206.592C167.394 209.827 166.355 212.986 165.027 216.026C165.284 215.403 164.853 216.4 164.754 216.608C164.528 217.086 164.288 217.559 164.041 218.029C163.474 219.108 162.868 220.166 162.234 221.205C159.025 226.663 154.933 231.548 150.125 235.661C147.481 237.945 144.347 239.587 140.966 240.46C137.924 241.171 139.212 245.862 142.256 245.15C149.211 243.527 154.992 238.462 159.536 233.16C163.429 228.766 166.681 223.841 169.193 218.531C169.314 218.274 169.416 218.017 169.525 217.758C169.551 217.697 169.889 216.877 169.775 217.149C169.891 216.879 170.488 215.477 170.746 214.784C171.614 212.542 172.304 210.235 172.81 207.885C173.441 204.83 168.763 203.524 168.128 206.592H168.132Z" fill="#211715"/>
<path d="M77.6485 207.725C79.7238 216.901 84.0142 225.425 90.1435 232.552C96.0426 239.393 103.617 244.803 112.695 246.161C113.315 246.311 113.97 246.219 114.525 245.903C115.079 245.586 115.493 245.07 115.681 244.458C115.847 243.836 115.762 243.173 115.444 242.613C115.126 242.053 114.6 241.64 113.981 241.465C105.623 240.215 99.0018 235.405 93.5725 229.109C88.0294 222.584 84.168 214.797 82.3265 206.429C81.6371 203.378 76.9554 204.669 77.6485 207.725Z" fill="#211715"/>
<path d="M156.811 117.295C148.656 112.087 139.351 108.96 129.711 108.188C120.071 107.415 110.389 109.021 101.512 112.865C94.2778 116.13 87.7951 120.857 82.4706 126.751C77.1462 132.645 73.0948 139.578 70.5708 147.114C67.0151 158.281 66.7316 170.235 69.7539 181.558C70.5271 184.589 75.216 183.305 74.4356 180.264C70.1302 163.36 73.2825 145.002 84.7226 131.558C89.1598 126.292 94.5565 121.92 100.625 118.674C109.053 114.421 118.444 112.445 127.868 112.94C137.292 113.434 146.425 116.383 154.364 121.496C156.993 123.204 159.429 118.994 156.813 117.295H156.811Z" fill="#211715"/>
<path d="M180.615 181.558C182.988 172.309 183.27 162.646 181.44 153.274C179.909 145.533 176.737 138.211 172.139 131.804C169.861 128.657 167.269 125.751 164.402 123.132C162.096 121.03 158.651 124.46 160.968 126.572C166.296 131.507 170.549 137.492 173.458 144.152C176.368 150.812 177.872 158.003 177.876 165.273C177.871 170.333 177.219 175.371 175.934 180.264C175.193 183.305 179.872 184.603 180.615 181.558Z" fill="#211715"/>
<path d="M140.986 157.234C145.439 159.28 149.438 162.2 152.746 165.821C156.353 169.363 159.264 173.553 161.326 178.173C161.513 178.784 161.927 179.301 162.482 179.618C163.037 179.934 163.691 180.026 164.312 179.875C164.931 179.701 165.457 179.289 165.775 178.729C166.093 178.169 166.178 177.506 166.011 176.884C163.738 171.588 160.496 166.766 156.453 162.665C152.806 158.611 148.38 155.336 143.441 153.035C142.88 152.729 142.224 152.649 141.607 152.811C140.99 152.973 140.457 153.365 140.118 153.907C139.798 154.465 139.71 155.127 139.873 155.75C140.036 156.373 140.437 156.906 140.99 157.235L140.986 157.234Z" fill="#211715"/>
<path d="M88.6978 178.859C94.1036 172.585 100.258 167 107.021 162.229C107.722 161.759 108.434 161.307 109.165 160.891C109.334 160.824 109.493 160.734 109.638 160.623C109.896 160.289 109.638 160.723 109.433 160.567C108.167 159.613 108.767 160.606 108.834 161.251C108.774 162.29 108.815 163.333 108.955 164.364C109.281 165.43 110.01 166.327 110.986 166.862C113.049 167.957 114.883 166.781 116.664 165.753C118.335 164.789 119.997 163.807 121.665 162.834C125.761 160.338 130.005 158.094 134.375 156.118C134.928 155.789 135.329 155.256 135.493 154.633C135.656 154.009 135.567 153.347 135.246 152.789C134.91 152.244 134.378 151.85 133.76 151.688C133.141 151.526 132.485 151.608 131.925 151.917C128.049 153.657 124.28 155.625 120.637 157.812C118.833 158.851 117.041 159.91 115.243 160.958C114.434 161.315 113.665 161.758 112.948 162.277C112.89 162.336 112.645 162.388 112.622 162.476C112.917 162.627 113.228 162.743 113.549 162.823C113.705 162.749 113.585 162.895 113.694 162.527C113.739 162.25 113.746 161.969 113.716 161.69C113.667 159.462 113.009 156.726 110.641 155.925C108.699 155.269 107 156.469 105.414 157.477C101.859 159.823 98.4995 162.454 95.3701 165.346C91.8252 168.519 88.4529 171.881 85.2676 175.417C83.1811 177.738 86.6028 181.189 88.7015 178.857L88.6978 178.859Z" fill="#211715"/>
<path d="M380.843 289.655C382.521 290.905 384.144 292.227 385.82 293.481C386.689 294.13 387.57 294.763 388.478 295.355C389.433 296.165 390.583 296.71 391.814 296.936C392.99 296.727 394.092 296.211 395.007 295.441C395.917 294.855 396.8 294.225 397.668 293.578C399.393 292.295 401.059 290.934 402.784 289.65C403.325 289.311 403.717 288.777 403.878 288.159C404.04 287.54 403.96 286.883 403.654 286.321C403.326 285.768 402.794 285.366 402.172 285.203C401.551 285.04 400.89 285.128 400.333 285.449C397.136 287.832 394.115 290.506 390.588 292.403H393.038C389.511 290.506 386.49 287.832 383.293 285.449C382.736 285.128 382.075 285.04 381.454 285.203C380.832 285.366 380.3 285.768 379.972 286.321C379.662 286.882 379.579 287.541 379.741 288.161C379.904 288.781 380.298 289.314 380.843 289.65V289.655Z" fill="#211715"/>
<path d="M370.333 249.848C368.738 251.654 367.266 253.563 365.747 255.432C364.348 257.154 362.876 258.716 362.341 260.937C361.613 263.94 362.948 265.996 364.471 268.369C366.302 271.218 368.263 273.974 370.355 276.639C372.289 279.31 374.636 281.655 377.307 283.586C377.867 283.897 378.524 283.979 379.143 283.817C379.762 283.654 380.294 283.259 380.63 282.713C384.392 277.674 387.939 272.413 392.1 267.687C392.354 267.42 392.546 267.099 392.66 266.749C392.775 266.398 392.81 266.026 392.763 265.66C392.716 265.294 392.588 264.943 392.388 264.633C392.188 264.323 391.922 264.061 391.608 263.867C391.237 263.6 390.88 263.315 390.516 263.035C391.046 263.444 390.48 263.006 390.369 262.92L389.796 262.475L388.68 261.601C386.666 260.027 384.655 258.446 382.647 256.858C379.684 254.525 376.699 252.21 373.767 249.841C373.303 249.402 372.689 249.157 372.05 249.157C371.412 249.157 370.798 249.402 370.334 249.841C369.883 250.299 369.63 250.917 369.63 251.561C369.63 252.205 369.883 252.822 370.334 253.281C376.524 258.277 382.704 263.421 389.159 268.063L388.673 264.243C384.239 269.279 380.455 274.884 376.443 280.255L379.764 279.382C377.671 277.792 375.818 275.908 374.262 273.787C372.425 271.505 370.742 269.089 369.141 266.638C368.575 265.773 368.018 264.901 367.484 264.016C367.311 263.761 367.156 263.496 367.018 263.221C366.965 263.14 366.918 263.055 366.877 262.966C366.967 263.316 366.985 262.463 366.998 262.343C367.241 260.672 368.79 259.359 369.79 258.109C371.096 256.485 372.384 254.847 373.763 253.284C375.823 250.95 372.396 247.494 370.333 249.848Z" fill="#211715"/>
<path d="M409.867 253.288C411.245 254.851 412.537 256.49 413.839 258.112C414.827 259.339 416.303 260.613 416.609 262.23C416.78 263.136 416.693 263.125 416.154 264.019C415.615 264.913 415.062 265.777 414.497 266.641C412.928 269.041 411.285 271.406 409.493 273.645C407.907 275.822 406.014 277.757 403.874 279.389L407.195 280.262C403.183 274.892 399.399 269.286 394.966 264.25L394.474 268.07C400.929 263.428 407.112 258.284 413.299 253.288C413.751 252.83 414.004 252.212 414.004 251.568C414.004 250.924 413.751 250.306 413.299 249.849C412.837 249.406 412.222 249.159 411.583 249.159C410.944 249.159 410.329 249.406 409.867 249.849C406.932 252.218 403.95 254.532 400.986 256.866C398.978 258.448 396.967 260.029 394.954 261.609C394.582 261.901 394.21 262.192 393.837 262.482L393.342 262.868C393.24 262.947 392.564 263.476 393.117 263.043C392.753 263.322 392.395 263.607 392.025 263.875C391.711 264.068 391.445 264.33 391.246 264.64C391.046 264.95 390.918 265.301 390.871 265.667C390.824 266.033 390.859 266.405 390.973 266.756C391.088 267.107 391.279 267.427 391.533 267.694C395.694 272.421 399.24 277.682 403.004 282.72C403.337 283.268 403.87 283.665 404.489 283.828C405.109 283.991 405.767 283.907 406.326 283.593C408.997 281.663 411.344 279.318 413.279 276.647C415.372 273.987 417.333 271.23 419.162 268.377C420.689 266.002 422.016 263.949 421.292 260.945C420.759 258.73 419.281 257.154 417.886 255.439C416.368 253.57 414.895 251.662 413.3 249.856C411.226 247.494 407.803 250.949 409.867 253.288Z" fill="#211715"/>
<path d="M443.688 191.054C445.653 183.434 446.13 175.505 445.091 167.704C444.231 161.143 442.187 154.794 439.06 148.966C436.403 144.057 432.879 139.673 428.658 136.026C424.154 131.993 419.112 128.608 413.677 125.968C400.352 120.144 385.33 119.548 371.587 124.297C360.546 128.259 351.04 135.62 344.429 145.325C335.281 158.681 333.207 175.541 337.207 191.059C337.987 194.089 342.669 192.804 341.888 189.766C338.564 176.868 339.745 163.041 346.38 151.362C351.583 142.287 359.448 135.037 368.907 130.595C381.114 125.154 394.914 124.496 407.582 128.751C412.994 130.751 418.037 133.637 422.505 137.294C426.487 140.259 429.955 143.861 432.769 147.956C436.354 153.442 438.792 159.6 439.936 166.057C441.344 173.935 441.026 182.024 439.005 189.766C438.255 192.807 442.937 194.102 443.687 191.059L443.688 191.054Z" fill="#211715"/>
<path d="M417.245 130.47C420.44 126.879 424.639 124.246 429.555 124.157C433.426 124.073 437.18 125.494 440.03 128.121C441.351 129.331 442.395 130.813 443.09 132.466C443.875 134.962 444.42 137.527 444.717 140.127C445.626 145.779 447.585 151.209 450.493 156.137C451.809 158.29 453.549 160.152 455.606 161.61C457.754 162.959 460.012 164.122 462.356 165.088L461.485 161.759C459.679 164.643 457.361 167.17 454.646 169.217C451.762 171.22 448.267 172.141 444.772 171.821C441.654 171.596 441.668 176.462 444.772 176.685C449.13 177.037 453.478 175.889 457.097 173.43C460.501 170.92 463.41 167.8 465.677 164.227C466 163.669 466.089 163.007 465.926 162.384C465.763 161.76 465.361 161.227 464.807 160.899C462.667 159.995 460.589 158.951 458.585 157.774C456.826 156.584 455.374 154.994 454.348 153.133C451.246 147.889 449.991 142.122 448.915 136.198C448.598 133.701 447.883 131.272 446.798 129.002C445.737 127.053 444.31 125.328 442.596 123.921C438.979 120.918 434.426 119.28 429.729 119.291C426.683 119.393 423.691 120.135 420.948 121.469C418.206 122.803 415.773 124.698 413.808 127.033C411.735 129.363 415.156 132.816 417.24 130.472L417.245 130.47Z" fill="#211715"/>
<path d="M365.616 171.197C368.186 175.762 371.238 180.98 373.967 184.987C374.391 185.604 375.017 186.053 375.737 186.257C376.457 186.46 377.225 186.405 377.908 186.101C378.566 185.81 379.279 185.493 379.953 185.184C380.343 185.007 380.694 184.755 380.985 184.441C381.276 184.127 381.501 183.758 381.648 183.356C381.795 182.954 381.86 182.526 381.84 182.098C381.82 181.67 381.715 181.251 381.531 180.864C379.689 176.997 376.506 170.514 374.568 166.743C374.176 165.982 373.507 165.4 372.7 165.118C371.892 164.837 371.007 164.877 370.228 165.23C369.217 165.689 368.087 166.203 367.062 166.69C366.659 166.877 366.299 167.146 366.006 167.479C365.712 167.812 365.49 168.203 365.354 168.626C365.218 169.05 365.172 169.496 365.217 169.939C365.262 170.381 365.398 170.81 365.616 171.197Z" fill="#211715"/>
<path d="M404.404 158.579C398.884 164.733 391.612 169.07 384.514 173.144C378.513 176.706 372.271 179.843 365.833 182.533C361.808 184.143 357.707 185.554 353.598 186.931C350.651 187.921 351.915 192.621 354.89 191.623C361.383 189.443 367.775 187.08 374.024 184.267C377.982 182.484 381.744 180.308 385.52 178.168C389.56 175.879 393.566 173.515 397.39 170.871C401.208 168.341 404.715 165.37 407.839 162.018C409.924 159.695 406.504 156.244 404.407 158.579H404.404Z" fill="#211715"/>
<path d="M403.779 160.946C406.149 168.67 409.241 176.055 414.446 182.308C419.229 188.047 425.428 193.682 432.744 195.794C435.753 196.661 437.038 191.969 434.036 191.103C427.53 189.225 422.116 183.945 417.879 178.868C413.23 173.296 410.568 166.522 408.461 159.653C407.546 156.67 402.858 157.941 403.779 160.946Z" fill="#211715"/>
</g>
<defs>
<clipPath id="clip0_1_72">
<rect width="512" height="295" fill="white" transform="translate(0 108)"/>
</clipPath>
</defs>
</svg>
