<svg width="512" height="512" viewBox="0 0 512 512" fill="none" xmlns="http://www.w3.org/2000/svg">
<rect width="512" height="512" fill="white"/>
<g clip-path="url(#clip0_1_52)">
<rect width="512" height="455" transform="translate(0 29)" fill="white"/>
<path d="M508.628 347.489C508.599 327.509 508.497 286.617 508.497 272.088C508.497 272.088 508.497 271.886 508.509 271.493C418.438 219.649 282.81 141.224 221.214 105.554C169.055 135.743 64.0792 196.428 3.35052 231.332C3.35052 248.281 3.47418 298.497 3.46416 313.395C58.8604 345.483 203.922 429.375 293.107 480.68C356.416 444.268 459.929 384.421 508.639 356.213V355.446C508.636 353.508 508.633 350.78 508.628 347.489Z" fill="white"/>
<path d="M438.157 224.925C438.135 210.009 438.06 179.482 438.06 168.63C438.06 168.63 438.06 168.48 438.06 168.186C370.829 129.479 269.575 70.9336 223.59 44.3042C184.654 66.8442 106.281 112.148 60.9442 138.206C60.9442 150.859 61.0361 188.348 61.0294 199.469C102.385 223.427 210.681 286.057 277.267 324.357C324.53 297.175 401.809 252.494 438.173 231.437V230.864C438.165 229.413 438.157 227.38 438.157 224.925Z" fill="white"/>
<path d="M220.671 45.9928C180.847 69.041 105.176 112.784 60.9426 138.206C60.9426 150.859 61.0345 188.348 61.0278 199.47C79.0136 209.89 109.656 227.622 144.03 247.489C144.005 232.221 143.94 198.491 143.933 185.658C213.84 145.256 272.735 111.185 305.953 91.9472C273.044 72.9264 243.261 55.6946 223.589 44.2992L220.671 45.9928Z" fill="white"/>
<path d="M154.715 289.325C154.359 287.575 154.388 285.768 154.8 284.03C155.213 282.292 155.999 280.664 157.103 279.261C159.63 276.258 162.714 273.774 166.185 271.945C169.695 274.695 183.954 275.226 194.158 272.063C194.503 271.956 194.831 271.798 195.13 271.594C195.257 272.784 195.337 273.521 195.337 273.521C196.397 283.218 190.526 287.117 186.801 289.335C182.361 291.973 177.578 293.986 172.587 295.317C169.591 296.243 166.437 296.553 163.318 296.227C161.762 296.042 160.264 295.52 158.93 294.697C157.597 293.874 156.458 292.77 155.594 291.462C155.202 290.794 154.907 290.075 154.715 289.325Z" fill="white"/>
<path d="M124.865 268.315C125.317 267.036 125.961 265.834 126.775 264.749C129.521 261.559 132.866 258.938 136.621 257.035C138.533 255.717 140.701 254.816 142.984 254.392C143.893 254.848 144.851 255.2 145.838 255.442C152.046 256.958 158.716 254.718 164.554 253.422C164.681 257.083 164.875 260.743 165.208 264.473L162.596 264.899C162.79 269.079 159.087 272.341 155.49 274.479C151.2 277.029 146.579 278.975 141.758 280.262C138.86 281.158 135.811 281.454 132.796 281.132C131.29 280.958 129.841 280.457 128.55 279.661C127.26 278.866 126.16 277.798 125.328 276.531C124.656 275.278 124.267 273.893 124.187 272.474C124.107 271.055 124.338 269.635 124.865 268.315Z" fill="white"/>
<path d="M179.14 67.5263C178.675 77.3063 181.952 86.8959 188.304 94.3446C194.063 100.949 202.198 105.01 210.936 105.643C219.674 106.276 228.308 103.43 234.959 97.7251C239.553 97.9658 244.081 96.5478 247.719 93.7294C249.349 92.4596 250.629 90.796 251.439 88.8949C252.249 86.9939 252.562 84.9179 252.35 82.8623C252.087 81.4379 251.48 80.0994 250.581 78.9642C249.682 77.829 248.519 76.9315 247.193 76.3504C249.702 69.8249 249.986 62.6529 248.002 55.949C246.017 49.2451 241.875 43.3848 236.219 39.2786C221.356 28.7108 200.341 30.1703 188.123 44.0701C182.526 50.6253 179.354 58.9077 179.14 67.5263Z" fill="white"/>
<path d="M232.836 192.842C236.68 190.691 241.631 188.265 246.409 185.401C254.34 180.653 261.881 174.651 263.44 166.599C263.974 163.114 263.956 159.566 263.389 156.086C261.865 143.761 258.95 128.028 251.273 117.889C246.594 111.685 239.208 103.679 232.006 99.9872C232.006 99.9872 219.511 93.935 207.372 93.1426C187.884 91.872 177.911 100.183 177.911 100.183C166.618 108.744 158.787 121.089 155.853 134.957L152.454 154.535L151.233 161.604L232.836 192.842Z" fill="white"/>
<path d="M183.986 49.92C181.814 53.8127 180.344 58.0569 179.641 62.4589C188.476 63.2423 197.377 62.1689 205.773 59.3075C206.009 59.2274 206.258 59.1968 206.506 59.2175C206.754 59.2382 206.995 59.3098 207.214 59.4278C208.266 60.0214 206.995 62.3252 206.4 63.3768C210.143 64.4334 219.309 62.708 223.36 60.4828C225.611 65.9598 227.91 68.8137 232.325 70.8818L244.176 75.6048C245.223 75.6626 246.25 75.9149 247.204 76.3487C249.71 69.8211 249.991 62.6485 248.005 55.9443C246.019 49.2401 241.876 43.3794 236.22 39.2719C221.356 28.7108 200.341 30.1703 188.123 44.0701C186.545 45.871 185.158 47.8315 183.986 49.92Z" fill="white"/>
<path d="M155.718 168.757C152.003 166.439 150.457 162.521 149.851 158.363C149.17 153.702 149.968 147.769 156.745 146.074C159.181 145.588 161.71 146.061 163.806 147.393C166.013 148.677 167.801 150.573 168.955 152.852C170.11 155.131 170.58 157.696 170.31 160.236C169.852 165.761 164.643 170.829 159.158 170.028C157.936 169.849 156.764 169.416 155.718 168.757Z" fill="white"/>
<path d="M179.395 168.249C169.116 169.991 158.625 174.004 143.467 176.52C152.808 181.034 170.381 189.681 187.184 198.087C201.783 192.14 205.94 191.104 215.076 187.598C199.791 179.706 179.425 168.244 179.395 168.249Z" fill="white"/>
<path d="M206.308 183.734C207.294 175.744 215.653 169.08 226.384 173.703C228.007 178.688 230.823 186.225 232.552 192.525C230.194 194.434 228.154 196.092 228.154 196.092C224.7 200.262 217.075 199.511 212.927 196.987C210.677 195.637 208.859 193.673 207.687 191.326C206.514 188.978 206.036 186.344 206.308 183.734Z" fill="white"/>
<path d="M438.165 230.946V231.437C401.801 252.503 324.522 297.175 277.259 324.357C253.611 310.754 224.702 294.082 195.398 277.163C194.828 284.241 190.02 287.419 186.801 289.335C182.361 291.973 177.578 293.986 172.587 295.317C169.591 296.243 166.437 296.553 163.318 296.227C161.762 296.042 160.264 295.52 158.93 294.697C157.597 293.874 156.458 292.77 155.594 291.462C155.203 290.794 154.906 290.075 154.713 289.325C154.358 287.575 154.388 285.768 154.8 284.03C155.213 282.292 155.999 280.664 157.103 279.261C159.63 276.258 162.714 273.774 166.185 271.945C169.11 274.237 179.487 274.977 188.772 273.337L164.85 259.519C164.95 261.163 165.062 262.81 165.211 264.473L162.596 264.899C162.79 269.079 159.087 272.341 155.49 274.479C151.2 277.029 146.579 278.975 141.758 280.262C138.86 281.158 135.811 281.454 132.796 281.132C131.29 280.958 129.84 280.456 128.55 279.661C127.259 278.866 126.159 277.796 125.328 276.529C124.656 275.275 124.268 273.889 124.189 272.469C124.11 271.049 124.343 269.629 124.871 268.308C125.324 267.03 125.968 265.827 126.781 264.742C129.528 261.552 132.873 258.932 136.627 257.028C138.54 255.71 140.708 254.81 142.991 254.385C143.9 254.841 144.857 255.193 145.845 255.435C149.622 256.172 153.514 256.063 157.243 255.114C117.626 232.221 81.2963 211.201 61.0345 199.463V198.107C40.1059 210.181 20.4557 221.5 4.01059 230.961C49.7513 257.466 215.146 353.125 291.815 397.118C347.797 365.019 470.385 294.169 508.501 272.092C508.501 272.092 508.501 271.889 508.512 271.497C487.101 259.167 463.116 245.339 438.165 230.946Z" fill="#1D77C7"/>
<path d="M416.725 418.759C409.01 423.193 383.984 437.659 372.609 444.213C361.625 437.902 342.142 426.67 327.596 418.271C341.343 410.36 356.463 401.649 371.756 392.817C386.677 401.44 406.281 412.76 416.725 418.759Z" fill="#1D77C7"/>
<path d="M232.836 192.842L232.375 192.667C230.094 194.514 228.154 196.091 228.154 196.091C224.7 200.26 217.075 199.51 212.927 196.985C210.468 195.396 208.517 193.133 207.307 190.465C202.195 192.286 197.097 194.059 187.186 198.097C173.413 191.202 159.128 184.147 149.279 179.345C147.825 180.308 146.388 181.296 144.981 182.325C141.103 184.839 137.862 188.221 135.514 192.204C132.789 197.528 133.048 203.828 133.372 209.802C134.336 227.555 135.301 225.32 136.265 243.072C136.295 243.274 136.811 246.703 136.811 246.703C137.48 251.1 141.522 254.393 145.835 255.445C152.045 256.961 158.716 254.721 164.551 253.424C164.728 258.506 165.032 263.582 165.661 268.852C165.981 270.022 166.617 271.081 167.499 271.913C168.076 272.588 168.828 273.093 169.671 273.372C177.826 274.832 186.209 274.385 194.163 272.067C194.932 271.814 195.601 271.323 196.072 270.665C196.544 270.007 196.793 269.215 196.785 268.405C196.927 256.794 196.831 245.061 197.338 233.779C197.503 230.798 198.082 227.855 199.061 225.034C201.4 219.517 207.082 217.047 212.526 215.337C219.501 213.135 220.47 213.873 227.211 211.032C233.953 208.192 240.356 203.729 243.675 197.207C245.257 193.989 246.167 190.482 246.349 186.9C245.847 186.798 245.234 186.668 244.526 186.514C240.348 188.895 236.177 190.97 232.836 192.842Z" fill="#1D77C7"/>
<path d="M436.471 233.838C459.917 247.357 483.368 260.871 506.823 274.381L505.167 271.493C504.841 281.208 505.167 290.989 505.19 300.709C505.214 312.898 505.239 325.088 505.266 337.279C505.277 343.587 505.301 349.897 505.301 356.206L506.957 353.319C482.153 367.687 457.342 382.04 432.524 396.379C423.981 401.315 415.437 406.249 406.892 411.182C403.168 413.332 406.53 419.113 410.265 416.957C438.157 400.854 466.039 384.736 493.911 368.602C499.158 365.564 504.482 362.63 509.662 359.48C510.405 359.116 511.023 358.538 511.437 357.821C511.851 357.104 512.042 356.28 511.985 355.454C512.023 353.709 511.975 351.958 511.972 350.214C511.965 347.468 511.96 344.721 511.958 341.974C511.937 329.973 511.913 317.973 511.885 305.974C511.863 294.503 511.467 282.959 511.851 271.493C511.852 270.909 511.7 270.335 511.409 269.828C511.119 269.321 510.7 268.9 510.195 268.606C486.738 255.104 463.287 241.59 439.843 228.063C436.11 225.91 432.739 231.686 436.471 233.838Z" fill="#211715"/>
<path d="M59.3417 195.228C40.1165 206.308 20.8879 217.383 1.65604 228.453C1.15386 228.748 0.737135 229.169 0.446795 229.675C0.156454 230.18 0.0024821 230.752 0 231.335C0 258.252 0.132015 285.169 0.118647 312.076C-0.0140806 312.912 0.097485 313.768 0.439913 314.542C0.782341 315.316 1.34104 315.974 2.04874 316.438C3.16001 317.147 4.34313 317.775 5.48448 318.427L12.3158 322.385C17.4405 325.354 22.5651 328.322 27.6898 331.289C40.1237 338.488 52.5593 345.684 64.9966 352.876C95.4303 370.481 125.87 388.075 156.314 405.66C187.771 423.828 219.234 441.982 250.705 460.124L272.461 472.663L282.808 478.618L287.379 481.248C289.172 482.28 291.834 484.502 293.991 483.906C296.13 483.035 298.157 481.913 300.03 480.563L307.278 476.393C311.931 473.718 316.585 471.038 321.24 468.353C331.114 462.669 340.985 456.975 350.855 451.272C355.958 448.326 361.06 445.379 366.16 442.433C369.885 440.281 366.523 434.5 362.788 436.658C339.011 450.396 315.22 464.111 291.416 477.802H294.788C275.607 466.768 256.431 455.724 237.263 444.669C215.985 432.404 194.716 420.13 173.456 407.85C152.258 395.6 131.063 383.348 109.87 371.096C90.9067 360.133 71.9449 349.167 52.9849 338.199C38.4231 329.773 23.8624 321.344 9.30289 312.912L5.14525 310.503L6.80129 313.383C6.82468 291.148 6.73612 268.927 6.70102 246.7C6.68988 241.58 6.68431 236.459 6.68431 231.335L5.02827 234.222C24.2657 223.163 43.4943 212.089 62.7139 201.003C66.4404 198.854 63.0782 193.073 59.3417 195.228Z" fill="#211715"/>
<path d="M289.135 396.888C289.135 420 289.215 443.111 289.255 466.223C289.263 470.898 289.269 475.573 289.272 480.248C289.272 484.552 295.956 484.558 295.956 480.248C295.956 457.678 295.873 435.108 295.836 412.538C295.828 407.318 295.823 402.099 295.819 396.879C295.819 392.576 289.135 392.569 289.135 396.879V396.888Z" fill="#211715"/>
<path d="M5.65327 235.757C19.1456 243.578 32.6406 251.393 46.1385 259.202C65.1208 270.186 84.1059 281.164 103.094 292.137C124.65 304.597 146.207 317.053 167.765 329.503C188.974 341.748 210.188 353.986 231.408 366.217C249.353 376.557 267.305 386.887 285.265 397.205C287.106 398.262 288.948 399.321 290.789 400.382C294.528 402.527 297.898 396.751 294.163 394.609C276.802 384.65 259.452 374.675 242.114 364.683C221.139 352.598 200.168 340.505 179.203 328.403C157.526 315.89 135.853 303.371 114.183 290.845C94.724 279.587 75.2676 268.329 55.814 257.072C41.4851 248.779 27.1573 240.484 12.8306 232.184L9.02383 229.983C5.29566 227.821 1.92676 233.599 5.64993 235.757H5.65327Z" fill="#211715"/>
<path d="M292.514 422.171C277.541 413.581 262.576 404.975 247.62 396.351C229.376 385.841 211.136 375.321 192.903 364.791C174.094 353.934 155.289 343.072 136.489 332.205C119.515 322.397 102.543 312.584 85.5742 302.765C73.1325 295.567 60.6936 288.367 48.2574 281.165L44.9403 279.242C41.2105 277.081 37.8416 282.859 41.5664 285.017C53.274 291.801 64.986 298.582 76.7025 305.358C93.2562 314.938 109.813 324.513 126.372 334.083C145.077 344.894 163.784 355.701 182.493 366.505C200.948 377.159 219.406 387.808 237.868 398.451C253.36 407.379 268.858 416.295 284.362 425.201L289.147 427.946C292.883 430.091 296.255 424.315 292.519 422.171H292.514Z" fill="#211715"/>
<path d="M274.17 438.689C259.668 430.368 245.185 422.009 230.722 413.611C226.993 411.45 223.624 417.226 227.349 419.386C241.817 427.769 256.299 436.128 270.797 444.464C274.535 446.609 277.905 440.833 274.17 438.689Z" fill="#211715"/>
<path d="M327.588 421.616H327.605L325.919 421.158C339.896 429.245 353.884 437.313 367.885 445.36C369.169 446.322 370.616 447.046 372.156 447.498C373.827 447.722 375.376 446.473 376.761 445.676L384.665 441.117L402.633 430.751C407.891 427.715 413.151 424.682 418.413 421.653C418.909 421.352 419.32 420.929 419.605 420.423C419.889 419.917 420.039 419.346 420.039 418.766C420.039 418.185 419.889 417.614 419.605 417.109C419.32 416.603 418.909 416.179 418.413 415.878C403.406 407.258 388.413 398.611 373.436 389.936C369.703 387.779 366.334 393.557 370.062 395.711C385.048 404.368 400.041 413.015 415.039 421.653V415.868C400.317 424.329 385.608 432.814 370.913 441.322H374.286C366.934 437.096 359.581 432.863 352.228 428.625C348.106 426.248 343.984 423.872 339.862 421.494L333.726 417.95C332.01 416.957 329.61 414.925 327.581 414.925C323.28 414.925 323.273 421.613 327.581 421.613L327.588 421.616Z" fill="#211715"/>
<path d="M479.203 326.865C458.641 338.779 438.069 350.676 417.487 362.556C389.813 378.542 362.129 394.514 334.435 410.47C320.111 418.718 305.783 426.957 291.451 435.188C287.72 437.327 291.082 443.106 294.825 440.963C321.295 425.805 347.73 410.584 374.129 395.301C400.288 380.214 426.44 365.112 452.583 349.994C462.581 344.212 472.578 338.427 482.574 332.638C486.294 330.481 482.933 324.7 479.2 326.864L479.203 326.865Z" fill="#211715"/>
<path d="M293.866 399.788C322.909 383.137 351.923 366.433 380.907 349.678C412.176 331.638 443.436 313.582 474.686 295.509C486.521 288.667 498.354 281.821 510.185 274.971C513.907 272.816 510.544 267.034 506.811 269.196C482.122 283.496 457.422 297.779 432.712 312.046C400.248 330.801 367.773 349.538 335.288 368.257C320.36 376.854 305.429 385.439 290.494 394.014C286.76 396.154 290.124 401.933 293.866 399.788Z" fill="#211715"/>
<path d="M164.835 256.162H164.818L166.505 256.619C163.982 255.157 161.459 253.697 158.935 252.238C158.152 251.798 157.229 251.678 156.359 251.904C155.725 252.079 155.156 252.437 154.725 252.933C154.293 253.43 154.017 254.043 153.932 254.695C153.847 255.348 153.956 256.011 154.246 256.602C154.536 257.193 154.994 257.685 155.562 258.016L159.526 260.312L161.455 261.425C162.44 262.184 163.604 262.676 164.835 262.853C165.719 262.842 166.565 262.491 167.198 261.873C167.665 261.406 167.984 260.81 168.112 260.161C168.241 259.513 168.175 258.841 167.922 258.23C167.669 257.619 167.241 257.097 166.692 256.729C166.142 256.362 165.496 256.166 164.835 256.166V256.162Z" fill="#211715"/>
<path d="M247.02 61.7367C270.551 75.3557 294.085 88.964 317.622 102.562C343.753 117.661 369.889 132.75 396.03 147.829C409.479 155.583 422.931 163.333 436.387 171.078L434.731 168.191C434.285 178.055 434.743 188.047 434.764 197.921C434.788 209.093 434.805 220.265 434.815 231.437L436.471 228.55C417.509 239.534 398.542 250.508 379.569 261.472C356.488 274.814 333.401 288.144 310.308 301.465C298.734 308.139 287.158 314.808 275.579 321.472H278.951C251.648 305.769 224.36 290.036 197.085 274.275C193.354 272.12 189.983 277.896 193.713 280.05C219.017 294.663 244.331 309.259 269.657 323.839C272.142 325.269 276.035 328.688 278.951 327.246C281.124 326.175 283.201 324.802 285.302 323.593C289.83 320.988 294.358 318.379 298.884 315.769C308.799 310.059 318.707 304.345 328.609 298.628C349.205 286.742 369.795 274.848 390.379 262.947C399.556 257.64 408.732 252.333 417.907 247.024C421.886 244.721 425.864 242.418 429.841 240.116C431.638 239.076 433.434 238.036 435.229 236.996C437.114 236.148 438.891 235.075 440.52 233.801C442.341 231.979 441.501 227.254 441.499 224.94C441.499 222.813 441.496 220.684 441.489 218.554C441.481 213.363 441.471 208.172 441.459 202.98C441.438 192.935 441.419 182.888 441.402 172.84C441.402 171.295 441.345 169.741 441.415 168.197C441.418 167.613 441.266 167.038 440.975 166.531C440.684 166.024 440.265 165.603 439.759 165.31C414.957 151.037 390.169 136.745 365.396 122.434C339.596 107.541 313.808 92.6405 288.034 77.733C275.485 70.4772 262.938 63.2202 250.393 55.9621C246.663 53.8037 243.292 59.58 247.02 61.7367Z" fill="#211715"/>
<path d="M177.453 67.1301C145.772 85.4358 114.082 103.728 82.3842 122.007C74.6794 126.451 66.9707 130.892 59.2581 135.33C58.7552 135.626 58.338 136.048 58.0476 136.554C57.7573 137.061 57.6037 137.634 57.6021 138.218C57.6021 155.032 57.6271 171.846 57.6773 188.661C57.6773 192.046 57.6121 195.439 57.6856 198.823C57.7541 201.961 60.1638 202.835 62.5318 204.206L68.2134 207.494L95.701 223.402C108.659 230.893 121.616 238.384 134.574 245.875C138.305 248.03 141.674 242.254 137.946 240.101C117.081 228.047 96.2207 215.981 75.3656 203.905L62.7122 196.582L64.3683 199.47C64.3683 182.769 64.3438 166.069 64.2947 149.369C64.2947 145.651 64.2914 141.932 64.2847 138.213L62.6287 141.1C93.0334 123.619 123.414 106.098 153.769 88.5366L180.826 72.9047C184.551 70.753 181.188 64.9717 177.453 67.1301Z" fill="#211715"/>
<path d="M273.449 261.803C273.449 275.952 273.549 290.101 273.552 304.252C273.552 308.555 280.236 308.562 280.236 304.252C280.236 290.101 280.135 275.952 280.133 261.803C280.133 257.5 273.449 257.491 273.449 261.803Z" fill="#211715"/>
<path d="M86.8309 156.448C104.678 166.799 122.536 177.131 140.406 187.444C144.137 189.601 147.506 183.823 143.778 181.669C125.915 171.347 108.057 161.015 90.2031 150.673C86.475 148.511 83.1061 154.287 86.8309 156.448Z" fill="#211715"/>
<path d="M201.433 222.703C226.189 236.993 251.009 251.175 275.746 265.503C279.476 267.663 282.845 261.887 279.119 259.728C254.387 245.401 229.563 231.22 204.806 216.929C201.074 214.774 197.704 220.55 201.433 222.703Z" fill="#211715"/>
<path d="M278.256 264.699C296.586 254.189 314.897 243.647 333.191 233.072C352.859 221.727 372.522 210.371 392.18 199.005C399.707 194.658 407.232 190.304 414.755 185.942C418.476 183.787 415.116 178.006 411.381 180.17C395.799 189.198 380.209 198.212 364.613 207.214C344.2 219.005 323.781 230.786 303.358 242.557C293.872 248.018 284.383 253.474 274.889 258.924C271.158 261.064 274.521 266.845 278.263 264.699H278.256Z" fill="#211715"/>
<path d="M255.675 124.916C271.863 115.54 288.05 106.167 304.236 96.7956C307.96 94.6406 304.597 88.8593 300.864 91.021C284.675 100.391 268.488 109.765 252.303 119.142C248.58 121.297 251.942 127.078 255.675 124.916Z" fill="#211715"/>
<path d="M191.995 273.521C192.333 275.617 192.109 277.765 191.346 279.746C190.583 281.727 189.307 283.47 187.65 284.796C182.844 288.22 177.43 290.696 171.698 292.094C167.061 293.321 157.85 294.129 157.76 287.018C157.68 280.665 164.234 276.987 168.966 274.183C172.666 271.996 169.3 266.212 165.592 268.409C159.999 271.717 154.383 275.422 152.015 281.784C150.821 284.695 150.743 287.945 151.796 290.911C152.849 293.877 154.959 296.349 157.721 297.855C164.143 301.221 171.715 299.417 178.167 297.074C183.44 295.331 188.369 292.681 192.732 289.243C194.933 287.311 196.626 284.867 197.663 282.127C198.7 279.387 199.048 276.434 198.678 273.528C198.655 272.648 198.295 271.811 197.673 271.189C197.051 270.567 196.215 270.207 195.336 270.184C194.451 270.19 193.605 270.545 192.979 271.17C192.354 271.796 192 272.643 191.994 273.528L191.995 273.521Z" fill="#211715"/>
<path d="M141.649 251.23C138.694 252.03 135.898 253.33 133.382 255.076C130.876 256.515 128.534 258.223 126.397 260.17C122.283 264.092 119.579 270.216 121.399 275.885C123.324 281.881 129.612 284.791 135.56 284.636C141.976 284.469 148.55 281.907 154.199 279.017C159.753 276.174 165.978 271.858 165.931 264.906C165.901 260.604 159.217 260.594 159.247 264.906C159.28 269.82 152.035 272.781 148.375 274.421C145.733 275.593 142.993 276.53 140.187 277.219C137.361 278.144 134.323 278.198 131.467 277.373C126.636 275.559 126.756 270.303 129.507 266.642C131.249 264.556 133.358 262.805 135.728 261.477C138.051 259.766 140.658 258.48 143.429 257.679C147.64 256.821 145.855 250.373 141.649 251.23Z" fill="#211715"/>
<path d="M158.131 251.525C152.598 252.775 143.641 254.163 140.584 247.719C139.944 245.977 139.579 244.146 139.503 242.291C139.67 243.906 139.523 241.502 139.503 241.017C139.455 240.184 139.403 239.348 139.346 238.509C139.235 236.864 139.108 235.22 138.965 233.577C137.993 222.72 135.79 211.686 136.656 200.755C136.864 196.838 138.396 193.108 141.001 190.176C143.988 187.125 147.341 184.456 150.982 182.228C154.558 179.867 151.214 174.074 147.61 176.453C140.591 181.086 133.238 186.427 130.911 194.954C128.782 202.751 129.998 211.557 130.727 219.49C131.173 224.365 131.908 229.209 132.331 234.087C132.809 239.592 132.177 246.609 135.1 251.583C140.269 260.375 151.284 259.917 159.927 257.965C164.122 257.018 162.345 250.568 158.149 251.516L158.131 251.525Z" fill="#211715"/>
<path d="M161.976 175.758C164.586 174.452 167.201 173.191 169.89 172.056L169.091 172.39L170.036 171.996C170.864 171.737 171.575 171.192 172.041 170.459C172.487 169.678 172.607 168.752 172.375 167.883C172.141 167.041 171.59 166.322 170.838 165.877C170.455 165.646 170.028 165.497 169.585 165.439C169.142 165.382 168.692 165.417 168.263 165.542C164.982 166.902 161.784 168.385 158.609 169.976C158.23 170.198 157.898 170.492 157.633 170.842C157.367 171.191 157.173 171.59 157.062 172.015C156.95 172.439 156.924 172.882 156.983 173.317C157.043 173.752 157.187 174.171 157.409 174.55C157.871 175.3 158.603 175.843 159.455 176.067C160.306 176.29 161.211 176.177 161.981 175.751L161.976 175.758Z" fill="#211715"/>
<path d="M243.075 185.392C243.061 190.192 241.551 194.867 238.755 198.767C235.965 202.167 232.452 204.901 228.471 206.771C220.987 210.559 212.443 210.95 204.941 214.735C200.578 216.761 197.193 220.433 195.528 224.949C193.965 229.493 193.929 234.572 193.788 239.317C193.621 245.088 193.568 250.862 193.528 256.635C193.51 259.34 193.49 262.046 193.467 264.751C193.618 265.995 193.599 267.253 193.411 268.492C193.172 269.184 192.293 269.128 191.405 269.355C185.799 270.751 180 271.206 174.245 270.704C172.24 270.537 169.67 270.522 168.898 268.196C168.625 266.858 168.495 265.495 168.508 264.129C168.374 262.586 168.269 261.041 168.174 259.494C168.158 258.613 167.8 257.772 167.177 257.148C166.554 256.524 165.713 256.167 164.832 256.151H164.815L168.157 259.494C167.526 248.397 167.489 237.259 167.143 226.141C167.013 221.879 166.889 217.614 167.011 213.346C167.034 212.567 167.063 211.786 167.121 211.005C167.148 210.671 167.17 210.323 167.216 209.987C167.074 211.005 167.405 209.248 167.358 209.44C167.792 207.106 169.062 205.009 170.93 203.544C174.43 201.096 171.097 195.295 167.557 197.769C158.981 203.766 160.154 214.673 160.393 223.872C160.703 235.742 160.8 247.644 161.473 259.483C161.489 260.364 161.847 261.205 162.47 261.829C163.093 262.453 163.934 262.81 164.815 262.826H164.832L161.49 259.483C161.847 265.286 161.381 272.022 166.802 275.66C168.907 276.743 171.239 277.31 173.607 277.313C176.394 277.575 179.197 277.617 181.99 277.438C184.83 277.273 187.656 276.923 190.449 276.39C193.324 275.84 196.599 275.31 198.519 272.888C200.319 270.617 200.118 267.872 200.145 265.135C200.175 261.89 200.194 258.645 200.217 255.4C200.262 249.236 200.324 243.073 200.551 236.912C200.718 232.353 200.76 226.681 204.244 223.25C207.82 219.731 213.435 218.315 218.189 217.206C222.274 216.325 226.26 215.037 230.087 213.361C235.326 211.116 239.963 207.67 243.623 203.3C247.555 198.142 249.71 191.849 249.766 185.362C249.945 181.059 243.259 181.067 243.082 185.362L243.075 185.392Z" fill="#211715"/>
<path d="M176.224 97.2921C164.217 106.33 155.848 119.374 152.633 134.058C151.734 138.256 158.183 140.05 159.087 135.832C161.812 122.815 169.087 111.197 179.604 103.063C180.349 102.597 180.887 101.864 181.11 101.014C181.333 100.164 181.224 99.2611 180.804 98.4892C180.352 97.7276 179.619 97.1747 178.763 96.95C177.907 96.7253 176.997 96.847 176.23 97.2888L176.224 97.2921Z" fill="#211715"/>
<path d="M166.974 160.231C167.033 159.663 166.951 160.376 166.921 160.519C166.864 160.796 166.796 161.071 166.717 161.344C166.66 161.537 166.256 162.551 166.448 162.139C166.205 162.66 165.901 163.132 165.612 163.627C165.584 163.673 165.255 164.145 165.53 163.777C165.322 164.046 165.099 164.303 164.862 164.548C164.327 165.199 163.654 165.723 162.892 166.082C162.957 166.046 161.991 166.515 162.39 166.343C162.79 166.171 161.795 166.539 161.864 166.51C161.653 166.576 161.44 166.621 161.229 166.678C160.382 166.912 161.697 166.718 160.816 166.745C159.878 166.78 158.943 166.602 158.084 166.223C157.224 165.844 156.462 165.275 155.855 164.558C155.698 164.391 155.539 164.223 155.395 164.034C155.696 164.411 155.263 163.832 155.201 163.74C154.916 163.31 154.657 162.863 154.424 162.403C154.322 162.199 154.219 161.988 154.13 161.776C154.322 162.236 154.057 161.548 154.018 161.441C153.804 160.831 153.624 160.209 153.472 159.581C153.36 159.116 153.265 158.648 153.181 158.178C153.181 158.178 153.014 157.008 153.094 157.665C153.166 158.236 153.072 157.407 153.069 157.36C152.991 156.546 152.974 155.728 153.017 154.911C153.034 154.619 153.213 153.584 153.051 154.373C153.139 153.945 153.218 153.522 153.335 153.102C153.412 152.835 153.731 152.012 153.437 152.677C153.64 152.243 153.868 151.821 154.122 151.414C154.225 151.246 154.623 150.828 154.155 151.343C154.277 151.208 154.393 151.073 154.518 150.94C154.643 150.808 154.789 150.69 154.916 150.558C155.517 149.937 154.581 150.76 155.023 150.459C155.4 150.207 155.791 149.976 156.192 149.765C156.75 149.464 156.431 149.656 156.289 149.712C156.612 149.586 156.944 149.479 157.279 149.377C157.518 149.312 157.753 149.257 157.997 149.21C158.475 149.115 157.183 149.185 158.082 149.223C158.567 149.243 159.045 149.212 159.529 149.264C160.121 149.329 158.824 149.045 159.85 149.334C160.083 149.401 160.32 149.446 160.552 149.514C160.997 149.616 161.417 149.803 161.79 150.066C163.518 151.085 164.949 152.54 165.938 154.286C166.09 154.562 166.232 154.843 166.361 155.122C166.125 154.595 166.439 155.364 166.483 155.496C166.651 156.003 166.788 156.519 166.892 157.043C166.934 157.255 166.976 157.472 167.003 157.686C166.921 157.041 167.003 157.997 167.014 158.126C167.045 158.825 167.032 159.525 166.977 160.223C166.985 161.107 167.34 161.953 167.965 162.578C168.59 163.204 169.436 163.558 170.32 163.566C171.201 163.55 172.042 163.193 172.665 162.569C173.288 161.945 173.646 161.104 173.662 160.223C173.867 157.256 173.287 154.287 171.982 151.615C170.677 148.943 168.691 146.662 166.226 145C163.749 143.199 160.708 142.35 157.657 142.608C154.607 142.866 151.751 144.214 149.612 146.405C146.086 150.317 145.857 155.734 146.876 160.654C148.213 167.107 152.845 173.006 159.827 173.432C167.23 173.885 172.962 167.077 173.662 160.223C173.656 159.338 173.302 158.492 172.676 157.867C172.051 157.241 171.204 156.887 170.32 156.881C169.438 156.899 168.597 157.258 167.973 157.882C167.35 158.507 166.992 159.348 166.974 160.231Z" fill="#211715"/>
<path d="M177.213 124.63V161.913C177.213 166.215 183.897 166.223 183.897 161.913V124.63C183.897 120.327 177.213 120.32 177.213 124.63Z" fill="#211715"/>
<path d="M208.098 180.148C202.002 176.891 195.93 173.589 189.883 170.242C186.965 168.632 184.093 166.83 181.093 165.375C178.546 164.141 174.417 165.805 171.778 166.437C168.418 167.243 165.084 168.154 161.742 169.03C155.877 170.566 149.114 172.207 142.575 173.29C139.787 173.756 139.289 178.193 141.778 179.402C153.408 185.05 165.01 190.76 176.581 196.534C178.13 197.303 179.677 198.074 181.223 198.846C182.839 199.824 184.541 200.652 186.307 201.322C188.065 201.807 190.087 200.508 191.654 199.879C193 199.341 194.348 198.81 195.698 198.286C199.833 196.679 204.002 195.171 208.18 193.682C212.204 192.249 210.469 185.785 206.402 187.233C199.645 189.641 192.944 192.172 186.298 194.874L188.874 195.208C174.335 187.936 159.758 180.742 145.142 173.624L144.344 179.735C156.644 177.684 168.005 173.623 180.273 171.476L177.697 171.142C180.622 172.502 183.411 174.31 186.233 175.868C192.375 179.256 198.537 182.607 204.719 185.921C208.512 187.947 211.893 182.176 208.091 180.146L208.098 180.148Z" fill="#211715"/>
<path d="M225.789 193.728C225.564 193.987 225.318 194.218 225.079 194.462C224.73 194.818 225.489 194.2 225.079 194.479C224.961 194.561 224.842 194.646 224.718 194.72C224.595 194.793 223.577 195.312 224.217 195.037C223.851 195.189 223.474 195.314 223.091 195.412C222.756 195.504 222.405 195.569 222.058 195.636C221.536 195.736 222.571 195.599 222.036 195.636C221.882 195.646 221.729 195.663 221.575 195.673C220.744 195.715 219.911 195.694 219.083 195.611C219.722 195.669 218.778 195.559 218.582 195.522C218.228 195.454 217.879 195.375 217.529 195.283C217.142 195.181 216.756 195.066 216.375 194.935C216.236 194.887 216.099 194.83 215.958 194.783C215.581 194.656 216.388 195.009 215.825 194.731C214.35 193.976 213.035 192.943 211.953 191.689C211.759 191.501 211.59 191.287 211.452 191.055C211.216 190.721 210.994 190.363 210.783 190.002C210.327 189.231 209.996 188.393 209.802 187.519C209.426 185.956 209.453 184.323 209.881 182.773C209.971 182.438 210.081 182.116 210.192 181.791C210.222 181.701 210.452 181.123 210.293 181.507C210.146 181.855 210.342 181.408 210.362 181.368C210.721 180.672 211.119 179.997 211.553 179.345C211.624 179.24 211.95 178.867 211.569 179.32C211.664 179.207 211.756 179.091 211.856 178.986C212.092 178.733 212.321 178.484 212.568 178.235C212.852 177.959 213.149 177.695 213.457 177.446C212.997 177.817 213.814 177.21 213.998 177.095C214.332 176.878 214.693 176.677 215.053 176.493C215.235 176.401 215.42 176.313 215.606 176.229C215.166 176.426 215.606 176.229 215.815 176.164C216.216 176.028 216.615 175.903 217.025 175.801C217.233 175.749 217.442 175.702 217.653 175.661C217.765 175.639 218.488 175.539 217.897 175.605C218.808 175.518 219.724 175.504 220.637 175.564C221.291 175.594 220.998 175.585 220.828 175.564C221.135 175.6 221.443 175.666 221.747 175.731C222.319 175.848 222.88 175.998 223.44 176.164C223.863 176.281 224.305 176.313 224.741 176.259C225.176 176.205 225.597 176.065 225.979 175.848C226.361 175.632 226.696 175.342 226.966 174.995C227.236 174.649 227.435 174.252 227.552 173.829C227.668 173.406 227.701 172.963 227.646 172.527C227.592 172.092 227.453 171.671 227.236 171.289C227.02 170.907 226.73 170.571 226.383 170.301C226.037 170.031 225.641 169.832 225.218 169.715C220.695 168.27 215.786 168.656 211.545 170.792C207.887 172.787 205.105 176.077 203.746 180.017C200.307 189.577 207.215 200.22 216.948 202.004C221.658 202.868 227.176 202.297 230.505 198.46C231.112 197.823 231.451 196.976 231.451 196.096C231.451 195.215 231.112 194.369 230.505 193.732C229.875 193.112 229.026 192.764 228.142 192.764C227.258 192.764 226.41 193.112 225.779 193.732L225.789 193.728Z" fill="#211715"/>
<path d="M232.012 103.321H232.029L230.343 102.864C236.608 106.183 241.731 111.458 246.228 116.858C250.912 122.61 254.325 129.29 256.243 136.457C258.294 143.664 259.658 151.048 260.317 158.512C260.902 162.191 260.446 165.96 259 169.393C257.449 172.26 255.348 174.794 252.817 176.849C246.359 182.432 238.366 185.917 230.976 190.045L235.886 192.051C234.13 185.615 231.757 179.379 229.686 173.042L228.826 176.296C232.424 173.399 235.899 170.352 239.521 167.483C242.027 165.502 242.467 163.536 242.587 160.478C242.836 155.144 242.608 149.798 241.905 144.504C241.666 143.651 241.099 142.927 240.33 142.488C239.56 142.05 238.648 141.933 237.793 142.163C236.95 142.418 236.237 142.987 235.801 143.753C235.366 144.518 235.241 145.422 235.453 146.278C235.326 145.385 235.403 145.886 235.453 146.408C235.488 146.844 235.525 147.282 235.557 147.719C235.645 148.971 235.712 150.227 235.771 151.477C235.898 154.221 235.991 156.974 235.926 159.721C235.914 160.258 235.898 160.796 235.861 161.331C235.841 161.644 235.819 162.836 235.824 161.94C235.824 162.819 235.518 161.953 235.95 161.869C235.485 161.96 234.584 162.916 234.093 163.311C230.729 166.021 227.469 168.853 224.105 171.563C223.679 171.975 223.374 172.496 223.222 173.07C223.071 173.643 223.078 174.247 223.244 174.816C225.316 181.151 227.689 187.389 229.444 193.825C229.586 194.315 229.837 194.767 230.178 195.147C230.519 195.526 230.942 195.823 231.414 196.016C231.886 196.209 232.396 196.293 232.905 196.261C233.414 196.229 233.909 196.082 234.354 195.832C247.889 188.266 267.117 180.472 267.179 162.179C267.055 157.853 266.594 153.543 265.798 149.289C265.166 145.077 264.32 140.901 263.262 136.776C261.273 128.461 257.558 120.657 252.358 113.872C249.578 110.331 246.513 107.024 243.194 103.985C241.473 102.422 239.661 100.962 237.769 99.611C236.23 98.5143 233.986 96.6535 232.016 96.6535C227.714 96.6535 227.708 103.341 232.016 103.341L232.012 103.321Z" fill="#211715"/>
<path d="M233.56 94.4868C232.556 95.4359 231.481 96.3062 230.343 97.0898L232.029 96.6334C230.695 96.8598 229.443 97.431 228.398 98.2902C227.056 99.0694 225.651 99.7327 224.197 100.273C221.419 101.304 218.509 101.937 215.554 102.152C209.703 102.611 203.845 101.359 198.691 98.5494C187.604 92.3183 181.98 79.6975 182.503 67.2772C182.654 61.4409 184.354 55.7498 187.43 50.7884C190.506 45.827 194.847 41.7742 200.006 39.0462C204.637 36.795 209.725 35.6418 214.874 35.676C220.022 35.7102 225.094 36.9309 229.695 39.2435C235.94 42.2849 240.877 47.4811 243.597 53.8754C246.317 60.2698 246.637 67.4319 244.497 74.0433C243.184 78.151 249.634 79.9115 250.944 75.8221C253.197 68.7126 253.15 61.073 250.81 53.9918C248.469 46.9105 243.955 40.7489 237.91 36.3846C232.779 32.786 226.886 30.423 220.692 29.4801C214.497 28.5372 208.169 29.0401 202.2 30.9494C195.736 33.1442 189.967 37.0128 185.482 42.1619C180.997 47.3109 177.954 53.5567 176.665 60.2638C173.849 74.5682 178.105 90.3924 189.347 100.077C195.464 105.237 203.077 108.293 211.062 108.796C219.047 109.298 226.983 107.221 233.699 102.869L232.012 103.326C234.275 103.326 236.743 100.664 238.286 99.2198C241.434 96.274 236.7 91.5526 233.56 94.4918V94.4868Z" fill="#211715"/>
<path d="M244.181 78.9552C244.968 79.0103 243.815 78.8097 244.516 78.992C244.813 79.0705 245.114 79.1324 245.408 79.2277C245.575 79.2812 246.258 79.6089 245.754 79.3497C246.03 79.4902 246.302 79.6339 246.566 79.7961C246.686 79.8697 247.341 80.3462 246.9 79.9917C247.141 80.1863 247.371 80.3945 247.589 80.6153C247.81 80.833 248.018 81.0635 248.212 81.3058C247.821 80.8043 248.332 81.5298 248.401 81.6402C248.561 81.9058 248.706 82.1804 248.835 82.4627C248.57 81.8676 248.894 82.6951 248.932 82.8289C249.021 83.1309 249.089 83.4387 249.136 83.7501C249.041 83.0813 249.136 84.0159 249.136 84.1547C249.136 84.489 249.123 84.8067 249.104 85.1327C249.064 85.88 249.216 84.8769 249.034 85.5456C248.885 86.0907 248.593 87.1439 248.498 87.3696C248.038 88.3615 247.44 89.2826 246.72 90.1048C245.903 91.0262 244.92 91.7857 243.822 92.3434C242.704 93.0093 241.495 93.5077 240.233 93.823C239.532 94.0198 238.82 94.1778 238.102 94.2962C237.865 94.3329 237.865 94.3329 238.102 94.2962C237.925 94.3162 237.748 94.3346 237.571 94.348C237.161 94.3831 236.752 94.4015 236.342 94.4115C235.456 94.4115 234.606 94.7638 233.979 95.3909C233.352 96.0179 233 96.8684 233 97.7552C233 98.642 233.352 99.4925 233.979 100.12C234.606 100.747 235.456 101.099 236.342 101.099C244.315 100.903 252.371 96.5849 255.078 88.7606C255.728 86.9775 255.962 85.0694 255.762 83.1821C255.563 81.2947 254.935 79.4779 253.927 77.8701C252.846 76.2476 251.405 74.897 249.716 73.924C248.027 72.9509 246.136 72.3818 244.191 72.261C243.306 72.2654 242.459 72.6191 241.833 73.2453C241.207 73.8714 240.854 74.7193 240.849 75.6048C240.87 76.4852 241.228 77.3238 241.851 77.9465C242.473 78.5693 243.311 78.9281 244.191 78.9485L244.181 78.9552Z" fill="#211715"/>
<path d="M200.229 79.6975C200.184 80.4786 199.968 81.2403 199.596 81.9282C199.223 82.616 198.703 83.213 198.073 83.6765C197.174 84.2461 196.092 84.4495 195.048 84.2449C194.335 84.1192 193.663 83.8264 193.085 83.3905C192.507 82.9546 192.04 82.3881 191.723 81.7371C191.259 80.6938 191.136 79.5302 191.373 78.413C191.61 77.2958 192.195 76.2824 193.043 75.5178C193.877 74.8326 194.938 74.4865 196.016 74.5485C197.093 74.6105 198.108 75.0759 198.858 75.8522C199.36 76.3498 199.743 76.9536 199.98 77.6191C200.217 78.2846 200.302 78.9948 200.229 79.6975Z" fill="#211715"/>
<path d="M220.549 83.837C220.505 84.6181 220.289 85.3799 219.916 86.0677C219.543 86.7556 219.023 87.3526 218.393 87.816C217.498 88.394 216.412 88.5981 215.369 88.3845C214.653 88.2614 213.976 87.9698 213.395 87.5338C212.814 87.0978 212.345 86.5298 212.026 85.8767C211.568 84.8336 211.451 83.6725 211.691 82.5588C211.931 81.4451 212.516 80.4356 213.363 79.6741C214.194 78.9826 215.255 78.6311 216.333 78.69C217.412 78.7489 218.429 79.2139 219.179 79.9917C219.676 80.4924 220.056 81.0966 220.293 81.7613C220.53 82.4259 220.617 83.1347 220.549 83.837Z" fill="#211715"/>
<path d="M220.143 61.3772C221.215 64.2313 222.73 66.8988 224.631 69.2818C226.294 71.1907 228.345 72.7223 230.647 73.7741C231.434 74.2024 232.352 74.3216 233.222 74.1084C233.856 73.9338 234.425 73.5759 234.856 73.0796C235.288 72.5833 235.564 71.9706 235.649 71.3183C235.734 70.666 235.625 70.0031 235.336 69.4124C235.046 68.8218 234.589 68.3297 234.021 67.9978C232.889 67.4737 231.816 66.8303 230.821 66.0785L231.498 66.6018C230.532 65.8447 229.666 64.9696 228.918 63.997L229.441 64.6658C228.227 62.9964 227.223 61.1832 226.455 59.2673L226.789 60.0665C226.722 59.8993 226.655 59.7488 226.59 59.59C226.331 58.7608 225.787 58.0501 225.054 57.5838C224.675 57.3619 224.256 57.2169 223.821 57.157C223.386 57.0972 222.944 57.1237 222.519 57.235C222.094 57.3463 221.696 57.5403 221.346 57.8058C220.996 58.0713 220.702 58.4032 220.48 58.7825C220.249 59.1653 220.1 59.592 220.043 60.0355C219.985 60.479 220.02 60.9297 220.146 61.3588L220.143 61.3772Z" fill="#211715"/>
<path d="M221.679 57.6022C217.862 59.6084 211.338 61.1716 207.292 60.1601L209.298 65.0721C210.584 62.7716 211.988 59.5716 209.837 57.2979C207.354 54.6681 203.821 56.5205 200.981 57.2979C194.381 59.0206 187.545 59.662 180.74 59.1971C176.442 58.9597 176.456 65.6472 180.74 65.8846C185.268 66.1533 189.81 65.9971 194.308 65.4181C196.427 65.1373 198.531 64.7761 200.613 64.2896C201.691 64.0366 202.763 63.7552 203.826 63.4453C204.421 63.2715 205.014 63.0881 205.604 62.8953C205.842 62.8184 206.079 62.7398 206.315 62.6596C206.783 62.4968 206.788 62.4968 206.331 62.6596L204.857 61.8002L205.106 62.0259L204.246 60.5497C203.912 59.7505 204.537 59.8207 204.157 60.4912C203.935 60.8857 203.741 61.3003 203.521 61.6966C203.269 62.1405 203.122 62.6355 203.089 63.1445C203.056 63.6536 203.139 64.1635 203.331 64.636C203.523 65.1086 203.82 65.5315 204.198 65.8731C204.577 66.2147 205.028 66.4661 205.518 66.6085C208.781 67.2276 212.136 67.1707 215.377 66.4413C218.745 65.9363 222.013 64.902 225.059 63.3768C228.866 61.3706 225.49 55.5943 221.685 57.6022H221.679Z" fill="#211715"/>
</g>
<defs>
<clipPath id="clip0_1_52">
<rect width="512" height="455" fill="white" transform="translate(0 29)"/>
</clipPath>
</defs>
</svg>
