<svg width="512" height="512" viewBox="0 0 512 512" fill="none" xmlns="http://www.w3.org/2000/svg">
<rect width="512" height="512" fill="white"/>
<g clip-path="url(#clip0_1_49)">
<rect width="450" height="512" transform="translate(31)" fill="white"/>
<path d="M351.63 157.884C354.64 155.19 359.075 153.87 363.229 154.504C367.365 155.12 371.149 157.62 373.05 161.036C374.388 163.43 374.828 166.159 375.074 168.818C375.99 179.294 373.913 189.981 369.178 199.524C366.855 204.19 363.845 208.645 359.656 212.025C356.507 214.543 351.194 215.212 346.831 215.186C345.808 219.48 344.467 223.216 343.863 225.049C340.123 235.203 316.86 274.718 289.299 280.845C289.299 280.845 277.935 284.882 262.638 285.743C245.233 286.722 231.621 284.546 231.621 284.546C213.501 281.975 196.865 270.434 183.133 253.993C172.789 241.608 167.151 227.769 163.934 215.791C163.237 215.966 162.851 216.062 162.851 216.062C157.075 217.506 152.527 214.599 149.306 212.03C145.114 208.639 142.099 204.185 139.786 199.531C135.035 189.98 132.971 179.298 133.879 168.814C134.127 166.156 134.56 163.428 135.903 161.036C137.802 157.624 141.583 155.118 145.733 154.498C149.883 153.879 154.324 155.185 157.318 157.889C157.318 157.889 157.228 70.3552 253.706 70.3552C360.614 70.3552 351.628 157.886 351.628 157.886L351.63 157.884Z" fill="white"/>
<path d="M368.06 99.646C367.55 96.3588 367.006 93.3673 366.487 90.7897C356.418 41.0151 306.678 1.48778 254.528 4.3753C202.377 1.48778 152.638 41.0151 142.57 90.7897C139.842 104.206 140.177 127.183 142.658 137.888L147.108 154.372C152.066 154.122 157.163 156.495 159.527 160.604C179.107 145.149 214.344 122.493 231.663 107.594C230.174 116.837 224.883 132.56 231.547 130.944C259.375 124.498 286.047 111.499 302.174 91.2176C305.573 103.194 311.191 119.369 315.318 126.438C320.562 135.421 334.558 154.738 348.184 160.863C350.184 159.131 351.629 157.884 351.629 157.884C354.638 155.19 359.074 153.87 363.227 154.504C364.426 154.681 365.595 155.019 366.695 155.495C372.348 139.452 370.591 115.936 368.059 99.6442L368.06 99.646Z" fill="#645D5C"/>
<path d="M129.34 206.615C129.607 205.794 129.915 204.986 130.264 204.192C131.867 200.544 134.507 197.242 137.772 195.019C138.378 196.547 139.048 198.052 139.784 199.531C142.097 204.185 145.112 208.639 149.304 212.03C152.523 214.599 157.073 217.508 162.85 216.062C162.85 216.062 163.226 215.967 163.93 215.788C167.148 227.766 172.785 241.608 183.131 253.993C185.18 256.445 187.292 258.789 189.465 261.009C185.884 271.177 176.747 280.968 167.461 286.551C160.206 290.914 152.736 293.797 143.679 292.716C142.04 292.52 140.319 292.42 139.555 290.955C138.452 288.842 141.912 284.962 143.88 281.176C146.215 276.683 144.813 269.415 143.148 264.633C141.483 259.851 138.709 255.548 136.384 251.049C132.077 242.714 129.285 233.599 128.185 224.281C127.488 218.376 127.502 212.229 129.34 206.615Z" fill="#645D5C"/>
<path d="M132.02 194.313C122.815 203.671 122.608 217.205 124.688 229.386C125.79 235.844 127.742 242.084 130.336 248.093C132.735 253.646 136.202 258.68 138.515 264.261C140.182 268.286 141.958 274.149 140.453 278.459C138.89 282.933 133.705 286.826 135.482 292.078C137.529 298.128 146.786 297.501 151.791 296.862C157.453 296.138 162.758 294.064 167.722 291.286C179.095 284.921 188.846 274.693 193.447 262.395C194.246 260.257 192.556 257.762 190.497 257.197C188.129 256.546 186.104 258.004 185.301 260.148C181.923 269.182 174.54 277.037 166.504 282.173C162.556 284.696 158.344 286.838 153.775 287.958C151.566 288.499 149.373 288.74 147.097 288.712C145.962 288.698 144.804 288.659 143.681 288.488C143.767 288.501 142.329 288.324 142.414 288.235C143.225 288.631 143.586 289.201 143.496 289.944C143.461 290.587 143.508 290.587 143.637 289.946C144.828 288.347 145.809 286.31 146.826 284.569C148.183 282.248 148.959 279.884 149.229 277.211C149.688 272.649 148.725 267.807 147.222 263.506C145.42 258.347 142.523 253.743 140.032 248.913C137.491 243.987 135.556 238.793 134.177 233.425C131.459 222.855 129.586 208.833 137.994 200.285C141.812 196.404 135.842 190.425 132.02 194.309V194.313Z" fill="#211715"/>
<path d="M343.926 205.981C343.782 210.386 342.723 214.677 341.441 218.876C340.992 220.346 340.508 221.806 340.014 223.262C339.894 223.612 339.771 223.959 339.648 224.308C339.201 225.577 339.857 223.913 339.486 224.711C337.569 228.845 335.387 232.822 332.989 236.699C326.007 247.984 317.533 258.671 307.159 267.022C301.53 271.552 295.187 275.16 288.178 276.769C282.882 277.986 285.123 286.136 290.424 284.919C304.88 281.597 316.901 270.998 326.335 260.034C334.199 250.894 341.503 240.608 346.51 229.586C349.821 222.297 352.112 213.981 352.376 205.981C352.556 200.54 344.108 200.547 343.928 205.981H343.926Z" fill="#211715"/>
<path d="M160.306 154.9C154.56 149.991 146.724 148.757 139.828 151.968C132.707 155.285 130.141 162.221 129.593 169.6C128.502 184.314 133.034 200.996 143.142 212.023C148.523 217.894 155.876 221.917 163.974 220.137C169.283 218.969 167.035 210.821 161.729 211.986C155.992 213.247 150.688 208.319 147.49 204.12C143.023 198.257 140.294 190.959 138.862 183.784C138.137 180.15 137.843 176.454 137.903 172.75C137.955 169.512 138.006 165.76 139.71 162.9C142.664 157.939 150.086 157.245 154.334 160.874C156.068 162.354 158.606 162.576 160.308 160.874C161.825 159.356 162.051 156.386 160.308 154.898L160.306 154.9Z" fill="#211715"/>
<path d="M155.684 194.172C157.457 208.697 160.66 222.862 166.887 236.182C174.783 253.07 187.943 268.003 203.6 278.121C211.728 283.375 220.898 287.203 230.499 288.622C232.754 288.955 235.039 288.06 235.695 285.671C236.242 283.68 235.016 280.808 232.745 280.474C216.333 278.047 202.365 268.515 191.146 256.664C179.558 244.422 171.865 229.688 167.676 213.404C166.762 209.851 166.002 206.259 165.374 202.644C165.088 201.007 164.831 199.366 164.597 197.721C164.427 196.528 164.344 195.89 164.135 194.174C163.858 191.909 162.39 189.948 159.91 189.948C157.842 189.948 155.408 191.893 155.686 194.174L155.684 194.172Z" fill="#211715"/>
<path d="M354.617 160.872C358.839 157.293 365.945 157.951 369.087 162.636C370.98 165.46 371 169.492 371.053 172.753C371.111 176.322 370.845 179.891 370.171 183.396C368.794 190.543 366.131 197.589 361.89 203.54C360.258 205.829 358.132 208.444 355.509 209.62C352.838 210.817 349.698 210.949 346.825 210.949C341.388 210.949 341.38 219.399 346.825 219.401C353.799 219.401 360.061 217.888 365.068 212.809C370.194 207.608 373.636 200.878 376.041 194.047C378.515 187.016 379.712 179.417 379.485 171.964C379.258 164.511 377.651 157.418 371.109 153.072C364.099 148.415 354.897 149.595 348.645 154.894C346.904 156.37 347.126 159.351 348.645 160.87C350.37 162.596 352.873 162.351 354.619 160.87L354.617 160.872Z" fill="#211715"/>
<path d="M146.733 136.765C145.455 131.109 145.128 125.271 144.955 119.315C144.751 112.242 144.925 105.13 145.694 98.093C147.072 85.4619 151.656 73.1635 158.034 62.2332C171.353 39.4129 193.343 21.6335 218.464 13.4411C224.638 11.4268 231.04 9.90033 237.494 9.14148C244.342 8.33508 251.155 8.60447 258.023 8.47241C271.398 8.21359 284.644 10.8441 297.063 15.7775C321.579 25.5158 342.457 44.6263 354.262 68.2107C359.862 79.3998 362.685 91.4042 364.428 103.727C366.334 117.2 367.362 131.514 365.01 144.992C364.454 148.177 363.681 151.315 362.625 154.373C360.846 159.525 369.004 161.738 370.773 156.62C375.56 142.76 375.247 127.185 373.916 112.767C372.696 99.5526 370.692 86.1133 365.862 73.6917C355.529 47.1142 334.846 24.9771 309.44 12.1575C296.627 5.69229 282.745 1.60399 268.437 0.371506C264.87 0.0651469 261.286 -0.0545797 257.706 0.0281725C254.109 0.110925 250.52 -0.052819 246.919 0.0281725C239.747 0.188395 232.555 1.11628 225.562 2.7097C197.657 9.06753 172.669 26.4191 156.117 49.6513C147.982 61.0676 141.94 74.1512 138.885 87.8511C135.847 101.475 135.724 116.217 137.2 130.056C137.521 133.058 137.922 136.066 138.587 139.013C139.786 144.316 147.933 142.071 146.735 136.766L146.733 136.765Z" fill="#211715"/>
<path d="M298.515 93.7934C300.56 100.789 302.833 107.724 305.423 114.538C307.469 119.913 309.635 125.306 312.659 130.217C318.647 139.941 326.007 149.355 334.674 156.829C339.597 161.074 345.234 165.041 351.68 166.483C356.976 167.668 359.237 159.522 353.925 158.333C343.895 156.088 335.589 146.691 329.218 138.922C322.947 131.275 317.791 123.119 314.188 113.897C311.328 106.574 308.866 99.0896 306.661 91.5468C305.138 86.3369 296.982 88.5536 298.513 93.7934H298.515Z" fill="#211715"/>
<path d="M299.469 87.8758C290.26 99.4945 278.164 108.215 264.96 114.779C258.116 118.181 250.992 120.961 243.705 123.253C239.903 124.449 236.061 125.514 232.189 126.451C231.721 126.563 231.244 126.657 230.779 126.785C229.848 127.046 231.145 126.968 230.769 126.827C231.045 126.931 231.93 127.194 232.441 127.815C232.428 127.801 232.831 128.498 232.601 128.083C232.516 127.931 232.501 127.646 232.465 127.468C232.668 128.488 232.488 127.363 232.494 127.153C232.64 121.221 234.709 114.934 235.741 108.717C236.434 104.534 232.018 101.745 228.681 104.606C219.979 112.064 210.583 118.707 201.249 125.34C190.611 132.9 179.866 140.307 169.313 147.989C164.12 151.769 158.967 155.615 153.986 159.671C152.215 161.113 152.488 164.15 153.986 165.647C155.737 167.399 158.185 167.092 159.96 165.647C179.009 150.139 200.022 137.009 219.738 122.332C224.814 118.554 229.848 114.703 234.655 110.583L227.595 106.472C226.5 113.066 224.239 119.623 224.052 126.341C223.978 128.974 224.438 131.838 226.476 133.694C229.545 136.487 233.77 134.8 237.251 133.898C254.023 129.555 270.55 122.845 284.808 112.895C292.522 107.513 299.596 101.236 305.448 93.8533C306.865 92.0662 307.192 89.6206 305.448 87.8775C303.978 86.4074 300.9 86.0799 299.474 87.8775L299.469 87.8758Z" fill="#211715"/>
<path d="M100.445 419.626C102.856 427.338 95.068 442 91.0674 445.474C84.2348 451.404 78.0042 454.024 69.0983 454.193C60.4933 454.357 50.2621 452.218 44.1529 445.143C39.0136 439.19 36.4932 435.058 35.3086 424.262C34.7595 419.258 36.7906 403.403 41.0376 395.652L100.445 419.626Z" fill="white"/>
<path d="M96.3722 420.749C96.7189 421.962 96.77 423.255 96.5957 424.649C96.344 426.665 95.7174 428.681 95.0363 430.588C93.8254 433.979 92.1146 437.255 90.0588 440.212C89.4516 441.083 89.8529 440.599 89.2105 441.326C88.8514 441.735 88.4801 442.118 88.0788 442.486C86.3557 444.066 84.3897 445.422 82.3639 446.58C78.6184 448.721 74.4612 449.751 70.1666 449.934C61.6356 450.299 52.5502 448.46 46.7684 441.724C42.1095 436.296 39.4641 429.748 39.4448 422.304C39.4342 418.288 40.0097 414.249 40.7807 410.315C41.6184 406.042 42.6833 401.542 44.6845 397.786C47.2418 392.988 39.9517 388.715 37.389 393.52C33.0417 401.677 31.3186 411.923 31.0176 421.087C30.7184 430.179 33.758 438.976 39.399 446.02C46.4181 454.785 56.8799 458.355 67.8856 458.428C73.3911 458.463 78.805 457.54 83.8423 455.285C88.026 453.412 92.449 450.554 95.4253 447.017C98.662 443.168 100.969 438.588 102.777 433.922C104.627 429.146 105.959 423.566 104.516 418.506C103.027 413.286 94.8726 415.504 96.3687 420.753L96.3722 420.749Z" fill="#211715"/>
<path d="M470.939 395.652C475.187 403.403 477.218 419.258 476.668 424.262C475.484 435.058 472.965 439.19 467.824 445.143C461.715 452.218 451.484 454.357 442.879 454.193C433.973 454.024 427.744 451.404 420.91 445.474C416.909 442.002 409.121 427.338 411.532 419.626L470.938 395.652H470.939Z" fill="white"/>
<path d="M407.461 418.502C406.176 423.01 407.123 427.947 408.605 432.289C410.061 436.556 412.048 440.77 414.626 444.476C420.354 452.711 430.259 457.438 440.082 458.276C450.637 459.178 462.928 456.679 470.38 448.617C476.925 441.536 480.481 433.039 480.96 423.367C481.19 418.689 480.403 413.852 479.571 409.268C478.59 403.866 477.186 398.392 474.588 393.52C472.029 388.719 464.734 392.983 467.293 397.786C470.751 404.273 472.085 412.791 472.473 420.201C472.837 427.172 471.036 434.236 466.914 439.652C464.403 442.951 461.391 445.793 457.459 447.478C453.649 449.11 449.442 449.814 445.32 449.952C436.974 450.228 428.499 447.732 422.768 441.326C420.926 439.266 418.639 434.977 417.347 431.672C416.559 429.656 415.916 427.568 415.519 425.44C415.211 423.783 415.209 422.149 415.608 420.749C417.103 415.509 408.954 413.273 407.461 418.502Z" fill="#211715"/>
<path d="M235.035 238.589C240.467 243.908 249.084 245.441 256.369 245.436C263.654 245.431 272.273 243.909 277.708 238.589C281.599 234.778 275.624 228.804 271.734 232.613C271.558 232.785 270.667 233.542 271.176 233.139C271.648 232.764 270.499 233.592 270.229 233.757C269.754 234.05 269.263 234.319 268.765 234.569C268.43 234.738 268.089 234.898 267.746 235.048C268.312 234.803 267.674 235.071 267.429 235.159C263.844 236.451 260.172 236.983 256.369 236.986C252.657 236.988 249.003 236.506 245.502 235.235C245.47 235.224 244.226 234.719 244.986 235.05C244.698 234.925 244.414 234.789 244.133 234.652C243.578 234.379 243.035 234.083 242.508 233.759C242.103 233.509 241.725 233.231 241.333 232.963C242.397 233.69 241.267 232.87 241.009 232.615C237.121 228.806 231.142 234.777 235.035 238.589Z" fill="#211715"/>
<path d="M255.455 198.274C256.27 201.384 257.053 204.544 257.52 207.727L257.368 206.604C257.423 207.041 257.448 207.47 257.404 207.909L257.555 206.785C257.523 206.988 257.479 207.178 257.411 207.372L257.837 206.363C257.777 206.5 257.713 206.616 257.629 206.74L258.289 205.884C258.192 206.002 258.099 206.093 257.981 206.188L258.836 205.528C258.597 205.681 258.345 205.806 258.088 205.924L259.097 205.498C258.685 205.671 258.277 205.796 257.835 205.866L258.958 205.715C258.56 205.762 258.171 205.759 257.773 205.713L258.896 205.865C258.449 205.803 258.011 205.694 257.566 205.634C256.386 205.475 255.385 205.431 254.311 206.06C253.435 206.572 252.599 207.578 252.37 208.585C252.123 209.666 252.176 210.881 252.796 211.84C253.345 212.692 254.265 213.64 255.32 213.782C256.281 213.913 257.214 214.159 258.19 214.201C259.662 214.267 261.035 213.821 262.351 213.222C263.963 212.488 265.217 211.073 265.646 209.335C266.009 207.866 265.848 206.548 265.6 205.077C265.086 202.032 264.382 199.014 263.599 196.028C263.039 193.89 260.556 192.379 258.403 193.077C256.203 193.788 254.853 195.984 255.455 198.274Z" fill="#211715"/>
<path d="M205.169 172.771C203.59 177.9 204.619 189.701 214.333 190.705C227.173 190.628 227.856 176.361 223.535 169.653C219.995 164.161 209.59 161.876 205.169 172.771Z" fill="#211715"/>
<path d="M305.789 172.771C307.368 177.901 306.34 189.701 296.625 190.705C283.785 190.628 283.101 176.361 287.423 169.653C290.963 164.161 301.368 161.877 305.789 172.771Z" fill="#211715"/>
<path d="M252.138 278.058C226.453 260.838 125.232 242.268 98.5089 241.656C96.5605 241.612 94.9659 243.168 94.9624 245.117C94.9025 276.954 94.3675 432.234 94.1862 463.062C94.1756 464.81 95.5802 466.368 97.3209 466.515C122.414 468.606 228.232 496.015 252.178 507.097C254.192 508.028 257.471 508.017 259.477 507.072C283.354 495.821 388.456 467.872 414.581 466.483C416.362 466.388 417.801 464.826 417.791 463.041C417.608 432.149 417.075 276.806 417.015 245.073C417.011 243.198 415.508 241.689 413.634 241.677C383.264 241.459 286.469 262.129 259.437 278.299C257.395 279.521 254.112 279.382 252.136 278.056L252.138 278.058Z" fill="#F4B467"/>
<path d="M106.412 227.428C127.231 228.484 224.267 244.85 255.769 271.751C289.322 244.594 370.913 228.771 403.941 226.808C404.971 226.746 405.831 227.574 405.831 228.606V241.967C369.291 244.501 284.452 263.333 259.431 278.306C257.393 279.525 254.109 279.38 252.136 278.058C228.074 261.926 137.737 244.614 104.44 241.981V241.9C104.44 238.222 104.495 232.197 104.525 229.194C104.535 228.171 105.391 227.378 106.412 227.429V227.428Z" fill="white"/>
<path d="M108.666 241.899C108.668 239.617 108.682 237.333 108.703 235.051C108.712 234.099 108.721 233.146 108.73 232.194C108.735 231.664 108.774 231.125 108.745 230.597C108.657 228.984 109.254 230.544 107.962 231.143L105.831 231.72C108.534 231.419 111.556 232.051 114.244 232.361C115.068 232.456 115.891 232.555 116.713 232.659C117.15 232.713 117.584 232.768 118.021 232.824C118.295 232.859 119.763 233.055 118.772 232.921C120.881 233.206 122.988 233.511 125.091 233.829C135.34 235.382 145.543 237.259 155.69 239.374C179.259 244.286 202.905 250.281 225.235 259.402C230.205 261.432 235.633 263.937 240.604 266.666C242.957 267.959 245.27 269.332 247.507 270.818C248.494 271.473 249.466 272.151 250.42 272.853C250.626 273.005 250.83 273.158 251.034 273.311C252.034 274.065 250.407 272.799 251.368 273.573C251.845 273.957 252.317 274.345 252.784 274.739C254.67 276.339 256.849 276.274 258.757 274.739C261.626 272.431 265.695 269.725 269.356 267.569C273.654 265.039 278.102 262.766 282.627 260.669C292.49 256.099 302.752 252.399 313.111 249.128C334.156 242.483 355.8 237.569 377.589 234.108C382.723 233.292 386.817 232.711 391.774 232.137C393.956 231.884 396.14 231.655 398.328 231.458C400.335 231.276 402.529 230.879 404.534 231.097L402.403 230.519C400.887 229.803 401.746 227.718 401.609 229.232C401.565 229.717 401.609 230.229 401.609 230.715V235.351C401.609 237.599 401.609 239.849 401.609 242.098C401.609 247.536 410.057 247.545 410.057 242.098V230.549C410.057 228.16 409.959 225.899 408.04 224.126C405.745 222.006 402.487 222.653 399.662 222.889C388.72 223.806 377.823 225.435 367.017 227.361C340.389 232.106 313.724 238.719 288.629 248.929C275.948 254.088 263.502 260.138 252.782 268.76H258.755C250.356 261.639 240.389 256.683 230.306 252.424C218.11 247.272 205.492 243.186 192.748 239.631C169.534 233.155 145.774 228.178 121.897 224.887C117.604 224.295 113.302 223.73 108.981 223.375C105.841 223.116 102.682 223.274 100.985 226.473C99.9011 228.519 100.287 231.333 100.265 233.581C100.239 236.353 100.218 239.124 100.216 241.895C100.213 247.334 108.661 247.343 108.664 241.895L108.666 241.899Z" fill="#211715"/>
<path d="M254.269 274.41C247.917 270.186 240.548 267.399 233.405 264.839C223.721 261.367 213.807 258.535 203.856 255.945C181.874 250.225 159.557 245.681 137.142 242.032C128.002 240.545 118.827 239.196 109.617 238.238C106.441 237.909 103.259 237.622 100.068 237.485C97.2557 237.365 94.6403 237.837 92.662 240.057C90.9283 242.004 90.7382 244.381 90.7329 246.846C90.703 261.023 90.6573 275.2 90.6115 289.377C90.5446 310.37 90.4742 331.364 90.4003 352.357C90.3264 373.505 90.2489 394.652 90.1662 415.8C90.1099 430.44 90.0536 445.08 89.9761 459.722C89.9708 460.745 89.9268 461.776 89.9585 462.799C90.0747 466.564 92.3804 469.833 96.1927 470.592C97.6658 470.885 99.2323 470.936 100.725 471.115C101.438 471.201 99.7286 470.969 100.901 471.14C101.219 471.187 101.538 471.231 101.857 471.277C102.682 471.399 103.507 471.527 104.331 471.661C112.401 472.971 120.409 474.665 128.389 476.427C149.64 481.118 170.751 486.484 191.736 492.238C209.534 497.119 227.495 502.022 244.765 508.577C245.437 508.833 246.108 509.091 246.775 509.357C247.109 509.489 247.442 509.623 247.774 509.759C247.966 509.836 249.1 510.311 248.445 510.033C247.875 509.79 249.321 510.422 249.649 510.567C251.263 511.28 252.743 511.768 254.514 511.942C257.541 512.239 260.119 511.37 262.825 510.164C263.08 510.049 263.339 509.94 263.596 509.826C263.747 509.759 263.902 509.695 264.053 509.628C264.555 509.41 263.24 509.965 263.757 509.755C264.437 509.477 265.116 509.197 265.799 508.926C273.103 506.033 280.594 503.6 288.083 501.239C308.833 494.696 329.846 488.956 350.94 483.641C369.375 478.996 387.984 474.36 406.806 471.554C407.169 471.499 407.532 471.446 407.896 471.395C408.313 471.335 409.255 471.212 408.267 471.341C409.012 471.244 409.756 471.149 410.503 471.066C411.787 470.921 413.076 470.837 414.362 470.724C418.477 470.36 421.719 467.625 421.987 463.338C422.056 462.24 422.001 461.123 421.994 460.023C421.962 453.994 421.936 447.964 421.91 441.935C421.829 423.274 421.758 404.614 421.689 385.953C421.609 364.127 421.533 342.303 421.461 320.478C421.399 301.959 421.339 283.442 421.285 264.923C421.267 259.02 421.251 253.114 421.239 247.211C421.235 245.2 421.267 243.224 420.28 241.386C418.678 238.398 415.552 237.425 412.381 237.456C408.857 237.492 405.337 237.743 401.829 238.064C380.567 240.013 359.434 244.147 338.613 248.767C317.108 253.539 295.484 258.909 274.842 266.687C270.986 268.14 267.16 269.696 263.427 271.446C261.908 272.158 260.405 272.906 258.935 273.716C257.361 274.582 256.038 275.47 254.262 274.411C249.578 271.623 245.324 278.926 249.997 281.71C253.151 283.588 257.194 283.909 260.565 282.423C262.182 281.71 263.689 280.722 265.269 279.921C269.052 278.005 271.563 276.975 275.122 275.589C284.364 271.992 293.858 269.045 303.391 266.326C325.46 260.034 347.925 254.988 370.519 250.975C380.238 249.25 389.318 247.815 398.691 246.825C402.396 246.434 406.113 246.112 409.837 245.971C410.589 245.943 411.34 245.922 412.094 245.911C412.416 245.906 412.766 245.95 413.083 245.904C413.041 245.91 413.627 245.913 413.628 245.904C413.53 246.223 412.842 245.381 412.898 245.397C412.518 245.29 412.938 244.89 412.785 245.441C412.729 245.645 412.785 245.989 412.785 246.202C412.785 246.749 412.787 247.297 412.789 247.846C412.821 262.032 412.866 276.218 412.91 290.402C412.975 311.023 413.046 331.643 413.118 352.264C413.19 373.117 413.266 393.971 413.349 414.826C413.405 429.447 413.461 444.068 413.537 458.688C413.542 459.775 413.547 460.863 413.554 461.949C413.554 462.157 413.525 462.396 413.558 462.6C413.681 463.338 413.382 462.722 413.706 462.578C414.591 462.183 414.083 462.285 413.245 462.35C410.07 462.597 406.907 463.046 403.762 463.528C395.51 464.796 387.323 466.492 379.17 468.277C358.06 472.897 337.11 478.286 316.299 484.098C298.908 488.954 281.36 493.867 264.509 500.406C262.925 501.02 261.351 501.665 259.789 502.336C259.236 502.572 258.685 502.807 258.139 503.059C257.955 503.144 257.15 503.445 257.821 503.219C257.152 503.443 256.527 503.563 255.823 503.568C255.109 503.573 254.507 503.461 253.822 503.241C254.361 503.413 253.864 503.244 253.607 503.137C252.762 502.785 251.926 502.406 251.08 502.054C249.777 501.51 248.466 500.989 247.148 500.487C239.81 497.693 232.31 495.314 224.809 493.006C204.459 486.745 183.879 481.209 163.233 476.02C145.11 471.467 126.878 466.981 108.448 463.829C105.326 463.296 102.187 462.812 99.0387 462.465C98.8204 462.44 97.6711 462.176 97.518 462.313C98.303 461.611 98.31 464.013 98.4068 462.35C98.4719 461.262 98.4191 460.151 98.4244 459.062C98.4561 453.015 98.4825 446.967 98.5089 440.921C98.5881 422.543 98.6567 404.165 98.7254 385.785C98.8046 364.22 98.8803 342.654 98.9524 321.089C99.014 302.804 99.0739 284.52 99.1267 266.235C99.1443 260.27 99.1601 254.304 99.1742 248.339C99.1742 247.82 99.5068 245.582 99.1812 245.216C99.7603 245.865 97.569 245.64 99.2059 245.908C99.8536 246.013 100.573 245.962 101.232 245.998C104.509 246.177 107.779 246.489 111.041 246.846C113.021 247.063 114.999 247.299 116.975 247.55C117.451 247.61 117.924 247.672 118.399 247.734C118.568 247.755 120.068 247.955 119.36 247.859C120.511 248.014 121.661 248.174 122.81 248.338C127.664 249.028 132.51 249.785 137.346 250.589C148.167 252.389 158.948 254.424 169.684 256.669C190.53 261.027 211.499 265.899 231.561 273.14C233.504 273.843 235.438 274.572 237.357 275.343C237.839 275.537 238.321 275.734 238.802 275.933C239.477 276.213 238.448 275.772 239.365 276.17C240.197 276.533 241.028 276.899 241.854 277.28C244.661 278.575 247.422 279.998 250.001 281.713C254.542 284.733 258.776 277.415 254.265 274.415L254.269 274.41Z" fill="#211715"/>
<path d="M251.997 293.962C251.997 316.057 251.903 338.15 251.84 360.245C251.752 390.559 251.661 420.872 251.59 451.186C251.562 463.402 251.534 475.619 251.534 487.835C251.534 493.273 259.982 493.282 259.982 487.835C259.982 462.718 260.068 437.602 260.139 412.486C260.22 383.025 260.313 353.561 260.389 324.1C260.415 314.053 260.445 304.009 260.445 293.962C260.445 288.523 251.997 288.515 251.997 293.962Z" fill="#211715"/>
<path d="M49.8978 350.524C51.8919 347.957 54.5637 344.443 57.3059 343.071C65.7066 336.199 84.5287 338.513 93.4329 341.479C99.7973 343.599 107.872 346.924 111.85 352.415C115.645 357.655 115.999 364.409 106.632 365.934C110.396 367.654 114.129 369.952 115.893 372.867C119.168 378.283 117.764 384.97 111.473 387.653C117.136 391.272 120.974 404.764 108.362 406.614C112.732 413.34 110.416 418.143 104.592 419.599C99.5385 420.863 91.2522 418.37 82.7405 421.291C72.1309 426.513 62.44 425.931 55.581 421.038C44.901 413.418 41.9124 399.63 41.8314 384.931C41.7927 377.764 42.1394 370.163 44.0544 363.229C45.0858 359.495 46.5132 354.75 49.0001 351.667C49.28 351.318 49.581 350.934 49.8978 350.528V350.524Z" fill="white"/>
<path d="M109.997 369.492C114.779 367.877 118.607 364.342 118.577 358.984C118.551 354.491 115.986 350.184 112.838 347.14C106.401 340.92 96.7453 337.433 88.0823 335.748C79.5319 334.086 69.7882 333.299 61.4068 336.197C52.4587 339.291 45.1509 347.552 41.7874 356.398C37.7023 367.14 37.0757 379.186 37.7974 390.56C38.4257 400.443 40.6082 410.53 46.8494 418.464C53.5147 426.936 63.5734 430.456 74.1127 428.628C77.045 428.119 79.8346 427.163 82.5627 425.991C85.5073 424.725 88.3745 424.138 91.5866 424.04C96.4109 423.892 101.601 424.936 106.311 423.508C111.91 421.811 115.574 417.05 114.668 411.104C113.781 405.273 109.574 401.658 104.296 399.667C98.8715 397.621 92.9013 396.253 87.1072 396.087C80.2764 395.892 73.4914 397.381 66.8401 398.749C61.5177 399.844 63.7706 407.993 69.086 406.899C73.81 405.926 78.5516 404.864 83.3812 404.595C88.1668 404.327 92.5775 405.021 97.1695 406.325C99.799 407.072 103.469 407.634 105.303 409.898C106.017 410.78 106.517 412.513 106.433 413.213C106.32 414.159 105.748 414.705 104.632 415.173C101.348 416.552 96.7559 415.567 93.1125 415.569C90.6326 415.569 88.1545 415.761 85.7097 416.185C82.862 416.68 80.4595 417.876 77.7842 418.869C70.2722 421.658 62.0299 421.552 55.9084 415.875C50.2498 410.63 47.7787 403.044 46.7297 395.582C45.4519 386.502 45.5117 376.452 47.3791 367.471C48.2292 363.382 49.3416 358.958 51.5487 355.37C53.4021 352.355 56.0175 349.001 58.9392 346.992C61.4526 345.265 63.9202 344.043 67.3171 343.379C70.7668 342.703 74.3697 342.705 77.8687 342.906C85.3648 343.335 92.8573 345.154 99.6318 348.425C103.235 350.165 107.04 352.355 109.103 355.921C109.544 356.683 109.728 357.125 109.981 357.995C110.02 358.127 110.171 359.113 110.113 358.521C110.116 358.563 110.053 359.856 110.16 359.21C110.118 359.47 110.032 359.817 109.923 360.067C110.183 359.467 109.467 360.491 109.814 360.148C109.268 360.689 108.594 361.057 107.756 361.34C102.633 363.071 104.831 371.237 110.002 369.49L109.997 369.492Z" fill="#211715"/>
<path d="M66.6095 365.331C71.7964 364.058 77.3019 364.141 82.5979 364.497C87.7813 364.846 93.0017 365.604 97.9774 367.14C102.362 368.492 107.364 370.239 110.812 373.369C113.969 376.237 114.452 381.067 110.497 383.437C105.838 386.229 110.081 393.539 114.761 390.735C121.435 386.734 123.54 378.767 120.137 371.835C117.072 365.596 109.86 362.479 103.705 360.19C97.5497 357.901 91.1166 356.787 84.6062 356.202C77.9127 355.602 70.9287 355.57 64.3637 357.181C59.0853 358.477 61.3206 366.629 66.6095 365.331Z" fill="#211715"/>
<path d="M64.9322 386.717C77.0625 384.363 90.1011 384.75 102.092 387.771C106.193 388.805 110.312 390.902 111.85 394.712C113.207 398.073 112.92 400.593 109.434 402.125C107.344 403.044 106.86 406.097 107.918 407.907C109.178 410.062 111.6 410.345 113.698 409.423C119.677 406.794 121.902 400.475 120.562 394.367C119.19 388.099 114.392 383.387 108.599 381.016C102.184 378.389 94.6438 377.505 87.7848 377.089C79.3225 376.579 71.0203 376.95 62.6881 378.567C60.4476 379.001 59.1662 381.686 59.7383 383.764C60.3824 386.108 62.6864 387.152 64.934 386.715L64.9322 386.717Z" fill="#211715"/>
<path d="M462.079 350.524C460.085 347.957 457.413 344.443 454.671 343.071C446.27 336.199 427.448 338.513 418.544 341.479C412.18 343.599 404.105 346.924 400.127 352.415C396.332 357.655 395.978 364.409 405.346 365.934C401.581 367.654 397.848 369.952 396.084 372.867C392.809 378.283 394.213 384.97 400.504 387.653C394.842 391.272 391.003 404.764 403.615 406.614C399.245 413.34 401.561 418.143 407.385 419.599C412.439 420.863 420.725 418.37 429.237 421.291C439.846 426.513 449.537 425.931 456.396 421.038C467.076 413.418 470.065 399.63 470.146 384.931C470.184 377.764 469.838 370.163 467.923 363.229C466.891 359.495 465.464 354.75 462.977 351.667C462.697 351.318 462.396 350.934 462.079 350.528V350.524Z" fill="white"/>
<path d="M404.228 361.344C403.631 361.141 402.915 360.822 402.519 360.5C402.308 360.328 401.922 359.75 402.061 360.071C401.709 359.254 401.787 359.419 401.869 358.525C401.82 359.055 401.927 358.289 401.94 358.236C402.049 357.755 402.193 357.259 402.39 356.806C403.644 353.919 406.622 351.614 409.418 349.98C415.473 346.448 422.49 344.3 429.416 343.348C435.724 342.481 443.493 342.159 449.231 344.687C455.444 347.425 460.677 354.206 462.838 360.917C465.777 370.043 466.267 379.641 465.812 389.168C465.438 397.029 464.033 405.218 459.564 411.863C455.234 418.3 448.141 421.647 440.42 420.54C435.437 419.825 431.188 417.025 426.273 416.187C421.459 415.367 416.735 415.724 411.893 415.759C410.119 415.772 408.647 415.803 407.067 415.029C405.888 414.451 405.516 413.815 405.574 412.784C405.77 409.298 409.177 407.982 412.088 407.102C416.791 405.681 421.422 404.491 426.369 404.524C431.966 404.563 437.44 405.778 442.896 406.901C445.128 407.361 447.46 406.252 448.092 403.95C448.666 401.859 447.386 399.214 445.142 398.753C439.206 397.531 433.197 396.232 427.114 396.087C421.54 395.953 416.258 397.119 410.937 398.637C406.326 399.952 401.683 401.823 399.076 406.109C396.47 410.394 396.369 416.073 399.745 419.93C403.01 423.665 408.197 424.309 412.859 424.191C418.595 424.047 424.032 423.679 429.421 425.994C439.749 430.431 451.338 430.489 460.397 423.269C468.152 417.087 471.974 407.4 473.402 397.83C475.058 386.726 475.037 374.602 472.4 363.655C471.121 358.343 469.362 353.021 465.967 348.675C464.536 346.843 463.142 344.964 461.555 343.263C459.881 341.467 457.911 340.145 456.049 338.849C448.946 333.902 438.839 333.84 430.581 334.755C420.839 335.837 410.455 338.638 402.422 344.46C398.265 347.475 394.468 351.686 393.62 356.935C392.622 363.108 396.304 367.576 401.984 369.495C407.146 371.239 409.362 363.08 404.23 361.345L404.228 361.344Z" fill="#211715"/>
<path d="M447.615 357.183C441.05 355.572 434.066 355.604 427.373 356.204C420.862 356.787 414.415 357.907 408.274 360.192C402.133 362.477 394.907 365.597 391.842 371.837C388.438 378.769 390.543 386.738 397.218 390.736C401.892 393.538 406.146 386.234 401.482 383.438C397.531 381.07 398.006 376.241 401.167 373.371C404.615 370.24 409.615 368.494 414.002 367.141C418.977 365.606 424.198 364.849 429.381 364.499C434.677 364.141 440.182 364.06 445.369 365.333C450.65 366.629 452.901 358.481 447.615 357.183Z" fill="#211715"/>
<path d="M449.293 378.567C440.96 376.95 432.656 376.575 424.196 377.089C417.337 377.507 409.797 378.389 403.381 381.016C397.589 383.387 392.791 388.102 391.418 394.367C390.081 400.475 392.302 406.792 398.282 409.423C400.37 410.34 402.818 410.034 404.062 407.907C405.111 406.112 404.647 403.049 402.547 402.125C399.062 400.593 398.761 398.103 400.13 394.712C401.669 390.902 405.789 388.81 409.888 387.771C421.869 384.738 434.927 384.365 447.048 386.717C449.285 387.152 451.607 386.085 452.244 383.766C452.813 381.695 451.545 379.005 449.294 378.568L449.293 378.567Z" fill="#211715"/>
<path d="M251.471 501.863C230.534 492.49 135.619 467.344 104.386 462.896L98.7407 462.092L98.7692 459.438C98.7849 457.979 98.8554 449.617 98.926 440.857L99.0543 424.929L102.654 424.479C106.999 423.936 110.253 422.368 112.444 419.764C114.388 417.453 115.504 413.727 115.002 411.219C114.699 409.7 114.963 409.165 116.627 407.934C120.812 404.84 122.331 396.704 119.776 391.072L118.572 388.419L120.221 385.468C123.233 380.076 122.026 371.886 117.607 367.733L116.1 366.316L117.434 364.054C121.734 356.764 115.812 346.508 104.047 340.867L99.1303 338.51L99.093 322.824C99.0725 314.196 99.2415 293.443 99.4686 276.706L99.8816 246.275L102.761 246.455C115.222 247.237 143.397 251.669 168.049 256.726C206.35 264.583 234.324 273.161 249.519 281.707C254.496 284.506 257.317 284.322 264.688 280.714C277.793 274.3 295.887 268.329 322.348 261.685C348.533 255.111 382.004 248.774 398.556 247.258C402.696 246.879 407.565 246.429 409.376 246.259L412.669 245.95V292.311V338.671L410.63 339.502C397.513 344.849 390.297 355.721 394.454 363.872C395.67 366.256 395.67 366.294 394.468 367.383C393.799 367.988 392.541 369.912 391.671 371.659C389.53 375.956 389.543 380.431 391.71 385.261C393.266 388.731 393.29 388.955 392.304 390.864C389.589 396.116 390.603 403.38 394.591 407.252C396.692 409.291 396.988 409.939 396.988 412.496C396.988 419.722 400.976 423.307 410.326 424.487L413.315 424.864L413.148 443.464L412.982 462.065L406.396 462.887C377.766 466.463 293.453 488.634 263.657 500.423C259.775 501.959 256.08 503.196 255.446 503.171C254.812 503.147 253.023 502.558 251.471 501.863ZM259.133 490.824C259.978 489.854 260.139 478.214 260.509 391.216C260.982 279.806 261.423 289.653 255.975 290.007C253.603 290.161 252.924 290.485 252.279 291.765C251.654 293.006 251.487 313.88 251.48 391.641C251.471 480.184 251.569 490.048 252.457 490.936C253.805 492.285 257.92 492.216 259.133 490.824Z" fill="white"/>
<path d="M342.092 151.511C333.888 144.923 323.268 131.339 317.642 120.236C315.911 116.82 312.832 108.833 310.8 102.489C305.795 86.8575 305.901 87.0854 303.304 86.4333C301.297 85.9295 300.155 86.7417 294.182 92.9215C283.26 104.221 270.721 112.402 254.533 118.794C246.573 121.937 232.801 126.26 232.801 125.615C232.801 125.477 233.63 121.293 234.645 116.318C236.351 107.95 236.382 107.109 235.068 105.102C234.286 103.909 232.957 102.934 232.115 102.937C231.272 102.939 223.75 108.03 215.399 114.25C200.618 125.259 162.194 152.769 160.764 153.366C160.372 153.53 158.331 152.831 156.229 151.813C154.127 150.795 151.004 149.962 149.289 149.962C146.335 149.962 146.123 149.758 145.286 146.099C144.551 142.887 144.657 141.921 145.916 140.366C147.107 138.895 147.283 137.685 146.745 134.69C145.331 126.824 144.909 111.911 145.828 102.329C148.054 79.1203 157.129 59.9543 174.299 42.1996C186.105 29.992 197.142 22.4541 212.056 16.413C225.321 11.0399 232.506 9.66668 250.098 9.14303C267.921 8.61248 276.927 9.69206 290.458 13.9812C322.07 24.0021 350.431 52.3442 359.533 83.0117C363.646 96.8693 365.271 109.458 365.253 127.335C365.244 136.607 364.848 145.392 364.374 146.856C363.601 149.245 363.037 149.577 358.88 150.092C356.168 150.427 352.799 151.623 350.756 152.976C348.837 154.246 347.158 155.285 347.025 155.283C346.893 155.281 344.673 153.584 342.092 151.511Z" fill="#AFAFE9"/>
<path d="M146.758 228.615L133.009 225.831L132.749 219.413C132.492 213.089 133.452 207.583 135.265 204.978C136.053 203.847 136.419 203.98 137.702 205.865C140.768 210.367 147.252 216.729 150.425 218.349C152.222 219.265 155.237 220.263 157.127 220.565C160.372 221.084 160.667 221.403 162.47 226.356L164.378 231.598L162.443 231.499C161.378 231.445 154.32 230.147 146.758 228.615Z" fill="#AFAFE9"/>
<path d="M313.002 381.221C313.002 375.839 313.002 370.458 313.002 365.076C313.002 356.979 313.002 348.883 313.002 340.786V337.657C313.002 337.083 312.908 336.475 313.329 336.041C314.062 335.286 315.997 335.326 317.002 335.145C318.571 334.861 320.141 334.581 321.712 334.306C325.155 333.703 328.601 333.116 332.047 332.539C338.568 331.447 345.095 330.39 351.625 329.353C354.097 328.961 356.57 328.57 359.044 328.185C359.776 328.072 360.617 327.783 361.085 328.692C361.447 329.395 361.204 330.708 361.204 331.508C361.204 343.205 361.204 354.903 361.204 366.601C361.204 367.668 361.204 368.736 361.204 369.802C361.204 373.026 366.211 373.031 366.211 369.802C366.211 357.778 366.211 345.755 366.211 333.731C366.211 331.004 366.698 327.8 364.951 325.5C363.787 323.965 361.957 323.035 360.02 323.05C358.771 323.059 357.458 323.393 356.223 323.586C350.033 324.556 343.844 325.545 337.661 326.558C330.617 327.713 323.575 328.891 316.55 330.154C314.904 330.451 313.068 330.577 311.541 331.282C309.888 332.044 308.634 333.556 308.187 335.327C307.969 336.192 307.994 337.064 307.994 337.944V360.332C307.994 367.167 307.821 374.028 307.994 380.862C307.998 380.981 307.994 381.101 307.994 381.22C307.994 384.443 313.002 384.45 313.002 381.221Z" fill="#211715"/>
<path d="M297.718 410.45C296.867 409.679 296.299 409.026 295.771 408.014C295.543 407.579 295.52 407.525 295.355 406.975C295.286 406.747 295.227 406.516 295.176 406.284C295.151 406.168 295.129 406.052 295.109 405.936C295.034 405.522 295.14 406.442 295.08 405.71C294.925 403.823 295.343 402.089 296.204 400.472C298.145 396.829 301.532 394.579 305.645 393.841C306.379 393.71 307.475 393.651 308.486 393.73C308.575 393.737 309.14 393.812 308.837 393.764C309.068 393.801 309.298 393.847 309.525 393.901C309.913 393.993 310.606 394.217 310.781 394.296C310.939 394.368 311.574 394.725 311.892 394.953C311.657 394.785 312.083 395.114 312.146 395.172C312.379 395.385 312.599 395.612 312.811 395.845C313.428 396.524 314.01 397.493 314.256 398.21C314.905 400.102 314.772 401.738 313.987 403.697C313.225 405.601 311.592 407.551 309.903 408.97C308.102 410.483 305.903 411.531 303.543 411.922C303.441 411.94 303.18 411.971 302.857 411.99C302.561 412.008 302.265 412.014 301.968 412.008C301.304 411.994 301.217 411.994 300.571 411.844C299.479 411.593 298.545 411.157 297.718 410.45C296.803 409.669 295.464 409.551 294.566 410.45C293.766 411.251 293.647 412.818 294.566 413.603C304.196 421.82 320.654 410.594 318.964 398.813C318.575 396.103 317.076 393.46 314.952 391.724C312.818 389.979 310.137 389.209 307.398 389.237C301.801 389.294 296.463 392.173 293.268 396.736C291.581 399.147 290.517 402.159 290.592 405.122C290.673 408.401 292.148 411.41 294.566 413.603C295.458 414.411 296.837 414.483 297.718 413.603C298.538 412.782 298.613 411.262 297.718 410.45Z" fill="#211715"/>
<path d="M299.846 413.053C296.315 411.878 293.72 408.43 293.729 404.924C293.738 401.487 295.775 397.517 298.792 395.056C300.38 393.761 303.195 392.36 305.245 391.844C308.363 391.059 311.994 391.441 313.686 392.732C318.713 396.568 318.416 402.826 312.942 408.378C311.113 410.232 308.902 411.684 306.625 412.524C305.147 413.069 304.522 413.186 302.755 413.247C301.356 413.295 300.379 413.231 299.846 413.053Z" fill="black"/>
<path d="M349.387 398.693C348.537 397.922 347.969 397.268 347.44 396.257C347.213 395.822 347.19 395.767 347.024 395.217C346.956 394.99 346.896 394.759 346.846 394.526C346.821 394.41 346.799 394.294 346.778 394.178C346.704 393.765 346.81 394.684 346.75 393.952C346.595 392.065 347.012 390.332 347.874 388.714C349.814 385.072 353.201 382.821 357.315 382.084C358.049 381.953 359.145 381.893 360.156 381.972C360.244 381.979 360.81 382.055 360.507 382.007C360.737 382.044 360.968 382.09 361.195 382.144C361.582 382.236 362.276 382.46 362.45 382.539C362.608 382.61 363.244 382.968 363.562 383.195C363.327 383.027 363.753 383.356 363.816 383.415C364.049 383.627 364.269 383.855 364.481 384.088C365.097 384.767 365.68 385.736 365.926 386.453C366.575 388.345 366.442 389.981 365.657 391.94C364.895 393.844 363.262 395.793 361.573 397.212C359.772 398.725 357.572 399.774 355.213 400.165C355.111 400.183 354.85 400.213 354.527 400.233C354.231 400.25 353.935 400.257 353.638 400.25C352.974 400.236 352.887 400.236 352.24 400.087C351.149 399.835 350.215 399.4 349.387 398.693C348.473 397.912 347.134 397.794 346.236 398.693C345.436 399.494 345.317 401.06 346.236 401.845C355.866 410.063 372.323 398.837 370.634 387.055C370.245 384.345 368.746 381.703 366.622 379.967C364.487 378.222 361.807 377.452 359.068 377.48C353.471 377.536 348.133 380.416 344.938 384.979C343.251 387.39 342.187 390.402 342.262 393.365C342.343 396.644 343.818 399.652 346.236 401.845C347.128 402.653 348.507 402.726 349.387 401.845C350.208 401.024 350.282 399.505 349.387 398.693Z" fill="#211715"/>
<path d="M351.516 401.295C347.985 400.121 345.39 396.673 345.399 393.167C345.408 389.729 347.445 385.76 350.462 383.299C352.05 382.003 354.864 380.602 356.915 380.086C360.033 379.301 363.664 379.684 365.355 380.974C370.383 384.81 370.086 391.069 364.612 396.62C362.783 398.475 360.571 399.926 358.295 400.766C356.817 401.311 356.191 401.428 354.425 401.489C353.026 401.538 352.049 401.473 351.516 401.295Z" fill="black"/>
</g>
<defs>
<clipPath id="clip0_1_49">
<rect width="450" height="512" fill="white" transform="translate(31)"/>
</clipPath>
</defs>
</svg>
