<svg width="1920" height="440" viewBox="0 0 1920 440" fill="none" xmlns="http://www.w3.org/2000/svg">
<g clip-path="url(#clip0_2924_104)">
<path d="M60.7074 301.024C61.7212 301.891 62.9027 302.546 64.18 302.949H67.1795H70.179C71.4563 302.546 72.6375 301.891 73.6513 301.024C74.665 300.156 75.4903 299.095 76.0768 297.903C76.2042 297.907 76.3292 297.921 76.4566 297.921C77.7842 297.923 79.0878 297.571 80.2305 296.903C81.3732 296.235 82.313 295.275 82.9515 294.125C83.5901 292.974 83.9037 291.675 83.8596 290.364C83.8155 289.052 83.4154 287.777 82.701 286.671C83.3991 285.823 83.8957 284.831 84.1543 283.768C84.4128 282.705 84.4266 281.598 84.1948 280.529C83.963 279.46 83.4913 278.456 82.8147 277.591C82.1381 276.726 81.2738 276.023 80.2853 275.532C80.7178 274.424 80.8708 273.229 80.7307 272.05C80.5906 270.871 80.1618 269.743 79.4815 268.764C78.8012 267.786 77.8899 266.986 76.8263 266.434C75.7628 265.882 74.5791 265.594 73.3778 265.596H73.3497C73.2237 264.073 72.523 262.652 71.3869 261.616C70.2508 260.579 68.7622 260.003 67.2161 260H67.1429C65.5968 260.003 64.1079 260.579 62.9718 261.616C61.8357 262.652 61.1353 264.073 61.0093 265.596H60.9809C59.7797 265.594 58.5961 265.882 57.5326 266.434C56.4691 266.986 55.5577 267.786 54.8774 268.764C54.1971 269.743 53.7684 270.871 53.6283 272.05C53.4882 273.229 53.6411 274.424 54.0736 275.532C53.0852 276.023 52.2208 276.726 51.5441 277.591C50.8675 278.456 50.396 279.46 50.1642 280.529C49.9323 281.598 49.9462 282.705 50.2047 283.768C50.4633 284.831 50.9599 285.823 51.658 286.671C50.9436 287.777 50.5435 289.052 50.4994 290.364C50.4553 291.675 50.7688 292.974 51.4073 294.125C52.0458 295.275 52.9858 296.235 54.1285 296.903C55.2712 297.571 56.5748 297.923 57.9024 297.921C58.0298 297.921 58.1548 297.903 58.2822 297.903C58.8687 299.095 59.6937 300.156 60.7074 301.024Z" fill="url(#bgGradient)" stroke="black" stroke-width="2" stroke-linecap="round" stroke-linejoin="round"/>
<path d="M100.707 301.024C101.721 301.891 102.903 302.546 104.18 302.949H107.179H110.179C111.456 302.546 112.638 301.891 113.651 301.024C114.665 300.156 115.49 299.095 116.077 297.903C116.204 297.907 116.329 297.921 116.457 297.921C117.784 297.923 119.088 297.571 120.23 296.903C121.373 296.235 122.313 295.275 122.952 294.125C123.59 292.974 123.904 291.675 123.86 290.364C123.816 289.052 123.415 287.777 122.701 286.671C123.399 285.823 123.896 284.831 124.154 283.768C124.413 282.705 124.427 281.598 124.195 280.529C123.963 279.46 123.491 278.456 122.815 277.591C122.138 276.726 121.274 276.023 120.285 275.532C120.718 274.424 120.871 273.229 120.731 272.05C120.591 270.871 120.162 269.743 119.482 268.764C118.801 267.786 117.89 266.986 116.826 266.434C115.763 265.882 114.579 265.594 113.378 265.596H113.35C113.224 264.073 112.523 262.652 111.387 261.616C110.251 260.579 108.762 260.003 107.216 260H107.143C105.597 260.003 104.108 260.579 102.972 261.616C101.836 262.652 101.135 264.073 101.009 265.596H100.981C99.7797 265.594 98.5961 265.882 97.5326 266.434C96.4691 266.986 95.5577 267.786 94.8774 268.764C94.1971 269.743 93.7684 270.871 93.6283 272.05C93.4882 273.229 93.6411 274.424 94.0736 275.532C93.0852 276.023 92.2208 276.726 91.5441 277.591C90.8675 278.456 90.396 279.46 90.1642 280.529C89.9323 281.598 89.9462 282.705 90.2047 283.768C90.4633 284.831 90.9599 285.823 91.658 286.671C90.9436 287.777 90.5435 289.052 90.4994 290.364C90.4553 291.675 90.7688 292.974 91.4073 294.125C92.0458 295.275 92.9858 296.235 94.1285 296.903C95.2712 297.571 96.5748 297.923 97.9024 297.921C98.0298 297.921 98.1548 297.903 98.2822 297.903C98.8687 299.095 99.6937 300.156 100.707 301.024Z" fill="url(#bgGradient)" stroke="black" stroke-width="2" stroke-linecap="round" stroke-linejoin="round"/>
<path d="M1100.71 320.024C1101.72 320.891 1102.9 321.546 1104.18 321.949H1107.18H1110.18C1111.46 321.546 1112.64 320.891 1113.65 320.024C1114.67 319.156 1115.49 318.095 1116.08 316.903C1116.2 316.907 1116.33 316.921 1116.46 316.921C1117.78 316.923 1119.09 316.571 1120.23 315.903C1121.37 315.235 1122.31 314.275 1122.95 313.125C1123.59 311.974 1123.9 310.675 1123.86 309.364C1123.82 308.052 1123.42 306.777 1122.7 305.671C1123.4 304.823 1123.9 303.831 1124.15 302.768C1124.41 301.705 1124.43 300.598 1124.19 299.529C1123.96 298.46 1123.49 297.456 1122.81 296.591C1122.14 295.726 1121.27 295.023 1120.29 294.532C1120.72 293.424 1120.87 292.229 1120.73 291.05C1120.59 289.871 1120.16 288.743 1119.48 287.764C1118.8 286.786 1117.89 285.986 1116.83 285.434C1115.76 284.882 1114.58 284.594 1113.38 284.596H1113.35C1113.22 283.073 1112.52 281.652 1111.39 280.616C1110.25 279.579 1108.76 279.003 1107.22 279H1107.14C1105.6 279.003 1104.11 279.579 1102.97 280.616C1101.84 281.652 1101.14 283.073 1101.01 284.596H1100.98C1099.78 284.594 1098.6 284.882 1097.53 285.434C1096.47 285.986 1095.56 286.786 1094.88 287.764C1094.2 288.743 1093.77 289.871 1093.63 291.05C1093.49 292.229 1093.64 293.424 1094.07 294.532C1093.09 295.023 1092.22 295.726 1091.54 296.591C1090.87 297.456 1090.4 298.46 1090.16 299.529C1089.93 300.598 1089.95 301.705 1090.2 302.768C1090.46 303.831 1090.96 304.823 1091.66 305.671C1090.94 306.777 1090.54 308.052 1090.5 309.364C1090.46 310.675 1090.77 311.974 1091.41 313.125C1092.05 314.275 1092.99 315.235 1094.13 315.903C1095.27 316.571 1096.57 316.923 1097.9 316.921C1098.03 316.921 1098.15 316.903 1098.28 316.903C1098.87 318.095 1099.69 319.156 1100.71 320.024Z" fill="url(#bgGradient)" stroke="black" stroke-width="2" stroke-linecap="round" stroke-linejoin="round"/>
<path d="M571.707 353.024C572.721 353.891 573.903 354.546 575.18 354.949H578.179H581.179C582.456 354.546 583.638 353.891 584.651 353.024C585.665 352.156 586.49 351.095 587.077 349.903C587.204 349.907 587.329 349.921 587.457 349.921C588.784 349.923 590.088 349.571 591.23 348.903C592.373 348.235 593.313 347.275 593.952 346.125C594.59 344.974 594.904 343.675 594.86 342.364C594.816 341.052 594.415 339.777 593.701 338.671C594.399 337.823 594.896 336.831 595.154 335.768C595.413 334.705 595.427 333.598 595.195 332.529C594.963 331.46 594.491 330.456 593.815 329.591C593.138 328.726 592.274 328.023 591.285 327.532C591.718 326.424 591.871 325.229 591.731 324.05C591.591 322.871 591.162 321.743 590.482 320.764C589.801 319.786 588.89 318.986 587.826 318.434C586.763 317.882 585.579 317.594 584.378 317.596H584.35C584.224 316.073 583.523 314.652 582.387 313.616C581.251 312.579 579.762 312.003 578.216 312H578.143C576.597 312.003 575.108 312.579 573.972 313.616C572.836 314.652 572.135 316.073 572.009 317.596H571.981C570.78 317.594 569.596 317.882 568.533 318.434C567.469 318.986 566.558 319.786 565.877 320.764C565.197 321.743 564.768 322.871 564.628 324.05C564.488 325.229 564.641 326.424 565.074 327.532C564.085 328.023 563.221 328.726 562.544 329.591C561.868 330.456 561.396 331.46 561.164 332.529C560.932 333.598 560.946 334.705 561.205 335.768C561.463 336.831 561.96 337.823 562.658 338.671C561.944 339.777 561.543 341.052 561.499 342.364C561.455 343.675 561.769 344.974 562.407 346.125C563.046 347.275 563.986 348.235 565.128 348.903C566.271 349.571 567.575 349.923 568.902 349.921C569.03 349.921 569.155 349.903 569.282 349.903C569.869 351.095 570.694 352.156 571.707 353.024Z" fill="url(#bgGradient)" stroke="black" stroke-width="2" stroke-linecap="round" stroke-linejoin="round"/>
<path d="M610.707 364.024C611.721 364.891 612.903 365.546 614.18 365.949H617.179H620.179C621.456 365.546 622.638 364.891 623.651 364.024C624.665 363.156 625.49 362.095 626.077 360.903C626.204 360.907 626.329 360.921 626.457 360.921C627.784 360.923 629.088 360.571 630.23 359.903C631.373 359.235 632.313 358.275 632.952 357.125C633.59 355.974 633.904 354.675 633.86 353.364C633.816 352.052 633.415 350.777 632.701 349.671C633.399 348.823 633.896 347.831 634.154 346.768C634.413 345.705 634.427 344.598 634.195 343.529C633.963 342.46 633.491 341.456 632.815 340.591C632.138 339.726 631.274 339.023 630.285 338.532C630.718 337.424 630.871 336.229 630.731 335.05C630.591 333.871 630.162 332.743 629.482 331.764C628.801 330.786 627.89 329.986 626.826 329.434C625.763 328.882 624.579 328.594 623.378 328.596H623.35C623.224 327.073 622.523 325.652 621.387 324.616C620.251 323.579 618.762 323.003 617.216 323H617.143C615.597 323.003 614.108 323.579 612.972 324.616C611.836 325.652 611.135 327.073 611.009 328.596H610.981C609.78 328.594 608.596 328.882 607.533 329.434C606.469 329.986 605.558 330.786 604.877 331.764C604.197 332.743 603.768 333.871 603.628 335.05C603.488 336.229 603.641 337.424 604.074 338.532C603.085 339.023 602.221 339.726 601.544 340.591C600.868 341.456 600.396 342.46 600.164 343.529C599.932 344.598 599.946 345.705 600.205 346.768C600.463 347.831 600.96 348.823 601.658 349.671C600.944 350.777 600.543 352.052 600.499 353.364C600.455 354.675 600.769 355.974 601.407 357.125C602.046 358.275 602.986 359.235 604.128 359.903C605.271 360.571 606.575 360.923 607.902 360.921C608.03 360.921 608.155 360.903 608.282 360.903C608.869 362.095 609.694 363.156 610.707 364.024Z" fill="url(#bgGradient)" stroke="black" stroke-width="2" stroke-linecap="round" stroke-linejoin="round"/>
<path d="M1475.71 336.024C1476.72 336.891 1477.9 337.546 1479.18 337.949H1482.18H1485.18C1486.46 337.546 1487.64 336.891 1488.65 336.024C1489.67 335.156 1490.49 334.095 1491.08 332.903C1491.2 332.907 1491.33 332.921 1491.46 332.921C1492.78 332.923 1494.09 332.571 1495.23 331.903C1496.37 331.235 1497.31 330.275 1497.95 329.125C1498.59 327.974 1498.9 326.675 1498.86 325.364C1498.82 324.052 1498.42 322.777 1497.7 321.671C1498.4 320.823 1498.9 319.831 1499.15 318.768C1499.41 317.705 1499.43 316.598 1499.19 315.529C1498.96 314.46 1498.49 313.456 1497.81 312.591C1497.14 311.726 1496.27 311.023 1495.29 310.532C1495.72 309.424 1495.87 308.229 1495.73 307.05C1495.59 305.871 1495.16 304.743 1494.48 303.764C1493.8 302.786 1492.89 301.986 1491.83 301.434C1490.76 300.882 1489.58 300.594 1488.38 300.596H1488.35C1488.22 299.073 1487.52 297.652 1486.39 296.616C1485.25 295.579 1483.76 295.003 1482.22 295H1482.14C1480.6 295.003 1479.11 295.579 1477.97 296.616C1476.84 297.652 1476.14 299.073 1476.01 300.596H1475.98C1474.78 300.594 1473.6 300.882 1472.53 301.434C1471.47 301.986 1470.56 302.786 1469.88 303.764C1469.2 304.743 1468.77 305.871 1468.63 307.05C1468.49 308.229 1468.64 309.424 1469.07 310.532C1468.09 311.023 1467.22 311.726 1466.54 312.591C1465.87 313.456 1465.4 314.46 1465.16 315.529C1464.93 316.598 1464.95 317.705 1465.2 318.768C1465.46 319.831 1465.96 320.823 1466.66 321.671C1465.94 322.777 1465.54 324.052 1465.5 325.364C1465.46 326.675 1465.77 327.974 1466.41 329.125C1467.05 330.275 1467.99 331.235 1469.13 331.903C1470.27 332.571 1471.57 332.923 1472.9 332.921C1473.03 332.921 1473.15 332.903 1473.28 332.903C1473.87 334.095 1474.69 335.156 1475.71 336.024Z" fill="url(#bgGradient)" stroke="black" stroke-width="2" stroke-linecap="round" stroke-linejoin="round"/>
<path d="M1563.71 310.024C1564.72 310.891 1565.9 311.546 1567.18 311.949H1570.18H1573.18C1574.46 311.546 1575.64 310.891 1576.65 310.024C1577.67 309.156 1578.49 308.095 1579.08 306.903C1579.2 306.907 1579.33 306.921 1579.46 306.921C1580.78 306.923 1582.09 306.571 1583.23 305.903C1584.37 305.235 1585.31 304.275 1585.95 303.125C1586.59 301.974 1586.9 300.675 1586.86 299.364C1586.82 298.052 1586.42 296.777 1585.7 295.671C1586.4 294.823 1586.9 293.831 1587.15 292.768C1587.41 291.705 1587.43 290.598 1587.19 289.529C1586.96 288.46 1586.49 287.456 1585.81 286.591C1585.14 285.726 1584.27 285.023 1583.29 284.532C1583.72 283.424 1583.87 282.229 1583.73 281.05C1583.59 279.871 1583.16 278.743 1582.48 277.764C1581.8 276.786 1580.89 275.986 1579.83 275.434C1578.76 274.882 1577.58 274.594 1576.38 274.596H1576.35C1576.22 273.073 1575.52 271.652 1574.39 270.616C1573.25 269.579 1571.76 269.003 1570.22 269H1570.14C1568.6 269.003 1567.11 269.579 1565.97 270.616C1564.84 271.652 1564.14 273.073 1564.01 274.596H1563.98C1562.78 274.594 1561.6 274.882 1560.53 275.434C1559.47 275.986 1558.56 276.786 1557.88 277.764C1557.2 278.743 1556.77 279.871 1556.63 281.05C1556.49 282.229 1556.64 283.424 1557.07 284.532C1556.09 285.023 1555.22 285.726 1554.54 286.591C1553.87 287.456 1553.4 288.46 1553.16 289.529C1552.93 290.598 1552.95 291.705 1553.2 292.768C1553.46 293.831 1553.96 294.823 1554.66 295.671C1553.94 296.777 1553.54 298.052 1553.5 299.364C1553.46 300.675 1553.77 301.974 1554.41 303.125C1555.05 304.275 1555.99 305.235 1557.13 305.903C1558.27 306.571 1559.57 306.923 1560.9 306.921C1561.03 306.921 1561.15 306.903 1561.28 306.903C1561.87 308.095 1562.69 309.156 1563.71 310.024Z" fill="url(#bgGradient)" stroke="black" stroke-width="2" stroke-linecap="round" stroke-linejoin="round"/>
<path d="M1645.71 297.024C1646.72 297.891 1647.9 298.546 1649.18 298.949H1652.18H1655.18C1656.46 298.546 1657.64 297.891 1658.65 297.024C1659.67 296.156 1660.49 295.095 1661.08 293.903C1661.2 293.907 1661.33 293.921 1661.46 293.921C1662.78 293.923 1664.09 293.571 1665.23 292.903C1666.37 292.235 1667.31 291.275 1667.95 290.125C1668.59 288.974 1668.9 287.675 1668.86 286.364C1668.82 285.052 1668.42 283.777 1667.7 282.671C1668.4 281.823 1668.9 280.831 1669.15 279.768C1669.41 278.705 1669.43 277.598 1669.19 276.529C1668.96 275.46 1668.49 274.456 1667.81 273.591C1667.14 272.726 1666.27 272.023 1665.29 271.532C1665.72 270.424 1665.87 269.229 1665.73 268.05C1665.59 266.871 1665.16 265.743 1664.48 264.764C1663.8 263.786 1662.89 262.986 1661.83 262.434C1660.76 261.882 1659.58 261.594 1658.38 261.596H1658.35C1658.22 260.073 1657.52 258.652 1656.39 257.616C1655.25 256.579 1653.76 256.003 1652.22 256H1652.14C1650.6 256.003 1649.11 256.579 1647.97 257.616C1646.84 258.652 1646.14 260.073 1646.01 261.596H1645.98C1644.78 261.594 1643.6 261.882 1642.53 262.434C1641.47 262.986 1640.56 263.786 1639.88 264.764C1639.2 265.743 1638.77 266.871 1638.63 268.05C1638.49 269.229 1638.64 270.424 1639.07 271.532C1638.09 272.023 1637.22 272.726 1636.54 273.591C1635.87 274.456 1635.4 275.46 1635.16 276.529C1634.93 277.598 1634.95 278.705 1635.2 279.768C1635.46 280.831 1635.96 281.823 1636.66 282.671C1635.94 283.777 1635.54 285.052 1635.5 286.364C1635.46 287.675 1635.77 288.974 1636.41 290.125C1637.05 291.275 1637.99 292.235 1639.13 292.903C1640.27 293.571 1641.57 293.923 1642.9 293.921C1643.03 293.921 1643.15 293.903 1643.28 293.903C1643.87 295.095 1644.69 296.156 1645.71 297.024Z" fill="url(#bgGradient)" stroke="black" stroke-width="2" stroke-linecap="round" stroke-linejoin="round"/>
<path d="M1887.71 297.024C1888.72 297.891 1889.9 298.546 1891.18 298.949H1894.18H1897.18C1898.46 298.546 1899.64 297.891 1900.65 297.024C1901.67 296.156 1902.49 295.095 1903.08 293.903C1903.2 293.907 1903.33 293.921 1903.46 293.921C1904.78 293.923 1906.09 293.571 1907.23 292.903C1908.37 292.235 1909.31 291.275 1909.95 290.125C1910.59 288.974 1910.9 287.675 1910.86 286.364C1910.82 285.052 1910.42 283.777 1909.7 282.671C1910.4 281.823 1910.9 280.831 1911.15 279.768C1911.41 278.705 1911.43 277.598 1911.19 276.529C1910.96 275.46 1910.49 274.456 1909.81 273.591C1909.14 272.726 1908.27 272.023 1907.29 271.532C1907.72 270.424 1907.87 269.229 1907.73 268.05C1907.59 266.871 1907.16 265.743 1906.48 264.764C1905.8 263.786 1904.89 262.986 1903.83 262.434C1902.76 261.882 1901.58 261.594 1900.38 261.596H1900.35C1900.22 260.073 1899.52 258.652 1898.39 257.616C1897.25 256.579 1895.76 256.003 1894.22 256H1894.14C1892.6 256.003 1891.11 256.579 1889.97 257.616C1888.84 258.652 1888.14 260.073 1888.01 261.596H1887.98C1886.78 261.594 1885.6 261.882 1884.53 262.434C1883.47 262.986 1882.56 263.786 1881.88 264.764C1881.2 265.743 1880.77 266.871 1880.63 268.05C1880.49 269.229 1880.64 270.424 1881.07 271.532C1880.09 272.023 1879.22 272.726 1878.54 273.591C1877.87 274.456 1877.4 275.46 1877.16 276.529C1876.93 277.598 1876.95 278.705 1877.2 279.768C1877.46 280.831 1877.96 281.823 1878.66 282.671C1877.94 283.777 1877.54 285.052 1877.5 286.364C1877.46 287.675 1877.77 288.974 1878.41 290.125C1879.05 291.275 1879.99 292.235 1881.13 292.903C1882.27 293.571 1883.57 293.923 1884.9 293.921C1885.03 293.921 1885.15 293.903 1885.28 293.903C1885.87 295.095 1886.69 296.156 1887.71 297.024Z" fill="url(#bgGradient)" stroke="black" stroke-width="2" stroke-linecap="round" stroke-linejoin="round"/>
<path d="M1525.71 319.024C1526.72 319.891 1527.9 320.546 1529.18 320.949H1532.18H1535.18C1536.46 320.546 1537.64 319.891 1538.65 319.024C1539.67 318.156 1540.49 317.095 1541.08 315.903C1541.2 315.907 1541.33 315.921 1541.46 315.921C1542.78 315.923 1544.09 315.571 1545.23 314.903C1546.37 314.235 1547.31 313.275 1547.95 312.125C1548.59 310.974 1548.9 309.675 1548.86 308.364C1548.82 307.052 1548.42 305.777 1547.7 304.671C1548.4 303.823 1548.9 302.831 1549.15 301.768C1549.41 300.705 1549.43 299.598 1549.19 298.529C1548.96 297.46 1548.49 296.456 1547.81 295.591C1547.14 294.726 1546.27 294.023 1545.29 293.532C1545.72 292.424 1545.87 291.229 1545.73 290.05C1545.59 288.871 1545.16 287.743 1544.48 286.764C1543.8 285.786 1542.89 284.986 1541.83 284.434C1540.76 283.882 1539.58 283.594 1538.38 283.596H1538.35C1538.22 282.073 1537.52 280.652 1536.39 279.616C1535.25 278.579 1533.76 278.003 1532.22 278H1532.14C1530.6 278.003 1529.11 278.579 1527.97 279.616C1526.84 280.652 1526.14 282.073 1526.01 283.596H1525.98C1524.78 283.594 1523.6 283.882 1522.53 284.434C1521.47 284.986 1520.56 285.786 1519.88 286.764C1519.2 287.743 1518.77 288.871 1518.63 290.05C1518.49 291.229 1518.64 292.424 1519.07 293.532C1518.09 294.023 1517.22 294.726 1516.54 295.591C1515.87 296.456 1515.4 297.46 1515.16 298.529C1514.93 299.598 1514.95 300.705 1515.2 301.768C1515.46 302.831 1515.96 303.823 1516.66 304.671C1515.94 305.777 1515.54 307.052 1515.5 308.364C1515.46 309.675 1515.77 310.974 1516.41 312.125C1517.05 313.275 1517.99 314.235 1519.13 314.903C1520.27 315.571 1521.57 315.923 1522.9 315.921C1523.03 315.921 1523.15 315.903 1523.28 315.903C1523.87 317.095 1524.69 318.156 1525.71 319.024Z" fill="url(#bgGradient)" stroke="black" stroke-width="2" stroke-linecap="round" stroke-linejoin="round"/>
<path d="M813.707 364.024C814.721 364.891 815.903 365.546 817.18 365.949H820.179H823.179C824.456 365.546 825.638 364.891 826.651 364.024C827.665 363.156 828.49 362.095 829.077 360.903C829.204 360.907 829.329 360.921 829.457 360.921C830.784 360.923 832.088 360.571 833.23 359.903C834.373 359.235 835.313 358.275 835.952 357.125C836.59 355.974 836.904 354.675 836.86 353.364C836.816 352.052 836.415 350.777 835.701 349.671C836.399 348.823 836.896 347.831 837.154 346.768C837.413 345.705 837.427 344.598 837.195 343.529C836.963 342.46 836.491 341.456 835.815 340.591C835.138 339.726 834.274 339.023 833.285 338.532C833.718 337.424 833.871 336.229 833.731 335.05C833.591 333.871 833.162 332.743 832.482 331.764C831.801 330.786 830.89 329.986 829.826 329.434C828.763 328.882 827.579 328.594 826.378 328.596H826.35C826.224 327.073 825.523 325.652 824.387 324.616C823.251 323.579 821.762 323.003 820.216 323H820.143C818.597 323.003 817.108 323.579 815.972 324.616C814.836 325.652 814.135 327.073 814.009 328.596H813.981C812.78 328.594 811.596 328.882 810.533 329.434C809.469 329.986 808.558 330.786 807.877 331.764C807.197 332.743 806.768 333.871 806.628 335.05C806.488 336.229 806.641 337.424 807.074 338.532C806.085 339.023 805.221 339.726 804.544 340.591C803.868 341.456 803.396 342.46 803.164 343.529C802.932 344.598 802.946 345.705 803.205 346.768C803.463 347.831 803.96 348.823 804.658 349.671C803.944 350.777 803.543 352.052 803.499 353.364C803.455 354.675 803.769 355.974 804.407 357.125C805.046 358.275 805.986 359.235 807.128 359.903C808.271 360.571 809.575 360.923 810.902 360.921C811.03 360.921 811.155 360.903 811.282 360.903C811.869 362.095 812.694 363.156 813.707 364.024Z" fill="url(#bgGradient)" stroke="black" stroke-width="2" stroke-linecap="round" stroke-linejoin="round"/>
<path d="M877.707 362.024C878.721 362.891 879.903 363.546 881.18 363.949H884.179H887.179C888.456 363.546 889.638 362.891 890.651 362.024C891.665 361.156 892.49 360.095 893.077 358.903C893.204 358.907 893.329 358.921 893.457 358.921C894.784 358.923 896.088 358.571 897.23 357.903C898.373 357.235 899.313 356.275 899.952 355.125C900.59 353.974 900.904 352.675 900.86 351.364C900.816 350.052 900.415 348.777 899.701 347.671C900.399 346.823 900.896 345.831 901.154 344.768C901.413 343.705 901.427 342.598 901.195 341.529C900.963 340.46 900.491 339.456 899.815 338.591C899.138 337.726 898.274 337.023 897.285 336.532C897.718 335.424 897.871 334.229 897.731 333.05C897.591 331.871 897.162 330.743 896.482 329.764C895.801 328.786 894.89 327.986 893.826 327.434C892.763 326.882 891.579 326.594 890.378 326.596H890.35C890.224 325.073 889.523 323.652 888.387 322.616C887.251 321.579 885.762 321.003 884.216 321H884.143C882.597 321.003 881.108 321.579 879.972 322.616C878.836 323.652 878.135 325.073 878.009 326.596H877.981C876.78 326.594 875.596 326.882 874.533 327.434C873.469 327.986 872.558 328.786 871.877 329.764C871.197 330.743 870.768 331.871 870.628 333.05C870.488 334.229 870.641 335.424 871.074 336.532C870.085 337.023 869.221 337.726 868.544 338.591C867.868 339.456 867.396 340.46 867.164 341.529C866.932 342.598 866.946 343.705 867.205 344.768C867.463 345.831 867.96 346.823 868.658 347.671C867.944 348.777 867.543 350.052 867.499 351.364C867.455 352.675 867.769 353.974 868.407 355.125C869.046 356.275 869.986 357.235 871.128 357.903C872.271 358.571 873.575 358.923 874.902 358.921C875.03 358.921 875.155 358.903 875.282 358.903C875.869 360.095 876.694 361.156 877.707 362.024Z" fill="url(#bgGradient)" stroke="black" stroke-width="2" stroke-linecap="round" stroke-linejoin="round"/>
<path d="M991.707 351.024C992.721 351.891 993.903 352.546 995.18 352.949H998.179H1001.18C1002.46 352.546 1003.64 351.891 1004.65 351.024C1005.67 350.156 1006.49 349.095 1007.08 347.903C1007.2 347.907 1007.33 347.921 1007.46 347.921C1008.78 347.923 1010.09 347.571 1011.23 346.903C1012.37 346.235 1013.31 345.275 1013.95 344.125C1014.59 342.974 1014.9 341.675 1014.86 340.364C1014.82 339.052 1014.42 337.777 1013.7 336.671C1014.4 335.823 1014.9 334.831 1015.15 333.768C1015.41 332.705 1015.43 331.598 1015.19 330.529C1014.96 329.46 1014.49 328.456 1013.81 327.591C1013.14 326.726 1012.27 326.023 1011.29 325.532C1011.72 324.424 1011.87 323.229 1011.73 322.05C1011.59 320.871 1011.16 319.743 1010.48 318.764C1009.8 317.786 1008.89 316.986 1007.83 316.434C1006.76 315.882 1005.58 315.594 1004.38 315.596H1004.35C1004.22 314.073 1003.52 312.652 1002.39 311.616C1001.25 310.579 999.762 310.003 998.216 310H998.143C996.597 310.003 995.108 310.579 993.972 311.616C992.836 312.652 992.135 314.073 992.009 315.596H991.981C990.78 315.594 989.596 315.882 988.533 316.434C987.469 316.986 986.558 317.786 985.877 318.764C985.197 319.743 984.768 320.871 984.628 322.05C984.488 323.229 984.641 324.424 985.074 325.532C984.085 326.023 983.221 326.726 982.544 327.591C981.868 328.456 981.396 329.46 981.164 330.529C980.932 331.598 980.946 332.705 981.205 333.768C981.463 334.831 981.96 335.823 982.658 336.671C981.944 337.777 981.543 339.052 981.499 340.364C981.455 341.675 981.769 342.974 982.407 344.125C983.046 345.275 983.986 346.235 985.128 346.903C986.271 347.571 987.575 347.923 988.902 347.921C989.03 347.921 989.155 347.903 989.282 347.903C989.869 349.095 990.694 350.156 991.707 351.024Z" fill="url(#bgGradient)" stroke="black" stroke-width="2" stroke-linecap="round" stroke-linejoin="round"/>
<path d="M1060.71 334.024C1061.72 334.891 1062.9 335.546 1064.18 335.949H1067.18H1070.18C1071.46 335.546 1072.64 334.891 1073.65 334.024C1074.67 333.156 1075.49 332.095 1076.08 330.903C1076.2 330.907 1076.33 330.921 1076.46 330.921C1077.78 330.923 1079.09 330.571 1080.23 329.903C1081.37 329.235 1082.31 328.275 1082.95 327.125C1083.59 325.974 1083.9 324.675 1083.86 323.364C1083.82 322.052 1083.42 320.777 1082.7 319.671C1083.4 318.823 1083.9 317.831 1084.15 316.768C1084.41 315.705 1084.43 314.598 1084.19 313.529C1083.96 312.46 1083.49 311.456 1082.81 310.591C1082.14 309.726 1081.27 309.023 1080.29 308.532C1080.72 307.424 1080.87 306.229 1080.73 305.05C1080.59 303.871 1080.16 302.743 1079.48 301.764C1078.8 300.786 1077.89 299.986 1076.83 299.434C1075.76 298.882 1074.58 298.594 1073.38 298.596H1073.35C1073.22 297.073 1072.52 295.652 1071.39 294.616C1070.25 293.579 1068.76 293.003 1067.22 293H1067.14C1065.6 293.003 1064.11 293.579 1062.97 294.616C1061.84 295.652 1061.14 297.073 1061.01 298.596H1060.98C1059.78 298.594 1058.6 298.882 1057.53 299.434C1056.47 299.986 1055.56 300.786 1054.88 301.764C1054.2 302.743 1053.77 303.871 1053.63 305.05C1053.49 306.229 1053.64 307.424 1054.07 308.532C1053.09 309.023 1052.22 309.726 1051.54 310.591C1050.87 311.456 1050.4 312.46 1050.16 313.529C1049.93 314.598 1049.95 315.705 1050.2 316.768C1050.46 317.831 1050.96 318.823 1051.66 319.671C1050.94 320.777 1050.54 322.052 1050.5 323.364C1050.46 324.675 1050.77 325.974 1051.41 327.125C1052.05 328.275 1052.99 329.235 1054.13 329.903C1055.27 330.571 1056.57 330.923 1057.9 330.921C1058.03 330.921 1058.15 330.903 1058.28 330.903C1058.87 332.095 1059.69 333.156 1060.71 334.024Z" fill="url(#bgGradient)" stroke="black" stroke-width="2" stroke-linecap="round" stroke-linejoin="round"/>
<path d="M273.707 319.024C274.721 319.891 275.903 320.546 277.18 320.949H280.179H283.179C284.456 320.546 285.638 319.891 286.651 319.024C287.665 318.156 288.49 317.095 289.077 315.903C289.204 315.907 289.329 315.921 289.457 315.921C290.784 315.923 292.088 315.571 293.23 314.903C294.373 314.235 295.313 313.275 295.952 312.125C296.59 310.974 296.904 309.675 296.86 308.364C296.816 307.052 296.415 305.777 295.701 304.671C296.399 303.823 296.896 302.831 297.154 301.768C297.413 300.705 297.427 299.598 297.195 298.529C296.963 297.46 296.491 296.456 295.815 295.591C295.138 294.726 294.274 294.023 293.285 293.532C293.718 292.424 293.871 291.229 293.731 290.05C293.591 288.871 293.162 287.743 292.482 286.764C291.801 285.786 290.89 284.986 289.826 284.434C288.763 283.882 287.579 283.594 286.378 283.596H286.35C286.224 282.073 285.523 280.652 284.387 279.616C283.251 278.579 281.762 278.003 280.216 278H280.143C278.597 278.003 277.108 278.579 275.972 279.616C274.836 280.652 274.135 282.073 274.009 283.596H273.981C272.78 283.594 271.596 283.882 270.533 284.434C269.469 284.986 268.558 285.786 267.877 286.764C267.197 287.743 266.768 288.871 266.628 290.05C266.488 291.229 266.641 292.424 267.074 293.532C266.085 294.023 265.221 294.726 264.544 295.591C263.868 296.456 263.396 297.46 263.164 298.529C262.932 299.598 262.946 300.705 263.205 301.768C263.463 302.831 263.96 303.823 264.658 304.671C263.944 305.777 263.543 307.052 263.499 308.364C263.455 309.675 263.769 310.974 264.407 312.125C265.046 313.275 265.986 314.235 267.128 314.903C268.271 315.571 269.575 315.923 270.902 315.921C271.03 315.921 271.155 315.903 271.282 315.903C271.869 317.095 272.694 318.156 273.707 319.024Z" fill="url(#bgGradient)" stroke="black" stroke-width="2" stroke-linecap="round" stroke-linejoin="round"/>
<path d="M470.707 340.024C471.721 340.891 472.903 341.546 474.18 341.949H477.179H480.179C481.456 341.546 482.638 340.891 483.651 340.024C484.665 339.156 485.49 338.095 486.077 336.903C486.204 336.907 486.329 336.921 486.457 336.921C487.784 336.923 489.088 336.571 490.23 335.903C491.373 335.235 492.313 334.275 492.952 333.125C493.59 331.974 493.904 330.675 493.86 329.364C493.816 328.052 493.415 326.777 492.701 325.671C493.399 324.823 493.896 323.831 494.154 322.768C494.413 321.705 494.427 320.598 494.195 319.529C493.963 318.46 493.491 317.456 492.815 316.591C492.138 315.726 491.274 315.023 490.285 314.532C490.718 313.424 490.871 312.229 490.731 311.05C490.591 309.871 490.162 308.743 489.482 307.764C488.801 306.786 487.89 305.986 486.826 305.434C485.763 304.882 484.579 304.594 483.378 304.596H483.35C483.224 303.073 482.523 301.652 481.387 300.616C480.251 299.579 478.762 299.003 477.216 299H477.143C475.597 299.003 474.108 299.579 472.972 300.616C471.836 301.652 471.135 303.073 471.009 304.596H470.981C469.78 304.594 468.596 304.882 467.533 305.434C466.469 305.986 465.558 306.786 464.877 307.764C464.197 308.743 463.768 309.871 463.628 311.05C463.488 312.229 463.641 313.424 464.074 314.532C463.085 315.023 462.221 315.726 461.544 316.591C460.868 317.456 460.396 318.46 460.164 319.529C459.932 320.598 459.946 321.705 460.205 322.768C460.463 323.831 460.96 324.823 461.658 325.671C460.944 326.777 460.543 328.052 460.499 329.364C460.455 330.675 460.769 331.974 461.407 333.125C462.046 334.275 462.986 335.235 464.128 335.903C465.271 336.571 466.575 336.923 467.902 336.921C468.03 336.921 468.155 336.903 468.282 336.903C468.869 338.095 469.694 339.156 470.707 340.024Z" fill="url(#bgGradient)" stroke="black" stroke-width="2" stroke-linecap="round" stroke-linejoin="round"/>
<path d="M0 338H348L578 389H865L1071 356H1489L1562 330H1578L1583.5 373H1595.5L1610.5 300H1627L1642 317H1903L1918 338H1920V440H0V338Z" fill="url(#bgGradient)"/>
<rect x="738" y="374" width="6" height="9" fill="url(#bgGradient)"/>
<path d="M728 380L731 385.5H725L728 380Z" fill="url(#bgGradient)"/>
<path d="M718 377L721 382.5H715L718 377Z" fill="url(#bgGradient)"/>
<circle cx="718" cy="372" r="3" fill="url(#bgGradient)"/>
<circle cx="728" cy="375" r="3" fill="url(#bgGradient)"/>
<circle cx="741" cy="370" r="3" fill="url(#bgGradient)"/>
<rect x="1545" y="318" width="14" height="10" fill="url(#bgGradient)"/>
<path d="M1030 345L1037 338L1044 345V353.75V361.5L1030 364V353.75V345Z" fill="url(#bgGradient)"/>
<circle cx="970.5" cy="348.5" r="3.5" fill="url(#bgGradient)" stroke="black" stroke-width="2"/>
<path d="M967 354H974V363H970.5H967V354Z" fill="url(#bgGradient)"/>
<path d="M970.5 363H974V354H967V363H970.5ZM970.5 363V371" stroke="black" stroke-width="2" stroke-linecap="round"/>
<path d="M65 293H70V339H65V293Z" fill="url(#bgGradient)"/>
<path d="M105 293H110V339H105V293Z" fill="url(#bgGradient)"/>
<path d="M1105 312H1110V357H1105V312Z" fill="url(#bgGradient)"/>
<path d="M576 345H581V390H576V345Z" fill="url(#bgGradient)"/>
<path d="M615 356H620V390H615V356Z" fill="url(#bgGradient)"/>
<path d="M1480 328H1485V357H1480V328Z" fill="url(#bgGradient)"/>
<path d="M1568 302H1573V331H1568V302Z" fill="url(#bgGradient)"/>
<path d="M1650 289H1655V318H1650V289Z" fill="url(#bgGradient)"/>
<path d="M1892 289H1897V318H1892V289Z" fill="url(#bgGradient)"/>
<path d="M1530 311H1535V341L1530 343V311Z" fill="url(#bgGradient)"/>
<path d="M818 356H823V390H818V356Z" fill="url(#bgGradient)"/>
<path d="M882 354H887V386L882 387V354Z" fill="url(#bgGradient)"/>
<path d="M996 343H1001V368L996 369V343Z" fill="url(#bgGradient)"/>
<path d="M1065 326H1070V357L1065 358V326Z" fill="url(#bgGradient)"/>
<path d="M278 311H283V339H278V311Z" fill="url(#bgGradient)"/>
<path d="M475 332H480V368L475 367V332Z" fill="url(#bgGradient)"/>
<circle cx="121.5" cy="314.5" r="3.5" fill="url(#bgGradient)" stroke="black" stroke-width="2"/>
<path d="M118 320H125V329H121.5H118V320Z" fill="url(#bgGradient)"/>
<path d="M121.5 329H125V320H118V329H121.5ZM121.5 329V337" stroke="black" stroke-width="2" stroke-linecap="round"/>
<circle cx="347.5" cy="314.5" r="3.5" fill="url(#bgGradient)" stroke="black" stroke-width="2"/>
<path d="M344 320H351V329H347.5H344V320Z" fill="url(#bgGradient)"/>
<path d="M347.5 329H351V320H344V329H347.5ZM347.5 329V337" stroke="black" stroke-width="2" stroke-linecap="round"/>
<circle cx="357.5" cy="316.5" r="3.5" fill="url(#bgGradient)" stroke="black" stroke-width="2"/>
<path d="M354 322H361V331H357.5H354V322Z" fill="url(#bgGradient)"/>
<path d="M357.5 331H361V322H354V331H357.5ZM357.5 331V339" stroke="black" stroke-width="2" stroke-linecap="round"/>
<circle cx="741" cy="370" r="3" fill="url(#bgGradient)" stroke="black" stroke-width="2"/>
<path d="M738 375H744V382H741H738L738 375Z" fill="url(#bgGradient)"/>
<path d="M741 382H744V375H738L738 382H741ZM741 382V388" stroke="black" stroke-width="2" stroke-linecap="round"/>
<circle cx="718" cy="372" r="3" fill="url(#bgGradient)" stroke="black" stroke-width="2"/>
<path d="M715 377H721V383H718H715L715 377Z" fill="url(#bgGradient)"/>
<path d="M718 383H721V377H715L715 383H718ZM718 383V388" stroke="black" stroke-width="2" stroke-linecap="round"/>
<circle cx="728" cy="374" r="3" fill="url(#bgGradient)" stroke="black" stroke-width="2"/>
<path d="M725 379H731V384H728H725V379Z" fill="url(#bgGradient)"/>
<path d="M728 384H731V379H725V384H728ZM728 384V388" stroke="black" stroke-width="2" stroke-linecap="round"/>
<path d="M1545 318H1559V328H1552H1545V318Z" fill="url(#bgGradient)"/>
<path d="M1552 328H1559V318H1545V328H1552ZM1552 328V334" stroke="black" stroke-width="2" stroke-linecap="round"/>
<path d="M406 314H426V357L406 353V314Z" fill="url(#bgGradient)"/>
<path d="M429 333H444V361L429 358V333Z" fill="url(#bgGradient)"/>
<path d="M380 321L393 334H387.5V348L372.5 345V334H367L380 321Z" fill="url(#bgGradient)"/>
<path d="M920 355L933 368H927.5V381L912.5 383V368H907L920 355Z" fill="url(#bgGradient)"/>
<path d="M318 324L324 318L330 324V331.5V339H318V331.5V324Z" fill="url(#bgGradient)"/>
<path d="M498 358L504 352L510 358V365.5V374.5L498 372V365.5V358Z" fill="url(#bgGradient)"/>
<path d="M1612.36 293.464C1613.15 294.246 1612.67 295.987 1611.3 297.354C1609.94 298.72 1607.41 298.414 1607.41 298.414C1607.41 298.414 1607.5 295.494 1608.47 294.525C1609.24 293.765 1610.11 293.28 1610.87 293.135C1611.48 293.019 1612.02 293.118 1612.36 293.464Z" fill="url(#bgGradient)" stroke="black" stroke-width="2"/>
<path d="M1623 293C1623 295.209 1620.76 297 1618 297C1615.24 297 1613 295.209 1613 293C1613 292.387 1613.17 291.805 1613.48 291.286C1614.28 289.934 1616.01 289 1618 289C1619.36 289 1620.6 289.436 1621.5 290.143C1622.43 290.869 1623 291.881 1623 293Z" fill="url(#bgGradient)" stroke="black" stroke-width="2"/>
<path d="M1627.35 289.844C1627.35 290.798 1627.96 291.713 1627.35 292.344C1626.71 292.993 1624.83 293.344 1623.85 293.344C1621.91 293.344 1620.35 291.777 1620.35 289.844C1620.35 289.307 1620.47 288.799 1620.68 288.344C1620.85 287.991 1619.35 287.344 1620.35 286.344C1621.35 285.344 1621.97 286.859 1622.35 286.681C1622.8 286.465 1623.31 286.344 1623.85 286.344C1624.38 286.344 1624.89 286.465 1625.35 286.681C1625.72 286.859 1625.35 285.344 1626.35 286.344C1627.35 287.344 1626.84 287.991 1627.01 288.344C1627.22 288.799 1627.35 289.307 1627.35 289.844Z" fill="url(#bgGradient)" stroke="black" stroke-width="2"/>
<path d="M1615 297L1615 299" stroke="black" stroke-width="2" stroke-linecap="round"/>
<path d="M1621 297L1621 299" stroke="black" stroke-width="2" stroke-linecap="round"/>
<path d="M1695.11 293.604L1686.12 318.54H1848.86L1839.87 293.604L1839.87 279.264L1849.1 279.265L1852.98 276.936L1848.65 276.269L1839.87 271.267V263.265H1844.75L1846.19 261.6L1848.64 260.489L1851.86 256.044L1844.41 255.599L1819.29 246.151V235.591H1827.52L1829.07 232.812L1830.85 231.589L1833.85 225.92L1826.29 227.587L1820.85 224.697L1820.73 210.692H1808.95V208.135L1813.62 208.135L1815.51 204.022L1817.29 203.466L1820.07 199.131H1812.95L1799.84 194.129V185.459H1802.62L1804.51 181.569L1806.4 180.235L1808.95 174.899L1801.84 176.678L1796.17 173.788V160.004L1798.17 158.67L1799.39 156.558L1798.17 156.114L1797.84 155.224L1796.84 155.669L1795.95 152.779L1796.84 152.334L1798.17 152.557L1796.61 150.333L1795.17 150L1794.06 150.889L1792.95 150.333L1791.61 150.667L1790.39 152.112L1790.39 153.001L1792.17 152.779L1793.17 153.224L1792.95 156.558L1791.06 156.114L1788.83 157.114L1788.61 158.226L1787.5 159.226H1747.48L1746.37 158.226L1746.15 157.114L1743.93 156.114L1742.04 156.558L1741.81 153.224L1742.81 152.779L1744.59 153.001V152.112L1743.37 150.667L1742.04 150.333L1740.92 150.889L1739.81 150L1738.37 150.333L1736.81 152.557L1738.14 152.334L1739.03 152.779L1738.14 155.669L1737.14 155.224L1736.81 156.114L1735.59 156.558L1736.81 158.67L1738.81 160.004V173.788L1733.14 176.678L1726.03 174.899L1728.59 180.235L1730.48 181.569L1732.36 185.459H1735.14V194.129L1722.03 199.131H1714.91L1717.69 203.466L1719.47 204.022L1721.36 208.135L1726.03 208.135L1726.03 210.692H1714.25L1714.14 224.697L1708.69 227.587L1701.13 225.92L1704.13 231.589L1705.91 232.812L1707.47 235.591H1715.69L1715.69 246.151L1690.57 255.599L1683.12 256.044L1686.34 260.489L1688.79 261.6L1690.23 263.265H1695.11L1695.11 271.267L1686.34 276.269L1682 276.936L1685.88 279.265L1695.11 279.264L1695.11 293.604Z" fill="url(#bgGradient)"/>
<path d="M1371.35 304.663V308.141H1334V309.714H1334.25V310.873H1334.58V357H1458.63V310.873H1458.96V309.714H1459.21V308.141H1421.86V304.663H1416.15V301.35H1411.02V279.57H1411.93V277.914H1407.62V276.175H1408.53V274.602H1406.79V269.384H1410.02V267.811H1408.53L1406.79 266.486V263.919H1409.03V262.263H1408.03V261.103L1406.79 259.364L1406.54 260.192L1405.8 260.855H1406.79V262.263L1404.22 261.103L1398.35 254.809V253.567H1397.77L1397.19 252.408V251.663H1397.35V251H1395.86V251.663H1396.03V252.408L1395.45 253.567H1394.87V254.809L1388.99 261.103L1386.42 262.263V260.855H1387.41L1386.67 260.192L1386.42 259.364L1385.18 261.103V262.263H1384.18V263.919H1386.42V266.486L1384.68 267.811H1383.19V269.384H1386.42V274.602H1384.68V276.175H1385.59V277.914H1381.29V279.57H1382.2V301.35H1377.06V304.663H1371.35Z" fill="url(#bgGradient)"/>
<path d="M1130.18 306.8L1130.19 357H1305.97L1305.98 306.8L1308.16 306.749L1303.6 302.651H1238.11V293.956H1240.93V292.384H1242.38V290L1235.86 286.638L1235.24 282.968L1233.94 281.946L1233.92 280.894L1233.61 280.902L1233.57 278.873L1233.19 278.806L1232.64 277.767L1231.68 277L1231.7 277.789L1230.91 277.958L1231.85 279.289L1231.21 280.808H1204.96L1204.31 279.289L1205.25 277.958L1204.46 277.789L1204.48 277L1203.52 277.767L1202.97 278.806L1202.6 278.873L1202.55 280.902L1202.25 280.894L1202.22 281.946L1200.92 282.968L1200.31 286.638L1193.78 290V292.384H1195.23V293.956H1198.05V302.651H1132.56L1128 306.749L1130.18 306.8Z" fill="url(#bgGradient)"/>
<path d="M145.758 301.131L130 339H137.5L161.222 316.779L181.754 317.859L195.08 338.93H214.98L221.554 317.859L235.24 316.419L251.5 338.93H255.5L241.364 300.93L246.406 301.651L247.847 281.841L235.24 280.4L226.956 260.59L220.293 230.515L215.791 203.862L213.089 182.611L210.928 164.783L210.028 152.897L213.63 151.996L215.971 147.133L216.331 138.85L212.549 135.607L212.189 130.746L207.146 126.423L203.184 86.0831H205.526L205.886 85.3627V55.1076L205.345 54.3872H201.924L201.384 55.8279H200.123V50.9656L195.981 48.9845V24.1359L194.9 23.2354V0.901836L193.82 0L192.382 0.901811V23.2354L191.3 24.1359V49.3489L187.518 49.7091V53.8513H185.897L185.809 51.6905L181.038 51.6909V83.7511H185.18L180.86 127.156L177.619 129.318L175.458 134.36L172.756 135.262L170.416 139.764L171.502 148.591L177.807 151.287L175.916 171.819L172.945 200.275L166.822 227.288L159.439 258.084L151.336 278.974L138.909 279.694L140.804 301.131H145.758Z" fill="url(#bgGradient)"/>
<path d="M646 389.821H709.676V361.962H702.65V338.167C707.486 353.337 721.645 364.173 738.419 364.173C754.268 364.173 767.826 354.364 773.353 340.485V361.962H767.162V389.821H799V308.457H773.353V312.688C767.826 298.81 754.268 289 738.419 289C721.645 289 707.486 299.836 702.65 315.007V308.899H680.693V305.803H646V389.821Z" fill="url(#bgGradient)"/>
<path d="M1030 345L1037 338L1044 345M1030 345L1023 352M1030 345V363.568L1001 368.214V343M1044 345L1051 352M1044 345V361.325L1065 357.961V326M65 293V339H0M70 293V339H105V293M110 293V339H130L145.758 301.131H140.804L138.909 279.694L151.335 278.974L159.439 258.084L166.822 227.288L172.945 200.275L175.916 171.819L177.807 151.287L171.502 148.591L170.415 139.764L172.756 135.262L175.458 134.36L177.619 129.318L180.86 127.156L185.18 83.7511H181.038V51.6909L185.809 51.6905L185.897 53.8513H187.518V49.7091L191.3 49.3489V24.1359L192.382 23.2354V0.901811L193.82 0L194.9 0.901836V23.2354L195.981 24.1359V48.9845L200.123 50.9656V55.8279H201.384L201.924 54.3872H205.345L205.886 55.1076V85.3627L205.526 86.0831H203.184L207.146 126.423L212.189 130.746L212.549 135.607L216.331 138.85L215.971 147.133L213.63 151.996L210.028 152.897L210.928 164.783L213.089 182.611L215.791 203.862L220.293 230.515L226.956 260.59L235.24 280.4L247.847 281.841L246.406 301.651L241.364 300.93L255.5 339H278V311M1105 312V357H1071L1070 357.16V326M1110 312V357H1130.19L1130.18 306.8L1128 306.749L1132.56 302.651H1198.05V293.956H1195.23V292.384H1193.78V290L1200.31 286.638L1200.92 282.968L1202.22 281.946L1202.25 280.894L1202.55 280.902L1202.6 278.873L1202.97 278.806L1203.52 277.767L1204.48 277L1204.46 277.789L1205.25 277.958L1204.31 279.289L1204.96 280.808H1231.21L1231.85 279.289L1230.91 277.958L1231.7 277.789L1231.68 277L1232.64 277.767L1233.19 278.806L1233.57 278.873L1233.61 280.902L1233.92 280.894L1233.94 281.946L1235.24 282.968L1235.86 286.638L1242.38 290V292.384H1240.93V293.956H1238.11V302.651H1303.6L1308.16 306.749L1305.98 306.8L1305.97 357H1334.58V310.873H1334.25V309.714H1334V308.141H1371.35V304.663H1377.06V301.35H1382.2V279.57H1381.29V277.914H1385.59V276.175H1384.68V274.602H1386.42V269.384H1383.19V267.811H1384.68L1386.42 266.486V263.919H1384.18V262.263H1385.18V261.103L1386.42 259.364L1386.67 260.192L1387.41 260.855H1386.42V262.263L1388.99 261.103L1394.87 254.809V253.567H1395.45L1396.03 252.408V251.663H1395.86V251H1397.35V251.663H1397.19V252.408L1397.77 253.567H1398.35V254.809L1404.22 261.103L1406.79 262.263V260.855H1405.8L1406.54 260.192L1406.79 259.364L1408.03 261.103V262.263H1409.03V263.919H1406.79V266.486L1408.53 267.811H1410.02V269.384H1406.79V274.602H1408.53V276.175H1407.62V277.914H1411.93V279.57H1411.02V301.35H1416.15V304.663H1421.86V308.141H1459.21V309.714H1458.96V310.873H1458.63V357H1480V328M576 345V389.557L510 374.922V358M581 345V390H615V356M620 356V390H646V305.532H680.693V308.627H702.65V314.735C707.486 299.565 721.645 288.729 738.419 288.729C754.268 288.729 767.826 298.538 773.353 312.417V308.185H799V390H818V356M1485 328V357H1489L1530 342.397V311M1568 302V331H1562L1535 340.616V311M1573 302V331H1577.5L1583 374H1596L1611 301H1627L1642 318H1650V289M1655 289V318H1686L1695.11 293.604L1695.11 279.264L1685.88 279.266L1682 276.936L1686.34 276.269L1695.11 271.267V263.265H1690.23L1688.79 261.6L1686.34 260.489L1683.12 256.044L1690.57 255.599L1715.69 246.151V235.591H1707.47L1705.91 232.812L1704.13 231.589L1701.13 225.92L1708.69 227.587L1714.14 224.697L1714.25 210.692H1726.03V208.135L1721.36 208.135L1719.47 204.022L1717.69 203.466L1714.91 199.131H1722.03L1735.14 194.129V185.459H1732.36L1730.48 181.569L1728.59 180.235L1726.03 174.899L1733.14 176.678L1738.81 173.788V160.004L1736.81 158.67L1735.59 156.558L1736.81 156.114L1737.14 155.224L1738.14 155.669L1739.03 152.779L1738.14 152.334L1736.81 152.557L1738.37 150.333L1739.81 150L1740.92 150.889L1742.04 150.333L1743.37 150.667L1744.59 152.112V153.001L1742.81 152.779L1741.81 153.224L1742.04 156.558L1743.93 156.114L1746.15 157.114L1746.37 158.226L1747.48 159.226H1787.5L1788.61 158.226L1788.83 157.114L1791.06 156.114L1792.95 156.558L1793.17 153.224L1792.17 152.779L1790.39 153.001V152.112L1791.61 150.667L1792.95 150.333L1794.06 150.889L1795.17 150L1796.61 150.333L1798.17 152.557L1796.84 152.334L1795.95 152.779L1796.84 155.669L1797.84 155.224L1798.17 156.114L1799.39 156.558L1798.17 158.67L1796.17 160.004V173.788L1801.84 176.678L1808.95 174.899L1806.4 180.235L1804.51 181.569L1802.62 185.459H1799.84V194.129L1812.95 199.131H1820.07L1817.29 203.466L1815.51 204.022L1813.62 208.135L1808.95 208.135V210.692H1820.73L1820.85 224.697L1826.29 227.587L1833.85 225.92L1830.85 231.589L1829.07 232.812L1827.52 235.591H1819.29V246.151L1844.41 255.599L1851.86 256.044L1848.64 260.489L1846.19 261.6L1844.75 263.265H1839.87V271.267L1848.65 276.269L1852.98 276.936L1849.1 279.266L1839.87 279.264L1839.87 293.604L1849 318H1892V289M1897 289V318H1903L1918 339H1920M823 356V390H865L882 387.277V354M887 354V386.476L912 382.471V368H906.5L919.5 355L932.5 368H927V380.068L996 369.015V343M283 311V339H318V324M475 332V367.161L444 360.287V333H429V356.961L426 356.296V314H406V351.861L387 347.648V334H392.5L379.5 321L366.5 334H372V344.322L348 339H330V324M480 332V368.27L498 372.261V358M318 324L324 318L330 324M318 324L312 330M330 324L336 330M498 358L504 352L510 358M498 358L492 364M510 358L516 364M235.24 316.419L221.554 317.859L215 339H251.5L235.24 316.419ZM181.754 317.859L161.222 316.779L137.5 339H195L181.754 317.859ZM702.65 361.691H709.676V390H767.162V361.691H773.353V340.214C767.826 354.092 754.268 363.902 738.419 363.902C721.645 363.902 707.486 353.066 702.65 337.895V361.691Z" stroke="black" stroke-width="2" stroke-linecap="round"/>
<circle cx="14.5" cy="331.5" r="5.5" fill="url(#bgGradient)" stroke="black" stroke-width="2"/>
<circle cx="32.5" cy="331.5" r="5.5" fill="url(#bgGradient)" stroke="black" stroke-width="2"/>
<circle cx="29" cy="314.536" r="2.5" transform="rotate(45 29 314.536)" fill="url(#bgGradient)" stroke="black" stroke-width="2"/>
<path d="M24.0472 315.953L27.5827 319.488L25.9917 321.079L24.4007 322.67L21.2187 325.852L19.429 324.063L17.6832 322.317L24.0472 315.953Z" fill="url(#bgGradient)"/>
<path d="M27.5827 319.488L24.0472 315.953L17.6832 322.317L19.429 324.063L21.2187 325.852M27.5827 319.488L25.9917 321.079L24.4007 322.67L21.2187 325.852M27.5827 319.488L28.8218 322.862L32.9416 322.942M21.2187 325.852L23.7588 328.235L22.9585 334.003" stroke="black" stroke-width="2" stroke-linecap="round"/>
<path d="M1607.03 120.843L1609.5 128.016L1604.04 125.701C1603.8 125.596 1603.53 125.542 1603.26 125.542H1596.59L1593.53 121.739C1593.34 121.495 1593.09 121.3 1592.8 121.171L1589.55 119.694L1589.55 119.694L1595.5 117.319L1596.96 121.615C1597.3 122.613 1598.36 123.176 1599.38 122.902L1607.03 120.843Z" fill="url(#bgGradient)" stroke="black" stroke-width="2"/>
<path d="M1671.03 106.843L1673.5 114.016L1668.04 111.701C1667.8 111.596 1667.53 111.542 1667.26 111.542H1660.59L1657.53 107.739C1657.34 107.495 1657.09 107.3 1656.8 107.171L1653.55 105.694L1653.55 105.694L1659.5 103.319L1660.96 107.615C1661.3 108.613 1662.36 109.176 1663.38 108.902L1671.03 106.843Z" fill="url(#bgGradient)" stroke="black" stroke-width="2"/>
<path d="M1627.03 141.843L1629.5 149.016L1624.04 146.701C1623.8 146.596 1623.53 146.542 1623.26 146.542H1616.59L1613.53 142.739C1613.34 142.495 1613.09 142.3 1612.8 142.171L1609.55 140.694L1609.55 140.694L1615.5 138.319L1616.96 142.615C1617.3 143.613 1618.36 144.176 1619.38 143.902L1627.03 141.843Z" fill="url(#bgGradient)" stroke="black" stroke-width="2"/>
<path d="M1700.03 124.843L1702.5 132.016L1697.04 129.701C1696.8 129.596 1696.53 129.542 1696.26 129.542H1689.59L1686.53 125.739C1686.34 125.495 1686.09 125.3 1685.8 125.171L1682.55 123.694L1682.55 123.694L1688.5 121.319L1689.96 125.615C1690.3 126.613 1691.36 127.176 1692.38 126.902L1700.03 124.843Z" fill="url(#bgGradient)" stroke="black" stroke-width="2"/>
<path d="M1658.03 120.843L1660.5 128.016L1655.04 125.701C1654.8 125.596 1654.53 125.542 1654.26 125.542H1647.59L1644.53 121.739C1644.34 121.495 1644.09 121.3 1643.8 121.171L1640.55 119.694L1640.55 119.694L1646.5 117.319L1647.96 121.615C1648.3 122.613 1649.36 123.176 1650.38 122.902L1658.03 120.843Z" fill="url(#bgGradient)" stroke="black" stroke-width="2"/>
<path d="M1722.03 106.843L1724.5 114.016L1719.04 111.701C1718.8 111.596 1718.53 111.542 1718.26 111.542H1711.59L1708.53 107.739C1708.34 107.495 1708.09 107.3 1707.8 107.171L1704.55 105.694L1704.55 105.694L1710.5 103.319L1711.96 107.615C1712.3 108.613 1713.36 109.176 1714.38 108.902L1722.03 106.843Z" fill="url(#bgGradient)" stroke="black" stroke-width="2"/>
</g>
<defs>
<clipPath id="clip0_2924_104">
<rect width="1920" height="440" fill="url(#bgGradient)"/>
</clipPath>
<linearGradient id="bgGradient" x1="100%" y1="0%" x2="100%" y2="100%">
<stop offset="0%" stop-color="white" />
<stop offset="100%" stop-color="#faf8f6" />
</linearGradient>
</defs>
</svg>
