<svg width="66" height="24" viewBox="0 0 66 24" fill="none" xmlns="http://www.w3.org/2000/svg">
<path d="M57.9697 2.41584L48.9709 11.8762L9.48193 11.8762L4.61198 14.2673L2.49461 15.099C2.49461 15.099 1.09906 15.9763 1.01245 16.8663C0.940153 17.6094 1.18206 18.1416 1.75357 18.6337C2.27466 19.0824 3.44746 19.1535 3.44746 19.1535L20.2805 19.2574V21.4406C20.2805 21.4406 20.5604 22.1569 20.9115 22.4802C21.2231 22.767 21.8686 23 21.8686 23L25.7857 23C25.7857 23 26.7979 22.9431 27.0561 22.4802C27.2548 22.1242 27.0561 21.4406 27.0561 21.4406H28.0089C28.0089 21.4406 29.583 21.1328 29.597 20.401C29.608 19.8241 28.6442 19.2574 28.6442 19.2574H30.4439L42.4028 19.2574L53.8366 17.1782L59.6636 16.6584L63.4749 15.8267L64 15.099L63.1531 14.3713L63.4749 13.5396L62.5221 12.604L59.6636 12.396L62.2044 2L57.9697 2.41584Z" fill="white" stroke="black" stroke-width="2"/>
</svg>
