<svg width="512" height="512" viewBox="0 0 512 512" fill="none" xmlns="http://www.w3.org/2000/svg">
<rect width="512" height="512" fill="white"/>
<g clip-path="url(#clip0_1_112)">
<rect width="482" height="512" transform="translate(15)" fill="white"/>
<path d="M328.268 104.254C331.636 100.349 334.549 96.0735 336.951 91.5107L336.97 91.4645C332.372 93.756 327.179 94.575 322.099 93.81C317.019 93.045 312.299 90.7332 308.58 87.1892C308.889 89.336 309.158 91.2292 309.158 91.2292C310.141 98.4179 312.66 105.311 316.545 111.439C316.817 111.948 317.211 112.382 317.693 112.699C318.761 113.268 319.971 112.436 320.906 111.614C323.526 109.332 325.985 106.873 328.268 104.254Z" fill="white"/>
<path d="M20.6738 305.617L17.8012 307.272C17.8012 306.292 17.8012 298.815 17.8096 287.582C10.3025 291.91 275.042 139.115 269.509 142.308C269.501 153.722 269.498 161.241 269.498 161.957L20.6738 305.617Z" fill="white"/>
<path d="M352.604 249.801C352.421 247.54 351.426 245.423 349.803 243.838C348.648 244.19 347.463 244.435 346.263 244.57C339.422 245.227 332.935 245.615 326.885 242.357L322.002 238.783C316.245 239.643 309.891 239.963 305.38 238.401C304.884 238.226 304.399 238.021 303.929 237.787C301.597 239.877 296.528 244.358 295.371 246.482C294.691 247.614 294.283 248.888 294.182 250.205C294.081 251.522 294.289 252.844 294.788 254.066C295.376 255.142 296.196 256.073 297.19 256.792C298.183 257.51 299.325 257.997 300.531 258.218C302.949 258.639 305.427 258.586 307.825 258.063C311.658 257.417 315.401 256.318 318.975 254.789C318.78 256.021 318.807 257.278 319.053 258.501C319.357 259.588 319.894 260.597 320.626 261.456C321.359 262.316 322.269 263.006 323.294 263.479C325.876 264.653 328.739 265.069 331.548 264.681C335.742 264.206 339.847 263.143 343.744 261.523C346.291 260.581 348.973 259.492 350.545 257.281C352.188 255.155 352.928 252.468 352.604 249.801Z" fill="white"/>
<path d="M330.691 171.821C327.677 171.984 324.618 172.043 321.587 172.034C321.231 172.034 320.887 172.034 320.525 172.034H320.366C312.72 172.008 305.332 171.506 299.706 171.054C299.717 171.39 299.721 171.576 299.721 171.576C300.048 187.54 301.658 223.836 302.382 236.871C303.293 237.536 304.301 238.056 305.371 238.412C309.882 239.975 316.237 239.654 321.993 238.794L326.877 242.368C332.926 245.626 339.414 245.238 346.254 244.582C348.404 244.385 350.491 243.749 352.386 242.715C352.603 225.293 352.41 186.011 351.334 168.917C344.546 170.462 337.641 171.433 330.691 171.821Z" fill="white"/>
<path d="M332.792 47.127C316.685 42.2958 307.581 46.7195 304.896 53.021C303.533 55.456 302.456 58.0404 301.686 60.7229C301.326 62.3949 301.079 64.0895 300.948 65.7949C300.907 66.2472 300.871 66.6757 300.842 67.0552C300.429 72.3565 301.712 77.6518 304.505 82.1768C307.298 86.7019 311.457 90.2228 316.381 92.2314C321.305 94.24 326.74 94.6325 331.902 93.3522C337.064 92.072 341.686 89.1852 345.1 85.1083C348.223 85.0117 350.002 85.0439 352.568 83.9041C353.776 83.3834 354.863 82.6175 355.76 81.655C356.657 80.6925 357.344 79.5543 357.778 78.3125C358.202 77.0474 358.283 75.6929 358.015 74.3861C357.746 73.0793 357.137 71.8667 356.249 70.8711C355.192 69.6723 353.728 68.9087 352.141 68.7286C352.141 68.7286 353.456 56.8075 342.718 51.5562C339.531 49.8205 336.212 48.3394 332.792 47.127Z" fill="white"/>
<path d="M269.413 82.6465C267.22 82.6004 265.049 83.0847 263.083 84.0581C261.298 84.9484 259.77 86.2806 258.645 87.9279C257.52 89.5753 256.834 91.483 256.655 93.4698C256.525 95.4606 256.941 97.4491 257.857 99.2214C258.774 100.994 260.156 102.483 261.855 103.528C262.422 103.923 263.07 104.187 263.752 104.3C264.434 104.413 265.132 104.372 265.796 104.181L267.694 103.432L277.638 96.9902L277.89 94.7189C278.263 91.358 277.641 87.0016 274.55 84.4418C273.085 83.2892 271.277 82.6576 269.413 82.6465Z" fill="white"/>
<path d="M323.156 142.067C321.039 136.672 318.783 128.27 316.059 120.657C305.867 121.189 296.606 121.734 287.55 122.105C290.834 133.519 294.402 144.892 298.253 156.225C301.195 155.965 306.038 155.697 309.399 155.323L323.156 142.067Z" fill="white"/>
<path d="M317.039 144.159C316.613 144.297 316.203 144.478 315.814 144.7C308.828 148.744 310.772 158.885 314.693 162.086C322.397 168.37 328.153 168.248 336.136 164.206C339.463 161.953 341.729 158.941 341.499 154.412C341.327 151.021 340.295 148.82 338.402 147.691C337.243 146.874 335.852 146.45 334.434 146.479C333.015 146.509 331.644 146.991 330.519 147.855C327.971 145.955 325.079 144.566 322.003 143.764C320.342 143.475 318.634 143.611 317.039 144.159Z" fill="white"/>
<path d="M412.467 419.281C412.562 419.218 412.656 419.153 412.747 419.086C412.747 415.865 412.747 411.863 412.737 407.781C410.934 407.708 409.02 407.641 407.363 407.559C405.286 407.663 403.228 407.125 401.468 406.018C400.697 404.956 400.194 403.724 400 402.426C399.932 402.009 399.865 401.593 399.798 401.177C397.955 400.632 393.543 401.232 391.727 401.667C389.926 402.217 388.406 403.437 387.48 405.076C387.08 405.82 386.876 406.654 386.885 407.498C386.765 408.687 387.062 409.88 387.725 410.873C387.959 411.209 388.212 411.53 388.483 411.837C391.424 415.176 395.626 417.079 399.744 418.782C402.007 419.866 404.444 420.54 406.943 420.775C408.894 420.856 410.822 420.334 412.467 419.281Z" fill="white"/>
<path d="M400.176 403.192C400.108 402.935 400.048 402.678 400.001 402.429C398.958 396.095 398.274 389.91 397.749 383.053C397.574 380.77 397.511 377.475 397.35 375.19L397.301 374.49C401.954 376.538 407.898 378.959 412.038 380.858L412.738 381.182C412.738 385.04 412.73 388.324 412.73 391.516C412.73 395.661 412.73 401.81 412.738 407.783C410.934 407.71 409.018 407.643 407.36 407.56C405.283 407.664 403.225 407.126 401.465 406.02C400.827 405.187 400.387 404.22 400.176 403.192Z" fill="white"/>
<path d="M375.724 351.205C375.388 351.401 375.006 351.505 374.617 351.505C374.227 351.505 373.845 351.401 373.509 351.205L303.588 310.802C303.202 310.579 302.893 310.243 302.703 309.839L302.482 309.864V333.701L304.055 334.609C305.686 335.55 373.243 374.585 375.311 375.779C379.963 373.095 475.288 318.056 478.27 316.335V291.997L375.724 351.205Z" fill="white"/>
<path d="M433.944 298.476L389.809 323.963L359.263 306.318C363.086 304.107 398.619 283.592 403.395 280.832L433.944 298.476Z" fill="white"/>
<path d="M460.791 280.86C456.388 280.147 451.887 280.326 447.554 281.385C441.086 282.879 435.059 285.819 429.1 288.741C425.806 290.607 422.873 293.047 420.439 295.946C415.336 301.567 411.119 305.776 406.934 312.47C406.691 312.994 406.313 313.445 405.84 313.777C405.607 313.91 405.349 313.995 405.082 314.027C404.815 314.059 404.544 314.037 404.286 313.961C401.705 313.03 397.534 311.848 394.111 310.977C391.62 314.43 388.892 323.188 387.864 331.379C387.78 331.754 387.838 332.147 388.026 332.483C388.214 332.819 388.518 333.074 388.882 333.199C398.126 335.195 404.896 337.341 414.31 337.12C415.939 337.093 417.543 336.711 419.01 336C419.295 335.858 419.571 335.699 419.836 335.522C418.801 338.463 418.436 339.326 417.412 342.244C416.101 345.986 414.841 350.366 416.852 353.752C417.924 355.341 419.4 356.615 421.128 357.446C427.486 360.972 434.853 361.721 442.04 361.286C445.483 360.878 448.895 360.241 452.253 359.379C452.253 359.379 469.586 351.752 477.714 343.965C478.373 335.49 478.475 326.98 478.021 318.491C477.857 311.575 475.469 298.362 474.11 292.305C473.419 290.304 472.521 288.38 471.432 286.564C470.412 284.969 468.939 283.714 467.201 282.961C465.176 281.957 463.017 281.249 460.791 280.86Z" fill="white"/>
<path d="M380.04 309.945C377.888 310.176 375.829 310.95 374.057 312.194C370.781 314.345 370.346 318.623 371.187 323.519C371.421 325.115 372.12 326.607 373.197 327.808C374.273 329.009 375.681 329.866 377.242 330.273C379.801 330.799 382.423 330.955 385.026 330.735L387.982 330.558C388.729 324.831 390.244 319.231 392.484 313.908L392.398 313.446C392.014 312.104 391.291 310.883 390.299 309.9C389.308 308.917 388.08 308.206 386.734 307.835C383.892 307.178 382.312 309.668 380.248 309.919L380.04 309.945Z" fill="white"/>
<path d="M454.184 285.442C460.852 279.855 463.207 269.87 463.988 264.437C465.648 252.772 457.358 242.487 446.629 239.641C442.463 238.527 438.084 238.469 433.889 239.471C429.694 240.474 425.815 242.505 422.603 245.383C419.872 247.858 417.68 250.87 416.164 254.229C414.648 257.588 413.84 261.224 413.79 264.909C413.684 269.061 414.804 273.153 417.011 276.672C418.123 278.416 419.582 279.912 421.298 281.066C423.014 282.221 424.95 283.009 426.985 283.381" fill="white"/>
<path d="M279.875 462.942C280.695 462.263 281.662 461.784 282.699 461.542C285.388 461.057 288.14 461.036 290.836 461.48C291.25 462.116 291.724 462.712 292.249 463.26C296.311 467.699 301.913 467.788 305.646 468.477C305.646 472.97 305.654 477.518 305.655 481.201C303.853 482.324 301.755 482.88 299.633 482.796C296.854 482.535 294.142 481.784 291.624 480.579C287.05 478.685 282.369 476.569 279.098 472.852C278.797 472.511 278.517 472.154 278.257 471.781C277.517 470.698 277.183 469.388 277.313 468.083C277.355 466.998 277.634 465.936 278.13 464.971C278.598 464.205 279.187 463.52 279.875 462.942Z" fill="white"/>
<path d="M268.634 414.151C268.298 414.348 267.916 414.452 267.527 414.452C267.138 414.452 266.755 414.348 266.42 414.151L196.498 373.75C196.112 373.527 195.802 373.192 195.612 372.788L195.392 372.812V396.649L196.965 397.556L268.225 438.726C272.876 436.04 368.203 381.001 371.184 379.282V354.944L268.634 414.151Z" fill="white"/>
<path d="M324.544 361.647L280.409 387.133L249.862 369.489C253.686 367.279 289.218 346.763 293.994 344.003L324.544 361.647Z" fill="white"/>
<path d="M315.783 343.868C318.008 345.137 320.47 345.936 323.016 346.217C323.311 340.288 322.997 332.914 319.964 327.807C318.643 325.626 316.737 323.859 314.462 322.707C312.187 321.555 309.634 321.065 307.094 321.291C306.714 323.45 306.608 325.648 306.779 327.833C306.978 332.124 308.386 336.272 310.84 339.798C312.216 341.455 313.893 342.836 315.783 343.868Z" fill="white"/>
<path d="M272.567 372.953C270.55 373.226 268.628 373.979 266.964 375.151C263.688 377.301 262.459 381.672 263.302 386.569C263.929 390.21 267.224 392.466 270.148 393.228C272.708 393.755 275.33 393.911 277.934 393.69L280.889 393.513C281.637 387.787 283.151 382.187 285.392 376.865L285.305 376.401C284.921 375.059 284.199 373.838 283.207 372.856C282.215 371.873 280.987 371.162 279.641 370.791C276.799 370.135 275.219 372.623 273.155 372.875C272.953 372.897 272.754 372.924 272.567 372.953Z" fill="white"/>
<path d="M353.701 343.812C349.298 343.1 344.797 343.279 340.464 344.338C333.996 345.832 327.97 348.772 322.01 351.695C318.716 353.56 315.782 356 313.349 358.9C308.247 364.519 304.029 368.729 299.843 375.424C299.601 375.948 299.224 376.398 298.751 376.729C298.517 376.862 298.259 376.948 297.992 376.979C297.725 377.011 297.454 376.989 297.196 376.914C294.615 375.984 290.444 374.802 287.021 373.929C284.531 377.384 281.802 386.142 280.774 394.331C280.691 394.706 280.749 395.099 280.936 395.435C281.124 395.771 281.429 396.026 281.792 396.151C291.036 398.146 297.807 400.292 307.22 400.072C308.85 400.046 310.454 399.663 311.92 398.952C312.205 398.809 312.481 398.649 312.747 398.473C311.712 401.414 311.346 402.278 310.322 405.195C309.011 408.937 307.751 413.317 309.762 416.704C310.835 418.293 312.31 419.568 314.038 420.398C320.397 423.924 327.764 424.674 334.95 424.238C338.393 423.829 341.805 423.191 345.163 422.329C345.163 422.329 362.497 414.704 370.624 406.917C371.283 398.441 371.385 389.932 370.931 381.442C370.767 374.527 368.379 361.312 367.02 355.256C366.329 353.252 365.431 351.326 364.343 349.508C363.323 347.912 361.849 346.657 360.111 345.904C358.086 344.903 355.927 344.199 353.701 343.812Z" fill="white"/>
<path d="M465.55 259.879C465.147 256.207 462.568 243.097 446.624 239.634C443.174 238.726 439.575 238.534 436.048 239.069C432.522 239.604 429.142 240.855 426.117 242.746C423.092 244.636 420.486 247.126 418.46 250.062C416.434 252.997 415.031 256.316 414.336 259.815C416.801 259.903 419.197 260.656 421.268 261.996C423.339 263.335 425.009 265.21 426.101 267.421C428.68 272.768 427.489 279.059 426.681 284.941C426.365 286.262 426.477 287.65 427 288.904C427.788 289.912 428.862 290.658 430.082 291.045C434.688 293.354 444.608 295.571 456.833 290.195C459.405 289.06 461.753 287.473 463.764 285.508C465.056 283.917 465.907 282.015 466.233 279.992C467.049 276.35 466.518 268.673 465.55 259.879Z" fill="white"/>
<path d="M319.964 327.807C322.997 332.909 323.311 340.288 323.016 346.217L323.062 346.488V350.925L324.286 350.584C329.427 347.903 334.854 345.808 340.464 344.339C343.598 343.599 346.819 343.289 350.037 343.417C355.162 337.215 356.91 331.935 356.751 323.017C356.541 311.241 349.596 301.524 337.3 299.805C333.904 299.22 330.426 299.312 327.066 300.077C323.706 300.842 320.53 302.264 317.722 304.261C314.914 306.259 312.529 308.792 310.705 311.715C308.881 314.639 307.654 317.894 307.094 321.294C309.634 321.066 312.186 321.556 314.461 322.708C316.737 323.859 318.643 325.626 319.964 327.807Z" fill="white"/>
<path d="M452.25 359.372C448.892 360.234 445.48 360.871 442.037 361.279C434.855 361.714 427.484 360.965 421.125 357.439C419.398 356.608 417.922 355.333 416.849 353.745C416.564 353.252 416.34 352.726 416.181 352.179L396.161 363.738C395.701 364.925 395.364 366.155 395.155 367.411C395.088 368.755 395.024 370.123 394.963 371.506C394.939 372.066 395.083 372.622 395.377 373.1C395.672 373.578 396.104 373.956 396.616 374.186C401.361 376.295 407.693 378.864 412.038 380.857L412.738 381.199V374.956C420.694 379.403 427.849 382.949 437.141 384.964C439.585 385.407 442.084 385.47 444.548 385.15C447.424 384.694 450.586 383.533 452.173 381.573L452.697 359.167L452.25 359.372Z" fill="white"/>
<path d="M322.878 37.6369C321.581 37.9648 320.308 38.3822 319.069 38.886C315.546 40.4138 312.443 42.7674 310.022 45.7476C313.816 51.2157 319.333 55.2551 325.692 57.2206C325.868 57.3042 326.062 57.3443 326.257 57.3375C326.452 57.3307 326.643 57.2771 326.813 57.1814C327.013 56.9682 327.13 56.6907 327.145 56.3986L327.754 52.6821L337.058 61.0337C339.227 62.7162 341.668 64.0153 344.275 64.8749L356.781 69.0437C358.061 64.8125 358.143 60.3094 357.018 56.0345C355.729 50.7033 352.704 45.9519 348.418 42.5283C343.953 39.0003 338.484 36.978 332.797 36.7519C329.466 36.5707 326.125 36.8687 322.878 37.6369Z" fill="white"/>
<path d="M345.554 425.587L338.865 423.695C337.568 423.946 336.259 424.126 334.943 424.232C327.761 424.668 320.39 423.919 314.031 420.393C312.303 419.562 310.828 418.287 309.755 416.699C309.494 416.253 309.283 415.78 309.125 415.288L308.916 415.23L289.067 426.69C288.607 427.877 288.27 429.109 288.061 430.365C287.811 435.333 289.211 451.358 289.973 457.605C289.988 458.628 290.132 459.644 290.402 460.63C290.851 461.612 291.475 462.504 292.245 463.261C296.132 467.507 301.427 467.773 305.144 468.392L308.675 468.426C308.675 463.278 308.664 458.195 308.656 455.205C308.013 454.809 307.482 454.256 307.115 453.597C306.747 452.938 306.554 452.196 306.555 451.441C306.555 448.807 306.555 445.609 306.555 443.616C306.555 443.616 306.555 441.515 306.555 438.415C314.15 442.626 321.111 445.977 330.047 447.916C332.491 448.36 334.99 448.423 337.454 448.104C340.33 447.647 343.492 446.485 345.079 444.525L345.544 444.257L345.554 425.587Z" fill="white"/>
<path d="M389.515 333.202C389.152 333.076 388.847 332.821 388.659 332.486C388.471 332.15 388.414 331.757 388.497 331.382C388.531 331.109 388.571 330.834 388.609 330.561L385.659 330.736C383.055 330.957 380.433 330.801 377.874 330.274C376.313 329.868 374.906 329.011 373.829 327.81C372.753 326.609 372.054 325.117 371.82 323.522C371.158 319.673 371.31 316.226 372.986 313.873L359.896 306.311C363.719 304.102 399.252 283.585 404.028 280.825L424.374 292.58C425.574 291.493 426.865 290.513 428.234 289.65C427.991 289.437 427.786 289.185 427.628 288.902C427.105 287.648 426.992 286.261 427.307 284.939C427.38 284.418 427.454 283.892 427.528 283.365C425.509 282.985 423.589 282.195 421.887 281.044C420.185 279.893 418.737 278.405 417.632 276.673C415.427 273.153 414.309 269.062 414.418 264.91C414.435 263.198 414.623 261.492 414.978 259.817H414.961C414.976 259.746 414.999 259.677 415.014 259.606C415.059 259.4 415.118 259.2 415.168 258.995C415.317 258.383 415.483 257.776 415.674 257.175C415.756 256.917 415.842 256.662 415.932 256.408C416.137 255.825 416.363 255.252 416.607 254.685C416.696 254.478 416.778 254.265 416.871 254.063C417.151 253.457 417.453 252.865 417.775 252.281L409.429 247.459C409.093 247.263 408.712 247.159 408.323 247.159C407.934 247.159 407.552 247.263 407.217 247.459C393.245 255.527 322.229 296.529 304.214 306.935C303.874 307.13 303.591 307.411 303.394 307.751C303.197 308.09 303.094 308.476 303.094 308.868C303.094 309.261 303.197 309.646 303.394 309.986C303.591 310.325 303.874 310.607 304.214 310.802L310.028 314.163C311.175 311.773 312.678 309.571 314.485 307.632C317.473 304.537 321.165 302.21 325.246 300.849C329.327 299.487 333.677 299.132 337.925 299.812C350.222 301.529 357.167 311.246 357.376 323.024C357.499 329.945 356.466 334.675 353.606 339.344L374.135 351.206C374.471 351.403 374.853 351.507 375.243 351.507C375.632 351.507 376.014 351.403 376.35 351.206L402.574 336.066C398.417 335.298 394.295 334.233 389.515 333.202Z" fill="#F19CAE"/>
<path d="M479.369 287.86L466.728 280.558C466.588 281.156 466.43 281.714 466.246 282.238C466.782 282.455 467.313 282.692 467.834 282.952C469.572 283.706 471.045 284.96 472.065 286.555C473.154 288.374 474.052 290.301 474.743 292.305C474.868 292.865 475.004 293.498 475.144 294.166L479.365 291.73C479.703 291.533 479.984 291.25 480.179 290.911C480.375 290.572 480.477 290.188 480.478 289.796C480.478 289.405 480.376 289.02 480.182 288.681C479.987 288.341 479.707 288.058 479.369 287.86Z" fill="#F19CAE"/>
<path d="M282.427 396.156C282.063 396.03 281.759 395.775 281.571 395.439C281.384 395.104 281.326 394.711 281.409 394.335C281.444 394.064 281.484 393.789 281.522 393.515L278.571 393.691C275.967 393.912 273.346 393.755 270.787 393.227C267.861 392.466 264.568 390.218 263.939 386.569C263.315 383.637 263.719 380.579 265.083 377.909L250.498 369.482C254.321 367.272 289.854 346.756 294.63 343.996L316.268 356.497C318.164 354.611 320.31 352.995 322.646 351.693C323.403 351.32 324.162 350.949 324.922 350.582L323.698 350.922V346.488L323.652 346.215C321.105 345.935 318.643 345.136 316.418 343.867C314.528 342.835 312.851 341.454 311.475 339.798C309.02 336.272 307.612 332.124 307.413 327.833C307.243 325.648 307.349 323.45 307.73 321.291C308.135 319.018 308.827 316.807 309.79 314.709L302.349 310.41C302.013 310.213 301.632 310.11 301.243 310.11C300.854 310.11 300.473 310.213 300.137 310.41C286.165 318.477 215.149 359.479 197.134 369.885C196.794 370.081 196.511 370.362 196.314 370.702C196.117 371.041 196.014 371.427 196.014 371.819C196.014 372.212 196.117 372.597 196.314 372.937C196.511 373.276 196.794 373.558 197.134 373.753L267.055 414.156C267.391 414.352 267.773 414.456 268.163 414.456C268.552 414.456 268.934 414.352 269.27 414.156L295.494 399.014C291.335 398.256 287.206 397.186 282.427 396.156Z" fill="#F19CAE"/>
<path d="M372.28 350.814L353.302 339.849C352.498 341.091 351.62 342.284 350.673 343.42C351.901 343.473 353.125 343.606 354.335 343.818C356.561 344.204 358.72 344.908 360.745 345.909C362.482 346.662 363.956 347.916 364.976 349.512C366.064 351.328 366.961 353.252 367.652 355.253C367.778 355.813 367.914 356.446 368.054 357.116C369.698 356.166 371.123 355.343 372.275 354.679C372.613 354.482 372.892 354.2 373.087 353.861C373.281 353.522 373.384 353.138 373.384 352.748C373.385 352.357 373.283 351.973 373.089 351.634C372.896 351.295 372.616 351.012 372.28 350.814Z" fill="#F19CAE"/>
<path d="M268.33 103.437L266.432 104.185C265.768 104.376 265.07 104.417 264.388 104.304C263.706 104.191 263.058 103.928 262.491 103.533C260.791 102.487 259.409 100.998 258.493 99.2257C257.577 97.4534 257.161 95.4649 257.291 93.474C257.471 91.4873 258.156 89.5796 259.281 87.9323C260.406 86.285 261.934 84.9528 263.719 84.0623C265.684 83.0887 267.856 82.6049 270.049 82.6521C270.082 82.6521 270.116 82.6606 270.149 82.662C270.173 45.5894 270.2 5.09583 270.2 2.78807C246.646 16.384 37.7412 136.994 18.5393 148.086C18.5169 151.391 18.4832 270.699 18.479 287.559L176.184 196.537L191.196 187.872L192.998 186.833L270.11 142.326C270.11 137.03 270.123 121.321 270.135 102.258L268.33 103.437Z" fill="#F19CAE"/>
<path d="M358.746 148.621C363.694 139.572 365.024 128.983 362.466 118.992C361.508 114.94 360.12 111.002 358.326 107.245C357.028 104.727 355.451 102.364 353.623 100.201C350.237 96.2368 342.278 90.417 337.208 91.0262C333.149 98.871 327.615 105.86 320.911 111.611C319.975 112.433 318.765 113.265 317.698 112.696C317.216 112.379 316.821 111.945 316.549 111.436C312.381 104.855 309.785 97.4027 308.964 89.6566C301.12 94.3464 293.267 98.9829 288.164 105.34C287.304 104.482 286.441 103.598 285.591 102.708C284.126 101.167 282.699 99.6271 281.381 98.1567C280.669 97.3669 279.99 96.6009 279.354 95.8769L264.694 105.378C267.949 110.971 271.417 116.465 275.183 121.726C277.612 125.113 283.745 136.009 289.088 131.668L294.27 145.618C294.657 151.78 294.508 164.907 294.948 170.638C302.608 171.252 317.126 172.552 330.688 171.82C338.693 171.358 346.637 170.149 354.417 168.21C354.417 164.569 353.739 158.874 353.739 158.874L353.407 156.073C353.52 155.949 353.632 155.823 353.744 155.697C355.665 153.527 357.342 151.155 358.746 148.621ZM336.141 164.206C328.157 168.245 322.405 168.37 314.698 162.086C313.571 160.984 312.678 159.667 312.071 158.213C311.465 156.758 311.156 155.197 311.165 153.621L309.399 155.323C306.038 155.697 301.197 155.965 298.253 156.225C294.404 144.91 290.837 133.538 287.553 122.109C296.611 121.738 305.871 121.194 316.063 120.662C318.787 128.274 321.044 136.676 323.16 142.07L321.471 143.698C321.652 143.722 321.842 143.729 322.013 143.767C325.088 144.569 327.979 145.958 330.527 147.857C331.652 146.993 333.024 146.511 334.442 146.482C335.86 146.452 337.251 146.877 338.411 147.694C340.303 148.824 341.335 151.025 341.508 154.415C341.733 158.938 339.467 161.953 336.141 164.206Z" fill="#F19CAE"/>
<path d="M494.293 367.457C494.293 350.653 494.276 329.788 494.276 323.023C494.278 322.619 494.174 322.222 493.975 321.871C493.776 321.519 493.488 321.226 493.141 321.02C492.793 320.814 492.398 320.703 491.994 320.697C491.59 320.691 491.192 320.791 490.839 320.987C482.476 325.626 466.124 335.104 457.193 340.452C456.147 341.072 455.281 341.953 454.678 343.008C454.076 344.064 453.758 345.258 453.756 346.473V390.962C466.345 383.532 482.024 374.45 494.293 367.457Z" fill="#F19CAE"/>
<path d="M387.695 431.518C387.688 414.315 387.676 392.95 387.676 386.031C387.678 385.618 387.572 385.211 387.368 384.852C387.164 384.492 386.87 384.192 386.514 383.982C386.159 383.771 385.754 383.657 385.341 383.65C384.928 383.644 384.52 383.746 384.158 383.946C375.598 388.697 358.858 398.398 349.715 403.864C348.646 404.499 347.759 405.401 347.142 406.481C346.526 407.561 346.2 408.782 346.197 410.026V455.569C359.078 447.968 375.128 438.671 387.695 431.518Z" fill="#F19CAE"/>
<path d="M345.554 436.729V444.257L345.089 444.525C343.502 446.485 340.339 447.647 337.464 448.104C335 448.423 332.501 448.36 330.056 447.916C322.951 446.303 316.112 443.684 309.748 440.136L306.57 440.439V443.616C306.57 445.609 306.57 448.807 306.57 451.441C306.569 452.196 306.762 452.938 307.13 453.597C307.498 454.256 308.028 454.809 308.671 455.205C308.671 455.499 308.671 455.831 308.671 456.164C317.766 461.4 335.142 471.373 341.341 474.958C342.453 475.521 343.683 475.814 344.929 475.814C346.176 475.814 347.405 475.521 348.517 474.958L383.519 454.747C384.597 454.126 385.493 453.232 386.114 452.155C386.736 451.077 387.062 449.855 387.06 448.611V432.78L345.554 436.729Z" fill="#F19CAE"/>
<path d="M452.997 373.808L452.814 381.577C451.228 383.537 448.065 384.699 445.19 385.156C442.726 385.475 440.227 385.412 437.782 384.968C430.676 383.355 423.838 380.735 417.474 377.187L413.378 377.577V391.483C420.926 395.836 442.069 407.974 449.057 412.01C450.169 412.573 451.398 412.866 452.645 412.866C453.892 412.866 455.121 412.573 456.233 412.01L491.235 391.799C492.313 391.178 493.209 390.284 493.83 389.207C494.452 388.129 494.778 386.907 494.776 385.663V369.829L452.997 373.808Z" fill="#F19CAE"/>
<path d="M266.712 113.303C266.712 129.518 266.708 145.734 266.698 161.95L268.086 159.532C265.422 161.076 262.756 162.616 260.088 164.153L241.6 174.833C232.73 179.956 223.859 185.078 214.989 190.199L182.872 208.743L147.957 228.907L112.472 249.386L79.1298 268.636C69.617 274.129 60.1024 279.622 50.586 285.116L29.1305 297.502L17.4804 304.223L16.388 304.855L20.6023 307.277C20.6023 301.511 20.6051 295.745 20.6107 289.979C20.6182 277.469 20.6247 264.965 20.6303 252.467L20.6555 207.563L20.6766 168.675C20.6766 164.279 20.6766 159.882 20.6766 155.486C20.6766 153.214 20.8292 150.882 20.6766 148.612C20.6653 148.444 20.6766 148.27 20.6766 148.101L19.2886 150.519L29.8896 144.393L49.2554 133.208L75.4379 118.085L106.088 100.397L139.212 81.2726L172.729 61.9227L204.697 43.4677L232.709 27.3008L254.826 14.5339L268.963 6.37413L270.988 5.20625L266.768 2.78787C266.768 20.9344 266.762 39.0809 266.75 57.2274C266.75 65.7023 266.747 74.1762 266.74 82.6491C266.74 86.2536 272.343 86.2592 272.343 82.6491C272.351 58.1694 272.36 33.6901 272.369 9.21122C272.369 7.07057 272.369 4.92945 272.369 2.78787C272.361 2.29832 272.226 1.81925 271.977 1.39756C271.729 0.975859 271.375 0.625994 270.95 0.382215C270.525 0.138435 270.044 0.00909781 269.555 0.00686586C269.065 0.00463392 268.583 0.129584 268.156 0.369482C260.197 4.95979 252.24 9.55243 244.283 14.1474L201.277 38.9768L148.561 69.4061L94.5838 100.571C79.3063 109.391 64.0297 118.212 48.754 127.034C39.2627 132.515 29.7729 137.997 20.2844 143.478C19.1415 144.139 17.972 144.77 16.8488 145.464C15.1134 146.538 15.084 147.882 15.084 149.606C15.084 153.714 15.084 157.819 15.084 161.921C15.0756 178.305 15.0668 194.689 15.0574 211.073C15.0481 230.101 15.0378 249.129 15.0266 268.158C15.0163 280.375 15.0075 292.592 15 304.81C15 305.632 15 306.454 15 307.277C15.0075 307.767 15.1422 308.247 15.391 308.669C15.6398 309.091 15.9941 309.441 16.4191 309.685C16.8441 309.929 17.3253 310.058 17.8153 310.06C18.3054 310.062 18.7875 309.936 19.2143 309.696L29.6711 303.659L52.4123 290.529L83.8946 272.353L120.979 250.94L160.151 228.325L197.863 206.55L231.023 187.403L256.074 172.937C260.577 170.337 265.08 167.736 269.582 165.135C269.981 164.904 270.399 164.689 270.787 164.434C272.621 163.246 272.301 161.232 272.302 159.343C272.302 150.58 272.305 141.816 272.312 133.053C272.312 126.467 272.312 119.881 272.312 113.296C272.312 109.691 266.71 109.685 266.71 113.296L266.712 113.303Z" fill="#211715"/>
<path d="M268.061 139.912L260.023 144.553C253.811 148.136 247.602 151.72 241.395 155.306L214.583 170.777L182.402 189.35L147.148 209.699L111.534 230.253L78.2894 249.438L49.7064 265.937L28.5982 278.12L17.3614 284.606L16.43 285.144C13.3081 286.946 16.1261 291.788 19.2564 289.981L27.6725 285.124L46.5971 274.202L73.6157 258.607L105.928 239.958L141.237 219.573L176.82 199.036L209.952 179.914L238.341 163.53L259.176 151.505L270.056 145.226L270.889 144.745C274.011 142.944 271.193 138.101 268.061 139.908V139.912Z" fill="#211715"/>
<path d="M491.337 387.474C491.337 399.08 491.341 410.688 491.347 422.296C491.347 425.9 496.95 425.906 496.95 422.296C496.95 410.689 496.946 399.081 496.94 387.474C496.94 383.869 491.337 383.863 491.337 387.474Z" fill="#211715"/>
<path d="M449.656 412.488V446.342C449.656 449.945 455.259 449.952 455.259 446.342V412.488C455.259 408.883 449.656 408.878 449.656 412.488Z" fill="#211715"/>
<path d="M409.784 376.505C416.837 380.75 424.368 384.144 432.219 386.618C439.113 388.578 448.834 389.598 454.16 383.553C456.534 380.857 452.588 376.88 450.198 379.591C448.202 381.858 444.805 382.505 441.91 382.547C438.527 382.47 435.178 381.848 431.993 380.704C425.234 378.379 418.737 375.35 412.611 371.668C409.468 369.895 406.64 374.732 409.784 376.505Z" fill="#211715"/>
<path d="M393.452 362.994C392.565 365.635 392.133 368.407 392.175 371.192C392.126 371.968 392.233 372.746 392.491 373.48C392.749 374.214 393.151 374.889 393.675 375.464C394.652 376.342 395.802 377.007 397.05 377.416C401.569 379.377 406.142 381.222 410.623 383.27C411.269 383.627 412.027 383.722 412.741 383.535C413.455 383.347 414.069 382.892 414.455 382.264C414.821 381.621 414.921 380.86 414.733 380.144C414.545 379.428 414.085 378.814 413.45 378.433C409.397 376.582 405.266 374.897 401.171 373.138C400.202 372.718 399.23 372.308 398.269 371.878C398.04 371.78 397.818 371.666 397.605 371.538C398.207 371.912 397.301 371.175 397.794 371.696C397.664 371.451 397.643 371.421 397.731 371.606C397.809 371.797 397.808 371.759 397.731 371.493C397.763 371.801 397.776 371.85 397.772 371.633C397.772 371.486 397.776 371.339 397.784 371.192C397.808 370.556 397.842 369.922 397.873 369.286C397.888 368.972 397.903 368.657 397.92 368.344C397.92 368.262 397.962 367.423 397.92 367.853C398.088 366.694 398.405 365.562 398.864 364.484C399.058 363.767 398.961 363.003 398.594 362.357C398.226 361.712 397.619 361.238 396.903 361.038C396.187 360.862 395.431 360.967 394.789 361.332C394.148 361.696 393.671 362.293 393.456 362.998L393.452 362.994Z" fill="#211715"/>
<path d="M412.573 415.06C411.053 417.959 407.653 418.376 404.748 417.614C400.914 416.569 397.261 414.944 393.917 412.797C391.772 411.419 388.057 408.645 390.36 405.849C392.197 403.619 396.137 403.622 398.791 403.81C399.534 403.81 400.247 403.515 400.772 402.99C401.297 402.464 401.592 401.752 401.592 401.009C401.592 400.266 401.297 399.554 400.772 399.029C400.247 398.504 399.534 398.209 398.791 398.209C396.948 398.13 395.102 398.247 393.284 398.557C391.554 398.7 389.88 399.242 388.395 400.141C386.538 401.295 385.16 403.08 384.513 405.168C383.866 407.256 383.994 409.508 384.874 411.509C386.573 415.031 390.528 417.53 393.899 419.221C397.71 421.135 401.924 423.095 406.205 423.527C408.418 423.778 410.658 423.379 412.648 422.377C414.638 421.376 416.293 419.815 417.409 417.888C419.082 414.698 414.248 411.866 412.572 415.06H412.573Z" fill="#211715"/>
<path d="M394.549 375.19C395.074 383.172 395.541 391.095 396.665 399.029C397.147 402.433 397.366 406.93 400.692 408.864C404.165 410.884 408.92 410.428 412.793 410.585C416.398 410.725 416.391 405.123 412.793 404.983C410.983 404.911 409.172 404.852 407.364 404.758C405.958 404.843 404.554 404.547 403.303 403.9C403.651 404.145 403.472 404.231 403.353 403.83C403.263 403.53 403.116 403.236 403.022 402.932C402.792 402.134 402.622 401.321 402.513 400.498C402.239 398.778 401.992 397.05 401.772 395.317C400.923 388.613 400.597 381.918 400.153 375.184C399.917 371.606 394.314 371.58 394.55 375.184L394.549 375.19Z" fill="#211715"/>
<path d="M329.779 346.239C328.01 345.206 326.23 344.189 324.457 343.158C323.801 342.789 323.027 342.689 322.299 342.878C321.943 342.976 321.611 343.142 321.32 343.368C321.029 343.594 320.785 343.875 320.603 344.195C320.421 344.515 320.304 344.868 320.258 345.233C320.213 345.599 320.24 345.97 320.338 346.325C320.543 347.026 321.002 347.625 321.626 348.005C323.398 349.036 325.178 350.052 326.948 351.086C327.605 351.455 328.378 351.555 329.107 351.366C329.462 351.269 329.795 351.102 330.086 350.876C330.376 350.65 330.62 350.369 330.802 350.049C330.984 349.729 331.101 349.376 331.147 349.011C331.193 348.645 331.166 348.275 331.068 347.92C330.863 347.218 330.403 346.619 329.779 346.239Z" fill="#211715"/>
<path d="M476.857 313.905C476.736 313.978 476.613 314.045 476.493 314.115C476.01 314.387 475.622 314.8 475.383 315.3C475.144 315.799 475.064 316.36 475.155 316.906C475.171 317.277 475.286 317.636 475.487 317.947L475.925 318.514C476.268 318.857 476.694 319.106 477.161 319.235L477.906 319.335C478.403 319.335 478.891 319.203 479.319 318.952C479.441 318.882 479.564 318.812 479.683 318.742C480.166 318.471 480.554 318.057 480.793 317.558C481.032 317.059 481.112 316.498 481.021 315.951C481.005 315.581 480.89 315.222 480.689 314.911L480.25 314.344C479.908 314.001 479.482 313.752 479.015 313.623L478.27 313.523C477.773 313.522 477.285 313.654 476.857 313.905Z" fill="#211715"/>
<path d="M475.469 292V327.989C475.469 331.593 481.071 331.599 481.071 327.989V292C481.071 288.395 475.469 288.39 475.469 292Z" fill="#211715"/>
<path d="M378.493 388.371V351.192C378.493 347.588 372.89 347.582 372.89 351.192V388.371C372.89 391.976 378.493 391.981 378.493 388.371Z" fill="#211715"/>
<path d="M464.672 282.963C468.308 285.072 471.949 287.177 475.596 289.278L476.533 289.818C476.694 289.911 477.288 290.394 477.473 290.367C477.141 290.095 477.08 290.06 477.291 290.261C477.032 289.899 476.983 289.841 477.141 290.084C477.403 290.527 476.921 289.479 477.092 289.999C477.151 290.296 477.138 290.202 477.054 289.719C477.046 289.948 477.054 289.927 477.088 289.657C477.122 289.387 477.134 289.369 477.088 289.593C477.001 289.873 477.042 289.799 477.21 289.367C477.164 289.464 477.11 289.558 477.05 289.647L477.285 289.335C477.075 289.535 477.137 289.499 477.47 289.229C477.373 289.294 477.273 289.355 477.169 289.411C476.774 289.643 476.376 289.869 475.98 290.098C475.024 290.65 474.066 291.199 473.107 291.745C472.79 291.931 472.512 292.177 472.289 292.47C472.067 292.763 471.904 293.097 471.811 293.452C471.718 293.808 471.695 294.179 471.745 294.543C471.795 294.908 471.916 295.259 472.102 295.576C472.287 295.894 472.534 296.172 472.827 296.394C473.12 296.617 473.454 296.779 473.81 296.873C474.165 296.966 474.536 296.988 474.901 296.938C475.265 296.889 475.616 296.767 475.934 296.582C477.015 295.967 478.094 295.348 479.169 294.725C480.353 294.182 481.354 293.306 482.047 292.204C482.422 291.489 482.624 290.695 482.636 289.887C482.647 289.079 482.469 288.28 482.115 287.554C481.542 286.492 480.649 285.638 479.564 285.112C475.54 282.793 471.519 280.469 467.502 278.139C467.185 277.954 466.834 277.833 466.469 277.783C466.105 277.733 465.734 277.755 465.378 277.849C465.022 277.942 464.688 278.104 464.395 278.327C464.102 278.549 463.856 278.827 463.67 279.145C463.485 279.462 463.364 279.813 463.314 280.178C463.264 280.542 463.286 280.913 463.38 281.269C463.473 281.624 463.635 281.958 463.858 282.251C464.08 282.544 464.358 282.791 464.676 282.976L464.672 282.963Z" fill="#211715"/>
<path d="M417.149 249.472H417.135L418.548 249.854C415.787 248.253 413.062 246.482 410.214 245.037C407.714 243.768 405.647 244.757 403.476 246.017L395.363 250.702L370.853 264.857C352.251 275.593 333.65 286.333 315.051 297.076L304.483 303.179C302.303 304.439 299.895 305.617 299.703 308.49C299.405 312.932 304.843 314.748 307.996 316.57C311.122 318.378 313.947 313.538 310.822 311.733C309.222 310.807 307.62 309.882 306.017 308.958C305.887 308.882 305.097 308.324 305.01 308.373C305.15 308.293 305.254 308.994 305.275 308.864C305.186 309.424 304.884 309.379 305.482 309.071C306.675 308.458 307.821 307.721 308.983 307.051L318.439 301.589L343.649 287.036L395.667 257.003L405.104 251.552L406.762 250.595C407.029 250.477 407.283 250.331 407.518 250.158C407.586 250.092 407.707 250.081 407.773 250.018C407.878 249.906 407.282 249.612 407.642 250.018C408.158 250.411 408.723 250.738 409.322 250.988L411.563 252.286C413.104 253.175 415.327 255.079 417.154 255.079C420.759 255.079 420.765 249.477 417.154 249.477L417.149 249.472Z" fill="#211715"/>
<path d="M352.974 342.132H352.988L351.575 341.75C356.678 344.703 361.781 347.653 366.885 350.603C368.425 351.489 369.942 352.405 371.493 353.263C372.411 353.86 373.482 354.181 374.577 354.187C375.672 354.194 376.747 353.886 377.672 353.3C386.314 348.499 394.808 343.416 403.366 338.471C406.487 336.668 403.669 331.825 400.539 333.635C392.148 338.483 383.756 343.326 375.362 348.165C375.115 348.274 374.88 348.411 374.662 348.572L374.313 348.772C374.972 348.874 375.114 348.838 374.741 348.665C374.486 348.279 373.48 347.935 373.078 347.704L368.088 344.822L361.292 340.894L357.371 338.627C356.1 337.892 354.499 336.526 352.978 336.526C349.373 336.526 349.368 342.128 352.978 342.128L352.974 342.132Z" fill="#211715"/>
<path d="M373.743 311.435C369.389 308.915 365.047 306.379 360.676 303.887V308.724C373.038 301.571 385.407 294.429 397.783 287.299L404.808 283.238H401.98C408.754 287.177 415.549 291.08 422.331 295.001C425.455 296.81 428.28 291.972 425.157 290.164C418.377 286.243 411.58 282.34 404.807 278.401C404.377 278.153 403.89 278.023 403.394 278.023C402.897 278.023 402.41 278.153 401.98 278.401C389.448 285.64 376.915 292.875 364.38 300.106C362.202 301.364 360.025 302.624 357.848 303.887C357.432 304.139 357.088 304.494 356.849 304.918C356.611 305.341 356.485 305.819 356.485 306.306C356.485 306.792 356.611 307.27 356.849 307.694C357.088 308.117 357.432 308.472 357.848 308.724C362.218 311.215 366.56 313.756 370.916 316.272C374.043 318.078 376.867 313.24 373.742 311.435H373.743Z" fill="#211715"/>
<path d="M409.924 391.55C409.924 401.798 409.932 412.044 409.947 422.29C409.947 425.895 415.549 425.9 415.549 422.29C415.549 412.043 415.542 401.797 415.527 391.55C415.527 387.947 409.924 387.94 409.924 391.55Z" fill="#211715"/>
<path d="M464.866 284.941C466.418 285.622 467.795 286.645 468.895 287.934C469.995 289.223 470.788 290.744 471.215 292.384C472.233 296.003 472.961 299.697 473.393 303.432C474.647 311.503 475.454 319.638 475.808 327.798C476.004 331.383 481.608 331.407 481.41 327.798C480.984 318.597 480.02 309.428 478.522 300.339C477.822 296.312 477.32 292.113 475.556 288.393C474.799 286.571 473.776 284.872 472.519 283.351C470.77 281.645 468.666 280.345 466.357 279.547C465.64 279.355 464.876 279.453 464.231 279.82C463.586 280.187 463.111 280.793 462.91 281.507C462.731 282.223 462.835 282.981 463.2 283.623C463.565 284.265 464.163 284.741 464.871 284.953L464.866 284.941Z" fill="#211715"/>
<path d="M426.184 287.229C421.315 290.383 417.598 294.854 413.745 299.122C412.003 301.053 410.311 303.023 408.716 305.078C407.854 306.188 407.016 307.318 406.217 308.472C405.75 309.147 405.297 309.83 404.859 310.522C404.665 310.823 404.476 311.126 404.29 311.432C404.766 311.229 404.69 311.2 404.062 311.347H405.55C403.854 310.933 402.182 310.425 400.542 309.826C398.655 309.273 396.759 308.755 394.854 308.273C394.258 308.126 393.631 308.171 393.062 308.402C392.494 308.634 392.013 309.04 391.69 309.562C388.889 313.588 387.514 318.819 386.428 323.533C386.109 324.919 385.829 326.313 385.588 327.716C385.214 329.201 385.051 330.732 385.105 332.262C385.535 335.643 388.706 336.008 391.445 336.633C396.752 337.984 402.139 339 407.574 339.673C413.254 340.233 418.936 340.296 423.385 336.241C427.178 332.822 430.725 329.139 433.999 325.222C436.279 322.463 432.337 318.479 430.038 321.261C426.903 324.94 423.557 328.433 420.016 331.722C417.71 333.932 415.45 334.367 412.298 334.332C409.469 334.3 406.647 334.043 403.859 333.563C401.039 333.08 398.248 332.454 395.455 331.813C394.615 331.62 393.774 331.424 392.934 331.232C392.406 331.111 391.151 330.569 390.638 330.716C390.1 330.507 390.107 330.728 390.66 331.377C390.711 330.977 390.768 330.578 390.832 330.18C390.965 329.312 391.112 328.445 391.284 327.582C392.265 322.495 393.512 316.72 396.524 312.387L393.36 313.676C395.265 314.162 397.162 314.674 399.049 315.227C400.784 315.933 402.588 316.459 404.43 316.797C405.407 316.846 406.379 316.617 407.23 316.134C408.082 315.652 408.778 314.937 409.238 314.073C410.381 312.33 411.503 310.587 412.765 308.926C414.996 305.985 417.51 303.278 420.002 300.567C422.629 297.362 425.655 294.505 429.006 292.066C432.021 290.105 429.217 285.261 426.18 287.229H426.184Z" fill="#211715"/>
<path d="M417.107 334.835C415.363 339.786 412.511 345.259 413.045 350.638C413.681 357.008 419.24 360.16 424.75 362.097C433.923 365.317 443.747 364.392 452.988 362.071C456.49 361.193 455.002 355.791 451.498 356.67C443.935 358.571 436.176 359.463 428.514 357.398C424.64 356.354 418.57 354.398 418.593 349.534C418.619 345.053 421.037 340.494 422.505 336.323C423.703 332.916 418.293 331.452 417.102 334.835H417.107Z" fill="#211715"/>
<path d="M395.099 312.696C394.186 308.572 389.65 304.607 385.313 304.952C383.242 305.115 381.832 306.295 380.028 307.119C380.588 306.862 379.529 307.237 379.865 307.163C379.271 307.294 378.647 307.321 378.044 307.443C376.94 307.683 375.867 308.049 374.846 308.532C372.91 309.354 371.227 310.672 369.965 312.352C368.853 314.061 368.204 316.029 368.084 318.063C367.663 322.193 368.487 327.001 371.474 330.06C374.976 333.649 380.334 333.783 385.024 333.528C385.761 333.512 386.465 333.212 386.987 332.69C387.508 332.168 387.809 331.465 387.825 330.728C387.818 329.987 387.521 329.278 386.997 328.755C386.473 328.231 385.764 327.934 385.024 327.927C383.154 328.058 381.277 328.03 379.413 327.842C378.291 327.738 377.208 327.378 376.248 326.79C375.409 326.188 374.747 325.374 374.33 324.43C373.843 323.028 373.603 321.551 373.621 320.067C373.599 319.366 373.624 318.664 373.696 317.966C373.808 317.419 373.948 316.877 374.116 316.343C374.009 316.604 374.256 316.075 374.277 316.026C374.346 315.901 374.417 315.775 374.487 315.654C374.557 315.534 374.638 315.414 374.721 315.3C375.001 314.926 374.494 315.544 374.816 315.206C375.233 314.751 375.731 314.376 376.284 314.101C377.496 313.377 378.843 312.907 380.242 312.719C381.71 312.449 383.112 311.897 384.37 311.092C384.646 310.921 384.933 310.766 385.228 310.629C384.75 310.833 385.972 310.466 385.456 310.538C386.066 310.474 386.677 310.642 387.169 311.007C387.784 311.337 388.325 311.789 388.759 312.336C389.192 312.883 389.509 313.513 389.69 314.187C389.788 314.542 389.955 314.873 390.181 315.164C390.407 315.454 390.688 315.697 391.008 315.878C391.328 316.06 391.68 316.177 392.045 316.222C392.411 316.268 392.781 316.241 393.136 316.143C393.49 316.045 393.822 315.879 394.113 315.653C394.403 315.427 394.646 315.146 394.828 314.826C395.009 314.506 395.126 314.153 395.172 313.788C395.217 313.423 395.19 313.053 395.092 312.698L395.099 312.696Z" fill="#211715"/>
<path d="M428.575 306.432C428.717 306.74 428.858 307.05 428.995 307.362L428.715 306.692C429.251 307.991 429.702 309.325 430.063 310.683C430.267 311.383 430.726 311.981 431.351 312.357C431.991 312.729 432.753 312.832 433.47 312.643C434.187 312.455 434.799 311.99 435.174 311.351C435.542 310.695 435.643 309.922 435.454 309.193C434.93 307.277 434.247 305.407 433.411 303.604C433.041 302.975 432.441 302.513 431.737 302.318C431.008 302.123 430.232 302.224 429.577 302.598C428.948 302.968 428.487 303.568 428.29 304.271L428.191 305.015C428.19 305.512 428.322 306 428.573 306.429L428.575 306.432Z" fill="#211715"/>
<path d="M411.755 258.521C410.265 264.547 410.934 270.904 413.646 276.488C414.878 278.937 416.651 281.074 418.831 282.737C421.011 284.399 423.541 285.543 426.229 286.083C426.945 286.259 427.701 286.154 428.342 285.789C428.983 285.424 429.459 284.828 429.674 284.123C429.865 283.406 429.767 282.643 429.4 281.999C429.033 281.354 428.427 280.88 427.713 280.678C418.203 279.059 415.313 268.278 417.153 260.005C417.334 259.289 417.231 258.53 416.865 257.888C416.5 257.246 415.9 256.77 415.192 256.56C414.475 256.371 413.713 256.47 413.069 256.837C412.425 257.203 411.95 257.808 411.747 258.521H411.755Z" fill="#211715"/>
<path d="M468.351 259.879C467.991 256.327 466.908 252.887 465.169 249.769C463.431 246.651 461.073 243.921 458.24 241.747C453.241 238.215 447.305 236.247 441.185 236.091C435.065 235.936 429.037 237.6 423.864 240.874C417.612 245.154 413.236 251.665 411.635 259.07C411.528 259.485 411.518 259.919 411.603 260.339C411.689 260.759 411.868 261.155 412.128 261.496C412.388 261.837 412.721 262.115 413.104 262.308C413.486 262.502 413.908 262.607 414.336 262.615C415.919 262.688 417.467 263.104 418.873 263.834C420.28 264.564 421.51 265.59 422.481 266.843C424.743 269.784 425.013 273.601 424.803 277.175C424.687 279.135 424.412 281.074 424.139 283.014C423.609 285.131 423.631 287.349 424.203 289.455C425.314 292.375 428.645 293.619 431.377 294.616C437.395 296.615 443.855 296.881 450.017 295.383C456.747 293.896 465.284 290.563 468.047 283.666C469.146 280.557 469.615 277.26 469.425 273.968C469.352 269.258 468.865 264.553 468.351 259.875C468.33 259.139 468.028 258.438 467.508 257.917C466.987 257.397 466.286 257.095 465.55 257.074C464.808 257.079 464.099 257.375 463.574 257.9C463.05 258.424 462.754 259.133 462.749 259.875C463.183 263.86 463.589 267.857 463.759 271.863C463.992 274.507 463.871 277.17 463.399 279.782C463.065 281.177 462.428 282.483 461.535 283.605C460.641 284.728 459.512 285.641 458.226 286.28C455.13 288.08 451.756 289.352 448.242 290.045C442.932 291.277 437.376 290.909 432.275 288.988C431.344 288.691 430.461 288.258 429.656 287.704C428.803 286.775 429.555 284.455 429.715 283.309C430.42 279.483 430.589 275.577 430.216 271.703C429.739 267.771 427.882 264.136 424.974 261.445C422.067 258.754 418.299 257.182 414.34 257.01L417.041 260.555C418.124 255.17 421.063 250.336 425.345 246.894C429.627 243.453 434.981 241.622 440.474 241.722C448.936 241.83 457.055 245.715 460.838 253.463C461.435 254.723 461.907 256.039 462.249 257.391C462.392 257.939 462.515 258.493 462.619 259.051C462.668 259.312 462.704 259.574 462.75 259.834C462.865 260.471 462.675 259.184 462.75 259.875C462.772 260.611 463.074 261.311 463.594 261.831C464.115 262.352 464.815 262.654 465.551 262.675C466.292 262.671 467.001 262.375 467.525 261.851C468.049 261.328 468.346 260.619 468.351 259.879Z" fill="#211715"/>
<path d="M409.943 377.572V391.478C409.944 391.967 410.073 392.447 410.316 392.871C410.559 393.295 410.908 393.649 411.329 393.897C421.955 400.025 432.588 406.14 443.228 412.241C445.609 413.616 447.922 415.237 450.722 415.564C454.453 415.998 457.245 414.286 460.326 412.507L478.857 401.807L489.48 395.672C491.328 394.793 493.017 393.613 494.478 392.18C496.036 390.359 496.908 388.051 496.943 385.654C497.07 382.05 491.468 382.054 491.34 385.654C491.225 388.949 487.954 390.085 485.49 391.508L476.482 396.709L458.54 407.071C456.413 408.299 454.071 410.271 451.491 410.041C449.474 409.861 447.473 408.221 445.749 407.241C440.491 404.213 435.232 401.189 429.971 398.168C424.71 395.147 419.437 392.113 414.151 389.066L415.539 391.484V377.577C415.539 373.973 409.937 373.967 409.937 377.577L409.943 377.572Z" fill="#211715"/>
<path d="M455.441 412.488V350.411C455.441 348.59 455.09 346.32 456.128 344.73C457.09 343.587 458.301 342.68 459.668 342.077C461.113 341.219 462.56 340.364 464.009 339.512C470.574 335.653 477.163 331.834 483.776 328.057C485.255 327.217 486.735 326.377 488.216 325.537C488.613 325.313 492.01 323.792 492.014 323.409C492.014 323.725 491.314 323.289 491.374 323.269C491.038 323.36 491.539 322.893 491.316 323.253C491.176 323.468 491.316 324.217 491.316 324.478C491.316 325.411 491.316 326.342 491.316 327.27C491.316 332.756 491.316 338.242 491.316 343.728C491.322 357.704 491.327 371.679 491.33 385.654C491.33 389.259 496.933 389.265 496.933 385.654C496.933 372.573 496.928 359.491 496.919 346.41C496.919 340.422 496.919 334.434 496.919 328.445C497.047 326.384 497.017 324.315 496.829 322.258C496.671 321.252 496.22 320.315 495.532 319.563C494.845 318.812 493.951 318.28 492.962 318.034C490.92 317.563 489.266 318.519 487.552 319.479C480.93 323.185 474.358 326.983 467.803 330.802C464.52 332.714 461.241 334.636 457.967 336.57C454.652 338.53 451.359 340.383 450.218 344.354C449.793 346.513 449.666 348.72 449.84 350.914V412.485C449.84 416.088 455.442 416.095 455.442 412.485L455.441 412.488Z" fill="#211715"/>
<path d="M454.05 395.077C467.801 386.936 481.627 378.922 495.529 371.036C498.667 369.258 495.846 364.417 492.702 366.2C478.799 374.078 464.973 382.092 451.222 390.241C448.123 392.075 450.942 396.92 454.05 395.077Z" fill="#211715"/>
<path d="M384.239 450.422C384.239 462.028 384.243 473.636 384.25 485.244C384.25 488.848 389.853 488.854 389.853 485.244C389.853 473.637 389.849 462.029 389.842 450.422C389.842 446.817 384.239 446.81 384.239 450.422Z" fill="#211715"/>
<path d="M342.566 475.44V509.295C342.566 512.899 348.169 512.905 348.169 509.295V475.44C348.169 471.836 342.566 471.83 342.566 475.44Z" fill="#211715"/>
<path d="M286.364 425.953C284.823 430.098 285.243 434.364 285.51 438.688C285.79 443.252 286.169 447.81 286.613 452.36C286.784 454.109 286.997 455.86 287.173 457.604C287.184 459.296 287.535 460.969 288.207 462.522C288.868 463.678 289.693 464.733 290.657 465.653C294.455 469.434 299.34 470.274 304.398 471.088C305.114 471.262 305.87 471.156 306.51 470.792C307.151 470.427 307.628 469.832 307.845 469.127C308.036 468.41 307.937 467.647 307.57 467.003C307.203 466.358 306.598 465.883 305.884 465.681C301.654 465 297.312 464.59 294.22 461.277C292.773 459.727 292.819 458.098 292.598 456.096C292.396 454.284 292.217 452.467 292.049 450.651C291.664 446.522 291.326 442.389 291.081 438.246C290.861 434.55 290.442 430.964 291.762 427.439C293.022 424.057 287.61 422.597 286.358 425.949L286.364 425.953Z" fill="#211715"/>
<path d="M302.693 439.458C309.747 443.702 317.278 447.096 325.129 449.571C332.023 451.532 341.744 452.55 347.069 446.505C349.45 443.809 345.498 439.834 343.108 442.545C341.113 444.81 337.715 445.457 334.82 445.499C331.437 445.423 328.088 444.8 324.904 443.656C318.144 441.333 311.647 438.304 305.521 434.621C302.378 432.847 299.55 437.684 302.693 439.458Z" fill="#211715"/>
<path d="M306.157 476.591C304.521 479.711 300.854 480.455 297.636 479.711C293.649 478.68 289.83 477.088 286.291 474.982C283.652 473.471 279.514 471.006 280.203 467.458C280.983 463.44 286.123 463.844 289.187 464.087C289.928 464.081 290.637 463.784 291.161 463.26C291.685 462.736 291.982 462.028 291.989 461.287C291.974 460.548 291.675 459.844 291.152 459.322C290.63 458.8 289.926 458.5 289.187 458.486C283.686 458.049 277.089 458.986 275.056 465.034C274.573 466.368 274.393 467.792 274.529 469.204C274.665 470.615 275.112 471.979 275.84 473.197C277.412 475.419 279.412 477.305 281.722 478.745C283.961 480.179 286.327 481.404 288.791 482.402C291.481 483.706 294.315 484.688 297.235 485.328C302.518 486.23 308.382 484.402 310.996 479.418C312.668 476.228 307.835 473.397 306.158 476.591H306.157Z" fill="#211715"/>
<path d="M369.767 376.865C369.647 376.937 369.523 377.005 369.403 377.075C368.92 377.346 368.532 377.759 368.293 378.259C368.054 378.758 367.974 379.319 368.065 379.865C368.081 380.236 368.196 380.595 368.397 380.906L368.836 381.473C369.178 381.816 369.604 382.065 370.071 382.194L370.816 382.294C371.313 382.295 371.801 382.163 372.229 381.911C372.351 381.841 372.474 381.771 372.593 381.701C373.076 381.43 373.464 381.017 373.703 380.517C373.943 380.018 374.022 379.457 373.931 378.91C373.915 378.54 373.8 378.181 373.599 377.87L373.161 377.31C372.818 376.967 372.392 376.719 371.925 376.589L371.18 376.489C370.683 376.488 370.196 376.62 369.767 376.872V376.865Z" fill="#211715"/>
<path d="M192.594 372.811V452.729C192.594 456.334 198.196 456.339 198.196 452.729V372.811C198.196 369.206 192.594 369.201 192.594 372.811Z" fill="#211715"/>
<path d="M373.983 390.948V353.517C373.983 349.912 368.38 349.907 368.38 353.517V390.948C368.38 394.552 373.983 394.558 373.983 390.948Z" fill="#211715"/>
<path d="M265.794 414.151V494.064C265.794 497.669 271.396 497.675 271.396 494.064V414.151C271.396 410.548 265.794 410.541 265.794 414.151Z" fill="#211715"/>
<path d="M310.549 312.275C307.996 310.805 305.465 309.091 302.793 307.849C300.592 306.827 298.683 307.63 296.76 308.744L290.277 312.491L270.471 323.932C253.898 333.504 237.324 343.073 220.751 352.639L201.003 364.042L197.48 366.076C196.063 366.713 194.774 367.603 193.676 368.702C193.229 369.284 192.912 369.956 192.748 370.672C192.584 371.387 192.577 372.13 192.727 372.849C192.877 373.568 193.18 374.246 193.617 374.836C194.053 375.427 194.612 375.916 195.255 376.271C196.358 376.961 197.515 377.577 198.641 378.231L245.048 405.048L263.184 415.526C264.271 416.278 265.483 416.832 266.763 417.162C268.907 417.542 270.684 416.207 272.441 415.19C277.175 412.454 281.91 409.719 286.647 406.986L296.262 401.439C299.385 399.638 296.567 394.796 293.435 396.602C287.699 399.91 281.963 403.219 276.229 406.531L270.169 410.032L268.273 411.128C267.99 411.249 267.722 411.404 267.476 411.589C267.09 411.998 267.714 411.701 267.616 411.617C266.848 411.073 266.032 410.601 265.177 410.208L261.932 408.333L252.921 403.126L207.003 376.593L199.068 372.008C198.826 371.868 198.587 371.713 198.339 371.588C198.277 371.556 198.147 371.44 198.078 371.437C197.475 371.416 198.228 371.319 198.078 371.496C198.242 371.308 198.122 372.214 198.078 372.15C198.301 372.483 197.658 372.207 198.078 372.222C198.273 372.231 198.716 371.854 198.891 371.753L201.998 369.958L219.812 359.671L267.121 332.353L287.909 320.347L295.682 315.856L298.675 314.125L299.882 313.425C300.071 313.336 300.252 313.231 300.424 313.113C300.505 313.058 300.59 313.011 300.679 312.973C301.036 312.803 300.19 312.763 300.553 312.973C302.934 314.373 305.335 315.747 307.731 317.126C310.86 318.928 313.685 314.09 310.557 312.289L310.549 312.275Z" fill="#211715"/>
<path d="M351.253 342.268C356.12 345.085 360.99 347.899 365.861 350.708L368.477 352.22L369.652 352.899C369.845 353.01 370.042 353.115 370.231 353.232L370.05 353.071C370.271 353.301 370.268 353.286 370.039 353.024C369.932 352.714 369.909 352.657 369.969 352.854C370.028 353.051 370.025 352.98 369.959 352.639C369.916 353.258 370.154 352.207 369.935 352.742C369.969 352.554 370.068 352.383 370.215 352.261C370.02 352.447 369.996 352.474 370.144 352.34C370.308 352.209 370.26 352.226 370.004 352.394C369.848 352.482 369.694 352.572 369.542 352.661C368.367 353.339 367.193 354.018 366.019 354.697C365.701 354.883 365.423 355.129 365.201 355.422C364.979 355.715 364.816 356.049 364.723 356.405C364.534 357.123 364.639 357.887 365.013 358.529C365.388 359.17 366.003 359.636 366.721 359.825C367.44 360.013 368.204 359.909 368.845 359.534C371.54 357.975 375.515 356.532 375.568 352.854C375.575 351.958 375.348 351.074 374.909 350.292C374.47 349.51 373.834 348.856 373.064 348.396C372.205 347.855 371.301 347.376 370.423 346.869C364.975 343.724 359.53 340.578 354.086 337.431C350.96 335.622 348.136 340.46 351.26 342.268H351.253Z" fill="#211715"/>
<path d="M297.973 379.787C298.51 379.785 299.036 379.633 299.493 379.35L299.675 379.242L300.029 379.034C300.272 378.894 300.514 378.754 300.759 378.614C301.242 378.342 301.629 377.929 301.869 377.429C302.108 376.93 302.188 376.369 302.097 375.823C302.081 375.453 301.966 375.093 301.765 374.782L301.326 374.222C300.984 373.879 300.558 373.631 300.091 373.501L299.346 373.402C298.849 373.401 298.361 373.533 297.933 373.784C297.473 374.035 297.024 374.301 296.574 374.568L297.987 374.186H297.973C297.598 374.169 297.226 374.252 296.893 374.427C296.555 374.553 296.248 374.751 295.993 375.006C295.738 375.262 295.54 375.569 295.413 375.907C295.239 376.239 295.156 376.612 295.172 376.986L295.272 377.731C295.401 378.199 295.649 378.624 295.993 378.966L296.56 379.405C296.989 379.656 297.477 379.788 297.973 379.787Z" fill="#211715"/>
<path d="M265.844 375.464C260.988 372.673 256.067 369.969 251.278 367.062V371.899C263.64 364.746 276.009 357.604 288.385 350.474L295.41 346.413H292.584C299.751 350.656 307.01 354.752 314.223 358.918C317.35 360.724 320.174 355.886 317.049 354.081C309.838 349.915 302.578 345.819 295.41 341.576C294.981 341.328 294.493 341.197 293.997 341.197C293.501 341.197 293.013 341.328 292.584 341.576C280.051 348.814 267.518 356.049 254.984 363.281C252.806 364.539 250.628 365.799 248.452 367.062C248.036 367.314 247.692 367.669 247.454 368.093C247.215 368.517 247.09 368.995 247.09 369.481C247.09 369.967 247.215 370.445 247.454 370.868C247.692 371.292 248.036 371.647 248.452 371.899C253.239 374.806 258.16 377.51 263.018 380.301C266.148 382.1 268.973 377.262 265.844 375.464Z" fill="#211715"/>
<path d="M302.835 454.503C302.835 464.75 302.842 474.997 302.857 485.244C302.857 488.848 308.459 488.854 308.459 485.244C308.459 474.997 308.452 464.75 308.437 454.503C308.437 450.899 302.835 450.893 302.835 454.503Z" fill="#211715"/>
<path d="M323.016 343.416C320.974 343.185 319 342.543 317.213 341.527C315.427 340.512 313.865 339.144 312.622 337.508C310.512 334.097 309.429 330.15 309.501 326.14C309.443 322.024 310.459 317.963 312.448 314.359C314.438 310.754 317.332 307.73 320.846 305.585C324.144 303.664 327.845 302.543 331.654 302.31C335.463 302.077 339.274 302.739 342.781 304.243C345.647 305.653 348.128 307.736 350.011 310.316C351.894 312.895 353.123 315.893 353.592 319.052C354.279 323.038 354.193 327.119 353.337 331.072C352.427 334.902 350.615 338.46 348.051 341.447C345.788 344.216 349.732 348.201 352.013 345.407C354.872 342.117 357.027 338.276 358.345 334.121C359.536 329.728 359.9 325.152 359.418 320.627C358.597 312.271 354.474 304.375 347.012 300.137C338.781 295.464 328.065 295.722 319.686 299.857C315.137 302.217 311.287 305.73 308.524 310.046C305.76 314.361 304.179 319.327 303.94 324.446C303.524 330.106 304.928 335.751 307.945 340.558C309.724 342.947 311.985 344.935 314.583 346.392C317.18 347.85 320.055 348.744 323.021 349.017C323.763 349.013 324.473 348.717 324.997 348.192C325.521 347.668 325.818 346.958 325.822 346.217C325.806 345.479 325.505 344.777 324.983 344.255C324.462 343.733 323.759 343.433 323.021 343.416H323.016Z" fill="#211715"/>
<path d="M307.59 324.048C309.878 323.932 312.146 324.527 314.083 325.751C316.019 326.975 317.53 328.768 318.406 330.884C320.451 335.623 320.455 341.156 320.214 346.217C320.214 346.96 320.51 347.672 321.035 348.197C321.56 348.722 322.273 349.017 323.016 349.017C323.759 349.017 324.471 348.722 324.996 348.197C325.522 347.672 325.817 346.96 325.817 346.217C326.117 339.894 325.817 333.135 322.92 327.375C321.478 324.584 319.27 322.261 316.555 320.68C313.84 319.098 310.73 318.324 307.59 318.447C306.852 318.462 306.148 318.762 305.626 319.284C305.104 319.806 304.804 320.509 304.789 321.247C304.795 321.988 305.092 322.697 305.616 323.22C306.14 323.744 306.849 324.041 307.59 324.048Z" fill="#211715"/>
<path d="M322.954 384.207C320.873 386.721 318.653 389.116 316.304 391.382C313.581 394.016 311.286 397.084 307.217 397.263C303.118 397.383 299.018 397.027 295.001 396.202C292.885 395.796 290.783 395.32 288.683 394.836C286.471 394.495 284.29 393.976 282.161 393.284L283.396 394.005C283.756 394.341 283.495 394.338 283.645 393.796C283.785 393.292 283.812 392.704 283.902 392.181C284.067 391.212 284.254 390.247 284.462 389.286C284.871 387.373 285.348 385.471 285.906 383.596C286.636 380.675 287.83 377.89 289.442 375.347L286.278 376.635C288.368 377.168 290.451 377.731 292.518 378.346C294.214 378.85 296.2 379.875 297.99 379.787C298.895 379.694 299.762 379.375 300.51 378.858C301.258 378.341 301.864 377.644 302.272 376.831C303.529 374.829 304.888 372.892 306.343 371.028C309.156 367.488 312.287 364.208 315.335 360.874C317.916 357.864 321.052 355.377 324.572 353.55C332.988 349.422 341.978 345.378 351.588 346.33C355.118 346.68 360.191 347.871 362.092 351.212C362.81 352.415 363.444 353.667 363.99 354.958C364.615 356.883 365.062 358.862 365.324 360.87C366.27 365.875 367.103 370.915 367.677 375.978C368.238 380.879 368.418 385.832 368.721 390.752C368.941 394.332 374.544 394.358 374.323 390.752C373.839 381.184 372.81 371.652 371.242 362.202C370.78 358.237 369.742 354.36 368.161 350.695C367.465 349.107 366.55 347.626 365.441 346.294C363.824 344.692 361.88 343.459 359.742 342.678C350.51 338.848 340.134 340.786 331.18 344.424C326.508 346.117 322.041 348.327 317.862 351.014C314.368 353.735 311.179 356.825 308.349 360.23C304.726 364.046 301.408 368.14 298.426 372.475C298.204 372.81 297.986 373.146 297.77 373.484C297.576 373.789 297.385 374.097 297.197 374.407C297.303 374.313 297.43 374.244 297.566 374.205C297.703 374.167 297.846 374.16 297.986 374.186C297.986 374.173 295.592 373.427 295.363 373.354C292.856 372.573 290.321 371.884 287.778 371.232C287.183 371.085 286.555 371.13 285.987 371.362C285.418 371.593 284.938 371.999 284.615 372.521C281.795 376.545 280.448 381.808 279.353 386.524C279.032 387.905 278.752 389.294 278.512 390.691C278.14 392.169 277.979 393.693 278.035 395.216C278.465 398.587 281.645 398.958 284.375 399.582C289.678 400.939 295.064 401.953 300.497 402.618C306.162 403.17 311.881 403.258 316.315 399.193C320.096 395.768 323.636 392.086 326.909 388.174C329.189 385.415 325.247 381.431 322.948 384.214L322.954 384.207Z" fill="#211715"/>
<path d="M310.02 397.787C308.276 402.74 305.424 408.211 305.958 413.591C306.594 419.96 312.153 423.114 317.661 425.05C326.836 428.271 336.66 427.345 345.901 425.025C349.403 424.147 347.915 418.743 344.411 419.624C336.848 421.524 329.089 422.416 321.427 420.351C317.553 419.307 311.483 417.35 311.506 412.486C311.532 408.005 313.95 403.447 315.418 399.276C316.616 395.869 311.206 394.404 310.015 397.787H310.02Z" fill="#211715"/>
<path d="M288.01 375.653C287.088 371.491 282.462 367.468 278.077 367.928C276.975 368.056 275.909 368.399 274.939 368.937C274.613 369.11 274.301 369.304 273.983 369.497C273.829 369.59 273.675 369.684 273.518 369.777C273.434 369.825 272.768 370.15 273.039 370.045C273.345 369.926 272.854 370.094 272.78 370.111C272.256 370.228 273.661 369.995 272.403 370.181C271.805 370.269 271.21 370.35 270.62 370.486C269.525 370.754 268.464 371.142 267.455 371.644C265.577 372.509 263.95 373.837 262.725 375.502C261.5 377.168 260.718 379.117 260.452 381.166C259.834 385.507 260.592 390.221 264.121 393.16C268.032 396.415 273.043 396.759 277.938 396.492C278.676 396.476 279.379 396.175 279.901 395.654C280.423 395.132 280.723 394.429 280.739 393.691C280.732 392.951 280.434 392.242 279.911 391.719C279.387 391.195 278.679 390.898 277.938 390.89C276.069 391.023 274.192 390.995 272.327 390.806C271.756 390.722 271.189 390.605 270.631 390.455C270.109 390.337 269.61 390.135 269.152 389.857C268.051 389.332 267.137 388.483 266.532 387.425C265.998 386.175 265.765 384.818 265.852 383.462C265.841 382.86 265.895 382.26 266.013 381.671C266.153 381.032 266.344 380.406 266.585 379.798C267.049 378.723 267.854 377.829 268.876 377.255C270.172 376.429 271.63 375.892 273.152 375.681C274.579 375.43 275.943 374.9 277.165 374.121C277.48 373.923 277.808 373.745 278.145 373.588C277.673 373.791 278.893 373.431 278.374 373.497C278.925 373.425 279.483 373.563 279.937 373.883C280.586 374.21 281.16 374.669 281.621 375.231C282.082 375.794 282.419 376.446 282.612 377.147C282.71 377.502 282.876 377.834 283.102 378.124C283.329 378.414 283.61 378.657 283.93 378.839C284.25 379.02 284.602 379.137 284.967 379.183C285.333 379.228 285.703 379.201 286.058 379.103C286.413 379.005 286.745 378.838 287.035 378.612C287.325 378.386 287.568 378.105 287.75 377.785C287.931 377.465 288.048 377.113 288.093 376.748C288.139 376.383 288.112 376.012 288.014 375.657L288.01 375.653Z" fill="#211715"/>
<path d="M321.485 369.384C321.628 369.692 321.765 370.002 321.897 370.314L321.617 369.644C322.152 370.944 322.602 372.277 322.965 373.635C323.168 374.335 323.628 374.933 324.252 375.309C324.894 375.684 325.658 375.789 326.376 375.6C327.095 375.412 327.709 374.946 328.084 374.305C328.453 373.649 328.553 372.875 328.365 372.147C327.84 370.23 327.157 368.361 326.321 366.558C325.95 365.926 325.347 365.464 324.64 365.27C323.912 365.076 323.137 365.177 322.482 365.55C321.853 365.92 321.392 366.52 321.195 367.223L321.095 367.968C321.094 368.465 321.226 368.953 321.478 369.381L321.485 369.384Z" fill="#211715"/>
<path d="M302.853 440.525V454.432C302.854 454.921 302.983 455.4 303.226 455.824C303.469 456.248 303.819 456.601 304.239 456.849C314.865 462.977 325.498 469.092 336.138 475.194C338.526 476.567 340.832 478.189 343.632 478.515C347.363 478.951 350.155 477.238 353.236 475.458L371.767 464.758L382.39 458.625C384.237 457.744 385.925 456.564 387.386 455.132C388.945 453.311 389.817 451.003 389.853 448.607C389.98 445.001 384.378 445.006 384.25 448.607C384.134 451.902 380.864 453.036 378.4 454.46L369.392 459.661L351.45 470.023C349.323 471.252 346.981 473.222 344.401 472.992C342.384 472.813 340.383 471.172 338.659 470.191C333.401 467.164 328.142 464.139 322.881 461.117C317.621 458.095 312.345 455.061 307.055 452.015L308.443 454.433V440.527C308.443 436.922 302.84 436.917 302.84 440.527L302.853 440.525Z" fill="#211715"/>
<path d="M348.351 475.44V413.363C348.351 411.543 348.001 409.274 349.037 407.682C350 406.54 351.211 405.633 352.578 405.03C354.023 404.173 355.47 403.318 356.92 402.466C363.485 398.606 370.073 394.787 376.686 391.009C378.165 390.169 379.645 389.329 381.126 388.489C381.524 388.263 384.92 386.744 384.924 386.36C384.924 386.677 384.224 386.24 384.283 386.22C383.948 386.311 384.449 385.844 384.227 386.202C384.087 386.419 384.227 387.167 384.227 387.427C384.227 388.361 384.227 389.292 384.227 390.22C384.227 395.706 384.227 401.193 384.227 406.679C384.233 420.655 384.238 434.63 384.242 448.605C384.242 452.21 389.844 452.215 389.844 448.605C389.844 435.523 389.84 422.442 389.83 409.361C389.83 403.371 389.83 397.382 389.83 391.394C389.958 389.333 389.928 387.266 389.741 385.209C389.583 384.203 389.132 383.265 388.444 382.514C387.756 381.763 386.862 381.231 385.874 380.984C383.832 380.512 382.176 381.469 380.463 382.428C373.841 386.136 367.27 389.934 360.715 393.751C357.43 395.664 354.152 397.587 350.879 399.521C347.564 401.481 344.271 403.332 343.128 407.305C342.704 409.464 342.578 411.67 342.751 413.863V475.434C342.751 479.039 348.354 479.044 348.354 475.434L348.351 475.44Z" fill="#211715"/>
<path d="M346.96 458.03C360.711 449.888 374.537 441.874 388.44 433.989C391.575 432.212 388.756 427.371 385.612 429.152C371.71 437.028 357.885 445.042 344.136 453.193C341.037 455.029 343.856 459.872 346.964 458.03H346.96Z" fill="#211715"/>
<path d="M302.504 235.302C300.623 237.003 298.723 238.676 296.902 240.451C294.686 242.347 292.971 244.759 291.907 247.475C291.242 249.322 291.132 251.324 291.59 253.233C292.049 255.142 293.056 256.875 294.487 258.22C296.075 259.484 297.912 260.399 299.878 260.904C301.844 261.41 303.894 261.494 305.895 261.152C310.453 260.598 314.918 259.444 319.174 257.72C319.879 257.504 320.475 257.027 320.839 256.387C321.204 255.746 321.31 254.991 321.135 254.275C320.934 253.561 320.459 252.954 319.815 252.587C319.17 252.22 318.406 252.122 317.689 252.314C313.724 254.007 309.535 255.12 305.252 255.616C302.231 255.884 297.679 255.528 297.001 251.912C296.789 250.407 297.129 248.876 297.958 247.601C298.034 247.482 298.562 246.808 298.126 247.339C298.28 247.151 298.434 246.965 298.592 246.779C299.08 246.219 299.592 245.681 300.113 245.153C302.146 243.094 304.324 241.193 306.468 239.253C306.993 238.728 307.288 238.016 307.288 237.273C307.288 236.53 306.993 235.818 306.467 235.292C305.942 234.767 305.229 234.472 304.486 234.473C303.743 234.473 303.031 234.768 302.506 235.293L302.504 235.302Z" fill="#211715"/>
<path d="M322.913 244.724C318.663 247.608 315.702 252.026 316.074 257.328C316.333 259.734 317.364 261.992 319.014 263.764C320.663 265.535 322.842 266.725 325.224 267.155C330.967 268.366 336.989 266.892 342.407 264.983C347.622 263.146 352.398 261.163 354.592 255.682C356.406 251.155 355.46 243.537 350.634 241.075C347.428 239.44 344.59 244.271 347.806 245.911C349.075 246.559 349.603 248.504 349.802 249.806C349.957 250.879 349.888 251.972 349.598 253.016C349.309 254.061 348.806 255.034 348.121 255.874C346.61 257.349 344.741 258.404 342.698 258.937C340.044 259.971 337.317 260.809 334.54 261.445C330.773 262.234 324.941 262.845 322.377 259.183C320.028 255.829 322.937 251.469 325.738 249.567C328.705 247.553 325.905 242.698 322.911 244.73L322.913 244.724Z" fill="#211715"/>
<path d="M321.077 174.678C321.077 191.718 321.116 208.759 321.195 225.8C321.226 230.833 321.27 235.866 321.327 240.899C321.37 244.5 326.972 244.51 326.929 240.899C326.708 222.528 326.694 204.154 326.682 185.781C326.682 182.08 326.682 178.379 326.682 174.678C326.682 171.075 321.08 171.068 321.08 174.678H321.077Z" fill="#211715"/>
<path d="M296.926 171.567C297.161 182.901 297.64 194.231 298.118 205.557C298.372 211.578 298.639 217.599 298.92 223.621C299.038 226.131 299.159 228.64 299.284 231.15C299.198 233.312 299.332 235.477 299.683 237.612C300.189 239.449 302.765 240.427 304.375 241.018C306.118 241.606 307.926 241.979 309.759 242.13C314.096 242.461 318.458 242.246 322.741 241.491C323.456 241.29 324.062 240.816 324.429 240.171C324.797 239.526 324.894 238.762 324.702 238.045C324.49 237.338 324.013 236.74 323.372 236.375C322.73 236.01 321.973 235.906 321.257 236.084C315.843 236.873 308.559 237.838 303.804 234.445L305.192 236.863C304.232 219.478 303.511 202.073 302.915 184.671C302.765 180.305 302.625 175.937 302.534 171.568C302.458 167.969 296.856 167.957 296.931 171.568L296.926 171.567Z" fill="#211715"/>
<path d="M325.465 244.779C329.457 246.795 333.87 247.837 338.342 247.821C342.269 247.982 346.199 247.605 350.023 246.7C351.61 246.266 353.921 245.64 354.807 244.125C355.491 242.956 355.209 241.036 355.221 239.71C355.246 236.887 355.261 234.064 355.265 231.242C355.295 217.33 355.195 203.414 354.89 189.512C354.75 182.953 354.572 176.389 354.19 169.839C353.983 166.255 348.379 166.231 348.587 169.839C349.722 189.462 349.677 209.188 349.662 228.84C349.662 233.466 349.636 238.092 349.583 242.718L350.97 240.299C347.974 242.174 343.847 242.09 340.435 242.204C336.259 242.522 332.073 241.746 328.289 239.952C325.094 238.291 322.258 243.124 325.461 244.789L325.465 244.779Z" fill="#211715"/>
<path d="M345.817 87.8922C348.861 87.9701 351.879 87.3241 354.624 86.0074C357.308 84.5599 359.361 82.1699 360.386 79.2983C360.874 77.8702 361.049 76.354 360.9 74.8522C360.751 73.3504 360.281 71.8982 359.522 70.5938C358.799 69.4068 357.833 68.3865 356.687 67.6005C355.541 66.8145 354.241 66.2807 352.873 66.0343C352.157 65.8369 351.391 65.9322 350.745 66.299C350.099 66.6659 349.625 67.2744 349.428 67.9906C349.23 68.7068 349.326 69.4722 349.693 70.1182C350.059 70.7642 350.668 71.2381 351.384 71.4354C351.928 71.5433 352.443 71.6889 352.974 71.8443C353.505 71.9998 352.525 71.5643 353.011 71.8653C353.162 71.9578 353.327 72.0544 353.483 72.1454C353.935 72.3933 353.074 71.7379 353.581 72.2168C353.753 72.3807 353.932 72.5361 354.102 72.7055C354.271 72.875 354.421 73.0416 354.574 73.2181C354.184 72.77 354.634 73.3427 354.684 73.4267C354.809 73.6312 354.915 73.8468 355.02 74.0583C354.747 73.4981 355.079 74.2641 355.12 74.4C355.2 74.6716 355.26 74.9461 355.316 75.2234C355.209 74.736 355.316 75.2066 355.328 75.4432C355.341 75.6799 355.345 75.9305 355.337 76.1742C355.337 76.3366 355.321 76.4991 355.306 76.6615C355.354 76.3609 355.36 76.3142 355.324 76.5215C355.219 77.0404 355.076 77.551 354.897 78.0492C355.11 77.4891 354.798 78.2159 354.764 78.2789C354.648 78.496 354.522 78.7088 354.387 78.9146C354.298 79.0547 354.205 79.1947 354.107 79.3207C354.272 79.1121 354.291 79.0855 354.166 79.2381C353.969 79.4468 353.789 79.6694 353.585 79.8725C353.41 80.0475 353.226 80.2072 353.044 80.3738C352.576 80.7939 353.324 80.2226 352.835 80.5376C352.359 80.8491 351.867 81.1356 351.361 81.396C350.887 81.6383 351.641 81.3204 351.043 81.5291C350.8 81.6159 350.56 81.7027 350.314 81.7783C349.777 81.9376 349.23 82.0629 348.677 82.1536C349.179 82.0654 348.716 82.1466 348.474 82.169C348.232 82.1914 347.98 82.2096 347.732 82.225C347.094 82.2629 346.454 82.2797 345.816 82.2979C345.073 82.2979 344.36 82.5929 343.835 83.1182C343.31 83.6434 343.015 84.3558 343.015 85.0985C343.015 85.8413 343.31 86.5537 343.835 87.0789C344.36 87.6041 345.073 87.8992 345.816 87.8992L345.817 87.8922Z" fill="#211715"/>
<path d="M244.226 50.0761C249.495 61.5028 254.44 73.0678 259.061 84.7709C259.276 85.4757 259.753 86.0714 260.394 86.436C261.034 86.8005 261.79 86.9062 262.506 86.7313C263.221 86.5304 263.827 86.0562 264.194 85.4114C264.561 84.7666 264.659 84.0031 264.467 83.2865C259.672 71.1344 254.536 59.1232 249.061 47.253C248.682 46.616 248.068 46.1537 247.351 45.9658C246.634 45.7779 245.871 45.8797 245.229 46.249C244.6 46.6352 244.144 47.2492 243.957 47.9629C243.77 48.6766 243.865 49.4351 244.223 50.0803L244.226 50.0761Z" fill="#211715"/>
<path d="M340.642 94.3282C352.228 98.4914 357.921 110.471 360.23 121.741C361.394 127.613 361.141 133.678 359.491 139.433C357.841 145.187 354.842 150.465 350.743 154.828C346.375 159.431 340.927 162.871 334.893 164.837C331.477 165.943 332.932 171.354 336.381 170.239C346.161 167.167 354.523 160.708 359.966 152.024C365.408 143.339 367.574 132.998 366.074 122.86C365.164 115.897 362.836 109.195 359.233 103.167C355.268 96.6556 349.252 91.6448 342.131 88.9215C338.733 87.699 337.269 93.1099 340.642 94.3226V94.3282Z" fill="#211715"/>
<path d="M337.748 128.285C337.513 129.586 337.137 130.857 336.628 132.077L336.908 131.408C336.303 132.828 335.519 134.165 334.576 135.387C334.388 135.71 334.266 136.068 334.218 136.438C334.17 136.809 334.196 137.185 334.296 137.545C334.494 138.249 334.955 138.851 335.583 139.226C335.906 139.413 336.264 139.534 336.634 139.582C337.005 139.63 337.381 139.604 337.741 139.506L338.411 139.226C338.827 138.982 339.173 138.636 339.416 138.22C341.313 135.742 342.596 132.85 343.157 129.781C343.336 129.051 343.236 128.282 342.877 127.623C342.502 126.981 341.888 126.515 341.169 126.327C340.451 126.139 339.687 126.244 339.045 126.619C338.731 126.798 338.455 127.039 338.234 127.326C338.013 127.613 337.851 127.942 337.758 128.292L337.748 128.285Z" fill="#211715"/>
<path d="M305.496 88.4692C298.553 92.6394 291.371 97.0112 286.183 103.359H290.144C287.099 100.306 284.183 97.1316 281.334 93.8955C280.895 93.4599 280.325 93.181 279.711 93.1018C279.098 93.0226 278.475 93.1475 277.939 93.4572L263.279 102.958C262.649 103.344 262.192 103.958 262.005 104.672C261.818 105.387 261.915 106.146 262.275 106.791C266.4 113.857 270.885 120.732 275.666 127.376C278.799 131.731 284.676 138.509 290.501 134.085C291.125 133.695 291.577 133.081 291.764 132.369C291.95 131.657 291.859 130.9 291.507 130.254C291.128 129.616 290.514 129.153 289.796 128.965C289.079 128.776 288.316 128.878 287.673 129.248C287.348 129.543 286.96 129.76 286.539 129.883C286.721 129.848 286.04 129.811 286.052 129.814C285.233 129.524 284.488 129.057 283.871 128.446C282.091 126.715 280.525 124.778 279.204 122.677C275.037 116.515 270.868 110.4 267.113 103.967L266.107 107.798L280.767 98.2967L277.374 97.8584C280.221 101.095 283.138 104.271 286.183 107.322C286.711 107.843 287.422 108.135 288.164 108.135C288.905 108.135 289.617 107.843 290.144 107.322C295.056 101.317 301.752 97.2563 308.324 93.3087C311.405 91.4547 308.597 86.6095 305.496 88.472V88.4692Z" fill="#211715"/>
<path d="M280.69 94.7189C280.946 92.7482 280.807 90.7463 280.281 88.83C279.754 86.9138 278.851 85.1216 277.624 83.5582C274.745 80.1203 270.113 79.374 265.906 80.168C257.522 81.7503 251.489 90.6999 254.711 98.9745C256.421 103.369 261.294 108.609 266.544 106.881C267.253 106.671 267.852 106.195 268.218 105.553C268.583 104.911 268.686 104.152 268.505 103.436C268.302 102.723 267.827 102.119 267.183 101.752C266.539 101.385 265.776 101.286 265.06 101.475C264.875 101.558 264.673 101.597 264.471 101.59C264.268 101.582 264.07 101.528 263.892 101.432C263.322 101.185 262.794 100.851 262.326 100.443C261.327 99.5852 260.543 98.5052 260.037 97.2899C259.563 96.1392 259.364 94.8938 259.455 93.6526C259.546 92.4114 259.926 91.2086 260.564 90.1398C261.202 89.0511 262.055 88.103 263.07 87.3529C264.085 86.6027 265.242 86.0659 266.47 85.7749C267.657 85.4621 268.891 85.3672 270.112 85.4948C270.462 85.5548 270.809 85.6366 271.149 85.7399C271.289 85.7833 271.438 85.8309 271.579 85.8799C272.037 86.048 271.299 85.7315 271.74 85.9514C272.273 86.1784 272.75 86.5169 273.141 86.9442C274.071 87.9102 274.691 89.1323 274.921 90.4534C274.974 90.6803 275.107 91.4183 275.105 91.3973C275.071 91.134 275.121 91.6115 275.121 91.6115C275.137 91.8538 275.158 92.096 275.168 92.3383C275.195 93.1328 275.167 93.9283 275.084 94.7189C275.088 95.4603 275.385 96.1701 275.909 96.6944C276.433 97.2186 277.143 97.5151 277.885 97.5195C278.623 97.5035 279.326 97.2033 279.848 96.6815C280.37 96.1597 280.67 95.4566 280.686 94.7189H280.69Z" fill="#211715"/>
<path d="M291.475 145.614C291.976 153.942 291.542 162.31 292.152 170.634C292.174 171.37 292.476 172.07 292.997 172.59C293.518 173.111 294.218 173.413 294.954 173.435C304.468 174.199 313.99 174.905 323.544 174.835C334.199 174.72 344.807 173.404 355.167 170.914C355.756 170.746 356.274 170.392 356.644 169.905C357.015 169.418 357.218 168.825 357.223 168.213C357.169 165.091 356.943 161.975 356.546 158.878C356.524 158.142 356.222 157.442 355.701 156.922C355.181 156.401 354.481 156.099 353.744 156.077C353.003 156.082 352.293 156.378 351.769 156.903C351.244 157.427 350.948 158.137 350.943 158.878C351.341 161.975 351.567 165.091 351.621 168.213L353.679 165.513C343.594 167.93 333.264 169.179 322.894 169.238C313.558 169.276 304.252 168.588 294.954 167.838L297.755 170.638C297.144 162.315 297.578 153.946 297.077 145.618C296.861 142.036 291.257 142.011 291.475 145.618V145.614Z" fill="#211715"/>
<path d="M325.856 141.322C323.142 134.312 321.276 126.995 318.761 119.912C318.587 119.327 318.232 118.812 317.746 118.443C317.26 118.073 316.669 117.868 316.059 117.857C306.557 118.354 297.057 118.911 287.55 119.305C287.121 119.311 286.699 119.414 286.315 119.608C285.932 119.801 285.598 120.079 285.337 120.42C285.077 120.761 284.898 121.157 284.813 121.578C284.729 121.999 284.741 122.433 284.848 122.849C288.151 134.304 291.719 145.677 295.553 156.969C295.724 157.556 296.078 158.072 296.564 158.442C297.051 158.812 297.643 159.017 298.253 159.025C301.968 158.706 305.692 158.522 309.399 158.123C310.136 158.103 310.836 157.801 311.357 157.28C311.878 156.76 312.18 156.059 312.2 155.323C312.195 154.581 311.898 153.872 311.374 153.348C310.85 152.824 310.141 152.527 309.399 152.522C305.692 152.921 301.968 153.105 298.253 153.424L300.955 155.48C297.118 144.191 293.55 132.818 290.251 121.36L287.553 124.91C297.06 124.517 306.56 123.959 316.062 123.462L313.361 121.405C315.883 128.488 317.743 135.805 320.457 142.815C320.672 143.52 321.149 144.117 321.79 144.481C322.431 144.846 323.187 144.951 323.904 144.775C324.618 144.574 325.224 144.1 325.591 143.455C325.958 142.811 326.057 142.047 325.864 141.331L325.856 141.322Z" fill="#211715"/>
<path d="M316.296 141.458C313.727 142.445 311.558 144.257 310.131 146.609C308.703 148.961 308.096 151.72 308.406 154.454C308.575 156.849 309.272 159.175 310.447 161.269C311.96 163.565 314.012 165.457 316.425 166.779C318.987 168.425 321.911 169.423 324.946 169.686C327.98 169.95 331.033 169.471 333.841 168.291C336.962 167.228 339.715 165.297 341.778 162.725C343.563 160.333 344.455 157.393 344.299 154.412C344.142 150.966 343.079 147.423 340.068 145.432C338.458 144.314 336.545 143.716 334.585 143.716C332.625 143.716 330.712 144.314 329.103 145.432H331.93C327.308 142.242 321.95 139.708 316.29 141.455C312.854 142.517 314.321 147.925 317.779 146.858C319.639 146.256 321.654 146.346 323.454 147.11C325.462 147.922 327.359 148.984 329.103 150.269C329.528 150.529 330.018 150.666 330.516 150.666C331.015 150.666 331.505 150.529 331.93 150.269C332.675 149.671 333.6 149.342 334.555 149.334C335.51 149.327 336.439 149.641 337.194 150.227C337.622 150.59 337.952 151.056 338.153 151.581C338.536 152.621 338.726 153.722 338.713 154.83C338.783 159.055 335.669 161.631 331.957 163.04C330.124 163.862 328.126 164.251 326.119 164.175C324.111 164.1 322.148 163.562 320.383 162.604C319.268 161.991 318.203 161.293 317.195 160.517C316.867 160.272 316.554 160.009 316.256 159.728C316.146 159.619 316.044 159.503 315.934 159.392C315.853 159.304 315.776 159.213 315.7 159.119C315.862 159.332 315.883 159.357 315.766 159.195C315.569 158.915 315.385 158.625 315.216 158.324C315.15 158.206 314.686 157.266 314.85 157.649C314.519 156.852 314.272 156.023 314.114 155.174C313.821 153.602 313.926 151.982 314.419 150.461C314.691 149.656 315.131 148.918 315.711 148.296C316.29 147.675 316.996 147.185 317.78 146.858C318.487 146.644 319.085 146.168 319.449 145.526C319.814 144.885 319.919 144.128 319.741 143.411C319.537 142.699 319.062 142.096 318.418 141.73C317.774 141.365 317.011 141.267 316.296 141.458Z" fill="#211715"/>
<path d="M302.475 51.6067C297.196 61.227 296.153 73.2041 301.734 82.963C303.922 86.728 306.961 89.9289 310.608 92.3099C314.255 94.691 318.408 96.1862 322.736 96.6761C327.064 97.1659 331.446 96.6368 335.533 95.1311C339.619 93.6254 343.297 91.1847 346.272 88.0042C348.75 85.387 344.795 81.4226 342.31 84.0427C338.348 88.2715 332.91 90.814 327.124 91.143C321.338 91.472 315.647 89.5624 311.231 85.8099C302.102 77.8042 301.751 64.5668 307.31 54.4283C309.045 51.2664 304.209 48.4363 302.472 51.6011L302.475 51.6067Z" fill="#211715"/>
<path d="M315.284 65.0667C315.194 65.71 314.963 66.3253 314.606 66.8683C314.249 67.4112 313.776 67.8682 313.221 68.2063C312.439 68.6181 311.527 68.7109 310.678 68.4653C310.097 68.3101 309.561 68.0201 309.114 67.6189C308.666 67.2177 308.32 66.7165 308.102 66.1562C307.793 65.2609 307.776 64.2908 308.053 63.3851C308.33 62.4794 308.886 61.6847 309.643 61.115C310.377 60.6033 311.278 60.3883 312.164 60.5133C313.05 60.6382 313.856 61.0938 314.42 61.7885C314.799 62.2366 315.073 62.7632 315.222 63.3302C315.371 63.8972 315.393 64.4904 315.284 65.0667Z" fill="#211715"/>
<path d="M331.391 71.0924C331.301 71.7355 331.069 72.3507 330.713 72.8934C330.356 73.4361 329.883 73.8928 329.328 74.2305C328.546 74.6434 327.634 74.7368 326.785 74.491C326.204 74.3358 325.668 74.0458 325.22 73.6446C324.773 73.2433 324.426 72.7422 324.209 72.1818C323.9 71.2866 323.883 70.3165 324.159 69.4108C324.436 68.5051 324.993 67.7103 325.75 67.1406C326.484 66.6289 327.384 66.414 328.271 66.5389C329.157 66.6639 329.963 67.1195 330.527 67.8142C330.905 68.2622 331.179 68.7889 331.329 69.3559C331.478 69.9229 331.499 70.5161 331.391 71.0924Z" fill="#211715"/>
<path d="M307.312 54.4339C309.081 50.1789 311.941 46.4658 315.604 43.6695C319.658 40.9237 324.452 39.477 329.349 39.5217C338.468 39.3117 347.342 43.3026 351.714 51.5926C354.32 56.4839 355.014 62.1695 353.66 67.5439C352.76 71.0363 358.162 72.5263 359.062 69.0325C360.441 63.5794 360.146 57.8377 358.215 52.5549C356.284 47.2721 352.806 42.693 348.236 39.4139C338.736 32.8323 324.936 31.7835 314.744 37.5655C309.268 40.8274 304.97 45.7443 302.471 51.6067C302.119 52.2534 302.027 53.0101 302.214 53.7223C302.4 54.4345 302.852 55.0486 303.476 55.4394C304.119 55.8089 304.881 55.9106 305.598 55.7225C306.316 55.5343 306.93 55.0714 307.308 54.4339H307.312Z" fill="#211715"/>
<path d="M309.032 49.8632C311.989 53.351 315.653 56.1706 319.782 58.135C321.633 59.0032 324.467 60.5996 326.583 60.0185C329.485 59.2203 329.426 55.8385 329.824 53.4173L325.142 54.6524C328.166 57.3662 331.164 60.1053 334.212 62.7954C336.769 64.9341 339.719 66.5546 342.896 67.5663C346.309 68.7496 347.775 63.3401 344.384 62.1638C338.247 60.0367 333.825 54.9339 329.101 50.6922C327.689 49.4249 324.785 49.705 324.419 51.9273C324.393 53.2298 324.17 54.5209 323.759 55.7573L324.765 54.7518L324.422 54.8989L325.836 54.5166C324.696 54.3044 323.603 53.8919 322.607 53.2983C321.356 52.7099 320.148 52.0361 318.99 51.2818C316.742 49.7865 314.721 47.9744 312.99 45.9017C310.65 43.1542 306.703 47.1312 309.029 49.8632H309.032Z" fill="#211715"/>
<path d="M306.461 91.9742C307.2 97.0245 308.643 101.946 310.748 106.597C311.699 108.773 312.831 110.866 314.133 112.853C314.826 114.131 315.981 115.094 317.362 115.547C318.051 115.691 318.761 115.694 319.452 115.558C320.142 115.422 320.798 115.149 321.381 114.755C323.386 113.325 325.23 111.681 326.881 109.854C328.444 108.285 329.939 106.647 331.345 104.936C334.405 101.201 337.094 97.1773 339.373 92.9208C341.08 89.7463 336.246 86.9148 334.535 90.0935C330.824 97.0214 325.954 103.263 320.137 108.55C319.741 108.91 319.353 109.296 318.933 109.628C318.755 109.768 318.233 109.983 318.195 110.116C319.142 110.612 319.441 110.643 319.093 110.207C318.964 110.02 318.839 109.826 318.717 109.625C318.423 109.161 318.14 108.689 317.864 108.213C316.861 106.499 315.972 104.722 315.203 102.891C313.576 98.91 312.453 94.7411 311.86 90.4814C311.659 89.767 311.185 89.1605 310.54 88.7935C309.895 88.4265 309.131 88.3286 308.415 88.521C307.708 88.7336 307.11 89.21 306.745 89.8513C306.38 90.4926 306.276 91.2497 306.454 91.9658L306.461 91.9742Z" fill="#211715"/>
<path d="M368.662 375.176C369.927 375.908 371.192 376.64 372.458 377.371C373.114 377.826 373.822 378.199 374.568 378.483C375.191 378.557 375.822 378.502 376.423 378.321C377.023 378.14 377.58 377.838 378.058 377.433C380.812 375.846 383.567 374.255 386.322 372.659C396.741 366.638 407.162 360.62 417.584 354.605C420.706 352.804 417.888 347.962 414.758 349.768C401.136 357.628 387.518 365.493 373.903 373.364H376.729C374.977 372.368 373.236 371.35 371.491 370.339C368.366 368.528 365.543 373.368 368.665 375.176H368.662Z" fill="#211715"/>
<path d="M195.55 399.976C207.447 406.795 219.3 413.699 231.173 420.561L255.211 434.449L263.348 439.152C264.63 440.074 266.017 440.839 267.48 441.433C269.421 441.965 272.228 439.654 273.815 438.738L283.931 432.898C292.786 427.789 301.64 422.679 310.493 417.568C313.615 415.766 310.797 410.924 307.667 412.731C294.047 420.592 280.429 428.453 266.812 436.313H269.638C261.421 431.592 253.217 426.852 245.026 422.094L207.587 400.462C204.517 398.687 201.452 396.906 198.377 395.14C195.244 393.345 192.419 398.183 195.55 399.977V399.976Z" fill="#211715"/>
</g>
<defs>
<clipPath id="clip0_1_112">
<rect width="482" height="512" fill="white" transform="translate(15)"/>
</clipPath>
</defs>
</svg>
