<?xml version="1.0" encoding="UTF-8" standalone="no"?>
<!-- Created using Krita: https://krita.org -->

<svg
   width="69.87529pt"
   height="73.032707pt"
   viewBox="0 0 69.87529 73.03271"
   version="1.1"
   id="svg1"
   xml:space="preserve"
   xmlns="http://www.w3.org/2000/svg"
   xmlns:svg="http://www.w3.org/2000/svg"><defs
     id="defs1"><style
       id="style1">.a{fill:#fff;}.b{fill:#fcdc4a;}.c{fill:#211715;}</style></defs><g
     id="g9"
     transform="matrix(1.1168881,0,0,1.1168881,0.00542669,0.00978955)"><path
       id="shape0"
       fill="#211715"
       stroke-opacity="0"
       stroke="#000000"
       stroke-width="0"
       stroke-linecap="square"
       stroke-linejoin="bevel"
       d="m 165.093,3.95752 c 0,22.33338 0,44.66368 0,66.99098 0,12.9527 0,25.9057 0,38.8595 0,5.926 0,11.852 0,17.778 0.086,0.591 0.089,1.191 0.009,1.784 -0.184,0.272 -0.887,0.516 -1.177,0.683 l -2.873,1.661 -6.045,3.494 c -19.28,11.144 -38.559,22.289 -57.8368,33.435 l -61.18,35.373 -25.581,14.787 -2.82196,1.634 c -0.685,0.4 -1.712,1.3 -2.5,1.316 -0.805,0.011 -0.98,-0.637 -1.009,-1.292 -0.059,-1.347 0,-2.71 0,-4.058 v -16.5 c 0,-25.267 -0.00266,-50.534 -0.008,-75.8 0,-6.036 0,-12.072 0,-18.108 v -4.258 c -0.107,-1.374 -0.107,-2.7532 0,-4.1265 0.2,-1.192 2.533,-2.027 3.512,-2.593 6.22466,-3.6 12.44896,-7.1976 18.67296,-10.793 16.3574,-9.4586 32.7167,-18.916 49.078,-28.372 l 50.5648,-29.231 35.307,-20.41098 2.424,-1.4 0.991,-0.574 c 0.171,-0.08151 0.334,-0.17613 0.49,-0.283 0.018,-0.014 -0.015,-0.023 -0.013,0 0.2,2.55 4.2,2.571 4,0 -0.027,-0.9628 -0.395,-1.88543 -1.038,-2.60238 -0.643,-0.716953 -1.52,-1.182617 -2.475,-1.313456 -0.954,-0.130839 -1.924,0.081469 -2.737,0.598837 -0.752,0.414999 -1.488,0.859999 -2.232,1.289999 l -6.144,3.552 -17.7,10.23198 -48.9968,28.326 -52.266,30.217 -21.8,12.6 -8.80696,5.092 c -1.829,1.057 -3.847,1.954 -4.580995,4.111 -0.31132279,1.4082 -0.3963898,2.8571 -0.2520001,4.2925 v 4.572 c 0,25.822 0.0026666,51.644 0.008,77.467 0,11.761 0,23.521 0,35.281 0,2.707 -0.3169999,5.7 2.3589951,7.33 2.676,1.63 5.053,0.113 7.4,-1.244 l 12.18496,-7.043 59.693,-34.508 C 102.439,170.22 123.166,158.238 143.892,146.258 l 13.141,-7.6 6.288,-3.635 c 1.991,-1.151 5.136,-2.264 5.677,-4.759 0.188,-1.493 0.222,-3.001 0.1,-4.5 v -4.817 c 0,-3.061 0,-6.123 0,-9.185 0,-6.524 0,-13.0485 0,-19.5725 0,-24.9473 0,-49.894 0,-74.84 V 3.95752 c -0.005,-2.574 -4.005,-2.578 -4.005,0 z"
       transform="matrix(0.24,0,0,0.24,-0.00485877,-0.00876502)" /><path
       id="shape1"
       fill="#211715"
       stroke-opacity="0"
       stroke="#000000"
       stroke-width="0"
       stroke-linecap="square"
       stroke-linejoin="bevel"
       d="M 2.98837,99.1348 30.1884,83.4098 c 11.1773,-6.4606 22.354,-12.922 33.53,-19.384 12.088,-6.9873 24.1753,-13.975 36.262,-20.963 l 34.8996,-20.175 29.94,-17.30495 3.192,-1.845 c 2.228,-1.287 0.216,-4.745 -2.019,-3.454005 l -29.059,16.799955 -34.487,19.937 -36.3176,21 -34.053,19.678 -28.19403,16.3 -2.912997,1.684 c -2.228003,1.288 -0.216,4.7462 2.018997,3.454 z"
       transform="matrix(0.24,0,0,0.24,0.01911048,24.825637)" /><path
       id="shape2"
       fill="#211715"
       stroke-opacity="0"
       stroke="#000000"
       stroke-width="0"
       stroke-linecap="square"
       stroke-linejoin="bevel"
       d="m 0.003,31.231 v 8.433 c 0,1.525 -0.093,3.032 1.308,4.053 1.41743,0.939 2.88201,1.8048 4.388,2.594 l 4.22,2.452 c 2.3273,1.352 4.6547,2.7037 6.982,4.055 1.866,1.083 3.984,2.906 6.2,1.79 2.43,-1.221 4.744,-2.788 7.1,-4.153 8.2947,-4.8147 16.6017,-9.61 24.921,-14.386 4.206,-2.422 8.412,-4.845 12.618,-7.269 1.793,-1.034 5.079,-2.172 5.241,-4.55 0.177,-2.595 -2.659,-3.611 -4.532,-4.709 -2.834,-1.6627 -5.6673,-3.3293 -8.5,-5 l -2.424,-1.427 -1.253,-0.738 -0.635,-0.375 c -0.3007,-0.2573 -0.363,-0.1193 -0.187,0.414 -0.12,-0.117 0,-1.012 0,-1.155 V 1.932 c 0,-2.574 -4,-2.578 -4,0 0,3.47 -0.183,6.988 0,10.452 0.117,2.207 1.958,2.948 3.641,3.939 l 5.872,3.457 c 1.634,0.9607 3.2673,1.9213 4.9,2.882 l 2.1,1.233 c 0.295,0.172 0.588,0.378 0.9,0.524 0.961,0.458 -0.224,-0.246 0.116,-0.7 l 0.718,-0.717 c -1.9891,1.3438 -4.0643,2.5558 -6.212,3.628 -2.366,1.364 -4.7327,2.727 -7.1,4.089 -4.9207,2.834 -9.841,5.6673 -14.761,8.5 -4.338,2.502 -8.6713,5.0077 -13,7.517 -1.618,0.9393 -3.2343,1.8803 -4.849,2.823 -0.5707,0.3333 -1.1413,0.6687 -1.712,1.006 -0.2006,0.1005 -0.3937,0.2151 -0.578,0.343 -0.1061,0.0535 -0.2083,0.1144 -0.306,0.182 0.7193,0.098 0.8967,0.0603 0.532,-0.113 l -0.337,-0.195 c -2.4473,-1.4173 -4.8927,-2.8367 -7.336,-4.258 l -5.13,-2.98 C 6.9795,42.5684 5.11536,41.4705 3.327,40.257 l 0.717,0.717 C 4.11,41.06 4.021,41.349 4,40.843 c -0.013,-0.333 0,-0.669 0,-1 v -8.617 c 0,-2.574 -4,-2.578 -4,0 z"
       transform="matrix(0.24,0,0,0.24,15.5484,37.8024)" /><path
       id="shape3"
       fill="#211715"
       stroke-opacity="0"
       stroke="#000000"
       stroke-width="0"
       stroke-linecap="square"
       stroke-linejoin="bevel"
       d="M 3.45315,38.9188 C 16.1925,27.1054 28.9031,15.2614 41.5851,3.38676 c 1.878,-1.769 -0.955,-4.593 -2.829,-2.828004 C 26.1101,12.4708 13.3995,24.3148 0.624148,36.0908 c -1.890998,1.754 0.942002,4.578 2.829002,2.828 z"
       transform="matrix(0.24,0,0,0.24,3.6496444,20.263979)" /><path
       id="shape4"
       fill="#211715"
       stroke-opacity="0"
       stroke="#000000"
       stroke-width="0"
       stroke-linecap="square"
       stroke-linejoin="bevel"
       d="M 2.98346,24.6975 C 13.0125,18.8275 23.1175,13.0865 33.1705,7.25954 c 2.008,-1.164 4.018,-2.324 6.012,-3.511 2.21,-1.315 0.2,-4.774 -2.019,-3.453003 C 27.2395,6.20054 17.1725,11.8715 7.17146,17.6465 c -2.071,1.2 -4.143,2.389 -6.207,3.6 -2.22,1.3 -0.209,4.759 2.019,3.454 z"
       transform="matrix(0.24,0,0,0.24,20.21581,42.840591)" /><g
       id="group0"
       transform="matrix(1.2985751,0,0,1.2915242,2.1088235,10.38)"
       fill="none"><path
         id="shape01"
         fill="#febe69"
         stroke-opacity="0"
         stroke="#000000"
         stroke-width="0"
         stroke-linecap="square"
         stroke-linejoin="bevel"
         d="m 0,3 v 19.096 c 0,1.657 1.343,3 3,3 h 13.091 c 3.522,3.643 7.973,8.161 12.094,12.235 0.694,0.686 1.855,0.07 1.684,-0.89 -0.666,-3.755 -1.392,-7.848 -2.034,-11.345 h 10.782 c 1.657,0 3,-1.343 3,-3 V 3 c 0,-1.657 -1.343,-3 -3,-3 H 3 C 1.343,0 0,1.343 0,3 Z"
         transform="matrix(0.24,0,0,0.24,0.5350033,0.53405333)" /><path
         id="shape110"
         transform="scale(0.24)"
         fill="#211715"
         stroke-opacity="0"
         stroke="#000000"
         stroke-width="0"
         stroke-linecap="square"
         stroke-linejoin="bevel"
         d="M 0.0291805,5.22522 V 20.9062 c 0,2.491 -0.3840005,5.309 1.6339995,7.197 2.12,1.984 5.601,1.417 8.269,1.417 h 8.38702 l -1.556,-0.644 c 2.088,2.159 4.189,4.305 6.301,6.44 1.126,1.138 2.255,2.273 3.388,3.405 1.038,1.036 2.179,2.64 3.597,3.124 1.228,0.419 2.57,0.087 3.447,-0.878 1.187,-1.307 0.716,-2.926 0.44,-4.48 -0.577,-3.251 -1.156,-6.502 -1.751,-9.75 l -2.121,2.785 h 8.348 c 1.101,0 2.255,0.093 3.346,-0.096 2.542,-0.441 4.199,-2.646 4.288,-5.157 0.202,-5.723 0,-11.487 0,-17.21398 0,-0.608 0.026,-1.222 0,-1.829 -0.124,-2.912 -2.29,-5.078998 -5.202,-5.1999978 -1.404,-0.059 -2.823,0 -4.227,0 -6.803,0 -13.606,0 -20.41,0 H 7.01418 c -0.581,0 -1.167,-0.02199996 -1.748,0 -2.948,0.1089998 -5.079,2.2699978 -5.2369995,5.1999978 -0.1520005,2.83 4.2479995,2.821 4.3999995,0 0.064,-1.187 2.172,-0.8 2.951,-0.8 h 7.45502 c 6.494,0 12.987,0 19.481,0 h 5.854 c 0.339,0 0.78,-0.062 1.08,0.109 0.525,0.3 0.396,1.009 0.396,1.526 V 22.9972 c 0,0.524 0.17,1.48 -0.237,1.887 -0.521,0.521 -2.039,0.237 -2.687,0.237 h -8.658 c -1.529,0 -2.375,1.399 -2.121,2.785 0.355,1.935 0.703,3.871 1.049,5.808 0.18,1.007 0.359,2.013 0.538,3.02 0.082,0.46 0.164,0.921 0.245,1.381 0.023,0.129 0.035,0.591 0.121,0.684 0.205,-0.847 0.643,-1.217 1.315,-1.108 0.473,0.1 0.567,0.046 0.281,-0.162 -0.086,-0.291 -0.74,-0.734 -0.961,-0.954 -0.323,-0.321 -0.645,-0.643 -0.967,-0.964 -0.756,-0.755 -1.511,-1.512 -2.263,-2.27 -1.371,-1.381 -2.738,-2.767 -4.099,-4.157 -0.644,-0.657 -1.287,-1.316 -1.928,-1.976 -0.671,-0.69 -1.412,-1.745 -2.369,-2.007 -0.442,-0.121 -0.946,-0.079 -1.399,-0.079 H 6.39218 c -0.808,0 -1.827,0.208 -1.962,-0.838 -0.124,-0.963 0,-2.023 0,-2.992 V 5.22522 c 0,-2.831 -4.3999995,-2.836 -4.3999995,0 z" /><path
         id="shape21"
         transform="matrix(0.24,0,0,0.24,7.1109433,2.9364533)"
         fill="#211715"
         stroke-opacity="0"
         stroke="#000000"
         stroke-width="0"
         stroke-linecap="square"
         stroke-linejoin="bevel"
         d="m 2.51325,5.2 c 3.346,0 3.351,-5.2 0,-5.2 -3.351,0 -3.351,5.2 0,5.2 z" /><path
         id="shape31"
         transform="matrix(0.24,0,0,0.24,4.9259833,2.9364533)"
         fill="#211715"
         stroke-opacity="0"
         stroke="#000000"
         stroke-width="0"
         stroke-linecap="square"
         stroke-linejoin="bevel"
         d="m 2.51325,5.2 c 3.346,0 3.351,-5.2 0,-5.2 -3.351,0 -3.351,5.2 0,5.2 z" /><path
         id="shape41"
         transform="matrix(0.24,0,0,0.24,2.7410233,2.9364533)"
         fill="#211715"
         stroke-opacity="0"
         stroke="#000000"
         stroke-width="0"
         stroke-linecap="square"
         stroke-linejoin="bevel"
         d="m 2.51325,5.2 c 3.346,0 3.351,-5.2 0,-5.2 -3.351,0 -3.351,5.2 0,5.2 z" /><path
         style="fill:#d38d5f;stroke-width:0.0541176"
         d="m 12.927395,26.333294 c -1.331947,-1.354686 -2.004683,-2.001039 -2.142716,-2.058682 -0.17321,-0.07234 -0.596733,-0.08403 -3.0441175,-0.08403 -2.7707577,0 -2.8456617,-0.0027 -2.9511499,-0.108235 -0.1063069,-0.106307 -0.1082205,-0.179825 -0.1074066,-4.12647 4.558e-4,-2.21003 0.01872,-4.045031 0.040588,-4.077781 0.1214711,-0.18192 0.2079782,-0.183984 7.710564,-0.183984 6.33464,0 7.449931,0.01136 7.53944,0.0768 0.102102,0.07464 0.105477,0.188922 0.120311,4.072353 0.0084,2.197554 0.002,4.049644 -0.01417,4.115756 -0.05908,0.241309 -0.134476,0.248147 -2.603676,0.236131 -2.570413,-0.01251 -2.575574,-0.01194 -2.850855,0.315217 -0.303638,0.360853 -0.303288,0.436657 0.01006,2.175149 0.15598,0.86541 0.272585,1.584488 0.259122,1.597951 -0.01346,0.01346 -0.898159,-0.864117 -1.965992,-1.95018 z M 9.2515071,20.868012 c 0.257973,-0.196765 0.405773,-0.518565 0.4073041,-0.88681 0.00298,-0.716348 -0.4252188,-1.125074 -1.1365609,-1.08488 -0.4342251,0.02454 -0.7087111,0.199049 -0.8693054,0.552689 -0.19079,0.420133 -0.091991,1.08265 0.2001206,1.341947 0.2367028,0.210113 0.4195059,0.266308 0.8107864,0.249243 0.324753,-0.01416 0.4152304,-0.04067 0.5876552,-0.172189 z m 3.6576469,0.07445 c 0.11784,-0.06012 0.281252,-0.210545 0.363138,-0.334283 0.129836,-0.196196 0.148884,-0.277918 0.148884,-0.638766 0,-0.360848 -0.01905,-0.44257 -0.148884,-0.638765 -0.217471,-0.328621 -0.508297,-0.45995 -0.961806,-0.434324 -0.29413,0.01662 -0.399644,0.04886 -0.559899,0.171096 -0.63368,0.48333 -0.523825,1.641945 0.182381,1.923547 0.240084,0.09574 0.742375,0.07078 0.976186,-0.0485 z m 3.783738,0.0023 c 0.730123,-0.372481 0.717804,-1.619824 -0.0193,-1.954578 -0.263033,-0.119455 -0.721312,-0.133295 -0.970207,-0.0293 -0.193642,0.08091 -0.449544,0.355607 -0.533368,0.572543 -0.07252,0.18768 -0.06754,0.6969 0.0088,0.895992 0.08084,0.210939 0.310687,0.454302 0.515337,0.545649 0.248293,0.110827 0.752095,0.09554 0.998775,-0.03031 z"
         id="path9"
         transform="matrix(0.57755612,0,0,0.58070921,-1.6239519,-8.0370155)" /></g><g
       id="group01"
       transform="matrix(1.0987741,0,0,1.0724095,31.708351,15.268377)"
       fill="none"><path
         id="shape02"
         fill="#febe69"
         stroke-opacity="0"
         stroke="#000000"
         stroke-width="0"
         stroke-linecap="square"
         stroke-linejoin="bevel"
         d="m 41.617,3 v 19.096 c 0,1.657 -1.343,3 -3,3 H 25.526 c -3.522,3.643 -7.973,8.161 -12.094,12.235 -0.694,0.686 -1.855,0.07 -1.684,-0.89 0.666,-3.755 1.392,-7.848 2.034,-11.345 H 3 c -1.657,0 -3,-1.343 -3,-3 V 3 C 0,1.343 1.343,0 3,0 h 35.617 c 1.657,0 3,1.343 3,3 z"
         transform="matrix(0.24,0,0,0.24,0.528,0.53034667)" /><path
         id="shape111"
         fill="#211715"
         stroke-opacity="0"
         stroke="#000000"
         stroke-width="0"
         stroke-linecap="square"
         stroke-linejoin="bevel"
         d="m 41.617,5.20978 c 0,6.23602 0.151,12.49102 0,18.72502 -0.019,0.803 -0.306,1.146 -1.133,1.17 -1.615,0.048 -3.239,0 -4.854,0 h -5.996 c -0.573,0 -1.152,-0.022 -1.725,0 -1.372,0.053 -2.104,1.024 -2.993,1.939 -3.055,3.143 -6.134,6.263 -9.241,9.355 -0.292,0.291 -0.967,0.738 -1.122,1.114 l -0.159,0.158 c 0.64,-0.223 1.079,-0.036 1.318,0.56 0.641,0.81 0.447,0.499 0.558,-0.132 0.205,-1.157 0.411,-2.315 0.617,-3.472 0.4,-2.246 0.804,-4.492 1.215,-6.737 0.254,-1.386 -0.593,-2.785 -2.121,-2.785 H 8.523 c -1.055,0 -2.209,0.132 -3.258,0 -0.682,-0.086 -0.837,-0.446 -0.867,-1.064 -0.267,-5.506 0,-11.087 0,-16.60002 0,-0.982 -0.432,-2.929 0.929,-3.031 1.492,-0.112 3.036,0 4.531,0 6.307,0 12.614,0 18.922,0 h 9.138 c 0.807,0 3.629,-0.484 3.698,0.8 0.152,2.816 4.553,2.834 4.4,0 -0.157,-2.915 -2.27,-5.080002 -5.209,-5.20000224 -0.41,-0.017 -0.824,0 -1.234,0 h -7.368 c -6.988,0 -13.976,0 -20.965,0 -1.905,0 -3.812,-0.02199996 -5.717,0 C 2.137,0.0497778 0,2.49478 0,5.78978 V 23.5248 c 0,1.708 0.312,3.326 1.634,4.563 1.445,1.351 3.192,1.417 5.023,1.417 h 9.325 l -2.121,-2.785 c -0.582,3.171 -1.147,6.346 -1.71,9.521 -0.273,1.535 -0.781,3.117 0.227,4.488 0.836,1.136 2.302,1.541 3.619,1.101 1.355,-0.453 2.447,-1.976 3.435,-2.963 1.133,-1.131 2.263,-2.266 3.389,-3.404 2.166,-2.188 4.32,-4.389 6.461,-6.602 l -1.556,0.644 h 11.698 c 1.093,0 2.174,0.05 3.217,-0.346 2.109,-0.8 3.308,-2.752 3.376,-4.96 0.025,-0.792 0,-1.589 0,-2.382 v -9.647 c 0,-2.32102 0,-4.64102 0,-6.96202 0,-2.831 -4.4,-2.836 -4.4,0 z"
         transform="scale(0.24)" /><path
         id="shape22"
         fill="#211715"
         stroke-opacity="0"
         stroke="#000000"
         stroke-width="0"
         stroke-linecap="square"
         stroke-linejoin="bevel"
         d="m 2.51325,5.2 c 3.346,0 3.351,-5.2 0,-5.2 -3.351,0 -3.351,5.2 0,5.2 z"
         transform="matrix(0.24,0,0,0.24,2.73402,2.9327467)" /><path
         id="shape32"
         fill="#211715"
         stroke-opacity="0"
         stroke="#000000"
         stroke-width="0"
         stroke-linecap="square"
         stroke-linejoin="bevel"
         d="m 2.51325,5.2 c 3.346,0 3.351,-5.2 0,-5.2 -3.351,0 -3.351,5.2 0,5.2 z"
         transform="matrix(0.24,0,0,0.24,4.91898,2.9327467)" /><path
         id="shape42"
         fill="#211715"
         stroke-opacity="0"
         stroke="#000000"
         stroke-width="0"
         stroke-linecap="square"
         stroke-linejoin="bevel"
         d="m 2.51325,5.2 c 3.346,0 3.351,-5.2 0,-5.2 -3.351,0 -3.351,5.2 0,5.2 z"
         transform="matrix(0.24,0,0,0.24,7.10394,2.9327467)" /><path
         style="fill:#d38d5f;stroke-width:0.0541176"
         d="m 48.245881,32.275395 c 0,-0.02974 0.09725,-0.57637 0.216114,-1.214734 0.118863,-0.638364 0.216274,-1.241019 0.21647,-1.339232 4.31e-4,-0.215433 -0.101557,-0.42396 -0.296453,-0.606136 l -0.144741,-0.135294 -2.099526,-0.01533 c -2.045895,-0.01494 -2.102118,-0.0182 -2.200989,-0.127569 -0.09699,-0.107296 -0.101231,-0.257546 -0.09618,-3.411389 0.0052,-3.244386 0.0071,-3.300981 0.11562,-3.409488 0.109818,-0.109818 0.140221,-0.110325 6.434695,-0.107214 l 6.324355,0.0031 0.09594,0.118482 c 0.08987,0.110984 0.09501,0.327248 0.0812,3.41697 l -0.01474,3.298488 -0.12776,0.103433 c -0.121398,0.09828 -0.244767,0.103433 -2.47762,0.103433 -1.999408,0 -2.379867,0.0125 -2.551064,0.08385 -0.130395,0.05434 -0.705904,0.58315 -1.63532,1.50262 -1.637046,1.619527 -1.84,1.811009 -1.84,1.735985 z m -0.553979,-6.06207 c 0.193796,-0.141193 0.391626,-0.534215 0.391626,-0.778032 0,-0.317633 -0.206758,-0.657928 -0.484996,-0.798235 -0.581946,-0.293458 -1.210936,0.01009 -1.327808,0.640795 -0.0722,0.389631 0.150587,0.853139 0.482332,1.003491 0.235003,0.106507 0.750566,0.06915 0.938846,-0.06802 z m 3.189597,-1.76e-4 c 0.243573,-0.181853 0.345207,-0.364385 0.374615,-0.672804 0.07126,-0.74733 -0.636367,-1.240751 -1.311017,-0.914159 -0.26641,0.128967 -0.377989,0.278243 -0.450788,0.603085 -0.09738,0.434531 0.06773,0.828811 0.43096,1.029128 0.245474,0.135375 0.746029,0.111689 0.95623,-0.04525 z m 3.192942,0 c 0.292058,-0.218052 0.36791,-0.378424 0.36791,-0.777856 0,-0.29019 -0.02428,-0.403403 -0.111579,-0.520334 -0.217117,-0.290805 -0.382716,-0.372607 -0.754303,-0.372607 -0.385796,0 -0.555958,0.09011 -0.775858,0.410859 -0.107575,0.156909 -0.123569,0.237116 -0.107163,0.537411 0.02212,0.404812 0.149146,0.632011 0.434828,0.777711 0.239986,0.122395 0.748002,0.09277 0.946165,-0.05518 z"
         id="path8"
         transform="matrix(0.68257887,0,0,0.69935971,-28.857934,-14.23745)" /></g></g><path
     style="fill:#ffffff;stroke-width:0.12822"
     d="m 1.1911214,39.459615 c -0.024784,-8.833309 0.00622,-13.291193 0.093175,-13.396479 0.1135776,-0.137524 1.725253,-1.085669 5.9862512,-3.5217 l 1.1160014,-0.638023 1.5766123,1.628113 c 0.8671367,0.895462 1.5943107,1.674776 1.6159407,1.73181 0.02163,0.05704 -1.6516362,1.674318 -3.7183713,3.593965 -2.4928414,2.315428 -3.7710958,3.589371 -3.7974969,3.784688 -0.027261,0.201678 0.063613,0.362176 0.2884944,0.509524 0.2976731,0.195043 0.3551975,0.196646 0.6167855,0.01718 0.1586719,-0.108855 1.9308318,-1.73106 3.9381329,-3.604898 l 3.6496384,-3.406979 h 0.591316 c 0.762556,0 1.148896,-0.367789 1.148896,-1.093726 0,-0.422652 0.09204,-0.593657 0.593598,-1.10287 0.493035,-0.500563 0.579591,-0.658459 0.510926,-0.932044 C 15.282261,22.555 14.757848,22.449917 14.3636,22.820293 l -0.30336,0.284992 -0.110741,-0.557804 -0.110741,-0.557806 1.694031,-0.06411 c 1.461138,-0.05529 1.743794,-0.101209 2.056001,-0.333952 0.739489,-0.551278 0.830032,-0.87998 0.920248,-3.340856 L 18.591858,15.991652 31.2215,8.6865231 c 6.946303,-4.0178201 12.701765,-7.333621 12.789916,-7.3684459 0.127172,-0.05024 0.160275,1.5682384 0.160275,7.8359122 V 17.05322 h -3.893409 c -5.246913,0 -4.957934,-0.248826 -4.946515,4.259187 0.01043,4.115019 0.06752,4.214519 2.471461,4.306535 l 1.456416,0.05575 -0.238168,1.298877 c -0.183661,1.001619 -0.205945,1.377056 -0.09737,1.640481 0.16645,0.403848 0.720103,0.667098 1.167069,0.554917 0.175108,-0.04395 1.091934,-0.85506 2.037391,-1.802466 0.945456,-0.947408 1.794103,-1.722559 1.88588,-1.722559 0.127439,0 0.158157,0.274337 0.130002,1.161039 l -0.03687,1.161038 -21.392037,12.366142 c -11.765617,6.801376 -21.4134634,12.36614 -21.4396548,12.36614 -0.026191,0 -0.064335,-5.957408 -0.084765,-13.238686 z"
     id="path10" /><path
     style="fill:#ffffff;stroke-width:0.12822"
     d="m 20.835703,54.450757 -2.243846,-1.308865 v -1.146228 -1.146228 l 6.250711,-3.615228 6.250711,-3.615227 v 1.067241 c 0,0.586983 0.03598,1.160992 0.07995,1.275578 0.04397,0.114585 0.923878,0.705438 1.955351,1.313007 1.031472,0.607568 1.976008,1.172821 2.098968,1.256118 0.193306,0.130952 -0.01494,0.287411 -1.538637,1.156046 -0.969211,0.552528 -3.73953,2.148498 -6.156265,3.5466 -2.416735,1.398101 -4.407346,2.538414 -4.42358,2.534027 -0.01623,-0.0044 -1.039246,-0.596966 -2.27336,-1.316841 z m 7.153456,-2.540724 c 2.588777,-1.491359 4.865538,-2.822362 5.059471,-2.957784 0.549596,-0.383779 0.416178,-1.126297 -0.202377,-1.126297 -0.135991,0 -1.379402,0.656065 -2.763135,1.457922 -1.383734,0.801858 -3.55446,2.052379 -4.823835,2.778937 -2.564676,1.467955 -2.756724,1.602298 -2.756724,1.928401 0,0.275794 0.332636,0.630385 0.591355,0.630385 0.103608,0 2.306469,-1.220204 4.895245,-2.711564 z"
     id="path12" /><path
     style="fill:#ffffff;stroke-width:0.12822"
     d="m 1.2162356,59.214806 c -0.037468,-0.09764 -0.052379,-1.271036 -0.033136,-2.607549 l 0.034988,-2.430023 21.4627134,-12.40746 c 11.804493,-6.824103 21.484649,-12.40746 21.511458,-12.40746 0.02681,0 0.03315,1.186957 0.01409,2.637683 l -0.03465,2.637684 -21.284473,12.311638 C 11.180759,53.72072 1.5311092,59.290516 1.4435526,59.326645 c -0.087557,0.03613 -0.1898493,-0.0142 -0.227317,-0.111839 z"
     id="path14" /><path
     class="a"
     d="m 69.083648,68.626154 -0.230942,-0.129211 v 0 c -0.730698,0.364662 -3.033645,0.409407 -3.469893,0.08255 -0.832774,0.99229 -2.032283,1.135858 -3.112626,0.985591 a 1.8311335,1.897244 0 0 1 -0.433939,-0.08997 3.0278712,3.1371883 0 0 1 -1.046164,-0.631936 c -0.003,-0.0031 -0.0072,-0.0048 -0.0099,-0.0081 l -0.132792,0.01268 c -0.178055,-0.110786 -0.720998,0.0033 -0.943625,0.350304 -0.222628,0.346955 -0.214545,1.015262 -0.08891,1.411747 0.273896,0.861405 1.075494,1.299764 1.899954,1.607716 a 4.9714731,5.1509612 0 0 0 2.665986,0.245979 1.3916522,1.4418958 0 0 0 0.888893,-0.715444 1.8311335,1.897244 0 0 0 0.202998,-0.67381 l 1.41821,0.337862 a 3.5946012,3.7243792 0 0 0 0.884967,0.117725 4.1955104,4.3469834 0 0 0 0.423315,-0.02537 1.4038921,1.4545776 0 0 0 1.056557,-0.593172 1.8244362,1.8903049 0 0 0 0.207847,-0.900886 c 0.0079,-0.315131 -0.189603,-1.070295 -0.179903,-1.38423 z"
     id="path3"
     style="stroke-width:0.235073" /><path
     class="a"
     d="m 65.135475,36.050697 a 1.5265219,1.5816348 0 0 1 -0.21362,0.536225 2.2375901,2.3183752 0 0 1 -0.845707,0.768325 4.4966578,4.6590033 0 0 0 2.862517,2.269562 2.3786953,2.4645748 0 0 0 -0.527008,0.719273 5.4502144,5.6469868 0 0 0 -1.537838,0.122989 c -1.272025,0.256268 -3.025331,0.854466 -3.48398,1.163136 a 3.3447227,3.4654792 0 0 0 -0.763492,0.739851 l 0.293757,-0.981044 a 1.7574632,1.820914 0 0 0 0.0069,-1.106906 1.616589,1.6749537 0 0 0 -0.723309,-0.827666 l 0.121475,-0.679074 c -0.0025,-0.0022 -0.0049,-0.0048 -0.0072,-0.0072 a 4.2793421,4.4338418 0 0 1 -1.117294,-2.282484 5.4372817,5.6335871 0 0 1 0.951479,-4.385746 5.2580712,5.4479066 0 0 1 0.680815,-0.782204 9.2628238,9.5972457 0 0 0 3.056738,3.323587 1.0350789,1.0724489 0 0 1 1.154707,0.52785 1.2946568,1.3413986 0 0 1 0.09099,0.881504 z"
     id="path4"
     style="stroke-width:0.235073" /><path
     class="a"
     d="m 59.71944,39.256558 a 1.7209745,1.7831079 0 0 0 -0.781274,-0.01196 1.5609322,1.6172874 0 0 0 -1.218678,1.728074 l 0.03141,0.476643 a 0.58312675,0.60417973 0 0 1 0.200226,0.04786 c 0.48082,0.235211 1.840371,1.01909 2.196252,1.258847 l 0.138565,0.08973 A 4.4996601,4.662114 0 0 1 61.239266,41.741 l -0.319622,-0.351979 a 1.7574632,1.820914 0 0 0 0.0069,-1.106906 1.7200507,1.7821508 0 0 0 -1.20713,-1.02555 z"
     id="path5"
     style="stroke-width:0.235073" /><path
     class="a"
     d="m 67.037508,54.989159 q 0.391445,-0.06317 0.802983,-0.133039 c 0.371815,-0.06293 0.999051,-0.233297 1.200894,-0.484301 0.256576,-0.319198 0.243412,-0.656581 0.257268,-1.131551 0.106234,-3.654031 0.311309,-6.378462 -0.304842,-9.495791 -0.192836,-0.97578 -0.461882,-1.990323 -1.135769,-2.700265 -0.673887,-0.70994 -1.531603,-0.870018 -2.984454,-0.577141 -1.272025,0.256268 -3.025331,0.854466 -3.48398,1.163136 a 4.1641023,4.3144414 0 0 0 -1.105286,1.217452 l -0.137179,-0.09236 c -0.35588,-0.23928 -1.715431,-1.023636 -2.196251,-1.258848 a 0.66972973,0.69390939 0 0 0 -0.324473,-0.04618 c -0.141567,0.0213 -0.212004,0.186159 -0.254035,0.327813 a 26.099367,27.041649 0 0 0 -0.752869,3.738975 12.237348,12.67916 0 0 0 -0.0679,3.868904 1.8094249,1.8747517 0 0 0 0.742937,1.226305 c 0.343641,0.297424 0.857254,0.266078 1.293272,0.163189 a 3.8567195,3.995961 0 0 0 1.265558,-0.569724 l -0.0157,1.577807 c -0.0016,0.74344 0.02979,1.595752 0.02979,1.595752 -0.0157,0.401032 0.187524,1.076756 0.504606,1.302635 0.282211,0.201713 0.658645,0.292399 1.505506,0.451998 1.731136,0.325899 3.284216,0.158164 5.159922,-0.144763 z"
     id="path6"
     style="stroke-width:0.235073" /><path
     class="a"
     d="m 63.86576,55.311229 a 10.757476,11.14586 0 0 1 -1.987481,-0.177306 c -0.953094,-0.179459 -1.310129,-0.27206 -1.608044,-0.533353 -0.01732,2.155666 0.147341,10.619924 0.308538,13.696575 l 0.04942,0.255311 c 0.07113,0.368729 0.623541,0.682424 1.206668,0.922421 a 1.8311335,1.897244 0 0 0 0.433938,0.08997 c 1.07942,0.150267 2.279853,0.0067 3.112627,-0.985591 0.533706,0.399836 3.860877,0.243825 3.686516,-0.373275 -0.107388,-3.05727 -0.202074,-9.234259 -0.11547,-11.975919 0,0 -0.02309,-0.940606 -0.04342,-1.73956 a 3.1495773,3.2632884 0 0 1 -1.067642,0.365619 25.551575,26.474079 0 0 1 -3.975654,0.455109 z"
     id="path7"
     style="stroke-width:0.235073" /><path
     class="b"
     d="m 63.29164,30.011053 a 5.2520668,5.4416853 0 0 0 -2.460218,1.306943 9.2903063,9.6257195 0 0 0 3.058356,3.32215 1.0350789,1.0724489 0 0 1 1.154706,0.527851 1.4175176,1.4686951 0 0 1 -0.121936,1.418446 2.2375901,2.3183752 0 0 1 -0.845707,0.768325 4.4968888,4.6592427 0 0 0 2.861824,2.269562 c 0.02194,-0.02392 0.04457,-0.04786 0.06813,-0.07561 0.641555,-0.731236 1.103668,-1.240662 1.496268,-1.958977 a 5.0994146,5.2835218 0 0 0 0.635089,-3.324305 c -0.319623,-2.303784 -2.210339,-4.231656 -4.454165,-4.363259 a 5.2871699,5.4780557 0 0 0 -1.392345,0.108872 z"
     style="fill:#e29871;stroke-width:0.235073"
     id="path12-8" /><path
     class="c"
     d="m 61.481984,34.365932 a 0.73393141,0.76042898 0 0 1 -0.344796,0.543643 0.57296533,0.59365145 0 0 1 -0.425162,0.04498 0.63947643,0.66256383 0 0 1 -0.430475,-0.400075 0.74801883,0.77502501 0 0 1 0.2575,-0.872412 0.59190252,0.61327233 0 0 1 0.798364,0.116769 0.6600302,0.68385967 0 0 1 0.144569,0.567091 z"
     id="path21"
     style="stroke-width:0.235073" /><path
     class="c"
     d="m 59.809046,55.193025 c 0.01039,3.56143 0.09653,7.125014 0.212234,10.68429 0.02633,0.816899 0.05497,1.633798 0.09769,2.449979 0.03233,0.612554 0.956327,0.616383 0.923765,0 -0.186601,-3.555209 -0.233482,-7.122621 -0.285213,-10.681897 -0.01201,-0.817378 -0.02309,-1.634755 -0.02471,-2.452372 -0.0019,-0.615665 -0.925613,-0.616861 -0.923764,0 z"
     id="path22"
     style="stroke-width:0.235073" /><path
     class="c"
     d="m 68.489897,56.230061 c -0.102307,3.333158 -0.02194,6.679476 0.05935,10.012394 0.0194,0.794646 0.04134,1.589292 0.07252,2.383699 0.02309,0.61375 0.946859,0.616861 0.923765,0 -0.130713,-3.333876 -0.173899,-6.675887 -0.164661,-10.012155 0.0023,-0.794646 0.0085,-1.589531 0.0328,-2.383938 0.01894,-0.616144 -0.904827,-0.615426 -0.923765,0 z"
     id="path23"
     style="stroke-width:0.235073" /><path
     class="c"
     d="m 64.866659,59.625431 c -0.130712,2.63207 -0.199994,5.27395 -0.226322,7.90961 -0.0046,0.45463 -0.02009,0.914046 0.0127,1.367719 0.04411,0.610401 0.968338,0.615426 0.923766,0 -0.0739,-1.021004 -0.006,-2.066414 0.0164,-3.088136 q 0.04896,-2.235584 0.128403,-4.470212 c 0.0201,-0.57427 0.04041,-1.146147 0.06928,-1.718981 0.03048,-0.615426 -0.893281,-0.613751 -0.923765,0 z"
     id="path24"
     style="stroke-width:0.235073" /><path
     class="c"
     d="m 60.182708,68.678556 c 0.115471,0.467551 0.535784,0.77024 0.92746,0.981044 a 3.3740522,3.4958676 0 0 0 0.742939,0.320634 4.8959553,5.072717 0 0 0 0.754947,0.09978 3.8770423,4.0170175 0 0 0 2.761365,-0.820487 0.46465387,0.48142955 0 0 0 0,-0.676682 0.4731987,0.49028287 0 0 0 -0.653333,0 2.9017773,3.0065419 0 0 1 -1.970853,0.548667 2.5992442,2.6930863 0 0 1 -1.033924,-0.229468 2.473843,2.5631577 0 0 1 -0.492598,-0.2924 1.3041254,1.3512091 0 0 1 -0.127479,-0.129689 q 0.02933,0.03589 -0.01593,-0.0335 c 0.01409,0.03948 0.01363,0.0323 -0.0018,-0.0213 -0.148034,-0.596045 -1.039236,-0.343366 -0.890741,0.254353 z"
     id="path25"
     style="stroke-width:0.235073" /><path
     class="c"
     d="m 65.436161,69.124572 a 5.4211158,5.6168376 0 0 0 1.805268,0.143567 4.9005741,5.0775025 0 0 0 1.844066,-0.357243 0.46557763,0.48238667 0 0 0 0.165585,-0.654668 0.47250587,0.48956504 0 0 0 -0.631856,-0.171803 c -0.08314,0.0402 0.108081,-0.03757 0.01501,-0.006 -0.02309,0.0076 -0.04434,0.01699 -0.06674,0.02393 -0.05381,0.0189 -0.108773,0.03541 -0.163737,0.05049 -0.127711,0.03469 -0.257731,0.06078 -0.387981,0.08279 l -0.097,0.01532 c -0.05543,0.0089 0.07367,-0.0084 -0.01755,0.0026 -0.07621,0.0091 -0.15219,0.01818 -0.228632,0.02561 q -0.236945,0.02392 -0.474584,0.03278 a 8.4293569,8.7336872 0 0 1 -0.903904,-0.0086 c -0.06282,-0.0045 -0.125632,-0.0098 -0.188448,-0.01627 -0.03557,-0.0036 -0.07113,-0.0089 -0.106695,-0.0122 0.124939,0.01172 0.01247,0.0017 -0.01085,-0.0022 a 2.206644,2.2863118 0 0 1 -0.306228,-0.07178 0.46211721,0.47880131 0 1 0 -0.245722,0.923138 z"
     id="path26"
     style="stroke-width:0.235073" /><path
     class="c"
     d="m 60.878996,68.434252 a 1.2387691,1.2834931 0 0 0 -1.135307,0.09786 1.3870334,1.4371103 0 0 0 -0.660954,1.150454 2.423267,2.5107556 0 0 0 1.105285,2.398533 5.7160278,5.922397 0 0 0 2.87799,0.944675 c 0.975034,0.05096 2.028127,-0.162949 2.467608,-1.177493 0.377358,-0.871455 0.225399,-1.899158 0.02587,-2.795976 -0.133714,-0.600112 -1.024455,-0.345998 -0.89097,0.254353 a 5.4377435,5.6340657 0 0 1 0.168587,1.394519 2.0165793,2.0893851 0 0 1 -0.04041,0.419217 c -0.01409,0.06508 -0.0291,0.129689 -0.0485,0.193338 -0.006,0.01962 -0.07275,0.188073 -0.02817,0.08901 -0.396296,0.885333 -1.60943,0.737937 -2.374307,0.56446 -0.750329,-0.170127 -1.747533,-0.49794 -2.168308,-1.225588 a 1.4477709,1.5000407 0 0 1 -0.15935,-1.086566 0.37620336,0.38978566 0 0 1 0.221473,-0.313695 c 0.06189,-0.02991 0.135793,-0.03063 0.1963,-0.0591 0.0291,-0.01387 0.06259,0.02082 -0.02309,-0.02154 0.533475,0.265121 1.002747,-0.559914 0.466271,-0.826471 z"
     id="path27"
     style="stroke-width:0.235073" /><path
     class="c"
     d="m 68.621765,68.626154 a 5.8211061,6.031269 0 0 0 0.148495,1.069577 0.85448275,0.88533269 0 0 1 0.02309,0.145242 c 0,-0.12586 -0.0037,-0.02823 0,0.005 a 1.3784886,1.4282569 0 0 1 0.0062,0.204822 c -0.0023,0.05815 -0.0076,0.115573 -0.01178,0.173478 -0.0081,0.112222 0.0134,-0.04953 -0.0069,0.05264 -0.01201,0.06006 -0.02309,0.119639 -0.03811,0.17922 -0.0049,0.0177 -0.04827,0.15242 -0.03326,0.113418 0.01501,-0.039 -0.04503,0.08351 -0.05265,0.0993 q -0.04618,0.06795 0,0.0065 c -0.0127,0.01627 -0.0261,0.0323 -0.04018,0.04786 a 1.1547065,1.1963955 0 0 1 -0.103462,0.101693 c 0.07252,-0.06317 -0.03949,0.02392 -0.05727,0.03566 -0.04157,0.02608 -0.08452,0.04786 -0.128173,0.07178 -0.04873,0.02393 -0.05058,0.02393 -0.0053,0.0024 -0.01963,0.0076 -0.03949,0.01508 -0.05935,0.02178 a 2.2747717,2.3568992 0 0 1 -0.284751,0.07178 q -0.05127,0.0084 0.02009,-0.0029 c -0.03464,0.0036 -0.06929,0.0072 -0.104155,0.01005 -0.0575,0.005 -0.115471,0.0091 -0.172744,0.01172 -0.107388,0.0048 -0.214776,0.005 -0.321933,0 -0.05196,-0.0026 -0.103461,-0.0081 -0.155192,-0.01196 q -0.08337,-0.01029 -0.01062,0 l -0.06721,-0.01053 c -0.118935,-0.01986 -0.236484,-0.04594 -0.353802,-0.07417 a 0.4619755,0.47865447 0 1 0 -0.245491,0.9229 c 0.956328,0.231861 2.322115,0.26536 2.897159,-0.739373 a 2.1770835,2.2556841 0 0 0 0.24064,-1.385187 c -0.02887,-0.232818 -0.06929,-0.463005 -0.110159,-0.693909 -0.0085,-0.05049 -0.01709,-0.100976 -0.02517,-0.151703 q -0.0058,-0.03613 -0.01108,-0.07178 c -0.0076,-0.05503 -0.0069,-0.04786 0.0025,0.02393 a 0.63439572,0.65729969 0 0 1 -0.01501,-0.227554 0.46188257,0.4785582 0 1 0 -0.923765,0 z"
     id="path28"
     style="stroke-width:0.235073" /><path
     class="c"
     d="m 61.891212,47.272409 c -0.625389,0.892511 -1.289114,1.831203 -2.179162,2.460028 a 3.484904,3.6107216 0 0 1 -1.413361,0.616143 1.0646393,1.1030766 0 0 1 -1.161634,-0.628585 1.8184317,1.8840837 0 0 1 -0.173437,-0.727409 c -0.03857,-0.358919 -0.05843,-0.720948 -0.06259,-1.082499 a 12.86343,13.327846 0 0 1 0.146878,-2.153512 c 0.09792,-0.667349 0.204152,-1.334459 0.330016,-1.996545 0.06259,-0.330922 0.131174,-0.660649 0.209002,-0.987983 q 0.06489,-0.272778 0.138564,-0.542925 c 0.01963,-0.07178 0.04018,-0.143567 0.06074,-0.215351 a 0.99812826,1.0341642 0 0 0 0.03487,-0.122032 q 0.02494,-0.08183 -0.115471,0.0335 c 0,-0.0048 0.404148,0.190226 0.436941,0.208172 0.230942,0.125861 0.460266,0.255311 0.688667,0.386197 0.364656,0.20913 0.733008,0.416585 1.084038,0.649882 0.501836,0.33499 0.965566,-0.49435 0.466271,-0.82647 -0.382208,-0.254115 -0.785201,-0.478559 -1.181727,-0.705634 -0.403223,-0.229948 -0.881965,-0.589584 -1.345464,-0.65395 -0.90067,-0.124904 -1.026533,0.967884 -1.182881,1.643848 -0.184753,0.802303 -0.318237,1.61633 -0.445023,2.430358 a 16.945778,17.557582 0 0 0 -0.24757,2.50908 c -0.0058,0.38165 0.0046,0.763539 0.03533,1.143754 a 4.1594835,4.3096558 0 0 0 0.195377,1.199267 c 0.230941,0.613033 0.767648,1.234441 1.408741,1.374419 0.6501,0.141893 1.346158,-0.07178 1.933903,-0.353176 1.352161,-0.646054 2.287935,-1.960892 3.13803,-3.174515 a 0.46557763,0.48238667 0 0 0 -0.165815,-0.654669 0.47204399,0.48908648 0 0 0 -0.631856,0.171564 z"
     id="path29"
     style="stroke-width:0.235073" /><path
     class="c"
     d="m 61.36559,41.515592 a 1.954918,2.0254976 0 0 0 -1.056557,-2.543297 c -0.851018,-0.41156 -1.925357,-0.302689 -2.556751,0.471858 a 2.0985635,2.1743292 0 0 0 -0.494676,1.528515 0.47227493,0.48932576 0 0 0 0.461882,0.478559 0.46627046,0.48310451 0 0 0 0.461883,-0.478559 c -0.0035,-0.06173 -0.0053,-0.123468 -0.0032,-0.185441 0,-0.0201 0.0217,-0.200038 0.0049,-0.09739 a 2.1708481,2.2492236 0 0 1 0.07483,-0.297663 q 0.0291,-0.07824 0,-0.006 c 0.01155,-0.02608 0.02309,-0.05192 0.03649,-0.07753 0.01894,-0.03805 0.03972,-0.07538 0.06166,-0.111504 0.01016,-0.01699 0.11062,-0.150746 0.04873,-0.07609 0.03603,-0.04355 0.07275,-0.08566 0.112468,-0.125382 q 0.04503,-0.04474 0.09238,-0.08566 c -0.07252,0.06149 0.06213,-0.04091 0.07737,-0.05073 0.04873,-0.03062 0.09884,-0.0579 0.150112,-0.08351 -0.08014,0.0402 0.04273,-0.01651 0.05103,-0.01938 a 1.6320621,1.6909854 0 0 1 0.17159,-0.05049 c 0.02794,-0.0065 0.05589,-0.0122 0.08406,-0.01723 q -0.07806,0.0093 0.0049,0 a 2.4710717,2.5602864 0 0 1 0.300223,0 c 0.05543,0.006 0.05728,0.006 0.006,0 0.0284,0.0048 0.05682,0.01005 0.08499,0.01627 q 0.06374,0.01387 0.126556,0.0323 c 0.05566,0.01627 0.11039,0.03566 0.164661,0.05671 -0.08406,-0.03254 0.07136,0.0359 0.08706,0.04451 0.03834,0.02058 0.07598,0.04283 0.11293,0.06628 0.01386,0.0089 0.153345,0.108871 0.08291,0.05312 a 2.1246598,2.2013678 0 0 1 0.216854,0.213198 c 0.03418,0.04307 0.03672,0.04498 0.0083,0.006 0.01686,0.02393 0.03302,0.04786 0.04873,0.07178 0.03141,0.04953 0.05682,0.101454 0.08545,0.15242 0.04618,0.08351 -0.0076,-0.05623 0.02309,0.05241 a 1.3112846,1.3586268 0 0 1 0.04619,0.194774 c -0.0083,-0.06676 0.0019,0.08973 0.0021,0.107915 0,0.06245 -0.003,0.123946 -0.006,0.186159 q -0.0097,0.09069 -0.0012,0.02943 c -0.0051,0.03398 -0.01085,0.06748 -0.01732,0.100975 -0.01247,0.06341 -0.02817,0.125622 -0.04618,0.187595 a 0.4620059,0.47868597 0 0 0 0.89074,0.254593 z"
     id="path30"
     style="stroke-width:0.235073" /><path
     class="c"
     d="m 59.376492,51.783538 c 0,0.530481 0.01639,1.060245 0.02956,1.590487 a 2.2218861,2.3021042 0 0 0 0.567423,1.583789 c 0.327705,0.328769 0.81961,0.440512 1.250547,0.532396 a 13.287438,13.767162 0 0 0 2.053299,0.287135 c 1.422829,0.06915 2.841733,-0.152661 4.242622,-0.385001 0.561649,-0.09308 1.197431,-0.171562 1.672708,-0.526413 0.550564,-0.410843 0.552642,-1.106666 0.571348,-1.741713 0.08383,-2.843832 0.264197,-5.697475 -0.15473,-8.5236 -0.196531,-1.326803 -0.450798,-2.803155 -1.360475,-3.824876 -0.792128,-0.88964 -1.90134,-1.014066 -3.002237,-0.855184 a 13.810289,14.30889 0 0 0 -3.810531,1.145189 3.8712688,4.0110356 0 0 0 -1.447078,1.390452 13.194137,13.670493 0 0 0 -1.229994,2.203521 0.47527717,0.49243639 0 0 0 0.165585,0.654907 0.46580858,0.48262595 0 0 0 0.632087,-0.171802 13.64863,14.141395 0 0 1 0.946859,-1.773298 c 0.309693,-0.49124 0.656566,-1.035122 1.151473,-1.345466 a 5.3483693,5.5414647 0 0 1 1.055864,-0.450563 c 0.53232,-0.187834 1.073415,-0.35198 1.619591,-0.491 0.875267,-0.223009 2.001107,-0.522586 2.833419,-0.0065 0.923765,0.573073 1.198816,1.834074 1.39627,2.845507 0.476894,2.445432 0.422854,4.939677 0.340408,7.419805 q -0.03487,1.047325 -0.06721,2.09465 c -0.006,0.19573 0.0067,0.472815 -0.138565,0.625714 a 1.2549349,1.3002427 0 0 1 -0.544097,0.235451 15.10356,15.648853 0 0 1 -1.830441,0.323506 c -0.614304,0.0914 -1.232303,0.163667 -1.85238,0.195251 A 11.32282,11.731615 0 0 1 62.46417,54.748172 6.4894502,6.7237427 0 0 1 60.791,54.378964 0.62354147,0.64605357 0 0 1 60.473687,54.043973 1.5722483,1.6290121 0 0 1 60.330966,53.379735 c -0.0134,-0.532158 -0.03002,-1.063596 -0.02979,-1.595753 0,-0.615904 -0.923765,-0.617101 -0.923765,0 z"
     id="path31"
     style="stroke-width:0.235073" /><path
     class="c"
     d="m 66.86615,40.481906 a 6.7224699,6.9651753 0 0 1 0.864875,-1.049238 10.215457,10.584272 0 0 0 0.975957,-1.270333 5.7181062,5.9245505 0 0 0 0.940163,-3.166619 5.4964027,5.6948426 0 0 0 -2.593472,-4.793239 c -1.610584,-1.038233 -3.662035,-1.004972 -5.326198,-0.11294 a 5.837041,6.0477792 0 0 0 -3.080757,5.072716 c -0.110159,2.372693 1.354008,5.120574 3.92323,5.040176 0.593058,-0.01866 0.595598,-0.97602 0,-0.957117 -1.902494,0.05982 -2.966441,-1.941989 -3.004315,-3.689684 a 4.9190494,5.0966448 0 0 1 2.327657,-4.466383 c 1.334379,-0.833648 3.066669,-0.989659 4.455089,-0.205541 a 4.5652474,4.7300692 0 0 1 2.363684,3.745435 4.8128164,4.9865765 0 0 1 -0.827925,3.088616 9.9535696,10.312929 0 0 1 -0.946859,1.196395 6.5982235,6.8364431 0 0 0 -0.869955,1.082977 c -0.302303,0.531918 0.49583,1.014065 0.797671,0.483104 z"
     id="path32"
     style="stroke-width:0.235073" /><path
     class="c"
     d="m 60.604176,31.85757 a 9.9145407,10.272491 0 0 0 2.962053,3.135752 0.46511575,0.48190811 0 0 0 0.631855,-0.171802 0.47227493,0.48932576 0 0 0 -0.165585,-0.654667 q -0.207846,-0.141654 -0.409227,-0.294074 c -0.03187,-0.02393 -0.06351,-0.04786 -0.09515,-0.07346 l -0.03788,-0.02967 c 0.02448,0.01986 0.02448,0.01986 0,0 Q 63.387473,33.686379 63.287014,33.6 a 9.3131695,9.6494081 0 0 1 -0.714759,-0.682418 c -0.226784,-0.240476 -0.438788,-0.493633 -0.642247,-0.755883 l -0.02933,-0.03852 c 0.01894,0.02561 0.01871,0.02561 0,0 -0.02309,-0.03254 -0.04757,-0.06532 -0.07113,-0.0981 q -0.0709,-0.09883 -0.138562,-0.199089 -0.150343,-0.221093 -0.287984,-0.450802 a 0.46197624,0.47865525 0 0 0 -0.797671,0.483105 z"
     id="path33"
     style="stroke-width:0.235073" /><path
     class="c"
     d="m 64.000861,35.103391 c 0.02309,-0.006 0.135563,-0.01938 0.02194,-0.01077 0.03695,-0.0029 0.07321,-0.006 0.110159,-0.006 0.03695,0 0.07367,0.0029 0.110391,0.0067 -0.06236,-0.0067 -0.04827,-0.0069 0.0046,0.0062 0.0358,0.0089 0.07067,0.02393 0.106464,0.0323 0.05058,0.01196 -0.06559,-0.03948 0.009,0.0033 0.03257,0.01866 0.06559,0.03565 0.097,0.05599 0.02309,0.01555 0.09238,0.08638 0.02587,0.01579 0.02564,0.0268 0.05404,0.0536 0.0806,0.07944 0.06674,0.06556 -0.03141,-0.06556 0.02056,0.02392 0.01639,0.02776 0.03348,0.05456 0.0485,0.08327 0.0097,0.01818 0.01871,0.03661 0.02702,0.05551 -0.01686,-0.04259 -0.01963,-0.04786 -0.0083,-0.01555 0.0079,0.03446 0.02147,0.06795 0.03002,0.102412 0.0085,0.03445 0.02309,0.128492 0.01317,0.04236 a 1.6514612,1.7110849 0 0 1 0.0046,0.262011 c -0.0035,0.10289 0.01871,-0.06125 -0.0055,0.04786 -0.0079,0.03613 -0.01455,0.07178 -0.02309,0.108393 -0.01085,0.04307 -0.02309,0.08542 -0.03765,0.127536 -0.01062,0.03135 -0.03811,0.09093 -0.0097,0.02943 a 1.8616177,1.9288288 0 0 1 -0.126787,0.228511 c -0.07298,0.115572 0.05543,-0.06149 -0.03141,0.04474 -0.02794,0.03445 -0.05658,0.06843 -0.08637,0.101214 A 2.1967135,2.2760228 0 0 1 64.207356,36.7 c -0.02009,0.01794 -0.07783,0.06509 -0.02679,0.02513 -0.03487,0.02752 -0.07113,0.05336 -0.107849,0.07848 a 2.324655,2.4085834 0 0 1 -0.225861,0.136868 c -0.03834,0.0201 -0.07713,0.03972 -0.115471,0.05695 0.0739,-0.0323 -0.02564,0.0074 -0.04618,0.01508 a 0.46197537,0.47865434 0 1 0 0.24549,0.9229 c 0.901826,-0.329488 1.689567,-1.143994 1.701345,-2.183422 a 1.5413022,1.5969487 0 0 0 -0.612225,-1.320581 1.5115107,1.5660818 0 0 0 -1.262094,-0.250765 0.46197537,0.47865434 0 1 0 0.24549,0.9229 z"
     id="path34"
     style="stroke-width:0.235073" /><path
     class="c"
     d="m 63.822343,37.850315 a 5.0677756,5.2507405 0 0 0 2.721643,2.153512 0.46557763,0.48238667 0 0 0 0.568347,-0.334991 0.47273682,0.48980432 0 0 0 -0.323318,-0.588627 c -0.119397,-0.04067 -0.236022,-0.08758 -0.353571,-0.133995 0.103692,0.04091 -0.0127,-0.006 -0.02702,-0.01268 l -0.06767,-0.03183 q -0.08452,-0.04044 -0.166971,-0.08447 a 5.5194968,5.7187705 0 0 1 -0.64178,-0.413705 c -0.05635,-0.04091 0.08383,0.07035 -0.0088,-0.0067 -0.02309,-0.01986 -0.04803,-0.03996 -0.07159,-0.06006 -0.04757,-0.04091 -0.09422,-0.08255 -0.139951,-0.125382 q -0.138564,-0.129211 -0.26512,-0.270386 -0.0642,-0.07178 -0.124939,-0.145002 c -0.02056,-0.02393 -0.04064,-0.04977 -0.06051,-0.07514 -0.0076,-0.0093 -0.07321,-0.09571 -0.03464,-0.04379 0.03857,0.05192 -0.0261,-0.03613 -0.03302,-0.04594 -0.01894,-0.0268 -0.03765,-0.0536 -0.05589,-0.08064 -0.04087,-0.0603 -0.07991,-0.121555 -0.118243,-0.183288 a 0.46197606,0.47865506 0 1 0 -0.79767,0.483104 z"
     id="path35"
     style="stroke-width:0.235073" /><path
     style="fill:#e29871;fill-opacity:1;stroke-width:0.0453325"
     d="m 10.804692,22.060787 c -0.8915912,-0.892793 -1.6760722,-1.6517 -1.7432899,-1.686461 -0.099682,-0.05155 -0.5593607,-0.06382 -2.4933058,-0.06658 -1.6151008,-0.0023 -2.3897559,-0.01887 -2.4296308,-0.05196 -0.032196,-0.02672 -0.058539,-0.03508 -0.058539,-0.01858 0,0.0165 -0.028458,0.0037 -0.06324,-0.02845 -0.034783,-0.03215 -0.053978,-0.07376 -0.042657,-0.09245 0.011321,-0.0187 0.00266,-0.034 -0.019233,-0.034 -0.022454,0 -0.04259,-1.470987 -0.046177,-3.373241 -0.0056,-2.973732 0.00183,-3.380039 0.062812,-3.430648 0.043562,-0.03615 0.3072272,-0.07014 0.7121566,-0.0918 0.758316,-0.04056 10.7761329,-0.04059 11.5681199,-4.3e-5 0.484399,0.0248 0.542531,0.03654 0.53067,0.107184 -0.0073,0.04363 0.0079,0.07934 0.0338,0.07934 0.06234,0 0.05959,6.647283 -0.0028,6.763855 -0.02395,0.04475 -0.07342,0.08135 -0.109943,0.08135 -0.03652,0 -0.06641,0.0153 -0.06641,0.034 -3e-6,0.0187 -0.902687,0.0412 -2.005964,0.04998 -1.527123,0.01217 -2.040408,0.03026 -2.150282,0.07577 -0.161597,0.06693 -0.353319,0.332277 -0.398536,0.551575 -0.02484,0.12044 0.09155,0.898858 0.320639,2.144626 0.01146,0.06233 0.03061,0.181832 0.04255,0.265555 0.01194,0.08373 0.03041,0.166296 0.04104,0.183495 0.01063,0.0172 0.0013,0.0604 -0.02068,0.09601 -0.03043,0.04924 -0.42807,-0.323843 -1.661088,-1.558522 z M 7.7241702,17.482588 c 0.2560944,-0.195333 0.357838,-0.437069 0.337257,-0.801302 -0.030551,-0.540673 -0.3345338,-0.835591 -0.8570545,-0.831497 -0.4870785,0.0039 -0.8143076,0.307024 -0.8490025,0.786677 -0.046049,0.636619 0.3126796,1.01852 0.9263895,0.986231 0.2198321,-0.01157 0.3122576,-0.04084 0.4424105,-0.140109 z m 3.0458648,0.06579 c 0.337055,-0.153082 0.495899,-0.465527 0.46361,-0.911915 -0.04022,-0.556123 -0.542266,-0.914658 -1.078548,-0.770251 -0.4146551,0.111654 -0.6352687,0.416425 -0.6352687,0.8776 0,0.688866 0.6226667,1.089582 1.2502067,0.804566 z m 3.13551,0.01623 c 0.09179,-0.03834 0.206209,-0.104645 0.254275,-0.147327 0.228123,-0.202566 0.327657,-0.747473 0.194673,-1.065749 -0.149826,-0.358584 -0.600335,-0.581186 -0.993316,-0.49081 -0.289095,0.06649 -0.422411,0.161083 -0.561503,0.398424 -0.102641,0.175144 -0.114376,0.238198 -0.09943,0.534232 0.01478,0.292779 0.03464,0.357788 0.155457,0.508974 0.07618,0.09533 0.208457,0.208992 0.293949,0.252585 0.192059,0.09793 0.534179,0.102313 0.755893,0.0097 z"
     id="path36" /><path
     style="fill:#e29871;fill-opacity:1;stroke-width:0.0453325"
     d="m 40.425218,27.034261 c -0.01243,-0.02131 0.05569,-0.456942 0.151387,-0.968066 0.09569,-0.511124 0.174743,-1.017028 0.175658,-1.124231 0.0018,-0.217274 -0.07282,-0.390591 -0.232023,-0.538512 -0.104287,-0.0969 -0.138563,-0.09922 -1.806274,-0.122145 -1.663223,-0.02287 -1.973696,-0.04292 -1.923428,-0.124261 0.01365,-0.02208 0.0061,-0.04015 -0.01669,-0.04015 -0.02283,0 -0.04092,-0.0561 -0.04021,-0.124664 7.11e-4,-0.06856 -0.01372,-0.481658 -0.03207,-0.917984 -0.04763,-1.132646 0.03062,-4.507496 0.10664,-4.599094 0.03202,-0.03858 0.122025,-0.07159 0.200003,-0.07334 0.119834,-0.0027 0.127746,-0.0091 0.05111,-0.04167 -0.05024,-0.02132 2.256676,-0.03506 5.174136,-0.03082 l 5.264802,0.0077 0.09339,0.113331 c 0.09252,0.112285 0.09321,0.138985 0.07411,2.89218 -0.02034,2.93154 -0.01531,2.866725 -0.225287,2.903666 -0.04987,0.0088 -0.967849,0.01897 -2.039963,0.02267 -1.815431,0.0063 -1.960054,0.01257 -2.105931,0.09202 -0.08615,0.04692 -0.596138,0.51542 -1.133312,1.041115 -1.621107,1.586465 -1.712595,1.672485 -1.736051,1.632279 z m -0.637556,-5.005544 c 0.184046,-0.06953 0.366701,-0.259377 0.42786,-0.44469 0.17075,-0.517377 -0.177411,-1.003066 -0.719038,-1.003066 -0.292685,0 -0.499073,0.135365 -0.640255,0.419925 -0.303142,0.611008 0.293136,1.268996 0.931433,1.027831 z m 2.814143,-0.07292 c 0.216173,-0.161397 0.298625,-0.316079 0.31569,-0.592243 0.01961,-0.317384 -0.105151,-0.56719 -0.350265,-0.70131 -0.208951,-0.114333 -0.626192,-0.09375 -0.805262,0.03972 -0.442562,0.329873 -0.386659,1.064334 0.09828,1.291196 0.229286,0.107263 0.570899,0.09005 0.741557,-0.03737 z m 2.617385,0.03047 c 0.270632,-0.13101 0.40143,-0.38124 0.376856,-0.720964 -0.03172,-0.438595 -0.289147,-0.684339 -0.716858,-0.684339 -0.43968,0 -0.72532,0.285599 -0.72532,0.725218 0,0.335336 0.110825,0.538788 0.364286,0.668757 0.245728,0.126002 0.457096,0.129418 0.701036,0.01132 z"
     id="path37" /></svg>
