<?xml version="1.0" encoding="UTF-8" standalone="no"?>
<svg
   id="b"
   width="255.673"
   height="290.79599"
   viewBox="0 0 255.673 290.796"
   version="1.1"
   xml:space="preserve"
   xmlns="http://www.w3.org/2000/svg"
   xmlns:svg="http://www.w3.org/2000/svg"><defs
     id="defs1"><style
       id="style1">.g{fill:#f4b467;}.h{fill:#211715;}.i{fill:#fff;}.j{fill:#645d5c;}</style><style
       id="style1-8">.d{fill:#ffda71;}.d,.e,.f{stroke-width:0px;}.e{fill:#f8b8b4;}.f{fill:#211715;}</style></defs><g
     id="c"><g
       id="d"><path
         class="i"
         d="m 182.17,89.672 c 1.71,-1.53 4.23,-2.28 6.59,-1.92 2.35,0.35 4.5,1.77 5.58,3.71 0.76,1.36 1.01,2.91 1.15,4.42 0.52,5.95 -0.66,12.02 -3.35,17.44 -1.32,2.65 -3.03,5.18 -5.41,7.1 -1.789,1.43 -4.808,1.81 -7.287,1.795 -0.581,2.439 -1.343,4.561 -1.686,5.602 -2.125,5.767 -15.342,28.21 -31.001,31.69 0,0 -6.457,2.293 -15.148,2.782 -9.889,0.556 -17.623,-0.68 -17.623,-0.68 -10.295,-1.46 -19.747,-8.015 -27.549,-17.353 -5.877,-7.034 -9.08,-14.894 -10.908,-21.697 -0.396,0.099 -0.615,0.154 -0.615,0.154 -3.282,0.82 -5.866,-0.831 -7.696,-2.29 -2.382,-1.926 -4.095,-4.456 -5.409,-7.099 -2.699,-5.425 -3.872,-11.492 -3.356,-17.446 0.141,-1.51 0.387,-3.059 1.15,-4.418 1.079,-1.938 3.227,-3.361 5.585,-3.713 2.358,-0.352 4.881,0.39 6.582,1.926 0,0 -0.051,-49.716 54.764,-49.716 60.741,0 55.636,49.714 55.636,49.714 z"
         id="path1" /><path
         class="j"
         d="m 191.505,56.595 c -0.29,-1.867 -0.599,-3.566 -0.894,-5.03 C 184.89,23.295 156.63,0.845 127,2.485 97.37,0.845 69.11,23.295 63.39,51.565 c -1.55,7.62 -1.36,20.67 0.05,26.75 l 2.528,9.362 c 2.817,-0.142 5.713,1.206 7.056,3.54 11.125,-8.778 31.145,-21.646 40.985,-30.108 -0.846,5.25 -3.852,14.18 -0.066,13.262 15.811,-3.661 30.965,-11.044 40.128,-22.563 1.931,6.802 5.123,15.989 7.468,20.004 2.979,5.102 10.931,16.073 18.673,19.552 1.136,-0.984 1.957,-1.692 1.957,-1.692 1.71,-1.53 4.23,-2.28 6.59,-1.92 0.681,0.101 1.345,0.293 1.97,0.563 3.212,-9.112 2.214,-22.468 0.775,-31.721 z"
         id="path2" /><path
         class="j"
         d="m 55.873,117.349 c 0.152,-0.466 0.327,-0.925 0.525,-1.376 0.911,-2.072 2.411,-3.947 4.266,-5.21 0.344,0.868 0.725,1.723 1.143,2.563 1.314,2.643 3.027,5.173 5.409,7.099 1.829,1.459 4.414,3.111 7.696,2.29 0,0 0.214,-0.054 0.614,-0.156 1.828,6.803 5.031,14.665 10.909,21.699 1.164,1.393 2.364,2.724 3.599,3.985 -2.035,5.775 -7.226,11.336 -12.502,14.507 -4.122,2.478 -8.366,4.115 -13.512,3.501 -0.931,-0.111 -1.909,-0.168 -2.343,-1 -0.627,-1.2 1.339,-3.404 2.457,-5.554 1.327,-2.552 0.53,-6.68 -0.416,-9.396 -0.946,-2.716 -2.522,-5.16 -3.843,-7.715 -2.447,-4.734 -4.033,-9.911 -4.658,-15.203 -0.396,-3.354 -0.388,-6.845 0.656,-10.034 z"
         id="path3" /><path
         class="h"
         d="m 57.396,110.362 c -5.23,5.315 -5.348,13.002 -4.166,19.92 0.626,3.668 1.735,7.212 3.209,10.625 1.363,3.154 3.333,6.013 4.647,9.183 0.947,2.286 1.956,5.616 1.101,8.064 -0.888,2.541 -3.834,4.752 -2.824,7.735 1.163,3.436 6.422,3.08 9.266,2.717 3.217,-0.411 6.231,-1.589 9.051,-3.167 6.462,-3.615 12.002,-9.424 14.616,-16.409 0.454,-1.214 -0.506,-2.631 -1.676,-2.952 -1.345,-0.37 -2.496,0.458 -2.952,1.676 -1.919,5.131 -6.114,9.592 -10.68,12.509 -2.243,1.433 -4.636,2.65 -7.232,3.286 -1.255,0.307 -2.501,0.444 -3.794,0.428 -0.645,-0.008 -1.303,-0.03 -1.941,-0.127 0.049,0.007 -0.768,-0.093 -0.72,-0.144 0.461,0.225 0.666,0.549 0.615,0.971 -0.02,0.365 0.007,0.365 0.08,0.001 0.677,-0.908 1.234,-2.065 1.812,-3.054 0.771,-1.318 1.212,-2.661 1.365,-4.179 0.261,-2.591 -0.286,-5.341 -1.14,-7.784 -1.024,-2.93 -2.67,-5.545 -4.085,-8.288 -1.444,-2.798 -2.543,-5.748 -3.327,-8.797 -1.544,-6.003 -2.608,-13.967 2.169,-18.822 2.169,-2.204 -1.223,-5.6 -3.394,-3.394 v 0 z"
         id="path4" /><path
         class="h"
         d="m 177.793,116.989 c -0.082,2.502 -0.684,4.939 -1.412,7.324 -0.255,0.835 -0.53,1.664 -0.811,2.491 -0.068,0.199 -0.138,0.396 -0.208,0.594 -0.254,0.721 0.119,-0.224 -0.092,0.229 -1.089,2.348 -2.329,4.607 -3.691,6.809 -3.967,6.409 -8.782,12.479 -14.676,17.222 -3.198,2.573 -6.802,4.622 -10.784,5.536 -3.009,0.691 -1.736,5.32 1.276,4.629 8.213,-1.887 15.043,-7.907 20.403,-14.134 4.468,-5.191 8.618,-11.033 11.463,-17.293 1.881,-4.14 3.183,-8.863 3.333,-13.407 0.102,-3.09 -4.698,-3.086 -4.8,0 v 0 z"
         id="path5" /><path
         class="h"
         d="m 73.467,87.977 c -3.265,-2.788 -7.717,-3.489 -11.635,-1.665 -4.046,1.884 -5.504,5.823 -5.815,10.014 -0.62,8.357 1.955,17.832 7.698,24.095 3.057,3.334 7.235,5.619 11.836,4.608 3.016,-0.663 1.739,-5.291 -1.276,-4.629 -3.259,0.716 -6.273,-2.083 -8.09,-4.468 -2.538,-3.33 -4.088,-7.475 -4.902,-11.55 -0.412,-2.064 -0.579,-4.163 -0.545,-6.267 0.03,-1.839 0.059,-3.97 1.027,-5.594 1.678,-2.818 5.895,-3.212 8.309,-1.151 0.985,0.841 2.427,0.967 3.394,0 0.862,-0.862 0.99,-2.549 0,-3.394 v 0 z"
         id="path6" /><path
         class="h"
         d="m 70.841,110.282 c 1.007,8.25 2.827,16.295 6.365,23.86 4.486,9.592 11.963,18.073 20.859,23.82 4.618,2.984 9.828,5.158 15.283,5.964 1.281,0.189 2.579,-0.319 2.952,-1.676 0.311,-1.131 -0.386,-2.762 -1.676,-2.952 -9.325,-1.378 -17.261,-6.792 -23.635,-13.523 -6.584,-6.953 -10.955,-15.321 -13.335,-24.57 -0.519,-2.018 -0.951,-4.058 -1.308,-6.111 -0.162,-0.93 -0.308,-1.862 -0.441,-2.796 -0.097,-0.678 -0.144,-1.04 -0.263,-2.015 -0.157,-1.286 -0.991,-2.4 -2.4,-2.4 -1.175,0 -2.558,1.105 -2.4,2.4 v 0 z"
         id="path7" /><path
         class="h"
         d="m 183.867,91.369 c 2.399,-2.033 6.436,-1.659 8.221,1.002 1.076,1.604 1.087,3.894 1.117,5.746 0.033,2.027 -0.118,4.054 -0.501,6.045 -0.782,4.059 -2.295,8.061 -4.705,11.441 -0.927,1.3 -2.135,2.785 -3.625,3.453 -1.518,0.68 -3.302,0.755 -4.934,0.755 -3.089,0 -3.094,4.799 0,4.8 3.962,0 7.52,-0.859 10.365,-3.744 2.912,-2.954 4.868,-6.776 6.234,-10.656 1.406,-3.993 2.086,-8.309 1.957,-12.542 -0.129,-4.233 -1.042,-8.262 -4.759,-10.73 -3.983,-2.645 -9.211,-1.975 -12.763,1.035 -0.989,0.838 -0.863,2.531 0,3.394 0.98,0.98 2.402,0.841 3.394,0 v 0 z"
         id="path8" /><path
         class="h"
         d="m 65.755,77.677 c -0.726,-3.212 -0.912,-6.528 -1.01,-9.911 -0.116,-4.017 -0.017,-8.056 0.42,-12.053 0.783,-7.174 3.387,-14.159 7.011,-20.367 7.567,-12.961 20.061,-23.059 34.334,-27.712 3.508,-1.144 7.145,-2.011 10.812,-2.442 3.891,-0.458 7.762,-0.305 11.664,-0.38 7.599,-0.147 15.125,1.347 22.181,4.149 13.929,5.531 25.791,16.385 32.498,29.78 3.182,6.355 4.786,13.173 5.776,20.172 1.083,7.652 1.667,15.782 0.331,23.437 -0.316,1.809 -0.755,3.591 -1.355,5.328 -1.011,2.926 3.624,4.183 4.629,1.276 2.72,-7.872 2.542,-16.718 1.786,-24.907 C 194.139,56.542 193,48.909 190.256,41.854 184.385,26.759 172.634,14.186 158.199,6.905 150.919,3.233 143.032,0.911 134.903,0.211 c -2.027,-0.174 -4.063,-0.242 -6.097,-0.195 -2.044,0.047 -4.083,-0.046 -6.129,0 -4.075,0.091 -8.161,0.618 -12.134,1.523 C 94.688,5.15 80.491,15.005 71.087,28.2 66.465,34.684 63.032,42.115 61.296,49.896 59.57,57.634 59.5,66.007 60.339,73.867 c 0.182,1.705 0.41,3.413 0.788,5.087 0.681,3.012 5.31,1.737 4.629,-1.276 v 0 z"
         id="path9" /><path
         class="h"
         d="m 151.992,53.271 c 1.162,3.973 2.453,7.912 3.925,11.782 1.162,3.053 2.393,6.116 4.111,8.905 3.402,5.523 7.584,10.87 12.508,15.115 2.797,2.411 6,4.664 9.662,5.483 3.009,0.673 4.294,-3.954 1.276,-4.629 -5.699,-1.275 -10.418,-6.612 -14.038,-11.025 -3.563,-4.343 -6.492,-8.975 -8.539,-14.213 -1.625,-4.159 -3.024,-8.41 -4.277,-12.694 -0.865,-2.959 -5.499,-1.7 -4.629,1.276 v 0 z"
         id="path10" /><path
         class="h"
         d="m 152.534,49.91 c -5.232,6.599 -12.105,11.552 -19.607,15.28 -3.888,1.932 -7.936,3.511 -12.076,4.813 -2.16,0.679 -4.343,1.284 -6.543,1.816 -0.266,0.064 -0.537,0.117 -0.801,0.19 -0.529,0.148 0.208,0.104 -0.006,0.024 0.157,0.059 0.66,0.208 0.95,0.561 -0.007,-0.008 0.222,0.388 0.091,0.152 -0.048,-0.086 -0.057,-0.248 -0.077,-0.349 0.115,0.579 0.013,-0.06 0.016,-0.179 0.083,-3.369 1.259,-6.94 1.845,-10.471 0.394,-2.376 -2.115,-3.96 -4.011,-2.335 -4.944,4.236 -10.283,8.009 -15.586,11.776 -6.044,4.294 -12.149,8.501 -18.145,12.864 -2.95,2.147 -5.878,4.331 -8.708,6.635 -1.006,0.819 -0.851,2.544 0,3.394 0.995,0.995 2.386,0.821 3.394,0 10.823,-8.808 22.762,-16.265 33.964,-24.601 2.884,-2.146 5.744,-4.333 8.475,-6.673 l -4.011,-2.335 c -0.622,3.745 -1.907,7.469 -2.013,11.285 -0.042,1.495 0.219,3.122 1.377,4.176 1.744,1.586 4.144,0.628 6.122,0.116 9.529,-2.467 18.919,-6.278 27.02,-11.929 4.383,-3.057 8.402,-6.622 11.727,-10.815 0.805,-1.015 0.991,-2.404 0,-3.394 -0.835,-0.835 -2.584,-1.021 -3.394,0 v 0 z"
         id="path11" /><path
         class="i"
         d="m 39.456,238.331 c 1.37,4.38 -3.055,12.708 -5.328,14.681 -3.882,3.368 -7.422,4.856 -12.482,4.952 -4.889,0.093 -10.702,-1.122 -14.173,-5.14 -2.92,-3.381 -4.352,-5.728 -5.025,-11.86 -0.312,-2.842 0.842,-11.847 3.255,-16.249 l 33.752,13.616 z"
         id="path12" /><path
         class="h"
         d="m 37.142,238.969 c 0.197,0.689 0.226,1.423 0.127,2.215 -0.143,1.145 -0.499,2.29 -0.886,3.373 -0.688,1.926 -1.66,3.787 -2.828,5.466 -0.345,0.495 -0.117,0.22 -0.482,0.633 -0.204,0.232 -0.415,0.45 -0.643,0.659 -0.979,0.897 -2.096,1.667 -3.247,2.325 -2.128,1.216 -4.49,1.801 -6.93,1.905 -4.847,0.207 -10.009,-0.837 -13.294,-4.663 -2.647,-3.083 -4.15,-6.802 -4.161,-11.03 -0.006,-2.281 0.321,-4.575 0.759,-6.809 0.476,-2.427 1.081,-4.983 2.218,-7.116 1.453,-2.725 -2.689,-5.152 -4.145,-2.423 -2.47,4.633 -3.449,10.452 -3.62,15.657 -0.17,5.164 1.557,10.16 4.762,14.161 3.988,4.978 9.932,7.006 16.185,7.047 3.128,0.02 6.204,-0.504 9.066,-1.785 2.377,-1.064 4.89,-2.687 6.581,-4.696 1.839,-2.186 3.15,-4.787 4.177,-7.437 1.051,-2.713 1.808,-5.882 0.988,-8.756 -0.846,-2.965 -5.479,-1.705 -4.629,1.276 v 0 z"
         id="path13" /><path
         class="i"
         d="m 249.957,224.715 c 2.413,4.402 3.567,13.407 3.255,16.249 -0.673,6.132 -2.104,8.479 -5.025,11.86 -3.471,4.018 -9.284,5.233 -14.173,5.14 -5.06,-0.096 -8.599,-1.584 -12.482,-4.952 -2.273,-1.972 -6.698,-10.301 -5.328,-14.681 l 33.752,-13.616 z"
         id="path14" /><path
         class="h"
         d="m 213.891,237.693 c -0.73,2.56 -0.192,5.364 0.65,7.83 0.827,2.424 1.956,4.817 3.421,6.922 3.254,4.677 8.882,7.362 14.463,7.838 5.997,0.512 12.98,-0.907 17.214,-5.486 3.719,-4.022 5.739,-8.848 6.011,-14.341 0.131,-2.657 -0.316,-5.404 -0.789,-8.008 -0.557,-3.068 -1.355,-6.177 -2.831,-8.944 -1.454,-2.727 -5.599,-0.305 -4.145,2.423 1.965,3.684 2.723,8.522 2.943,12.731 0.207,3.959 -0.816,7.971 -3.158,11.047 -1.427,1.874 -3.138,3.488 -5.372,4.445 -2.165,0.927 -4.555,1.327 -6.897,1.405 -4.742,0.157 -9.557,-1.261 -12.813,-4.899 -1.047,-1.17 -2.346,-3.606 -3.08,-5.483 -0.448,-1.145 -0.813,-2.331 -1.039,-3.54 -0.175,-0.941 -0.176,-1.869 0.051,-2.664 0.849,-2.976 -3.781,-4.246 -4.629,-1.276 z"
         id="path15" /><g
         id="e"><path
           class="h"
           d="m 115.925,135.509 c 3.086,3.021 7.982,3.892 12.121,3.889 4.139,-0.003 9.036,-0.867 12.124,-3.889 2.211,-2.164 -1.184,-5.557 -3.394,-3.394 -0.1,0.098 -0.606,0.528 -0.317,0.299 0.268,-0.213 -0.385,0.257 -0.538,0.351 -0.27,0.166 -0.549,0.319 -0.832,0.461 -0.19,0.096 -0.384,0.187 -0.579,0.272 0.322,-0.139 -0.041,0.013 -0.18,0.063 -2.037,0.734 -4.123,1.036 -6.284,1.038 -2.109,0.001 -4.185,-0.273 -6.174,-0.995 -0.018,-0.006 -0.725,-0.293 -0.293,-0.105 -0.164,-0.071 -0.325,-0.148 -0.485,-0.226 -0.315,-0.155 -0.624,-0.323 -0.923,-0.507 -0.23,-0.142 -0.445,-0.3 -0.668,-0.452 0.605,0.413 -0.037,-0.053 -0.184,-0.198 -2.209,-2.163 -5.606,1.229 -3.394,3.394 v 0 z"
           id="path16" /><path
           class="h"
           d="m 127.527,112.612 c 0.463,1.766 0.908,3.561 1.173,5.369 l -0.086,-0.638 c 0.031,0.248 0.045,0.492 0.02,0.741 l 0.086,-0.638 c -0.018,0.115 -0.043,0.223 -0.082,0.333 l 0.242,-0.573 c -0.034,0.078 -0.07,0.144 -0.118,0.214 l 0.375,-0.486 c -0.055,0.067 -0.108,0.119 -0.175,0.173 l 0.486,-0.375 c -0.136,0.087 -0.279,0.158 -0.425,0.225 l 0.573,-0.242 c -0.234,0.098 -0.466,0.169 -0.717,0.209 l 0.638,-0.086 c -0.226,0.027 -0.447,0.025 -0.673,-10e-4 l 0.638,0.086 c -0.254,-0.035 -0.503,-0.097 -0.756,-0.131 -0.67,-0.09 -1.239,-0.115 -1.849,0.242 -0.498,0.291 -0.973,0.862 -1.103,1.434 -0.14,0.614 -0.11,1.304 0.242,1.849 0.312,0.484 0.835,1.022 1.434,1.103 0.546,0.074 1.076,0.214 1.631,0.238 0.836,0.037 1.616,-0.216 2.364,-0.556 0.916,-0.417 1.628,-1.221 1.872,-2.208 0.206,-0.834 0.115,-1.583 -0.026,-2.418 -0.292,-1.73 -0.692,-3.444 -1.137,-5.14 -0.318,-1.214 -1.729,-2.072 -2.952,-1.676 -1.25,0.404 -2.018,1.651 -1.676,2.952 v 0 z"
           id="path17" /><path
           class="h"
           d="m 98.956,98.127 c -0.897,2.913 -0.312,9.616 5.207,10.186 7.295,-0.044 7.683,-8.147 5.228,-11.957 -2.011,-3.119 -7.923,-4.417 -10.435,1.771 z"
           id="path18" /><path
           class="h"
           d="m 156.125,98.127 c 0.897,2.914 0.313,9.616 -5.207,10.186 -7.295,-0.044 -7.684,-8.147 -5.228,-11.957 2.011,-3.119 7.923,-4.416 10.435,1.771 z"
           id="path19" /></g><g
         id="f"><path
           class="g"
           d="m 125.642,157.926 c -14.593,-9.78 -72.103,-20.327 -87.286,-20.675 -1.107,-0.025 -2.013,0.859 -2.015,1.966 -0.034,18.082 -0.338,106.275 -0.441,123.784 -0.006,0.993 0.792,1.878 1.781,1.961 14.257,1.188 74.379,16.755 87.984,23.049 1.144,0.529 3.007,0.523 4.147,-0.014 13.566,-6.39 73.281,-22.264 88.124,-23.053 1.012,-0.054 1.83,-0.941 1.824,-1.955 -0.104,-17.545 -0.407,-105.774 -0.441,-123.797 -0.002,-1.065 -0.856,-1.922 -1.921,-1.929 -17.255,-0.124 -72.25,11.616 -87.609,20.8 -1.16,0.694 -3.025,0.615 -4.148,-0.138 z"
           id="path20" /><path
           class="i"
           d="m 42.846,129.17 c 11.829,0.6 66.961,9.895 84.859,25.174 19.064,-15.424 65.421,-24.411 84.186,-25.526 0.585,-0.035 1.074,0.435 1.074,1.021 v 7.589 c -20.761,1.439 -68.963,12.135 -83.179,20.639 -1.158,0.692 -3.024,0.61 -4.145,-0.141 -13.671,-9.162 -64.997,-18.995 -83.915,-20.49 v -0.046 c 0,-2.089 0.031,-5.511 0.048,-7.217 0.006,-0.581 0.492,-1.031 1.072,-1.002 z"
           id="path21" /><path
           class="h"
           d="m 44.127,137.389 c 10e-4,-1.296 0.009,-2.593 0.021,-3.889 0.005,-0.541 0.01,-1.082 0.015,-1.623 0.003,-0.301 0.025,-0.607 0.009,-0.907 -0.05,-0.916 0.289,-0.03 -0.445,0.31 l -1.211,0.328 c 1.536,-0.171 3.253,0.188 4.78,0.364 0.468,0.054 0.936,0.11 1.403,0.169 0.248,0.031 0.495,0.062 0.743,0.094 0.156,0.02 0.99,0.131 0.427,0.055 1.198,0.162 2.395,0.335 3.59,0.516 5.823,0.882 11.62,1.948 17.385,3.149 13.391,2.79 26.826,6.195 39.513,11.375 2.824,1.153 5.908,2.576 8.732,4.126 1.337,0.734 2.651,1.514 3.922,2.358 0.561,0.372 1.113,0.757 1.655,1.156 0.117,0.086 0.233,0.173 0.349,0.26 0.568,0.428 -0.356,-0.291 0.19,0.149 0.271,0.218 0.539,0.438 0.804,0.662 1.072,0.909 2.31,0.872 3.394,0 1.63,-1.311 3.942,-2.848 6.022,-4.072 2.442,-1.437 4.969,-2.728 7.54,-3.919 5.604,-2.596 11.434,-4.697 17.32,-6.555 11.957,-3.774 24.254,-6.565 36.634,-8.531 2.917,-0.463 5.243,-0.793 8.059,-1.119 1.24,-0.144 2.481,-0.274 3.724,-0.386 1.14,-0.103 2.387,-0.329 3.526,-0.205 l -1.211,-0.328 c -0.861,-0.407 -0.373,-1.591 -0.451,-0.731 -0.025,0.275 0,0.566 0,0.842 v 2.633 c 0,1.277 0,2.555 0,3.832 0,3.089 4.8,3.094 4.8,0 v -6.559 c 0,-1.357 -0.056,-2.641 -1.146,-3.648 -1.304,-1.204 -3.155,-0.837 -4.76,-0.703 -6.217,0.521 -12.408,1.446 -18.548,2.54 -15.129,2.695 -30.279,6.451 -44.537,12.25 -7.205,2.93 -14.276,6.366 -20.367,11.263 h 3.394 c -4.772,-4.044 -10.435,-6.859 -16.164,-9.278 -6.929,-2.926 -14.098,-5.247 -21.339,-7.266 -13.189,-3.678 -26.689,-6.505 -40.255,-8.374 -2.439,-0.336 -4.883,-0.657 -7.338,-0.859 -1.784,-0.147 -3.579,-0.057 -4.543,1.76 -0.616,1.162 -0.397,2.76 -0.409,4.037 -0.015,1.574 -0.027,3.148 -0.028,4.722 -0.002,3.089 4.798,3.094 4.8,0 v 0 z"
           id="path22" /><path
           class="h"
           d="m 126.853,155.854 c -3.609,-2.399 -7.796,-3.982 -11.854,-5.436 -5.502,-1.972 -11.135,-3.58 -16.789,-5.051 -12.489,-3.249 -25.169,-5.83 -37.904,-7.902 -5.193,-0.845 -10.406,-1.611 -15.639,-2.155 -1.804,-0.187 -3.612,-0.35 -5.425,-0.428 -1.598,-0.068 -3.084,0.2 -4.208,1.461 -0.985,1.106 -1.093,2.456 -1.096,3.856 -0.017,8.052 -0.043,16.104 -0.069,24.156 -0.038,11.923 -0.078,23.847 -0.12,35.77 -0.042,12.011 -0.086,24.022 -0.133,36.033 -0.032,8.315 -0.064,16.63 -0.108,24.946 -0.003,0.581 -0.028,1.167 -0.01,1.748 0.066,2.138 1.376,3.995 3.542,4.426 0.837,0.166 1.727,0.195 2.575,0.297 0.405,0.049 -0.566,-0.083 0.1,0.014 0.181,0.027 0.362,0.052 0.543,0.078 0.469,0.069 0.938,0.142 1.406,0.218 4.585,0.744 9.135,1.706 13.669,2.707 12.074,2.664 24.068,5.712 35.991,8.98 10.112,2.772 20.317,5.557 30.129,9.28 0.382,0.145 0.763,0.292 1.142,0.443 0.19,0.075 0.379,0.151 0.568,0.228 0.109,0.044 0.753,0.314 0.381,0.156 -0.324,-0.138 0.498,0.221 0.684,0.303 0.917,0.405 1.758,0.682 2.764,0.781 1.72,0.169 3.185,-0.325 4.722,-1.01 0.145,-0.065 0.292,-0.127 0.438,-0.192 0.086,-0.038 0.174,-0.074 0.26,-0.112 0.285,-0.124 -0.462,0.191 -0.168,0.072 0.386,-0.158 0.772,-0.317 1.16,-0.471 4.15,-1.643 8.406,-3.025 12.661,-4.366 11.789,-3.716 23.728,-6.976 35.713,-9.995 10.474,-2.638 21.047,-5.271 31.741,-6.865 0.206,-0.031 0.412,-0.061 0.619,-0.09 0.237,-0.034 0.772,-0.104 0.211,-0.031 0.423,-0.055 0.846,-0.109 1.27,-0.156 0.73,-0.082 1.462,-0.13 2.193,-0.194 2.338,-0.207 4.18,-1.76 4.332,-4.195 0.039,-0.624 0.008,-1.258 0.004,-1.883 -0.018,-3.424 -0.033,-6.849 -0.048,-10.273 -0.046,-10.599 -0.086,-21.197 -0.125,-31.796 -0.046,-12.396 -0.089,-24.791 -0.13,-37.187 -0.035,-10.518 -0.069,-21.035 -0.1,-31.553 -0.01,-3.353 -0.019,-6.707 -0.026,-10.06 -0.002,-1.142 0.016,-2.264 -0.545,-3.308 -0.91,-1.697 -2.686,-2.25 -4.488,-2.232 -2.002,0.02 -4.002,0.163 -5.995,0.345 -12.08,1.107 -24.087,3.455 -35.917,6.079 -12.218,2.71 -24.504,5.76 -36.232,10.178 -2.191,0.825 -4.365,1.709 -6.486,2.703 -0.863,0.404 -1.717,0.829 -2.552,1.289 -0.894,0.492 -1.646,0.996 -2.655,0.395 -2.661,-1.584 -5.078,2.564 -2.423,4.145 1.792,1.067 4.089,1.249 6.004,0.405 0.919,-0.405 1.775,-0.966 2.673,-1.421 2.149,-1.088 3.576,-1.673 5.598,-2.46 5.251,-2.043 10.645,-3.717 16.061,-5.261 12.539,-3.574 25.303,-6.44 38.14,-8.719 5.522,-0.98 10.681,-1.795 16.006,-2.357 2.105,-0.222 4.217,-0.405 6.333,-0.485 0.427,-0.016 0.854,-0.028 1.282,-0.034 0.183,-0.003 0.382,0.022 0.562,-0.004 -0.024,0.003 0.309,0.005 0.31,0 -0.056,0.181 -0.447,-0.297 -0.415,-0.288 -0.216,-0.061 0.023,-0.288 -0.064,0.025 -0.032,0.116 0,0.311 0,0.432 0,0.311 0.001,0.622 0.002,0.934 0.018,8.057 0.044,16.114 0.069,24.17 0.037,11.712 0.077,23.423 0.118,35.135 0.041,11.844 0.084,23.688 0.131,35.533 0.032,8.304 0.064,16.608 0.107,24.912 0.003,0.617 0.006,1.235 0.01,1.852 0,0.118 -0.017,0.254 0.002,0.37 0.07,0.419 -0.1,0.069 0.084,-0.013 0.503,-0.224 0.214,-0.166 -0.262,-0.129 -1.804,0.14 -3.601,0.395 -5.388,0.669 -4.688,0.72 -9.34,1.683 -13.972,2.697 -11.994,2.624 -23.897,5.685 -35.721,8.986 -9.881,2.758 -19.851,5.548 -29.425,9.262 -0.9,0.349 -1.794,0.715 -2.682,1.096 -0.314,0.134 -0.627,0.268 -0.937,0.411 -0.105,0.048 -0.562,0.219 -0.181,0.091 -0.38,0.127 -0.735,0.195 -1.135,0.198 -0.406,0.003 -0.748,-0.061 -1.137,-0.186 0.306,0.098 0.024,0.002 -0.122,-0.059 -0.48,-0.2 -0.955,-0.415 -1.436,-0.615 -0.74,-0.309 -1.485,-0.605 -2.234,-0.89 -4.169,-1.587 -8.43,-2.938 -12.692,-4.249 -11.562,-3.556 -23.255,-6.7 -34.985,-9.647 -10.297,-2.586 -20.656,-5.134 -31.127,-6.924 -1.774,-0.303 -3.557,-0.578 -5.346,-0.775 -0.124,-0.014 -0.777,-0.164 -0.864,-0.086 0.446,-0.399 0.45,0.965 0.505,0.021 0.037,-0.618 0.007,-1.249 0.01,-1.868 0.018,-3.434 0.033,-6.869 0.048,-10.303 0.045,-10.438 0.084,-20.876 0.123,-31.315 0.045,-12.248 0.088,-24.497 0.129,-36.745 0.035,-10.385 0.069,-20.77 0.099,-31.155 0.01,-3.388 0.019,-6.776 0.027,-10.164 0,-0.295 0.189,-1.566 0.004,-1.774 0.329,0.369 -0.916,0.241 0.014,0.393 0.368,0.06 0.777,0.031 1.151,0.051 1.862,0.102 3.72,0.279 5.573,0.482 1.125,0.123 2.249,0.257 3.372,0.4 0.27,0.034 0.539,0.069 0.809,0.104 0.096,0.012 0.948,0.126 0.546,0.071 0.654,0.088 1.307,0.179 1.96,0.272 2.758,0.392 5.511,0.822 8.259,1.279 6.148,1.022 12.273,2.178 18.373,3.453 11.844,2.475 23.758,5.242 35.156,9.355 1.104,0.399 2.203,0.813 3.293,1.251 0.274,0.11 0.548,0.222 0.821,0.335 0.384,0.159 -0.201,-0.091 0.32,0.135 0.473,0.206 0.945,0.414 1.414,0.63 1.595,0.736 3.164,1.544 4.629,2.518 2.58,1.715 4.986,-2.441 2.423,-4.145 z"
           id="path23" /><path
           class="h"
           d="m 125.562,166.959 c 0,12.549 -0.053,25.097 -0.089,37.646 -0.05,17.217 -0.102,34.434 -0.142,51.651 -0.016,6.938 -0.032,13.877 -0.032,20.815 0,3.089 4.8,3.094 4.8,0 0,-14.265 0.049,-28.53 0.089,-42.795 0.046,-16.733 0.099,-33.467 0.142,-50.2 0.015,-5.706 0.032,-11.411 0.032,-17.117 0,-3.089 -4.8,-3.094 -4.8,0 z"
           id="path24" /></g><path
         class="i"
         d="m 10.737,199.084 c 1.133,-1.458 2.651,-3.454 4.209,-4.233 4.773,-3.903 15.467,-2.589 20.526,-0.904 3.616,1.204 8.204,3.092 10.464,6.211 2.156,2.976 2.357,6.812 -2.965,7.678 2.139,0.977 4.26,2.282 5.262,3.938 1.861,3.076 1.063,6.874 -2.511,8.398 3.217,2.055 5.398,9.718 -1.768,10.769 2.483,3.82 1.167,6.548 -2.142,7.375 -2.871,0.718 -7.579,-0.698 -12.415,0.961 -6.028,2.966 -11.534,2.635 -15.431,-0.144 C 7.898,234.805 6.2,226.974 6.154,218.626 6.132,214.555 6.329,210.238 7.417,206.3 c 0.586,-2.121 1.397,-4.816 2.81,-6.567 0.159,-0.198 0.33,-0.416 0.51,-0.647 z"
         id="path25" /><path
         class="h"
         d="m 44.883,209.857 c 2.717,-0.917 4.892,-2.925 4.875,-5.968 -0.015,-2.552 -1.472,-4.998 -3.261,-6.727 -3.657,-3.533 -9.143,-5.513 -14.065,-6.47 -4.858,-0.944 -10.394,-1.391 -15.156,0.255 -5.084,1.757 -9.236,6.449 -11.147,11.473 -2.321,6.101 -2.677,12.943 -2.267,19.403 0.357,5.613 1.597,11.342 5.143,15.848 3.787,4.812 9.502,6.811 15.49,5.773 1.666,-0.289 3.251,-0.832 4.801,-1.498 1.673,-0.719 3.302,-1.052 5.127,-1.108 2.741,-0.084 5.69,0.509 8.366,-0.302 3.181,-0.964 5.263,-3.668 4.748,-7.045 -0.504,-3.312 -2.894,-5.365 -5.893,-6.496 -3.082,-1.162 -6.474,-1.939 -9.766,-2.033 -3.881,-0.111 -7.736,0.735 -11.515,1.512 -3.024,0.622 -1.744,5.25 1.276,4.629 2.684,-0.553 5.378,-1.156 8.122,-1.309 2.719,-0.152 5.225,0.242 7.834,0.983 1.494,0.424 3.579,0.743 4.621,2.029 0.406,0.501 0.69,1.485 0.642,1.883 -0.064,0.537 -0.389,0.847 -1.023,1.113 -1.866,0.783 -4.475,0.224 -6.545,0.225 -1.409,0 -2.817,0.109 -4.206,0.35 -1.618,0.281 -2.983,0.96 -4.503,1.524 -4.268,1.584 -8.951,1.524 -12.429,-1.7 -3.215,-2.979 -4.619,-7.288 -5.215,-11.526 -0.726,-5.157 -0.692,-10.865 0.369,-15.966 0.483,-2.322 1.115,-4.835 2.369,-6.873 1.053,-1.712 2.539,-3.617 4.199,-4.758 1.428,-0.981 2.83,-1.675 4.76,-2.052 1.96,-0.384 4.007,-0.383 5.995,-0.269 4.259,0.244 8.516,1.277 12.365,3.135 2.047,0.988 4.209,2.232 5.381,4.257 0.251,0.433 0.355,0.684 0.499,1.178 0.022,0.075 0.108,0.635 0.075,0.299 0.002,0.024 -0.034,0.758 0.027,0.391 -0.024,0.148 -0.073,0.345 -0.135,0.487 0.148,-0.341 -0.259,0.241 -0.062,0.046 -0.31,0.307 -0.693,0.516 -1.169,0.677 -2.911,0.983 -1.662,5.621 1.276,4.629 v 0 z"
         id="path26" /><path
         class="h"
         d="m 20.232,207.494 c 2.947,-0.723 6.075,-0.676 9.084,-0.474 2.945,0.198 5.911,0.629 8.738,1.501 2.491,0.768 5.333,1.76 7.292,3.538 1.794,1.629 2.068,4.372 -0.179,5.718 -2.647,1.586 -0.236,5.738 2.423,4.145 3.792,-2.272 4.988,-6.797 3.054,-10.734 -1.741,-3.544 -5.839,-5.314 -9.336,-6.614 -3.497,-1.3 -7.152,-1.933 -10.851,-2.265 -3.803,-0.341 -7.771,-0.359 -11.501,0.556 -2.999,0.736 -1.729,5.366 1.276,4.629 z"
         id="path27" /><path
         class="h"
         d="m 19.279,219.64 c 6.892,-1.337 14.3,-1.117 21.113,0.599 2.33,0.587 4.67,1.778 5.544,3.942 0.771,1.909 0.608,3.34 -1.373,4.21 -1.187,0.522 -1.462,2.256 -0.861,3.284 0.716,1.224 2.092,1.385 3.284,0.861 3.397,-1.493 4.661,-5.082 3.9,-8.551 -0.78,-3.56 -3.506,-6.236 -6.797,-7.583 -3.645,-1.492 -7.929,-1.994 -11.826,-2.23 -4.808,-0.29 -9.525,-0.079 -14.259,0.839 -1.273,0.247 -2.001,1.772 -1.676,2.952 0.366,1.331 1.675,1.924 2.952,1.676 v 0 z"
         id="path28" /><path
         class="i"
         d="m 244.923,199.084 c -1.133,-1.458 -2.651,-3.454 -4.209,-4.233 -4.773,-3.903 -15.467,-2.589 -20.526,-0.904 -3.616,1.204 -8.204,3.092 -10.464,6.211 -2.156,2.976 -2.357,6.812 2.965,7.678 -2.139,0.977 -4.26,2.282 -5.262,3.938 -1.861,3.076 -1.063,6.874 2.511,8.398 -3.217,2.055 -5.398,9.718 1.768,10.769 -2.483,3.82 -1.167,6.548 2.142,7.375 2.871,0.718 7.579,-0.698 12.415,0.961 6.028,2.966 11.534,2.635 15.431,-0.144 6.068,-4.328 7.766,-12.159 7.812,-20.507 0.022,-4.071 -0.175,-8.388 -1.263,-12.326 -0.586,-2.121 -1.397,-4.816 -2.81,-6.567 -0.159,-0.198 -0.33,-0.416 -0.51,-0.647 z"
         id="path29" /><path
         class="h"
         d="m 212.054,205.229 c -0.339,-0.115 -0.746,-0.296 -0.971,-0.479 -0.12,-0.098 -0.339,-0.426 -0.26,-0.244 -0.2,-0.464 -0.156,-0.37 -0.109,-0.878 -0.028,0.301 0.033,-0.134 0.04,-0.164 0.062,-0.273 0.144,-0.555 0.256,-0.812 0.712,-1.64 2.404,-2.949 3.993,-3.877 3.44,-2.006 7.427,-3.226 11.362,-3.767 3.584,-0.492 7.998,-0.675 11.258,0.761 3.53,1.555 6.503,5.406 7.731,9.218 1.67,5.183 1.948,10.634 1.69,16.045 -0.213,4.465 -1.011,9.116 -3.55,12.89 -2.46,3.656 -6.49,5.557 -10.877,4.928 -2.831,-0.406 -5.245,-1.996 -8.038,-2.472 -2.735,-0.466 -5.419,-0.263 -8.17,-0.243 -1.008,0.007 -1.844,0.025 -2.742,-0.415 -0.67,-0.328 -0.881,-0.689 -0.848,-1.275 0.111,-1.98 2.047,-2.727 3.701,-3.227 2.672,-0.807 5.303,-1.483 8.114,-1.464 3.18,0.022 6.29,0.712 9.39,1.35 1.268,0.261 2.593,-0.369 2.952,-1.676 0.326,-1.188 -0.401,-2.69 -1.676,-2.952 -3.373,-0.694 -6.787,-1.432 -10.243,-1.514 -3.167,-0.076 -6.168,0.586 -9.191,1.448 -2.62,0.747 -5.258,1.81 -6.739,4.244 -1.481,2.434 -1.538,5.659 0.38,7.85 1.855,2.121 4.802,2.487 7.451,2.42 3.259,-0.082 6.348,-0.291 9.41,1.024 5.868,2.52 12.452,2.553 17.599,-1.548 4.406,-3.511 6.578,-9.013 7.389,-14.448 0.941,-6.307 0.929,-13.193 -0.569,-19.41 -0.727,-3.017 -1.726,-6.04 -3.655,-8.508 -0.813,-1.041 -1.605,-2.108 -2.507,-3.074 -0.951,-1.02 -2.07,-1.771 -3.128,-2.507 -4.036,-2.81 -9.778,-2.845 -14.47,-2.325 -5.535,0.614 -11.435,2.205 -15.999,5.512 -2.362,1.712 -4.519,4.104 -5.001,7.085 -0.567,3.506 1.525,6.044 4.752,7.134 2.933,0.99 4.192,-3.644 1.276,-4.629 v 0 z"
         id="path30" /><path
         class="h"
         d="m 236.705,202.866 c -3.73,-0.915 -7.698,-0.897 -11.501,-0.556 -3.699,0.331 -7.362,0.967 -10.851,2.265 -3.489,1.298 -7.595,3.07 -9.336,6.614 -1.934,3.937 -0.738,8.463 3.054,10.734 2.656,1.591 5.073,-2.557 2.423,-4.145 -2.245,-1.345 -1.975,-4.088 -0.179,-5.718 1.959,-1.778 4.8,-2.77 7.292,-3.538 2.827,-0.872 5.793,-1.302 8.738,-1.501 3.009,-0.203 6.137,-0.249 9.084,0.474 3,0.736 4.279,-3.892 1.276,-4.629 z"
         id="path31" /><path
         class="h"
         d="m 237.658,215.011 c -4.734,-0.918 -9.452,-1.131 -14.259,-0.839 -3.897,0.237 -8.181,0.738 -11.826,2.23 -3.291,1.347 -6.017,4.025 -6.797,7.583 -0.76,3.469 0.502,7.057 3.9,8.551 1.186,0.521 2.577,0.347 3.284,-0.861 0.596,-1.019 0.332,-2.759 -0.861,-3.284 -1.98,-0.87 -2.151,-2.284 -1.373,-4.21 0.874,-2.164 3.215,-3.352 5.544,-3.942 6.807,-1.723 14.226,-1.935 21.113,-0.599 1.271,0.247 2.59,-0.359 2.952,-1.676 0.323,-1.176 -0.397,-2.704 -1.676,-2.952 v 0 z"
         id="path32" /></g></g><path
     style="fill:#ffffff;fill-opacity:1;stroke-width:0.356368"
     d="m 125.26322,285.03881 c -11.89581,-5.32373 -65.822436,-19.60553 -83.568207,-22.132 l -3.207308,-0.45662 0.0162,-1.50728 c 0.0089,-0.829 0.049,-5.57811 0.08909,-10.55359 l 0.07289,-9.04631 2.045391,-0.25555 c 2.468392,-0.30841 4.317478,-1.19869 5.562313,-2.67809 1.104534,-1.31266 1.738183,-3.42873 1.453282,-4.85324 -0.172533,-0.86266 -0.02231,-1.16613 0.923362,-1.86529 2.377578,-1.75782 3.240668,-6.37876 1.78879,-9.5771 l -0.684077,-1.50695 0.936906,-1.6763 c 1.711494,-3.0622 1.025706,-7.71395 -1.48496,-10.0726 l -0.856454,-0.8046 0.758027,-1.28475 c 2.442903,-4.14042 -0.921315,-9.96553 -7.605725,-13.16924 l -2.793699,-1.33896 -0.02118,-8.90919 c -0.01165,-4.90006 0.0844,-16.68692 0.213438,-26.19302 l 0.234616,-17.28383 1.635915,0.10256 c 7.080042,0.4439 23.08808,2.9614 37.094494,5.83366 21.761091,4.4625 37.654966,9.33422 46.288016,14.18802 2.82786,1.58992 4.43022,1.48504 8.61847,-0.5641 7.44566,-3.64287 17.7258,-7.03429 32.75996,-10.80753 14.87729,-3.73387 33.89466,-7.33284 43.29866,-8.19413 2.35203,-0.21542 5.11833,-0.4707 6.14735,-0.56728 l 1.87093,-0.17561 v 26.33108 26.33108 l -1.1582,0.47195 c -7.45266,3.03684 -11.5527,9.21142 -9.19079,13.84115 0.69082,1.35413 0.69091,1.3758 0.008,1.99389 -0.37977,0.34368 -1.09497,1.43657 -1.58933,2.42863 -1.2162,2.44059 -1.20884,4.98217 0.0224,7.72568 0.88427,1.97042 0.8978,2.09806 0.3373,3.18193 -1.54253,2.98295 -0.96641,7.1086 1.29979,9.30787 1.19329,1.15805 1.36172,1.52644 1.36172,2.97831 0,4.10405 2.26584,6.14038 7.57808,6.81049 l 1.69802,0.21419 -0.0944,10.56423 -0.0944,10.56423 -3.74186,0.46714 c -16.26648,2.03073 -64.17013,14.62347 -81.09892,21.31898 -2.20567,0.87237 -4.30504,1.57479 -4.66527,1.56095 -0.36023,-0.0139 -1.37661,-0.34813 -2.25862,-0.74286 z m 4.35322,-6.27023 c 0.4801,-0.55076 0.57144,-7.16189 0.78163,-56.57336 0.26917,-63.27619 0.51976,-57.68354 -2.57562,-57.48246 -1.34762,0.0875 -1.73384,0.27112 -2.10002,0.99819 -0.35492,0.70472 -0.4498,12.56044 -0.45395,56.72609 -0.005,50.28859 0.0504,55.8908 0.55475,56.39518 0.76629,0.76629 3.10394,0.72707 3.79321,-0.0636 z"
     id="path79" /><path
     style="fill:#afafe9;fill-opacity:1;stroke-width:0.50398"
     d="m 176.75095,86.052534 c -4.66147,-3.741663 -10.69555,-11.457243 -13.89202,-17.763252 -0.98354,-1.940323 -2.7327,-6.476142 -3.88705,-10.079599 -2.844,-8.87804 -2.78355,-8.748607 -4.2591,-9.118948 -1.14014,-0.286156 -1.789,0.175178 -5.18294,3.685039 -6.2055,6.417441 -13.32933,11.064444 -22.52689,14.694702 -4.5223,1.784936 -12.34751,4.240094 -12.34751,3.874028 0,-0.07864 0.47152,-2.454901 1.04782,-5.280581 0.96928,-4.752475 0.98729,-5.229976 0.24037,-6.369923 -0.4441,-0.677782 -1.1991,-1.231309 -1.67779,-1.230064 -0.4787,0.0012 -4.75259,2.89283 -9.49754,6.425744 -8.397978,6.252814 -30.228601,21.876984 -31.041048,22.216061 -0.222977,0.09306 -1.38255,-0.303824 -2.57683,-0.881965 -1.19428,-0.57814 -2.968769,-1.051166 -3.943309,-1.051166 -1.678321,0 -1.798407,-0.11587 -2.273979,-2.194122 -0.417509,-1.824523 -0.35725,-2.372984 0.357727,-3.255947 0.676502,-0.835443 0.776956,-1.522725 0.471175,-3.223662 C 64.958819,72.03091 64.718643,63.561094 65.240848,58.119138 66.505771,44.937227 71.661863,34.051714 81.417182,23.967748 88.124675,17.034286 94.395435,12.753073 102.86911,9.32195 c 7.53674,-3.0517396 11.61923,-3.8316467 21.61394,-4.1290601 10.12653,-0.3013361 15.24331,0.3118235 22.93108,2.7478981 17.96109,5.691451 34.07455,21.788676 39.24612,39.206593 2.33686,7.870582 3.25981,15.020329 3.24963,25.173741 -0.005,5.26659 -0.22988,10.255992 -0.49911,11.087558 -0.43919,1.356503 -0.76015,1.545415 -3.12188,1.837567 -1.54072,0.19059 -3.45473,0.869839 -4.6154,1.637935 -1.09066,0.721769 -2.04459,1.311391 -2.11983,1.310267 -0.0752,-0.0011 -1.33646,-0.964981 -2.80271,-2.141915 z"
     id="path82" /><path
     style="fill:#afafe9;fill-opacity:1;stroke-width:0.50398"
     d="m 65.769382,129.84456 -7.811689,-1.58166 -0.147889,-3.64469 c -0.145752,-3.59203 0.3996,-6.71897 1.429912,-8.19884 0.447202,-0.64234 0.655333,-0.56658 1.384583,0.50398 1.741795,2.55698 5.425718,6.17044 7.228344,7.09007 1.020846,0.5208 2.734317,1.08734 3.807714,1.25898 1.844206,0.2949 2.011314,0.47595 3.035914,3.28922 l 1.084284,2.97714 -1.099742,-0.0563 c -0.604858,-0.031 -4.615002,-0.76802 -8.911431,-1.63793 z"
     id="path83" /><g
     id="g142"
     transform="translate(-2.3563676,10.334661)"><path
       class="f"
       d="m 162.57912,206.18382 c 0,-3.05654 0,-6.11308 0,-9.16962 0,-4.59875 0,-9.19689 0,-13.79563 v -1.7775 c 0,-0.32599 -0.0533,-0.67094 0.18611,-0.91751 0.41607,-0.4291 1.51553,-0.40599 2.08689,-0.50912 0.89142,-0.16121 1.78343,-0.32006 2.67603,-0.47653 1.95591,-0.34258 3.91359,-0.67567 5.87186,-1.00344 3.70496,-0.61996 7.41346,-1.22036 11.12316,-1.8095 1.40469,-0.22285 2.80998,-0.44452 4.21526,-0.66323 0.41608,-0.0646 0.8938,-0.22819 1.15991,0.28805 0.20567,0.39889 0.0675,1.1445 0.0675,1.5991 0,6.64355 0,13.28769 0,19.93124 0,0.60633 0,1.21266 0,1.8184 0,1.83084 2.84495,1.8338 2.84495,0 0,-6.82907 0,-13.65813 0,-20.48719 0,-1.54872 0.27679,-3.3683 -0.71598,-4.67461 -0.66145,-0.87186 -1.70105,-1.39995 -2.80168,-1.39166 -0.70946,0.005 -1.45567,0.195 -2.15742,0.30465 -3.51707,0.55062 -7.03295,1.1125 -10.54587,1.68801 -4.00249,0.65551 -8.00321,1.32467 -11.99502,2.04243 -0.93468,0.16833 -1.97784,0.24004 -2.84555,0.64012 -0.93942,0.43326 -1.65184,1.29207 -1.90552,2.29788 -0.12387,0.49135 -0.10964,0.98626 -0.10964,1.4859 v 12.71574 c 0,3.88217 -0.0984,7.77856 0,11.66014 0.002,0.0675 0,0.13573 0,0.20329 0,1.83085 2.84494,1.83381 2.84494,0 v 0 z"
       id="path17-1" /><path
       class="f"
       d="m 153.89522,222.78505 c -0.48319,-0.43783 -0.80603,-0.80919 -1.10618,-1.38364 -0.12924,-0.24687 -0.14243,-0.27801 -0.23632,-0.59028 -0.039,-0.12924 -0.0728,-0.26059 -0.10128,-0.39247 -0.0143,-0.0659 -0.0269,-0.13187 -0.0385,-0.19781 -0.0422,-0.23473 0.018,0.28749 -0.0164,-0.12819 -0.0881,-1.07188 0.14928,-2.0562 0.6388,-2.97512 1.10249,-2.06887 3.02683,-3.34701 5.3642,-3.76585 0.41672,-0.0743 1.03971,-0.10814 1.61416,-0.0633 0.0501,0.004 0.37136,0.0469 0.1994,0.0195 0.13082,0.0211 0.26163,0.0474 0.39087,0.0781 0.21998,0.0522 0.61402,0.17935 0.71319,0.22419 0.0897,0.0406 0.45101,0.24371 0.63142,0.37295 -0.13345,-0.0955 0.10867,0.0913 0.14454,0.12449 0.1324,0.12079 0.25742,0.25003 0.37769,0.38245 0.35027,0.38559 0.68102,0.93577 0.8208,1.34301 0.36872,1.07452 0.29329,2.00399 -0.15245,3.1165 -0.43308,1.08138 -1.36096,2.18861 -2.32049,2.99463 -1.02336,0.85931 -2.27301,1.45486 -3.6134,1.67694 -0.058,0.01 -0.20625,0.0274 -0.38983,0.0385 -0.16827,0.01 -0.33655,0.0137 -0.50535,0.01 -0.37716,-0.008 -0.42675,-0.008 -0.79389,-0.0928 -0.62035,-0.14295 -1.15102,-0.39035 -1.62102,-0.79178 -0.51959,-0.44363 -1.28026,-0.51063 -1.79036,0 -0.4547,0.45471 -0.52221,1.3446 0,1.79035 5.47128,4.66735 14.82182,-1.70859 13.86176,-8.39997 -0.22102,-1.53926 -1.07242,-3.04002 -2.27935,-4.02592 -1.21273,-0.99119 -2.73563,-1.42848 -4.29177,-1.41266 -3.18032,0.0321 -6.21294,1.66745 -8.02808,4.25907 -0.95848,1.36941 -1.563,3.0801 -1.5208,4.76284 0.0464,1.86261 0.8841,3.5712 2.25824,4.81664 0.50642,0.45893 1.29029,0.50008 1.79036,0 0.46631,-0.46632 0.50851,-1.32931 0,-1.79035 z"
       id="path18-1" /><path
       style="fill:#000000;fill-opacity:1;stroke-width:0.113996"
       d="m 155.10448,224.26303 c -2.0063,-0.66699 -3.4804,-2.62526 -3.47519,-4.61665 0.005,-1.9523 1.16213,-4.2067 2.87647,-5.6046 0.90223,-0.7357 2.50131,-1.53152 3.66636,-1.82464 1.77133,-0.44565 3.83442,-0.22864 4.79552,0.50441 2.85657,2.17882 2.68757,5.73342 -0.42249,8.88643 -1.03896,1.05329 -2.29555,1.8777 -3.58906,2.35463 -0.83986,0.30968 -1.19508,0.37604 -2.19866,0.41068 -0.79516,0.0275 -1.35002,-0.009 -1.65295,-0.11026 z"
       id="path140" /><path
       class="f"
       d="m 183.25205,216.10732 c -0.48319,-0.43783 -0.80603,-0.80919 -1.10618,-1.38364 -0.12924,-0.24687 -0.14243,-0.27801 -0.23632,-0.59028 -0.039,-0.12924 -0.0728,-0.26059 -0.10128,-0.39247 -0.0143,-0.0659 -0.0269,-0.13187 -0.0385,-0.19781 -0.0422,-0.23473 0.018,0.28749 -0.0164,-0.12819 -0.0881,-1.07188 0.14928,-2.0562 0.6388,-2.97512 1.10249,-2.06887 3.02683,-3.34701 5.3642,-3.76585 0.41672,-0.0743 1.03971,-0.10814 1.61416,-0.0633 0.0501,0.004 0.37136,0.0469 0.1994,0.0195 0.13082,0.0211 0.26163,0.0474 0.39087,0.0781 0.21998,0.0522 0.61402,0.17935 0.71319,0.22419 0.0897,0.0406 0.45101,0.24371 0.63142,0.37295 -0.13345,-0.0955 0.10867,0.0913 0.14454,0.12449 0.1324,0.12079 0.25742,0.25003 0.37769,0.38245 0.35027,0.38559 0.68102,0.93577 0.8208,1.34301 0.36872,1.07452 0.29329,2.00399 -0.15245,3.1165 -0.43308,1.08138 -1.36096,2.18861 -2.32049,2.99463 -1.02336,0.85931 -2.27301,1.45486 -3.6134,1.67694 -0.058,0.01 -0.20625,0.0274 -0.38983,0.0385 -0.16827,0.01 -0.33655,0.0137 -0.50535,0.01 -0.37716,-0.008 -0.42675,-0.008 -0.79389,-0.0928 -0.62035,-0.14295 -1.15102,-0.39035 -1.62102,-0.79178 -0.51959,-0.44363 -1.28026,-0.51063 -1.79036,0 -0.4547,0.45471 -0.52221,1.3446 0,1.79035 5.47128,4.66735 14.82182,-1.70859 13.86176,-8.39997 -0.22102,-1.53926 -1.07242,-3.04002 -2.27935,-4.02592 -1.21273,-0.99119 -2.73563,-1.42848 -4.29177,-1.41266 -3.18032,0.0321 -6.21294,1.66745 -8.02808,4.25907 -0.95848,1.36941 -1.563,3.0801 -1.5208,4.76284 0.0464,1.86261 0.8841,3.5712 2.25824,4.81664 0.50642,0.45893 1.29029,0.50008 1.79036,0 0.46631,-0.46632 0.50851,-1.32931 0,-1.79035 z"
       id="path141" /><path
       style="fill:#000000;fill-opacity:1;stroke-width:0.113996"
       d="m 184.46131,217.5853 c -2.0063,-0.66699 -3.4804,-2.62526 -3.47519,-4.61665 0.005,-1.9523 1.16213,-4.2067 2.87647,-5.6046 0.90223,-0.7357 2.50131,-1.53152 3.66636,-1.82464 1.77133,-0.44565 3.83442,-0.22864 4.79552,0.50441 2.85657,2.17882 2.68757,5.73342 -0.42249,8.88643 -1.03896,1.05329 -2.29555,1.8777 -3.58906,2.35463 -0.83986,0.30968 -1.19508,0.37604 -2.19866,0.41068 -0.79516,0.0275 -1.35002,-0.009 -1.65295,-0.11026 z"
       id="path142" /></g></svg>
