<svg xmlns="http://www.w3.org/2000/svg" width="404.363" height="302.952" viewBox="0 0 404.363 302.952"><defs><style>.a{fill:#fff;}.b{fill:#fcdc4a;}.c{fill:#211715;}</style></defs><path class="a" d="M78.04,268.742,4.1,226.054a4,4,0,0,1-2-3.464V117.983a4,4,0,0,1,2-3.464L72.816,74.847V37.1a4,4,0,0,1,2-3.464l52.569-30.35a4,4,0,0,1,4,0s15.514,8.957,32.694,18.872c12.911-7.45,25.839-14.918,34.012-19.637a3.994,3.994,0,0,1,4,0l75.852,43.791a4.013,4.013,0,0,1,2,3.472c0,36.559,0,67.632,0,104.588a4.014,4.014,0,0,1-2,3.473l-193.99,112a4,4,0,0,1-4,0Z"></path><path class="a" d="M153.666,177.975l52.837-30.5a3.985,3.985,0,0,1,3.993,0l34.046,19.656a1.992,1.992,0,0,1,1,1.73v7.488a2,2,0,0,1-1,1.732L190.961,209a3.981,3.981,0,0,1-3.991,0L153.661,189.77a1.991,1.991,0,0,1-1-1.729v-8.334A2,2,0,0,1,153.666,177.975Z"></path><path class="a" d="M182.46,206.4v41.686l4.087,2.364a5,5,0,0,0,5,0l4.488-2.594V206.072"></path><path class="a" d="M231.957,185.335v34.171l4.088,2.363a5,5,0,0,0,5,0l4.488-2.594V177.5"></path><path class="a" d="M109.2,268.35a36.024,36.024,0,0,1-5.168.535,33.3,33.3,0,0,1-5.719-.6H98.3c0,3.783.024,8.774.024,11.8,0,1.743,2.471,3.2,5.489,3.2s5.441-1.461,5.441-3.2c0-3-.025-7.954-.025-11.728Z"></path><path class="a" d="M300.593,156.705a35.993,35.993,0,0,1-5.168.534,33.3,33.3,0,0,1-5.719-.6h-.012c0,3.783.023,8.774.023,11.8,0,1.742,2.471,3.2,5.49,3.2s5.44-1.461,5.44-3.2c0-3-.025-7.954-.025-11.728Z"></path><path class="a" d="M331.428,255.017a3.915,3.915,0,0,1-2.733-1c-1.588-1.714-1.086-4.01-.576-5.653q2.739-2.393,5.408-4.863a3.107,3.107,0,0,1,3.075.932,4.24,4.24,0,0,1,.706,3.424,10.468,10.468,0,0,1-1.4,3.305,9.227,9.227,0,0,1-2.763,3.253,4.357,4.357,0,0,1-1.076.5A2.474,2.474,0,0,1,331.428,255.017Z"></path><path class="a" d="M320.746,237.562l-7.171,14.231a1.394,1.394,0,0,1-.409.556,1.272,1.272,0,0,1-.946.1,7.517,7.517,0,0,1-4.677-2.767,2.287,2.287,0,0,1-.419-1.04,2.7,2.7,0,0,1,.128-.911c1.909-7.142,3.917-11.574,5.294-18.541,5.216,1.015,11.053.783,16.237.262a31.365,31.365,0,0,0,5.375,13.469q-3.611,3.365-7.352,6.587c-1.937-2.37-5.25-7.914-6.024-11.717"></path><path class="a" d="M297.774,216.587a3.573,3.573,0,0,1,2.039-2.165,7.656,7.656,0,0,1,4.6-.131c.492,1.431,1.447,4.1,2.224,5.727-.267,2.04-2.418,3.079-4.3,3.219a4.481,4.481,0,0,1-4.162-1.853,5.26,5.26,0,0,1-.674-3.865A6.014,6.014,0,0,1,297.774,216.587Z"></path><path class="a" d="M322.248,185.756a9.769,9.769,0,0,0-5.518.214,8.412,8.412,0,0,0-3.8,2.23,8.576,8.576,0,0,0-1.517,2.536,11.149,11.149,0,0,0-.435,7.9,8.114,8.114,0,0,0,5.87,4.956,10.155,10.155,0,0,0,6.63-.433,8.07,8.07,0,0,0,4.159-4.254,12.573,12.573,0,0,0,.651-6.168,6.652,6.652,0,0,0-2.117-4.429,9.734,9.734,0,0,0-3.131-2.276A7,7,0,0,0,322.248,185.756Z"></path><path class="a" d="M322.248,185.756a9.769,9.769,0,0,0-5.518.214,8.412,8.412,0,0,0-3.8,2.23,6.869,6.869,0,0,0-.734.979c1.715.818,4.993,2.187,6.237,4.648,1.068,2.111.986,6.821.412,10.07a8.817,8.817,0,0,0,4.633-.734,8.07,8.07,0,0,0,4.159-4.254,12.573,12.573,0,0,0,.651-6.168,6.652,6.652,0,0,0-2.117-4.429,9.734,9.734,0,0,0-3.131-2.276A6.983,6.983,0,0,0,322.248,185.756Z"></path><path class="a" d="M397.3,300.6a3.682,3.682,0,0,1-3.232-.859,4.021,4.021,0,0,1-.417-5,30.728,30.728,0,0,1,4.437-5.083c1.026-.929,2.733-.119,3.556.9a4.067,4.067,0,0,1,.676,3.281A10.041,10.041,0,0,1,400.973,297a8.844,8.844,0,0,1-2.647,3.117A4.189,4.189,0,0,1,397.3,300.6Z"></path><path class="a" d="M374.423,253.416a4.241,4.241,0,0,0-2.895-.108,4.979,4.979,0,0,0-2.589,1.774,3.861,3.861,0,0,0-.909,2.811,3.2,3.2,0,0,0,.917,2.223,3.337,3.337,0,0,0,2.483.805l.913-.095c1.329-.573,2.706-1.167,3.324-1.441a2.124,2.124,0,0,0,.571-.327,2.224,2.224,0,0,0,.481-.77l.347-.77v-.1a4.3,4.3,0,0,0-2.008-3.665A4.079,4.079,0,0,0,374.423,253.416Z"></path><path class="a" d="M392.153,249.15c2.46-2.062,3.329-5.746,3.614-7.753a8.461,8.461,0,0,0-6.4-9.149,9.58,9.58,0,0,0-8.864,2.121,9.906,9.906,0,0,0-3.251,7.2,7.806,7.806,0,0,0,1.186,4.342,5.549,5.549,0,0,0,3.68,2.475"></path><path class="a" d="M377.657,285.1q-1.444-.461-2.854-1.065,2.07-4.284,4.141-8.568a97.513,97.513,0,0,0,9.955.927,1.008,1.008,0,0,0,1.028-1.108l5.814-.6c.42,2.54,1.784,7.874,2.163,9.553.059.259-2.029,1.045-2.26,1.112A30.8,30.8,0,0,1,377.657,285.1Z"></path><path class="a" d="M396.448,238.547a8.472,8.472,0,0,0-7.24-6.916,9.83,9.83,0,0,0-8.086,1.743,8.4,8.4,0,0,0-2.947,4.152c1.911.333,4.811,3.019,5.573,4.6.92,1.908.5,4.154.206,6.252a2.3,2.3,0,0,0,.115,1.414,2.261,2.261,0,0,0,1.1.764c1.644.824,3.179.486,7.763-.811a8.373,8.373,0,0,0,2.916-1.75,5.274,5.274,0,0,0,.843-2.267A16.874,16.874,0,0,0,396.448,238.547Z"></path><path class="a" d="M301.375,251.944a4.138,4.138,0,0,1,.762-3.086,4.486,4.486,0,0,1,5.01-.651,1.709,1.709,0,0,0-.023.434,2.287,2.287,0,0,0,.419,1.04,7.517,7.517,0,0,0,4.677,2.767,1.272,1.272,0,0,0,.946-.1l.026-.019c.962,1.408.435,2.818-.653,3.875a4.31,4.31,0,0,1-3.4,1.026,10.542,10.542,0,0,1-3.473-1.123,9.38,9.38,0,0,1-3.535-2.5,4.4,4.4,0,0,1-.6-1.047A2.573,2.573,0,0,1,301.375,251.944Z"></path><path class="a" d="M370.282,298.429a3.938,3.938,0,0,1-.329-3.532,3.627,3.627,0,0,1,4.93-1.241,15.607,15.607,0,0,0,6.273,2.05c1.221.651.726,2.3.044,3.416a4.058,4.058,0,0,1-2.859,1.745,10.034,10.034,0,0,1-3.433-.191,8.843,8.843,0,0,1-3.828-1.437A4.139,4.139,0,0,1,370.282,298.429Z"></path><path class="a" d="M391.439,291.38a40.236,40.236,0,0,1-3.6-3.669s-.282-.493-.656-1.141a30.6,30.6,0,0,0,8.458-1.221c.09-.026.459-.16.874-.33l.485.71a20.945,20.945,0,0,0,2.267,2.979l-1.187.946a37.572,37.572,0,0,0-3.719,4.048l-.187-.151A14.158,14.158,0,0,1,391.439,291.38Z"></path><path class="a" d="M375.218,293.879l-.032-.02.156-.882a60.651,60.651,0,0,1,2-7.822l.054-.139a31.084,31.084,0,0,0,8.133,1.515l-.013.039c-.786,1.709-4.291,9.9-4.208,9.151A16.642,16.642,0,0,1,375.218,293.879Z"></path><path class="b" d="M91.859,199.311s0-10.156,0-21.4c0-1.35,0-2.715,0-4.08L115.9,159.95v25.483Z" style="fill: rgb(255, 182, 75);"></path><path class="b" d="M128.621,178.086s0-10.156,0-21.4c0-1.349,0-2.715,0-4.08l24.045-13.882v25.482C146.773,167.609,137.867,172.75,128.621,178.086Z" style="fill: rgb(255, 182, 75);"></path><path class="b" d="M91.859,249.933s0-10.155,0-21.4c0-1.35,0-2.715,0-4.08L115.9,210.573v25.483Z" style="fill: rgb(255, 182, 75);"></path><path class="b" d="M173.88,151.958V119.3l14.142-8.165c0,3.125,0,31.822,0,32.661Z" style="fill: rgb(255, 182, 75);"></path><path class="b" d="M128.621,228.709s0-10.156,0-21.4c0-1.35,0-2.715,0-4.08l24.045-13.882v25.482C146.773,218.231,137.867,223.373,128.621,228.709Z" style="fill: rgb(255, 182, 75);"></path><path class="b" d="M209.235,131.546V106.064L233.28,92.181c0,1.366,0,2.731,0,4.081,0,11.245,0,21.4,0,21.4C224.031,123,215.125,128.146,209.235,131.546Z" style="fill: rgb(255, 182, 75);"></path><path class="b" d="M246,110.321V84.839l24.046-13.882c0,1.365,0,2.731,0,4.081,0,11.245,0,21.4,0,21.4C260.793,101.778,251.887,106.921,246,110.321Z" style="fill: rgb(255, 182, 75);"></path><path class="b" d="M233.277,160.619c0-3.8,0-8.654,0-13.734,0-1.35,0-2.715,0-4.081l-15.429,8.908Z" style="fill: rgb(255, 182, 75);"></path><path class="b" d="M246,160.944V135.462l24.046-13.883c0,1.366,0,2.731,0,4.081,0,11.245,0,21.4,0,21.4C260.793,152.4,251.887,157.544,246,160.944Z" style="fill: rgb(255, 182, 75);"></path><path class="b" d="M107.166,231.1a5.122,5.122,0,0,0-6.266,0,31.038,31.038,0,0,0-9.722,13,25.074,25.074,0,0,0-1.431,4.786,40.075,40.075,0,0,0-.488,4.733c-.177,2.792-.34,5.687.668,8.3a10.087,10.087,0,0,0,4.776,5.27c2.158,1.106,6.915,1.692,9.332,1.692,1.823,0,7.174-.586,9.331-1.692a10.079,10.079,0,0,0,4.776-5.27c1.008-2.611.846-5.506.669-8.3a39.866,39.866,0,0,0-.489-4.733,25.071,25.071,0,0,0-1.43-4.786A31.03,31.03,0,0,0,107.166,231.1Z" style="fill: rgb(255, 182, 75);"></path><path class="b" d="M298.556,119.454a5.124,5.124,0,0,0-6.266,0,31.047,31.047,0,0,0-9.722,13.005,25.114,25.114,0,0,0-1.43,4.786,39.888,39.888,0,0,0-.489,4.733c-.177,2.793-.339,5.688.669,8.3a10.087,10.087,0,0,0,4.775,5.271c2.158,1.1,6.915,1.691,9.332,1.691,1.823,0,7.174-.586,9.332-1.691a10.093,10.093,0,0,0,4.776-5.271c1.008-2.61.845-5.5.668-8.3a40.1,40.1,0,0,0-.488-4.733,25.117,25.117,0,0,0-1.431-4.786A31.021,31.021,0,0,0,298.556,119.454Z" style="fill: rgb(255, 182, 75);"></path><path class="b" d="M328.893,208.163c-.8-2.69-1.477-4-3.923-5.19l-8.331.965a6.781,6.781,0,0,0-3.305,2.179c-.713.8-1.966,2.721-2.894,3.744a10.488,10.488,0,0,1-5.481,3.513.8.8,0,0,0-.521,1.028,45.583,45.583,0,0,0,2.681,6.524,16.109,16.109,0,0,0,4.938-1.675c-.025.791-.038,1.253-.038,1.253-.047,1.6-.015,6.974,0,8.577a34.908,34.908,0,0,0,3.568.559,66.177,66.177,0,0,0,13.535-.224c.779-5.984,1.582-14.92-.075-20.723C329,208.51,328.944,208.334,328.893,208.163Z" style="fill: rgb(255, 182, 75);"></path><path class="b" d="M378.859,254.266a34.794,34.794,0,0,0-2.14,4.022,2.224,2.224,0,0,1-.481.77,2.124,2.124,0,0,1-.571.327c-1.162.515-5.008,2.16-6.171,2.675.747,3.756,4.037,7.013,7.43,7.456a4.427,4.427,0,0,0,2.019-.134,6.039,6.039,0,0,0,1.679-1.036,37.949,37.949,0,0,0,2.944-2.462c2.6.087,4.056.415,6.845.708a32.646,32.646,0,0,1-.443,8.693q3.1-.327,6.2-.645c.779-5.985,1.405-13.452-.253-19.255-.938-3.285-2.543-6.766-5.685-8.109L382.1,251a6.313,6.313,0,0,0-2.617,2.294Q379.164,253.775,378.859,254.266Z" style="fill: rgb(255, 182, 75);"></path><path class="b" d="M182.46,206.4l-22.723-13.119v32.813c5.172-2.985,13.3-7.678,22.723-13.119Z" style="fill: rgb(255, 182, 75);"></path><path class="c" d="M211.231,147.006V48.236a2.019,2.019,0,0,0-3.009-1.727q-17.333,10-34.662,20.011l-10.65,6.152-5.985,3.457-2.916,1.684c-.928.536-2.5,1.116-3.065,2.074-.535.915-.273,2.563-.273,3.575V230.176c0,2.574,4,2.578,4,0V80.9l-.99,1.727q23.117-13.355,46.238-26.7l10.322-5.958-3.01-1.727v98.77c0,2.574,4,2.578,4,0Z"></path><path class="c" d="M151.657,119.222l-32.385,18.7L88.291,155.806l-4.1,2.368L82.241,159.3a5.031,5.031,0,0,0-2.016,1.467,3.984,3.984,0,0,0-.273,2.037v98.8c0,2.574,4,2.578,4,0V161.775l-.99,1.727,65.939-38.07,4.775-2.756c2.228-1.287.217-4.745-2.019-3.454Z"></path><path class="c" d="M151.653,137l-25.448,14.692L92.823,170.965l-11.689,6.748c-2.229,1.287-.217,4.745,2.019,3.454L108.6,166.475,141.983,147.2l11.689-6.748c2.229-1.287.217-4.745-2.019-3.454Z"></path><path class="c" d="M93.859,199.311V173.833c0-2.574-4-2.578-4,0v25.478c0,2.573,4,2.578,4,0Z"></path><path class="c" d="M188.461,207.506h-.01a2.222,2.222,0,0,0-1.414.586,2.237,2.237,0,0,0-.586,1.414l.072.532a1.99,1.99,0,0,0,.514.882l.405.313a1.987,1.987,0,0,0,1.009.273h.01a2.054,2.054,0,0,0,2-2l-.071-.532a2.005,2.005,0,0,0-.514-.882l-.405-.313a1.991,1.991,0,0,0-1.01-.273Z"></path><path class="c" d="M165.091,23.883q9.587-5.532,19.173-11.069L192.5,8.059,195.9,6.092a27.036,27.036,0,0,1,3.424-1.964c1.127-.44,2.083.313,3.007.846l4.053,2.34,33.488,19.333L272.423,45.44l3.7,2.137c.244.14.5.271.734.424,1.473.951,1.083,2.715,1.083,4.264v98.689c0,1.269.389,3.193-.216,4.343a2.726,2.726,0,0,1-1.226,1.072c-.859.507-1.729,1-2.594,1.5l-19.882,11.482-9.511,5.491c-2.229,1.287-.217,4.745,2.019,3.454q10.158-5.864,20.316-11.731l9.942-5.741c1.478-.853,3.037-1.578,4.054-3,1.067-1.492,1.1-3.151,1.1-4.914V52.265a12.469,12.469,0,0,0-.447-4.708,6.188,6.188,0,0,0-2.549-2.971c-.6-.377-1.232-.712-1.846-1.066l-30.04-17.343L210.824,5.258c-2.54-1.467-5.059-2.981-7.625-4.4A6.239,6.239,0,0,0,198.26.271a18.4,18.4,0,0,0-3.466,1.84l-4.148,2.4q-8.875,5.127-17.752,10.253l-9.822,5.669c-2.229,1.286-.217,4.744,2.019,3.454Z"></path><path class="c" d="M91.012,263.459q-2.132,1.228-4.259,2.46c-1.307.755-2.847,2.017-4.308,2.393a2.218,2.218,0,0,1-1.677-.3c-.759-.414-1.5-.866-2.249-1.3L68.1,260.694,34.9,241.527,8.013,226.005c-1.423-.822-3.827-1.656-3.912-3.537-.092-2.054,0-4.134,0-6.189V119.506c0-.5-.034-1.009,0-1.506.084-1.212.854-1.667,1.758-2.189L14.54,110.8l32.6-18.818L72.5,77.343l1.335-.77a2.012,2.012,0,0,0,.99-1.727V43.45c0-2.091-.138-4.235,0-6.323.11-1.653,1.932-2.3,3.193-3.025l7.638-4.41L108.62,16.429,126.588,6.054c1.209-.7,2.417-1.723,3.849-1,1.045.525,2.044,1.18,3.056,1.764l16.517,9.537,23.319,13.464,22.029,12.72,12.29,7.1.574.331c2.233,1.29,4.25-2.166,2.019-3.454l-8.9-5.135L180.47,29.32,156.43,15.439,137.675,4.61l-4.643-2.681a6.608,6.608,0,0,0-6.85-.26c-4.828,2.693-9.58,5.532-14.368,8.3L88.057,23.683c-4.693,2.711-9.432,5.355-14.085,8.134A6.261,6.261,0,0,0,70.821,37.1c-.022.572,0,1.15,0,1.723V74.846l.991-1.727L52.649,84.181,18.305,104.007l-11.99,6.922C3.384,112.621.247,114.008.1,118c-.228,6.264,0,12.577,0,18.843v84.293c0,.48-.018.964,0,1.444a6.408,6.408,0,0,0,3.392,5.435c7.276,4.261,14.607,8.433,21.91,12.649l34.554,19.949c6.3,3.639,12.527,7.516,18.951,10.941a6.2,6.2,0,0,0,5.673.211c2.907-1.38,5.661-3.245,8.45-4.852,2.229-1.285.217-4.743-2.019-3.454Z"></path><path class="c" d="M119.491,251.643q17.1-9.869,34.19-19.74a2.012,2.012,0,0,0,.99-1.727v-.01l-.99,1.727q14.9-8.588,29.79-17.19c2.229-1.287.217-4.744-2.019-3.454q-14.894,8.6-29.79,17.19a2.011,2.011,0,0,0-.991,1.727v.01l.991-1.727q-17.1,9.868-34.19,19.74c-2.229,1.287-.217,4.744,2.019,3.454Z"></path><path class="c" d="M81.279,42.985l21.143,12.207L135.865,74.5l7.713,4.453c2.233,1.289,4.25-2.166,2.019-3.454L124.454,63.293,91.011,43.985,83.3,39.532c-2.233-1.29-4.25,2.165-2.019,3.453Z"></path><path class="c" d="M78.817,82.044,97.5,92.832l29.9,17.266,6.839,3.948c2.233,1.289,4.25-2.166,2.019-3.454L117.579,99.8l-29.9-17.266L80.836,78.59c-2.233-1.289-4.25,2.166-2.019,3.454Z"></path><path class="c" d="M74.655,155.253l-21.338-12.32-33.984-19.62L11.57,118.83c-2.234-1.289-4.25,2.166-2.019,3.454L30.889,134.6l33.984,19.621,7.763,4.482c2.234,1.289,4.25-2.166,2.019-3.454Z"></path><path class="c" d="M268.953,51.5,219.27,80.185l-11.045,6.377c-2.228,1.286-.216,4.744,2.019,3.454l47.8-27.6,12.931-7.465c2.228-1.287.216-4.745-2.019-3.454Z"></path><path class="c" d="M105.88,192.37V166.893c0-2.574-4-2.578-4,0V192.37c0,2.574,4,2.579,4,0Z"></path><path class="c" d="M151.653,162.482l-27.365,15.8L93.054,196.314l-12.111,6.992c-2.229,1.287-.217,4.745,2.019,3.454l25.107-14.5,31.867-18.4,13.736-7.93c2.229-1.287.217-4.745-2.019-3.454Z"></path><path class="c" d="M117.9,185.43V159.953c0-2.574-4-2.578-4,0V185.43c0,2.574,4,2.578,4,0Z"></path><path class="c" d="M82.965,231.9l57.326-33.1,13.385-7.728c2.228-1.286.217-4.744-2.019-3.453l-56.72,32.747-13.991,8.077c-2.228,1.287-.216,4.745,2.019,3.454Z"></path><path class="c" d="M130.621,178.086V152.608c0-2.573-4-2.578-4,0v25.478c0,2.574,4,2.578,4,0Z"></path><path class="c" d="M173.489,101.325c-1.671-1.023-2.171-3.221-2.3-5.052a18.765,18.765,0,0,1,.928-7.018,23.785,23.785,0,0,1,8.068-11.714c1.887-1.413,4.467-2.937,6.928-2.548,2.083.33,3.051,2.251,3.437,4.136.989,4.832-.94,10.326-3.543,14.338a21.165,21.165,0,0,1-5.8,6c-2.063,1.395-5.221,3.2-7.719,1.86-2.266-1.22-4.289,2.232-2.019,3.454,6.084,3.275,13.394-2.161,17.122-6.748,4.056-4.991,6.764-11.78,6.066-18.3-.319-2.974-1.45-5.919-4.05-7.612-2.807-1.826-6.331-1.242-9.208.058-5.873,2.653-10.124,8.323-12.475,14.167-2.219,5.517-3.449,14.762,2.545,18.433C173.671,106.127,175.683,102.669,173.489,101.325Z"></path><path class="c" d="M93.861,242.546v-18.09c0-2.574-4-2.578-4,0v18.09c0,2.574,4,2.578,4,0Z"></path><path class="c" d="M142.642,171.146V145.668c0-2.574-4-2.578-4,0v25.478c0,2.574,4,2.578,4,0Z"></path><path class="c" d="M183.635,88.931V81.272a2,2,0,1,0-4,0v7.659a2,2,0,0,0,4,0Z"></path><path class="c" d="M178.7,92.938l3.95-2.28a2.068,2.068,0,0,0,.919-1.2,2.045,2.045,0,0,0-.2-1.542A2.02,2.02,0,0,0,182.167,87a2.1,2.1,0,0,0-1.541.2l-3.95,2.28a2.07,2.07,0,0,0-.919,1.2,2.048,2.048,0,0,0,.2,1.541,2.021,2.021,0,0,0,1.2.919,2.1,2.1,0,0,0,1.541-.2Z"></path><path class="c" d="M105.881,230.036v-12.52a2,2,0,0,0-4,0v12.52a2,2,0,0,0,4,0Z"></path><path class="c" d="M88.412,249.619q-3.734,2.158-7.47,4.31a2,2,0,1,0,2.019,3.454q3.735-2.155,7.47-4.31a2,2,0,0,0-2.019-3.454Z"></path><path class="c" d="M114.331,239.273c13.145-7.514,26.233-15.13,39.34-22.71,2.227-1.288.216-4.746-2.019-3.454-13.107,7.58-26.195,15.2-39.34,22.71-2.235,1.277-.222,4.735,2.019,3.454Z"></path><path class="c" d="M117.9,236.053V210.575c0-2.573-4-2.578-4,0v25.478c0,2.574,4,2.578,4,0Z"></path><path class="c" d="M175.88,151.958V119.3l-.991,1.727,14.142-8.165-3.009-1.727q0,14.32,0,28.642v4.019l.99-1.727-14.141,8.163c-2.229,1.287-.217,4.745,2.019,3.454l14.141-8.163a2.014,2.014,0,0,0,.991-1.727q0-13.734,0-27.466,0-2.6,0-5.195a2.02,2.02,0,0,0-3.01-1.727l-10.7,6.179c-1.137.656-2.357,1.248-3.441,1.986-1.053.718-.99,1.758-.99,2.879v31.507C171.88,154.532,175.88,154.536,175.88,151.958Z"></path><path class="c" d="M130.621,228.709V203.231c0-2.574-4-2.578-4,0v25.478c0,2.574,4,2.578,4,0Z"></path><path class="c" d="M142.642,221.768V196.291c0-2.574-4-2.578-4,0v25.477c0,2.574,4,2.579,4,0Z"></path><path class="c" d="M161.741,226.086v-32.8c0-2.574-4-2.578-4,0v32.8c0,2.574,4,2.578,4,0Z"></path><path class="c" d="M210.244,107.791,235.692,93.1l33.383-19.273,11.689-6.749c2.229-1.287.217-4.744-2.019-3.454L253.3,78.315,219.915,97.588l-11.69,6.749c-2.228,1.287-.216,4.745,2.019,3.454Z"></path><path class="c" d="M223.256,124.6V99.126c0-2.574-4-2.578-4,0V124.6c0,2.574,4,2.578,4,0Z"></path><path class="c" d="M210.244,133.274l27.366-15.8,31.234-18.033,12.111-6.992c2.229-1.287.217-4.745-2.019-3.454l-25.108,14.5-31.866,18.4-13.737,7.931c-2.228,1.286-.216,4.744,2.019,3.454Z"></path><path class="c" d="M235.277,117.663V92.186c0-2.574-4-2.578-4,0v25.477c0,2.574,4,2.578,4,0Z"></path><path class="c" d="M248,110.319V84.841c0-2.574-4-2.578-4,0v25.478c0,2.574,4,2.578,4,0Z"></path><path class="c" d="M278.932,114.139q-24.389,14.057-48.756,28.148-6.67,3.846-13.334,7.7c-2.225,1.293-.213,4.751,2.019,3.454Q243.389,139.19,268,125.074q6.478-3.738,12.953-7.481c2.229-1.285.217-4.743-2.019-3.454Z"></path><path class="c" d="M260.018,103.379V77.9c0-2.574-4-2.578-4,0v25.478c0,2.573,4,2.578,4,0Z"></path><path class="c" d="M223.251,153.676v-3.93a2.065,2.065,0,0,0-.585-1.414,2,2,0,0,0-2.829,0,2.078,2.078,0,0,0-.586,1.414v3.93a2.06,2.06,0,0,0,.586,1.414,2,2,0,0,0,2.829,0,2.077,2.077,0,0,0,.585-1.414Z"></path><path class="c" d="M272.039,96.438V70.961c0-2.574-4-2.578-4,0V96.438c0,2.574,4,2.578,4,0Z"></path><path class="c" d="M278.932,139.619q-16.971,9.795-33.94,19.59a2.011,2.011,0,0,0-.991,1.727v.01l.991-1.727q-3.045,1.748-6.08,3.51c-2.229,1.287-.217,4.745,2.019,3.454q3.039-1.755,6.08-3.51a2.011,2.011,0,0,0,.99-1.727v-.01l-.99,1.727q16.977-9.782,33.94-19.59c2.229-1.286.217-4.744-2.019-3.454Z"></path><path class="c" d="M235.281,160.616v-17.81c0-2.574-4-2.578-4,0v17.81c0,2.574,4,2.578,4,0Z"></path><path class="c" d="M248,160.942V135.464c0-2.574-4-2.578-4,0v25.478c0,2.573,4,2.578,4,0Z"></path><path class="c" d="M260.018,154V128.524c0-2.574-4-2.578-4,0V154c0,2.574,4,2.578,4,0Z"></path><path class="c" d="M272.039,147.061V121.584c0-2.574-4-2.578-4,0v25.477c0,2.574,4,2.578,4,0Z"></path><path class="c" d="M180.46,206.4v38.894a18.247,18.247,0,0,0,.035,3.058c.206,1.168,1.161,1.58,2.078,2.11,1.911,1.1,3.809,2.485,6.078,2.639,2.465.168,4.444-1.232,6.469-2.4.628-.363,1.292-.695,1.9-1.1,1.539-1.019,1.023-3.483,1.023-5.087V206.072c0-2.574-4-2.578-4,0v41.781l.99-1.727-2.558,1.479a9.654,9.654,0,0,1-2.962,1.485c-1.25.194-2.252-.543-3.271-1.132l-2.77-1.6.991,1.727V206.4c0-2.574-4-2.578-4,0Z"></path><path class="c" d="M229.957,185.335v32.473c0,1.514-.1,2.755,1.313,3.611.8.489,1.632.944,2.447,1.415,2.218,1.282,4.533,2.26,7.127,1.314a31.841,31.841,0,0,0,4.749-2.594c.87-.5,1.713-.9,1.908-2.012a31.982,31.982,0,0,0,.036-5.317V177.5c0-2.574-4-2.578-4,0v41.781l.991-1.727-2.558,1.478a9.662,9.662,0,0,1-2.963,1.486c-1.249.193-2.251-.543-3.271-1.133l-2.769-1.6.99,1.727V185.335c0-2.573-4-2.578-4,0Z"></path><path class="c" d="M154.676,179.7l26.31-15.19,18.067-10.431c2.793-1.613,5.554-3.476,8.458-4.883,1.7-.824,3.844,1.074,5.281,1.9l6.076,3.508,13.452,7.767,10.112,5.838c.273.157.972.417,1.105.638s0,.961,0,1.218v5.146c0,.235.128.914,0,1.124-.216.353-1.341.773-1.739,1l-2.589,1.5-9.789,5.652-18.046,10.419-13.927,8.041-5.028,2.9c-1.314.759-2.884,2.16-4.439,1.421-1.385-.657-2.7-1.559-4.028-2.325l-5.447-3.145-12.16-7.021-10.027-5.789a7.692,7.692,0,0,1-1.44-.831c-.27-.262-.212-.188-.212-.673v-4.943c0-.322-.244-2.667.01-2.845,2.091-1.468.095-4.937-2.019-3.454-1.846,1.3-1.991,2.975-1.991,5v5.447c0,1.974.219,3.695,2.088,4.863,1.18.738,2.419,1.4,3.625,2.093l24.243,14,4.619,2.666a6.674,6.674,0,0,0,7.261.113q5.243-3.029,10.487-6.055l36.089-20.837,5.171-2.985c1.608-.928,3.063-1.841,3.257-3.857.134-1.39.031-2.826.031-4.22a21.7,21.7,0,0,0-.1-4.5c-.451-2.06-2.435-2.892-4.081-3.842l-25.549-14.751c-1.96-1.132-3.91-2.283-5.881-3.4a6.369,6.369,0,0,0-6.487-.2c-1.065.573-2.1,1.212-3.148,1.817l-16.269,9.393-32.715,18.888-.648.374C150.428,177.535,152.44,180.993,154.676,179.7Z"></path><path class="c" d="M234.433,170.8l-42.685,24.644-3.789,2.188h2.019L170.6,186.445l-2.76-1.594c-2.233-1.289-4.25,2.166-2.019,3.454L185.2,199.49l2.76,1.594a2.027,2.027,0,0,0,2.019,0l33.342-19.25,13.132-7.582c2.228-1.287.216-4.744-2.019-3.454Z"></path><path class="c" d="M107.232,268.35q0,3.817.017,7.635,0,1.669.008,3.338c0,.25-.015.506,0,.755.009.158-.091.288.019-.09-.052.18-.079.085.005.045.15-.072.017-.03-.068.106-.116.185.064-.059.079-.078-.071.089-.158.162-.23.249-.306.371.144-.075-.082.088a4.927,4.927,0,0,1-2.652.87c-.3.016-.6.017-.9.005a6.486,6.486,0,0,1-.7-.064,7.415,7.415,0,0,1-.8-.186c-.144-.042-.285-.089-.426-.137-.282-.1-.062-.014-.208-.089-.208-.105-.406-.223-.6-.345-.068-.042-.276-.242-.037-.023-.085-.078-.165-.164-.251-.242-.032-.029-.186-.244-.054-.053.144.207-.039-.075-.061-.131-.09-.224.051.129.051.128.017-.5-.052.458-.023-.053.059-1.047,0-2.116,0-3.166q-.011-4.314-.019-8.63c0-2.574-4-2.578-4,0q0,4.374.019,8.747a19.6,19.6,0,0,0,.1,3.877,5.027,5.027,0,0,0,2.424,3.1,10.172,10.172,0,0,0,8.96.474,5.791,5.791,0,0,0,2.974-2.531,8.29,8.29,0,0,0,.474-3.883c-.007-3.24-.021-6.48-.022-9.72,0-2.573-4-2.578-4,0Z"></path><path class="c" d="M108.175,229.373a7.2,7.2,0,0,0-5.771-1.152c-2,.462-3.594,1.914-5.051,3.281a32.78,32.78,0,0,0-7.01,9.578,31.319,31.319,0,0,0-2.233,5.947,38.133,38.133,0,0,0-.879,7.04c-.26,4.338.024,8.59,2.938,12.05,2.382,2.827,5.745,3.867,9.276,4.371a31.438,31.438,0,0,0,9.163-.032c3.426-.492,6.63-1.4,9.041-4.052,3.023-3.326,3.458-7.584,3.216-11.894a38.112,38.112,0,0,0-1.021-7.922,33.236,33.236,0,0,0-11.264-16.9,2.066,2.066,0,0,0-2.829,0,2.013,2.013,0,0,0,0,2.828,28.542,28.542,0,0,1,10.683,17.144,44.987,44.987,0,0,1,.476,5.741,15.6,15.6,0,0,1-.481,5.368,7.909,7.909,0,0,1-5.783,5.247,27.086,27.086,0,0,1-6.992.866,21.435,21.435,0,0,1-7.717-1.305,8.426,8.426,0,0,1-4.777-7.512,32.561,32.561,0,0,1,1.178-11.285,28.988,28.988,0,0,1,5.5-9.983c1.964-2.314,5.062-6.286,8.317-3.968a2.017,2.017,0,0,0,2.737-.718A2.043,2.043,0,0,0,108.175,229.373Z"></path><path class="c" d="M298.622,156.705q0,3.817.017,7.635,0,1.668.008,3.337c0,.25-.014.507,0,.756.009.157-.091.287.019-.091-.052.18-.079.086,0,.045.15-.072.017-.03-.068.106-.116.186.064-.059.079-.077-.071.088-.158.161-.23.248-.306.371.144-.075-.082.088a4.918,4.918,0,0,1-2.652.87q-.449.024-.9,0a6.234,6.234,0,0,1-.7-.064,7.472,7.472,0,0,1-.8-.186c-.144-.041-.284-.089-.426-.137-.282-.1-.062-.014-.208-.089-.208-.105-.405-.223-.6-.345-.068-.041-.276-.242-.036-.023-.086-.078-.166-.164-.252-.242-.032-.028-.186-.244-.054-.053.144.208-.039-.075-.061-.131-.09-.224.051.13.051.129.017-.5-.051.457-.023-.053.059-1.048,0-2.117,0-3.166q-.01-4.316-.019-8.631c0-2.573-4-2.578-4,0q0,4.374.019,8.748a19.59,19.59,0,0,0,.1,3.876,5.027,5.027,0,0,0,2.423,3.1,10.173,10.173,0,0,0,8.96.474,5.794,5.794,0,0,0,2.974-2.53,8.307,8.307,0,0,0,.475-3.883c-.007-3.24-.022-6.48-.023-9.72,0-2.574-4-2.578-4,0Z"></path><path class="c" d="M299.565,117.727a7.2,7.2,0,0,0-5.771-1.151c-2,.462-3.594,1.913-5.051,3.28a32.78,32.78,0,0,0-7.01,9.578,31.328,31.328,0,0,0-2.233,5.948,38.2,38.2,0,0,0-.879,7.039c-.26,4.339.024,8.591,2.938,12.05,2.382,2.827,5.745,3.868,9.276,4.372A31.473,31.473,0,0,0,300,158.81c3.426-.491,6.63-1.4,9.041-4.051,3.023-3.326,3.459-7.585,3.216-11.895a38.111,38.111,0,0,0-1.02-7.922,33.231,33.231,0,0,0-11.265-16.9,2.064,2.064,0,0,0-2.828,0,2.011,2.011,0,0,0,0,2.828,28.545,28.545,0,0,1,10.682,17.144,44.806,44.806,0,0,1,.476,5.741,15.6,15.6,0,0,1-.481,5.368,7.907,7.907,0,0,1-5.783,5.247,27,27,0,0,1-6.992.866,21.414,21.414,0,0,1-7.717-1.305,8.425,8.425,0,0,1-4.777-7.512,32.53,32.53,0,0,1,1.179-11.284,28.951,28.951,0,0,1,5.5-9.983c1.965-2.315,5.062-6.286,8.317-3.969a2.017,2.017,0,0,0,2.737-.717A2.043,2.043,0,0,0,299.565,117.727Z"></path><path class="c" d="M310.584,228.848a111.007,111.007,0,0,1-3.245,11.606c-.625,1.948-1.233,3.9-1.779,5.873a6.164,6.164,0,0,0-.365,2.846,5.34,5.34,0,0,0,1.526,2.643,9.738,9.738,0,0,0,4.666,2.5,3.423,3.423,0,0,0,3.193-.551,8.517,8.517,0,0,0,1.541-2.587l6.352-12.6c1.155-2.293-2.294-4.321-3.454-2.019l-3.688,7.319-1.742,3.457-.922,1.829a7.725,7.725,0,0,1-.915,1.778l.882-.515c-.463.191-1.43-.335-1.876-.577a5.317,5.317,0,0,1-1.091-.745,5.12,5.12,0,0,1-.367-.384c-.045-.051-.268-.557-.209-.26.052.262.127-.33.148-.411.077-.289.157-.577.238-.865q.231-.831.475-1.657c.324-1.094.663-2.183,1.009-3.27a120.165,120.165,0,0,0,3.48-12.34c.514-2.513-3.34-3.587-3.857-1.063Z"></path><path class="c" d="M326.643,228.294c.383,5.6,2.8,10.975,5.789,15.636l.312-2.424q-3.614,3.362-7.352,6.587h2.829a35.9,35.9,0,0,1-3.136-4.917,22.536,22.536,0,0,1-2.374-5.918c-.543-2.515-4.4-1.45-3.858,1.064.978,4.529,3.653,9.021,6.539,12.6a2.032,2.032,0,0,0,2.829,0q3.736-3.225,7.352-6.586a2.02,2.02,0,0,0,.312-2.424,35.017,35.017,0,0,1-4.042-8.075,27.356,27.356,0,0,1-1.2-5.542,2.048,2.048,0,0,0-2-2,2.017,2.017,0,0,0-2,2Z"></path><path class="c" d="M333.8,222.469c-.738.22-2.533,1.25-3.3,1.059-1.044-.258-1.109-2.159-1.193-2.989a51.512,51.512,0,0,1-.24-6.712c.027-.883-.109-1.579.794-1.9a6.989,6.989,0,0,1,2.886.108.555.555,0,0,1,.341.138.562.562,0,0,1,.108.308q.662,4.713.947,9.468a.538.538,0,0,1-.073.378A.533.533,0,0,1,333.8,222.469Z"></path><path class="c" d="M333.27,220.54c-.376.121-.742.289-1.1.446l-.456.2c-.477.215.235-.081-.15.067-.315.12-.629.218-.95.315-.365.111.44,0,.077-.017a1.13,1.13,0,0,1,.621.174l-.091-.054c.145.093.595.643.292.214-.206-.292.1.386.017.018-.033-.148-.081-.293-.111-.443-.043-.207.02-.568-.021-.046a14.277,14.277,0,0,0-.2-2.1c-.15-1.954-.157-3.9-.125-5.861a2.148,2.148,0,0,0,.015-.481c-.05.3-.058.379-.022.229s.009-.081-.1.209a1.063,1.063,0,0,1-.374.374q-.369.129-.064.031c.393-.089-.385-.039.085-.009.169.01.34,0,.51.011.093.006.828.108.329.027l.477.076.285.045c.214.046.168.025-.136-.064l-.718-.717c-.213-.4-.046.17-.031.279-.034-.245.024.185.033.254q.079.618.154,1.237.141,1.182.258,2.365t.211,2.37q.043.565.083,1.13.024.339.046.679l.014.226q0,.664.214-.406l.718-.717.207-.059a2,2,0,0,0,1.063,3.857,2.475,2.475,0,0,0,1.813-2.382c0-.734-.093-1.483-.15-2.215q-.166-2.145-.412-4.285-.122-1.07-.263-2.137c-.147-1.109-.167-2.263-1.221-2.933a3.8,3.8,0,0,0-1.582-.46,9.614,9.614,0,0,0-2.065-.173,3.305,3.305,0,0,0-3.278,2.5,19.726,19.726,0,0,0-.12,3.978c.027,1.435.123,2.865.258,4.293a9.569,9.569,0,0,0,.541,2.86,3.167,3.167,0,0,0,3.7,2.006,9.005,9.005,0,0,0,1.832-.659c.226-.1.452-.195.677-.3.418-.189-.326.111-.064.025.113-.038.222-.086.336-.123a2,2,0,1,0-1.063-3.857Z"></path><path class="c" d="M323.33,204.413a5.122,5.122,0,0,1,3.3,3.224,24.9,24.9,0,0,1,1.288,6.573,78.571,78.571,0,0,1-.795,15.206l2-2c-5.487.558-11.135.853-16.571-.263l1.468,1.928c-.026-2.857-.074-5.72,0-8.577.066-2.575-3.934-2.574-4,0-.074,2.857-.026,5.72,0,8.577a2.028,2.028,0,0,0,1.468,1.929,58.252,58.252,0,0,0,17.635.406,2.084,2.084,0,0,0,2-2,71.474,71.474,0,0,0,.664-16.727,24.945,24.945,0,0,0-1.806-7.4,8.491,8.491,0,0,0-4.631-4.332,2.063,2.063,0,0,0-2.736.718,2.014,2.014,0,0,0,.717,2.736Z"></path><path class="c" d="M322.779,183.828c-4.422-1.174-10.065.472-12.445,4.562-2.226,3.825-2.807,9.346-.1,13.084,2.668,3.684,7.448,5.038,11.818,4.245a10.433,10.433,0,0,0,5.425-2.976,10.724,10.724,0,0,0,2.793-6.248c.326-2.537.171-5.555-1.224-7.776a11.753,11.753,0,0,0-6.268-4.891c-2.464-.763-3.518,3.1-1.063,3.857a7.694,7.694,0,0,1,3.651,2.721,7.123,7.123,0,0,1,1.035,4.528c-.073,2.911-1.366,5.553-4.212,6.615a8.128,8.128,0,0,1-7.954-1.522c-2.294-2.214-2.114-5.737-1-8.512a5.713,5.713,0,0,1,3.21-3.335,8.3,8.3,0,0,1,5.267-.5C324.207,188.346,325.269,184.489,322.779,183.828Z"></path><path class="c" d="M311.522,191.065a24.346,24.346,0,0,1,3.26,1.745c.134.09.267.184.4.279.111.082.106.076-.017-.017l.151.123a9.53,9.53,0,0,1,.773.731c.107.117.217.235.312.362-.166-.222.01.039.072.137.084.134.149.279.233.411.23.363-.1-.374.031.069a12.423,12.423,0,0,1,.4,1.713c-.059-.4.024.244.026.261.016.173.03.345.042.518.025.358.04.717.047,1.075.017.779,0,1.558-.051,2.336q-.035.551-.089,1.1c-.021.214-.046.428-.071.642a2.059,2.059,0,0,1-.042.293,2.066,2.066,0,0,0,1.4,2.46,2.015,2.015,0,0,0,2.461-1.4,32.187,32.187,0,0,0,.395-5.433,14.509,14.509,0,0,0-.715-4.775c-1.173-3.1-4.152-4.753-7-6.086a2.057,2.057,0,0,0-2.736.717,2.017,2.017,0,0,0,.718,2.737Z"></path><path class="c" d="M316.107,202.009c-2.384.4-4.158,2.56-5.5,4.389a13.484,13.484,0,0,1-4.548,4.45c-.075.038-.667.291-.286.14-.221.088-.444.167-.67.243a4.58,4.58,0,0,0-1.756.822c-1.179,1.084-1,2.442-.512,3.8a32.275,32.275,0,0,0,2.559,6.086,2.076,2.076,0,0,0,2.259.919,20.65,20.65,0,0,0,9.635-4.88,2.015,2.015,0,0,0,0-2.828,2.042,2.042,0,0,0-2.828,0A16.5,16.5,0,0,1,306.587,219l2.259.919a24.264,24.264,0,0,1-2.007-4.717,6.648,6.648,0,0,0-.443-1.245q-.266-.855-.736,1.3c.113-.035.225-.07.337-.107.168-.055.336-.111.5-.171a11.789,11.789,0,0,0,2.457-1.178,18.827,18.827,0,0,0,4.738-4.88c.84-1.146,1.978-2.8,3.477-3.048a2.015,2.015,0,0,0,1.4-2.46,2.049,2.049,0,0,0-2.461-1.4Z"></path><path class="c" d="M304.548,220.136c.017-.043.223-.422.055-.144-.03.051-.056.106-.087.158-.04.068-.094.131-.129.2-.088.175.108-.166.131-.167-.049,0-.286.3-.332.345s-.093.077-.137.118c-.17.159.411-.271.063-.057-.122.075-.241.154-.368.223-.085.047-.352.12-.39.193.016-.031.463-.172.13-.061l-.177.062c-.159.053-.319.1-.481.138-.141.034-.283.061-.425.089-.339.067.132-.027.168-.02a1.17,1.17,0,0,0-.24.023c-.166.012-.332.018-.5.017-.069,0-.138,0-.207,0s-.468-.056-.134,0c.318.053-.152-.033-.244-.055a4.358,4.358,0,0,1-.422-.126c-.455-.16.258.157-.034-.017-.141-.084-.284-.164-.425-.248-.294-.177.1.051.105.094a1.472,1.472,0,0,0-.191-.162c-.111-.1-.217-.2-.319-.311-.044-.047-.086-.1-.13-.144-.161-.173.031-.1.064.1-.018-.109-.175-.269-.228-.369a1.349,1.349,0,0,0-.105-.215c.015.008.139.386.083.182-.041-.152-.1-.3-.142-.452s-.069-.327-.107-.49c-.064-.275.023.378.013.091,0-.126-.021-.252-.024-.378a5.06,5.06,0,0,1,.011-.537,1.044,1.044,0,0,1,.021-.231s-.079.391.006.074c.045-.171.082-.343.134-.512.022-.069.046-.137.067-.206.133-.435-.134.253-.023.032.133-.265.284-.5.436-.758.128-.212-.287.282-.1.135a1.205,1.205,0,0,0,.112-.124c.064-.067.479-.425.2-.2s.091-.036.178-.092c.344-.223-.44.136,0,0a5.931,5.931,0,0,1,1.3-.313c-.066,0-.438.039-.062.017.1-.006.208-.015.312-.02.2-.01.41-.011.615,0,.1,0,.2.007.3.014.071,0,.489.067.171.008-.279-.053-.037-.006.016,0,.135.025.269.05.4.08a2,2,0,0,0,1.063-3.857,9.572,9.572,0,0,0-3.115-.2,7.6,7.6,0,0,0-3.15.9,6.968,6.968,0,0,0-.731,10.7,7.466,7.466,0,0,0,8.586.4A5.867,5.867,0,0,0,308.4,221.2a2.008,2.008,0,0,0-1.4-2.461,2.058,2.058,0,0,0-2.46,1.4Z"></path><path class="c" d="M311.682,253.7q-.1-.258.007.07.076.357.006.008-.016.357.03,0a2.743,2.743,0,0,1-.089.343c.1-.376-.137.234-.2.337.187-.292-.25.267-.309.332-.174.152-.181.163-.018.031a3.508,3.508,0,0,1-.309.19c-.209.1-.215.11-.018.026-.114.043-.229.081-.347.114a3.965,3.965,0,0,1-.538.116c.445-.061-.3-.012-.387-.014a8.193,8.193,0,0,1-2.635-.78,13.215,13.215,0,0,1-2.51-1.416c.292.226-.262-.247-.313-.3s-.5-.588-.308-.317c-.139-.194-.237-.4-.357-.608q-.108-.224.033.084c-.027-.082-.05-.165-.069-.25-.039-.216-.037-.178.009.113-.009-.1-.015-.2-.017-.3a6.256,6.256,0,0,1,.028-.628c-.043.529.04-.134.071-.248.048-.177.328-.629.057-.216.308-.468-.172.083.056-.119.415-.366-.316.16.142-.127.081-.05.712-.362.273-.187.208-.083.422-.126.633-.193.231-.041.214-.044-.048-.008.106-.012.214-.021.321-.026.213-.009.421.008.633.014-.527-.014.081.019.218.054.117.029.727.254.2.029a2.057,2.057,0,0,0,2.736-.717,2.022,2.022,0,0,0-.717-2.737,6.607,6.607,0,0,0-6.406.416,4.783,4.783,0,0,0-1.951,2.754,6.6,6.6,0,0,0-.075,3.254c.584,2.326,2.776,3.877,4.807,4.872,2.254,1.1,4.837,2.11,7.357,1.285a6.01,6.01,0,0,0,3.316-2.635,4.783,4.783,0,0,0,.149-4.635,2.009,2.009,0,0,0-2.736-.718,2.056,2.056,0,0,0-.718,2.737Z"></path><path class="c" d="M333.708,245.5c.037-.009.445-.088.445-.089,0,.032-.391.02-.149.03.1,0,.206-.01.308-.01s.52.075.273.008c-.265-.072-.006.007.036.02.1.031.2.064.3.089-.315-.081-.108-.025.076.072-.052-.027-.327-.266-.029-.015.017.015.219.212.068.052-.12-.128.134.244.187.313.123.162,0-.016-.017-.072.042.111.079.225.111.34.037.134.094.527.06.177a4.986,4.986,0,0,1,.023.635c0,.09-.061.558-.024.367.047-.24-.026.087-.031.109-.034.129-.062.259-.1.387-.054.192-.12.381-.187.569-.136.375-.064.159-.028.077-.04.091-.084.182-.127.273-.189.392-.4.774-.617,1.152-.206.356-.418.71-.644,1.055q-.154.237-.318.468c-.055.076-.109.154-.167.228.128-.165.051-.066-.039.034-.145.162-.288.325-.444.478-.066.065-.135.127-.2.191-.01.01-.239.215-.083.082s-.079.059-.094.069c-.079.053-.158.1-.239.155s-.171.1-.258.146-.266.1-.068.036c-.1.036-.211.061-.313.1-.146.05-.161-.045,0,.007.177.057.115,0-.014-.013-.072,0-.148,0-.22,0a.7.7,0,0,1-.225-.015s.387.083.152.014c-.194-.056-.406-.118-.6-.16-.212-.045.093.05.12.063-.067-.032-.136-.062-.2-.1s-.472-.228-.218-.108c.195.092.059.06,0-.013a1.627,1.627,0,0,0-.151-.159c-.162-.138,0,0,.031.051-.081-.12-.158-.241-.228-.367-.04-.075-.076-.151-.115-.226.081.157.077.218.022.017-.05-.182-.09-.366-.135-.549-.055-.225.017.11.018.134,0-.106-.016-.213-.02-.319a6.144,6.144,0,0,1,.016-.637c0-.079.016-.158.022-.237.02-.29-.07.345-.007.064.04-.176.066-.355.105-.532.086-.38.193-.754.306-1.126a2.019,2.019,0,0,0-1.4-2.46,2.043,2.043,0,0,0-2.461,1.4,8.5,8.5,0,0,0,.076,6.267,5.577,5.577,0,0,0,5.929,2.911c2.436-.4,4.147-2.605,5.328-4.589,1.272-2.134,2.29-4.557,1.652-7.075a5.006,5.006,0,0,0-2.521-3.281,5.979,5.979,0,0,0-4.025-.339,2.018,2.018,0,0,0-1.4,2.461,2.044,2.044,0,0,0,2.46,1.4Z"></path><path class="c" d="M391.5,250.656c2.455,3.259,3.235,7.479,3.414,11.47a72.648,72.648,0,0,1-.747,12.51l2-2c-1.789.189-3.58.371-5.37.56a2.059,2.059,0,0,0-2,2,2.014,2.014,0,0,0,2,2c1.79-.189,3.581-.371,5.37-.56a2.084,2.084,0,0,0,2-2,69.206,69.206,0,0,0,.7-13.366c-.287-4.363-1.228-9.069-3.913-12.633a2.063,2.063,0,0,0-2.736-.718,2.015,2.015,0,0,0-.718,2.737Z"></path><path class="c" d="M390.489,267.439a1,1,0,0,0-.88-.936c-2.281-.267-3.691-.539-6.018-.62l-.037.006c-.92.879-1.925,1.673-2.93,2.457a6.039,6.039,0,0,1-1.679,1.036,4.427,4.427,0,0,1-2.019.134,8.074,8.074,0,0,1-4.072-1.908l-.679.109c-.154.885-.548,3.212-.95,5.4a1,1,0,0,0,.762,1.156,110.1,110.1,0,0,0,16.912,2.123,1,1,0,0,0,1.012-.809A34.145,34.145,0,0,0,390.489,267.439Z"></path><path class="c" d="M383.591,267.883c1.678.067,3.332.281,5,.494l.669.084a1.051,1.051,0,0,1-.75-.735c-.113.14.032,1.009.032,1.209,0,.865-.031,1.73-.093,2.593-.057.788-.131,1.576-.254,2.356-.044.285-.134.6-.153.887q-.281.92.861-.377c-.15,0-.3-.008-.45-.014-1.388-.048-2.773-.156-4.155-.287q-4.356-.411-8.673-1.15-1-.173-2-.369a6.65,6.65,0,0,0-.895-.186q-.854-.26.487.912.063-.346.125-.693c.261-1.452.509-2.906.761-4.359a2.057,2.057,0,0,0-1.4-2.46,2.017,2.017,0,0,0-2.46,1.4c-.252,1.453-.5,2.907-.761,4.358a4.619,4.619,0,0,0,.05,3.09,3.157,3.157,0,0,0,2.131,1.612,74.446,74.446,0,0,0,8.836,1.428c1.54.194,3.084.363,4.631.5a24.639,24.639,0,0,0,4,.2c2.257-.182,2.74-2.174,3-4.043a37.9,37.9,0,0,0,.4-5.394,5.876,5.876,0,0,0-.457-2.951,3.274,3.274,0,0,0-2.648-1.5c-1.945-.244-3.881-.521-5.842-.6-2.574-.1-2.569,3.9,0,4Z"></path><path class="c" d="M381.37,251.414a4.315,4.315,0,0,1,2.879,2.117,7.317,7.317,0,0,1,1.415,3.842,57.462,57.462,0,0,1,.062,8.927,2,2,0,1,0,4,0,48.748,48.748,0,0,0-.216-10.211,11.212,11.212,0,0,0-2.256-5.188c-1.179-1.547-2.81-3.072-4.821-3.344a2.069,2.069,0,0,0-2.46,1.4,2.014,2.014,0,0,0,1.4,2.461Z"></path><path class="c" d="M376.549,275.839l-3.473,7.187a2.044,2.044,0,0,0,1.195,2.938c6.757,2.847,14.992,3.63,22.031,1.271a7.875,7.875,0,0,0,2.935-1.455c1.066-1.029.519-2.421.222-3.65-.636-2.629-1.32-5.258-1.781-7.925a2.015,2.015,0,0,0-2.46-1.4,2.046,2.046,0,0,0-1.4,2.46c.553,3.2,1.432,6.336,2.155,9.5v-1.064l-.016.059.514-.883c.4-.423-.06,0-.283.113a5.65,5.65,0,0,1-.573.243,16.006,16.006,0,0,1-2.095.6,28.017,28.017,0,0,1-5.939.728,30.167,30.167,0,0,1-12.25-2.459l1.195,2.938L380,277.858c1.115-2.308-2.333-4.339-3.454-2.019Z"></path><path class="c" d="M372.009,297.42c-.08-.114-.134-.256-.217-.365q-.094-.2.072.168c-.032-.089-.061-.18-.087-.271-.04-.142-.068-.287-.1-.432-.1-.468,0,.413,0-.066,0-.145,0-.3,0-.442.018-.228.008-.191-.029.114a1.821,1.821,0,0,1,.04-.195c.183-.457-.233.248,0-.025.079-.094.376-.416.041-.08.1-.1.207-.208.307-.312.29-.3-.287.147.05-.033a4.011,4.011,0,0,0,.431-.239q.2-.095-.158.067c.087-.032.174-.061.262-.086a3.018,3.018,0,0,1,.4-.093c0,.015-.478.032,0,.014.131,0,.261,0,.391.006.385,0-.43-.143.031.016.077.027.465.19.166.034-.321-.168.126.082.18.117.213.137.416.287.638.412a14.194,14.194,0,0,0,2.185.956,19.914,19.914,0,0,0,4.554,1.021l-1.009-.273c.3.177-.083-.116-.145-.177q-.144-.21-.009,0l-.1-.252c.112.367.033-.311.008-.1a2.014,2.014,0,0,1,0,.332c-.013,0,.121-.494-.013-.05-.035.116-.073.232-.1.349-.1.354.123-.2.006,0-.062.1-.107.22-.165.327a3.637,3.637,0,0,0-.187.316c-.085.2.269-.25-.039.045-.037.036-.358.355-.159.171s-.176.116-.2.129c-.117.072-.245.126-.362.2-.232.138.41-.119-.059.018a5.708,5.708,0,0,1-.8.2c.216-.031-.03,0-.111,0-.216.007-.429.014-.645.008-.144,0-.288-.013-.431-.024.008,0-.636-.069-.329-.027-.627-.086-1.255-.212-1.87-.36-.3-.074-.609-.157-.907-.256-.149-.049-.3-.1-.441-.158.329.128-.055-.033-.118-.065-.139-.071-.275-.145-.407-.226-.038-.023-.431-.3-.258-.163s-.192-.184-.224-.217a5.125,5.125,0,0,1-.373-.433,2,2,0,0,0-2.828,0,2.061,2.061,0,0,0,0,2.829A7.745,7.745,0,0,0,373,302.3a14.826,14.826,0,0,0,4.812.632,6.627,6.627,0,0,0,4.412-1.875,6.276,6.276,0,0,0,1.681-3.95,3.587,3.587,0,0,0-.518-1.972,3.341,3.341,0,0,0-1.092-1.079,2.283,2.283,0,0,0-.6-.276q-.336-.051-.674-.087t.086.012a6.588,6.588,0,0,1-1.617-.327,18.437,18.437,0,0,1-1.975-.605c-.129-.048-.256-.1-.385-.149-.3-.113.419.206-.033-.016-.24-.118-.481-.23-.714-.364a8.779,8.779,0,0,0-1.586-.843,5.465,5.465,0,0,0-3.631.1,5.193,5.193,0,0,0-3.347,3.429,6.005,6.005,0,0,0,.743,4.508,2,2,0,0,0,3.454-2.019Z"></path><path class="c" d="M396.763,298.667c.018,0-.252.068-.254.06-.021-.084.451-.017.114-.035-.1-.006-.2-.006-.3-.009-.432-.014.082-.008.077.011a5.266,5.266,0,0,1-.673-.186c-.267-.078.289.17.062.021-.041-.026-.309-.125-.314-.18,0,0,.29.286.087.064l-.222-.238c.2.22.01.014-.026-.046-.062-.1-.12-.2-.182-.305-.189-.312-.039-.074-.008.015-.036-.1-.072-.2-.1-.309a1.2,1.2,0,0,1-.071-.31q.047.411.016.069l0-.154c0-.1.006-.2.007-.3,0-.419.02.074-.018.083.025-.006.126-.529.142-.58a1.172,1.172,0,0,1,.1-.28c-.182.191-.121.247-.028.074.1-.189.2-.379.314-.561a7.134,7.134,0,0,1,.585-.827c-.331.39.065-.074.15-.177.17-.207.342-.41.516-.612q.921-1.065,1.916-2.062.216-.217.436-.43c.077-.076.3-.377.411-.391-.011,0-.39.257-.053.072-.057.031-.419.148-.091.07l-.26.038.138,0c.182.013.187.011.016-.006s-.166-.018.017.02c.089.034.192.063.282.092-.081-.026-.358-.2-.065-.013.127.08.567.421.227.112.147.134.286.268.425.409-.062-.063-.209-.346-.021-.017.025.044.252.454.136.216-.127-.26.072.238.073.244.031.111.051.223.078.335-.02-.082-.02-.4-.008-.015,0,.117.01.231.009.348s-.01.232-.016.348-.1.326,0-.015c-.081.275-.127.558-.217.832-.04.122-.089.24-.13.361-.066.2.1-.175-.063.139-.146.287-.286.574-.443.855-.283.51-.581,1.013-.906,1.5-.068.1-.136.2-.206.3-.084.117-.251.312-.069.1a8.162,8.162,0,0,1-.6.658c-.086.082-.18.156-.264.239.269-.264-.1.071-.168.113-.107.068-.217.127-.327.189-.355.2.2-.054-.227.086a2,2,0,1,0,1.064,3.857c3-1,4.868-3.983,6-6.786,1.154-2.86.5-6.462-2.461-7.922a4.1,4.1,0,0,0-4.583.331,23.071,23.071,0,0,0-2.436,2.477c-1.627,1.815-3.315,3.791-3.376,6.359a5.728,5.728,0,0,0,1.974,4.428,5.64,5.64,0,0,0,4.884,1.113,2,2,0,1,0-1.064-3.857Z"></path><path class="c" d="M382.33,297.5a2.862,2.862,0,0,0,1.112-1.423c.3-.618.585-1.246.868-1.874.719-1.594,1.418-3.2,2.122-4.8.268-.61.534-1.221.812-1.826a2.05,2.05,0,0,0-.717-2.737,2.025,2.025,0,0,0-2.737.718c-1.232,2.683-2.347,5.42-3.607,8.091-.119.252-.238.5-.367.751-.041.08-.089.157-.129.237a.513.513,0,0,0-.044.07,1.872,1.872,0,0,1,.668-.664,2.012,2.012,0,0,0-.717,2.736,2.049,2.049,0,0,0,2.736.718Z"></path><path class="c" d="M375.414,284.623a54.075,54.075,0,0,0-2,7.822,2.156,2.156,0,0,0,.2,1.541,2,2,0,0,0,3.655-.478,54.193,54.193,0,0,1,2-7.821,2.014,2.014,0,0,0-1.4-2.461,2.05,2.05,0,0,0-2.461,1.4Z"></path><path class="c" d="M386.428,289.125a39.729,39.729,0,0,0,4.2,4.207c.632.553,1.281,1.085,1.952,1.588a2.207,2.207,0,0,0,2.6.358,2.156,2.156,0,0,0,.92-1.195,2.047,2.047,0,0,0-.2-1.541,2.023,2.023,0,0,0-2.736-.718l0,0,.478-.2h-.006l.532-.071h-.007l.531.071a.178.178,0,0,1-.045-.013l.478.2a3.675,3.675,0,0,1-.691-.476l.405.313a37.653,37.653,0,0,1-5.582-5.355,2,2,0,0,0-2.828,0,2.052,2.052,0,0,0,0,2.828Z"></path><path class="c" d="M400.318,286.882c-.236-.272-.466-.549-.687-.834l.313.4c-.431-.559-.823-1.147-1.215-1.734a2.121,2.121,0,0,0-1.195-.919,1.512,1.512,0,0,0-.8-.035,1.492,1.492,0,0,0-.744.237,2,2,0,0,0-.717,2.736,28.9,28.9,0,0,0,2.214,2.972,2.054,2.054,0,0,0,2.828,0,2.01,2.01,0,0,0,.586-1.414l-.071-.532a1.992,1.992,0,0,0-.515-.882Z"></path><path class="c" d="M376.454,236.517a11.369,11.369,0,0,0-.638,8.55,7.843,7.843,0,0,0,5.764,5.248,2.049,2.049,0,0,0,2.46-1.4,2.024,2.024,0,0,0-1.4-2.46,5.5,5.5,0,0,1-.632-.143c-.1-.031-.2-.074-.307-.1.388.11.066.028-.041-.026a5.339,5.339,0,0,1-.562-.327c-.036-.024-.319-.23-.128-.082s-.081-.075-.113-.1c-.184-.164-.349-.343-.519-.522-.14-.148-.1-.12,0,.023-.064-.088-.128-.176-.188-.267a6.455,6.455,0,0,1-.362-.63c-.055-.108-.108-.218-.156-.329.114.265.019.021-.028-.116q-.117-.345-.2-.7c-.028-.119-.053-.238-.076-.358-.008-.039-.069-.414-.037-.186s-.012-.149-.015-.189c-.01-.122-.018-.243-.023-.365-.012-.286-.012-.571,0-.857.007-.133.018-.265.028-.4s.039-.279,0-.062c.043-.263.094-.524.156-.783.071-.29.155-.578.251-.86.043-.126.094-.249.136-.375.112-.334-.184.4.071-.162a2.05,2.05,0,0,0-.717-2.737,2.024,2.024,0,0,0-2.737.718Z"></path><path class="c" d="M398.376,238.015a10.731,10.731,0,0,0-8.636-8.313,12.4,12.4,0,0,0-8.631,1.27,11.426,11.426,0,0,0-4.863,6.022,2.009,2.009,0,0,0,1.4,2.46,2.752,2.752,0,0,1,1.2.5,9.072,9.072,0,0,1,1.433,1.08,5.31,5.31,0,0,1,1.875,2.5,11.742,11.742,0,0,1-.157,4.574,3.688,3.688,0,0,0,2.3,4.234c2.1.963,4.209.63,6.388.085,2.626-.656,6.107-1.477,7.343-4.209,1.4-3.1,1.078-6.993.357-10.2-.563-2.51-4.421-1.448-3.857,1.064a17.2,17.2,0,0,1,.44,4.188c-.008.4-.064,1.175-.085,1.333-.032.232-.208,1.057-.323,1.493a2.2,2.2,0,0,1-.255.646,1.177,1.177,0,0,1-.112.089,7.632,7.632,0,0,1-1.556.907c.22-.1-.158.056-.229.078-.393.124-.794.224-1.19.334-.657.181-1.315.359-1.977.517a8.434,8.434,0,0,1-2.365.332c-.481.014.184.093-.115,0-.149-.048-.316-.088-.468-.124-.379-.092.057.037-.042-.011a1.517,1.517,0,0,0-.441-.212c-.437-.025.259.217.094.33a7.736,7.736,0,0,0,.237-1.874,15.808,15.808,0,0,0,.172-2.4,7.8,7.8,0,0,0-1.153-4.142c-1.415-2.129-3.87-4.425-6.445-4.963l1.4,2.46c1.475-3.706,5.3-5.287,9.176-4.371a6.61,6.61,0,0,1,3.986,2.417c-.159-.21.044.076.1.157.084.137.173.271.254.41.1.162.181.329.267.5.022.042.227.488.127.258s.08.208.1.253c.057.16.113.32.164.483.1.3.177.611.251.92C395.119,241.581,398.977,240.522,398.376,238.015Z"></path><path class="c" d="M381.091,249.274a8.5,8.5,0,0,0-3.519,3.292q-.828,1.266-1.541,2.6-.357.667-.684,1.349c-.1.2-.191.405-.285.609-.04.084-.379.692-.01.335a4.823,4.823,0,0,1-1.319.6q-.913.4-1.83.791c-1.139.492-2.281.979-3.416,1.48a2.022,2.022,0,0,0-.919,2.259,11.86,11.86,0,0,0,7.267,8.452,6.715,6.715,0,0,0,6.116-.461,26.964,26.964,0,0,0,5.1-4.4,2.048,2.048,0,0,0,0-2.828,2.019,2.019,0,0,0-2.829,0,24.91,24.91,0,0,1-4.011,3.58,3.093,3.093,0,0,1-3.311.256,7.95,7.95,0,0,1-4.474-5.659l-.919,2.259c1.1-.485,2.2-.957,3.306-1.433a25.014,25.014,0,0,0,3.259-1.439,5.025,5.025,0,0,0,1.73-2.379q.654-1.363,1.426-2.667.385-.649.8-1.284c.1-.155.2-.31.311-.461.164-.23-.191.225.037-.046a4.575,4.575,0,0,1,1.737-1.35,2.013,2.013,0,0,0,.717-2.736,2.05,2.05,0,0,0-2.736-.718Z"></path><path class="c" d="M371.43,258.921a3.146,3.146,0,0,1-.423.011q-.117,0-.234-.018.5.072.165.01c-.09-.028-.458-.067-.5-.152q.4.174.1.029a2.807,2.807,0,0,1-.241-.146c.21.175.232.19.064.046a1.77,1.77,0,0,1-.16-.164c.182.247.211.282.087.1-.049-.075-.1-.152-.137-.232-.1-.195-.086-.163.026.094-.035-.09-.066-.181-.093-.274s-.051-.188-.07-.284q.047.435.018.095c.006-.188,0-.377.01-.566q.006-.13.018-.261c.023-.223.014-.168-.027.163a2.744,2.744,0,0,0,.1-.457c.022-.074.046-.147.074-.219q-.2.444-.059.155c.087-.144.171-.288.26-.431q.186-.255-.059.073c.061-.074.123-.147.187-.219.12-.135.245-.267.375-.392.063-.06.127-.118.192-.175q.247-.206-.107.074c.1.058.7-.543.884-.51q-.408.171-.1.052c.09-.032.181-.061.273-.089.157-.047.317-.079.476-.119.217-.037.167-.032-.149.013.088-.009.176-.016.265-.021.183-.009.364,0,.547.008q.334.033-.108-.016c.1.019.191.04.285.065s.193.056.288.089c.207.078.192.072-.046-.02.163,0,.405.238.541.32.175.127.146.1-.087-.072.068.055.134.113.2.173.129.118.242.248.361.375q.2.249-.074-.1c.05.07.1.142.143.215a4.52,4.52,0,0,1,.246.456c-.113-.279-.131-.318-.054-.115.029.083.056.166.08.251a2.108,2.108,0,0,1,.113.523q-.058-.461-.027-.123c0,.093.008.186.008.279a2,2,0,0,0,4,0,6.279,6.279,0,0,0-7.836-6.1,7.416,7.416,0,0,0-4.272,3.088,6.017,6.017,0,0,0-.638,5.162,4.917,4.917,0,0,0,2.138,2.654,5.288,5.288,0,0,0,2.972.7,2,2,0,0,0,0-4Z"></path></svg>