<svg width="152" height="152" viewBox="0 0 152 152" fill="none" xmlns="http://www.w3.org/2000/svg">
<circle cx="75.9416" cy="75.6486" r="75.5119" fill="#CFECE8" fill-opacity="0.38"/>
<path d="M79.8553 54.156C79.2713 54.156 78.7273 54.06 78.2233 53.868C77.7273 53.676 77.2993 53.364 76.9393 52.932C76.8273 52.78 76.7833 52.64 76.8073 52.512C76.8393 52.376 76.9313 52.264 77.0833 52.176C77.2273 52.088 77.3593 52.06 77.4793 52.092C77.6073 52.116 77.7353 52.196 77.8633 52.332C78.1033 52.58 78.3913 52.772 78.7273 52.908C79.0633 53.036 79.4513 53.1 79.8913 53.1C80.4513 53.1 80.8873 52.988 81.1993 52.764C81.5113 52.54 81.6673 52.212 81.6673 51.78C81.6673 51.524 81.6113 51.304 81.4993 51.12C81.3873 50.928 81.1633 50.756 80.8273 50.604C80.4913 50.452 79.9833 50.308 79.3033 50.172C77.7593 49.836 76.9873 49.048 76.9873 47.808C76.9873 47.328 77.1033 46.908 77.3353 46.548C77.5673 46.188 77.8913 45.908 78.3073 45.708C78.7233 45.5 79.2073 45.396 79.7593 45.396C80.3033 45.396 80.7913 45.492 81.2233 45.684C81.6553 45.868 82.0353 46.112 82.3633 46.416C82.4833 46.544 82.5353 46.676 82.5193 46.812C82.5033 46.948 82.4273 47.072 82.2913 47.184C82.1473 47.296 82.0113 47.344 81.8833 47.328C81.7633 47.312 81.6353 47.24 81.4993 47.112C81.2593 46.912 80.9993 46.756 80.7193 46.644C80.4393 46.524 80.1153 46.464 79.7473 46.464C79.2833 46.464 78.8953 46.576 78.5833 46.8C78.2793 47.016 78.1273 47.336 78.1273 47.76C78.1273 47.984 78.1753 48.188 78.2713 48.372C78.3753 48.548 78.5633 48.704 78.8353 48.84C79.1073 48.976 79.5033 49.1 80.0233 49.212C81.0153 49.42 81.7273 49.732 82.1593 50.148C82.5993 50.564 82.8193 51.104 82.8193 51.768C82.8193 52.28 82.6913 52.716 82.4353 53.076C82.1873 53.428 81.8393 53.696 81.3913 53.88C80.9513 54.064 80.4393 54.156 79.8553 54.156ZM84.8976 54C84.5376 54 84.3576 53.808 84.3576 53.424V46.164C84.3576 45.788 84.5456 45.6 84.9216 45.6H88.1136C88.9056 45.6 89.5176 45.784 89.9496 46.152C90.3896 46.52 90.6096 47.104 90.6096 47.904C90.6096 48.712 90.3896 49.304 89.9496 49.68C89.5176 50.056 88.9056 50.244 88.1136 50.244H85.4496V53.424C85.4496 53.808 85.2656 54 84.8976 54ZM85.4496 49.2H87.9816C88.4616 49.2 88.8256 49.1 89.0736 48.9C89.3296 48.692 89.4576 48.36 89.4576 47.904C89.4576 47.456 89.3296 47.132 89.0736 46.932C88.8256 46.732 88.4616 46.632 87.9816 46.632H85.4496V49.2ZM95.3722 54.18C94.6122 54.18 93.9402 54 93.3562 53.64C92.7722 53.28 92.3122 52.772 91.9762 52.116C91.6482 51.46 91.4842 50.688 91.4842 49.8C91.4842 48.912 91.6482 48.14 91.9762 47.484C92.3122 46.82 92.7722 46.308 93.3562 45.948C93.9402 45.58 94.6122 45.396 95.3722 45.396C96.1322 45.396 96.8002 45.58 97.3762 45.948C97.9602 46.308 98.4162 46.82 98.7442 47.484C99.0802 48.14 99.2482 48.912 99.2482 49.8C99.2482 50.688 99.0802 51.46 98.7442 52.116C98.4162 52.772 97.9602 53.28 97.3762 53.64C96.8002 54 96.1322 54.18 95.3722 54.18ZM95.3722 53.1C95.9162 53.1 96.3922 52.964 96.8002 52.692C97.2162 52.42 97.5362 52.04 97.7602 51.552C97.9922 51.056 98.1082 50.472 98.1082 49.8C98.1082 49.12 97.9922 48.536 97.7602 48.048C97.5362 47.552 97.2162 47.168 96.8002 46.896C96.3922 46.624 95.9162 46.488 95.3722 46.488C94.8282 46.488 94.3482 46.624 93.9322 46.896C93.5242 47.168 93.2042 47.552 92.9722 48.048C92.7402 48.536 92.6242 49.12 92.6242 49.8C92.6242 50.472 92.7402 51.056 92.9722 51.552C93.2042 52.04 93.5242 52.42 93.9322 52.692C94.3482 52.964 94.8282 53.1 95.3722 53.1ZM101.222 54C100.862 54 100.682 53.808 100.682 53.424V46.164C100.682 45.788 100.87 45.6 101.246 45.6H104.438C105.23 45.6 105.842 45.784 106.274 46.152C106.714 46.52 106.934 47.104 106.934 47.904C106.934 48.616 106.762 49.16 106.418 49.536C106.074 49.912 105.574 50.132 104.918 50.196L106.538 53.328C106.634 53.528 106.654 53.692 106.598 53.82C106.542 53.94 106.422 54 106.238 54H106.07C105.75 54 105.526 53.856 105.398 53.568L103.766 50.244H101.774V53.424C101.774 53.808 101.59 54 101.222 54ZM101.774 49.2H104.306C104.786 49.2 105.15 49.1 105.398 48.9C105.654 48.692 105.782 48.36 105.782 47.904C105.782 47.456 105.654 47.132 105.398 46.932C105.15 46.732 104.786 46.632 104.306 46.632H101.774V49.2ZM111.033 54C110.657 54 110.469 53.808 110.469 53.424V46.632H108.405C108.021 46.632 107.829 46.46 107.829 46.116C107.829 45.772 108.021 45.6 108.405 45.6H113.637C114.013 45.6 114.201 45.772 114.201 46.116C114.201 46.46 114.013 46.632 113.637 46.632H111.573V53.424C111.573 53.808 111.393 54 111.033 54ZM118.422 54.156C117.838 54.156 117.294 54.06 116.79 53.868C116.294 53.676 115.866 53.364 115.506 52.932C115.394 52.78 115.35 52.64 115.374 52.512C115.406 52.376 115.498 52.264 115.65 52.176C115.794 52.088 115.926 52.06 116.046 52.092C116.174 52.116 116.302 52.196 116.43 52.332C116.67 52.58 116.958 52.772 117.294 52.908C117.63 53.036 118.018 53.1 118.458 53.1C119.018 53.1 119.454 52.988 119.766 52.764C120.078 52.54 120.234 52.212 120.234 51.78C120.234 51.524 120.178 51.304 120.066 51.12C119.954 50.928 119.73 50.756 119.394 50.604C119.058 50.452 118.55 50.308 117.87 50.172C116.326 49.836 115.554 49.048 115.554 47.808C115.554 47.328 115.67 46.908 115.902 46.548C116.134 46.188 116.458 45.908 116.874 45.708C117.29 45.5 117.774 45.396 118.326 45.396C118.87 45.396 119.358 45.492 119.79 45.684C120.222 45.868 120.602 46.112 120.93 46.416C121.05 46.544 121.102 46.676 121.086 46.812C121.07 46.948 120.994 47.072 120.858 47.184C120.714 47.296 120.578 47.344 120.45 47.328C120.33 47.312 120.202 47.24 120.066 47.112C119.826 46.912 119.566 46.756 119.286 46.644C119.006 46.524 118.682 46.464 118.314 46.464C117.85 46.464 117.462 46.576 117.15 46.8C116.846 47.016 116.694 47.336 116.694 47.76C116.694 47.984 116.742 48.188 116.838 48.372C116.942 48.548 117.13 48.704 117.402 48.84C117.674 48.976 118.07 49.1 118.59 49.212C119.582 49.42 120.294 49.732 120.726 50.148C121.166 50.564 121.386 51.104 121.386 51.768C121.386 52.28 121.258 52.716 121.002 53.076C120.754 53.428 120.406 53.696 119.958 53.88C119.518 54.064 119.006 54.156 118.422 54.156ZM96.0519 71.18C95.2919 71.18 94.6199 71 94.0359 70.64C93.4519 70.28 92.9919 69.772 92.6559 69.116C92.3279 68.46 92.1639 67.688 92.1639 66.8C92.1639 65.912 92.3279 65.14 92.6559 64.484C92.9919 63.82 93.4519 63.308 94.0359 62.948C94.6199 62.58 95.2919 62.396 96.0519 62.396C96.6359 62.396 97.1679 62.504 97.6479 62.72C98.1279 62.936 98.5399 63.244 98.8839 63.644C99.0119 63.78 99.0519 63.92 99.0039 64.064C98.9639 64.2 98.8799 64.312 98.7519 64.4L98.7039 64.424C98.6159 64.48 98.4959 64.504 98.3439 64.496C98.1999 64.48 98.0639 64.412 97.9359 64.292C97.4639 63.756 96.8359 63.488 96.0519 63.488C95.5079 63.488 95.0279 63.624 94.6119 63.896C94.2039 64.168 93.8839 64.552 93.6519 65.048C93.4199 65.536 93.3039 66.12 93.3039 66.8C93.3039 67.472 93.4199 68.056 93.6519 68.552C93.8839 69.04 94.2039 69.42 94.6119 69.692C95.0279 69.964 95.5079 70.1 96.0519 70.1C96.8199 70.1 97.4479 69.832 97.9359 69.296C98.0639 69.176 98.1919 69.108 98.3199 69.092C98.4559 69.076 98.5839 69.1 98.7039 69.164L98.7279 69.176C98.8639 69.248 98.9559 69.356 99.0039 69.5C99.0519 69.644 99.0159 69.784 98.8959 69.92C98.5519 70.32 98.1359 70.632 97.6479 70.856C97.1679 71.072 96.6359 71.18 96.0519 71.18ZM101.211 71C100.835 71 100.647 70.808 100.647 70.424V63.176C100.647 62.792 100.827 62.6 101.187 62.6C101.555 62.6 101.739 62.792 101.739 63.176V69.968H105.663C106.047 69.968 106.239 70.14 106.239 70.484C106.239 70.828 106.047 71 105.663 71H101.211ZM110.456 71.144C109.44 71.144 108.664 70.864 108.128 70.304C107.592 69.736 107.324 68.896 107.324 67.784V63.176C107.324 62.792 107.512 62.6 107.888 62.6C108.256 62.6 108.44 62.792 108.44 63.176V67.736C108.44 68.512 108.612 69.096 108.956 69.488C109.308 69.88 109.808 70.076 110.456 70.076C111.104 70.076 111.6 69.88 111.944 69.488C112.288 69.096 112.46 68.512 112.46 67.736V63.176C112.46 62.792 112.648 62.6 113.024 62.6C113.392 62.6 113.576 62.792 113.576 63.176V67.784C113.576 68.896 113.308 69.736 112.772 70.304C112.236 70.864 111.464 71.144 110.456 71.144ZM115.835 71C115.491 71 115.319 70.824 115.319 70.472V63.128C115.319 62.776 115.491 62.6 115.835 62.6H118.643C119.387 62.6 119.967 62.784 120.383 63.152C120.807 63.512 121.019 64.036 121.019 64.724C121.019 65.196 120.911 65.592 120.695 65.912C120.479 66.232 120.195 66.456 119.843 66.584C120.299 66.688 120.671 66.94 120.959 67.34C121.255 67.732 121.403 68.2 121.403 68.744C121.403 69.496 121.179 70.06 120.731 70.436C120.291 70.812 119.647 71 118.799 71H115.835ZM116.411 69.968H118.667C119.211 69.968 119.607 69.86 119.855 69.644C120.103 69.42 120.227 69.076 120.227 68.612C120.227 68.164 120.079 67.816 119.783 67.568C119.487 67.32 119.111 67.196 118.655 67.196H116.411V69.968ZM116.411 66.152H118.523C118.947 66.152 119.271 66.036 119.495 65.804C119.719 65.572 119.831 65.264 119.831 64.88C119.831 64.048 119.371 63.632 118.451 63.632H116.411V66.152Z" fill="black"/>
<path d="M45.7125 48.0719C45.3776 48.1389 40.6219 53.6315 35.0958 60.2292L25.082 72.219L47.1861 90.8065C70.3954 110.332 71.1657 110.901 75.62 111.973C78.7681 112.71 100.47 112.71 102.949 111.973C105.862 111.102 107.269 108.59 106.432 105.743C105.795 103.567 104.188 102.361 100.638 101.289C95.7481 99.849 91.2603 98.074 90.0211 97.1363C89.3848 96.6674 88.447 95.5622 87.8777 94.6579C87.3418 93.7872 86.739 93.0504 86.5715 93.0504C86.4376 93.0504 84.5621 93.5862 82.4521 94.2226C80.3422 94.8589 78.3997 95.2943 78.0983 95.1938C77.4285 94.9259 77.0601 93.4188 77.4955 92.749C77.6964 92.4475 79.5719 91.7107 81.6818 91.0744L85.5333 89.9357L84.5621 87.7253C83.9927 86.5196 83.5238 85.4814 83.4904 85.4479C83.4569 85.4144 81.7153 85.9168 79.6389 86.5531C76.5577 87.5244 75.6869 87.6918 75.0506 87.3904C74.1464 86.9885 73.9454 85.6823 74.6822 84.9455C74.9501 84.7111 76.6582 84.0413 78.5337 83.5054C81.5814 82.6012 81.9163 82.4337 81.7488 81.8309C81.5144 81.0941 79.9738 77.9794 79.8398 77.9794C79.8063 77.9794 78.3327 78.4483 76.5912 78.9841C74.8497 79.52 73.1081 79.9889 72.7062 79.9889C71.1991 79.9889 70.6633 78.0129 72.0029 77.1756C72.4048 76.9412 73.8784 76.4053 75.2516 76.0034C76.6247 75.6016 77.9308 75.1997 78.1653 75.1327C78.6676 74.9652 75.9549 68.535 74.7492 66.9944C73.577 65.5208 72.2709 65.5543 70.0605 67.0948C65.3717 70.4439 57.0994 70.5779 52.4442 67.3293C49.0951 65.0519 48.0904 60.9325 49.4635 54.9711C50.1333 51.9234 50.1668 51.5885 49.6979 50.4498C48.9946 48.7753 47.1861 47.7035 45.7125 48.0719Z" fill="white" stroke="black" stroke-width="2"/>
<path d="M22.2057 76.9757L21 78.3153L22.2727 79.4206C26.7605 83.406 63.6675 114.553 64.9737 115.423C67.2176 116.997 70.2988 118.371 73.4134 119.241C75.9587 119.911 76.8965 119.978 91.2641 120.112L106.402 120.246V118.203V116.16H91.5655C77.8342 116.16 76.4946 116.093 74.1167 115.49C69.2605 114.251 68.2558 113.514 45.2475 93.9891C33.3582 83.8749 23.5788 75.6361 23.5118 75.6361C23.4783 75.6361 22.8755 76.2389 22.2057 76.9757Z" fill="white" stroke="black" stroke-width="2"/>
</svg>
