<svg width="152" height="152" viewBox="0 0 152 152" fill="none" xmlns="http://www.w3.org/2000/svg">
<circle cx="75.9416" cy="75.6486" r="75.5119" fill="#CFECE8" fill-opacity="0.38"/>
<path d="M73.9503 54.18C73.1903 54.18 72.5183 54 71.9343 53.64C71.3503 53.28 70.8903 52.772 70.5543 52.116C70.2263 51.46 70.0623 50.688 70.0623 49.8C70.0623 48.912 70.2263 48.14 70.5543 47.484C70.8903 46.82 71.3503 46.308 71.9343 45.948C72.5183 45.58 73.1903 45.396 73.9503 45.396C74.5343 45.396 75.0663 45.504 75.5463 45.72C76.0263 45.936 76.4383 46.244 76.7823 46.644C76.9103 46.78 76.9503 46.92 76.9023 47.064C76.8623 47.2 76.7783 47.312 76.6503 47.4L76.6023 47.424C76.5143 47.48 76.3943 47.504 76.2423 47.496C76.0983 47.48 75.9623 47.412 75.8343 47.292C75.3623 46.756 74.7343 46.488 73.9503 46.488C73.4063 46.488 72.9263 46.624 72.5103 46.896C72.1023 47.168 71.7823 47.552 71.5503 48.048C71.3183 48.536 71.2023 49.12 71.2023 49.8C71.2023 50.472 71.3183 51.056 71.5503 51.552C71.7823 52.04 72.1023 52.42 72.5103 52.692C72.9263 52.964 73.4063 53.1 73.9503 53.1C74.7183 53.1 75.3463 52.832 75.8343 52.296C75.9623 52.176 76.0903 52.108 76.2183 52.092C76.3543 52.076 76.4823 52.1 76.6023 52.164L76.6263 52.176C76.7623 52.248 76.8543 52.356 76.9023 52.5C76.9503 52.644 76.9143 52.784 76.7943 52.92C76.4503 53.32 76.0343 53.632 75.5463 53.856C75.0663 54.072 74.5343 54.18 73.9503 54.18ZM79.1091 54C78.7331 54 78.5451 53.808 78.5451 53.424V46.176C78.5451 45.792 78.7251 45.6 79.0851 45.6C79.4531 45.6 79.6371 45.792 79.6371 46.176V52.968H83.5611C83.9451 52.968 84.1371 53.14 84.1371 53.484C84.1371 53.828 83.9451 54 83.5611 54H79.1091ZM88.354 54.144C87.338 54.144 86.562 53.864 86.026 53.304C85.49 52.736 85.222 51.896 85.222 50.784V46.176C85.222 45.792 85.41 45.6 85.786 45.6C86.154 45.6 86.338 45.792 86.338 46.176V50.736C86.338 51.512 86.51 52.096 86.854 52.488C87.206 52.88 87.706 53.076 88.354 53.076C89.002 53.076 89.498 52.88 89.842 52.488C90.186 52.096 90.358 51.512 90.358 50.736V46.176C90.358 45.792 90.546 45.6 90.922 45.6C91.29 45.6 91.474 45.792 91.474 46.176V50.784C91.474 51.896 91.206 52.736 90.67 53.304C90.134 53.864 89.362 54.144 88.354 54.144ZM95.881 54C95.505 54 95.317 53.808 95.317 53.424V46.632H93.253C92.869 46.632 92.677 46.46 92.677 46.116C92.677 45.772 92.869 45.6 93.253 45.6H98.485C98.861 45.6 99.049 45.772 99.049 46.116C99.049 46.46 98.861 46.632 98.485 46.632H96.421V53.424C96.421 53.808 96.241 54 95.881 54ZM103.377 54.144C102.361 54.144 101.585 53.864 101.049 53.304C100.513 52.736 100.245 51.896 100.245 50.784V46.176C100.245 45.792 100.433 45.6 100.809 45.6C101.177 45.6 101.361 45.792 101.361 46.176V50.736C101.361 51.512 101.533 52.096 101.877 52.488C102.229 52.88 102.729 53.076 103.377 53.076C104.025 53.076 104.521 52.88 104.865 52.488C105.209 52.096 105.381 51.512 105.381 50.736V46.176C105.381 45.792 105.569 45.6 105.945 45.6C106.313 45.6 106.497 45.792 106.497 46.176V50.784C106.497 51.896 106.229 52.736 105.693 53.304C105.157 53.864 104.385 54.144 103.377 54.144ZM108.78 54C108.42 54 108.24 53.808 108.24 53.424V46.164C108.24 45.788 108.428 45.6 108.804 45.6H111.996C112.788 45.6 113.4 45.784 113.832 46.152C114.272 46.52 114.492 47.104 114.492 47.904C114.492 48.616 114.32 49.16 113.976 49.536C113.632 49.912 113.132 50.132 112.476 50.196L114.096 53.328C114.192 53.528 114.212 53.692 114.156 53.82C114.1 53.94 113.98 54 113.796 54H113.628C113.308 54 113.084 53.856 112.956 53.568L111.324 50.244H109.332V53.424C109.332 53.808 109.148 54 108.78 54ZM109.332 49.2H111.864C112.344 49.2 112.708 49.1 112.956 48.9C113.212 48.692 113.34 48.36 113.34 47.904C113.34 47.456 113.212 47.132 112.956 46.932C112.708 46.732 112.344 46.632 111.864 46.632H109.332V49.2ZM116.492 54C116.116 54 115.928 53.808 115.928 53.424V46.176C115.928 45.792 116.116 45.6 116.492 45.6H120.788C121.172 45.6 121.364 45.772 121.364 46.116C121.364 46.46 121.172 46.632 120.788 46.632H117.02V49.188H120.416C120.792 49.188 120.98 49.364 120.98 49.716C120.98 50.06 120.792 50.232 120.416 50.232H117.02V52.968H120.932C121.316 52.968 121.508 53.14 121.508 53.484C121.508 53.828 121.316 54 120.932 54H116.492ZM96.0519 71.18C95.2919 71.18 94.6199 71 94.0359 70.64C93.4519 70.28 92.9919 69.772 92.6559 69.116C92.3279 68.46 92.1639 67.688 92.1639 66.8C92.1639 65.912 92.3279 65.14 92.6559 64.484C92.9919 63.82 93.4519 63.308 94.0359 62.948C94.6199 62.58 95.2919 62.396 96.0519 62.396C96.6359 62.396 97.1679 62.504 97.6479 62.72C98.1279 62.936 98.5399 63.244 98.8839 63.644C99.0119 63.78 99.0519 63.92 99.0039 64.064C98.9639 64.2 98.8799 64.312 98.7519 64.4L98.7039 64.424C98.6159 64.48 98.4959 64.504 98.3439 64.496C98.1999 64.48 98.0639 64.412 97.9359 64.292C97.4639 63.756 96.8359 63.488 96.0519 63.488C95.5079 63.488 95.0279 63.624 94.6119 63.896C94.2039 64.168 93.8839 64.552 93.6519 65.048C93.4199 65.536 93.3039 66.12 93.3039 66.8C93.3039 67.472 93.4199 68.056 93.6519 68.552C93.8839 69.04 94.2039 69.42 94.6119 69.692C95.0279 69.964 95.5079 70.1 96.0519 70.1C96.8199 70.1 97.4479 69.832 97.9359 69.296C98.0639 69.176 98.1919 69.108 98.3199 69.092C98.4559 69.076 98.5839 69.1 98.7039 69.164L98.7279 69.176C98.8639 69.248 98.9559 69.356 99.0039 69.5C99.0519 69.644 99.0159 69.784 98.8959 69.92C98.5519 70.32 98.1359 70.632 97.6479 70.856C97.1679 71.072 96.6359 71.18 96.0519 71.18ZM101.211 71C100.835 71 100.647 70.808 100.647 70.424V63.176C100.647 62.792 100.827 62.6 101.187 62.6C101.555 62.6 101.739 62.792 101.739 63.176V69.968H105.663C106.047 69.968 106.239 70.14 106.239 70.484C106.239 70.828 106.047 71 105.663 71H101.211ZM110.456 71.144C109.44 71.144 108.664 70.864 108.128 70.304C107.592 69.736 107.324 68.896 107.324 67.784V63.176C107.324 62.792 107.512 62.6 107.888 62.6C108.256 62.6 108.44 62.792 108.44 63.176V67.736C108.44 68.512 108.612 69.096 108.956 69.488C109.308 69.88 109.808 70.076 110.456 70.076C111.104 70.076 111.6 69.88 111.944 69.488C112.288 69.096 112.46 68.512 112.46 67.736V63.176C112.46 62.792 112.648 62.6 113.024 62.6C113.392 62.6 113.576 62.792 113.576 63.176V67.784C113.576 68.896 113.308 69.736 112.772 70.304C112.236 70.864 111.464 71.144 110.456 71.144ZM115.835 71C115.491 71 115.319 70.824 115.319 70.472V63.128C115.319 62.776 115.491 62.6 115.835 62.6H118.643C119.387 62.6 119.967 62.784 120.383 63.152C120.807 63.512 121.019 64.036 121.019 64.724C121.019 65.196 120.911 65.592 120.695 65.912C120.479 66.232 120.195 66.456 119.843 66.584C120.299 66.688 120.671 66.94 120.959 67.34C121.255 67.732 121.403 68.2 121.403 68.744C121.403 69.496 121.179 70.06 120.731 70.436C120.291 70.812 119.647 71 118.799 71H115.835ZM116.411 69.968H118.667C119.211 69.968 119.607 69.86 119.855 69.644C120.103 69.42 120.227 69.076 120.227 68.612C120.227 68.164 120.079 67.816 119.783 67.568C119.487 67.32 119.111 67.196 118.655 67.196H116.411V69.968ZM116.411 66.152H118.523C118.947 66.152 119.271 66.036 119.495 65.804C119.719 65.572 119.831 65.264 119.831 64.88C119.831 64.048 119.371 63.632 118.451 63.632H116.411V66.152Z" fill="black"/>
<path d="M50.5209 41.7728C48.584 43.4091 49.853 46.6484 52.391 46.6484C53.8938 46.6484 55.1294 45.3794 55.1294 43.8099C55.1294 41.3052 52.4244 40.103 50.5209 41.7728Z" fill="#CFECE8" stroke="black" stroke-width="2"/>
<path d="M55.1963 49.1536C53.9273 50.4227 54.662 52.3262 56.4319 52.3262C58.3021 52.3262 59.1703 49.8883 57.6675 48.8531C56.6323 48.1184 56.1648 48.1852 55.1963 49.1536Z" fill="#CFECE8" stroke="black" stroke-width="2"/>
<path d="M49.8876 53.7944C49.4535 54.4289 49.4201 54.7629 49.6873 55.2972C50.5221 56.8 52.7262 56.3992 52.7262 54.7295C52.7262 52.9261 50.8561 52.325 49.8876 53.7944Z" fill="#CFECE8" stroke="black" stroke-width="2"/>
<path d="M45.0789 59.004C41.9064 59.7721 40.103 63.3787 41.5056 66.0837L42.0065 67.0188H40.437C36.4296 67.0188 34.1587 70.6588 36.0288 74.0985L36.6967 75.3675L35.6949 75.8684C33.1903 77.1709 32.8563 80.9445 35.0604 83.1486L36.0288 84.117L34.2589 86.0539C30.3517 90.3619 28.3814 95.2376 28.0808 101.115C27.8805 105.69 28.5484 108.829 30.5854 113.104C31.8879 115.842 32.5224 116.711 35.1606 119.315C37.6318 121.753 38.7672 122.621 41.0381 123.724C45.1791 125.761 47.4833 126.295 52.2254 126.295C59.1716 126.262 63.9137 124.291 68.9563 119.282C71.4943 116.777 72.2624 115.775 73.498 113.271C74.2995 111.601 75.1678 109.297 75.435 108.095C75.6687 106.892 75.9693 105.79 76.1029 105.657C76.2364 105.523 78.2735 105.623 80.6446 105.924C83.0156 106.191 85.2197 106.425 85.5536 106.425C86.088 106.425 86.1214 105.69 86.1214 95.5715V84.7181H83.6835H81.2791L77.4387 77.4714C75.3348 73.4974 73.0973 69.7572 72.5296 69.1561C71.0936 67.6867 68.7226 67.0188 65.0491 67.0188H62.1437L62.6447 65.9835C63.3126 64.6811 63.0454 62.2433 62.1771 61.0411C60.6744 59.0374 59.8395 58.837 52.7263 58.7702C49.1531 58.7368 45.7134 58.837 45.0789 59.004ZM59.205 63.4121C59.4721 63.8462 59.4721 64.1802 59.205 64.5809C58.871 65.1153 58.1029 65.182 52.2254 65.2822C45.4462 65.3824 44.7115 65.2488 44.7115 64.0466C44.7115 62.7776 45.2793 62.6774 52.192 62.7442C58.1029 62.8444 58.871 62.9112 59.205 63.4121ZM58.0028 67.7201C58.1029 68.5549 58.0695 68.5883 55.7653 68.5549C53.8952 68.5215 53.2607 68.6551 52.4926 69.2228C50.9564 70.3583 50.0547 71.9612 50.0547 73.5976C50.0547 76.4696 50.3219 76.7701 60.1734 84.3842C70.3923 92.2654 70.5259 92.4324 71.7615 97.2747C74.4665 107.827 68.422 118.581 57.9026 121.887C54.6299 122.922 49.487 122.922 46.2143 121.887C35.7283 118.581 29.6504 107.794 32.3554 97.2413C33.7914 91.5975 37.8322 86.6884 43.1754 84.0502L46.0473 82.6142V74.8666C46.0473 70.6254 46.1475 67.0188 46.2811 66.8852C46.4147 66.785 49.0863 66.7182 52.192 66.7516L57.9026 66.8518L58.0028 67.7201ZM56.9675 71.4269C57.5686 71.861 58.0695 72.4288 58.0695 72.7293C58.0695 73.297 55.4981 77.0373 55.0974 77.0373C54.9638 77.0373 54.2291 76.503 53.461 75.8351C52.3256 74.8666 52.0584 74.4325 52.0584 73.4974C52.0584 70.9928 54.6966 69.8907 56.9675 71.4269Z" fill="white" stroke="black" stroke-width="2"/>
<path d="M37.1307 100.948L35.0269 101.449V103.052C35.0269 108.061 38.3664 113.872 42.9081 116.744C48.2513 120.15 55.8653 120.15 61.2085 116.744C64.715 114.54 67.5536 110.599 68.6222 106.458C68.8894 105.29 69.0898 104.321 69.023 104.254C68.9562 104.188 68.0879 104.355 67.0861 104.622C65.8171 104.989 64.2141 105.089 61.9098 104.989C58.8709 104.855 58.0026 104.655 52.3923 102.752C46.6149 100.781 45.9804 100.648 42.7077 100.548C40.3033 100.481 38.5333 100.581 37.1307 100.948Z" fill="#CFECE8" stroke="black" stroke-width="2"/>
</svg>
