<svg width="152" height="152" viewBox="0 0 152 152" fill="none" xmlns="http://www.w3.org/2000/svg">
<circle cx="75.9416" cy="75.6486" r="75.5119" fill="#CFECE8" fill-opacity="0.38"/>
<path d="M32.2147 58.156C31.6307 58.156 31.0867 58.06 30.5827 57.868C30.0867 57.676 29.6587 57.364 29.2987 56.932C29.1867 56.78 29.1427 56.64 29.1667 56.512C29.1987 56.376 29.2907 56.264 29.4427 56.176C29.5867 56.088 29.7187 56.06 29.8387 56.092C29.9667 56.116 30.0947 56.196 30.2227 56.332C30.4627 56.58 30.7507 56.772 31.0867 56.908C31.4227 57.036 31.8107 57.1 32.2507 57.1C32.8107 57.1 33.2467 56.988 33.5587 56.764C33.8707 56.54 34.0267 56.212 34.0267 55.78C34.0267 55.524 33.9707 55.304 33.8587 55.12C33.7467 54.928 33.5227 54.756 33.1867 54.604C32.8507 54.452 32.3427 54.308 31.6627 54.172C30.1187 53.836 29.3467 53.048 29.3467 51.808C29.3467 51.328 29.4627 50.908 29.6947 50.548C29.9267 50.188 30.2507 49.908 30.6667 49.708C31.0827 49.5 31.5667 49.396 32.1187 49.396C32.6627 49.396 33.1507 49.492 33.5827 49.684C34.0147 49.868 34.3947 50.112 34.7227 50.416C34.8427 50.544 34.8947 50.676 34.8787 50.812C34.8627 50.948 34.7867 51.072 34.6507 51.184C34.5067 51.296 34.3707 51.344 34.2427 51.328C34.1227 51.312 33.9947 51.24 33.8587 51.112C33.6187 50.912 33.3587 50.756 33.0787 50.644C32.7987 50.524 32.4747 50.464 32.1067 50.464C31.6427 50.464 31.2547 50.576 30.9427 50.8C30.6387 51.016 30.4867 51.336 30.4867 51.76C30.4867 51.984 30.5347 52.188 30.6307 52.372C30.7347 52.548 30.9227 52.704 31.1947 52.84C31.4667 52.976 31.8627 53.1 32.3827 53.212C33.3747 53.42 34.0867 53.732 34.5187 54.148C34.9587 54.564 35.1787 55.104 35.1787 55.768C35.1787 56.28 35.0507 56.716 34.7947 57.076C34.5467 57.428 34.1987 57.696 33.7507 57.88C33.3107 58.064 32.7987 58.156 32.2147 58.156ZM37.257 58C36.897 58 36.717 57.808 36.717 57.424V50.164C36.717 49.788 36.905 49.6 37.281 49.6H40.473C41.265 49.6 41.877 49.784 42.309 50.152C42.749 50.52 42.969 51.104 42.969 51.904C42.969 52.712 42.749 53.304 42.309 53.68C41.877 54.056 41.265 54.244 40.473 54.244H37.809V57.424C37.809 57.808 37.625 58 37.257 58ZM37.809 53.2H40.341C40.821 53.2 41.185 53.1 41.433 52.9C41.689 52.692 41.817 52.36 41.817 51.904C41.817 51.456 41.689 51.132 41.433 50.932C41.185 50.732 40.821 50.632 40.341 50.632H37.809V53.2ZM44.8396 58C44.4636 58 44.2756 57.808 44.2756 57.424V50.176C44.2756 49.792 44.4636 49.6 44.8396 49.6H49.1356C49.5196 49.6 49.7116 49.772 49.7116 50.116C49.7116 50.46 49.5196 50.632 49.1356 50.632H45.3676V53.188H48.7636C49.1396 53.188 49.3276 53.364 49.3276 53.716C49.3276 54.06 49.1396 54.232 48.7636 54.232H45.3676V56.968H49.2796C49.6636 56.968 49.8556 57.14 49.8556 57.484C49.8556 57.828 49.6636 58 49.2796 58H44.8396ZM54.7277 58.18C53.9677 58.18 53.2957 58 52.7117 57.64C52.1277 57.28 51.6677 56.772 51.3317 56.116C51.0037 55.46 50.8397 54.688 50.8397 53.8C50.8397 52.912 51.0037 52.14 51.3317 51.484C51.6677 50.82 52.1277 50.308 52.7117 49.948C53.2957 49.58 53.9677 49.396 54.7277 49.396C55.3117 49.396 55.8437 49.504 56.3237 49.72C56.8037 49.936 57.2157 50.244 57.5597 50.644C57.6877 50.78 57.7277 50.92 57.6797 51.064C57.6397 51.2 57.5557 51.312 57.4277 51.4L57.3797 51.424C57.2917 51.48 57.1717 51.504 57.0197 51.496C56.8757 51.48 56.7397 51.412 56.6117 51.292C56.1397 50.756 55.5117 50.488 54.7277 50.488C54.1837 50.488 53.7037 50.624 53.2877 50.896C52.8797 51.168 52.5597 51.552 52.3277 52.048C52.0957 52.536 51.9797 53.12 51.9797 53.8C51.9797 54.472 52.0957 55.056 52.3277 55.552C52.5597 56.04 52.8797 56.42 53.2877 56.692C53.7037 56.964 54.1837 57.1 54.7277 57.1C55.4957 57.1 56.1237 56.832 56.6117 56.296C56.7397 56.176 56.8677 56.108 56.9957 56.092C57.1317 56.076 57.2597 56.1 57.3797 56.164L57.4037 56.176C57.5397 56.248 57.6317 56.356 57.6797 56.5C57.7277 56.644 57.6917 56.784 57.5717 56.92C57.2277 57.32 56.8117 57.632 56.3237 57.856C55.8437 58.072 55.3117 58.18 54.7277 58.18ZM59.8624 58C59.5024 58 59.3224 57.808 59.3224 57.424V50.176C59.3224 49.792 59.5024 49.6 59.8624 49.6C60.2304 49.6 60.4144 49.792 60.4144 50.176V57.424C60.4144 57.808 60.2304 58 59.8624 58ZM62.1198 58C61.9438 58 61.8198 57.948 61.7478 57.844C61.6838 57.732 61.6838 57.584 61.7478 57.4L64.6278 50.008C64.7318 49.736 64.9318 49.6 65.2278 49.6H65.3118C65.6078 49.6 65.8078 49.736 65.9118 50.008L68.7918 57.4C68.8558 57.584 68.8558 57.732 68.7918 57.844C68.7278 57.948 68.6038 58 68.4198 58H68.2398C67.9358 58 67.7358 57.86 67.6398 57.58L66.9918 55.852H63.5238L62.8638 57.58C62.7678 57.86 62.5718 58 62.2758 58H62.1198ZM63.8958 54.82H66.6198L65.2758 51.172L63.8958 54.82ZM70.6911 58C70.3151 58 70.1271 57.808 70.1271 57.424V50.176C70.1271 49.792 70.3071 49.6 70.6671 49.6C71.0351 49.6 71.2191 49.792 71.2191 50.176V56.968H75.1431C75.5271 56.968 75.7191 57.14 75.7191 57.484C75.7191 57.828 75.5271 58 75.1431 58H70.6911ZM50.0519 75.18C49.2919 75.18 48.6199 75 48.0359 74.64C47.4519 74.28 46.9919 73.772 46.6559 73.116C46.3279 72.46 46.1639 71.688 46.1639 70.8C46.1639 69.912 46.3279 69.14 46.6559 68.484C46.9919 67.82 47.4519 67.308 48.0359 66.948C48.6199 66.58 49.2919 66.396 50.0519 66.396C50.6359 66.396 51.1679 66.504 51.6479 66.72C52.1279 66.936 52.5399 67.244 52.8839 67.644C53.0119 67.78 53.0519 67.92 53.0039 68.064C52.9639 68.2 52.8799 68.312 52.7519 68.4L52.7039 68.424C52.6159 68.48 52.4959 68.504 52.3439 68.496C52.1999 68.48 52.0639 68.412 51.9359 68.292C51.4639 67.756 50.8359 67.488 50.0519 67.488C49.5079 67.488 49.0279 67.624 48.6119 67.896C48.2039 68.168 47.8839 68.552 47.6519 69.048C47.4199 69.536 47.3039 70.12 47.3039 70.8C47.3039 71.472 47.4199 72.056 47.6519 72.552C47.8839 73.04 48.2039 73.42 48.6119 73.692C49.0279 73.964 49.5079 74.1 50.0519 74.1C50.8199 74.1 51.4479 73.832 51.9359 73.296C52.0639 73.176 52.1919 73.108 52.3199 73.092C52.4559 73.076 52.5839 73.1 52.7039 73.164L52.7279 73.176C52.8639 73.248 52.9559 73.356 53.0039 73.5C53.0519 73.644 53.0159 73.784 52.8959 73.92C52.5519 74.32 52.1359 74.632 51.6479 74.856C51.1679 75.072 50.6359 75.18 50.0519 75.18ZM55.2107 75C54.8347 75 54.6467 74.808 54.6467 74.424V67.176C54.6467 66.792 54.8267 66.6 55.1867 66.6C55.5547 66.6 55.7387 66.792 55.7387 67.176V73.968H59.6627C60.0467 73.968 60.2387 74.14 60.2387 74.484C60.2387 74.828 60.0467 75 59.6627 75H55.2107ZM64.4555 75.144C63.4395 75.144 62.6635 74.864 62.1275 74.304C61.5915 73.736 61.3235 72.896 61.3235 71.784V67.176C61.3235 66.792 61.5115 66.6 61.8875 66.6C62.2555 66.6 62.4395 66.792 62.4395 67.176V71.736C62.4395 72.512 62.6115 73.096 62.9555 73.488C63.3075 73.88 63.8075 74.076 64.4555 74.076C65.1035 74.076 65.5995 73.88 65.9435 73.488C66.2875 73.096 66.4595 72.512 66.4595 71.736V67.176C66.4595 66.792 66.6475 66.6 67.0235 66.6C67.3915 66.6 67.5755 66.792 67.5755 67.176V71.784C67.5755 72.896 67.3075 73.736 66.7715 74.304C66.2355 74.864 65.4635 75.144 64.4555 75.144ZM69.8345 75C69.4905 75 69.3185 74.824 69.3185 74.472V67.128C69.3185 66.776 69.4905 66.6 69.8345 66.6H72.6425C73.3865 66.6 73.9665 66.784 74.3825 67.152C74.8065 67.512 75.0185 68.036 75.0185 68.724C75.0185 69.196 74.9105 69.592 74.6945 69.912C74.4785 70.232 74.1945 70.456 73.8425 70.584C74.2985 70.688 74.6705 70.94 74.9585 71.34C75.2545 71.732 75.4025 72.2 75.4025 72.744C75.4025 73.496 75.1785 74.06 74.7305 74.436C74.2905 74.812 73.6465 75 72.7985 75H69.8345ZM70.4105 73.968H72.6665C73.2105 73.968 73.6065 73.86 73.8545 73.644C74.1025 73.42 74.2265 73.076 74.2265 72.612C74.2265 72.164 74.0785 71.816 73.7825 71.568C73.4865 71.32 73.1105 71.196 72.6545 71.196H70.4105V73.968ZM70.4105 70.152H72.5225C72.9465 70.152 73.2705 70.036 73.4945 69.804C73.7185 69.572 73.8305 69.264 73.8305 68.88C73.8305 68.048 73.3705 67.632 72.4505 67.632H70.4105V70.152Z" fill="black"/>
<path d="M113.48 48.7534C111.753 49.177 108.202 50.8061 107.029 51.7184C106.41 52.2071 106.964 52.7936 118.433 64.2625C125.079 70.9092 130.618 76.2853 130.814 76.2201C131.335 76.0572 133.225 72.7012 133.811 70.9418C134.593 68.433 134.724 63.8389 134.072 61.3301C132.606 55.5956 128.533 51.197 122.962 49.2421C120.518 48.395 115.826 48.1343 113.48 48.7534Z" fill="#CFECE8" stroke="black" stroke-width="2"/>
<path d="M102.664 56.4082C101.394 58.3957 100.286 61.2955 99.8949 63.6088C99.6994 64.7492 99.7971 64.847 108.953 74.0025L118.206 83.2559L120.291 82.8649C122.702 82.3761 126.58 80.6167 127.622 79.5089L128.339 78.7269L116.186 66.5738L104 54.3881L102.664 56.4082Z" fill="#CFECE8" stroke="black" stroke-width="2"/>
<path d="M82.7851 86.8079L66.4614 104.826L72.2936 110.658L78.1258 116.49L96.2415 100.069L114.357 83.6474L106.961 76.2513C102.888 72.146 99.4345 68.8226 99.3042 68.8226C99.2065 68.8226 91.7452 76.9355 82.7851 86.8079ZM101.65 81.3667L102.758 82.5071L100.347 84.9507L97.9358 87.3944L96.8605 86.3518C96.2741 85.7653 95.7853 85.1462 95.7853 84.9833C95.7853 84.6249 100.021 80.2263 100.347 80.2263C100.445 80.2263 101.031 80.7476 101.65 81.3667Z" fill="white" stroke="black" stroke-width="2"/>
<path d="M67.3133 112.287C65.5213 114.665 65 116.295 65 119.65C65 122.485 65.0977 122.941 66.0426 124.896C67.3133 127.47 69.366 129.458 71.94 130.663C73.5039 131.413 74.2533 131.543 76.7296 131.543C81.0304 131.543 82.4314 130.794 87.612 125.711C89.8602 123.528 92.0757 121.508 92.4667 121.312C93.6071 120.693 95.9856 120.823 97.1911 121.508C98.527 122.29 99.7 124.049 99.7 125.222V126.167H101.981H104.261V125.189C104.261 123.821 103.186 121.182 102.046 119.716C99.7977 116.881 95.2362 115.643 91.5218 116.881C90.0557 117.37 89.1108 118.119 85.4942 121.671C80.8023 126.232 79.3687 127.112 76.697 127.144C74.4488 127.144 71.8748 125.809 70.5715 123.951C69.7896 122.844 69.5615 122.127 69.4638 120.465C69.3008 117.924 69.4638 117.207 70.5715 115.578L71.4187 114.34L69.7896 112.743L68.193 111.147L67.3133 112.287Z" fill="#CFECE8" stroke="black" stroke-width="2"/>
</svg>
