<svg width="121" height="120" viewBox="0 0 121 120" fill="none" xmlns="http://www.w3.org/2000/svg">
<path d="M81.3316 3.61492C81.672 3.57934 82.0004 3.63863 82.317 3.79281C83.9472 4.58505 85.6039 5.31795 87.287 5.99165C88.952 6.65699 90.4049 7.72784 92.1238 8.69211C94.1258 9.81408 96.5113 11.4792 99.2803 13.6873C101.093 15.1355 102.787 16.8824 104.527 18.5333C106.3 20.2127 107.526 22.2763 109.217 24.0411C109.778 24.6246 110.154 25.1179 110.346 25.5211C111.24 27.3903 112.218 29.2119 113.28 30.9861C115.038 33.925 116.488 37.2802 117.495 40.6069C117.91 41.9754 118.352 43.3357 118.819 44.6878C119.104 45.5156 119.408 47.284 119.728 49.9926C120.298 54.8315 120.728 58.7131 120.652 63.15C120.646 63.6291 120.546 64.4166 120.354 65.5124C120.171 66.5797 120.251 67.6792 120.027 68.6896C119.66 70.3785 119.328 72.0732 119.03 73.7739C118.844 74.8412 118.204 75.8376 118.025 77.001C117.937 77.5536 117.797 78.0517 117.603 78.4953C117.11 79.6231 116.996 80.751 116.488 81.8789C115.939 83.1029 115.852 84.3482 115.136 85.4689C114.153 87.0035 113.255 88.5821 112.443 90.2045C112.326 90.4394 112.058 90.8498 111.641 91.4355C111.227 92.019 111.062 92.6665 110.712 93.1967C110.033 94.2321 109.375 95.2889 108.576 96.2352C106.816 98.3154 105 100.347 103.125 102.33C102.08 103.438 100.911 104.469 99.6184 105.426C96.6982 107.588 93.7818 109.93 90.5271 111.574C89.2181 112.234 87.9054 112.885 86.5892 113.531C85.3161 114.154 83.4785 114.779 81.9538 115.519C79.6414 116.646 76.7752 117.28 74.2793 117.913C73.053 118.228 71.5139 118.291 70.1113 118.586C68.6477 118.899 67.184 118.743 65.7058 118.935C59.4305 119.746 52.5364 118.97 46.4122 117.555C42.4778 116.646 38.2234 114.972 34.2496 113.484C34.1528 113.448 34.0689 113.384 34.0079 113.301C33.9471 113.218 33.9118 113.119 33.9065 113.017C33.9011 112.914 33.9259 112.812 33.978 112.723C34.0299 112.635 34.1067 112.563 34.1993 112.516L39.3743 109.948C39.4941 109.888 39.6176 109.877 39.7446 109.916C40.5886 110.169 41.4289 110.401 42.2655 110.61C43.3554 110.883 44.7902 110.766 46.0597 111.296C46.1682 111.341 46.2869 111.357 46.4049 111.345C47.3711 111.24 48.3193 111.269 49.2495 111.438C50.3164 111.63 51.1064 111.731 51.6194 111.738C55.0958 111.784 57.3051 111.771 58.2472 111.698C59.4724 111.6 62.0366 111.2 65.9397 110.495C68.7267 109.993 71.7727 109.147 74.3872 108.051C77.4872 106.756 81.3064 105.39 84.5393 102.921C86.0319 101.778 87.643 100.829 89.0706 99.5905C89.694 99.0496 90.3341 98.5277 90.991 98.0249C92.1346 97.1532 92.7532 95.8794 93.7494 94.8334C94.4543 94.0957 94.9494 93.4802 95.2346 92.9869C95.8963 91.8364 96.5244 90.5057 97.119 88.9948C98.2015 86.2445 95.7129 84.9601 93.4617 84.4584C92.7592 84.3042 91.8122 84.2699 90.6207 84.3552C88.7254 84.494 87.2402 84.1418 85.6613 84.2841C82.504 84.5687 80.1484 83.8358 77.5087 86.1662C75.8353 87.6417 74.3548 89.2842 73.0674 91.0939C72.6621 91.6609 72.1528 92.2977 71.539 93.0047C69.9423 94.844 68.5828 96.4949 66.4215 98.2632C64.868 99.5349 63.5805 100.539 62.5592 101.277C57.6648 104.813 52.0078 106.901 46.013 107.973C45.4183 108.079 44.4785 108.12 43.1934 108.094C43.0544 108.091 43.0148 108.028 43.0748 107.905C43.5387 106.962 44.614 106.243 45.4375 105.624C47.304 104.219 49.0229 102.237 50.5586 100.48C51.8352 99.021 54.0577 96.9966 55.4134 94.8582C57.0498 92.2787 58.5745 89.6245 60.2396 87.0771C61.6026 84.9922 62.1672 83.021 62.9584 80.8934C64.048 77.9616 64.7852 74.9053 65.7491 71.9274C66.0583 70.9739 66.2202 69.5483 66.2345 67.6507C66.2381 66.8751 66.7453 66.281 66.6949 65.6013C66.5727 63.9149 66.6373 62.2414 66.8891 60.581C67.0257 59.688 66.6913 59.0084 66.8352 58.119C66.9933 57.1229 66.6984 56.1941 66.641 55.2014C66.6074 54.611 66.5031 53.8992 66.328 53.0667C66.1123 52.0314 66.2057 50.9532 65.9721 49.9749C65.694 48.7983 65.3954 47.629 65.0766 46.4668C64.8285 45.5595 64.9794 44.6771 64.7278 43.7698C63.8815 40.7337 62.872 37.7546 61.6996 34.8322C61.0835 33.2905 60.2541 31.6538 59.2111 29.9223C57.8696 27.6914 56.5284 25.3005 55.0682 23.3437C52.9729 20.5281 50.6005 17.963 47.9513 15.6479C46.7537 14.6018 45.2362 12.9545 43.9199 12.1576C42.2631 11.1566 40.7096 10.0193 39.2591 8.74546C39.1791 8.67327 39.0809 8.62415 38.9751 8.60319C37.6875 8.33748 36.6591 7.67684 35.8895 6.62142C35.8152 6.51942 35.7217 6.43992 35.609 6.38303L34.7999 5.99165C34.6488 5.92051 34.6404 5.8363 34.7747 5.73901C35.8931 4.9349 37.1302 4.82817 38.2487 4.27669C39.9316 3.44057 41.9923 3.08478 43.4739 2.55821C45.5765 1.81341 46.9647 1.42559 47.6384 1.39476C48.7581 1.34021 49.8477 1.15044 50.9074 0.825485C51.4995 0.642843 52.1193 0.528997 52.7667 0.483922C53.8131 0.412771 54.7842 0.113904 55.7695 0.0783229C60.2816 -0.0900908 64.784 0.0130965 69.277 0.387861C70.4877 0.489859 71.7403 0.729423 73.035 1.10656C75.4469 1.80866 77.8612 2.4906 80.2779 3.15238C80.4049 3.18796 80.6483 3.31723 81.0079 3.5402C81.1035 3.60006 81.2175 3.62636 81.3316 3.61492ZM66.8352 18.7575C67.9608 20.3088 69.4712 21.6821 70.5105 23.0412C72.0461 25.048 73.4019 26.8375 74.8223 29.1253C75.99 31.0039 77.1755 32.7248 78.3791 34.2879C79.1846 35.3363 80.1784 36.1736 81.3602 36.7998C82.01 37.1437 82.8216 37.3548 83.7949 37.4331C87.5351 37.7249 91.2811 37.8648 95.0331 37.8529C98.036 37.8459 98.2087 34.3057 97.1729 32.3168C95.9886 30.0492 94.0012 27.4507 91.2104 24.5214C90.6962 23.9771 89.8186 23.5536 89.1714 22.8705C81.968 15.2423 71.557 10.5955 61.2178 9.02296C58.7795 8.65301 56.3701 8.94475 53.9138 8.69918C53.6357 8.67079 53.4739 8.78103 53.4283 9.03013C53.4102 9.13096 53.4225 9.23484 53.4642 9.32859C53.5058 9.42235 53.5748 9.50173 53.6621 9.55662C55.5933 10.7948 57.938 11.8694 59.5816 12.9902C60.8041 13.8202 61.9659 14.7263 63.0662 15.7084C63.589 16.1756 64.2338 16.6594 65.0011 17.16C65.8521 17.715 66.4635 18.2475 66.8352 18.7575ZM86.2116 71.1837C86.5329 71.2572 86.8614 71.2953 87.197 71.2976C91.3135 71.3284 95.4311 71.3568 99.5501 71.3831C100.147 71.3854 100.713 71.3166 101.247 71.1766C102.801 70.7675 104.11 70.6536 104.952 69.1023C105.66 67.7929 105.628 65.6013 105.57 63.9434C105.549 63.2745 105.591 62.4882 105.696 61.5844C105.937 59.5243 105.814 55.5786 104.347 53.8282C103.625 52.9671 102.724 52.418 101.643 52.1807C99.9668 51.8155 97.5193 51.647 94.2996 51.6756C91.8686 51.6969 89.4434 51.7266 87.0244 51.7645C85.1137 51.793 83.6307 52.5875 82.5759 54.1484C81.8135 55.2726 81.8601 56.8879 81.9069 58.2257C82.0004 60.9618 81.9969 63.6764 82.0004 66.409C82.0028 67.7585 82.1647 68.7252 82.4859 69.3087C83.3778 70.924 84.5431 70.803 86.2116 71.1837Z" fill="black"/>
<path d="M0.366379 65.6493C0.251228 65.2345 0.110895 64.8548 0.0928961 64.4189C-0.0246496 61.5223 -0.0306412 58.6245 0.0749092 55.7256C0.0845101 55.4889 0.144474 55.2476 0.254825 55.0015C0.679434 54.0665 0.45274 53.184 0.65424 52.1963C0.938515 50.8006 0.880945 49.718 0.996085 48.4067C1.0078 48.2916 1.0513 48.1812 1.12203 48.0869C1.93166 47.0041 1.78414 45.8195 2.12237 44.8036C2.83005 42.6686 3.60131 40.5571 4.43612 38.469C5.00705 37.0442 5.7351 35.5724 6.62027 34.0537C7.4504 32.6289 8.28399 31.2052 9.12115 29.7827C10.0015 28.2899 10.9287 26.9611 11.9027 25.7963C13.234 24.2039 14.7059 22.6923 15.976 21.0612C16.6021 20.2563 17.6205 19.7429 18.207 19.1173C18.718 18.5725 19.0599 18.0556 19.7184 17.6409C21.1576 16.7339 22.3955 15.4156 23.6298 14.6002C24.8388 13.801 26.7915 12.5602 29.4879 10.8774C30.7581 10.0829 31.8304 9.51347 33.2518 10.3537C35.3004 11.5629 37.3094 12.8237 39.279 14.1361C41.5063 15.6161 43.4999 17.6585 45.6769 19.4126C47.5768 20.9416 48.9766 23.3814 50.5778 25.2444C52.0291 26.9342 53.068 28.2594 53.694 29.2203C54.9558 31.1537 56.0905 33.1562 57.0981 35.2279C58.4943 38.0964 59.6925 41.6856 60.923 44.9441C61.2015 45.6801 61.3825 46.3491 61.4665 46.9515C61.7687 49.1414 62.2005 51.2963 62.4272 53.5005C62.4848 54.0523 62.787 54.6007 62.787 55.1843C62.787 58.1348 62.7991 61.0841 62.823 64.0322C62.8303 65.1888 62.3121 66.0078 62.3373 67.1221C62.3709 68.8494 62.1238 70.525 61.5959 72.149C61.0167 73.9278 60.8979 75.6784 59.984 77.3974C59.5737 78.1684 59.2823 78.8399 59.1095 79.4117C57.6593 84.1714 55.2521 87.8484 52.2475 92.1828C51.5422 93.1987 50.4268 94.0635 49.6999 95.227C49.4191 95.6745 49.0725 96.0952 48.6599 96.489C48.1945 96.9296 47.6824 97.5096 47.1234 98.2291C46.2455 99.3539 44.9321 100.635 43.1832 102.071C42.0029 103.041 40.506 104.106 38.6924 105.264C35.9469 107.014 33.8851 108.469 31.2547 109.306C31.1395 109.34 31.0316 109.329 30.9308 109.271C30.2663 108.884 28.9169 108.141 26.8827 107.042C23.8564 105.408 20.5747 102.961 17.9515 100.296C16.9152 99.2415 15.7385 98.3451 14.8102 97.2764C13.4752 95.7367 12.1222 94.2287 10.978 92.6257C7.40596 87.6011 4.60884 82.1958 2.58656 76.4096C1.70857 73.8962 1.05726 70.7007 0.621864 68.349C0.470727 67.5264 0.614669 66.5491 0.366379 65.6493ZM16.8109 47.208C17.0364 49.7601 18.2598 51.6362 20.4812 52.836C20.9682 53.1008 21.5511 53.2344 22.23 53.2367C25.1638 53.2485 28.0989 53.252 31.0352 53.2473C32.8559 53.2438 34.9826 53.7289 37.0588 53.5074C38.0519 53.402 38.9084 53.7394 39.9483 53.5321C40.5024 53.4196 40.9894 53.3668 41.4093 53.3738C43.6522 53.409 45.2439 52.3579 46.1842 50.2207C46.9831 48.3997 47.2482 46.6796 46.9795 45.0602C46.2634 40.7434 44.6945 36.3739 42.3519 32.3242C39.7541 27.8341 36.9089 23.4939 33.8167 19.3035C33.3849 18.72 32.8871 18.2315 32.3235 17.8377C32.2555 17.7908 32.1727 17.7689 32.0903 17.776C32.0079 17.7831 31.931 17.8187 31.8736 17.8765C31.046 18.713 30.2579 19.3423 29.5815 20.3793C29.2432 20.8972 28.8714 21.3917 28.4659 21.8628C27.6995 22.7556 27.3613 23.8277 26.433 24.6854C25.4289 25.61 24.6373 26.988 23.9967 28.1867C22.6331 30.7318 20.9994 33.1714 19.8659 35.7974C19.3957 36.8871 18.9207 37.9757 18.441 39.063C17.7357 40.6696 17.4082 42.5327 16.7461 44.2481C16.7039 44.3581 16.6964 44.4781 16.7245 44.5926C16.9513 45.5101 16.7497 46.5437 16.8109 47.208ZM17.1346 70.3317C17.0651 70.8355 16.7653 71.8081 16.2351 73.2493C16.1944 73.3642 16.2076 73.472 16.2747 73.5728C16.9908 74.6625 16.5517 75.4851 16.8721 76.5608C17.2031 77.6646 17.4621 78.7648 17.912 79.816C19.0803 82.5648 20.0662 84.7818 20.8697 86.4669C22.254 89.3659 24.0076 92.164 26.1306 94.8614C26.4233 95.234 26.728 95.7614 27.0446 96.4433C27.7283 97.9198 28.887 98.6403 29.7901 99.8957C30.1451 100.385 30.5386 100.848 30.9704 101.284C31.8015 102.117 33.1367 100.475 33.4712 99.9484C34.011 99.1079 34.7811 98.5314 35.3281 97.6947C37.2423 94.7805 39.4841 91.8558 41.1682 89.033C42.7658 86.3567 43.7998 84.5018 44.2699 83.4683C44.7761 82.3598 45.3878 80.5319 46.1051 77.9845C46.5909 76.269 47.3105 74.4269 46.868 72.7467C46.321 70.6831 45.9827 68.4545 43.7517 67.4386C42.6794 66.9488 41.8278 66.6899 41.1969 66.6616C38.1359 66.5258 31.6097 66.493 21.6183 66.5633C21.0089 66.5655 20.4812 66.698 20.035 66.9605C19.0946 67.5065 18.2671 68.1909 17.5521 69.0133C17.1527 69.4668 17.2103 69.7516 17.1346 70.3317Z" fill="black"/>
</svg>
