<svg width="909" height="162" viewBox="0 0 909 162" fill="none" xmlns="http://www.w3.org/2000/svg">
<path d="M5.312 79.184C4.75733 79.2267 4.26667 79.0987 3.84 78.8C3.456 78.5013 3.22133 78.0533 3.136 77.456C3.09333 76.9013 3.264 76.4533 3.648 76.112C4.032 75.7707 4.544 75.5787 5.184 75.536C9.57867 75.28 13.9307 74.6613 18.24 73.68C22.5493 72.6987 26.4747 71.3973 30.016 69.776C28.608 68.7093 27.264 67.536 25.984 66.256C24.7467 64.976 23.552 63.5893 22.4 62.096C18.688 64.8693 14.592 67.1307 10.112 68.88C9.6 69.0933 9.088 69.136 8.576 69.008C8.064 68.8373 7.70133 68.4747 7.488 67.92C7.31733 67.4507 7.33867 67.0027 7.552 66.576C7.76533 66.1067 8.14933 65.7653 8.704 65.552C12.1173 64.272 15.488 62.544 18.816 60.368C22.144 58.192 24.9173 55.824 27.136 53.264C25.2587 52.8373 23.9573 52.112 23.232 51.088C22.5493 50.0213 22.208 48.5067 22.208 46.544V42C22.208 41.4027 22.3787 40.9333 22.72 40.592C23.104 40.2507 23.5733 40.08 24.128 40.08C24.6827 40.08 25.1307 40.2507 25.472 40.592C25.856 40.9333 26.048 41.4027 26.048 42V46.352C26.048 47.4613 26.24 48.2933 26.624 48.848C27.0507 49.4027 27.776 49.7653 28.8 49.936C29.8667 50.1067 31.36 50.192 33.28 50.192C35.1573 50.192 36.5867 50.0853 37.568 49.872C38.592 49.616 39.3173 49.168 39.744 48.528C40.2133 47.8453 40.5547 46.864 40.768 45.584C40.8533 45.0293 41.1307 44.624 41.6 44.368C42.112 44.112 42.624 44.0267 43.136 44.112C44.288 44.4107 44.7573 45.1147 44.544 46.224C44.1173 49.0827 43.0507 51.0453 41.344 52.112C39.68 53.1787 36.9707 53.712 33.216 53.712H31.168C30.656 54.3947 30.1013 55.056 29.504 55.696C28.9493 56.336 28.3733 56.9547 27.776 57.552H38.592C40.8107 57.552 42.4107 58 43.392 58.896C44.416 59.7493 44.8213 60.8373 44.608 62.16C44.4373 63.44 43.648 64.72 42.24 66C41.472 66.6827 40.6613 67.344 39.808 67.984C38.9547 68.624 38.08 69.2427 37.184 69.84C40.256 71.4187 43.6053 72.592 47.232 73.36C50.8587 74.128 54.7413 74.6187 58.88 74.832C60.416 74.9173 61.12 75.6427 60.992 77.008C60.9493 77.648 60.672 78.096 60.16 78.352C59.648 78.6507 59.072 78.7787 58.432 78.736C53.3973 78.352 48.8107 77.6267 44.672 76.56C40.5333 75.4933 36.7787 73.9787 33.408 72.016C29.3973 74.064 24.96 75.6853 20.096 76.88C15.232 78.0747 10.304 78.8427 5.312 79.184ZM6.912 47.568C6.35733 47.568 5.888 47.376 5.504 46.992C5.12 46.608 4.928 46.1387 4.928 45.584V42C4.928 39.184 5.61067 37.1787 6.976 35.984C8.384 34.7467 10.9013 34.128 14.528 34.128H17.024C16.7253 33.616 16.2987 32.8907 15.744 31.952C15.232 30.9707 14.784 30.1387 14.4 29.456C14.144 29.0293 14.1013 28.5813 14.272 28.112C14.4427 27.6427 14.7413 27.3013 15.168 27.088C16.2773 26.5333 17.152 26.768 17.792 27.792C18.176 28.432 18.624 29.2427 19.136 30.224C19.6907 31.1627 20.1173 31.9093 20.416 32.464C20.7573 33.104 20.7573 33.6587 20.416 34.128H30.72C30.6773 34.0427 30.6347 33.9787 30.592 33.936C30.5493 33.8507 30.528 33.7653 30.528 33.68C30.3573 32.9547 30.1227 32.0587 29.824 30.992C29.568 29.8827 29.3547 29.008 29.184 28.368C29.0133 27.856 29.0347 27.3867 29.248 26.96C29.504 26.5333 29.9093 26.256 30.464 26.128C31.6587 25.872 32.448 26.2773 32.832 27.344C33.0453 28.0267 33.2587 28.9013 33.472 29.968C33.728 31.0347 33.9413 31.888 34.112 32.528C34.24 33.168 34.1333 33.7013 33.792 34.128H42.624C43.008 33.4453 43.456 32.6133 43.968 31.632C44.48 30.6507 44.9707 29.6907 45.44 28.752C45.9093 27.8133 46.272 27.0667 46.528 26.512C46.784 26 47.1893 25.68 47.744 25.552C48.2987 25.3813 48.832 25.424 49.344 25.68C49.8133 25.936 50.112 26.2987 50.24 26.768C50.4107 27.2373 50.368 27.7067 50.112 28.176C49.728 28.944 49.216 29.8827 48.576 30.992C47.9787 32.1013 47.3813 33.1467 46.784 34.128H49.536C53.1627 34.128 55.6587 34.7253 57.024 35.92C58.432 37.072 59.136 39.056 59.136 41.872V45.584C59.136 46.1387 58.944 46.608 58.56 46.992C58.176 47.376 57.7067 47.568 57.152 47.568C56.5973 47.568 56.128 47.376 55.744 46.992C55.36 46.608 55.168 46.1387 55.168 45.584V41.936C55.168 40.3147 54.7627 39.184 53.952 38.544C53.184 37.8613 51.6907 37.52 49.472 37.52H14.592C12.3733 37.52 10.8587 37.8613 10.048 38.544C9.28 39.184 8.896 40.3147 8.896 41.936V45.584C8.896 46.1387 8.704 46.608 8.32 46.992C7.936 47.376 7.46667 47.568 6.912 47.568ZM10.368 26.832C9.04533 26.832 8.34133 26.256 8.256 25.104C8.21333 24.592 8.384 24.1653 8.768 23.824C9.152 23.44 9.64267 23.248 10.24 23.248C13.44 23.2907 16.8107 23.248 20.352 23.12C23.8933 22.992 27.4347 22.8 30.976 22.544C34.5173 22.288 37.9093 21.968 41.152 21.584C44.3947 21.1573 47.296 20.688 49.856 20.176C51.3493 19.8347 52.2027 20.24 52.416 21.392C52.5867 21.9893 52.5227 22.48 52.224 22.864C51.968 23.248 51.5413 23.504 50.944 23.632C47.104 24.272 42.88 24.8267 38.272 25.296C33.7067 25.7653 29.0347 26.128 24.256 26.384C19.4773 26.64 14.848 26.7893 10.368 26.832ZM33.664 67.856C34.688 67.2587 35.6267 66.64 36.48 66C37.376 65.36 38.208 64.6987 38.976 64.016C40 63.0347 40.384 62.2453 40.128 61.648C39.872 61.0507 39.0187 60.752 37.568 60.752H25.792C26.9867 62.2027 28.2453 63.504 29.568 64.656C30.8907 65.808 32.256 66.8747 33.664 67.856ZM9.536 53.776C9.152 53.4347 8.93867 53.0293 8.896 52.56C8.896 52.048 9.06667 51.5787 9.408 51.152C10.0907 50.384 10.7733 49.4667 11.456 48.4C12.1813 47.3333 12.8427 46.2453 13.44 45.136C14.08 44.0267 14.592 43.0667 14.976 42.256C15.1893 41.7867 15.552 41.4667 16.064 41.296C16.6187 41.1253 17.152 41.1893 17.664 41.488C18.1333 41.744 18.4107 42.1067 18.496 42.576C18.624 43.0453 18.5813 43.5147 18.368 43.984C17.6427 45.4347 16.7467 47.056 15.68 48.848C14.6133 50.64 13.568 52.1547 12.544 53.392C12.2027 53.8187 11.7333 54.096 11.136 54.224C10.5387 54.3093 10.0053 54.16 9.536 53.776ZM55.488 52.88C55.0613 53.1787 54.5707 53.3067 54.016 53.264C53.504 53.1787 53.0773 52.9227 52.736 52.496C52.1813 51.6853 51.4987 50.768 50.688 49.744C49.8773 48.6773 49.0667 47.632 48.256 46.608C47.4453 45.5413 46.72 44.6453 46.08 43.92C45.7813 43.5787 45.632 43.152 45.632 42.64C45.6747 42.128 45.8667 41.7227 46.208 41.424C46.592 41.0827 47.04 40.9333 47.552 40.976C48.1067 40.976 48.5547 41.168 48.896 41.552C49.6213 42.32 50.4107 43.2373 51.264 44.304C52.1173 45.328 52.9493 46.3733 53.76 47.44C54.6133 48.5067 55.296 49.424 55.808 50.192C56.1493 50.6187 56.2773 51.088 56.192 51.6C56.1493 52.112 55.9147 52.5387 55.488 52.88ZM36.608 46.544C36.1813 46.8427 35.712 46.9707 35.2 46.928C34.7307 46.8853 34.3253 46.672 33.984 46.288C33.6427 45.8613 33.152 45.328 32.512 44.688C31.9147 44.0053 31.296 43.3227 30.656 42.64C30.0587 41.9573 29.5253 41.3813 29.056 40.912C28.7573 40.5707 28.6293 40.1653 28.672 39.696C28.7147 39.184 28.928 38.7787 29.312 38.48C29.7813 38.1387 30.2507 38.0107 30.72 38.096C31.232 38.1387 31.6587 38.352 32 38.736C32.7253 39.4187 33.5787 40.2933 34.56 41.36C35.5413 42.4267 36.3307 43.3227 36.928 44.048C37.2693 44.432 37.3973 44.8587 37.312 45.328C37.2693 45.7973 37.0347 46.2027 36.608 46.544ZM117.888 71.568C115.115 71.568 112.939 71.248 111.36 70.608C109.781 69.9253 108.651 68.8373 107.968 67.344C107.328 65.808 107.008 63.7813 107.008 61.264V40.4C107.008 37.8827 107.328 35.8773 107.968 34.384C108.651 32.8907 109.781 31.824 111.36 31.184C112.939 30.5013 115.115 30.16 117.888 30.16C120.661 30.16 122.837 30.5013 124.416 31.184C125.995 31.824 127.104 32.8907 127.744 34.384C128.384 35.8773 128.704 37.8827 128.704 40.4V61.328C128.704 63.8453 128.384 65.8507 127.744 67.344C127.104 68.8373 125.995 69.9253 124.416 70.608C122.837 71.248 120.661 71.568 117.888 71.568ZM76.416 77.584C75.8613 77.8827 75.2853 77.9893 74.688 77.904C74.1333 77.8613 73.6853 77.5627 73.344 77.008C73.0453 76.496 72.96 75.984 73.088 75.472C73.2587 74.96 73.6 74.576 74.112 74.32C78.464 72.0587 81.8773 69.136 84.352 65.552C86.8693 61.968 88.2133 57.3173 88.384 51.6H76.736C76.1813 51.6 75.712 51.408 75.328 51.024C74.944 50.64 74.752 50.1707 74.752 49.616C74.752 49.0613 74.944 48.6133 75.328 48.272C75.712 47.888 76.1813 47.696 76.736 47.696H88.384V35.28H82.688C80.896 38.1387 79.04 40.6987 77.12 42.96C76.736 43.3867 76.2453 43.664 75.648 43.792C75.0933 43.8773 74.5813 43.7493 74.112 43.408C73.6853 43.0667 73.4293 42.64 73.344 42.128C73.2587 41.616 73.3867 41.168 73.728 40.784C75.2213 39.1627 76.6507 37.328 78.016 35.28C79.424 33.232 80.6613 31.0987 81.728 28.88C82.8373 26.6613 83.6907 24.5493 84.288 22.544C84.5013 21.9893 84.8427 21.584 85.312 21.328C85.824 21.072 86.3573 21.0507 86.912 21.264C87.4667 21.4347 87.872 21.776 88.128 22.288C88.384 22.7573 88.4053 23.2693 88.192 23.824C87.7227 25.1467 87.1893 26.448 86.592 27.728C86.0373 28.9653 85.4613 30.1813 84.864 31.376H100.736C101.291 31.376 101.739 31.568 102.08 31.952C102.464 32.336 102.656 32.8053 102.656 33.36C102.656 33.872 102.464 34.32 102.08 34.704C101.739 35.088 101.291 35.28 100.736 35.28H92.352V47.696H103.104C103.701 47.696 104.171 47.888 104.512 48.272C104.853 48.6133 105.024 49.0613 105.024 49.616C105.024 50.1707 104.853 50.64 104.512 51.024C104.171 51.408 103.701 51.6 103.104 51.6H92.352C92.3093 52.1973 92.2667 52.7947 92.224 53.392C92.224 53.9893 92.1813 54.5867 92.096 55.184C93.0773 56.8907 94.272 58.6827 95.68 60.56C97.088 62.3947 98.5387 64.1653 100.032 65.872C101.525 67.536 102.869 68.9653 104.064 70.16C104.491 70.544 104.683 71.0133 104.64 71.568C104.597 72.1227 104.363 72.592 103.936 72.976C103.509 73.4027 102.997 73.616 102.4 73.616C101.803 73.616 101.269 73.4027 100.8 72.976C99.904 71.952 98.88 70.7573 97.728 69.392C96.576 67.984 95.424 66.512 94.272 64.976C93.12 63.3973 92.0533 61.8613 91.072 60.368C90.0053 64.08 88.2347 67.344 85.76 70.16C83.328 72.9333 80.2133 75.408 76.416 77.584ZM117.888 67.664C119.765 67.664 121.173 67.472 122.112 67.088C123.093 66.704 123.755 66.0427 124.096 65.104C124.48 64.1227 124.672 62.8213 124.672 61.2V40.528C124.672 38.864 124.48 37.5627 124.096 36.624C123.755 35.6853 123.093 35.024 122.112 34.64C121.173 34.256 119.765 34.064 117.888 34.064C116.011 34.064 114.581 34.256 113.6 34.64C112.619 35.024 111.936 35.6853 111.552 36.624C111.211 37.5627 111.04 38.864 111.04 40.528V61.136C111.04 62.7573 111.211 64.0587 111.552 65.04C111.936 65.9787 112.619 66.6613 113.6 67.088C114.581 67.472 116.011 67.664 117.888 67.664ZM173.248 52.112C169.877 52.112 167.275 51.8133 165.44 51.216C163.605 50.576 162.347 49.4667 161.664 47.888C160.981 46.2667 160.64 43.984 160.64 41.04V33.104C160.64 30.16 160.981 27.8987 161.664 26.32C162.347 24.6987 163.605 23.5893 165.44 22.992C167.275 22.352 169.877 22.032 173.248 22.032H179.52C182.933 22.032 185.536 22.352 187.328 22.992C189.163 23.5893 190.421 24.6987 191.104 26.32C191.787 27.8987 192.128 30.16 192.128 33.104V41.04C192.128 43.984 191.787 46.2667 191.104 47.888C190.421 49.4667 189.163 50.576 187.328 51.216C185.536 51.8133 182.933 52.112 179.52 52.112H173.248ZM173.12 79.312C172.565 79.312 172.075 79.12 171.648 78.736C171.264 78.352 171.072 77.8613 171.072 77.264V60.24H160.896C157.525 60.24 154.901 59.92 153.024 59.28C151.147 58.5973 149.824 57.4453 149.056 55.824C148.331 54.16 147.968 51.856 147.968 48.912V25.744C147.968 25.1467 148.16 24.6773 148.544 24.336C148.928 23.952 149.397 23.76 149.952 23.76C150.507 23.76 150.976 23.952 151.36 24.336C151.744 24.6773 151.936 25.1467 151.936 25.744V48.912C151.936 50.96 152.171 52.5387 152.64 53.648C153.152 54.7147 154.048 55.4613 155.328 55.888C156.608 56.272 158.443 56.464 160.832 56.464H200.128C200.683 56.464 201.109 56.656 201.408 57.04C201.749 57.424 201.92 57.872 201.92 58.384C201.92 58.8533 201.749 59.28 201.408 59.664C201.109 60.048 200.683 60.24 200.128 60.24H175.168V77.264C175.168 77.8613 174.976 78.352 174.592 78.736C174.208 79.12 173.717 79.312 173.12 79.312ZM164.672 39.696H188.096V34.192H164.672V39.696ZM173.248 48.592H179.52C181.739 48.592 183.445 48.464 184.64 48.208C185.877 47.952 186.731 47.4187 187.2 46.608C187.712 45.7973 187.989 44.5813 188.032 42.96H164.736C164.821 44.5813 165.099 45.7973 165.568 46.608C166.037 47.4187 166.869 47.952 168.064 48.208C169.301 48.464 171.029 48.592 173.248 48.592ZM164.736 30.928H188.032C187.947 29.392 187.648 28.24 187.136 27.472C186.667 26.6613 185.835 26.128 184.64 25.872C183.445 25.616 181.739 25.488 179.52 25.488H173.248C171.072 25.488 169.365 25.616 168.128 25.872C166.933 26.128 166.08 26.6613 165.568 27.472C165.099 28.24 164.821 29.392 164.736 30.928ZM195.072 76.112C193.707 75.216 192.213 74.192 190.592 73.04C189.013 71.8453 187.477 70.6293 185.984 69.392C184.491 68.112 183.211 66.9387 182.144 65.872C181.76 65.4453 181.568 64.976 181.568 64.464C181.568 63.952 181.76 63.4827 182.144 63.056C182.528 62.7147 182.997 62.544 183.552 62.544C184.107 62.5013 184.576 62.672 184.96 63.056C185.984 64.0373 187.221 65.1467 188.672 66.384C190.165 67.5787 191.701 68.752 193.28 69.904C194.901 71.0133 196.373 71.952 197.696 72.72C198.165 73.0187 198.464 73.4453 198.592 74C198.72 74.5547 198.613 75.0667 198.272 75.536C197.931 76.048 197.44 76.3467 196.8 76.432C196.16 76.56 195.584 76.4533 195.072 76.112ZM151.04 76.048C150.485 76.3893 149.888 76.5173 149.248 76.432C148.608 76.3893 148.117 76.112 147.776 75.6C147.435 75.088 147.328 74.5547 147.456 74C147.584 73.4027 147.904 72.9547 148.416 72.656C149.739 71.888 151.189 70.9493 152.768 69.84C154.347 68.7307 155.861 67.5787 157.312 66.384C158.805 65.1467 160.043 64.0373 161.024 63.056C161.451 62.672 161.941 62.5013 162.496 62.544C163.051 62.544 163.499 62.7147 163.84 63.056C164.267 63.4827 164.48 63.952 164.48 64.464C164.48 64.976 164.267 65.4453 163.84 65.872C162.773 66.9387 161.493 68.112 160 69.392C158.549 70.6293 157.035 71.824 155.456 72.976C153.92 74.128 152.448 75.152 151.04 76.048ZM215.68 75.728C215.125 75.728 214.656 75.536 214.272 75.152C213.931 74.768 213.76 74.2987 213.76 73.744C213.76 73.1893 213.931 72.72 214.272 72.336C214.656 71.952 215.125 71.76 215.68 71.76H244.736C245.461 69.9253 246.251 67.7707 247.104 65.296C247.957 62.8213 248.789 60.24 249.6 57.552C250.411 54.8213 251.157 52.1547 251.84 49.552C252.565 46.9493 253.12 44.6027 253.504 42.512C253.632 41.9147 253.952 41.4667 254.464 41.168C255.019 40.8267 255.595 40.7413 256.192 40.912C256.832 41.0827 257.301 41.4027 257.6 41.872C257.899 42.3413 257.963 42.896 257.792 43.536C257.28 45.6267 256.661 47.952 255.936 50.512C255.211 53.0293 254.443 55.5893 253.632 58.192C252.821 60.7947 252.011 63.2693 251.2 65.616C250.389 67.9627 249.621 70.0107 248.896 71.76H270.72C271.275 71.76 271.744 71.952 272.128 72.336C272.512 72.72 272.704 73.1893 272.704 73.744C272.704 74.2987 272.512 74.768 272.128 75.152C271.744 75.536 271.275 75.728 270.72 75.728H215.68ZM218.688 37.648C218.133 37.648 217.664 37.456 217.28 37.072C216.939 36.688 216.768 36.2187 216.768 35.664C216.768 35.1093 216.939 34.6613 217.28 34.32C217.664 33.936 218.133 33.744 218.688 33.744H241.152V23.76C241.152 23.1627 241.365 22.672 241.792 22.288C242.219 21.8613 242.709 21.648 243.264 21.648C243.861 21.648 244.352 21.8613 244.736 22.288C245.163 22.672 245.376 23.1627 245.376 23.76V33.744H267.456C268.011 33.744 268.48 33.936 268.864 34.32C269.248 34.6613 269.44 35.1093 269.44 35.664C269.44 36.2187 269.248 36.688 268.864 37.072C268.48 37.456 268.011 37.648 267.456 37.648H218.688ZM236.224 67.152C235.627 67.3227 235.072 67.2587 234.56 66.96C234.091 66.6613 233.792 66.2347 233.664 65.68C233.237 63.5467 232.683 61.2427 232 58.768C231.36 56.2507 230.677 53.7547 229.952 51.28C229.227 48.7627 228.501 46.4373 227.776 44.304C227.605 43.7493 227.648 43.2373 227.904 42.768C228.16 42.2987 228.544 41.9787 229.056 41.808C229.653 41.6373 230.208 41.6587 230.72 41.872C231.232 42.0427 231.573 42.4267 231.744 43.024C232.512 45.2 233.259 47.5893 233.984 50.192C234.752 52.752 235.456 55.312 236.096 57.872C236.736 60.3893 237.269 62.672 237.696 64.72C237.995 66 237.504 66.8107 236.224 67.152ZM328.128 78.736C327.531 78.736 327.019 78.544 326.592 78.16C326.208 77.8187 325.995 77.328 325.952 76.688C325.952 76.1333 326.123 75.6427 326.464 75.216C326.848 74.832 327.339 74.6187 327.936 74.576C330.496 74.4907 332.181 74.1493 332.992 73.552C333.845 72.912 334.272 71.696 334.272 69.904V55.312H318.72C317.995 61.2427 316.117 66.0427 313.088 69.712C310.059 73.3387 306.005 76.2187 300.928 78.352C300.288 78.608 299.691 78.6507 299.136 78.48C298.581 78.3093 298.176 77.9467 297.92 77.392C297.664 76.8373 297.643 76.304 297.856 75.792C298.069 75.28 298.453 74.9173 299.008 74.704C304.384 72.6987 308.395 69.712 311.04 65.744C313.728 61.776 315.072 56.3147 315.072 49.36V31.952C315.072 28.6667 315.776 26.384 317.184 25.104C318.592 23.824 321.088 23.184 324.672 23.184H328.704C332.288 23.184 334.784 23.824 336.192 25.104C337.6 26.384 338.304 28.6667 338.304 31.952V70.608C338.304 73.4667 337.579 75.536 336.128 76.816C334.72 78.096 332.053 78.736 328.128 78.736ZM297.152 60.944C294.549 60.944 292.501 60.6667 291.008 60.112C289.557 59.5573 288.512 58.64 287.872 57.36C287.275 56.0373 286.976 54.2453 286.976 51.984V34.064C286.976 31.8027 287.275 30.032 287.872 28.752C288.512 27.4293 289.557 26.4907 291.008 25.936C292.501 25.3813 294.549 25.104 297.152 25.104C299.755 25.104 301.781 25.3813 303.232 25.936C304.683 26.4907 305.707 27.4293 306.304 28.752C306.944 30.032 307.264 31.8027 307.264 34.064V51.984C307.264 54.2453 306.944 56.0373 306.304 57.36C305.707 58.64 304.683 59.5573 303.232 60.112C301.781 60.6667 299.755 60.944 297.152 60.944ZM318.976 51.664H334.272V41.04H319.04V49.36C319.04 49.744 319.04 50.128 319.04 50.512C319.04 50.896 319.019 51.28 318.976 51.664ZM319.04 37.392H334.272V32.144C334.272 30.1387 333.867 28.7947 333.056 28.112C332.288 27.3867 330.773 27.024 328.512 27.024H324.864C322.603 27.024 321.067 27.3867 320.256 28.112C319.445 28.7947 319.04 30.1387 319.04 32.144V37.392ZM297.152 57.104C298.859 57.104 300.139 56.9547 300.992 56.656C301.888 56.3573 302.485 55.824 302.784 55.056C303.125 54.288 303.296 53.2213 303.296 51.856V44.624H291.008V51.856C291.008 53.2213 291.157 54.288 291.456 55.056C291.797 55.824 292.416 56.3573 293.312 56.656C294.208 56.9547 295.488 57.104 297.152 57.104ZM291.008 40.912H303.296V34.128C303.296 32.72 303.125 31.6533 302.784 30.928C302.485 30.16 301.888 29.6267 300.992 29.328C300.139 29.0293 298.859 28.88 297.152 28.88C295.488 28.88 294.208 29.0293 293.312 29.328C292.416 29.6267 291.797 30.16 291.456 30.928C291.157 31.6533 291.008 32.72 291.008 34.128V40.912ZM399.488 71.888C396.629 71.888 394.368 71.5467 392.704 70.864C391.04 70.1387 389.867 69.0293 389.184 67.536C388.501 66.0427 388.16 64.1013 388.16 61.712V39.76C388.16 37.3707 388.501 35.4293 389.184 33.936C389.867 32.4427 391.04 31.3547 392.704 30.672C394.368 29.9893 396.629 29.648 399.488 29.648C402.389 29.648 404.672 29.9893 406.336 30.672C408 31.3547 409.173 32.4427 409.856 33.936C410.539 35.4293 410.88 37.3707 410.88 39.76V61.776C410.88 64.1653 410.539 66.1067 409.856 67.6C409.173 69.0933 408 70.1813 406.336 70.864C404.672 71.5467 402.389 71.888 399.488 71.888ZM371.328 79.184C370.773 79.184 370.304 78.992 369.92 78.608C369.536 78.224 369.344 77.7547 369.344 77.2V49.68C368.363 51.5147 367.232 53.392 365.952 55.312C364.715 57.1893 363.456 58.9813 362.176 60.688C360.896 62.3947 359.659 63.888 358.464 65.168C358.08 65.5947 357.611 65.8507 357.056 65.936C356.501 65.9787 355.989 65.8293 355.52 65.488C355.093 65.1467 354.859 64.72 354.816 64.208C354.773 63.6533 354.944 63.2053 355.328 62.864C356.48 61.7547 357.696 60.3893 358.976 58.768C360.299 57.104 361.6 55.3547 362.88 53.52C364.16 51.6427 365.333 49.7867 366.4 47.952C367.467 46.0747 368.341 44.3467 369.024 42.768H357.504C356.949 42.768 356.501 42.5973 356.16 42.256C355.819 41.872 355.648 41.4027 355.648 40.848C355.648 40.336 355.819 39.9093 356.16 39.568C356.501 39.184 356.949 38.992 357.504 38.992H369.344V29.136C367.595 29.5627 365.867 29.968 364.16 30.352C362.453 30.6933 360.875 30.9707 359.424 31.184C358.869 31.2267 358.357 31.12 357.888 30.864C357.419 30.608 357.141 30.2027 357.056 29.648C356.928 29.0507 357.013 28.56 357.312 28.176C357.611 27.792 358.037 27.5787 358.592 27.536C360.256 27.3227 362.069 27.0027 364.032 26.576C366.037 26.1493 368.043 25.68 370.048 25.168C372.096 24.6133 373.995 24.0587 375.744 23.504C377.493 22.9067 378.923 22.3733 380.032 21.904C380.587 21.6907 381.12 21.6907 381.632 21.904C382.144 22.0747 382.485 22.4373 382.656 22.992C382.869 23.504 382.869 23.9947 382.656 24.464C382.485 24.9333 382.144 25.2747 381.632 25.488C379.456 26.2987 376.704 27.1733 373.376 28.112V38.992H383.424C384.021 38.992 384.491 39.184 384.832 39.568C385.173 39.9093 385.344 40.336 385.344 40.848C385.344 41.4027 385.173 41.872 384.832 42.256C384.491 42.5973 384.021 42.768 383.424 42.768H373.376V46.032C374.272 47.184 375.339 48.464 376.576 49.872C377.813 51.28 379.072 52.624 380.352 53.904C381.675 55.1413 382.869 56.1653 383.936 56.976C384.405 57.2747 384.661 57.7227 384.704 58.32C384.747 58.8747 384.597 59.3653 384.256 59.792C383.872 60.2187 383.381 60.432 382.784 60.432C382.229 60.432 381.739 60.24 381.312 59.856C380.117 58.832 378.795 57.552 377.344 56.016C375.936 54.48 374.613 52.9227 373.376 51.344V77.2C373.376 77.7547 373.184 78.224 372.8 78.608C372.416 78.992 371.925 79.184 371.328 79.184ZM399.488 67.984C401.493 67.984 403.008 67.7707 404.032 67.344C405.099 66.9173 405.824 66.2347 406.208 65.296C406.592 64.3147 406.784 63.0347 406.784 61.456V40.08C406.784 38.5013 406.592 37.2427 406.208 36.304C405.824 35.3227 405.099 34.6187 404.032 34.192C403.008 33.7653 401.493 33.552 399.488 33.552C397.525 33.552 396.011 33.7653 394.944 34.192C393.877 34.6187 393.152 35.3227 392.768 36.304C392.384 37.2427 392.192 38.5013 392.192 40.08V61.328C392.192 63.7173 392.661 65.424 393.6 66.448C394.539 67.472 396.501 67.984 399.488 67.984ZM446.208 47.952C443.392 47.952 441.429 47.4613 440.32 46.48C439.211 45.456 438.656 43.7493 438.656 41.36C438.656 38.928 439.211 37.2427 440.32 36.304C441.429 35.3653 443.392 34.896 446.208 34.896H462.208C465.024 34.896 466.987 35.3653 468.096 36.304C469.205 37.2427 469.76 38.928 469.76 41.36C469.76 43.7493 469.205 45.456 468.096 46.48C466.987 47.4613 465.024 47.952 462.208 47.952H446.208ZM430.656 79.376C430.101 79.376 429.632 79.184 429.248 78.8C428.864 78.416 428.672 77.9467 428.672 77.392V61.456C428.672 58.9387 428.992 56.9547 429.632 55.504C430.315 54.0533 431.467 53.0293 433.088 52.432C434.752 51.792 437.013 51.472 439.872 51.472H468.864C471.765 51.472 474.027 51.792 475.648 52.432C477.269 53.0293 478.4 54.0533 479.04 55.504C479.723 56.9547 480.064 58.9387 480.064 61.456V71.248C480.064 74.1067 479.445 76.1547 478.208 77.392C476.971 78.6293 474.581 79.2693 471.04 79.312C470.485 79.312 469.995 79.12 469.568 78.736C469.184 78.3947 468.992 77.9467 468.992 77.392C468.949 76.8373 469.099 76.3467 469.44 75.92C469.824 75.536 470.336 75.3227 470.976 75.28C472.469 75.2373 473.579 75.088 474.304 74.832C475.029 74.6187 475.499 74.2133 475.712 73.616C475.968 72.976 476.096 72.08 476.096 70.928V61.456C476.096 59.7493 475.883 58.448 475.456 57.552C475.072 56.6133 474.368 55.9733 473.344 55.632C472.32 55.248 470.827 55.056 468.864 55.056H439.872C437.952 55.056 436.459 55.248 435.392 55.632C434.368 55.9733 433.643 56.6133 433.216 57.552C432.832 58.448 432.64 59.7493 432.64 61.456V77.392C432.64 77.9467 432.448 78.416 432.064 78.8C431.68 79.184 431.211 79.376 430.656 79.376ZM448.768 71.824C446.08 71.824 444.181 71.3547 443.072 70.416C442.005 69.4347 441.472 67.7493 441.472 65.36C441.472 62.928 442.005 61.2427 443.072 60.304C444.181 59.3227 446.08 58.832 448.768 58.832H459.648C462.336 58.832 464.235 59.3227 465.344 60.304C466.453 61.2427 467.008 62.928 467.008 65.36C467.008 67.7493 466.453 69.4347 465.344 70.416C464.235 71.3547 462.336 71.824 459.648 71.824H448.768ZM427.392 31.12C426.837 31.12 426.389 30.9493 426.048 30.608C425.749 30.2667 425.6 29.84 425.6 29.328C425.6 28.8587 425.749 28.4533 426.048 28.112C426.389 27.7707 426.837 27.6 427.392 27.6H452.224V22.16C452.224 21.52 452.437 21.008 452.864 20.624C453.291 20.24 453.781 20.048 454.336 20.048C454.933 20.048 455.424 20.24 455.808 20.624C456.235 21.008 456.448 21.52 456.448 22.16V27.6H481.408C481.92 27.6 482.325 27.7707 482.624 28.112C482.965 28.4533 483.136 28.8587 483.136 29.328C483.136 29.84 482.965 30.2667 482.624 30.608C482.325 30.9493 481.92 31.12 481.408 31.12H427.392ZM446.336 44.432H462.08C463.616 44.432 464.619 44.2187 465.088 43.792C465.557 43.3227 465.792 42.4907 465.792 41.296C465.792 40.0587 465.557 39.2693 465.088 38.928C464.619 38.544 463.616 38.352 462.08 38.352H446.336C444.8 38.352 443.797 38.544 443.328 38.928C442.859 39.2693 442.624 40.0587 442.624 41.296C442.624 42.4907 442.859 43.3227 443.328 43.792C443.797 44.2187 444.8 44.432 446.336 44.432ZM449.024 68.304H459.392C460.8 68.304 461.76 68.112 462.272 67.728C462.784 67.3013 463.04 66.4907 463.04 65.296C463.04 64.0587 462.784 63.248 462.272 62.864C461.76 62.48 460.8 62.288 459.392 62.288H449.024C447.616 62.288 446.656 62.48 446.144 62.864C445.632 63.248 445.376 64.0587 445.376 65.296C445.376 66.4907 445.632 67.3013 446.144 67.728C446.656 68.112 447.616 68.304 449.024 68.304ZM527.04 79.248C526.485 79.248 525.995 79.0347 525.568 78.608C525.184 78.224 524.971 77.7333 524.928 77.136C524.928 76.624 525.12 76.1547 525.504 75.728C525.888 75.344 526.357 75.1307 526.912 75.088C529.173 75.0453 530.837 74.896 531.904 74.64C532.971 74.384 533.653 73.872 533.952 73.104C534.293 72.336 534.464 71.184 534.464 69.648V63.248H499.648C499.136 63.248 498.688 63.0773 498.304 62.736C497.963 62.352 497.792 61.904 497.792 61.392C497.792 60.9227 497.963 60.496 498.304 60.112C498.688 59.728 499.136 59.536 499.648 59.536H534.464V53.52H497.536C497.067 53.52 496.64 53.3493 496.256 53.008C495.915 52.624 495.744 52.1973 495.744 51.728C495.744 51.216 495.915 50.7893 496.256 50.448C496.64 50.064 497.067 49.872 497.536 49.872H522.752V44.304H504.256C503.787 44.304 503.36 44.1333 502.976 43.792C502.635 43.408 502.464 42.9813 502.464 42.512C502.464 42.0427 502.635 41.6373 502.976 41.296C503.36 40.912 503.787 40.72 504.256 40.72H522.752V37.584C522.709 37.5413 522.667 37.52 522.624 37.52C522.581 37.4773 522.517 37.4347 522.432 37.392C522.005 37.136 521.749 36.752 521.664 36.24C521.579 35.6853 521.707 35.216 522.048 34.832C523.669 32.9973 525.248 30.864 526.784 28.432C528.32 26 529.472 23.696 530.24 21.52C530.411 20.9653 530.752 20.5813 531.264 20.368C531.776 20.1547 532.288 20.1547 532.8 20.368C534.037 20.8373 534.443 21.648 534.016 22.8C533.717 23.4827 533.376 24.208 532.992 24.976C532.651 25.744 532.267 26.512 531.84 27.28H550.912C551.467 27.28 551.893 27.4507 552.192 27.792C552.533 28.1333 552.704 28.5387 552.704 29.008C552.704 29.4773 552.533 29.8827 552.192 30.224C551.893 30.5653 551.467 30.736 550.912 30.736H539.584C539.925 31.5467 540.267 32.4 540.608 33.296C540.949 34.192 541.227 34.96 541.44 35.6C541.653 36.0693 541.653 36.5387 541.44 37.008C541.227 37.4347 540.821 37.7547 540.224 37.968C539.669 38.1387 539.157 38.1387 538.688 37.968C538.219 37.7547 537.899 37.4133 537.728 36.944C537.472 36.1333 537.109 35.1307 536.64 33.936C536.213 32.6987 535.808 31.632 535.424 30.736H529.792C529.237 31.6747 528.619 32.592 527.936 33.488C527.296 34.384 526.656 35.2373 526.016 36.048C526.528 36.432 526.784 36.9867 526.784 37.712V40.72H545.536C546.005 40.72 546.411 40.912 546.752 41.296C547.093 41.6373 547.264 42.0427 547.264 42.512C547.264 42.9813 547.093 43.408 546.752 43.792C546.411 44.1333 546.005 44.304 545.536 44.304H526.784V49.872H552.064C552.533 49.872 552.939 50.064 553.28 50.448C553.621 50.7893 553.792 51.216 553.792 51.728C553.792 52.1973 553.621 52.624 553.28 53.008C552.939 53.3493 552.533 53.52 552.064 53.52H538.56V59.536H550.016C550.528 59.536 550.955 59.728 551.296 60.112C551.68 60.496 551.872 60.9227 551.872 61.392C551.872 61.904 551.68 62.352 551.296 62.736C550.955 63.0773 550.528 63.248 550.016 63.248H538.56V70.224C538.56 72.528 538.24 74.32 537.6 75.6C536.96 76.9227 535.808 77.8613 534.144 78.416C532.523 78.9707 530.155 79.248 527.04 79.248ZM514.304 37.968C513.792 38.1387 513.301 38.1387 512.832 37.968C512.363 37.7547 512.043 37.4133 511.872 36.944C511.573 36.1333 511.189 35.1307 510.72 33.936C510.293 32.6987 509.909 31.632 509.568 30.736H504.768C503.872 31.8453 502.955 32.912 502.016 33.936C501.12 34.96 500.224 35.92 499.328 36.816C498.944 37.2427 498.475 37.4987 497.92 37.584C497.365 37.6267 496.853 37.4773 496.384 37.136C496 36.7947 495.787 36.368 495.744 35.856C495.701 35.3013 495.851 34.8533 496.192 34.512C498.112 32.7627 500.011 30.7147 501.888 28.368C503.765 26.0213 505.216 23.76 506.24 21.584C506.496 21.0293 506.859 20.6667 507.328 20.496C507.84 20.3253 508.352 20.3467 508.864 20.56C509.419 20.7733 509.781 21.136 509.952 21.648C510.123 22.1173 510.08 22.608 509.824 23.12C509.099 24.6133 508.267 26 507.328 27.28H522.752C523.264 27.28 523.669 27.4507 523.968 27.792C524.309 28.1333 524.48 28.5387 524.48 29.008C524.48 29.4773 524.309 29.8827 523.968 30.224C523.669 30.5653 523.264 30.736 522.752 30.736H513.664C514.005 31.5467 514.347 32.4 514.688 33.296C515.072 34.192 515.349 34.96 515.52 35.6C515.733 36.0693 515.733 36.5387 515.52 37.008C515.307 37.4347 514.901 37.7547 514.304 37.968ZM519.104 73.808C518.635 74.192 518.101 74.3413 517.504 74.256C516.949 74.2133 516.48 73.9787 516.096 73.552C515.243 72.528 514.219 71.376 513.024 70.096C511.829 68.7733 510.741 67.664 509.76 66.768C509.376 66.4267 509.205 66 509.248 65.488C509.291 64.9333 509.525 64.4853 509.952 64.144C510.336 63.76 510.805 63.568 511.36 63.568C511.915 63.5253 512.405 63.7173 512.832 64.144C513.899 65.0827 515.029 66.1707 516.224 67.408C517.461 68.6453 518.507 69.7973 519.36 70.864C519.744 71.3333 519.915 71.8667 519.872 72.464C519.829 73.0187 519.573 73.4667 519.104 73.808ZM587.008 79.376C585.643 79.376 584.917 78.736 584.832 77.456C584.832 76.8587 585.024 76.368 585.408 75.984C585.835 75.6427 586.389 75.4507 587.072 75.408C589.376 75.3653 591.168 75.088 592.448 74.576C593.771 74.1067 594.688 73.2533 595.2 72.016C595.755 70.736 596.032 68.9013 596.032 66.512C596.032 65.7013 595.989 64.912 595.904 64.144C595.861 63.376 595.755 62.6293 595.584 61.904H568.704C568.149 61.904 567.701 61.7333 567.36 61.392C567.019 61.008 566.848 60.56 566.848 60.048C566.848 59.536 567.019 59.1093 567.36 58.768C567.701 58.384 568.128 58.192 568.64 58.192H594.368C593.643 56.528 592.725 55.056 591.616 53.776C591.317 53.3493 591.189 52.88 591.232 52.368C591.317 51.856 591.573 51.4293 592 51.088C592.427 50.7893 592.896 50.6613 593.408 50.704C593.963 50.7467 594.389 50.9387 594.688 51.28C594.944 51.536 595.179 51.8133 595.392 52.112C595.648 52.368 595.883 52.6453 596.096 52.944C596.907 52.56 597.824 52.112 598.848 51.6C599.915 51.088 600.96 50.576 601.984 50.064C603.008 49.552 603.84 49.1467 604.48 48.848C605.333 48.3787 605.696 47.8453 605.568 47.248C605.483 46.6507 604.928 46.352 603.904 46.352H579.648C579.093 46.352 578.645 46.16 578.304 45.776C578.005 45.392 577.856 44.9653 577.856 44.496C577.856 43.984 578.005 43.536 578.304 43.152C578.645 42.768 579.093 42.576 579.648 42.576H605.312C606.848 42.576 608.043 42.896 608.896 43.536C609.792 44.1333 610.347 44.9013 610.56 45.84C610.773 46.7787 610.603 47.7387 610.048 48.72C609.536 49.6587 608.619 50.4693 607.296 51.152C605.845 51.92 604.309 52.7093 602.688 53.52C601.067 54.3307 599.445 55.12 597.824 55.888C597.995 56.2293 598.144 56.592 598.272 56.976C598.443 57.36 598.592 57.7653 598.72 58.192H621.632C622.229 58.192 622.699 58.384 623.04 58.768C623.424 59.1093 623.616 59.536 623.616 60.048C623.616 60.56 623.445 61.008 623.104 61.392C622.763 61.7333 622.315 61.904 621.76 61.904H599.68C599.851 62.672 599.957 63.4613 600 64.272C600.085 65.04 600.128 65.8293 600.128 66.64C600.128 69.84 599.68 72.3573 598.784 74.192C597.931 76.0693 596.544 77.392 594.624 78.16C592.704 78.9707 590.165 79.376 587.008 79.376ZM570.432 47.504C569.877 47.504 569.408 47.3333 569.024 46.992C568.64 46.608 568.448 46.1173 568.448 45.52V41.552C568.448 38.736 569.152 36.7093 570.56 35.472C572.011 34.2347 574.507 33.616 578.048 33.616H603.2C603.712 32.8907 604.309 31.9947 604.992 30.928C605.675 29.8613 606.379 28.752 607.104 27.6C607.872 26.4053 608.555 25.2747 609.152 24.208C609.792 23.1413 610.304 22.2667 610.688 21.584C610.987 20.9867 611.413 20.624 611.968 20.496C612.523 20.368 613.056 20.432 613.568 20.688C614.037 20.9013 614.379 21.2853 614.592 21.84C614.805 22.352 614.741 22.864 614.4 23.376C613.547 24.8267 612.501 26.5333 611.264 28.496C610.027 30.416 608.875 32.1227 607.808 33.616H612.352C615.893 33.616 618.389 34.2347 619.84 35.472C621.291 36.7093 622.016 38.736 622.016 41.552V45.52C622.016 46.1173 621.824 46.608 621.44 46.992C621.056 47.3333 620.565 47.504 619.968 47.504C619.413 47.504 618.944 47.3333 618.56 46.992C618.176 46.6507 617.984 46.1813 617.984 45.584V41.616C617.984 39.9947 617.579 38.864 616.768 38.224C615.957 37.584 614.464 37.264 612.288 37.264H578.112C575.936 37.264 574.443 37.584 573.632 38.224C572.821 38.864 572.416 39.9947 572.416 41.616V45.584C572.416 46.1813 572.224 46.6507 571.84 46.992C571.456 47.3333 570.987 47.504 570.432 47.504ZM596.352 32.656C595.797 32.912 595.243 32.9333 594.688 32.72C594.176 32.5067 593.813 32.144 593.6 31.632C593.344 30.9067 592.96 30.0107 592.448 28.944C591.936 27.8773 591.424 26.832 590.912 25.808C590.4 24.7413 589.952 23.9093 589.568 23.312C589.312 22.8853 589.248 22.4373 589.376 21.968C589.547 21.456 589.845 21.0933 590.272 20.88C590.784 20.624 591.275 20.56 591.744 20.688C592.256 20.816 592.661 21.1147 592.96 21.584C593.429 22.3093 593.92 23.184 594.432 24.208C594.987 25.232 595.52 26.2773 596.032 27.344C596.544 28.368 596.971 29.264 597.312 30.032C597.525 30.544 597.547 31.056 597.376 31.568C597.248 32.0373 596.907 32.4 596.352 32.656ZM582.208 32.912C581.653 33.2107 581.099 33.2747 580.544 33.104C580.032 32.8907 579.669 32.528 579.456 32.016C579.157 31.376 578.709 30.5653 578.112 29.584C577.557 28.56 576.981 27.5573 576.384 26.576C575.787 25.5947 575.275 24.8053 574.848 24.208C574.549 23.7813 574.464 23.3333 574.592 22.864C574.72 22.352 574.997 21.968 575.424 21.712C575.893 21.3707 576.384 21.264 576.896 21.392C577.408 21.4773 577.813 21.7547 578.112 22.224C578.624 22.9067 579.179 23.7387 579.776 24.72C580.416 25.7013 581.035 26.6827 581.632 27.664C582.229 28.6453 582.699 29.4987 583.04 30.224C583.296 30.736 583.36 31.248 583.232 31.76C583.104 32.2293 582.763 32.6133 582.208 32.912ZM649.216 79.568C648.661 79.568 648.192 79.376 647.808 78.992C647.467 78.6507 647.296 78.2027 647.296 77.648V47.12C646.101 49.5947 644.779 52.048 643.328 54.48C641.877 56.912 640.469 59.088 639.104 61.008C638.805 61.4773 638.379 61.776 637.824 61.904C637.312 61.9893 636.821 61.8827 636.352 61.584C635.925 61.2853 635.648 60.88 635.52 60.368C635.435 59.856 635.563 59.3867 635.904 58.96C636.928 57.6373 637.995 56.1227 639.104 54.416C640.213 52.6667 641.28 50.8747 642.304 49.04C643.371 47.1627 644.331 45.3493 645.184 43.6C646.08 41.8507 646.784 40.272 647.296 38.864V37.712H637.952C637.397 37.712 636.949 37.5413 636.608 37.2C636.267 36.8587 636.096 36.432 636.096 35.92C636.096 35.408 636.267 34.9813 636.608 34.64C636.949 34.2987 637.397 34.128 637.952 34.128H647.296V22.416C647.296 21.8187 647.467 21.3493 647.808 21.008C648.192 20.6667 648.661 20.496 649.216 20.496C649.771 20.496 650.219 20.6667 650.56 21.008C650.944 21.3493 651.136 21.8187 651.136 22.416V34.128H657.6C658.155 34.128 658.581 34.2987 658.88 34.64C659.221 34.9813 659.392 35.408 659.392 35.92C659.392 36.432 659.221 36.8587 658.88 37.2C658.581 37.5413 658.155 37.712 657.6 37.712H651.136V42.704C651.819 43.6427 652.672 44.7733 653.696 46.096C654.763 47.4187 655.829 48.72 656.896 50C657.963 51.2373 658.859 52.24 659.584 53.008C659.968 53.392 660.139 53.8613 660.096 54.416C660.096 54.928 659.904 55.3547 659.52 55.696C659.136 56.0373 658.667 56.208 658.112 56.208C657.6 56.1653 657.173 55.9307 656.832 55.504C656.064 54.6507 655.147 53.5413 654.08 52.176C653.056 50.8107 652.075 49.4453 651.136 48.08V77.648C651.136 78.2027 650.944 78.6507 650.56 78.992C650.219 79.376 649.771 79.568 649.216 79.568ZM660.224 78.544C659.669 78.8 659.072 78.8427 658.432 78.672C657.835 78.544 657.387 78.1813 657.088 77.584C656.832 76.9867 656.811 76.432 657.024 75.92C657.28 75.408 657.707 75.024 658.304 74.768C664.747 72.2507 670.037 68.56 674.176 63.696C672.853 61.8613 671.637 59.8987 670.528 57.808C669.419 55.7173 668.437 53.456 667.584 51.024C667.413 50.4693 667.435 49.9787 667.648 49.552C667.904 49.0827 668.267 48.7627 668.736 48.592C669.248 48.4213 669.739 48.4213 670.208 48.592C670.72 48.7627 671.061 49.1467 671.232 49.744C671.915 51.792 672.704 53.712 673.6 55.504C674.539 57.296 675.541 58.96 676.608 60.496C678.869 57.2107 680.576 53.4773 681.728 49.296C681.899 48.6987 682.219 48.2933 682.688 48.08C683.157 47.8667 683.669 47.8667 684.224 48.08C684.693 48.2507 685.056 48.5493 685.312 48.976C685.611 49.4027 685.675 49.9147 685.504 50.512C683.925 55.5893 681.792 59.984 679.104 63.696C681.237 66.128 683.605 68.2613 686.208 70.096C688.811 71.888 691.541 73.4667 694.4 74.832C694.955 75.1307 695.317 75.536 695.488 76.048C695.701 76.6027 695.659 77.1573 695.36 77.712C695.061 78.2667 694.613 78.608 694.016 78.736C693.419 78.9067 692.843 78.8427 692.288 78.544C689.301 76.9653 686.485 75.216 683.84 73.296C681.237 71.376 678.869 69.2 676.736 66.768C674.517 69.328 672.021 71.568 669.248 73.488C666.475 75.408 663.467 77.0933 660.224 78.544ZM661.632 35.536C661.077 35.536 660.608 35.3653 660.224 35.024C659.883 34.64 659.712 34.192 659.712 33.68C659.712 33.168 659.883 32.7413 660.224 32.4C660.608 32.016 661.077 31.824 661.632 31.824H674.624V22.672C674.624 22.0747 674.816 21.6053 675.2 21.264C675.627 20.88 676.117 20.688 676.672 20.688C677.227 20.688 677.696 20.88 678.08 21.264C678.464 21.6053 678.656 22.0747 678.656 22.672V31.824H691.712C692.267 31.824 692.715 32.016 693.056 32.4C693.397 32.7413 693.568 33.168 693.568 33.68C693.568 34.192 693.397 34.64 693.056 35.024C692.715 35.3653 692.267 35.536 691.712 35.536H661.632ZM662.784 50.448C662.357 50.7467 661.845 50.8747 661.248 50.832C660.693 50.7893 660.245 50.5547 659.904 50.128C659.563 49.6587 659.413 49.1893 659.456 48.72C659.499 48.208 659.733 47.8027 660.16 47.504C661.141 46.7787 662.208 45.8613 663.36 44.752C664.555 43.6427 665.728 42.4693 666.88 41.232C668.032 39.9947 668.992 38.864 669.76 37.84C670.101 37.4133 670.528 37.1787 671.04 37.136C671.552 37.0507 672.021 37.1787 672.448 37.52C672.917 37.8613 673.173 38.288 673.216 38.8C673.259 39.312 673.109 39.7813 672.768 40.208C671.445 41.9573 669.867 43.7707 668.032 45.648C666.197 47.5253 664.448 49.1253 662.784 50.448ZM690.944 50.064C689.237 48.8267 687.424 47.312 685.504 45.52C683.584 43.6853 681.92 41.9147 680.512 40.208C680.171 39.824 680.021 39.376 680.064 38.864C680.107 38.3093 680.341 37.8613 680.768 37.52C681.152 37.1787 681.6 37.0293 682.112 37.072C682.667 37.1147 683.093 37.3493 683.392 37.776C684.203 38.7147 685.184 39.7813 686.336 40.976C687.531 42.128 688.747 43.2587 689.984 44.368C691.264 45.4347 692.395 46.3307 693.376 47.056C693.803 47.3547 694.059 47.76 694.144 48.272C694.229 48.784 694.101 49.2533 693.76 49.68C693.419 50.1067 692.971 50.3627 692.416 50.448C691.904 50.5333 691.413 50.4053 690.944 50.064ZM709.312 75.536C708.757 75.536 708.288 75.344 707.904 74.96C707.52 74.6187 707.328 74.1707 707.328 73.616C707.328 73.0613 707.52 72.592 707.904 72.208C708.288 71.824 708.757 71.632 709.312 71.632H734.912V56.656H718.144C717.589 56.656 717.12 56.464 716.736 56.08C716.395 55.696 716.224 55.248 716.224 54.736C716.224 54.1813 716.395 53.712 716.736 53.328C717.12 52.944 717.589 52.752 718.144 52.752H734.912V39.312H718.912C716.864 42.8533 714.624 46.096 712.192 49.04C711.765 49.5093 711.232 49.8293 710.592 50C709.995 50.128 709.44 49.9787 708.928 49.552C708.459 49.2107 708.181 48.7413 708.096 48.144C708.053 47.5467 708.224 47.0347 708.608 46.608C710.272 44.7307 711.915 42.5547 713.536 40.08C715.157 37.5627 716.629 34.9387 717.952 32.208C719.317 29.4773 720.405 26.8747 721.216 24.4C721.429 23.8027 721.792 23.376 722.304 23.12C722.816 22.864 723.349 22.8427 723.904 23.056C724.501 23.2267 724.907 23.568 725.12 24.08C725.376 24.5493 725.397 25.0827 725.184 25.68C724.629 27.3867 723.989 29.0507 723.264 30.672C722.581 32.2933 721.835 33.8933 721.024 35.472H734.912V22.864C734.912 22.224 735.104 21.712 735.488 21.328C735.915 20.944 736.427 20.752 737.024 20.752C737.621 20.752 738.112 20.944 738.496 21.328C738.923 21.712 739.136 22.224 739.136 22.864V35.472H759.808C760.363 35.472 760.811 35.664 761.152 36.048C761.536 36.432 761.728 36.88 761.728 37.392C761.728 37.9467 761.536 38.416 761.152 38.8C760.811 39.1413 760.363 39.312 759.808 39.312H739.136V52.752H755.648C756.203 52.752 756.672 52.944 757.056 53.328C757.44 53.712 757.632 54.1813 757.632 54.736C757.632 55.248 757.44 55.696 757.056 56.08C756.672 56.464 756.203 56.656 755.648 56.656H739.136V71.632H762.688C763.2 71.632 763.648 71.824 764.032 72.208C764.416 72.592 764.608 73.0613 764.608 73.616C764.608 74.1707 764.416 74.6187 764.032 74.96C763.648 75.344 763.2 75.536 762.688 75.536H709.312ZM793.664 77.84C793.237 77.5413 792.981 77.136 792.896 76.624C792.811 76.1547 792.917 75.7067 793.216 75.28C795.477 72.208 797.397 68.7733 798.976 64.976C800.555 61.136 801.621 56.976 802.176 52.496C802.261 51.8987 802.517 51.472 802.944 51.216C803.371 50.9173 803.84 50.8107 804.352 50.896C804.907 50.9387 805.333 51.1733 805.632 51.6C805.973 51.984 806.101 52.4747 806.016 53.072C805.888 54.1387 805.717 55.2267 805.504 56.336C805.291 57.4027 805.035 58.4907 804.736 59.6C805.845 62.0747 807.104 64.1653 808.512 65.872C809.92 67.5787 811.541 68.9653 813.376 70.032V46.992H797.504C796.992 46.992 796.544 46.8213 796.16 46.48C795.819 46.096 795.648 45.648 795.648 45.136C795.648 44.624 795.819 44.1973 796.16 43.856C796.544 43.472 796.992 43.28 797.504 43.28H813.376V33.68H800.32C799.808 33.68 799.36 33.5093 798.976 33.168C798.635 32.784 798.464 32.336 798.464 31.824C798.464 31.312 798.635 30.8853 798.976 30.544C799.36 30.16 799.808 29.968 800.32 29.968H813.376V22.352C813.376 21.7547 813.568 21.2853 813.952 20.944C814.379 20.56 814.869 20.368 815.424 20.368C815.979 20.368 816.448 20.56 816.832 20.944C817.216 21.2853 817.408 21.7547 817.408 22.352V29.968H830.4C830.912 29.968 831.339 30.16 831.68 30.544C832.064 30.8853 832.256 31.312 832.256 31.824C832.256 32.336 832.064 32.784 831.68 33.168C831.339 33.5093 830.912 33.68 830.4 33.68H817.408V43.28H833.152C833.664 43.28 834.091 43.472 834.432 43.856C834.816 44.1973 835.008 44.624 835.008 45.136C835.008 45.648 834.816 46.096 834.432 46.48C834.091 46.8213 833.664 46.992 833.152 46.992H817.408V55.824H829.824C830.336 55.824 830.784 56.016 831.168 56.4C831.552 56.7413 831.744 57.168 831.744 57.68C831.744 58.2347 831.552 58.704 831.168 59.088C830.784 59.4293 830.336 59.6 829.824 59.6H817.408V71.696C818.859 72.1227 820.437 72.4427 822.144 72.656C823.893 72.8693 825.792 72.976 827.84 72.976C828.821 72.976 829.803 72.976 830.784 72.976C831.765 72.976 832.747 72.9547 833.728 72.912C834.368 72.912 834.88 73.104 835.264 73.488C835.691 73.8293 835.883 74.2987 835.84 74.896C835.84 76.2187 835.072 76.88 833.536 76.88H827.84C823.36 76.88 819.563 76.4107 816.448 75.472C813.333 74.576 810.731 73.1893 808.64 71.312C806.549 69.4347 804.8 67.0667 803.392 64.208C802.539 66.64 801.536 68.9867 800.384 71.248C799.232 73.4667 797.931 75.5147 796.48 77.392C796.181 77.8187 795.755 78.0747 795.2 78.16C794.645 78.2453 794.133 78.1387 793.664 77.84ZM788.736 78.8C788.181 78.8 787.712 78.608 787.328 78.224C786.944 77.84 786.752 77.3707 786.752 76.816V50C785.643 51.1947 784.491 52.3467 783.296 53.456C782.144 54.5653 780.971 55.5893 779.776 56.528C779.349 56.912 778.837 57.1253 778.24 57.168C777.643 57.168 777.131 56.9333 776.704 56.464C776.363 56.0373 776.192 55.568 776.192 55.056C776.235 54.5013 776.469 54.0747 776.896 53.776C778.219 52.6667 779.627 51.3867 781.12 49.936C782.656 48.4427 784.149 46.8853 785.6 45.264C787.051 43.6 788.395 41.9573 789.632 40.336C790.912 38.672 791.957 37.1147 792.768 35.664C793.067 35.1947 793.493 34.896 794.048 34.768C794.603 34.64 795.115 34.7253 795.584 35.024C796.053 35.3227 796.352 35.7493 796.48 36.304C796.608 36.816 796.523 37.3067 796.224 37.776C795.456 39.0133 794.603 40.2933 793.664 41.616C792.725 42.896 791.723 44.1973 790.656 45.52V76.816C790.656 77.3707 790.464 77.84 790.08 78.224C789.739 78.608 789.291 78.8 788.736 78.8ZM781.184 38.032C780.672 38.3733 780.117 38.544 779.52 38.544C778.923 38.544 778.432 38.3093 778.048 37.84C777.707 37.3707 777.579 36.8587 777.664 36.304C777.792 35.7493 778.069 35.3227 778.496 35.024C780.075 34 781.696 32.8053 783.36 31.44C785.024 30.0747 786.581 28.6453 788.032 27.152C789.525 25.616 790.741 24.1867 791.68 22.864C792.021 22.3947 792.469 22.1387 793.024 22.096C793.621 22.0107 794.133 22.1387 794.56 22.48C795.029 22.864 795.285 23.3333 795.328 23.888C795.371 24.4 795.221 24.8907 794.88 25.36C793.728 26.768 792.384 28.24 790.848 29.776C789.355 31.2693 787.776 32.7413 786.112 34.192C784.448 35.6 782.805 36.88 781.184 38.032ZM899.072 77.52C898.603 77.904 898.069 78.032 897.472 77.904C896.917 77.776 896.469 77.4987 896.128 77.072C895.488 76.2187 894.784 75.3013 894.016 74.32C893.291 73.3387 892.523 72.336 891.712 71.312C889.536 71.696 886.955 72.1227 883.968 72.592C881.024 73.0613 877.931 73.5307 874.688 74C871.445 74.4693 868.288 74.896 865.216 75.28C862.187 75.664 859.477 75.9627 857.088 76.176C855.765 76.304 854.997 75.7493 854.784 74.512C854.699 73.9147 854.848 73.424 855.232 73.04C855.659 72.656 856.192 72.4427 856.832 72.4C857.643 72.3147 858.496 72.2293 859.392 72.144C860.331 72.0587 861.312 71.9733 862.336 71.888C863.019 70.6933 863.829 69.2213 864.768 67.472C865.749 65.68 866.731 63.8453 867.712 61.968C868.693 60.0907 869.504 58.448 870.144 57.04H852.928C852.416 57.04 851.989 56.8693 851.648 56.528C851.307 56.144 851.136 55.696 851.136 55.184C851.136 54.7147 851.307 54.288 851.648 53.904C851.989 53.52 852.416 53.328 852.928 53.328H900.736C901.205 53.328 901.611 53.52 901.952 53.904C902.336 54.288 902.528 54.7147 902.528 55.184C902.528 55.696 902.336 56.144 901.952 56.528C901.611 56.8693 901.205 57.04 900.736 57.04H874.56C873.92 58.4053 873.152 59.9413 872.256 61.648C871.36 63.3547 870.443 65.0613 869.504 66.768C868.608 68.4747 867.755 70.0107 866.944 71.376C869.589 71.0347 872.256 70.6933 874.944 70.352C877.675 70.0107 880.256 69.6693 882.688 69.328C885.163 68.944 887.317 68.6027 889.152 68.304C888.384 67.4507 887.637 66.6187 886.912 65.808C886.187 64.9973 885.461 64.2507 884.736 63.568C884.437 63.2267 884.267 62.8 884.224 62.288C884.224 61.776 884.416 61.3493 884.8 61.008C885.227 60.624 885.717 60.4533 886.272 60.496C886.827 60.5387 887.296 60.752 887.68 61.136C888.917 62.288 890.24 63.6747 891.648 65.296C893.099 66.9173 894.507 68.56 895.872 70.224C897.237 71.8453 898.411 73.3387 899.392 74.704C899.733 75.1307 899.883 75.6213 899.84 76.176C899.797 76.7307 899.541 77.1787 899.072 77.52ZM849.984 45.904C849.344 46.2453 848.725 46.3947 848.128 46.352C847.573 46.2667 847.125 45.9467 846.784 45.392C846.485 44.88 846.421 44.368 846.592 43.856C846.805 43.3013 847.211 42.8747 847.808 42.576C850.581 41.0827 853.419 39.3547 856.32 37.392C859.264 35.4293 862.101 33.3387 864.832 31.12C867.605 28.8587 870.08 26.6187 872.256 24.4C873.877 22.7787 875.349 21.9467 876.672 21.904C878.037 21.8613 879.509 22.608 881.088 24.144C883.221 26.1067 885.632 28.1547 888.32 30.288C891.008 32.4213 893.845 34.4693 896.832 36.432C899.861 38.3947 902.891 40.1867 905.92 41.808C906.603 42.192 907.008 42.6827 907.136 43.28C907.307 43.8347 907.221 44.3893 906.88 44.944C906.581 45.456 906.112 45.776 905.472 45.904C904.832 46.032 904.149 45.8827 903.424 45.456C900.523 43.7493 897.557 41.872 894.528 39.824C891.541 37.7333 888.683 35.5787 885.952 33.36C883.221 31.1413 880.768 28.9653 878.592 26.832C877.909 26.1493 877.312 25.808 876.8 25.808C876.288 25.808 875.669 26.1707 874.944 26.896C872.683 29.2 870.165 31.5253 867.392 33.872C864.619 36.176 861.739 38.3733 858.752 40.464C855.765 42.512 852.843 44.3253 849.984 45.904ZM864.128 45.52C863.659 45.52 863.232 45.328 862.848 44.944C862.507 44.56 862.336 44.1333 862.336 43.664C862.336 43.152 862.507 42.7253 862.848 42.384C863.232 42 863.659 41.808 864.128 41.808H889.728C890.24 41.808 890.667 42 891.008 42.384C891.349 42.7253 891.52 43.152 891.52 43.664C891.52 44.1333 891.349 44.56 891.008 44.944C890.667 45.328 890.24 45.52 889.728 45.52H864.128Z" fill="black"/>
<path d="M103.702 152.432C101.998 152.432 100.414 152.168 98.9496 151.64C97.5096 151.112 96.2496 150.272 95.1696 149.12C94.6416 148.52 94.7016 148.004 95.3496 147.572C95.8776 147.164 96.4056 147.248 96.9336 147.824C98.6616 149.48 100.93 150.308 103.738 150.308C104.866 150.308 105.898 150.14 106.834 149.804C107.794 149.468 108.562 148.952 109.138 148.256C109.714 147.56 110.002 146.696 110.002 145.664C110.002 144.752 109.81 143.96 109.426 143.288C109.066 142.616 108.346 142.028 107.266 141.524C106.186 141.02 104.578 140.576 102.442 140.192C97.7376 139.304 95.3856 136.976 95.3856 133.208C95.3856 131.84 95.7216 130.64 96.3936 129.608C97.0656 128.552 98.0016 127.736 99.2016 127.16C100.402 126.56 101.794 126.26 103.378 126.26C104.818 126.26 106.138 126.5 107.338 126.98C108.562 127.436 109.702 128.084 110.758 128.924C111.358 129.476 111.37 130.004 110.794 130.508C110.314 130.988 109.774 130.976 109.174 130.472C108.286 129.8 107.374 129.296 106.438 128.96C105.502 128.624 104.47 128.456 103.342 128.456C101.71 128.456 100.354 128.864 99.2736 129.68C98.2176 130.472 97.6896 131.624 97.6896 133.136C97.6896 134.456 98.1096 135.524 98.9496 136.34C99.8136 137.156 101.362 137.768 103.594 138.176C106.69 138.728 108.91 139.592 110.254 140.768C111.598 141.944 112.27 143.564 112.27 145.628C112.27 147.044 111.886 148.268 111.118 149.3C110.374 150.308 109.354 151.088 108.058 151.64C106.762 152.168 105.31 152.432 103.702 152.432ZM127.332 152.396C125.796 152.396 124.644 152.072 123.876 151.424C123.108 150.776 122.724 149.612 122.724 147.932V136.772H120.168C119.376 136.772 118.98 136.424 118.98 135.728C118.98 135.08 119.376 134.756 120.168 134.756H122.724V129.608C122.724 128.816 123.084 128.42 123.804 128.42C124.524 128.42 124.884 128.816 124.884 129.608V134.756H128.952C129.744 134.756 130.14 135.08 130.14 135.728C130.14 136.424 129.744 136.772 128.952 136.772H124.884V147.572C124.884 148.652 125.112 149.396 125.568 149.804C126.024 150.188 126.732 150.38 127.692 150.38C127.812 150.38 127.932 150.38 128.052 150.38C128.196 150.356 128.328 150.344 128.448 150.344C128.928 150.32 129.324 150.344 129.636 150.416C129.972 150.464 130.14 150.716 130.14 151.172C130.14 151.7 129.852 152.036 129.276 152.18C128.7 152.324 128.052 152.396 127.332 152.396ZM143.602 152.396C141.778 152.396 140.302 151.808 139.174 150.632C138.046 149.456 137.482 147.776 137.482 145.592V135.944C137.482 135.152 137.842 134.756 138.562 134.756C139.282 134.756 139.642 135.152 139.642 135.944V145.304C139.642 146.984 140.038 148.244 140.83 149.084C141.646 149.924 142.69 150.344 143.962 150.344C145.426 150.344 146.614 149.888 147.526 148.976C148.438 148.064 148.894 146.948 148.894 145.628V135.944C148.894 135.152 149.266 134.756 150.01 134.756C150.73 134.756 151.09 135.152 151.09 135.944V150.776C151.09 151.568 150.754 151.964 150.082 151.964C149.386 151.964 149.038 151.7 149.038 151.172L148.966 149.552C148.462 150.344 147.742 151.016 146.806 151.568C145.87 152.12 144.802 152.396 143.602 152.396ZM167.058 152.396C165.522 152.396 164.154 152.024 162.954 151.28C161.754 150.512 160.806 149.456 160.11 148.112C159.414 146.744 159.066 145.16 159.066 143.36C159.066 141.56 159.414 139.988 160.11 138.644C160.806 137.3 161.754 136.256 162.954 135.512C164.154 134.744 165.522 134.36 167.058 134.36C168.354 134.36 169.506 134.672 170.514 135.296C171.522 135.896 172.326 136.724 172.926 137.78V127.196C172.926 126.404 173.286 126.008 174.006 126.008C174.75 126.008 175.122 126.404 175.122 127.196V150.812C175.122 151.604 174.786 152 174.114 152C173.442 152 173.106 151.748 173.106 151.244L173.07 148.832C172.446 149.936 171.618 150.812 170.586 151.46C169.554 152.084 168.378 152.396 167.058 152.396ZM167.13 150.344C168.258 150.344 169.254 150.056 170.118 149.48C171.006 148.904 171.702 148.1 172.206 147.068C172.71 146.012 172.962 144.776 172.962 143.36C172.962 141.944 172.71 140.72 172.206 139.688C171.702 138.656 171.006 137.852 170.118 137.276C169.254 136.7 168.258 136.412 167.13 136.412C166.002 136.412 164.994 136.7 164.106 137.276C163.218 137.852 162.522 138.656 162.018 139.688C161.514 140.72 161.262 141.944 161.262 143.36C161.262 144.776 161.514 146.012 162.018 147.068C162.522 148.1 163.218 148.904 164.106 149.48C164.994 150.056 166.002 150.344 167.13 150.344ZM191.155 152.396C189.595 152.396 188.203 152.036 186.979 151.316C185.779 150.572 184.831 149.528 184.135 148.184C183.463 146.816 183.127 145.208 183.127 143.36C183.127 141.56 183.463 139.988 184.135 138.644C184.831 137.3 185.779 136.256 186.979 135.512C188.179 134.744 189.547 134.36 191.083 134.36C192.643 134.36 193.963 134.744 195.043 135.512C196.147 136.28 196.987 137.252 197.563 138.428C198.139 139.604 198.427 140.804 198.427 142.028C198.427 142.46 198.319 142.76 198.103 142.928C197.911 143.096 197.623 143.18 197.239 143.18H185.323C185.275 145.34 185.779 147.092 186.835 148.436C187.915 149.756 189.367 150.416 191.191 150.416C193.447 150.416 195.127 149.396 196.231 147.356C196.711 146.732 197.203 146.564 197.707 146.852C198.331 147.26 198.415 147.8 197.959 148.472C196.447 151.088 194.179 152.396 191.155 152.396ZM185.467 141.308H196.267C196.147 140.372 195.847 139.52 195.367 138.752C194.911 137.984 194.311 137.372 193.567 136.916C192.847 136.46 192.019 136.232 191.083 136.232C189.619 136.232 188.383 136.688 187.375 137.6C186.391 138.488 185.755 139.724 185.467 141.308ZM207.694 152C206.95 152 206.578 151.604 206.578 150.812V135.944C206.578 135.152 206.926 134.756 207.622 134.756C208.318 134.756 208.666 135.02 208.666 135.548L208.702 137.204C209.254 136.388 209.986 135.704 210.898 135.152C211.834 134.6 212.89 134.324 214.066 134.324C215.914 134.324 217.402 134.912 218.53 136.088C219.658 137.264 220.222 138.944 220.222 141.128V150.812C220.222 151.604 219.862 152 219.142 152C218.422 152 218.062 151.604 218.062 150.812V141.452C218.062 139.772 217.654 138.512 216.838 137.672C216.046 136.832 215.014 136.412 213.742 136.412C212.782 136.412 211.918 136.628 211.15 137.06C210.406 137.468 209.818 138.032 209.386 138.752C208.978 139.448 208.774 140.228 208.774 141.092V150.812C208.774 151.604 208.414 152 207.694 152ZM235.226 152.396C233.69 152.396 232.538 152.072 231.77 151.424C231.002 150.776 230.618 149.612 230.618 147.932V136.772H228.062C227.27 136.772 226.874 136.424 226.874 135.728C226.874 135.08 227.27 134.756 228.062 134.756H230.618V129.608C230.618 128.816 230.978 128.42 231.698 128.42C232.418 128.42 232.778 128.816 232.778 129.608V134.756H236.846C237.638 134.756 238.034 135.08 238.034 135.728C238.034 136.424 237.638 136.772 236.846 136.772H232.778V147.572C232.778 148.652 233.006 149.396 233.462 149.804C233.918 150.188 234.626 150.38 235.586 150.38C235.706 150.38 235.826 150.38 235.946 150.38C236.09 150.356 236.222 150.344 236.342 150.344C236.822 150.32 237.218 150.344 237.53 150.416C237.866 150.464 238.034 150.716 238.034 151.172C238.034 151.7 237.746 152.036 237.17 152.18C236.594 152.324 235.946 152.396 235.226 152.396ZM269.903 152.468C267.623 152.468 265.619 151.928 263.891 150.848C262.163 149.768 260.807 148.244 259.823 146.276C258.863 144.308 258.383 142.004 258.383 139.364C258.383 136.724 258.863 134.432 259.823 132.488C260.807 130.52 262.163 128.996 263.891 127.916C265.619 126.812 267.623 126.26 269.903 126.26C271.679 126.26 273.287 126.608 274.727 127.304C276.191 128 277.439 128.984 278.471 130.256C278.711 130.52 278.783 130.784 278.687 131.048C278.615 131.312 278.447 131.54 278.183 131.732L278.075 131.768C277.883 131.888 277.643 131.936 277.355 131.912C277.091 131.888 276.839 131.756 276.599 131.516C274.895 129.476 272.663 128.456 269.903 128.456C268.103 128.456 266.507 128.9 265.115 129.788C263.723 130.652 262.631 131.9 261.839 133.532C261.047 135.164 260.651 137.108 260.651 139.364C260.651 141.62 261.047 143.576 261.839 145.232C262.631 146.864 263.723 148.124 265.115 149.012C266.507 149.876 268.103 150.308 269.903 150.308C271.247 150.308 272.495 150.044 273.647 149.516C274.799 148.964 275.783 148.208 276.599 147.248C277.103 146.744 277.595 146.648 278.075 146.96L278.183 147.032C278.447 147.2 278.615 147.428 278.687 147.716C278.783 147.98 278.723 148.244 278.507 148.508C277.475 149.756 276.227 150.728 274.763 151.424C273.299 152.12 271.679 152.468 269.903 152.468ZM294.127 152.396C292.591 152.396 291.223 152.012 290.023 151.244C288.823 150.476 287.875 149.42 287.179 148.076C286.483 146.708 286.135 145.136 286.135 143.36C286.135 141.584 286.483 140.024 287.179 138.68C287.875 137.312 288.823 136.244 290.023 135.476C291.223 134.708 292.591 134.324 294.127 134.324C295.687 134.324 297.067 134.708 298.267 135.476C299.467 136.244 300.415 137.312 301.111 138.68C301.807 140.024 302.155 141.584 302.155 143.36C302.155 145.136 301.807 146.708 301.111 148.076C300.415 149.42 299.467 150.476 298.267 151.244C297.067 152.012 295.687 152.396 294.127 152.396ZM294.127 150.344C295.255 150.344 296.251 150.056 297.115 149.48C298.003 148.904 298.699 148.1 299.203 147.068C299.707 146.012 299.959 144.776 299.959 143.36C299.959 141.944 299.707 140.72 299.203 139.688C298.699 138.632 298.003 137.816 297.115 137.24C296.251 136.664 295.255 136.376 294.127 136.376C292.447 136.376 291.055 137.012 289.951 138.284C288.871 139.532 288.331 141.224 288.331 143.36C288.331 145.472 288.871 147.164 289.951 148.436C291.055 149.708 292.447 150.344 294.127 150.344ZM315.945 152.396C314.121 152.396 312.645 151.808 311.517 150.632C310.389 149.456 309.825 147.776 309.825 145.592V135.944C309.825 135.152 310.185 134.756 310.905 134.756C311.625 134.756 311.985 135.152 311.985 135.944V145.304C311.985 146.984 312.381 148.244 313.173 149.084C313.989 149.924 315.033 150.344 316.305 150.344C317.769 150.344 318.957 149.888 319.869 148.976C320.781 148.064 321.237 146.948 321.237 145.628V135.944C321.237 135.152 321.609 134.756 322.353 134.756C323.073 134.756 323.433 135.152 323.433 135.944V150.776C323.433 151.568 323.097 151.964 322.425 151.964C321.729 151.964 321.381 151.7 321.381 151.172L321.309 149.552C320.805 150.344 320.085 151.016 319.149 151.568C318.213 152.12 317.145 152.396 315.945 152.396ZM333.497 152C332.753 152 332.381 151.604 332.381 150.812V135.944C332.381 135.152 332.729 134.756 333.425 134.756C334.121 134.756 334.469 135.02 334.469 135.548L334.505 137.204C335.057 136.388 335.789 135.704 336.701 135.152C337.637 134.6 338.693 134.324 339.869 134.324C341.717 134.324 343.205 134.912 344.333 136.088C345.461 137.264 346.025 138.944 346.025 141.128V150.812C346.025 151.604 345.665 152 344.945 152C344.225 152 343.865 151.604 343.865 150.812V141.452C343.865 139.772 343.457 138.512 342.641 137.672C341.849 136.832 340.817 136.412 339.545 136.412C338.585 136.412 337.721 136.628 336.953 137.06C336.209 137.468 335.621 138.032 335.189 138.752C334.781 139.448 334.577 140.228 334.577 141.092V150.812C334.577 151.604 334.217 152 333.497 152ZM362.021 152.396C360.485 152.396 359.117 152.024 357.917 151.28C356.717 150.512 355.769 149.444 355.073 148.076C354.377 146.708 354.029 145.136 354.029 143.36C354.029 141.584 354.377 140.024 355.073 138.68C355.769 137.312 356.717 136.256 357.917 135.512C359.117 134.744 360.485 134.36 362.021 134.36C364.085 134.36 365.825 135.032 367.241 136.376C367.553 136.616 367.697 136.88 367.673 137.168C367.649 137.456 367.505 137.708 367.241 137.924C366.953 138.116 366.689 138.2 366.449 138.176C366.233 138.152 365.969 138.02 365.657 137.78C364.625 136.868 363.413 136.412 362.021 136.412C360.341 136.412 358.949 137.048 357.845 138.32C356.765 139.568 356.225 141.248 356.225 143.36C356.225 145.472 356.765 147.164 357.845 148.436C358.949 149.708 360.341 150.344 362.021 150.344C363.437 150.344 364.637 149.888 365.621 148.976C365.909 148.736 366.173 148.604 366.413 148.58C366.677 148.532 366.953 148.604 367.241 148.796C367.505 149.012 367.649 149.264 367.673 149.552C367.697 149.816 367.565 150.08 367.277 150.344C365.837 151.712 364.085 152.396 362.021 152.396ZM377.765 152C377.045 152 376.685 151.604 376.685 150.812V135.944C376.685 135.152 377.045 134.756 377.765 134.756C378.485 134.756 378.845 135.152 378.845 135.944V150.812C378.845 151.604 378.485 152 377.765 152ZM377.765 131.012C377.309 131.012 376.913 130.856 376.577 130.544C376.241 130.208 376.073 129.812 376.073 129.356C376.073 128.876 376.241 128.48 376.577 128.168C376.913 127.856 377.309 127.7 377.765 127.7C378.221 127.7 378.605 127.856 378.917 128.168C379.229 128.48 379.385 128.876 379.385 129.356C379.385 129.812 379.229 130.208 378.917 130.544C378.605 130.856 378.221 131.012 377.765 131.012ZM389.473 152C388.729 152 388.357 151.604 388.357 150.812V127.196C388.357 126.404 388.729 126.008 389.473 126.008C390.193 126.008 390.553 126.404 390.553 127.196V150.812C390.553 151.604 390.193 152 389.473 152ZM420.225 152.396C418.689 152.396 417.321 152.012 416.121 151.244C414.921 150.476 413.973 149.42 413.277 148.076C412.581 146.708 412.233 145.136 412.233 143.36C412.233 141.584 412.581 140.024 413.277 138.68C413.973 137.312 414.921 136.244 416.121 135.476C417.321 134.708 418.689 134.324 420.225 134.324C421.785 134.324 423.165 134.708 424.365 135.476C425.565 136.244 426.513 137.312 427.209 138.68C427.905 140.024 428.253 141.584 428.253 143.36C428.253 145.136 427.905 146.708 427.209 148.076C426.513 149.42 425.565 150.476 424.365 151.244C423.165 152.012 421.785 152.396 420.225 152.396ZM420.225 150.344C421.353 150.344 422.349 150.056 423.213 149.48C424.101 148.904 424.797 148.1 425.301 147.068C425.805 146.012 426.057 144.776 426.057 143.36C426.057 141.944 425.805 140.72 425.301 139.688C424.797 138.632 424.101 137.816 423.213 137.24C422.349 136.664 421.353 136.376 420.225 136.376C418.545 136.376 417.153 137.012 416.049 138.284C414.969 139.532 414.429 141.224 414.429 143.36C414.429 145.472 414.969 147.164 416.049 148.436C417.153 149.708 418.545 150.344 420.225 150.344ZM439.272 152C438.528 152 438.156 151.604 438.156 150.812V136.772H435.78C434.988 136.772 434.592 136.424 434.592 135.728C434.592 135.08 434.916 134.756 435.564 134.756H438.156V131.336C438.156 129.92 438.396 128.816 438.876 128.024C439.356 127.232 439.992 126.668 440.784 126.332C441.576 125.996 442.428 125.828 443.34 125.828C444.036 125.828 444.624 125.912 445.104 126.08C445.584 126.224 445.812 126.536 445.788 127.016C445.74 127.664 445.32 127.952 444.528 127.88C444.336 127.856 444.156 127.844 443.988 127.844C443.844 127.82 443.676 127.808 443.484 127.808C442.596 127.808 441.84 128.108 441.216 128.708C440.616 129.284 440.316 130.208 440.316 131.48V134.756H444.6C445.392 134.756 445.788 135.08 445.788 135.728C445.788 136.424 445.392 136.772 444.6 136.772H440.316V150.812C440.316 151.604 439.968 152 439.272 152ZM467.95 152C467.206 152 466.834 151.604 466.834 150.812V127.988C466.834 127.196 467.266 126.8 468.13 126.8C468.754 126.8 469.222 127.064 469.534 127.592L477.706 139.796L485.806 127.592C485.998 127.28 486.214 127.076 486.454 126.98C486.694 126.86 486.994 126.8 487.354 126.8C488.146 126.8 488.542 127.196 488.542 127.988V150.812C488.542 151.604 488.17 152 487.426 152C486.658 152 486.274 151.604 486.274 150.812V130.652L478.786 141.992C478.474 142.52 478.114 142.784 477.706 142.784C477.274 142.784 476.902 142.52 476.59 141.992L469.066 130.652V150.812C469.066 151.604 468.694 152 467.95 152ZM504.904 152.396C503.344 152.396 501.952 152.036 500.728 151.316C499.528 150.572 498.58 149.528 497.884 148.184C497.212 146.816 496.876 145.208 496.876 143.36C496.876 141.56 497.212 139.988 497.884 138.644C498.58 137.3 499.528 136.256 500.728 135.512C501.928 134.744 503.296 134.36 504.832 134.36C506.392 134.36 507.712 134.744 508.792 135.512C509.896 136.28 510.736 137.252 511.312 138.428C511.888 139.604 512.176 140.804 512.176 142.028C512.176 142.46 512.068 142.76 511.852 142.928C511.66 143.096 511.372 143.18 510.988 143.18H499.072C499.024 145.34 499.528 147.092 500.584 148.436C501.664 149.756 503.116 150.416 504.94 150.416C507.196 150.416 508.876 149.396 509.98 147.356C510.46 146.732 510.952 146.564 511.456 146.852C512.08 147.26 512.164 147.8 511.708 148.472C510.196 151.088 507.928 152.396 504.904 152.396ZM499.216 141.308H510.016C509.896 140.372 509.596 139.52 509.116 138.752C508.66 137.984 508.06 137.372 507.316 136.916C506.596 136.46 505.768 136.232 504.832 136.232C503.368 136.232 502.132 136.688 501.124 137.6C500.14 138.488 499.504 139.724 499.216 141.308ZM522.019 152C521.299 152 520.939 151.604 520.939 150.812V135.944C520.939 135.152 521.299 134.756 522.019 134.756C522.739 134.756 523.099 135.152 523.099 135.944V150.812C523.099 151.604 522.739 152 522.019 152ZM522.019 131.012C521.563 131.012 521.167 130.856 520.831 130.544C520.495 130.208 520.327 129.812 520.327 129.356C520.327 128.876 520.495 128.48 520.831 128.168C521.167 127.856 521.563 127.7 522.019 127.7C522.475 127.7 522.859 127.856 523.171 128.168C523.483 128.48 523.639 128.876 523.639 129.356C523.639 129.812 523.483 130.208 523.171 130.544C522.859 130.856 522.475 131.012 522.019 131.012ZM537.254 152C536.678 152 536.294 151.676 536.102 151.028L531.386 136.088C531.29 135.68 531.302 135.356 531.422 135.116C531.542 134.876 531.758 134.756 532.07 134.756H532.106C532.826 134.756 533.27 135.092 533.438 135.764L537.29 148.472L541.07 135.764C541.238 135.092 541.622 134.756 542.222 134.756C542.822 134.756 543.206 135.092 543.374 135.764L547.19 148.472L551.078 135.764C551.246 135.092 551.678 134.756 552.374 134.756C552.71 134.756 552.938 134.876 553.058 135.116C553.202 135.356 553.214 135.68 553.094 136.088L548.378 151.028C548.162 151.676 547.778 152 547.226 152C546.626 152 546.242 151.664 546.074 150.992L542.258 138.248L538.406 150.992C538.238 151.664 537.854 152 537.254 152ZM565.392 152.324C563.712 152.348 562.344 151.964 561.288 151.172C560.256 150.38 559.74 149.228 559.74 147.716C559.74 146.564 560.124 145.556 560.892 144.692C561.684 143.828 562.68 143.156 563.88 142.676C565.104 142.172 566.364 141.92 567.66 141.92C569.436 141.92 570.84 142.34 571.872 143.18V140.228C571.872 138.62 571.536 137.576 570.864 137.096C570.192 136.592 569.112 136.34 567.624 136.34C566.832 136.34 565.956 136.46 564.996 136.7C564.06 136.94 563.208 137.252 562.44 137.636C561.72 137.924 561.204 137.816 560.892 137.312C560.532 136.688 560.724 136.208 561.468 135.872C562.356 135.416 563.352 135.044 564.456 134.756C565.584 134.468 566.64 134.324 567.624 134.324C569.808 134.324 571.416 134.744 572.448 135.584C573.48 136.424 573.996 137.972 573.996 140.228V149.768C573.996 150.08 574.056 150.272 574.176 150.344C574.296 150.416 574.548 150.452 574.932 150.452C575.244 150.452 575.508 150.512 575.724 150.632C575.94 150.728 576.048 150.896 576.048 151.136C576.048 151.736 575.748 152.084 575.148 152.18C574.956 152.228 574.752 152.264 574.536 152.288C574.32 152.312 574.116 152.324 573.924 152.324C573.108 152.324 572.58 152.156 572.34 151.82C572.1 151.484 571.956 150.848 571.908 149.912C571.164 150.728 570.18 151.328 568.956 151.712C567.732 152.096 566.544 152.3 565.392 152.324ZM565.5 150.344C566.652 150.32 567.72 150.14 568.704 149.804C569.712 149.468 570.504 148.988 571.08 148.364C571.68 147.716 571.956 146.936 571.908 146.024C571.836 145.28 571.428 144.728 570.684 144.368C569.94 143.984 568.98 143.804 567.804 143.828C566.82 143.828 565.872 143.996 564.96 144.332C564.048 144.668 563.304 145.136 562.728 145.736C562.176 146.312 561.9 146.984 561.9 147.752C561.9 148.64 562.236 149.3 562.908 149.732C563.58 150.14 564.444 150.344 565.5 150.344ZM598.744 152C598.048 152 597.7 151.652 597.7 150.956V127.844C597.7 127.148 598.048 126.8 598.744 126.8H598.852C599.548 126.8 599.896 127.148 599.896 127.844V137.78H614.008V127.844C614.008 127.148 614.356 126.8 615.052 126.8H615.196C615.892 126.8 616.24 127.148 616.24 127.844V150.956C616.24 151.652 615.892 152 615.196 152H615.052C614.356 152 614.008 151.652 614.008 150.956V139.868H599.896V150.956C599.896 151.652 599.548 152 598.852 152H598.744ZM627.206 152C626.486 152 626.126 151.604 626.126 150.812V135.944C626.126 135.152 626.486 134.756 627.206 134.756C627.926 134.756 628.286 135.152 628.286 135.944V150.812C628.286 151.604 627.926 152 627.206 152ZM627.206 131.012C626.75 131.012 626.354 130.856 626.018 130.544C625.682 130.208 625.514 129.812 625.514 129.356C625.514 128.876 625.682 128.48 626.018 128.168C626.354 127.856 626.75 127.7 627.206 127.7C627.662 127.7 628.046 127.856 628.358 128.168C628.67 128.48 628.826 128.876 628.826 129.356C628.826 129.812 628.67 130.208 628.358 130.544C628.046 130.856 627.662 131.012 627.206 131.012ZM644.566 159.776C641.878 159.776 639.718 158.852 638.086 157.004C637.558 156.404 637.618 155.888 638.266 155.456C638.77 155.096 639.298 155.192 639.85 155.744C641.002 157.04 642.574 157.688 644.566 157.688C646.342 157.688 647.698 157.1 648.634 155.924C649.57 154.772 650.038 153.032 650.038 150.704V147.608C649.438 148.544 648.658 149.288 647.698 149.84C646.738 150.368 645.646 150.632 644.422 150.632C642.958 150.632 641.65 150.296 640.498 149.624C639.37 148.952 638.47 148.004 637.798 146.78C637.15 145.556 636.826 144.116 636.826 142.46C636.826 140.804 637.15 139.376 637.798 138.176C638.47 136.952 639.37 136.004 640.498 135.332C641.65 134.66 642.958 134.324 644.422 134.324C645.67 134.324 646.798 134.612 647.806 135.188C648.814 135.764 649.618 136.592 650.218 137.672V135.764C650.218 135.092 650.542 134.756 651.19 134.756C651.862 134.756 652.198 135.152 652.198 135.944V150.704C652.198 153.824 651.49 156.116 650.074 157.58C648.682 159.044 646.846 159.776 644.566 159.776ZM644.53 148.616C645.61 148.616 646.57 148.364 647.41 147.86C648.25 147.332 648.91 146.612 649.39 145.7C649.87 144.764 650.11 143.684 650.11 142.46C650.11 141.236 649.87 140.168 649.39 139.256C648.91 138.344 648.25 137.636 647.41 137.132C646.57 136.604 645.61 136.34 644.53 136.34C643.474 136.34 642.526 136.604 641.686 137.132C640.87 137.636 640.222 138.344 639.742 139.256C639.262 140.168 639.022 141.236 639.022 142.46C639.022 143.684 639.262 144.764 639.742 145.7C640.222 146.612 640.87 147.332 641.686 147.86C642.526 148.364 643.474 148.616 644.53 148.616ZM662.271 152C661.527 152 661.155 151.604 661.155 150.812V127.196C661.155 126.404 661.527 126.008 662.271 126.008C662.991 126.008 663.351 126.404 663.351 127.196V137.204C663.855 136.388 664.563 135.704 665.475 135.152C666.411 134.6 667.467 134.324 668.643 134.324C670.491 134.324 671.979 134.912 673.107 136.088C674.235 137.264 674.799 138.944 674.799 141.128V150.812C674.799 151.604 674.439 152 673.719 152C672.999 152 672.639 151.604 672.639 150.812V141.452C672.639 139.772 672.231 138.512 671.415 137.672C670.623 136.832 669.591 136.412 668.319 136.412C667.359 136.412 666.495 136.628 665.727 137.06C664.983 137.468 664.395 138.032 663.963 138.752C663.555 139.448 663.351 140.228 663.351 141.092V150.812C663.351 151.604 662.991 152 662.271 152ZM706.069 152.432C704.365 152.432 702.781 152.168 701.317 151.64C699.877 151.112 698.617 150.272 697.537 149.12C697.009 148.52 697.069 148.004 697.717 147.572C698.245 147.164 698.773 147.248 699.301 147.824C701.029 149.48 703.297 150.308 706.105 150.308C707.233 150.308 708.265 150.14 709.201 149.804C710.161 149.468 710.929 148.952 711.505 148.256C712.081 147.56 712.369 146.696 712.369 145.664C712.369 144.752 712.177 143.96 711.793 143.288C711.433 142.616 710.713 142.028 709.633 141.524C708.553 141.02 706.945 140.576 704.809 140.192C700.105 139.304 697.753 136.976 697.753 133.208C697.753 131.84 698.089 130.64 698.761 129.608C699.433 128.552 700.369 127.736 701.569 127.16C702.769 126.56 704.161 126.26 705.745 126.26C707.185 126.26 708.505 126.5 709.705 126.98C710.929 127.436 712.069 128.084 713.125 128.924C713.725 129.476 713.737 130.004 713.161 130.508C712.681 130.988 712.141 130.976 711.541 130.472C710.653 129.8 709.741 129.296 708.805 128.96C707.869 128.624 706.837 128.456 705.709 128.456C704.077 128.456 702.721 128.864 701.641 129.68C700.585 130.472 700.057 131.624 700.057 133.136C700.057 134.456 700.477 135.524 701.317 136.34C702.181 137.156 703.729 137.768 705.961 138.176C709.057 138.728 711.277 139.592 712.621 140.768C713.965 141.944 714.637 143.564 714.637 145.628C714.637 147.044 714.253 148.268 713.485 149.3C712.741 150.308 711.721 151.088 710.425 151.64C709.129 152.168 707.677 152.432 706.069 152.432ZM729.987 152.396C728.451 152.396 727.083 152.024 725.883 151.28C724.683 150.512 723.735 149.444 723.039 148.076C722.343 146.708 721.995 145.136 721.995 143.36C721.995 141.584 722.343 140.024 723.039 138.68C723.735 137.312 724.683 136.256 725.883 135.512C727.083 134.744 728.451 134.36 729.987 134.36C732.051 134.36 733.791 135.032 735.207 136.376C735.519 136.616 735.663 136.88 735.639 137.168C735.615 137.456 735.471 137.708 735.207 137.924C734.919 138.116 734.655 138.2 734.415 138.176C734.199 138.152 733.935 138.02 733.623 137.78C732.591 136.868 731.379 136.412 729.987 136.412C728.307 136.412 726.915 137.048 725.811 138.32C724.731 139.568 724.191 141.248 724.191 143.36C724.191 145.472 724.731 147.164 725.811 148.436C726.915 149.708 728.307 150.344 729.987 150.344C731.403 150.344 732.603 149.888 733.587 148.976C733.875 148.736 734.139 148.604 734.379 148.58C734.643 148.532 734.919 148.604 735.207 148.796C735.471 149.012 735.615 149.264 735.639 149.552C735.663 149.816 735.531 150.08 735.243 150.344C733.803 151.712 732.051 152.396 729.987 152.396ZM745.156 152C744.412 152 744.04 151.604 744.04 150.812V127.196C744.04 126.404 744.412 126.008 745.156 126.008C745.876 126.008 746.236 126.404 746.236 127.196V137.204C746.74 136.388 747.448 135.704 748.36 135.152C749.296 134.6 750.352 134.324 751.528 134.324C753.376 134.324 754.864 134.912 755.992 136.088C757.12 137.264 757.684 138.944 757.684 141.128V150.812C757.684 151.604 757.324 152 756.604 152C755.884 152 755.524 151.604 755.524 150.812V141.452C755.524 139.772 755.116 138.512 754.3 137.672C753.508 136.832 752.476 136.412 751.204 136.412C750.244 136.412 749.38 136.628 748.612 137.06C747.868 137.468 747.28 138.032 746.848 138.752C746.44 139.448 746.236 140.228 746.236 141.092V150.812C746.236 151.604 745.876 152 745.156 152ZM773.679 152.396C772.143 152.396 770.775 152.012 769.575 151.244C768.375 150.476 767.427 149.42 766.731 148.076C766.035 146.708 765.687 145.136 765.687 143.36C765.687 141.584 766.035 140.024 766.731 138.68C767.427 137.312 768.375 136.244 769.575 135.476C770.775 134.708 772.143 134.324 773.679 134.324C775.239 134.324 776.619 134.708 777.819 135.476C779.019 136.244 779.967 137.312 780.663 138.68C781.359 140.024 781.707 141.584 781.707 143.36C781.707 145.136 781.359 146.708 780.663 148.076C779.967 149.42 779.019 150.476 777.819 151.244C776.619 152.012 775.239 152.396 773.679 152.396ZM773.679 150.344C774.807 150.344 775.803 150.056 776.667 149.48C777.555 148.904 778.251 148.1 778.755 147.068C779.259 146.012 779.511 144.776 779.511 143.36C779.511 141.944 779.259 140.72 778.755 139.688C778.251 138.632 777.555 137.816 776.667 137.24C775.803 136.664 774.807 136.376 773.679 136.376C771.999 136.376 770.607 137.012 769.503 138.284C768.423 139.532 767.883 141.224 767.883 143.36C767.883 145.472 768.423 147.164 769.503 148.436C770.607 149.708 771.999 150.344 773.679 150.344ZM796.686 152.396C795.15 152.396 793.782 152.012 792.582 151.244C791.382 150.476 790.434 149.42 789.738 148.076C789.042 146.708 788.694 145.136 788.694 143.36C788.694 141.584 789.042 140.024 789.738 138.68C790.434 137.312 791.382 136.244 792.582 135.476C793.782 134.708 795.15 134.324 796.686 134.324C798.246 134.324 799.626 134.708 800.826 135.476C802.026 136.244 802.974 137.312 803.67 138.68C804.366 140.024 804.714 141.584 804.714 143.36C804.714 145.136 804.366 146.708 803.67 148.076C802.974 149.42 802.026 150.476 800.826 151.244C799.626 152.012 798.246 152.396 796.686 152.396ZM796.686 150.344C797.814 150.344 798.81 150.056 799.674 149.48C800.562 148.904 801.258 148.1 801.762 147.068C802.266 146.012 802.518 144.776 802.518 143.36C802.518 141.944 802.266 140.72 801.762 139.688C801.258 138.632 800.562 137.816 799.674 137.24C798.81 136.664 797.814 136.376 796.686 136.376C795.006 136.376 793.614 137.012 792.51 138.284C791.43 139.532 790.89 141.224 790.89 143.36C790.89 145.472 791.43 147.164 792.51 148.436C793.614 149.708 795.006 150.344 796.686 150.344ZM813.788 152C813.044 152 812.672 151.604 812.672 150.812V127.196C812.672 126.404 813.044 126.008 813.788 126.008C814.508 126.008 814.868 126.404 814.868 127.196V150.812C814.868 151.604 814.508 152 813.788 152Z" fill="black"/>
</svg>
