<svg width="360" height="92" viewBox="0 0 360 92" fill="none" xmlns="http://www.w3.org/2000/svg">
<path d="M63.0757 2.78854C63.3397 2.76109 63.5944 2.80683 63.8399 2.92576C65.1042 3.53689 66.3891 4.10225 67.6943 4.62194C68.9856 5.13518 70.1124 5.96123 71.4456 6.70507C72.9982 7.57055 74.8482 8.855 76.9957 10.5584C78.4012 11.6755 79.7151 13.0231 81.0647 14.2966C82.4397 15.592 83.391 17.1838 84.7018 18.5452C85.1372 18.9953 85.4288 19.3759 85.5773 19.6869C86.271 21.1288 87.0296 22.5339 87.8533 23.9026C89.2167 26.1696 90.3412 28.7578 91.1223 31.324C91.444 32.3797 91.7866 33.429 92.1485 34.472C92.3697 35.1106 92.6056 36.4747 92.8539 38.5642C93.2954 42.2968 93.6295 45.2911 93.5708 48.7137C93.5653 49.0833 93.488 49.6907 93.3395 50.5361C93.1972 51.3594 93.2591 52.2075 93.0859 52.9869C92.8013 54.2897 92.5437 55.5971 92.3125 56.909C92.1679 57.7323 91.6721 58.5009 91.5329 59.3983C91.4649 59.8246 91.3558 60.2089 91.2058 60.551C90.8238 61.421 90.7348 62.2911 90.3412 63.1611C89.9151 64.1053 89.8478 65.0659 89.2925 65.9304C88.53 67.1142 87.8339 68.3319 87.2036 69.5835C87.1132 69.7647 86.9051 70.0812 86.5819 70.5331C86.2609 70.9832 86.1325 71.4827 85.8619 71.8916C85.3352 72.6903 84.8248 73.5055 84.2053 74.2356C82.8403 75.8402 81.4312 77.4073 79.9773 78.9368C79.1668 79.7916 78.2604 80.5874 77.2579 81.3249C74.9932 82.9932 72.7313 84.7995 70.2072 86.0675C69.192 86.5766 68.174 87.0788 67.1532 87.5771C66.1659 88.0578 64.7407 88.54 63.5582 89.1112C61.7649 89.9806 59.542 90.4697 57.6063 90.9581C56.6553 91.2004 55.4616 91.2494 54.3739 91.4771C53.2388 91.7186 52.1036 91.5983 50.9573 91.7462C46.0905 92.3718 40.7438 91.7731 35.9942 90.6813C32.9429 89.9806 29.6435 88.6888 26.5616 87.5411C26.4865 87.5135 26.4215 87.4644 26.3741 87.4C26.327 87.3364 26.2996 87.2597 26.2955 87.1807C26.2913 87.1018 26.3106 87.0228 26.3509 86.9546C26.3912 86.8863 26.4508 86.8311 26.5225 86.7943L30.536 84.8133C30.629 84.7673 30.7247 84.7588 30.8232 84.7887C31.4777 84.9842 32.1294 85.1629 32.7783 85.3239C33.6235 85.5347 34.7363 85.4442 35.7208 85.8536C35.8049 85.8881 35.897 85.9004 35.9885 85.8912C36.7378 85.8099 37.4732 85.8329 38.1946 85.9633C39.0221 86.1112 39.6348 86.1887 40.0326 86.194C42.7287 86.2301 44.4421 86.2201 45.1728 86.1634C46.1229 86.0882 48.1116 85.7793 51.1386 85.2357C53.3001 84.8485 55.6624 84.1953 57.69 83.3505C60.0942 82.3515 63.0562 81.2973 65.5634 79.3929C66.721 78.5113 67.9704 77.7791 69.0777 76.8238C69.5611 76.4065 70.0575 76.004 70.567 75.6161C71.4539 74.9437 71.9336 73.9611 72.7062 73.1542C73.2529 72.5852 73.6369 72.1104 73.8581 71.7298C74.3713 70.8423 74.8584 69.8158 75.3195 68.6503C76.1591 66.5287 74.229 65.538 72.4831 65.1509C71.9383 65.032 71.2039 65.0055 70.2798 65.0714C68.8099 65.1784 67.6581 64.9067 66.4336 65.0165C63.985 65.236 62.1581 64.6707 60.1109 66.4683C58.8131 67.6065 57.6649 68.8736 56.6665 70.2696C56.3522 70.7069 55.9571 71.1982 55.4811 71.7435C54.2428 73.1624 53.1885 74.4359 51.5123 75.7999C50.3075 76.7809 49.309 77.5552 48.5169 78.1249C44.7211 80.8527 40.3338 82.4634 35.6846 83.2899C35.2234 83.3719 34.4945 83.4034 33.4979 83.3834C33.3901 83.3811 33.3594 83.3328 33.4059 83.2378C33.7656 82.5102 34.5996 81.9559 35.2383 81.4783C36.6858 80.3942 38.0189 78.8655 39.2099 77.51C40.2 76.3845 41.9236 74.8229 42.975 73.1733C44.2441 71.1835 45.4266 69.1361 46.718 67.171C47.775 65.5627 48.2129 64.0421 48.8265 62.4009C49.6715 60.1393 50.2433 57.7817 50.9908 55.4846C51.2306 54.749 51.3561 53.6493 51.3673 52.1855C51.3701 51.5872 51.7634 51.1289 51.7243 50.6047C51.6295 49.3037 51.6797 48.0128 51.8749 46.732C51.9809 46.0432 51.7215 45.5189 51.8331 44.8328C51.9557 44.0644 51.7271 43.3479 51.6825 42.5822C51.6564 42.1267 51.5756 41.5777 51.4397 40.9355C51.2725 40.1368 51.3449 39.3052 51.1637 38.5505C50.948 37.6429 50.7165 36.7409 50.4693 35.8443C50.2768 35.1445 50.3939 34.4638 50.1987 33.7639C49.5424 31.4218 48.7595 29.1237 47.8503 26.8694C47.3725 25.6802 46.7292 24.4176 45.9203 23.082C44.8799 21.3611 43.8397 19.5167 42.7073 18.0072C41.0823 15.8353 39.2424 13.8566 37.1879 12.0707C36.2591 11.2638 35.0821 9.99304 34.0613 9.37833C32.7764 8.60614 31.5716 7.72884 30.4467 6.74622C30.3846 6.69053 30.3085 6.65264 30.2264 6.63647C29.2278 6.43151 28.4303 5.92189 27.8334 5.10774C27.7758 5.02906 27.7032 4.96773 27.6158 4.92385L26.9883 4.62194C26.8712 4.56706 26.8647 4.5021 26.9688 4.42705C27.8362 3.80677 28.7956 3.72444 29.663 3.29903C30.9682 2.65405 32.5664 2.37959 33.7155 1.97339C35.3461 1.39886 36.4227 1.0997 36.9452 1.07592C37.8135 1.03383 38.6586 0.887447 39.4804 0.636776C39.9397 0.495887 40.4203 0.408067 40.9224 0.373296C41.7339 0.31841 42.487 0.0878654 43.2512 0.060418C46.7505 -0.0694958 50.2424 0.0101026 53.7268 0.299195C54.6658 0.377875 55.6373 0.562675 56.6413 0.853599C58.5119 1.3952 60.3843 1.92124 62.2585 2.43174C62.357 2.45918 62.5457 2.5589 62.8247 2.7309C62.8988 2.77707 62.9872 2.79736 63.0757 2.78854ZM51.8331 14.4695C52.7061 15.6661 53.8775 16.7255 54.6835 17.7739C55.8744 19.3219 56.9258 20.7024 58.0274 22.4672C58.933 23.9163 59.8525 25.2438 60.7859 26.4496C61.4106 27.2583 62.1813 27.9042 63.0979 28.3873C63.6018 28.6526 64.2313 28.8154 64.9861 28.8758C67.8868 29.1009 70.792 29.2088 73.7018 29.1996C76.0307 29.1942 76.1646 26.4633 75.3613 24.9291C74.4429 23.1799 72.9015 21.1754 70.7372 18.9157C70.3383 18.4958 69.6578 18.1692 69.1558 17.6422C63.5693 11.7578 55.495 8.17336 47.4766 6.96028C45.5856 6.67491 43.717 6.89995 41.812 6.71052C41.5964 6.68862 41.4708 6.77366 41.4355 6.96582C41.4214 7.0436 41.431 7.12373 41.4633 7.19605C41.4956 7.26837 41.5491 7.32961 41.6169 7.37194C43.1146 8.32707 44.933 9.15599 46.2076 10.0206C47.1558 10.6609 48.0567 11.3599 48.9101 12.1174C49.3155 12.4778 49.8156 12.851 50.4107 13.2372C51.0707 13.6653 51.5449 14.0761 51.8331 14.4695ZM66.8603 54.9109C67.1095 54.9676 67.3643 54.997 67.6246 54.9988C70.8171 55.0225 74.0105 55.0444 77.205 55.0647C77.668 55.0664 78.1065 55.0134 78.5211 54.9054C79.726 54.5898 80.7414 54.5019 81.3941 53.3053C81.9432 52.2953 81.9185 50.6047 81.8736 49.3257C81.8574 48.8098 81.8898 48.2032 81.9711 47.506C82.1582 45.9169 82.0631 42.8731 80.9255 41.5229C80.3655 40.8587 79.6664 40.4351 78.8281 40.2521C77.5281 39.9703 75.63 39.8404 73.133 39.8624C71.2476 39.8789 69.3667 39.9017 67.4907 39.931C66.0089 39.953 64.8588 40.5659 64.0407 41.7699C63.4494 42.6371 63.4856 43.8832 63.5219 44.9151C63.5944 47.0257 63.5916 49.1198 63.5944 51.2277C63.5963 52.2687 63.7218 53.0144 63.9709 53.4645C64.6626 54.7106 65.5664 54.6173 66.8603 54.9109Z" fill="black"/>
<path d="M0.284143 50.642C0.194838 50.322 0.0860036 50.0291 0.0720449 49.6928C-0.0191168 47.4584 -0.0237636 45.2231 0.0580954 42.9869C0.0655412 42.8043 0.112046 42.6181 0.197628 42.4283C0.52693 41.707 0.351119 41.0263 0.507391 40.2644C0.727859 39.1877 0.683211 38.3526 0.772507 37.3411C0.781594 37.2523 0.815328 37.1671 0.870183 37.0943C1.49809 36.2591 1.38367 35.3454 1.64599 34.5617C2.19483 32.9147 2.79297 31.2859 3.4404 29.6752C3.88318 28.5761 4.44782 27.4407 5.1343 26.2692C5.77811 25.1702 6.42459 24.0719 7.07385 22.9746C7.75662 21.823 8.4757 20.798 9.23104 19.8995C10.2636 18.6711 11.4051 17.5051 12.3901 16.2468C12.8757 15.6259 13.6654 15.2299 14.1203 14.7473C14.5166 14.327 14.7818 13.9284 15.2924 13.6084C16.4086 12.9088 17.3687 11.8919 18.3259 11.2628C19.2635 10.6463 20.7779 9.68916 22.8691 8.39112C23.8542 7.77824 24.6858 7.33896 25.7882 7.98708C27.377 8.91988 28.9351 9.89248 30.4625 10.9049C32.1899 12.0465 33.736 13.622 35.4244 14.9751C36.8979 16.1546 37.9835 18.0366 39.2252 19.4737C40.3508 20.7772 41.1565 21.7995 41.642 22.5407C42.6206 24.0322 43.5006 25.5769 44.282 27.175C45.3648 29.3877 46.2941 32.1564 47.2484 34.6701C47.4644 35.2378 47.6048 35.7538 47.6699 36.2185C47.9043 37.9079 48.2392 39.5701 48.415 41.2704C48.4597 41.6961 48.694 42.1191 48.694 42.5693C48.694 44.8453 48.7034 47.1204 48.7219 49.3945C48.7276 50.2868 48.3257 50.9185 48.3452 51.7781C48.3713 53.1105 48.1797 54.4031 47.7703 55.6558C47.3211 57.028 47.229 58.3784 46.5202 59.7044C46.202 60.2992 45.976 60.8172 45.842 61.2582C44.7173 64.9299 42.8504 67.7663 40.5202 71.1098C39.9732 71.8935 39.1082 72.5606 38.5445 73.4581C38.3267 73.8033 38.0578 74.1279 37.7378 74.4316C37.3769 74.7715 36.9798 75.2189 36.5462 75.7739C35.8654 76.6416 34.8468 77.6299 33.4904 78.7378C32.5751 79.486 31.4142 80.3071 30.0077 81.2003C27.8783 82.5504 26.2793 83.6728 24.2394 84.3183C24.15 84.3452 24.0664 84.3367 23.9882 84.2915C23.4728 83.9933 22.4263 83.4198 20.8487 82.5719C18.5017 81.3115 15.9565 79.4239 13.9221 77.3685C13.1184 76.5549 12.2059 75.8634 11.4859 75.039C10.4506 73.8513 9.40126 72.688 8.5139 71.4515C5.74364 67.5756 3.57436 63.4059 2.00599 58.9424C1.32507 57.0036 0.819953 54.5386 0.482282 52.7245C0.365069 52.09 0.476702 51.3361 0.284143 50.642ZM13.0375 36.4164C13.2125 38.3851 14.1612 39.8323 15.8841 40.7579C16.2617 40.9621 16.7138 41.0651 17.2403 41.0669C19.5156 41.076 21.7919 41.0787 24.0691 41.0751C25.4811 41.0724 27.1305 41.4466 28.7407 41.2757C29.5109 41.1944 30.1752 41.4547 30.9816 41.2948C31.4114 41.208 31.789 41.1673 32.1147 41.1727C33.8541 41.1998 35.0886 40.389 35.8179 38.7404C36.4374 37.3357 36.6431 36.0088 36.4346 34.7596C35.8793 31.4296 34.6625 28.059 32.8458 24.9351C30.831 21.4714 28.6244 18.1234 26.2263 14.891C25.8914 14.4409 25.5054 14.064 25.0683 13.7602C25.0155 13.724 24.9513 13.7072 24.8874 13.7126C24.8235 13.7181 24.7639 13.7456 24.7194 13.7901C24.0775 14.4354 23.4663 14.9209 22.9417 15.7208C22.6793 16.1203 22.391 16.5018 22.0766 16.8652C21.4822 17.5539 21.2198 18.3809 20.4999 19.0426C19.7212 19.7558 19.1073 20.8188 18.6105 21.7435C17.5529 23.7067 16.2859 25.5886 15.4068 27.6143C15.0422 28.4549 14.6738 29.2947 14.3018 30.1334C13.7548 31.3727 13.5008 32.8099 12.9874 34.1332C12.9546 34.218 12.9488 34.3106 12.9706 34.3989C13.1464 35.1066 12.9901 35.9039 13.0375 36.4164ZM13.2887 54.254C13.2348 54.6426 13.0022 55.3928 12.591 56.5046C12.5595 56.5932 12.5697 56.6764 12.6217 56.7541C13.1771 57.5947 12.8365 58.2293 13.085 59.059C13.3417 59.9105 13.5426 60.7592 13.8915 61.5701C14.7976 63.6906 15.5622 65.4007 16.1854 66.7006C17.259 68.9368 18.6189 71.0953 20.2654 73.1761C20.4924 73.4635 20.7287 73.8703 20.9743 74.3964C21.5045 75.5353 22.4031 76.0912 23.1035 77.0595C23.3788 77.4367 23.684 77.794 24.0189 78.1306C24.6635 78.773 25.6989 77.5065 25.9584 77.1002C26.377 76.4518 26.9742 76.0071 27.3985 75.3617C28.883 73.1136 30.6216 70.8576 31.9277 68.6801C33.1667 66.6156 33.9686 65.1847 34.3332 64.3875C34.7258 63.5324 35.2002 62.1223 35.7565 60.1573C36.1333 58.8339 36.6913 57.413 36.3482 56.1169C35.9239 54.5251 35.6616 52.8059 33.9313 52.0222C33.0997 51.6444 32.4393 51.4447 31.95 51.4229C29.576 51.3181 24.5147 51.2928 16.7659 51.347C16.2933 51.3488 15.8841 51.4509 15.538 51.6534C14.8087 52.0746 14.1669 52.6026 13.6124 53.237C13.3027 53.5868 13.3474 53.8065 13.2887 54.254Z" fill="black"/>
<path d="M129.987 50.5696C129.699 50.5696 129.451 50.4776 129.245 50.2936C129.059 50.13 128.956 49.8949 128.936 49.5882C128.936 49.3224 129.018 49.0874 129.183 48.8829C129.369 48.6989 129.606 48.5967 129.895 48.5762C131.132 48.5354 131.946 48.3718 132.338 48.0856C132.751 47.7789 132.957 47.1962 132.957 46.3376V39.3456H125.44C125.09 42.1874 124.182 44.4874 122.718 46.2456C121.254 47.9834 119.294 49.3634 116.84 50.3856C116.531 50.5082 116.242 50.5287 115.974 50.4469C115.706 50.3651 115.51 50.1914 115.386 49.9256C115.263 49.6598 115.252 49.4042 115.355 49.1589C115.458 48.9136 115.644 48.7398 115.912 48.6376C118.511 47.6767 120.449 46.2456 121.728 44.3442C123.027 42.4429 123.677 39.826 123.677 36.4936V28.1522C123.677 26.578 124.017 25.4842 124.698 24.8709C125.378 24.2576 126.585 23.9509 128.317 23.9509H130.266C131.998 23.9509 133.205 24.2576 133.885 24.8709C134.566 25.4842 134.906 26.578 134.906 28.1522V46.6749C134.906 48.0447 134.556 49.0362 133.854 49.6496C133.174 50.2629 131.884 50.5696 129.987 50.5696ZM115.015 42.0442C113.757 42.0442 112.767 41.9114 112.045 41.6456C111.344 41.3798 110.839 40.9402 110.53 40.3269C110.241 39.6931 110.096 38.8344 110.096 37.7509V29.1642C110.096 28.0807 110.241 27.2322 110.53 26.6189C110.839 25.9851 111.344 25.5354 112.045 25.2696C112.767 25.0038 113.757 24.8709 115.015 24.8709C116.273 24.8709 117.252 25.0038 117.954 25.2696C118.655 25.5354 119.15 25.9851 119.439 26.6189C119.748 27.2322 119.903 28.0807 119.903 29.1642V37.7509C119.903 38.8344 119.748 39.6931 119.439 40.3269C119.15 40.9402 118.655 41.3798 117.954 41.6456C117.252 41.9114 116.273 42.0442 115.015 42.0442ZM125.564 37.5976H132.957V32.5069H125.595V36.4936C125.595 36.6776 125.595 36.8616 125.595 37.0456C125.595 37.2296 125.585 37.4136 125.564 37.5976ZM125.595 30.7589H132.957V28.2442C132.957 27.2834 132.761 26.6394 132.369 26.3122C131.998 25.9647 131.266 25.7909 130.173 25.7909H128.41C127.317 25.7909 126.575 25.9647 126.182 26.3122C125.79 26.6394 125.595 27.2834 125.595 28.2442V30.7589ZM115.015 40.2042C115.84 40.2042 116.459 40.1327 116.871 39.9896C117.304 39.8464 117.593 39.5909 117.737 39.2229C117.902 38.8549 117.985 38.3438 117.985 37.6896V34.2242H112.045V37.6896C112.045 38.3438 112.117 38.8549 112.262 39.2229C112.427 39.5909 112.726 39.8464 113.159 39.9896C113.592 40.1327 114.211 40.2042 115.015 40.2042ZM112.045 32.4456H117.985V29.1949C117.985 28.5202 117.902 28.0091 117.737 27.6616C117.593 27.2936 117.304 27.038 116.871 26.8949C116.459 26.7518 115.84 26.6802 115.015 26.6802C114.211 26.6802 113.592 26.7518 113.159 26.8949C112.726 27.038 112.427 27.2936 112.262 27.6616C112.117 28.0091 112.045 28.5202 112.045 29.1949V32.4456ZM163.861 47.2882C162.479 47.2882 161.386 47.1247 160.582 46.7976C159.777 46.45 159.211 45.9184 158.88 45.2029C158.55 44.4874 158.385 43.5571 158.385 42.4122V31.8936C158.385 30.7487 158.55 29.8184 158.88 29.1029C159.211 28.3874 159.777 27.866 160.582 27.5389C161.386 27.2118 162.479 27.0482 163.861 27.0482C165.263 27.0482 166.367 27.2118 167.171 27.5389C167.975 27.866 168.542 28.3874 168.872 29.1029C169.202 29.8184 169.367 30.7487 169.367 31.8936V42.4429C169.367 43.5878 169.202 44.518 168.872 45.2336C168.542 45.9491 167.975 46.4704 167.171 46.7976C166.367 47.1247 165.263 47.2882 163.861 47.2882ZM150.25 50.7842C149.981 50.7842 149.755 50.6922 149.569 50.5082C149.383 50.3242 149.291 50.0994 149.291 49.8336V36.6469C148.817 37.526 148.27 38.4256 147.651 39.3456C147.053 40.2451 146.445 41.1038 145.826 41.9216C145.207 42.7394 144.609 43.4549 144.032 44.0682C143.846 44.2727 143.62 44.3954 143.351 44.4362C143.083 44.4567 142.835 44.3851 142.609 44.2216C142.402 44.058 142.289 43.8536 142.268 43.6082C142.248 43.3424 142.33 43.1278 142.516 42.9642C143.073 42.4327 143.66 41.7784 144.279 41.0016C144.919 40.2042 145.548 39.366 146.166 38.4869C146.785 37.5874 147.352 36.698 147.868 35.8189C148.383 34.9194 148.806 34.0914 149.136 33.3349H143.568C143.299 33.3349 143.083 33.2531 142.918 33.0896C142.753 32.9056 142.671 32.6807 142.671 32.4149C142.671 32.1696 142.753 31.9651 142.918 31.8016C143.083 31.6176 143.299 31.5256 143.568 31.5256H149.291V26.8029C148.445 27.0074 147.61 27.2016 146.785 27.3856C145.96 27.5491 145.197 27.682 144.496 27.7842C144.227 27.8047 143.98 27.7536 143.753 27.6309C143.527 27.5082 143.392 27.314 143.351 27.0482C143.289 26.762 143.33 26.5269 143.475 26.3429C143.62 26.1589 143.825 26.0567 144.094 26.0362C144.898 25.934 145.774 25.7807 146.723 25.5762C147.692 25.3718 148.662 25.1469 149.631 24.9016C150.621 24.6358 151.539 24.37 152.384 24.1042C153.229 23.818 153.921 23.5624 154.457 23.3376C154.725 23.2354 154.983 23.2354 155.23 23.3376C155.478 23.4194 155.642 23.5931 155.725 23.8589C155.828 24.1042 155.828 24.3394 155.725 24.5642C155.642 24.7891 155.478 24.9527 155.23 25.0549C154.178 25.4434 152.848 25.8624 151.239 26.3122V31.5256H156.096C156.385 31.5256 156.612 31.6176 156.777 31.8016C156.942 31.9651 157.024 32.1696 157.024 32.4149C157.024 32.6807 156.942 32.9056 156.777 33.0896C156.612 33.2531 156.385 33.3349 156.096 33.3349H151.239V34.8989C151.673 35.4509 152.188 36.0642 152.786 36.7389C153.384 37.4136 153.993 38.0576 154.611 38.6709C155.251 39.2638 155.828 39.7544 156.344 40.1429C156.57 40.286 156.694 40.5007 156.715 40.7869C156.736 41.0527 156.663 41.2878 156.498 41.4922C156.313 41.6967 156.075 41.7989 155.787 41.7989C155.519 41.7989 155.282 41.7069 155.075 41.5229C154.498 41.0322 153.859 40.4189 153.157 39.6829C152.477 38.9469 151.837 38.2007 151.239 37.4442V49.8336C151.239 50.0994 151.147 50.3242 150.961 50.5082C150.775 50.6922 150.538 50.7842 150.25 50.7842ZM163.861 45.4176C164.83 45.4176 165.562 45.3154 166.057 45.1109C166.573 44.9064 166.923 44.5794 167.109 44.1296C167.295 43.6594 167.387 43.046 167.387 42.2896V32.0469C167.387 31.2904 167.295 30.6874 167.109 30.2376C166.923 29.7674 166.573 29.43 166.057 29.2256C165.562 29.0211 164.83 28.9189 163.861 28.9189C162.912 28.9189 162.18 29.0211 161.664 29.2256C161.149 29.43 160.798 29.7674 160.613 30.2376C160.427 30.6874 160.334 31.2904 160.334 32.0469V42.2282C160.334 43.3731 160.561 44.1909 161.015 44.6816C161.469 45.1722 162.417 45.4176 163.861 45.4176ZM185.824 35.8189C184.463 35.8189 183.514 35.5838 182.978 35.1136C182.442 34.6229 182.174 33.8051 182.174 32.6602C182.174 31.4949 182.442 30.6874 182.978 30.2376C183.514 29.7878 184.463 29.5629 185.824 29.5629H193.558C194.919 29.5629 195.868 29.7878 196.404 30.2376C196.94 30.6874 197.208 31.4949 197.208 32.6602C197.208 33.8051 196.94 34.6229 196.404 35.1136C195.868 35.5838 194.919 35.8189 193.558 35.8189H185.824ZM178.307 50.8762C178.039 50.8762 177.812 50.7842 177.627 50.6002C177.441 50.4162 177.348 50.1914 177.348 49.9256V42.2896C177.348 41.0834 177.503 40.1327 177.812 39.4376C178.143 38.7424 178.699 38.2518 179.483 37.9656C180.287 37.6589 181.38 37.5056 182.762 37.5056H196.775C198.177 37.5056 199.271 37.6589 200.054 37.9656C200.838 38.2518 201.384 38.7424 201.694 39.4376C202.024 40.1327 202.189 41.0834 202.189 42.2896V46.9816C202.189 48.3514 201.889 49.3327 201.292 49.9256C200.694 50.5184 199.538 50.8251 197.827 50.8456C197.559 50.8456 197.322 50.7536 197.116 50.5696C196.93 50.406 196.837 50.1914 196.837 49.9256C196.816 49.6598 196.889 49.4247 197.054 49.2202C197.239 49.0362 197.487 48.934 197.796 48.9136C198.518 48.8931 199.054 48.8216 199.405 48.6989C199.755 48.5967 199.982 48.4024 200.085 48.1162C200.209 47.8096 200.271 47.3802 200.271 46.8282V42.2896C200.271 41.4718 200.168 40.8482 199.961 40.4189C199.776 39.9691 199.436 39.6624 198.941 39.4989C198.446 39.3149 197.724 39.2229 196.775 39.2229H182.762C181.834 39.2229 181.112 39.3149 180.596 39.4989C180.101 39.6624 179.751 39.9691 179.545 40.4189C179.359 40.8482 179.266 41.4718 179.266 42.2896V49.9256C179.266 50.1914 179.173 50.4162 178.988 50.6002C178.802 50.7842 178.576 50.8762 178.307 50.8762ZM187.062 47.2576C185.763 47.2576 184.845 47.0327 184.309 46.5829C183.793 46.1127 183.535 45.3051 183.535 44.1602C183.535 42.9949 183.793 42.1874 184.309 41.7376C184.845 41.2674 185.763 41.0322 187.062 41.0322H192.321C193.62 41.0322 194.538 41.2674 195.074 41.7376C195.61 42.1874 195.878 42.9949 195.878 44.1602C195.878 45.3051 195.61 46.1127 195.074 46.5829C194.538 47.0327 193.62 47.2576 192.321 47.2576H187.062ZM176.73 27.7536C176.461 27.7536 176.245 27.6718 176.08 27.5082C175.935 27.3447 175.863 27.1402 175.863 26.8949C175.863 26.67 175.935 26.4758 176.08 26.3122C176.245 26.1487 176.461 26.0669 176.73 26.0669H188.732V23.4602C188.732 23.1536 188.835 22.9082 189.042 22.7242C189.248 22.5402 189.485 22.4482 189.753 22.4482C190.042 22.4482 190.279 22.5402 190.465 22.7242C190.671 22.9082 190.774 23.1536 190.774 23.4602V26.0669H202.838C203.086 26.0669 203.282 26.1487 203.426 26.3122C203.591 26.4758 203.674 26.67 203.674 26.8949C203.674 27.1402 203.591 27.3447 203.426 27.5082C203.282 27.6718 203.086 27.7536 202.838 27.7536H176.73ZM185.886 34.1322H193.496C194.239 34.1322 194.723 34.03 194.95 33.8256C195.177 33.6007 195.29 33.202 195.29 32.6296C195.29 32.0367 195.177 31.6584 194.95 31.4949C194.723 31.3109 194.239 31.2189 193.496 31.2189H185.886C185.144 31.2189 184.659 31.3109 184.432 31.4949C184.206 31.6584 184.092 32.0367 184.092 32.6296C184.092 33.202 184.206 33.6007 184.432 33.8256C184.659 34.03 185.144 34.1322 185.886 34.1322ZM187.185 45.5709H192.197C192.877 45.5709 193.341 45.4789 193.589 45.2949C193.836 45.0904 193.96 44.702 193.96 44.1296C193.96 43.5367 193.836 43.1482 193.589 42.9642C193.341 42.7802 192.877 42.6882 192.197 42.6882H187.185C186.505 42.6882 186.041 42.7802 185.793 42.9642C185.546 43.1482 185.422 43.5367 185.422 44.1296C185.422 44.702 185.546 45.0904 185.793 45.2949C186.041 45.4789 186.505 45.5709 187.185 45.5709ZM215.274 50.9682C215.006 50.9682 214.779 50.8762 214.594 50.6922C214.429 50.5287 214.346 50.314 214.346 50.0482V35.4202C213.768 36.606 213.13 37.7816 212.428 38.9469C211.727 40.1122 211.046 41.1549 210.386 42.0749C210.242 42.2998 210.036 42.4429 209.768 42.5042C209.52 42.5451 209.283 42.494 209.056 42.3509C208.85 42.2078 208.716 42.0136 208.654 41.7682C208.613 41.5229 208.675 41.298 208.84 41.0936C209.335 40.4598 209.851 39.734 210.386 38.9162C210.922 38.078 211.438 37.2194 211.933 36.3402C212.449 35.4407 212.913 34.5718 213.325 33.7336C213.758 32.8954 214.099 32.1389 214.346 31.4642V30.9122H209.83C209.561 30.9122 209.345 30.8304 209.18 30.6669C209.015 30.5034 208.933 30.2989 208.933 30.0536C208.933 29.8082 209.015 29.6038 209.18 29.4402C209.345 29.2767 209.561 29.1949 209.83 29.1949H214.346V23.5829C214.346 23.2967 214.429 23.0718 214.594 22.9082C214.779 22.7447 215.006 22.6629 215.274 22.6629C215.542 22.6629 215.759 22.7447 215.924 22.9082C216.109 23.0718 216.202 23.2967 216.202 23.5829V29.1949H219.327C219.595 29.1949 219.801 29.2767 219.945 29.4402C220.11 29.6038 220.193 29.8082 220.193 30.0536C220.193 30.2989 220.11 30.5034 219.945 30.6669C219.801 30.8304 219.595 30.9122 219.327 30.9122H216.202V33.3042C216.532 33.754 216.945 34.2958 217.44 34.9296C217.955 35.5634 218.47 36.1869 218.986 36.8002C219.502 37.3931 219.935 37.8736 220.286 38.2416C220.471 38.4256 220.554 38.6504 220.533 38.9162C220.533 39.1616 220.44 39.366 220.255 39.5296C220.069 39.6931 219.842 39.7749 219.574 39.7749C219.327 39.7544 219.12 39.642 218.955 39.4376C218.584 39.0287 218.141 38.4971 217.625 37.8429C217.13 37.1887 216.656 36.5344 216.202 35.8802V50.0482C216.202 50.314 216.109 50.5287 215.924 50.6922C215.759 50.8762 215.542 50.9682 215.274 50.9682ZM220.595 50.4776C220.327 50.6002 220.038 50.6207 219.729 50.5389C219.44 50.4776 219.224 50.3038 219.079 50.0176C218.955 49.7314 218.945 49.4656 219.048 49.2202C219.172 48.9749 219.378 48.7909 219.667 48.6682C222.781 47.462 225.338 45.6936 227.339 43.3629C226.699 42.4838 226.111 41.5434 225.575 40.5416C225.039 39.5398 224.565 38.4562 224.152 37.2909C224.07 37.0251 224.08 36.79 224.183 36.5856C224.307 36.3607 224.483 36.2074 224.709 36.1256C224.957 36.0438 225.194 36.0438 225.421 36.1256C225.668 36.2074 225.833 36.3914 225.916 36.6776C226.246 37.6589 226.627 38.5789 227.06 39.4376C227.514 40.2962 227.998 41.0936 228.514 41.8296C229.607 40.2554 230.432 38.4664 230.989 36.4629C231.072 36.1767 231.226 35.9824 231.453 35.8802C231.68 35.778 231.927 35.778 232.195 35.8802C232.422 35.962 232.598 36.1051 232.721 36.3096C232.866 36.514 232.897 36.7594 232.814 37.0456C232.051 39.4784 231.02 41.5842 229.721 43.3629C230.752 44.5282 231.896 45.5504 233.154 46.4296C234.413 47.2882 235.732 48.0447 237.114 48.6989C237.382 48.842 237.557 49.0362 237.64 49.2816C237.743 49.5474 237.723 49.8131 237.578 50.0789C237.433 50.3447 237.217 50.5082 236.928 50.5696C236.64 50.6514 236.361 50.6207 236.093 50.4776C234.649 49.7211 233.288 48.8829 232.01 47.9629C230.751 47.0429 229.607 46.0002 228.576 44.8349C227.503 46.0616 226.297 47.1349 224.957 48.0549C223.616 48.9749 222.162 49.7824 220.595 50.4776ZM221.275 29.8696C221.007 29.8696 220.78 29.7878 220.595 29.6242C220.43 29.4402 220.347 29.2256 220.347 28.9802C220.347 28.7349 220.43 28.5304 220.595 28.3669C220.78 28.1829 221.007 28.0909 221.275 28.0909H227.555V23.7056C227.555 23.4194 227.648 23.1944 227.834 23.0309C228.04 22.8469 228.277 22.7549 228.545 22.7549C228.813 22.7549 229.04 22.8469 229.226 23.0309C229.411 23.1944 229.504 23.4194 229.504 23.7056V28.0909H235.815C236.083 28.0909 236.3 28.1829 236.464 28.3669C236.629 28.5304 236.712 28.7349 236.712 28.9802C236.712 29.2256 236.629 29.4402 236.464 29.6242C236.3 29.7878 236.083 29.8696 235.815 29.8696H221.275ZM221.832 37.0149C221.626 37.158 221.378 37.2194 221.09 37.1989C220.821 37.1784 220.605 37.066 220.44 36.8616C220.275 36.6367 220.203 36.4118 220.224 36.1869C220.245 35.9416 220.357 35.7474 220.564 35.6042C221.038 35.2567 221.554 34.8171 222.111 34.2856C222.688 33.754 223.255 33.1918 223.812 32.5989C224.369 32.006 224.833 31.4642 225.204 30.9736C225.369 30.7691 225.575 30.6567 225.823 30.6362C226.07 30.5954 226.297 30.6567 226.503 30.8202C226.73 30.9838 226.854 31.1882 226.875 31.4336C226.895 31.6789 226.823 31.9038 226.658 32.1082C226.018 32.9464 225.256 33.8154 224.369 34.7149C223.482 35.6144 222.637 36.3811 221.832 37.0149ZM235.444 36.8309C234.618 36.238 233.742 35.5122 232.814 34.6536C231.886 33.7744 231.082 32.926 230.401 32.1082C230.236 31.9242 230.164 31.7096 230.185 31.4642C230.206 31.1984 230.318 30.9838 230.525 30.8202C230.71 30.6567 230.927 30.5851 231.175 30.6056C231.443 30.626 231.649 30.7384 231.793 30.9429C232.185 31.3927 232.659 31.9038 233.216 32.4762C233.794 33.0282 234.382 33.57 234.979 34.1016C235.598 34.6127 236.145 35.042 236.619 35.3896C236.825 35.5327 236.949 35.7269 236.99 35.9722C237.031 36.2176 236.969 36.4424 236.805 36.6469C236.64 36.8514 236.423 36.974 236.155 37.0149C235.908 37.0558 235.67 36.9944 235.444 36.8309ZM243.703 49.0362C243.435 49.0362 243.208 48.9442 243.022 48.7602C242.837 48.5967 242.744 48.382 242.744 48.1162C242.744 47.8504 242.837 47.6256 243.022 47.4416C243.208 47.2576 243.435 47.1656 243.703 47.1656H256.077V39.9896H247.972C247.704 39.9896 247.477 39.8976 247.291 39.7136C247.127 39.5296 247.044 39.3149 247.044 39.0696C247.044 38.8038 247.127 38.5789 247.291 38.3949C247.477 38.2109 247.704 38.1189 247.972 38.1189H256.077V31.6789H248.343C247.353 33.3758 246.271 34.9296 245.095 36.3402C244.889 36.5651 244.631 36.7184 244.322 36.8002C244.033 36.8616 243.765 36.79 243.517 36.5856C243.291 36.422 243.156 36.1971 243.115 35.9109C243.094 35.6247 243.177 35.3794 243.363 35.1749C244.167 34.2754 244.961 33.2327 245.745 32.0469C246.528 30.8407 247.24 29.5834 247.879 28.2749C248.539 26.9664 249.065 25.7194 249.457 24.5336C249.56 24.2474 249.735 24.0429 249.983 23.9202C250.23 23.7976 250.488 23.7874 250.756 23.8896C251.045 23.9714 251.241 24.1349 251.344 24.3802C251.468 24.6051 251.478 24.8607 251.375 25.1469C251.106 25.9647 250.797 26.762 250.447 27.5389C250.117 28.3158 249.756 29.0824 249.364 29.8389H256.077V23.7976C256.077 23.4909 256.17 23.2456 256.355 23.0616C256.562 22.8776 256.809 22.7856 257.098 22.7856C257.386 22.7856 257.624 22.8776 257.809 23.0616C258.016 23.2456 258.119 23.4909 258.119 23.7976V29.8389H268.11C268.379 29.8389 268.595 29.9309 268.76 30.1149C268.946 30.2989 269.038 30.5136 269.038 30.7589C269.038 31.0247 268.946 31.2496 268.76 31.4336C268.595 31.5971 268.379 31.6789 268.11 31.6789H258.119V38.1189H266.1C266.368 38.1189 266.595 38.2109 266.78 38.3949C266.966 38.5789 267.059 38.8038 267.059 39.0696C267.059 39.3149 266.966 39.5296 266.78 39.7136C266.595 39.8976 266.368 39.9896 266.1 39.9896H258.119V47.1656H269.503C269.75 47.1656 269.967 47.2576 270.152 47.4416C270.338 47.6256 270.431 47.8504 270.431 48.1162C270.431 48.382 270.338 48.5967 270.152 48.7602C269.967 48.9442 269.75 49.0362 269.503 49.0362H243.703ZM283.856 50.1402C283.65 49.9971 283.526 49.8029 283.485 49.5576C283.444 49.3327 283.495 49.118 283.64 48.9136C284.732 47.4416 285.66 45.7958 286.424 43.9762C287.187 42.1362 287.702 40.1429 287.97 37.9962C288.011 37.71 288.135 37.5056 288.342 37.3829C288.548 37.2398 288.775 37.1887 289.022 37.2296C289.291 37.25 289.496 37.3624 289.641 37.5669C289.806 37.7509 289.868 37.986 289.827 38.2722C289.765 38.7834 289.682 39.3047 289.579 39.8362C289.476 40.3474 289.352 40.8687 289.208 41.4002C289.744 42.586 290.352 43.5878 291.033 44.4056C291.714 45.2234 292.497 45.8878 293.384 46.3989V35.3589H285.712C285.465 35.3589 285.248 35.2771 285.063 35.1136C284.898 34.9296 284.815 34.7149 284.815 34.4696C284.815 34.2242 284.898 34.0198 285.063 33.8562C285.248 33.6722 285.465 33.5802 285.712 33.5802H293.384V28.9802H287.073C286.826 28.9802 286.609 28.8984 286.424 28.7349C286.259 28.5509 286.176 28.3362 286.176 28.0909C286.176 27.8456 286.259 27.6411 286.424 27.4776C286.609 27.2936 286.826 27.2016 287.073 27.2016H293.384V23.5522C293.384 23.266 293.477 23.0411 293.662 22.8776C293.869 22.6936 294.106 22.6016 294.374 22.6016C294.642 22.6016 294.869 22.6936 295.055 22.8776C295.24 23.0411 295.333 23.266 295.333 23.5522V27.2016H301.613C301.86 27.2016 302.067 27.2936 302.231 27.4776C302.417 27.6411 302.51 27.8456 302.51 28.0909C302.51 28.3362 302.417 28.5509 302.231 28.7349C302.067 28.8984 301.86 28.9802 301.613 28.9802H295.333V33.5802H302.943C303.19 33.5802 303.397 33.6722 303.562 33.8562C303.747 34.0198 303.84 34.2242 303.84 34.4696C303.84 34.7149 303.747 34.9296 303.562 35.1136C303.397 35.2771 303.19 35.3589 302.943 35.3589H295.333V39.5909H301.334C301.582 39.5909 301.798 39.6829 301.984 39.8669C302.169 40.0304 302.262 40.2349 302.262 40.4802C302.262 40.746 302.169 40.9709 301.984 41.1549C301.798 41.3184 301.582 41.4002 301.334 41.4002H295.333V47.1962C296.034 47.4007 296.797 47.554 297.622 47.6562C298.467 47.7584 299.385 47.8096 300.375 47.8096C300.849 47.8096 301.324 47.8096 301.798 47.8096C302.272 47.8096 302.747 47.7994 303.221 47.7789C303.531 47.7789 303.778 47.8709 303.964 48.0549C304.17 48.2184 304.263 48.4434 304.242 48.7296C304.242 49.3634 303.871 49.6802 303.128 49.6802H300.375C298.21 49.6802 296.375 49.4554 294.869 49.0056C293.363 48.5762 292.106 47.9118 291.095 47.0122C290.084 46.1127 289.239 44.978 288.558 43.6082C288.146 44.7736 287.661 45.898 287.104 46.9816C286.547 48.0447 285.919 49.026 285.217 49.9256C285.073 50.13 284.867 50.2527 284.599 50.2936C284.33 50.3344 284.083 50.2834 283.856 50.1402ZM281.474 50.6002C281.206 50.6002 280.979 50.5082 280.794 50.3242C280.608 50.1402 280.515 49.9154 280.515 49.6496V36.8002C279.979 37.3727 279.422 37.9247 278.845 38.4562C278.288 38.9878 277.721 39.4784 277.143 39.9282C276.937 40.1122 276.689 40.2144 276.401 40.2349C276.112 40.2349 275.865 40.1224 275.659 39.8976C275.494 39.6931 275.411 39.4682 275.411 39.2229C275.432 38.9571 275.545 38.7527 275.751 38.6096C276.391 38.078 277.071 37.4647 277.793 36.7696C278.535 36.054 279.257 35.3078 279.958 34.5309C280.66 33.7336 281.309 32.9464 281.907 32.1696C282.526 31.3722 283.031 30.626 283.423 29.9309C283.568 29.706 283.773 29.5629 284.042 29.5016C284.31 29.4402 284.558 29.4811 284.784 29.6242C285.011 29.7674 285.155 29.9718 285.217 30.2376C285.279 30.4829 285.238 30.718 285.094 30.9429C284.722 31.5358 284.31 32.1491 283.856 32.7829C283.402 33.3962 282.918 34.0198 282.402 34.6536V49.6496C282.402 49.9154 282.309 50.1402 282.124 50.3242C281.959 50.5082 281.743 50.6002 281.474 50.6002ZM277.824 31.0656C277.576 31.2291 277.308 31.3109 277.02 31.3109C276.731 31.3109 276.494 31.1984 276.308 30.9736C276.143 30.7487 276.082 30.5034 276.123 30.2376C276.184 29.9718 276.318 29.7674 276.525 29.6242C277.288 29.1336 278.071 28.5611 278.876 27.9069C279.68 27.2527 280.432 26.5678 281.134 25.8522C281.855 25.1162 282.443 24.4314 282.897 23.7976C283.062 23.5727 283.278 23.45 283.547 23.4296C283.835 23.3887 284.083 23.45 284.289 23.6136C284.516 23.7976 284.64 24.0224 284.66 24.2882C284.681 24.5336 284.609 24.7687 284.444 24.9936C283.887 25.6682 283.237 26.3736 282.495 27.1096C281.774 27.8251 281.01 28.5304 280.206 29.2256C279.402 29.9002 278.607 30.5136 277.824 31.0656ZM334.187 49.9869C333.96 50.1709 333.702 50.2322 333.413 50.1709C333.145 50.1096 332.929 49.9767 332.764 49.7722C332.454 49.3634 332.114 48.9238 331.743 48.4536C331.393 47.9834 331.021 47.5029 330.629 47.0122C329.578 47.1962 328.33 47.4007 326.886 47.6256C325.463 47.8504 323.968 48.0754 322.401 48.3002C320.833 48.5251 319.307 48.7296 317.822 48.9136C316.358 49.0976 315.048 49.2407 313.894 49.3429C313.254 49.4042 312.883 49.1384 312.78 48.5456C312.739 48.2594 312.811 48.0242 312.997 47.8402C313.203 47.6562 313.461 47.554 313.77 47.5336C314.162 47.4927 314.574 47.4518 315.007 47.4109C315.461 47.37 315.935 47.3291 316.43 47.2882C316.761 46.7158 317.152 46.0104 317.606 45.1722C318.08 44.3136 318.555 43.4344 319.029 42.5349C319.503 41.6354 319.895 40.8482 320.204 40.1736H311.883C311.635 40.1736 311.429 40.0918 311.264 39.9282C311.1 39.7442 311.017 39.5296 311.017 39.2842C311.017 39.0594 311.1 38.8549 311.264 38.6709C311.429 38.4869 311.635 38.3949 311.883 38.3949H334.991C335.218 38.3949 335.414 38.4869 335.579 38.6709C335.764 38.8549 335.857 39.0594 335.857 39.2842C335.857 39.5296 335.764 39.7442 335.579 39.9282C335.414 40.0918 335.218 40.1736 334.991 40.1736H322.339C322.029 40.8278 321.658 41.5638 321.225 42.3816C320.792 43.1994 320.349 44.0171 319.895 44.8349C319.462 45.6527 319.05 46.3887 318.658 47.0429C319.936 46.8794 321.225 46.7158 322.524 46.5522C323.845 46.3887 325.092 46.2251 326.268 46.0616C327.464 45.8776 328.505 45.714 329.392 45.5709C329.021 45.162 328.66 44.7634 328.309 44.3749C327.959 43.9864 327.608 43.6287 327.257 43.3016C327.113 43.138 327.031 42.9336 327.01 42.6882C327.01 42.4429 327.103 42.2384 327.288 42.0749C327.495 41.8909 327.732 41.8091 328 41.8296C328.268 41.85 328.495 41.9522 328.68 42.1362C329.278 42.6882 329.918 43.3527 330.598 44.1296C331.3 44.9064 331.98 45.6936 332.64 46.4909C333.3 47.2678 333.867 47.9834 334.341 48.6376C334.506 48.842 334.579 49.0771 334.558 49.3429C334.537 49.6087 334.413 49.8234 334.187 49.9869ZM310.46 34.8376C310.151 35.0011 309.851 35.0727 309.563 35.0522C309.294 35.0114 309.078 34.858 308.913 34.5922C308.769 34.3469 308.738 34.1016 308.82 33.8562C308.923 33.5904 309.12 33.386 309.408 33.2429C310.748 32.5274 312.12 31.6994 313.522 30.7589C314.945 29.8184 316.317 28.8167 317.637 27.7536C318.977 26.67 320.173 25.5967 321.225 24.5336C322.009 23.7567 322.72 23.358 323.36 23.3376C324.019 23.3171 324.731 23.6749 325.494 24.4109C326.525 25.3514 327.691 26.3327 328.99 27.3549C330.289 28.3771 331.66 29.3584 333.104 30.2989C334.568 31.2394 336.033 32.098 337.497 32.8749C337.827 33.0589 338.023 33.294 338.085 33.5802C338.167 33.846 338.126 34.1118 337.961 34.3776C337.816 34.6229 337.59 34.7762 337.28 34.8376C336.971 34.8989 336.641 34.8274 336.29 34.6229C334.888 33.8051 333.454 32.9056 331.99 31.9242C330.547 30.9224 329.165 29.89 327.845 28.8269C326.525 27.7638 325.34 26.7211 324.288 25.6989C323.958 25.3718 323.669 25.2082 323.422 25.2082C323.174 25.2082 322.875 25.382 322.524 25.7296C321.432 26.8336 320.214 27.9478 318.874 29.0722C317.534 30.1762 316.142 31.2291 314.698 32.2309C313.254 33.2122 311.842 34.0811 310.46 34.8376ZM317.296 34.6536C317.07 34.6536 316.863 34.5616 316.678 34.3776C316.513 34.1936 316.43 33.9891 316.43 33.7642C316.43 33.5189 316.513 33.3144 316.678 33.1509C316.863 32.9669 317.07 32.8749 317.296 32.8749H329.67C329.918 32.8749 330.124 32.9669 330.289 33.1509C330.454 33.3144 330.536 33.5189 330.536 33.7642C330.536 33.9891 330.454 34.1936 330.289 34.3776C330.124 34.5616 329.918 34.6536 329.67 34.6536H317.296Z" fill="black"/>
<path d="M112.298 74.5126C111.808 74.5126 111.391 74.4786 111.049 74.4106C110.706 74.3426 110.397 74.2455 110.123 74.1193C109.848 73.993 109.55 73.8473 109.227 73.6823V72.5461C109.54 72.8083 109.961 73.0413 110.49 73.2453C111.019 73.4492 111.636 73.5512 112.342 73.5512C113.086 73.5512 113.625 73.3958 113.958 73.085C114.301 72.7646 114.472 72.3615 114.472 71.876C114.472 71.4681 114.359 71.1428 114.134 70.9C113.909 70.6476 113.62 70.4436 113.267 70.2882C112.915 70.1232 112.543 69.9678 112.151 69.8221C111.817 69.7056 111.485 69.5842 111.151 69.4579C110.828 69.322 110.534 69.1569 110.27 68.9627C110.005 68.7587 109.795 68.5014 109.638 68.1906C109.481 67.8702 109.403 67.472 109.403 66.9962C109.403 66.734 109.452 66.4572 109.55 66.1659C109.657 65.8745 109.824 65.6026 110.049 65.3501C110.285 65.0977 110.593 64.8937 110.975 64.7383C111.367 64.5829 111.842 64.5053 112.4 64.5053C112.782 64.5053 113.106 64.5344 113.37 64.5927C113.645 64.6412 113.904 64.7189 114.149 64.8257C114.394 64.9229 114.668 65.0442 114.972 65.1899V66.2678C114.717 66.1222 114.472 65.9911 114.237 65.8745C114.012 65.7483 113.757 65.6512 113.473 65.5832C113.199 65.5055 112.861 65.4667 112.459 65.4667C111.979 65.4667 111.592 65.5347 111.298 65.6706C111.015 65.8065 110.803 65.9862 110.667 66.2096C110.539 66.4329 110.476 66.6709 110.476 66.9233C110.476 67.3215 110.564 67.6371 110.74 67.8702C110.926 68.1032 111.181 68.2974 111.504 68.4528C111.837 68.5985 112.219 68.7442 112.65 68.8898C112.993 69.0064 113.336 69.1375 113.679 69.2831C114.021 69.4191 114.33 69.5939 114.605 69.8075C114.888 70.0115 115.114 70.2737 115.28 70.5941C115.457 70.9049 115.545 71.2933 115.545 71.7595C115.545 72.1965 115.447 72.6286 115.251 73.0559C115.055 73.4735 114.722 73.8231 114.252 74.1047C113.782 74.3766 113.131 74.5126 112.298 74.5126ZM119.904 74.4834C119.385 74.4834 118.949 74.328 118.597 74.0173C118.244 73.6968 118.068 73.2259 118.068 72.6043V68.0595H116.789V67.0981H118.068V65.0442H119.126V67.0981H121.021V68.0595H119.126V72.2693C119.126 72.6772 119.189 72.9831 119.317 73.187C119.444 73.3909 119.703 73.4929 120.095 73.4929C120.272 73.4929 120.443 73.4783 120.61 73.4492C120.776 73.4103 120.914 73.3666 121.021 73.3181V74.3086C120.884 74.3572 120.708 74.396 120.492 74.4252C120.286 74.464 120.091 74.4834 119.904 74.4834ZM126.006 74.5854C125.36 74.5854 124.807 74.4737 124.346 74.2504C123.886 74.027 123.533 73.7017 123.288 73.2744C123.053 72.8471 122.935 72.3227 122.935 71.7012V67.0981H123.993V71.4681C123.993 72.2062 124.155 72.75 124.478 73.0996C124.811 73.4395 125.321 73.6094 126.006 73.6094C126.692 73.6094 127.196 73.4395 127.52 73.0996C127.853 72.75 128.019 72.2062 128.019 71.4681V67.0981H129.077V71.7012C129.077 72.6237 128.808 73.3375 128.269 73.8425C127.74 74.3378 126.986 74.5854 126.006 74.5854ZM134.472 74.5854C134.12 74.5854 133.747 74.532 133.356 74.4252C132.963 74.328 132.591 74.1436 132.239 73.8716C131.895 73.59 131.612 73.1918 131.387 72.6772C131.171 72.1528 131.063 71.473 131.063 70.6378C131.063 69.5114 131.337 68.6228 131.886 67.9721C132.445 67.3118 133.287 66.9816 134.414 66.9816C134.629 66.9816 134.884 67.0107 135.178 67.069C135.471 67.1273 135.76 67.2001 136.045 67.2875C136.328 67.3749 136.563 67.4671 136.75 67.5643L136.383 67.9284V64.0246H137.44V73.1142C137.44 73.3861 137.342 73.6192 137.147 73.8134C136.96 73.9979 136.715 74.1484 136.412 74.2649C136.108 74.3717 135.785 74.4495 135.442 74.498C135.099 74.5563 134.775 74.5854 134.472 74.5854ZM134.487 73.624C134.996 73.624 135.437 73.5657 135.809 73.4492C136.191 73.3327 136.383 73.187 136.383 73.0122V68.4528C136.079 68.278 135.751 68.1518 135.398 68.0741C135.055 67.9867 134.727 67.943 134.414 67.943C133.885 67.943 133.453 68.0595 133.12 68.2926C132.797 68.5159 132.557 68.8316 132.4 69.2394C132.254 69.6376 132.18 70.1037 132.18 70.6378C132.18 71.1622 132.239 71.6527 132.356 72.1091C132.474 72.5558 132.699 72.92 133.032 73.2016C133.365 73.4832 133.85 73.624 134.487 73.624ZM142.823 74.5854C142.128 74.5854 141.525 74.4446 141.016 74.163C140.506 73.8716 140.115 73.4395 139.84 72.8665C139.566 72.2936 139.429 71.5798 139.429 70.7252C139.429 69.4725 139.713 68.5354 140.281 67.9139C140.859 67.2827 141.648 66.967 142.647 66.967C143.43 66.967 144.057 67.1418 144.528 67.4914C145.008 67.841 145.35 68.312 145.556 68.9044C145.762 69.4968 145.86 70.1669 145.85 70.9146H139.958L140.031 69.9532H145.159L144.748 70.0989C144.719 69.3705 144.532 68.8267 144.19 68.4674C143.856 68.1081 143.342 67.9284 142.647 67.9284C142.167 67.9284 141.765 68.0158 141.442 68.1906C141.129 68.3654 140.894 68.6713 140.737 69.1083C140.58 69.5356 140.501 70.1377 140.501 70.9146C140.501 71.7983 140.707 72.4732 141.119 72.9394C141.54 73.3958 142.128 73.624 142.882 73.624C143.245 73.624 143.577 73.5997 143.881 73.5512C144.185 73.4929 144.464 73.4152 144.719 73.3181C144.973 73.221 145.199 73.1142 145.395 72.9976V74.0756C145.042 74.2406 144.65 74.3669 144.219 74.4543C143.798 74.5417 143.333 74.5854 142.823 74.5854ZM147.832 67.6808C148.067 67.5643 148.307 67.4623 148.552 67.3749C148.807 67.2778 149.061 67.2001 149.316 67.1418C149.581 67.0836 149.845 67.0399 150.11 67.0107C150.384 66.9816 150.658 66.967 150.933 66.967C151.647 66.967 152.216 67.0738 152.637 67.2875C153.058 67.4914 153.362 67.7925 153.548 68.1906C153.744 68.5888 153.842 69.0695 153.842 69.6327V74.3669H152.784V69.6327C152.784 69.4579 152.759 69.2734 152.711 69.0792C152.671 68.885 152.588 68.7005 152.461 68.5257C152.333 68.3411 152.138 68.1955 151.873 68.0887C151.609 67.9721 151.256 67.9139 150.815 67.9139C150.511 67.9139 150.198 67.9382 149.875 67.9867C149.551 68.0352 149.223 68.1081 148.89 68.2052V74.3669H147.832V67.6808ZM158.505 74.4834C157.986 74.4834 157.55 74.328 157.197 74.0173C156.844 73.6968 156.668 73.2259 156.668 72.6043V68.0595H155.39V67.0981H156.668V65.0442H157.726V67.0981H159.621V68.0595H157.726V72.2693C157.726 72.6772 157.79 72.9831 157.917 73.187C158.044 73.3909 158.304 73.4929 158.696 73.4929C158.872 73.4929 159.044 73.4783 159.21 73.4492C159.377 73.4103 159.514 73.3666 159.621 73.3181V74.3086C159.484 74.3572 159.308 74.396 159.092 74.4252C158.887 74.464 158.691 74.4834 158.505 74.4834ZM169.971 74.4834C168.462 74.4834 167.326 74.0658 166.562 73.2307C165.808 72.3956 165.43 71.1525 165.43 69.5016C165.43 67.8508 165.808 66.6077 166.562 65.7726C167.326 64.9374 168.462 64.5198 169.971 64.5198C170.49 64.5198 170.999 64.5829 171.499 64.7092C171.998 64.8355 172.483 65.0103 172.953 65.2336V66.2387C172.503 65.9959 172.038 65.8163 171.557 65.6997C171.078 65.5735 170.588 65.5104 170.088 65.5104C169.265 65.5104 168.589 65.6512 168.06 65.9328C167.541 66.2144 167.155 66.6514 166.9 67.2438C166.655 67.8265 166.532 68.5791 166.532 69.5016C166.532 70.4242 166.655 71.1816 166.9 71.774C167.155 72.3567 167.541 72.7889 168.06 73.0705C168.589 73.3521 169.265 73.4929 170.088 73.4929C170.588 73.4929 171.078 73.4346 171.557 73.3181C172.038 73.2016 172.503 73.0219 172.953 72.7791V73.7842C172.64 73.9299 172.317 74.0562 171.984 74.163C171.66 74.2698 171.328 74.3475 170.984 74.396C170.652 74.4543 170.314 74.4834 169.971 74.4834ZM177.951 74.5854C176.805 74.5854 175.953 74.2504 175.394 73.5803C174.845 72.9005 174.571 71.9586 174.571 70.7544C174.571 69.4919 174.86 68.5451 175.438 67.9139C176.026 67.2827 176.853 66.967 177.922 66.967C178.715 66.967 179.362 67.1273 179.861 67.4477C180.361 67.7585 180.728 68.2004 180.963 68.7733C181.198 69.3366 181.316 69.9969 181.316 70.7544C181.316 71.9488 181.022 72.8859 180.434 73.5657C179.856 74.2455 179.028 74.5854 177.951 74.5854ZM177.936 73.624C178.533 73.624 178.999 73.4977 179.332 73.2453C179.665 72.9831 179.9 72.6383 180.037 72.211C180.184 71.774 180.258 71.2885 180.258 70.7544C180.258 70.1814 180.184 69.6862 180.037 69.2686C179.89 68.8413 179.645 68.5111 179.303 68.278C178.969 68.045 178.514 67.9284 177.936 67.9284C177.348 67.9284 176.888 68.0547 176.555 68.3072C176.222 68.5596 175.982 68.8996 175.835 69.3268C175.697 69.7444 175.629 70.2202 175.629 70.7544C175.629 71.609 175.8 72.3033 176.144 72.8374C176.486 73.3618 177.084 73.624 177.936 73.624ZM186.375 74.5854C185.729 74.5854 185.175 74.4737 184.715 74.2504C184.255 74.027 183.902 73.7017 183.657 73.2744C183.422 72.8471 183.304 72.3227 183.304 71.7012V67.0981H184.362V71.4681C184.362 72.2062 184.524 72.75 184.847 73.0996C185.18 73.4395 185.689 73.6094 186.375 73.6094C187.061 73.6094 187.565 73.4395 187.889 73.0996C188.222 72.75 188.388 72.2062 188.388 71.4681V67.0981H189.446V71.7012C189.446 72.6237 189.177 73.3375 188.638 73.8425C188.109 74.3378 187.355 74.5854 186.375 74.5854ZM191.799 67.6808C192.034 67.5643 192.274 67.4623 192.519 67.3749C192.774 67.2778 193.028 67.2001 193.283 67.1418C193.547 67.0836 193.812 67.0399 194.076 67.0107C194.351 66.9816 194.625 66.967 194.899 66.967C195.615 66.967 196.183 67.0738 196.604 67.2875C197.025 67.4914 197.329 67.7925 197.515 68.1906C197.711 68.5888 197.809 69.0695 197.809 69.6327V74.3669H196.751V69.6327C196.751 69.4579 196.727 69.2734 196.677 69.0792C196.638 68.885 196.555 68.7005 196.427 68.5257C196.301 68.3411 196.104 68.1955 195.84 68.0887C195.575 67.9721 195.222 67.9139 194.782 67.9139C194.478 67.9139 194.164 67.9382 193.841 67.9867C193.518 68.0352 193.19 68.1081 192.857 68.2052V74.3669H191.799V67.6808ZM203.236 74.4834C202.844 74.4834 202.443 74.4349 202.031 74.3378C201.629 74.231 201.257 74.0464 200.914 73.7842C200.581 73.5123 200.312 73.1287 200.106 72.6335C199.901 72.1382 199.798 71.5021 199.798 70.7252C199.798 69.9484 199.901 69.3171 200.106 68.8316C200.312 68.3363 200.581 67.9527 200.914 67.6808C201.257 67.4089 201.629 67.2244 202.031 67.1273C202.443 67.0205 202.844 66.967 203.236 66.967C203.608 66.967 203.975 67.001 204.338 67.069C204.71 67.137 205.067 67.239 205.411 67.3749V68.38C205.088 68.2441 204.754 68.1421 204.412 68.0741C204.068 68.0061 203.716 67.9721 203.354 67.9721C202.481 67.9721 201.845 68.1906 201.443 68.6276C201.051 69.0646 200.856 69.7638 200.856 70.7252C200.856 71.6964 201.051 72.4004 201.443 72.8374C201.845 73.2647 202.481 73.4783 203.354 73.4783C203.716 73.4783 204.068 73.4444 204.412 73.3764C204.754 73.3084 205.088 73.2064 205.411 73.0705V74.0901C205.067 74.2164 204.71 74.3135 204.338 74.3815C203.975 74.4495 203.608 74.4834 203.236 74.4834ZM207.456 74.3669V67.0981H208.514V74.3669H207.456ZM207.397 65.8017V64.6509H208.572V65.8017H207.397ZM211.985 74.3669H210.927V64.3305H211.985V74.3669ZM221.617 74.5854C220.471 74.5854 219.618 74.2504 219.06 73.5803C218.511 72.9005 218.237 71.9586 218.237 70.7544C218.237 69.4919 218.526 68.5451 219.104 67.9139C219.692 67.2827 220.519 66.967 221.587 66.967C222.381 66.967 223.027 67.1273 223.527 67.4477C224.026 67.7585 224.394 68.2004 224.629 68.7733C224.864 69.3366 224.982 69.9969 224.982 70.7544C224.982 71.9488 224.688 72.8859 224.1 73.5657C223.521 74.2455 222.694 74.5854 221.617 74.5854ZM221.602 73.624C222.199 73.624 222.665 73.4977 222.998 73.2453C223.33 72.9831 223.566 72.6383 223.703 72.211C223.85 71.774 223.924 71.2885 223.924 70.7544C223.924 70.1814 223.85 69.6862 223.703 69.2686C223.556 68.8413 223.311 68.5111 222.968 68.278C222.635 68.045 222.18 67.9284 221.602 67.9284C221.014 67.9284 220.553 68.0547 220.221 68.3072C219.887 68.5596 219.648 68.8996 219.501 69.3268C219.363 69.7444 219.295 70.2202 219.295 70.7544C219.295 71.609 219.466 72.3033 219.809 72.8374C220.152 73.3618 220.75 73.624 221.602 73.624ZM227.646 74.3669V68.0595H226.382V67.0981H227.646V66.7048C227.646 66.1707 227.705 65.7386 227.822 65.4084C227.95 65.0685 228.111 64.8063 228.307 64.6218C228.503 64.4276 228.708 64.2916 228.924 64.2139C229.14 64.1265 229.346 64.078 229.541 64.0683C229.737 64.0489 229.894 64.0391 230.012 64.0391C230.148 64.0391 230.276 64.0489 230.394 64.0683C230.511 64.078 230.619 64.0974 230.717 64.1265V65.0588C230.648 65.0394 230.57 65.0248 230.482 65.0151C230.394 65.0054 230.295 65.0005 230.188 65.0005C230.022 65.0005 229.85 65.0103 229.674 65.0297C229.497 65.0491 229.336 65.1122 229.189 65.219C229.042 65.3162 228.924 65.4812 228.836 65.7143C228.748 65.9376 228.704 66.263 228.704 66.6903V67.0981H230.717V68.0595H228.704V74.3669H227.646ZM236.816 74.3669V64.6509H237.962L241.591 70.1717L240.871 70.3319L244.706 64.6509H245.852V74.3669H244.794V65.6997H245.265L241.224 71.3225L237.492 65.8163L237.874 65.2773V74.3669H236.816ZM251.306 74.5854C250.61 74.5854 250.008 74.4446 249.499 74.163C248.989 73.8716 248.597 73.4395 248.323 72.8665C248.049 72.2936 247.912 71.5798 247.912 70.7252C247.912 69.4725 248.196 68.5354 248.764 67.9139C249.342 67.2827 250.131 66.967 251.13 66.967C251.913 66.967 252.54 67.1418 253.011 67.4914C253.49 67.841 253.833 68.312 254.039 68.9044C254.245 69.4968 254.342 70.1669 254.333 70.9146H248.441L248.514 69.9532H253.642L253.231 70.0989C253.202 69.3705 253.015 68.8267 252.673 68.4674C252.339 68.1081 251.825 67.9284 251.13 67.9284C250.65 67.9284 250.248 68.0158 249.925 68.1906C249.611 68.3654 249.376 68.6713 249.22 69.1083C249.063 69.5356 248.985 70.1377 248.985 70.9146C248.985 71.7983 249.19 72.4732 249.602 72.9394C250.022 73.3958 250.61 73.624 251.365 73.624C251.727 73.624 252.06 73.5997 252.364 73.5512C252.667 73.4929 252.946 73.4152 253.202 73.3181C253.456 73.221 253.681 73.1142 253.878 72.9976V74.0756C253.525 74.2406 253.133 74.3669 252.702 74.4543C252.281 74.5417 251.815 74.5854 251.306 74.5854ZM256.373 74.3669V67.0981H257.431V74.3669H256.373ZM256.314 65.8017V64.6509H257.49V65.8017H256.314ZM261.623 74.3669L259.184 67.0981H260.3L262.343 73.5803L262.064 73.6968L264.003 67.0981H265.017L266.971 73.522H266.766L268.808 67.0981H269.851L267.412 74.3669H266.34L264.385 67.9284L264.576 68.1032L262.695 74.3669H261.623ZM274.067 74.5854C273.744 74.5854 273.415 74.5514 273.083 74.4834C272.759 74.4154 272.455 74.2989 272.172 74.1338C271.897 73.9688 271.672 73.7454 271.496 73.4638C271.329 73.1724 271.246 72.8083 271.246 72.3713C271.246 71.7692 271.358 71.2885 271.584 70.9292C271.819 70.5602 272.137 70.298 272.539 70.1426C272.95 69.9775 273.421 69.8949 273.95 69.8949C274.351 69.8949 274.699 69.9192 274.993 69.9678C275.287 70.0163 275.546 70.0891 275.772 70.1863C276.007 70.2737 276.217 70.3756 276.403 70.4922L276.609 71.4536C276.383 71.2885 276.055 71.1477 275.625 71.0311C275.203 70.9049 274.738 70.8418 274.229 70.8418C273.612 70.8418 273.136 70.9583 272.803 71.1914C272.47 71.4244 272.304 71.7643 272.304 72.211C272.304 72.5704 272.401 72.8568 272.598 73.0705C272.803 73.2841 273.058 73.4346 273.362 73.522C273.675 73.6094 273.994 73.6531 274.317 73.6531C274.953 73.6531 275.434 73.6094 275.757 73.522C276.089 73.4249 276.256 73.2113 276.256 72.8811V69.5453C276.256 68.9821 276.089 68.5694 275.757 68.3072C275.424 68.045 274.949 67.9139 274.332 67.9139C273.939 67.9139 273.523 67.9721 273.083 68.0887C272.651 68.1955 272.279 68.3703 271.966 68.6131V67.5643C272.269 67.3701 272.676 67.2244 273.185 67.1273C273.694 67.0205 274.189 66.967 274.67 66.967C274.993 66.967 275.291 67.001 275.566 67.069C275.84 67.1273 276.085 67.2195 276.301 67.3458C276.516 67.4623 276.697 67.6177 276.844 67.8119C277 67.9964 277.118 68.2149 277.197 68.4674C277.285 68.7102 277.329 68.987 277.329 69.2977V72.8228C277.329 73.3375 277.172 73.7211 276.859 73.9736C276.555 74.2261 276.154 74.3912 275.654 74.4689C275.164 74.5465 274.635 74.5854 274.067 74.5854ZM284.011 74.3669V64.6509H285.069V69.0209H290.285V64.6509H291.343V74.3669H290.285V70.0115H285.069V74.3669H284.011ZM293.826 74.3669V67.0981H294.884V74.3669H293.826ZM293.767 65.8017V64.6509H294.943V65.8017H293.767ZM300.28 74.5854C299.525 74.5854 298.898 74.4397 298.399 74.1484C297.909 73.8473 297.542 73.4249 297.297 72.8811C297.052 72.3276 296.929 71.6769 296.929 70.9292C296.929 70.094 297.042 69.4191 297.267 68.9044C297.493 68.38 297.782 67.9819 298.134 67.7099C298.497 67.4283 298.889 67.239 299.31 67.1418C299.741 67.035 300.157 66.9816 300.559 66.9816C301.02 66.9816 301.455 67.0447 301.866 67.171C302.288 67.2875 302.631 67.4769 302.895 67.7391C303.17 68.0013 303.306 68.3509 303.306 68.7879V74.6728C303.306 74.9641 303.262 75.2603 303.174 75.5614C303.086 75.8624 302.924 76.1392 302.689 76.3917C302.464 76.6539 302.141 76.8624 301.72 77.018C301.308 77.1737 300.774 77.2511 300.118 77.2511C299.697 77.2511 299.31 77.212 298.957 77.1346C298.604 77.0571 298.296 76.9843 298.031 76.9161V75.9255C298.188 75.9644 298.365 76.0081 298.56 76.0566C298.766 76.1149 298.986 76.1634 299.222 76.2023C299.467 76.2412 299.727 76.2606 300 76.2606C300.667 76.2606 301.157 76.178 301.47 76.0129C301.793 75.8575 302.004 75.6585 302.102 75.4157C302.2 75.1826 302.248 74.9447 302.248 74.7019V73.6386L302.616 74.0027C302.43 74.0999 302.195 74.1921 301.911 74.2795C301.627 74.3669 301.337 74.4397 301.044 74.498C300.75 74.5563 300.495 74.5854 300.28 74.5854ZM300.28 73.624C300.593 73.624 300.921 73.5851 301.264 73.5075C301.617 73.4201 301.945 73.289 302.248 73.1142V68.9335C302.248 68.6616 302.17 68.4577 302.013 68.3217C301.866 68.1761 301.666 68.0789 301.411 68.0304C301.157 67.9721 300.882 67.943 300.588 67.943C299.873 67.943 299.334 68.0838 298.972 68.3654C298.61 68.6374 298.365 69.0015 298.237 69.4579C298.11 69.9143 298.046 70.4048 298.046 70.9292C298.046 71.7255 298.218 72.3761 298.56 72.8811C298.904 73.3764 299.477 73.624 300.28 73.624ZM305.663 74.3669V63.8789H306.721V67.9139L306.603 67.6371C306.975 67.4332 307.367 67.2729 307.779 67.1564C308.19 67.0301 308.577 66.967 308.94 66.967C309.547 66.967 310.056 67.0787 310.468 67.3021C310.889 67.5254 311.207 67.8653 311.423 68.3217C311.648 68.7685 311.761 69.3462 311.761 70.0552V74.3669H310.703V70.0552C310.703 69.3754 310.546 68.851 310.233 68.482C309.919 68.113 309.449 67.9284 308.822 67.9284C308.479 67.9284 308.131 67.977 307.779 68.0741C307.435 68.1712 307.083 68.3169 306.721 68.5111V74.3669H305.663ZM321.227 74.5126C320.737 74.5126 320.321 74.4786 319.978 74.4106C319.635 74.3426 319.327 74.2455 319.052 74.1193C318.778 73.993 318.479 73.8473 318.156 73.6823V72.5461C318.47 72.8083 318.891 73.0413 319.42 73.2453C319.948 73.4492 320.566 73.5512 321.271 73.5512C322.016 73.5512 322.555 73.3958 322.887 73.085C323.231 72.7646 323.402 72.3615 323.402 71.876C323.402 71.4681 323.289 71.1428 323.064 70.9C322.839 70.6476 322.549 70.4436 322.197 70.2882C321.844 70.1232 321.472 69.9678 321.08 69.8221C320.747 69.7056 320.414 69.5842 320.081 69.4579C319.757 69.322 319.464 69.1569 319.199 68.9627C318.935 68.7587 318.724 68.5014 318.567 68.1906C318.411 67.8702 318.332 67.472 318.332 66.9962C318.332 66.734 318.382 66.4572 318.479 66.1659C318.587 65.8745 318.754 65.6026 318.979 65.3501C319.214 65.0977 319.522 64.8937 319.904 64.7383C320.297 64.5829 320.771 64.5053 321.33 64.5053C321.712 64.5053 322.035 64.5344 322.3 64.5927C322.574 64.6412 322.834 64.7189 323.078 64.8257C323.323 64.9229 323.598 65.0442 323.901 65.1899V66.2678C323.647 66.1222 323.402 65.9911 323.166 65.8745C322.941 65.7483 322.687 65.6512 322.402 65.5832C322.129 65.5055 321.791 65.4667 321.389 65.4667C320.909 65.4667 320.522 65.5347 320.228 65.6706C319.944 65.8065 319.734 65.9862 319.596 66.2096C319.469 66.4329 319.405 66.6709 319.405 66.9233C319.405 67.3215 319.493 67.6371 319.669 67.8702C319.856 68.1032 320.11 68.2974 320.433 68.4528C320.767 68.5985 321.149 68.7442 321.58 68.8898C321.923 69.0064 322.266 69.1375 322.608 69.2831C322.952 69.4191 323.26 69.5939 323.534 69.8075C323.818 70.0115 324.043 70.2737 324.21 70.5941C324.386 70.9049 324.474 71.2933 324.474 71.7595C324.474 72.1965 324.377 72.6286 324.18 73.0559C323.985 73.4735 323.651 73.8231 323.181 74.1047C322.711 74.3766 322.06 74.5126 321.227 74.5126ZM329.598 74.4834C329.206 74.4834 328.804 74.4349 328.393 74.3378C327.992 74.231 327.619 74.0464 327.276 73.7842C326.944 73.5123 326.674 73.1287 326.468 72.6335C326.262 72.1382 326.159 71.5021 326.159 70.7252C326.159 69.9484 326.262 69.3171 326.468 68.8316C326.674 68.3363 326.944 67.9527 327.276 67.6808C327.619 67.4089 327.992 67.2244 328.393 67.1273C328.804 67.0205 329.206 66.967 329.598 66.967C329.971 66.967 330.338 67.001 330.7 67.069C331.073 67.137 331.43 67.239 331.772 67.3749V68.38C331.449 68.2441 331.117 68.1421 330.773 68.0741C330.431 68.0061 330.078 67.9721 329.715 67.9721C328.844 67.9721 328.207 68.1906 327.805 68.6276C327.414 69.0646 327.217 69.7638 327.217 70.7252C327.217 71.6964 327.414 72.4004 327.805 72.8374C328.207 73.2647 328.844 73.4783 329.715 73.4783C330.078 73.4783 330.431 73.4444 330.773 73.3764C331.117 73.3084 331.449 73.2064 331.772 73.0705V74.0901C331.43 74.2164 331.073 74.3135 330.7 74.3815C330.338 74.4495 329.971 74.4834 329.598 74.4834ZM333.759 74.3669V63.8789H334.817V67.9139L334.7 67.6371C335.072 67.4332 335.464 67.2729 335.875 67.1564C336.287 67.0301 336.673 66.967 337.036 66.967C337.643 66.967 338.153 67.0787 338.564 67.3021C338.986 67.5254 339.304 67.8653 339.519 68.3217C339.744 68.7685 339.857 69.3462 339.857 70.0552V74.3669H338.799V70.0552C338.799 69.3754 338.642 68.851 338.329 68.482C338.016 68.113 337.546 67.9284 336.918 67.9284C336.576 67.9284 336.228 67.977 335.875 68.0741C335.533 68.1712 335.18 68.3169 334.817 68.5111V74.3669H333.759ZM345.224 74.5854C344.077 74.5854 343.225 74.2504 342.667 73.5803C342.118 72.9005 341.844 71.9586 341.844 70.7544C341.844 69.4919 342.132 68.5451 342.711 67.9139C343.299 67.2827 344.126 66.967 345.194 66.967C345.988 66.967 346.634 67.1273 347.134 67.4477C347.633 67.7585 348.001 68.2004 348.236 68.7733C348.471 69.3366 348.589 69.9969 348.589 70.7544C348.589 71.9488 348.295 72.8859 347.707 73.5657C347.128 74.2455 346.301 74.5854 345.224 74.5854ZM345.209 73.624C345.806 73.624 346.272 73.4977 346.605 73.2453C346.937 72.9831 347.173 72.6383 347.31 72.211C347.457 71.774 347.531 71.2885 347.531 70.7544C347.531 70.1814 347.457 69.6862 347.31 69.2686C347.163 68.8413 346.918 68.5111 346.575 68.278C346.242 68.045 345.787 67.9284 345.209 67.9284C344.621 67.9284 344.16 68.0547 343.828 68.3072C343.494 68.5596 343.255 68.8996 343.108 69.3268C342.97 69.7444 342.902 70.2202 342.902 70.7544C342.902 71.609 343.073 72.3033 343.416 72.8374C343.759 73.3618 344.357 73.624 345.209 73.624ZM353.589 74.5854C352.443 74.5854 351.591 74.2504 351.032 73.5803C350.484 72.9005 350.21 71.9586 350.21 70.7544C350.21 69.4919 350.499 68.5451 351.076 67.9139C351.664 67.2827 352.492 66.967 353.56 66.967C354.353 66.967 355 67.1273 355.499 67.4477C355.999 67.7585 356.366 68.2004 356.601 68.7733C356.836 69.3366 356.954 69.9969 356.954 70.7544C356.954 71.9488 356.66 72.8859 356.072 73.5657C355.495 74.2455 354.666 74.5854 353.589 74.5854ZM353.574 73.624C354.172 73.624 354.637 73.4977 354.97 73.2453C355.304 72.9831 355.539 72.6383 355.676 72.211C355.823 71.774 355.896 71.2885 355.896 70.7544C355.896 70.1814 355.823 69.6862 355.676 69.2686C355.529 68.8413 355.284 68.5111 354.941 68.278C354.608 68.045 354.152 67.9284 353.574 67.9284C352.987 67.9284 352.527 68.0547 352.193 68.3072C351.86 68.5596 351.62 68.8996 351.473 69.3268C351.336 69.7444 351.267 70.2202 351.267 70.7544C351.267 71.609 351.439 72.3033 351.782 72.8374C352.124 73.3618 352.722 73.624 353.574 73.624ZM360 74.3669H358.942V64.3305H360V74.3669Z" fill="black"/>
</svg>
