<?xml version="1.0" standalone="no"?>
<!DOCTYPE svg PUBLIC "-//W3C//DTD SVG 20010904//EN"
 "http://www.w3.org/TR/2001/REC-SVG-20010904/DTD/svg10.dtd">
<svg version="1.0" xmlns="http://www.w3.org/2000/svg"
 width="585.000000pt" height="585.000000pt" viewBox="0 0 585.000000 585.000000"
 preserveAspectRatio="xMidYMid meet">
<metadata>
Created by potrace 1.14, written by Peter Selinger 2001-2017
</metadata>
<g transform="translate(0.000000,585.000000) scale(0.100000,-0.100000)"
fill="#000000" stroke="none">
<path d="M2657 5814 c-3 -3 -27 -8 -54 -11 -26 -2 -86 -13 -133 -23 -47 -10
-107 -22 -135 -25 -60 -8 -162 -32 -190 -45 -11 -5 -65 -23 -120 -38 -55 -16
-142 -46 -192 -66 -51 -20 -96 -36 -100 -36 -5 0 -19 -9 -32 -19 l-24 -19 24
-12 c13 -7 40 -29 61 -49 20 -20 58 -45 85 -55 45 -18 105 -57 128 -82 6 -6
53 -40 105 -75 52 -35 100 -68 106 -74 6 -5 53 -48 104 -95 163 -147 308 -304
380 -410 13 -19 27 -37 30 -40 11 -9 186 -301 227 -380 52 -101 119 -273 177
-455 28 -90 34 -120 41 -185 2 -25 15 -88 29 -140 14 -52 28 -122 30 -155 6
-60 15 -123 23 -160 4 -19 13 -189 13 -270 1 -22 -2 -51 -5 -65 -3 -14 -5 -69
-6 -123 0 -54 -4 -109 -9 -122 -5 -14 -12 -67 -14 -118 -3 -51 -10 -106 -16
-122 -7 -17 -13 -37 -15 -45 -4 -18 -43 -151 -78 -265 -37 -117 -101 -292
-132 -355 -14 -30 -55 -100 -90 -155 -35 -55 -78 -125 -96 -155 -68 -118 -161
-248 -225 -315 -37 -38 -94 -101 -128 -139 -91 -103 -175 -184 -236 -230 -61
-46 -99 -85 -100 -103 0 -25 204 0 345 43 28 8 60 17 72 20 85 17 331 131 452
209 93 60 270 201 350 278 67 65 182 199 253 294 69 93 218 236 273 262 66 31
151 38 450 36 230 -2 254 -4 305 -24 117 -46 152 -115 111 -219 -27 -67 -89
-188 -110 -212 -53 -60 -77 -90 -96 -116 -38 -54 -115 -123 -240 -216 -38 -28
-87 -64 -107 -80 -20 -15 -41 -28 -47 -28 -5 0 -11 -4 -13 -8 -8 -19 -242
-157 -276 -162 -4 -1 -27 -10 -52 -21 -193 -86 -465 -173 -570 -184 -26 -2
-53 -7 -61 -9 -8 -3 -30 -7 -49 -10 -19 -3 -46 -8 -60 -10 -52 -10 -107 -18
-160 -25 -68 -8 -391 -6 -445 4 -22 4 -74 8 -115 9 -42 1 -81 5 -87 9 -6 4
-32 9 -59 12 -81 9 -106 14 -174 33 l-65 19 -138 -69 c-104 -52 -138 -73 -135
-86 2 -11 52 -34 163 -75 88 -33 169 -63 180 -68 65 -28 295 -87 430 -110 33
-5 71 -12 85 -15 29 -6 64 -10 170 -21 94 -9 412 -9 505 0 39 4 105 9 149 12
43 3 82 7 85 9 3 2 31 7 61 11 87 10 160 26 315 69 6 2 24 6 40 11 17 4 77 28
135 52 58 25 121 51 140 59 147 62 437 217 515 277 5 4 27 21 49 37 21 17 42
30 45 30 3 0 20 14 38 30 18 17 35 30 38 30 9 0 111 83 165 135 45 42 202 210
230 246 8 11 30 36 49 57 60 67 117 154 236 361 64 112 123 214 130 225 8 12
15 26 16 31 1 6 3 15 5 20 1 6 7 26 13 45 5 19 18 59 29 88 11 29 20 54 20 55
-1 3 40 137 68 223 13 40 25 83 28 95 10 58 36 196 41 219 3 14 8 45 10 70 3
25 8 70 12 100 10 66 9 385 0 455 -4 28 -9 79 -12 115 -6 66 -11 116 -20 183
-3 20 -7 56 -10 80 -15 119 -62 281 -147 511 -35 96 -132 303 -147 316 -6 5
-27 43 -104 190 -47 89 -80 141 -110 172 -7 7 -54 63 -103 123 -82 99 -136
156 -274 285 -117 110 -324 261 -465 340 -33 19 -61 37 -63 42 -2 4 -9 8 -16
8 -6 0 -27 10 -46 23 -19 13 -69 38 -111 55 -42 18 -111 48 -153 67 -42 19
-83 35 -92 35 -9 0 -30 6 -47 14 -26 12 -106 37 -127 40 -3 1 -23 7 -45 13
-92 29 -253 72 -285 78 -19 3 -42 8 -50 10 -51 15 -740 32 -753 19z m283 -429
c63 -8 247 -46 335 -70 33 -9 67 -18 75 -20 18 -4 114 -38 150 -53 14 -6 50
-20 80 -32 111 -44 278 -134 400 -216 133 -90 186 -132 290 -233 36 -35 81
-75 100 -90 93 -70 276 -296 337 -416 45 -89 36 -200 -20 -245 -31 -25 -33
-25 -217 -24 -175 2 -347 9 -435 20 -54 6 -135 47 -183 92 -21 20 -71 82 -111
137 -39 55 -75 105 -81 112 -5 7 -10 15 -10 18 0 10 -166 253 -212 310 -35 43
-57 69 -111 129 -34 38 -72 83 -84 99 -13 17 -55 54 -95 84 -40 29 -82 61 -93
71 -11 10 -42 36 -70 57 -27 22 -52 43 -55 46 -6 7 -183 114 -190 114 -3 0
-38 20 -77 43 -48 28 -73 49 -73 61 0 17 11 18 148 15 81 -2 172 -6 202 -9z
m1805 -2079 c187 -10 229 -22 292 -84 70 -68 90 -142 87 -317 -6 -301 -11
-380 -27 -419 -18 -41 -57 -82 -95 -97 -23 -9 -33 -11 -117 -27 -57 -11 -647
-7 -715 4 -60 11 -64 11 -72 14 -5 1 -12 3 -17 4 -5 0 -24 12 -41 24 -59 44
-63 66 -67 395 -2 186 1 313 7 337 6 21 29 59 53 85 65 72 101 80 363 83 120
2 220 5 222 7 2 2 9 2 15 0 7 -3 57 -7 112 -9z"/>
<path d="M1465 5312 c-139 -77 -374 -235 -441 -297 -6 -5 -24 -19 -39 -30 -16
-11 -56 -46 -89 -77 -32 -32 -62 -58 -67 -58 -4 0 -49 -48 -101 -107 -51 -60
-95 -110 -98 -113 -27 -25 -108 -131 -152 -200 -88 -137 -225 -381 -248 -440
-7 -19 -19 -48 -26 -65 -23 -51 -106 -288 -110 -315 -12 -68 -17 -87 -30 -108
-8 -12 -16 -51 -18 -86 -3 -34 -7 -83 -10 -107 -4 -24 -8 -64 -11 -89 -2 -25
-8 -57 -14 -72 -12 -33 -12 -451 1 -492 5 -17 11 -63 13 -102 2 -39 9 -83 15
-98 5 -15 9 -30 8 -34 -2 -8 19 -106 37 -177 86 -327 295 -734 522 -1018 70
-88 265 -285 379 -383 119 -102 245 -185 437 -288 64 -34 94 -45 110 -40 38
12 160 73 212 106 270 171 410 279 511 393 32 37 73 81 89 99 17 17 44 49 60
71 16 22 52 65 79 95 27 30 61 73 75 95 14 22 29 41 34 43 4 2 7 9 7 16 0 7 8
21 18 32 21 24 82 122 82 134 0 5 4 10 9 12 16 6 109 203 146 308 19 57 39
108 44 114 13 18 50 111 56 142 3 16 14 63 26 104 32 117 40 159 44 245 2 44
9 95 14 113 12 39 12 517 1 548 -5 12 -11 48 -15 80 -3 33 -8 68 -10 79 -4 18
-7 39 -21 135 -12 90 -77 288 -149 455 -9 22 -18 48 -20 57 -5 24 -134 280
-150 298 -8 8 -15 20 -16 25 -3 12 -70 118 -79 125 -3 3 -17 21 -30 40 -13 19
-27 37 -30 40 -13 12 -101 122 -157 195 -76 100 -112 138 -188 201 -33 27 -67
56 -75 64 -50 51 -305 240 -324 240 -2 0 -31 17 -63 39 -135 89 -169 97 -248
53z m140 -387 c19 -20 69 -84 110 -143 41 -59 78 -111 83 -117 19 -26 156
-240 206 -325 50 -83 154 -287 177 -345 53 -137 99 -317 103 -410 5 -94 -45
-236 -100 -289 -68 -65 -109 -72 -384 -69 -745 7 -762 8 -809 32 -80 42 -148
128 -167 214 -16 72 -13 191 6 252 11 33 29 92 41 130 12 39 32 91 45 117 13
26 24 54 24 63 0 8 5 15 12 15 6 0 9 3 5 6 -7 7 126 269 144 284 3 3 25 41 48
85 46 85 127 205 140 205 4 0 20 21 37 47 73 118 210 282 236 283 4 0 23 -16
43 -35z m479 -2361 c88 -35 151 -107 171 -197 2 -12 9 -42 16 -67 13 -52 6
-145 -14 -210 -8 -25 -27 -85 -42 -135 -15 -49 -30 -99 -34 -110 -17 -46 -88
-186 -139 -275 -53 -91 -208 -329 -222 -340 -3 -3 -19 -26 -35 -52 -17 -27
-33 -48 -37 -48 -5 0 -8 -5 -8 -11 0 -19 -153 -205 -179 -217 -38 -18 -46 -15
-87 35 -22 25 -58 67 -81 92 -23 25 -52 63 -65 84 -13 21 -36 59 -53 84 -16
26 -34 54 -40 62 -5 9 -13 18 -16 21 -39 31 -239 388 -274 490 -5 15 -28 67
-49 115 -40 87 -77 206 -82 265 -3 30 -10 67 -15 81 -8 21 -6 42 11 95 11 38
22 82 24 97 3 26 35 72 63 90 7 4 18 14 26 21 8 8 31 24 53 35 38 21 48 21
549 18 476 -3 513 -5 559 -23z"/>
</g>
</svg>
